<svg xmlns="http://www.w3.org/2000/svg" viewBox="0 0 28 28"><defs><style>.cls-2{fill:none;stroke:#4c6cf6;stroke-linecap:round;stroke-miterlimit:10;stroke-width:2px}</style></defs><g id="Calque_2" data-name="Calque 2"><g id="Calque_1-2" data-name="Calque 1"><path d="M26.5 0h-9a1.5 1.5 0 0 0 0 3h5.38L11.5 14.38a1.5 1.5 0 1 0 2.12 2.12L25 5.12v5.38a1.5 1.5 0 0 0 3 0v-9A1.5 1.5 0 0 0 26.5 0z" fill="#4c6cf6"/><path class="cls-2" d="M1 14a13 13 0 0 0 13 13M14 27a13 13 0 0 0 13-13M14 1A13 13 0 0 0 1 14"/></g></g></svg>