<svg xmlns="http://www.w3.org/2000/svg" viewBox="0 0 120 28"><g data-name="Calque 2"><g data-name="Calque 1"><path d="M26.5 0h-9a1.5 1.5 0 0 0 0 3h5.38L11.5 14.38a1.5 1.5 0 1 0 2.12 2.12L25 5.12v5.38a1.5 1.5 0 0 0 3 0v-9A1.5 1.5 0 0 0 26.5 0z" fill="#ee635d"/><path d="M1 14a13 13 0 0 0 13 13m0 0a13 13 0 0 0 13-13M14 1A13 13 0 0 0 1 14" fill="none" stroke="#ee635d" stroke-linecap="round" stroke-miterlimit="10" stroke-width="2"/><text transform="translate(33.09 19.17)" font-size="16" font-family="Nunito-Bold,Nunito" font-weight="700" fill="#ee635d">IMP<tspan x="28.51" y="0" letter-spacing="-.01em">R</tspan><tspan x="39.55" y="0">O</tspan><tspan x="52.02" y="0" letter-spacing="-.02em">O</tspan><tspan x="64.19" y="0">VE</tspan></text></g></g></svg>