<svg id="Groupe_317" data-name="Groupe 317" xmlns="http://www.w3.org/2000/svg" xmlns:xlink="http://www.w3.org/1999/xlink" width="734" height="764.5" viewBox="0 0 734 764.5">
  <defs>
    <linearGradient id="linear-gradient" y1="0.5" x2="1" y2="0.5" gradientUnits="objectBoundingBox">
      <stop offset="0" stop-color="gray" stop-opacity="0.251"/>
      <stop offset="0.54" stop-color="gray" stop-opacity="0.122"/>
      <stop offset="1" stop-color="gray" stop-opacity="0.102"/>
    </linearGradient>
    <linearGradient id="linear-gradient-8" x1="0.5" y1="1" x2="0.5" y2="0" xlink:href="#linear-gradient"/>
    <linearGradient id="linear-gradient-10" x1="0" y1="0.5" y2="0.5" xlink:href="#linear-gradient"/>
    <linearGradient id="linear-gradient-21" x1="0.5" y1="1" x2="0.5" y2="0" xlink:href="#linear-gradient"/>
    <linearGradient id="linear-gradient-26" x1="0" y1="0.5" y2="0.5" xlink:href="#linear-gradient"/>
    <linearGradient id="linear-gradient-44" x1="0" y1="0.5" y2="0.5" xlink:href="#linear-gradient"/>
    <linearGradient id="linear-gradient-49" x1="0.5" y1="1" x2="0.5" y2="0" xlink:href="#linear-gradient"/>
    <linearGradient id="linear-gradient-50" x1="0" y1="0.5" y2="0.5" xlink:href="#linear-gradient"/>
    <linearGradient id="linear-gradient-51" x1="0.5" y1="0.999" x2="0.5" y2="-0.002" xlink:href="#linear-gradient"/>
    <linearGradient id="linear-gradient-52" x1="0" y1="0.5" y2="0.5" xlink:href="#linear-gradient"/>
    <linearGradient id="linear-gradient-53" x1="0.001" y1="0.501" y2="0.501" xlink:href="#linear-gradient"/>
    <linearGradient id="linear-gradient-58" x1="0" y1="0.5" y2="0.5" xlink:href="#linear-gradient"/>
    <linearGradient id="linear-gradient-60" x1="0" y1="0.5" y2="0.5" xlink:href="#linear-gradient"/>
    <linearGradient id="linear-gradient-61" x1="0" y1="0.498" y2="0.498" xlink:href="#linear-gradient"/>
    <linearGradient id="linear-gradient-62" x1="0" y1="0.498" y2="0.498" xlink:href="#linear-gradient"/>
    <linearGradient id="linear-gradient-64" x1="0" y1="0.502" y2="0.502" xlink:href="#linear-gradient"/>
    <linearGradient id="linear-gradient-65" x1="0" y1="0.502" y2="0.502" xlink:href="#linear-gradient"/>
    <linearGradient id="linear-gradient-67" x1="0" y1="0.5" y2="0.5" xlink:href="#linear-gradient"/>
    <linearGradient id="linear-gradient-70" x1="0" y1="0.499" y2="0.499" xlink:href="#linear-gradient"/>
    <linearGradient id="linear-gradient-71" x1="0" y1="0.501" y2="0.501" xlink:href="#linear-gradient"/>
    <linearGradient id="linear-gradient-86" x1="0.5" y1="1.002" x2="0.5" y2="0.003" xlink:href="#linear-gradient"/>
    <linearGradient id="linear-gradient-88" x1="0.5" y1="1" x2="0.5" y2="0" xlink:href="#linear-gradient"/>
  </defs>
  <g id="Groupe_306" data-name="Groupe 306" opacity="0.7">
    <path id="Tracé_1413" data-name="Tracé 1413" d="M608.5,366.44,366.37,308.13V764.5L608.5,701.12Z" fill="url(#linear-gradient)"/>
    <g id="Groupe_286" data-name="Groupe 286" opacity="0.1">
      <path id="Tracé_1414" data-name="Tracé 1414" d="M608.5,366.44,366.37,308.13V764.5L608.5,701.12Z" fill="url(#linear-gradient)"/>
    </g>
    <path id="Tracé_1415" data-name="Tracé 1415" d="M124.23,366.44l242.14-58.31V764.5L124.23,702.38Z" fill="url(#linear-gradient)"/>
    <g id="Groupe_287" data-name="Groupe 287" opacity="0.17">
      <path id="Tracé_1416" data-name="Tracé 1416" d="M124.23,366.44l242.14-58.31V764.5L124.23,702.38Z" fill="url(#linear-gradient)"/>
    </g>
    <path id="Tracé_1417" data-name="Tracé 1417" d="M366.37,308.13l125.5-103.95L734,266.3,608.5,366.44Z" fill="url(#linear-gradient)"/>
    <path id="Tracé_1418" data-name="Tracé 1418" d="M0,267.56l124.23,98.88,242.14-58.31L243.4,204.18Z" fill="url(#linear-gradient)"/>
    <g id="Groupe_288" data-name="Groupe 288" opacity="0.05">
      <path id="Tracé_1419" data-name="Tracé 1419" d="M0,267.56l124.23,98.88,242.14-58.31L243.4,204.18Z" fill="url(#linear-gradient)"/>
    </g>
    <g id="Groupe_289" data-name="Groupe 289" opacity="0.5">
      <rect id="Rectangle_2103" data-name="Rectangle 2103" width="179.72" height="165.82" rx="4.5" transform="translate(186.78 255.38)" fill="url(#linear-gradient-8)"/>
    </g>
    <rect id="Rectangle_2104" data-name="Rectangle 2104" width="175.58" height="161.8" rx="4.5" transform="translate(188.97 256.66)" fill="url(#linear-gradient)"/>
    <rect id="Rectangle_2105" data-name="Rectangle 2105" width="29.61" height="26.65" rx="4.5" transform="translate(202.5 283.31)" fill="url(#linear-gradient-10)"/>
    <rect id="Rectangle_2106" data-name="Rectangle 2106" width="117.71" height="2.96" rx="0.8" transform="translate(240.99 283.31)" fill="url(#linear-gradient)"/>
    <rect id="Rectangle_2107" data-name="Rectangle 2107" width="117.71" height="2.96" rx="0.8" transform="translate(240.99 292.19)" fill="url(#linear-gradient)"/>
    <rect id="Rectangle_2108" data-name="Rectangle 2108" width="159.16" height="2.96" rx="0.8" transform="translate(199.54 324.44)" fill="url(#linear-gradient)"/>
    <rect id="Rectangle_2109" data-name="Rectangle 2109" width="159.16" height="2.96" rx="0.8" transform="translate(199.54 333.32)" fill="url(#linear-gradient)"/>
    <rect id="Rectangle_2110" data-name="Rectangle 2110" width="159.16" height="2.96" rx="0.8" transform="translate(199.54 345.16)" fill="url(#linear-gradient)"/>
    <rect id="Rectangle_2111" data-name="Rectangle 2111" width="91.79" height="2.96" rx="0.8" transform="translate(199.54 354.05)" fill="url(#linear-gradient)"/>
    <rect id="Rectangle_2112" data-name="Rectangle 2112" width="159.16" height="2.96" rx="0.8" transform="translate(199.54 365.86)" fill="url(#linear-gradient)"/>
    <rect id="Rectangle_2113" data-name="Rectangle 2113" width="159.16" height="2.96" rx="0.8" transform="translate(199.54 374.74)" fill="url(#linear-gradient)"/>
    <rect id="Rectangle_2114" data-name="Rectangle 2114" width="159.16" height="2.96" rx="0.8" transform="translate(199.54 386.59)" fill="url(#linear-gradient)"/>
    <rect id="Rectangle_2115" data-name="Rectangle 2115" width="91.79" height="2.96" rx="0.8" transform="translate(199.54 395.47)" fill="url(#linear-gradient)"/>
    <g id="Groupe_290" data-name="Groupe 290" opacity="0.5">
      <rect id="Rectangle_2116" data-name="Rectangle 2116" width="179.72" height="165.82" rx="4.5" transform="translate(213.9 293.69)" fill="url(#linear-gradient-21)"/>
    </g>
    <rect id="Rectangle_2117" data-name="Rectangle 2117" width="175.58" height="161.8" rx="4.5" transform="translate(216.09 294.98)" fill="url(#linear-gradient)"/>
    <rect id="Rectangle_2118" data-name="Rectangle 2118" width="29.61" height="26.65" rx="4.5" transform="translate(229.62 321.63)" fill="url(#linear-gradient-10)"/>
    <rect id="Rectangle_2119" data-name="Rectangle 2119" width="117.71" height="2.96" rx="0.8" transform="translate(268.12 321.63)" fill="url(#linear-gradient)"/>
    <rect id="Rectangle_2120" data-name="Rectangle 2120" width="117.71" height="2.96" rx="0.8" transform="translate(268.12 330.51)" fill="url(#linear-gradient)"/>
    <rect id="Rectangle_2121" data-name="Rectangle 2121" width="159.16" height="2.96" rx="0.8" transform="translate(226.66 362.75)" fill="url(#linear-gradient-26)"/>
    <rect id="Rectangle_2122" data-name="Rectangle 2122" width="159.16" height="2.96" rx="0.8" transform="translate(226.66 371.64)" fill="url(#linear-gradient-26)"/>
    <rect id="Rectangle_2123" data-name="Rectangle 2123" width="159.16" height="2.96" rx="0.8" transform="translate(226.66 383.48)" fill="url(#linear-gradient-26)"/>
    <rect id="Rectangle_2124" data-name="Rectangle 2124" width="91.79" height="2.96" rx="0.8" transform="translate(226.66 392.36)" fill="url(#linear-gradient)"/>
    <rect id="Rectangle_2125" data-name="Rectangle 2125" width="159.16" height="2.96" rx="0.8" transform="translate(226.66 404.18)" fill="url(#linear-gradient-26)"/>
    <rect id="Rectangle_2126" data-name="Rectangle 2126" width="159.16" height="2.96" rx="0.8" transform="translate(226.66 413.06)" fill="url(#linear-gradient-26)"/>
    <rect id="Rectangle_2127" data-name="Rectangle 2127" width="159.16" height="2.96" rx="0.8" transform="translate(226.66 424.91)" fill="url(#linear-gradient-26)"/>
    <rect id="Rectangle_2128" data-name="Rectangle 2128" width="91.79" height="2.96" rx="0.8" transform="translate(226.66 433.79)" fill="url(#linear-gradient)"/>
    <g id="Groupe_291" data-name="Groupe 291" opacity="0.5">
      <rect id="Rectangle_2129" data-name="Rectangle 2129" width="155.72" height="182.96" transform="translate(318.41 315.15)" fill="url(#linear-gradient-21)"/>
    </g>
    <rect id="Rectangle_2130" data-name="Rectangle 2130" width="147.62" height="175.97" transform="translate(323.2 318.1)" fill="url(#linear-gradient)"/>
    <g id="Groupe_292" data-name="Groupe 292" opacity="0.5">
      <path id="Tracé_1420" data-name="Tracé 1420" d="M638.05,413.83v-4.42H622v4.42H610.71v21.71h38.6V413.83ZM624,411h12v2.81H624Z" transform="translate(-233 -67.75)" fill="url(#linear-gradient-21)"/>
    </g>
    <rect id="Rectangle_2131" data-name="Rectangle 2131" width="35.34" height="19.88" transform="translate(379.34 346.81)" fill="url(#linear-gradient)"/>
    <path id="Tracé_1421" data-name="Tracé 1421" d="M389.65,342.76v5.16h1.84v-3.68h11.04v3.68h1.84v-5.16Z" fill="url(#linear-gradient)"/>
    <rect id="Rectangle_2132" data-name="Rectangle 2132" width="103.81" height="4.42" transform="translate(345.29 395.3)" fill="url(#linear-gradient)"/>
    <rect id="Rectangle_2133" data-name="Rectangle 2133" width="103.81" height="4.42" transform="translate(345.29 424.38)" fill="url(#linear-gradient)"/>
    <rect id="Rectangle_2134" data-name="Rectangle 2134" width="103.81" height="4.42" transform="translate(345.29 432.11)" fill="url(#linear-gradient)"/>
    <rect id="Rectangle_2135" data-name="Rectangle 2135" width="43.81" height="4.42" transform="translate(345.29 416.65)" fill="url(#linear-gradient)"/>
    <g id="Groupe_293" data-name="Groupe 293" opacity="0.6">
      <rect id="Rectangle_2136" data-name="Rectangle 2136" width="32.76" height="4.42" transform="translate(416.34 416.65)" fill="url(#linear-gradient)"/>
    </g>
    <rect id="Rectangle_2137" data-name="Rectangle 2137" width="32.76" height="4.42" transform="translate(381.73 450.15)" fill="url(#linear-gradient-44)"/>
    <path id="Tracé_1422" data-name="Tracé 1422" d="M124.23,366.44V702.38L366.37,764.5V431.1Z" fill="url(#linear-gradient)"/>
    <path id="Tracé_1423" data-name="Tracé 1423" d="M608.5,701.12,366.37,764.5V431.1L608.5,366.44Z" fill="url(#linear-gradient)"/>
    <g id="Groupe_294" data-name="Groupe 294" opacity="0.07">
      <path id="Tracé_1424" data-name="Tracé 1424" d="M608.5,701.12,366.37,764.5V431.1L608.5,366.44Z" fill="url(#linear-gradient)"/>
    </g>
    <g id="Groupe_295" data-name="Groupe 295" opacity="0.07">
      <path id="Tracé_1425" data-name="Tracé 1425" d="M512.15,589.56V699.85l96.35-26.62V562.94Z" fill="url(#linear-gradient)"/>
    </g>
    <rect id="Rectangle_2138" data-name="Rectangle 2138" width="71.41" height="68.61" transform="translate(481.78 338.42)" fill="url(#linear-gradient-49)"/>
    <rect id="Rectangle_2139" data-name="Rectangle 2139" width="69.17" height="65.53" transform="translate(482.9 340.1)" fill="url(#linear-gradient-50)"/>
    <g id="Groupe_296" data-name="Groupe 296" opacity="0.5">
      <path id="Tracé_1426" data-name="Tracé 1426" d="M756.6,419.34V416H744.37v3.36H735.8v16.52h29.37V419.34Zm-10.7-2.14h9.18v2.14H745.9Z" transform="translate(-233 -67.75)" fill="url(#linear-gradient-51)"/>
    </g>
    <g id="Groupe_297" data-name="Groupe 297" opacity="0.6">
      <rect id="Rectangle_2140" data-name="Rectangle 2140" width="26.88" height="15.12" transform="translate(504.04 352.15)" fill="url(#linear-gradient-52)"/>
    </g>
    <g id="Groupe_298" data-name="Groupe 298" opacity="0.6">
      <path id="Tracé_1427" data-name="Tracé 1427" d="M511.88,349.06v3.93h1.41v-2.8h8.4v2.8h1.4v-3.93Z" fill="url(#linear-gradient-53)"/>
    </g>
    <g id="Groupe_299" data-name="Groupe 299" opacity="0.6">
      <rect id="Rectangle_2141" data-name="Rectangle 2141" width="24.92" height="3.36" transform="translate(505.58 379.03)" fill="url(#linear-gradient-52)"/>
    </g>
    <rect id="Rectangle_2142" data-name="Rectangle 2142" width="42.57" height="3.36" transform="translate(496.2 385.19)" fill="url(#linear-gradient)"/>
    <g id="Groupe_300" data-name="Groupe 300" opacity="0.5">
      <rect id="Rectangle_2143" data-name="Rectangle 2143" width="92.52" height="76" transform="translate(312.49 128.69)" fill="url(#linear-gradient-49)"/>
    </g>
    <rect id="Rectangle_2144" data-name="Rectangle 2144" width="90.19" height="73.3" transform="translate(313.57 130.13)" fill="url(#linear-gradient)"/>
    <rect id="Rectangle_2145" data-name="Rectangle 2145" width="90.19" height="16.35" transform="translate(313.57 130.13)" fill="url(#linear-gradient-58)"/>
    <g id="Groupe_301" data-name="Groupe 301" opacity="0.1">
      <rect id="Rectangle_2146" data-name="Rectangle 2146" width="90.19" height="16.35" transform="translate(313.57 130.13)" fill="url(#linear-gradient-58)"/>
    </g>
    <rect id="Rectangle_2147" data-name="Rectangle 2147" width="75.82" height="9.52" transform="translate(320.76 152.41)" fill="url(#linear-gradient-60)"/>
    <rect id="Rectangle_2148" data-name="Rectangle 2148" width="55.34" height="3.23" transform="translate(320.76 169.12)" fill="url(#linear-gradient-61)"/>
    <rect id="Rectangle_2149" data-name="Rectangle 2149" width="35.93" height="3.23" transform="translate(320.76 174.69)" fill="url(#linear-gradient-62)"/>
    <rect id="Rectangle_2150" data-name="Rectangle 2150" width="47.43" height="3.23" transform="translate(320.76 180.26)" fill="url(#linear-gradient-62)"/>
    <rect id="Rectangle_2151" data-name="Rectangle 2151" width="55.34" height="3.23" transform="translate(320.76 185.82)" fill="url(#linear-gradient-64)"/>
    <rect id="Rectangle_2152" data-name="Rectangle 2152" width="18.5" height="3.23" transform="translate(320.76 191.39)" fill="url(#linear-gradient-65)"/>
    <g id="Groupe_302" data-name="Groupe 302" opacity="0.5">
      <rect id="Rectangle_2153" data-name="Rectangle 2153" width="114.68" height="94.19" transform="translate(448.52 185.76)" fill="url(#linear-gradient-21)"/>
    </g>
    <rect id="Rectangle_2154" data-name="Rectangle 2154" width="111.79" height="90.85" transform="translate(449.86 187.54)" fill="url(#linear-gradient-67)"/>
    <rect id="Rectangle_2155" data-name="Rectangle 2155" width="111.79" height="20.26" transform="translate(449.86 187.54)" fill="url(#linear-gradient-60)"/>
    <rect id="Rectangle_2156" data-name="Rectangle 2156" width="93.97" height="11.8" transform="translate(458.76 215.15)" fill="url(#linear-gradient)"/>
    <rect id="Rectangle_2157" data-name="Rectangle 2157" width="68.59" height="4.01" transform="translate(458.76 235.86)" fill="url(#linear-gradient-70)"/>
    <rect id="Rectangle_2158" data-name="Rectangle 2158" width="44.54" height="4.01" transform="translate(458.76 242.76)" fill="url(#linear-gradient-71)"/>
    <rect id="Rectangle_2159" data-name="Rectangle 2159" width="58.79" height="4.01" transform="translate(458.76 249.67)" fill="url(#linear-gradient-70)"/>
    <rect id="Rectangle_2160" data-name="Rectangle 2160" width="68.59" height="4.01" transform="translate(458.76 256.57)" fill="url(#linear-gradient-70)"/>
    <rect id="Rectangle_2161" data-name="Rectangle 2161" width="22.94" height="4.01" transform="translate(458.76 263.47)" fill="url(#linear-gradient-71)"/>
    <rect id="Rectangle_2162" data-name="Rectangle 2162" width="26.72" height="3.56" transform="translate(463.66 219.16)" fill="url(#linear-gradient)"/>
    <g id="Groupe_303" data-name="Groupe 303" opacity="0.1">
      <path id="Tracé_1428" data-name="Tracé 1428" d="M121.07,540.75l135.64,34.23,109.02-88.74V431.73L123.6,370.88Z" fill="url(#linear-gradient)"/>
    </g>
    <g id="Groupe_304" data-name="Groupe 304" opacity="0.1">
      <path id="Tracé_1429" data-name="Tracé 1429" d="M610.4,540.75,474.75,574.98,365.73,486.24V431.73l242.13-60.85Z" fill="url(#linear-gradient)"/>
    </g>
    <path id="Tracé_1430" data-name="Tracé 1430" d="M124.23,366.44,0,469.13l242.13,60.85L366.37,431.1Z" fill="url(#linear-gradient)"/>
    <path id="Tracé_1431" data-name="Tracé 1431" d="M608.5,366.44,734,469.13,493.14,529.98,366.37,431.1Z" fill="url(#linear-gradient)"/>
    <g id="Groupe_305" data-name="Groupe 305" opacity="0.07">
      <path id="Tracé_1432" data-name="Tracé 1432" d="M608.5,366.44,734,469.13,493.14,529.98,366.37,431.1Z" fill="url(#linear-gradient)"/>
    </g>
  </g>
  <path id="Tracé_1433" data-name="Tracé 1433" d="M608.94,363.36,368.88,305.54V758.01l240.06-62.84Z" fill="#535461"/>
  <path id="Tracé_1434" data-name="Tracé 1434" d="M608.94,363.36,368.88,305.54V758.01l240.06-62.84Z" opacity="0.1"/>
  <path id="Tracé_1435" data-name="Tracé 1435" d="M128.83,363.36l240.05-57.82V758.01L128.83,696.42Z" fill="#535461"/>
  <path id="Tracé_1436" data-name="Tracé 1436" d="M128.83,361.36l240.05-57.82V758.01L128.83,696.42Z" opacity="0.17"/>
  <path id="Tracé_1437" data-name="Tracé 1437" d="M366.88,307.54,493.31,202.48l240.06,61.59L606.94,365.36Z" fill="#535461"/>
  <path id="Tracé_1438" data-name="Tracé 1438" d="M7.66,267.32l123.17,98.04,240.05-57.82L248.97,204.48Z" fill="#535461"/>
  <path id="Tracé_1439" data-name="Tracé 1439" d="M5.66,265.32,131.83,365.36l240.05-57.82L246.97,202.48Z" opacity="0.05"/>
  <g id="Groupe_307" data-name="Groupe 307" opacity="0.5">
    <rect id="Rectangle_2163" data-name="Rectangle 2163" width="178.18" height="164.4" rx="4.5" transform="translate(190.83 253.24)" fill="url(#linear-gradient-21)"/>
  </g>
  <rect id="Rectangle_2164" data-name="Rectangle 2164" width="174.07" height="160.41" rx="4.5" transform="translate(193.01 254.52)" fill="#f5f5f5"/>
  <rect id="Rectangle_2165" data-name="Rectangle 2165" width="29.36" height="26.42" rx="4.5" transform="translate(206.42 280.94)" fill="#4c6cf6"/>
  <rect id="Rectangle_2166" data-name="Rectangle 2166" width="116.7" height="2.94" rx="0.8" transform="translate(244.59 280.94)" fill="#e0e0e0"/>
  <rect id="Rectangle_2167" data-name="Rectangle 2167" width="116.7" height="2.94" rx="0.8" transform="translate(244.59 289.74)" fill="#e0e0e0"/>
  <rect id="Rectangle_2168" data-name="Rectangle 2168" width="157.8" height="2.94" rx="0.8" transform="translate(203.49 321.71)" fill="#e0e0e0"/>
  <rect id="Rectangle_2169" data-name="Rectangle 2169" width="157.8" height="2.94" rx="0.8" transform="translate(203.49 330.52)" fill="#e0e0e0"/>
  <rect id="Rectangle_2170" data-name="Rectangle 2170" width="157.8" height="2.94" rx="0.8" transform="translate(203.49 342.26)" fill="#e0e0e0"/>
  <rect id="Rectangle_2171" data-name="Rectangle 2171" width="91.01" height="2.94" rx="0.8" transform="translate(203.49 351.07)" fill="#e0e0e0"/>
  <rect id="Rectangle_2172" data-name="Rectangle 2172" width="157.8" height="2.94" rx="0.8" transform="translate(203.49 362.78)" fill="#e0e0e0"/>
  <rect id="Rectangle_2173" data-name="Rectangle 2173" width="157.8" height="2.94" rx="0.8" transform="translate(203.49 371.59)" fill="#e0e0e0"/>
  <rect id="Rectangle_2174" data-name="Rectangle 2174" width="157.8" height="2.94" rx="0.8" transform="translate(203.49 383.33)" fill="#e0e0e0"/>
  <rect id="Rectangle_2175" data-name="Rectangle 2175" width="91.01" height="2.94" rx="0.8" transform="translate(203.49 392.14)" fill="#e0e0e0"/>
  <g id="Groupe_308" data-name="Groupe 308" opacity="0.5">
    <rect id="Rectangle_2176" data-name="Rectangle 2176" width="178.18" height="164.4" rx="4.5" transform="translate(217.72 291.23)" fill="url(#linear-gradient-49)"/>
  </g>
  <rect id="Rectangle_2177" data-name="Rectangle 2177" width="174.07" height="160.41" rx="4.5" transform="translate(219.9 292.51)" fill="#fff"/>
  <rect id="Rectangle_2178" data-name="Rectangle 2178" width="29.36" height="26.42" rx="4.5" transform="translate(233.31 318.93)" fill="#4c6cf6"/>
  <rect id="Rectangle_2179" data-name="Rectangle 2179" width="116.7" height="2.94" rx="0.8" transform="translate(271.48 318.93)" fill="#e0e0e0"/>
  <rect id="Rectangle_2180" data-name="Rectangle 2180" width="116.7" height="2.94" rx="0.8" transform="translate(271.48 327.73)" fill="#e0e0e0"/>
  <rect id="Rectangle_2181" data-name="Rectangle 2181" width="157.8" height="2.94" rx="0.8" transform="translate(230.38 359.7)" fill="#e0e0e0"/>
  <rect id="Rectangle_2182" data-name="Rectangle 2182" width="157.8" height="2.94" rx="0.8" transform="translate(230.38 368.51)" fill="#e0e0e0"/>
  <rect id="Rectangle_2183" data-name="Rectangle 2183" width="157.8" height="2.94" rx="0.8" transform="translate(230.38 380.25)" fill="#e0e0e0"/>
  <rect id="Rectangle_2184" data-name="Rectangle 2184" width="91.01" height="2.94" rx="0.8" transform="translate(230.38 389.06)" fill="#e0e0e0"/>
  <rect id="Rectangle_2185" data-name="Rectangle 2185" width="157.8" height="2.94" rx="0.8" transform="translate(230.38 400.77)" fill="#e0e0e0"/>
  <rect id="Rectangle_2186" data-name="Rectangle 2186" width="157.8" height="2.94" rx="0.8" transform="translate(230.38 409.58)" fill="#e0e0e0"/>
  <rect id="Rectangle_2187" data-name="Rectangle 2187" width="157.8" height="2.94" rx="0.8" transform="translate(230.38 421.32)" fill="#e0e0e0"/>
  <rect id="Rectangle_2188" data-name="Rectangle 2188" width="91.01" height="2.94" rx="0.8" transform="translate(230.38 430.13)" fill="#e0e0e0"/>
  <g id="Groupe_309" data-name="Groupe 309" opacity="0.5">
    <rect id="Rectangle_2189" data-name="Rectangle 2189" width="154.39" height="181.39" transform="translate(321.34 312.51)" fill="url(#linear-gradient-21)"/>
  </g>
  <rect id="Rectangle_2190" data-name="Rectangle 2190" width="146.36" height="174.46" transform="translate(326.09 315.43)" fill="#fff"/>
  <g id="Groupe_310" data-name="Groupe 310" opacity="0.5">
    <path id="Tracé_1440" data-name="Tracé 1440" d="M640.24,410.92v-4.39H624.29v4.39H613.13v21.53H651.4V410.92Zm-14-2.79h12v2.79h-12Z" transform="translate(-233 -67.75)" fill="url(#linear-gradient-49)"/>
  </g>
  <rect id="Rectangle_2191" data-name="Rectangle 2191" width="35.04" height="19.71" transform="translate(381.75 343.9)" fill="#4c6cf6"/>
  <path id="Tracé_1441" data-name="Tracé 1441" d="M391.97,339.88v5.11h1.82v-3.65h10.95v3.65h1.83v-5.11Z" fill="#4c6cf6"/>
  <rect id="Rectangle_2192" data-name="Rectangle 2192" width="102.92" height="4.38" transform="translate(347.99 391.97)" fill="#e0e0e0"/>
  <rect id="Rectangle_2193" data-name="Rectangle 2193" width="102.92" height="4.38" transform="translate(347.99 420.8)" fill="#e0e0e0"/>
  <rect id="Rectangle_2194" data-name="Rectangle 2194" width="102.92" height="4.38" transform="translate(347.99 428.47)" fill="#e0e0e0"/>
  <rect id="Rectangle_2195" data-name="Rectangle 2195" width="43.43" height="4.38" transform="translate(347.99 413.14)" fill="#e0e0e0"/>
  <rect id="Rectangle_2196" data-name="Rectangle 2196" width="32.48" height="4.38" transform="translate(418.43 413.14)" fill="#3ad29f" opacity="0.6"/>
  <rect id="Rectangle_2197" data-name="Rectangle 2197" width="32.48" height="4.38" transform="translate(384.12 446.35)" fill="#6c63ff"/>
  <path id="Tracé_1442" data-name="Tracé 1442" d="M128.83,363.36V696.42l240.05,61.59,3.24-330.55Z" fill="#535461"/>
  <path id="Tracé_1443" data-name="Tracé 1443" d="M608.94,695.17,368.88,758.01V427.46l240.06-64.1Z" fill="#535461"/>
  <path id="Tracé_1444" data-name="Tracé 1444" d="M608.94,695.17,368.88,758.01V427.46l240.06-64.1Z" opacity="0.07"/>
  <path id="Tracé_1445" data-name="Tracé 1445" d="M513.42,584.57V693.91l95.52-26.39V558.17Z" opacity="0.07"/>
  <rect id="Rectangle_2198" data-name="Rectangle 2198" width="70.8" height="68.02" transform="translate(483.31 335.58)" fill="url(#linear-gradient-21)"/>
  <rect id="Rectangle_2199" data-name="Rectangle 2199" width="68.58" height="64.97" transform="translate(484.42 337.24)" fill="#f5f5f5"/>
  <g id="Groupe_311" data-name="Groupe 311" opacity="0.5">
    <path id="Tracé_1446" data-name="Tracé 1446" d="M757.78,416.38V413H745.65v3.34h-8.49v16.38h29.11V416.38Zm-10.61-2.12h9.1v2.12h-9.1Z" transform="translate(-233 -67.75)" fill="url(#linear-gradient-86)"/>
  </g>
  <rect id="Rectangle_2200" data-name="Rectangle 2200" width="26.65" height="14.99" transform="translate(505.38 349.18)" fill="#4c6cf6" opacity="0.6"/>
  <path id="Tracé_1447" data-name="Tracé 1447" d="M513.16,346.13v3.89h1.39v-2.78h8.33v2.78h1.38v-3.89Z" fill="#4c6cf6" opacity="0.6"/>
  <g id="Groupe_312" data-name="Groupe 312" opacity="0.6">
    <rect id="Rectangle_2201" data-name="Rectangle 2201" width="24.71" height="3.33" transform="translate(506.91 375.84)" fill="#4c6cf6"/>
  </g>
  <rect id="Rectangle_2202" data-name="Rectangle 2202" width="42.2" height="3.33" transform="translate(497.61 381.95)" fill="#bdbdbd"/>
  <rect id="Rectangle_2203" data-name="Rectangle 2203" width="70.8" height="68.02" transform="translate(415.44)" fill="url(#linear-gradient-21)"/>
  <rect id="Rectangle_2204" data-name="Rectangle 2204" width="68.58" height="64.97" transform="translate(416.55 1.67)" fill="#f5f5f5"/>
  <g id="Groupe_313" data-name="Groupe 313" opacity="0.5">
    <path id="Tracé_1448" data-name="Tracé 1448" d="M689.91,80.8V77.47H677.78V80.8h-8.49V97.18H698.4V80.8ZM679.3,78.68h9.1V80.8h-9.1Z" transform="translate(-233 -67.75)" fill="url(#linear-gradient-88)"/>
  </g>
  <rect id="Rectangle_2205" data-name="Rectangle 2205" width="26.65" height="14.99" transform="translate(437.51 13.6)" fill="#4c6cf6"/>
  <path id="Tracé_1449" data-name="Tracé 1449" d="M445.29,10.55v3.89h1.39V11.66h8.33v2.78h1.38V10.55Z" fill="#4c6cf6"/>
  <g id="Groupe_314" data-name="Groupe 314">
    <rect id="Rectangle_2206" data-name="Rectangle 2206" width="24.71" height="3.33" transform="translate(439.04 40.26)" fill="#4c6cf6"/>
  </g>
  <rect id="Rectangle_2207" data-name="Rectangle 2207" width="42.2" height="3.33" transform="translate(429.74 46.37)" fill="#bdbdbd"/>
  <g id="Groupe_315" data-name="Groupe 315" opacity="0.5">
    <rect id="Rectangle_2208" data-name="Rectangle 2208" width="91.73" height="75.35" transform="translate(315.47 127.64)" fill="url(#linear-gradient-49)"/>
  </g>
  <rect id="Rectangle_2209" data-name="Rectangle 2209" width="89.42" height="72.67" transform="translate(316.54 129.07)" fill="#f2f2f2"/>
  <rect id="Rectangle_2210" data-name="Rectangle 2210" width="89.42" height="16.21" transform="translate(316.54 129.07)" fill="#6c63ff"/>
  <rect id="Rectangle_2211" data-name="Rectangle 2211" width="89.42" height="16.21" transform="translate(316.54 129.07)" fill="#4c6cf6" opacity="0.1"/>
  <rect id="Rectangle_2212" data-name="Rectangle 2212" width="75.17" height="9.44" transform="translate(323.67 151.16)" fill="#e0e0e0"/>
  <rect id="Rectangle_2213" data-name="Rectangle 2213" width="54.86" height="3.21" transform="translate(323.67 167.72)" fill="#e0e0e0"/>
  <rect id="Rectangle_2214" data-name="Rectangle 2214" width="35.62" height="3.21" transform="translate(323.67 173.24)" fill="#e0e0e0"/>
  <rect id="Rectangle_2215" data-name="Rectangle 2215" width="47.02" height="3.21" transform="translate(323.67 178.76)" fill="#e0e0e0"/>
  <rect id="Rectangle_2216" data-name="Rectangle 2216" width="54.86" height="3.21" transform="translate(323.67 184.29)" fill="#e0e0e0"/>
  <rect id="Rectangle_2217" data-name="Rectangle 2217" width="18.35" height="3.21" transform="translate(323.67 189.81)" fill="#e0e0e0"/>
  <g id="Groupe_316" data-name="Groupe 316" opacity="0.5">
    <rect id="Rectangle_2218" data-name="Rectangle 2218" width="113.7" height="93.39" transform="translate(450.33 184.22)" fill="url(#linear-gradient-21)"/>
  </g>
  <rect id="Rectangle_2219" data-name="Rectangle 2219" width="110.83" height="90.08" transform="translate(451.66 185.98)" fill="#fff"/>
  <path id="Tracé_1455" data-name="Tracé 1455" d="M0,0H110.83V20.09H0Z" transform="translate(451.66 185.98)" fill="#4c6cf6"/>
  <rect id="Rectangle_2221" data-name="Rectangle 2221" width="93.17" height="11.7" transform="translate(460.49 213.36)" fill="#f5f5f5"/>
  <rect id="Rectangle_2222" data-name="Rectangle 2222" width="68" height="3.97" transform="translate(460.49 233.89)" fill="#e0e0e0"/>
  <rect id="Rectangle_2223" data-name="Rectangle 2223" width="44.16" height="3.97" transform="translate(460.49 240.74)" fill="#e0e0e0"/>
  <rect id="Rectangle_2224" data-name="Rectangle 2224" width="58.28" height="3.97" transform="translate(460.49 247.58)" fill="#e0e0e0"/>
  <rect id="Rectangle_2225" data-name="Rectangle 2225" width="68" height="3.97" transform="translate(460.49 254.43)" fill="#e0e0e0"/>
  <rect id="Rectangle_2226" data-name="Rectangle 2226" width="22.74" height="3.97" transform="translate(460.49 261.27)" fill="#e0e0e0"/>
  <rect id="Rectangle_2227" data-name="Rectangle 2227" width="26.49" height="3.53" transform="translate(465.35 217.33)" fill="#ee635d"/>
  <path id="Tracé_1450" data-name="Tracé 1450" d="M125.69,536.18l134.48,33.93,108.09-87.98V428.09L128.2,367.76Z" opacity="0.1"/>
  <path id="Tracé_1451" data-name="Tracé 1451" d="M610.83,536.18,476.35,570.11,368.26,482.13V428.09l240.06-60.33Z" opacity="0.1"/>
  <path id="Tracé_1452" data-name="Tracé 1452" d="M128.83,363.36,5.66,465.16l240.05,60.33,123.17-98.03Z" fill="#535461"/>
  <path id="Tracé_1453" data-name="Tracé 1453" d="M608.94,363.36l124.43,101.8-238.8,60.33L368.88,427.46Z" fill="#535461"/>
  <path id="Tracé_1454" data-name="Tracé 1454" d="M608.94,363.36l124.43,101.8-238.8,60.33L368.88,427.46Z" opacity="0.07"/>
</svg>
