<svg data-name="Groupe 317" xmlns="http://www.w3.org/2000/svg" xmlns:xlink="http://www.w3.org/1999/xlink" width="734" height="764.5"><defs><linearGradient id="a" y1=".5" x2="1" y2=".5" gradientUnits="objectBoundingBox"><stop offset="0" stop-color="gray" stop-opacity=".251"/><stop offset=".54" stop-color="gray" stop-opacity=".122"/><stop offset="1" stop-color="gray" stop-opacity=".102"/></linearGradient><linearGradient id="b" x1=".5" y1="1" x2=".5" xlink:href="#a"/><linearGradient id="c" y1=".5" y2=".5" xlink:href="#a"/><linearGradient id="d" x1=".5" y1="1" x2=".5" xlink:href="#a"/><linearGradient id="e" y1=".5" y2=".5" xlink:href="#a"/><linearGradient id="f" y1=".5" y2=".5" xlink:href="#a"/><linearGradient id="g" x1=".5" y1="1" x2=".5" xlink:href="#a"/><linearGradient id="h" y1=".5" y2=".5" xlink:href="#a"/><linearGradient id="i" x1=".5" y1=".999" x2=".5" y2="-.002" xlink:href="#a"/><linearGradient id="j" y1=".5" y2=".5" xlink:href="#a"/><linearGradient id="k" x1=".001" y1=".501" y2=".501" xlink:href="#a"/><linearGradient id="l" y1=".5" y2=".5" xlink:href="#a"/><linearGradient id="m" y1=".5" y2=".5" xlink:href="#a"/><linearGradient id="n" y1=".498" y2=".498" xlink:href="#a"/><linearGradient id="o" y1=".498" y2=".498" xlink:href="#a"/><linearGradient id="p" y1=".502" y2=".502" xlink:href="#a"/><linearGradient id="q" y1=".502" y2=".502" xlink:href="#a"/><linearGradient id="r" y1=".5" y2=".5" xlink:href="#a"/><linearGradient id="s" y1=".499" y2=".499" xlink:href="#a"/><linearGradient id="t" y1=".501" y2=".501" xlink:href="#a"/><linearGradient id="u" x1=".5" y1="1.002" x2=".5" y2=".003" xlink:href="#a"/><linearGradient id="v" x1=".5" y1="1" x2=".5" xlink:href="#a"/></defs><g data-name="Groupe 306" opacity=".7"><path data-name="Tracé 1413" d="M608.5 366.44l-242.13-58.31V764.5l242.13-63.38z" fill="url(#a)"/><g data-name="Groupe 286"><path data-name="Tracé 1414" d="M608.5 366.44l-242.13-58.31V764.5l242.13-63.38z" fill="url(#a)" opacity=".1"/></g><path data-name="Tracé 1415" d="M124.23 366.44l242.14-58.31V764.5l-242.14-62.12z" fill="url(#a)"/><g data-name="Groupe 287"><path data-name="Tracé 1416" d="M124.23 366.44l242.14-58.31V764.5l-242.14-62.12z" fill="url(#a)" opacity=".17"/></g><path data-name="Tracé 1417" d="M366.37 308.13l125.5-103.95L734 266.3 608.5 366.44z" fill="url(#a)"/><path data-name="Tracé 1418" d="M0 267.56l124.23 98.88 242.14-58.31L243.4 204.18z" fill="url(#a)"/><g data-name="Groupe 288"><path data-name="Tracé 1419" d="M0 267.56l124.23 98.88 242.14-58.31L243.4 204.18z" fill="url(#a)" opacity=".05"/></g><g data-name="Groupe 289"><rect data-name="Rectangle 2103" width="179.72" height="165.82" rx="4.5" transform="translate(186.78 255.38)" fill="url(#b)" opacity=".5"/></g><rect data-name="Rectangle 2104" width="175.58" height="161.8" rx="4.5" transform="translate(188.97 256.66)" fill="url(#a)"/><rect data-name="Rectangle 2105" width="29.61" height="26.65" rx="4.5" transform="translate(202.5 283.31)" fill="url(#c)"/><rect data-name="Rectangle 2106" width="117.71" height="2.96" rx=".8" transform="translate(240.99 283.31)" fill="url(#a)"/><rect data-name="Rectangle 2107" width="117.71" height="2.96" rx=".8" transform="translate(240.99 292.19)" fill="url(#a)"/><rect data-name="Rectangle 2108" width="159.16" height="2.96" rx=".8" transform="translate(199.54 324.44)" fill="url(#a)"/><rect data-name="Rectangle 2109" width="159.16" height="2.96" rx=".8" transform="translate(199.54 333.32)" fill="url(#a)"/><rect data-name="Rectangle 2110" width="159.16" height="2.96" rx=".8" transform="translate(199.54 345.16)" fill="url(#a)"/><rect data-name="Rectangle 2111" width="91.79" height="2.96" rx=".8" transform="translate(199.54 354.05)" fill="url(#a)"/><rect data-name="Rectangle 2112" width="159.16" height="2.96" rx=".8" transform="translate(199.54 365.86)" fill="url(#a)"/><rect data-name="Rectangle 2113" width="159.16" height="2.96" rx=".8" transform="translate(199.54 374.74)" fill="url(#a)"/><rect data-name="Rectangle 2114" width="159.16" height="2.96" rx=".8" transform="translate(199.54 386.59)" fill="url(#a)"/><rect data-name="Rectangle 2115" width="91.79" height="2.96" rx=".8" transform="translate(199.54 395.47)" fill="url(#a)"/><g data-name="Groupe 290"><rect data-name="Rectangle 2116" width="179.72" height="165.82" rx="4.5" transform="translate(213.9 293.69)" fill="url(#d)" opacity=".5"/></g><rect data-name="Rectangle 2117" width="175.58" height="161.8" rx="4.5" transform="translate(216.09 294.98)" fill="url(#a)"/><rect data-name="Rectangle 2118" width="29.61" height="26.65" rx="4.5" transform="translate(229.62 321.63)" fill="url(#c)"/><rect data-name="Rectangle 2119" width="117.71" height="2.96" rx=".8" transform="translate(268.12 321.63)" fill="url(#a)"/><rect data-name="Rectangle 2120" width="117.71" height="2.96" rx=".8" transform="translate(268.12 330.51)" fill="url(#a)"/><rect data-name="Rectangle 2121" width="159.16" height="2.96" rx=".8" transform="translate(226.66 362.75)" fill="url(#e)"/><rect data-name="Rectangle 2122" width="159.16" height="2.96" rx=".8" transform="translate(226.66 371.64)" fill="url(#e)"/><rect data-name="Rectangle 2123" width="159.16" height="2.96" rx=".8" transform="translate(226.66 383.48)" fill="url(#e)"/><rect data-name="Rectangle 2124" width="91.79" height="2.96" rx=".8" transform="translate(226.66 392.36)" fill="url(#a)"/><rect data-name="Rectangle 2125" width="159.16" height="2.96" rx=".8" transform="translate(226.66 404.18)" fill="url(#e)"/><rect data-name="Rectangle 2126" width="159.16" height="2.96" rx=".8" transform="translate(226.66 413.06)" fill="url(#e)"/><rect data-name="Rectangle 2127" width="159.16" height="2.96" rx=".8" transform="translate(226.66 424.91)" fill="url(#e)"/><rect data-name="Rectangle 2128" width="91.79" height="2.96" rx=".8" transform="translate(226.66 433.79)" fill="url(#a)"/><g data-name="Groupe 291"><path data-name="Rectangle 2129" transform="translate(318.41 315.15)" fill="url(#d)" d="M0 0h155.72v182.96H0z" opacity=".5"/></g><path data-name="Rectangle 2130" transform="translate(323.2 318.1)" fill="url(#a)" d="M0 0h147.62v175.97H0z"/><g data-name="Groupe 292"><path data-name="Tracé 1420" d="M638.05 413.83v-4.42H622v4.42h-11.29v21.71h38.6v-21.71zM624 411h12v2.81h-12z" transform="translate(-233 -67.75)" fill="url(#d)" opacity=".5"/></g><path data-name="Rectangle 2131" transform="translate(379.34 346.81)" fill="url(#a)" d="M0 0h35.34v19.88H0z"/><path data-name="Tracé 1421" d="M389.65 342.76v5.16h1.84v-3.68h11.04v3.68h1.84v-5.16z" fill="url(#a)"/><path data-name="Rectangle 2132" transform="translate(345.29 395.3)" fill="url(#a)" d="M0 0h103.81v4.42H0z"/><path data-name="Rectangle 2133" transform="translate(345.29 424.38)" fill="url(#a)" d="M0 0h103.81v4.42H0z"/><path data-name="Rectangle 2134" transform="translate(345.29 432.11)" fill="url(#a)" d="M0 0h103.81v4.42H0z"/><path data-name="Rectangle 2135" transform="translate(345.29 416.65)" fill="url(#a)" d="M0 0h43.81v4.42H0z"/><g data-name="Groupe 293"><path data-name="Rectangle 2136" transform="translate(416.34 416.65)" fill="url(#a)" d="M0 0h32.76v4.42H0z" opacity=".6"/></g><path data-name="Rectangle 2137" transform="translate(381.73 450.15)" fill="url(#f)" d="M0 0h32.76v4.42H0z"/><path data-name="Tracé 1422" d="M124.23 366.44v335.94l242.14 62.12V431.1z" fill="url(#a)"/><path data-name="Tracé 1423" d="M608.5 701.12L366.37 764.5V431.1l242.13-64.66z" fill="url(#a)"/><g data-name="Groupe 294"><path data-name="Tracé 1424" d="M608.5 701.12L366.37 764.5V431.1l242.13-64.66z" fill="url(#a)" opacity=".07"/></g><g data-name="Groupe 295"><path data-name="Tracé 1425" d="M512.15 589.56v110.29l96.35-26.62V562.94z" fill="url(#a)" opacity=".07"/></g><path data-name="Rectangle 2138" transform="translate(481.78 338.42)" fill="url(#g)" d="M0 0h71.41v68.61H0z"/><path data-name="Rectangle 2139" transform="translate(482.9 340.1)" fill="url(#h)" d="M0 0h69.17v65.53H0z"/><g data-name="Groupe 296"><path data-name="Tracé 1426" d="M756.6 419.34V416h-12.23v3.36h-8.57v16.52h29.37v-16.54zm-10.7-2.14h9.18v2.14h-9.18z" transform="translate(-233 -67.75)" fill="url(#i)" opacity=".5"/></g><g data-name="Groupe 297"><path data-name="Rectangle 2140" transform="translate(504.04 352.15)" fill="url(#j)" d="M0 0h26.88v15.12H0z" opacity=".6"/></g><g data-name="Groupe 298"><path data-name="Tracé 1427" d="M511.88 349.06v3.93h1.41v-2.8h8.4v2.8h1.4v-3.93z" fill="url(#k)" opacity=".6"/></g><g data-name="Groupe 299"><path data-name="Rectangle 2141" transform="translate(505.58 379.03)" fill="url(#j)" d="M0 0h24.92v3.36H0z" opacity=".6"/></g><path data-name="Rectangle 2142" transform="translate(496.2 385.19)" fill="url(#a)" d="M0 0h42.57v3.36H0z"/><g data-name="Groupe 300"><path data-name="Rectangle 2143" transform="translate(312.49 128.69)" fill="url(#g)" d="M0 0h92.52v76H0z" opacity=".5"/></g><path data-name="Rectangle 2144" transform="translate(313.57 130.13)" fill="url(#a)" d="M0 0h90.19v73.3H0z"/><path data-name="Rectangle 2145" transform="translate(313.57 130.13)" fill="url(#l)" d="M0 0h90.19v16.35H0z"/><g data-name="Groupe 301"><path data-name="Rectangle 2146" transform="translate(313.57 130.13)" fill="url(#l)" d="M0 0h90.19v16.35H0z" opacity=".1"/></g><path data-name="Rectangle 2147" transform="translate(320.76 152.41)" fill="url(#m)" d="M0 0h75.82v9.52H0z"/><path data-name="Rectangle 2148" transform="translate(320.76 169.12)" fill="url(#n)" d="M0 0h55.34v3.23H0z"/><path data-name="Rectangle 2149" transform="translate(320.76 174.69)" fill="url(#o)" d="M0 0h35.93v3.23H0z"/><path data-name="Rectangle 2150" transform="translate(320.76 180.26)" fill="url(#o)" d="M0 0h47.43v3.23H0z"/><path data-name="Rectangle 2151" transform="translate(320.76 185.82)" fill="url(#p)" d="M0 0h55.34v3.23H0z"/><path data-name="Rectangle 2152" transform="translate(320.76 191.39)" fill="url(#q)" d="M0 0h18.5v3.23H0z"/><g data-name="Groupe 302"><path data-name="Rectangle 2153" transform="translate(448.52 185.76)" fill="url(#d)" d="M0 0h114.68v94.19H0z" opacity=".5"/></g><path data-name="Rectangle 2154" transform="translate(449.86 187.54)" fill="url(#r)" d="M0 0h111.79v90.85H0z"/><path data-name="Rectangle 2155" transform="translate(449.86 187.54)" fill="url(#m)" d="M0 0h111.79v20.26H0z"/><path data-name="Rectangle 2156" transform="translate(458.76 215.15)" fill="url(#a)" d="M0 0h93.97v11.8H0z"/><path data-name="Rectangle 2157" transform="translate(458.76 235.86)" fill="url(#s)" d="M0 0h68.59v4.01H0z"/><path data-name="Rectangle 2158" transform="translate(458.76 242.76)" fill="url(#t)" d="M0 0h44.54v4.01H0z"/><path data-name="Rectangle 2159" transform="translate(458.76 249.67)" fill="url(#s)" d="M0 0h58.79v4.01H0z"/><path data-name="Rectangle 2160" transform="translate(458.76 256.57)" fill="url(#s)" d="M0 0h68.59v4.01H0z"/><path data-name="Rectangle 2161" transform="translate(458.76 263.47)" fill="url(#t)" d="M0 0h22.94v4.01H0z"/><path data-name="Rectangle 2162" transform="translate(463.66 219.16)" fill="url(#a)" d="M0 0h26.72v3.56H0z"/><g data-name="Groupe 303"><path data-name="Tracé 1428" d="M121.07 540.75l135.64 34.23 109.02-88.74v-54.51L123.6 370.88z" fill="url(#a)" opacity=".1"/></g><g data-name="Groupe 304"><path data-name="Tracé 1429" d="M610.4 540.75l-135.65 34.23-109.02-88.74v-54.51l242.13-60.85z" fill="url(#a)" opacity=".1"/></g><path data-name="Tracé 1430" d="M124.23 366.44L0 469.13l242.13 60.85 124.24-98.88z" fill="url(#a)"/><path data-name="Tracé 1431" d="M608.5 366.44L734 469.13l-240.86 60.85-126.77-98.88z" fill="url(#a)"/><g data-name="Groupe 305"><path data-name="Tracé 1432" d="M608.5 366.44L734 469.13l-240.86 60.85-126.77-98.88z" fill="url(#a)" opacity=".07"/></g></g><path data-name="Tracé 1433" d="M608.94 363.36l-240.06-57.82v452.47l240.06-62.84z" fill="#535461"/><path data-name="Tracé 1434" d="M608.94 363.36l-240.06-57.82v452.47l240.06-62.84z" opacity=".1"/><path data-name="Tracé 1435" d="M128.83 363.36l240.05-57.82v452.47l-240.05-61.59z" fill="#535461"/><path data-name="Tracé 1436" d="M128.83 361.36l240.05-57.82v454.47l-240.05-61.59z" opacity=".17"/><path data-name="Tracé 1437" d="M366.88 307.54l126.43-105.06 240.06 61.59-126.43 101.29z" fill="#535461"/><path data-name="Tracé 1438" d="M7.66 267.32l123.17 98.04 240.05-57.82-121.91-103.06z" fill="#535461"/><path data-name="Tracé 1439" d="M5.66 265.32l126.17 100.04 240.05-57.82-124.91-105.06z" opacity=".05"/><g data-name="Groupe 307"><rect data-name="Rectangle 2163" width="178.18" height="164.4" rx="4.5" transform="translate(190.83 253.24)" fill="url(#d)" opacity=".5"/></g><rect data-name="Rectangle 2164" width="174.07" height="160.41" rx="4.5" transform="translate(193.01 254.52)" fill="#f5f5f5"/><rect data-name="Rectangle 2165" width="29.36" height="26.42" rx="4.5" transform="translate(206.42 280.94)" fill="#4c6cf6"/><rect data-name="Rectangle 2166" width="116.7" height="2.94" rx=".8" transform="translate(244.59 280.94)" fill="#e0e0e0"/><rect data-name="Rectangle 2167" width="116.7" height="2.94" rx=".8" transform="translate(244.59 289.74)" fill="#e0e0e0"/><rect data-name="Rectangle 2168" width="157.8" height="2.94" rx=".8" transform="translate(203.49 321.71)" fill="#e0e0e0"/><rect data-name="Rectangle 2169" width="157.8" height="2.94" rx=".8" transform="translate(203.49 330.52)" fill="#e0e0e0"/><rect data-name="Rectangle 2170" width="157.8" height="2.94" rx=".8" transform="translate(203.49 342.26)" fill="#e0e0e0"/><rect data-name="Rectangle 2171" width="91.01" height="2.94" rx=".8" transform="translate(203.49 351.07)" fill="#e0e0e0"/><rect data-name="Rectangle 2172" width="157.8" height="2.94" rx=".8" transform="translate(203.49 362.78)" fill="#e0e0e0"/><rect data-name="Rectangle 2173" width="157.8" height="2.94" rx=".8" transform="translate(203.49 371.59)" fill="#e0e0e0"/><rect data-name="Rectangle 2174" width="157.8" height="2.94" rx=".8" transform="translate(203.49 383.33)" fill="#e0e0e0"/><rect data-name="Rectangle 2175" width="91.01" height="2.94" rx=".8" transform="translate(203.49 392.14)" fill="#e0e0e0"/><g data-name="Groupe 308"><rect data-name="Rectangle 2176" width="178.18" height="164.4" rx="4.5" transform="translate(217.72 291.23)" fill="url(#g)" opacity=".5"/></g><rect data-name="Rectangle 2177" width="174.07" height="160.41" rx="4.5" transform="translate(219.9 292.51)" fill="#fff"/><rect data-name="Rectangle 2178" width="29.36" height="26.42" rx="4.5" transform="translate(233.31 318.93)" fill="#4c6cf6"/><rect data-name="Rectangle 2179" width="116.7" height="2.94" rx=".8" transform="translate(271.48 318.93)" fill="#e0e0e0"/><rect data-name="Rectangle 2180" width="116.7" height="2.94" rx=".8" transform="translate(271.48 327.73)" fill="#e0e0e0"/><rect data-name="Rectangle 2181" width="157.8" height="2.94" rx=".8" transform="translate(230.38 359.7)" fill="#e0e0e0"/><rect data-name="Rectangle 2182" width="157.8" height="2.94" rx=".8" transform="translate(230.38 368.51)" fill="#e0e0e0"/><rect data-name="Rectangle 2183" width="157.8" height="2.94" rx=".8" transform="translate(230.38 380.25)" fill="#e0e0e0"/><rect data-name="Rectangle 2184" width="91.01" height="2.94" rx=".8" transform="translate(230.38 389.06)" fill="#e0e0e0"/><rect data-name="Rectangle 2185" width="157.8" height="2.94" rx=".8" transform="translate(230.38 400.77)" fill="#e0e0e0"/><rect data-name="Rectangle 2186" width="157.8" height="2.94" rx=".8" transform="translate(230.38 409.58)" fill="#e0e0e0"/><rect data-name="Rectangle 2187" width="157.8" height="2.94" rx=".8" transform="translate(230.38 421.32)" fill="#e0e0e0"/><rect data-name="Rectangle 2188" width="91.01" height="2.94" rx=".8" transform="translate(230.38 430.13)" fill="#e0e0e0"/><g data-name="Groupe 309"><path data-name="Rectangle 2189" transform="translate(321.34 312.51)" fill="url(#d)" d="M0 0h154.39v181.39H0z" opacity=".5"/></g><path data-name="Rectangle 2190" fill="#fff" d="M326.09 315.43h146.36v174.46H326.09z"/><g data-name="Groupe 310"><path data-name="Tracé 1440" d="M640.24 410.92v-4.39h-15.95v4.39h-11.16v21.53h38.27v-21.53zm-14-2.79h12v2.79h-12z" transform="translate(-233 -67.75)" fill="url(#g)" opacity=".5"/></g><path data-name="Rectangle 2191" fill="#4c6cf6" d="M381.75 343.9h35.04v19.71h-35.04z"/><path data-name="Tracé 1441" d="M391.97 339.88v5.11h1.82v-3.65h10.95v3.65h1.83v-5.11z" fill="#4c6cf6"/><path data-name="Rectangle 2192" fill="#e0e0e0" d="M347.99 391.97h102.92v4.38H347.99z"/><path data-name="Rectangle 2193" fill="#e0e0e0" d="M347.99 420.8h102.92v4.38H347.99z"/><path data-name="Rectangle 2194" fill="#e0e0e0" d="M347.99 428.47h102.92v4.38H347.99z"/><path data-name="Rectangle 2195" fill="#e0e0e0" d="M347.99 413.14h43.43v4.38h-43.43z"/><path data-name="Rectangle 2196" fill="#3ad29f" opacity=".6" d="M418.43 413.14h32.48v4.38h-32.48z"/><path data-name="Rectangle 2197" fill="#6c63ff" d="M384.12 446.35h32.48v4.38h-32.48z"/><path data-name="Tracé 1442" d="M128.83 363.36v333.06l240.05 61.59 3.24-330.55z" fill="#535461"/><path data-name="Tracé 1443" d="M608.94 695.17l-240.06 62.84V427.46l240.06-64.1z" fill="#535461"/><path data-name="Tracé 1444" d="M608.94 695.17l-240.06 62.84V427.46l240.06-64.1z" opacity=".07"/><path data-name="Tracé 1445" d="M513.42 584.57v109.34l95.52-26.39V558.17z" opacity=".07"/><path data-name="Rectangle 2198" transform="translate(483.31 335.58)" fill="url(#d)" d="M0 0h70.8v68.02H0z"/><path data-name="Rectangle 2199" fill="#f5f5f5" d="M484.42 337.24H553v64.97h-68.58z"/><g data-name="Groupe 311"><path data-name="Tracé 1446" d="M757.78 416.38V413h-12.13v3.34h-8.49v16.38h29.11v-16.34zm-10.61-2.12h9.1v2.12h-9.1z" transform="translate(-233 -67.75)" fill="url(#u)" opacity=".5"/></g><path data-name="Rectangle 2200" fill="#4c6cf6" opacity=".6" d="M505.38 349.18h26.65v14.99h-26.65z"/><path data-name="Tracé 1447" d="M513.16 346.13v3.89h1.39v-2.78h8.33v2.78h1.38v-3.89z" fill="#4c6cf6" opacity=".6"/><g data-name="Groupe 312"><path data-name="Rectangle 2201" fill="#4c6cf6" d="M506.91 375.84h24.71v3.33h-24.71z" opacity=".6"/></g><path data-name="Rectangle 2202" fill="#bdbdbd" d="M497.61 381.95h42.2v3.33h-42.2z"/><path data-name="Rectangle 2203" transform="translate(415.44)" fill="url(#d)" d="M0 0h70.8v68.02H0z"/><path data-name="Rectangle 2204" fill="#f5f5f5" d="M416.55 1.67h68.58v64.97h-68.58z"/><g data-name="Groupe 313"><path data-name="Tracé 1448" d="M689.91 80.8v-3.33h-12.13v3.33h-8.49v16.38h29.11V80.8zm-10.61-2.12h9.1v2.12h-9.1z" transform="translate(-233 -67.75)" fill="url(#v)" opacity=".5"/></g><path data-name="Rectangle 2205" fill="#4c6cf6" d="M437.51 13.6h26.65v14.99h-26.65z"/><path data-name="Tracé 1449" d="M445.29 10.55v3.89h1.39v-2.78h8.33v2.78h1.38v-3.89z" fill="#4c6cf6"/><g data-name="Groupe 314"><path data-name="Rectangle 2206" fill="#4c6cf6" d="M439.04 40.26h24.71v3.33h-24.71z"/></g><path data-name="Rectangle 2207" fill="#bdbdbd" d="M429.74 46.37h42.2v3.33h-42.2z"/><g data-name="Groupe 315"><path data-name="Rectangle 2208" transform="translate(315.47 127.64)" fill="url(#g)" d="M0 0h91.73v75.35H0z" opacity=".5"/></g><path data-name="Rectangle 2209" fill="#f2f2f2" d="M316.54 129.07h89.42v72.67h-89.42z"/><path data-name="Rectangle 2210" fill="#6c63ff" d="M316.54 129.07h89.42v16.21h-89.42z"/><path data-name="Rectangle 2211" fill="#4c6cf6" opacity=".1" d="M316.54 129.07h89.42v16.21h-89.42z"/><path data-name="Rectangle 2212" fill="#e0e0e0" d="M323.67 151.16h75.17v9.44h-75.17z"/><path data-name="Rectangle 2213" fill="#e0e0e0" d="M323.67 167.72h54.86v3.21h-54.86z"/><path data-name="Rectangle 2214" fill="#e0e0e0" d="M323.67 173.24h35.62v3.21h-35.62z"/><path data-name="Rectangle 2215" fill="#e0e0e0" d="M323.67 178.76h47.02v3.21h-47.02z"/><path data-name="Rectangle 2216" fill="#e0e0e0" d="M323.67 184.29h54.86v3.21h-54.86z"/><path data-name="Rectangle 2217" fill="#e0e0e0" d="M323.67 189.81h18.35v3.21h-18.35z"/><g data-name="Groupe 316"><path data-name="Rectangle 2218" transform="translate(450.33 184.22)" fill="url(#d)" d="M0 0h113.7v93.39H0z" opacity=".5"/></g><path data-name="Rectangle 2219" fill="#fff" d="M451.66 185.98h110.83v90.08H451.66z"/><path data-name="Tracé 1455" d="M451.66 185.98h110.83v20.09H451.66z" fill="#4c6cf6"/><path data-name="Rectangle 2221" fill="#f5f5f5" d="M460.49 213.36h93.17v11.7h-93.17z"/><path data-name="Rectangle 2222" fill="#e0e0e0" d="M460.49 233.89h68v3.97h-68z"/><path data-name="Rectangle 2223" fill="#e0e0e0" d="M460.49 240.74h44.16v3.97h-44.16z"/><path data-name="Rectangle 2224" fill="#e0e0e0" d="M460.49 247.58h58.28v3.97h-58.28z"/><path data-name="Rectangle 2225" fill="#e0e0e0" d="M460.49 254.43h68v3.97h-68z"/><path data-name="Rectangle 2226" fill="#e0e0e0" d="M460.49 261.27h22.74v3.97h-22.74z"/><path data-name="Rectangle 2227" fill="#ee635d" d="M465.35 217.33h26.49v3.53h-26.49z"/><path data-name="Tracé 1450" d="M125.69 536.18l134.48 33.93 108.09-87.98v-54.04L128.2 367.76z" opacity=".1"/><path data-name="Tracé 1451" d="M610.83 536.18l-134.48 33.93-108.09-87.98v-54.04l240.06-60.33z" opacity=".1"/><path data-name="Tracé 1452" d="M128.83 363.36L5.66 465.16l240.05 60.33 123.17-98.03z" fill="#535461"/><path data-name="Tracé 1453" d="M608.94 363.36l124.43 101.8-238.8 60.33-125.69-98.03z" fill="#535461"/><path data-name="Tracé 1454" d="M608.94 363.36l124.43 101.8-238.8 60.33-125.69-98.03z" opacity=".07"/></svg>