<svg xmlns="http://www.w3.org/2000/svg" xmlns:xlink="http://www.w3.org/1999/xlink" width="147.428" height="150.5" viewBox="0 0 147.428 150.5">
  <defs>
    <linearGradient id="linear-gradient" x1="0.5" y1="1" x2="0.5" gradientUnits="objectBoundingBox">
      <stop offset="0" stop-color="#b3b3b3" stop-opacity="0.251"/>
      <stop offset="0.54" stop-color="#b3b3b3" stop-opacity="0.102"/>
      <stop offset="1" stop-color="#b3b3b3" stop-opacity="0.051"/>
    </linearGradient>
    <linearGradient id="linear-gradient-2" x1="0.5" y1="0.999" x2="0.5" gradientUnits="objectBoundingBox">
      <stop offset="0" stop-opacity="0.122"/>
      <stop offset="0.55" stop-opacity="0.09"/>
      <stop offset="1" stop-opacity="0.02"/>
    </linearGradient>
    <linearGradient id="linear-gradient-3" x1="0.5" y1="1" x2="0.5" y2="0" xlink:href="#linear-gradient-2"/>
  </defs>
  <g id="Groupe_230" data-name="Groupe 230" transform="translate(-926.825 -1087.662)">
    <path id="Tracé_1000" data-name="Tracé 1000" d="M711.5,380.235a57.118,57.118,0,0,0-81.747-.616c-14.981,15.1-14.177,56.29-14.177,56.29s6.846,16.412,13.338,23.245a57.118,57.118,0,0,0,73.243,8.083l41.289,42.946a2.781,2.781,0,0,0,3.931.077l10.289-9.893a2.781,2.781,0,0,0,.077-3.931l-41.278-42.942A57.122,57.122,0,0,0,711.5,380.235Zm-12.86,69.048a40.853,40.853,0,1,1,1.136-57.766A40.854,40.854,0,0,1,698.642,449.283Z" transform="translate(311.254 727.127)" fill="url(#linear-gradient)"/>
    <path id="Tracé_1001" data-name="Tracé 1001" d="M679.526,487.6c-4.595,0-4.6,7.141,0,7.141S684.128,487.6,679.526,487.6Z" transform="translate(271.797 647.992)" fill="url(#linear-gradient-2)"/>
    <path id="Tracé_1002" data-name="Tracé 1002" d="M721,425.154c-12.366-.278-23.618,5.925-29.6,15.29-1.953,3.056,3.591,5.756,5.533,2.715,4.954-7.753,14.367-12.677,24.549-12.421A31.275,31.275,0,0,1,747,445.581c1.949,3.213,7.061.293,5.13-2.9C745.88,432.42,733.774,425.459,721,425.154Z" transform="translate(262.349 688.563)" fill="url(#linear-gradient-3)"/>
    <path id="Tracé_1003" data-name="Tracé 1003" d="M722.856,374.315a57.116,57.116,0,1,0-9.343,87L754.8,504.262a2.781,2.781,0,0,0,3.931.077l10.289-9.893a2.781,2.781,0,0,0,.077-3.931l-41.289-42.946A57.122,57.122,0,0,0,722.856,374.315ZM710,443.333a40.853,40.853,0,1,1,1.136-57.766A40.853,40.853,0,0,1,710,443.333Z" transform="translate(304.382 730.877)" fill="#4c6cf6"/>
    <path id="Tracé_1004" data-name="Tracé 1004" d="M691.756,481.67c-4.595,0-4.6,7.141,0,7.141S696.358,481.67,691.756,481.67Z" transform="translate(264.048 651.75)" fill="#4c6cf6"/>
    <path id="Tracé_1005" data-name="Tracé 1005" d="M733.231,419.234c-12.366-.279-23.618,5.925-29.6,15.29-1.953,3.056,3.591,5.756,5.533,2.715,4.954-7.753,14.367-12.677,24.549-12.421a31.275,31.275,0,0,1,25.52,14.843c1.949,3.213,7.061.293,5.13-2.9C758.1,426.471,746.008,419.509,733.231,419.234Z" transform="translate(254.6 691.314)" fill="#4c6cf6"/>
  </g>
</svg>
