<svg xmlns="http://www.w3.org/2000/svg" xmlns:xlink="http://www.w3.org/1999/xlink" width="749.632" height="422.21" viewBox="0 0 749.632 422.21">
  <defs>
    <linearGradient id="linear-gradient" x1="0.5" y1="1" x2="0.5" gradientUnits="objectBoundingBox">
      <stop offset="0" stop-color="gray" stop-opacity="0.251"/>
      <stop offset="0.54" stop-color="gray" stop-opacity="0.122"/>
      <stop offset="1" stop-color="gray" stop-opacity="0.102"/>
    </linearGradient>
    <linearGradient id="linear-gradient-2" x1="0.5" y1="1" x2="0.5" y2="0" xlink:href="#linear-gradient"/>
  </defs>
  <g id="Groupe_75" data-name="Groupe 75" transform="translate(0 0.002)">
    <path id="Tracé_724" data-name="Tracé 724" d="M488.493,201.734c-43.249-.248-84.7-11.3-124.336-23.536s-78.913-25.869-121.271-31.86c-27.243-3.838-58.289-3.72-79.844,9.373-20.741,12.6-27.036,33.641-30.218,53.1-2.4,14.639-3.644,30.018,4.224,43.484,5.46,9.346,14.936,17.083,21.583,26,23.115,31.025,8.283,70.333-15.185,101.745-11.043,14.736-23.854,28.851-32.247,44.45s-12.017,33.344-3.969,48.854c7.979,15.378,26.38,26.629,46.2,34.38,40.267,15.73,87.354,19.367,133.212,20.962,101.538,3.534,203.407-1.532,305-6.592,37.6-1.877,75.365-3.769,112.25-9.663,20.486-3.285,41.6-8.234,56.26-19.285,18.636-14.039,22.777-37.134,9.663-53.837-21.977-28.03-81.018-33.7-96.63-63.969-8.6-16.669-.649-35.657,10.878-51.587C708.79,289.578,750.873,259.1,752.2,220.695c.911-26.38-20.306-52.263-52.422-63.956-33.71-12.3-79.886-9.539-103.988,12.686C570.995,192.306,526.71,201.955,488.493,201.734Z" transform="translate(-71.139 -144.15)" fill="#6c63ff" opacity="0.1"/>
    <g id="flowers" transform="translate(286.412 34.446)">
      <path id="Tracé_725" data-name="Tracé 725" d="M587.448,351.663s-18.967-33.607-47.542-43.29a58.5,58.5,0,0,1-29.617-22.156A98.2,98.2,0,0,1,501.55,270.5" transform="translate(-481.098 -217.738)" fill="none" stroke="#535461" stroke-miterlimit="10" stroke-width="2"/>
      <path id="Tracé_726" data-name="Tracé 726" d="M474.411,255.167c3.251,3.161,18.415,6.426,18.415,6.426s-3.72-15.054-6.971-18.215a8.215,8.215,0,1,0-11.444,11.789Z" transform="translate(-471.918 -208.617)" fill="#6c63ff"/>
      <path id="Tracé_727" data-name="Tracé 727" d="M485.021,293.691c4.452.883,18.96-4.618,18.96-4.618s-11.368-10.629-15.792-11.513a8.219,8.219,0,0,0-3.168,16.13Z" transform="translate(-473.921 -219.876)" fill="#6c63ff"/>
      <path id="Tracé_728" data-name="Tracé 728" d="M528.308,336.558c4.286-1.484,14.032-13.549,14.032-13.549s-15.116-3.451-19.4-1.974a8.213,8.213,0,1,0,5.37,15.524Z" transform="translate(-486.01 -233.279)" fill="#6c63ff"/>
      <path id="Tracé_729" data-name="Tracé 729" d="M570.431,361c4.473-.739,16.117-10.988,16.117-10.988s-14.315-5.964-18.795-5.225A8.216,8.216,0,0,0,570.431,361Z" transform="translate(-499.475 -240.732)" fill="#6c63ff"/>
      <path id="Tracé_730" data-name="Tracé 730" d="M526.357,273.557c0,4.542-8.207,17.7-8.207,17.7s-8.22-13.149-8.22-17.69a8.214,8.214,0,1,1,16.427,0Z" transform="translate(-483.694 -216.142)" fill="#6c63ff"/>
      <path id="Tracé_731" data-name="Tracé 731" d="M574.76,301.857c-1.38,4.335-13.114,14.432-13.114,14.432s-3.907-15.012-2.554-19.326a8.216,8.216,0,0,1,15.682,4.907Z" transform="translate(-498.835 -224.15)" fill="#6c63ff"/>
      <path id="Tracé_732" data-name="Tracé 732" d="M617.5,337.462c-.6,4.5-10.5,16.448-10.5,16.448s-6.385-14.136-5.784-18.636a8.214,8.214,0,0,1,16.282,2.188Z" transform="translate(-511.962 -235.597)" fill="#6c63ff"/>
      <path id="Tracé_733" data-name="Tracé 733" d="M474.411,255.167c3.251,3.161,18.415,6.426,18.415,6.426s-3.72-15.054-6.971-18.215a8.215,8.215,0,1,0-11.444,11.789Z" transform="translate(-471.918 -208.617)" opacity="0.25"/>
      <path id="Tracé_734" data-name="Tracé 734" d="M485.021,293.691c4.452.883,18.96-4.618,18.96-4.618s-11.368-10.629-15.792-11.513a8.219,8.219,0,0,0-3.168,16.13Z" transform="translate(-473.921 -219.876)" opacity="0.25"/>
      <path id="Tracé_735" data-name="Tracé 735" d="M528.308,336.558c4.286-1.484,14.032-13.549,14.032-13.549s-15.116-3.451-19.4-1.974a8.213,8.213,0,1,0,5.37,15.524Z" transform="translate(-486.01 -233.279)" opacity="0.25"/>
      <path id="Tracé_736" data-name="Tracé 736" d="M570.431,361c4.473-.739,16.117-10.988,16.117-10.988s-14.315-5.964-18.795-5.225A8.216,8.216,0,0,0,570.431,361Z" transform="translate(-499.475 -240.732)" opacity="0.25"/>
      <path id="Tracé_737" data-name="Tracé 737" d="M526.357,273.557c0,4.542-8.207,17.7-8.207,17.7s-8.22-13.149-8.22-17.69a8.214,8.214,0,1,1,16.427,0Z" transform="translate(-483.694 -216.142)" opacity="0.25"/>
      <path id="Tracé_738" data-name="Tracé 738" d="M574.76,301.857c-1.38,4.335-13.114,14.432-13.114,14.432s-3.907-15.012-2.554-19.326a8.216,8.216,0,0,1,15.682,4.907Z" transform="translate(-498.835 -224.15)" opacity="0.25"/>
      <path id="Tracé_739" data-name="Tracé 739" d="M617.5,337.462c-.6,4.5-10.5,16.448-10.5,16.448s-6.385-14.136-5.784-18.636a8.214,8.214,0,0,1,16.282,2.188Z" transform="translate(-511.962 -235.597)" opacity="0.25"/>
      <path id="Tracé_740" data-name="Tracé 740" d="M603.947,338.2s-3.727-38.418-25.918-58.848a58.475,58.475,0,0,1-18.1-32.254,98.182,98.182,0,0,1-1.615-17.911" transform="translate(-498.681 -204.94)" fill="none" stroke="#535461" stroke-miterlimit="10" stroke-width="2"/>
      <path id="Tracé_741" data-name="Tracé 741" d="M537.891,205.344c1.691,4.21,14.232,13.342,14.232,13.342s2.7-15.275,1-19.485a8.213,8.213,0,1,0-15.234,6.143Z" transform="translate(-492.17 -194.057)" fill="#6c63ff"/>
      <path id="Tracé_742" data-name="Tracé 742" d="M531.954,244.833c3.713,2.609,19.195,3.451,19.195,3.451s-6.033-14.288-9.739-16.9a8.216,8.216,0,0,0-9.456,13.439Z" transform="translate(-489.435 -205.157)" fill="#6c63ff"/>
      <path id="Tracé_743" data-name="Tracé 743" d="M554.2,301.569c4.521.38,18.318-6.709,18.318-6.709s-12.424-9.283-16.945-9.663a8.215,8.215,0,0,0-1.38,16.372Z" transform="translate(-495.074 -222.281)" fill="#6c63ff"/>
      <path id="Tracé_744" data-name="Tracé 744" d="M582.614,340.926c4.39,1.139,19.188-3.513,19.188-3.513s-10.678-11.251-15.068-12.424a8.214,8.214,0,1,0-4.141,15.875Z" transform="translate(-504.176 -234.499)" fill="#6c63ff"/>
      <path id="Tracé_745" data-name="Tracé 745" d="M577.927,243.21c-1.836,4.141-14.674,12.852-14.674,12.852s-2.188-15.35-.352-19.5a8.215,8.215,0,0,1,15.026,6.647Z" transform="translate(-499.876 -205.709)" fill="#6c63ff"/>
      <path id="Tracé_746" data-name="Tracé 746" d="M609.119,288.679c-3,3.4-17.849,7.868-17.849,7.868s2.505-15.3,5.522-18.712a8.217,8.217,0,0,1,12.348,10.843Z" transform="translate(-508.891 -219.144)" fill="#6c63ff"/>
      <path id="Tracé_747" data-name="Tracé 747" d="M634.881,338.65c-2.374,3.865-16.262,10.781-16.262,10.781s-.117-15.509,2.257-19.381a8.221,8.221,0,0,1,14,8.6Z" transform="translate(-517.363 -235.032)" fill="#6c63ff"/>
    </g>
    <path id="Tracé_748" data-name="Tracé 748" d="M856.012,739.062c2.036,4.141-12.369,8.593-30.211,9.877-15.985,1.153-29.127-.725-30.791-4.093s8.517-7.454,24.158-9.3C836.624,733.505,853.976,734.962,856.012,739.062Z" transform="translate(-285.54 -327.071)" fill="#6c63ff" opacity="0.1"/>
    <path id="Tracé_749" data-name="Tracé 749" d="M218.75,244.6,438.64,166.72V435.76l-219.89-4.583Z" transform="translate(-67.765 -51.647)" fill="#fff"/>
    <path id="Tracé_750" data-name="Tracé 750" d="M218.75,244.6,438.64,166.72V435.76l-219.89-4.583Z" transform="translate(-67.765 -51.647)" fill="#6c63ff" opacity="0.2"/>
    <path id="Tracé_751" data-name="Tracé 751" d="M0,323.979,125.447,279.55V466.13H0Z" transform="translate(0 -86.6)" fill="#fff"/>
    <path id="Tracé_752" data-name="Tracé 752" d="M0,323.979,125.447,279.55V466.13H0Z" transform="translate(0 -86.6)" fill="#6c63ff" opacity="0.2"/>
    <path id="Tracé_753" data-name="Tracé 753" d="M537.33,166.72,757.213,244.6v186.58L537.33,435.76Z" transform="translate(-166.455 -51.647)" fill="#fff"/>
    <path id="Tracé_754" data-name="Tracé 754" d="M537.33,166.72,757.213,244.6v186.58L537.33,435.76Z" transform="translate(-166.455 -51.647)" fill="#6c63ff" opacity="0.5"/>
    <path id="Tracé_755" data-name="Tracé 755" d="M1020.928,324.538,893.9,279.55V466.13h127.028Z" transform="translate(-276.914 -86.6)" fill="#fff"/>
    <path id="Tracé_756" data-name="Tracé 756" d="M1020.928,324.538,893.9,279.55V466.13h127.028Z" transform="translate(-276.914 -86.6)" fill="#6c63ff" opacity="0.5"/>
    <path id="Tracé_757" data-name="Tracé 757" d="M152.819,524.923c-.89,0-1.615,1.215-1.615,2.713V561.4a20.016,20.016,0,0,1-2.285,9.573c-1.443,2.533-3.651,4.141-5.763,4.141h-1.38c-2.071,0-4.1-1.546-5.687-4.272a19.519,19.519,0,0,1-2.505-9.642V517.634a13.114,13.114,0,0,1,1.795-6.861c1.153-1.822,2.664-2.83,4.252-2.83s3.044,1.008,4.141,2.816a13.687,13.687,0,0,1,1.7,6.9v40.681c0,2.968-1.38,5.591-3.009,5.591-1.38,0-2.927-2.236-2.927-5.591V535.11c0-1.491-.725-2.713-1.615-2.713s-1.622,1.222-1.622,2.713v23.205c0,6.171,2.65,10.823,6.164,10.823,1.712,0,3.292-1.063,4.431-3a15.675,15.675,0,0,0,1.815-7.82V517.634a21.107,21.107,0,0,0-2.7-10.733c-1.712-2.864-4-4.431-6.433-4.431s-4.721,1.567-6.454,4.431a21.031,21.031,0,0,0-2.692,10.754v43.56a27.337,27.337,0,0,0,3.382,13.549c2.112,3.493,4.97,5.522,7.9,5.522h1.415c2.864,0,5.736-2.029,7.875-5.577a22.847,22.847,0,0,0,2.478-6,28.991,28.991,0,0,0,.925-7.316V527.566c0-1.5-.69-2.713-1.608-2.713Z" transform="translate(-79.718 -255.152)" fill="#fff"/>
    <path id="Tracé_758" data-name="Tracé 758" d="M605.513,643.92s4.093,5.356-1.891,13.439S592.7,672.274,594.7,677.3c0,0,9.028-15.012,16.372-15.185S613.588,652.948,605.513,643.92Z" transform="translate(-223.401 -298.97)" fill="#6c63ff"/>
    <path id="Tracé_759" data-name="Tracé 759" d="M605.62,643.92a6.772,6.772,0,0,1,.835,1.684c7.164,8.421,10.981,16.275,4.093,16.476-6.419.186-14.115,11.658-15.958,14.557a5.694,5.694,0,0,0,.214.69s9.028-15.012,16.372-15.185S613.7,652.948,605.62,643.92Z" transform="translate(-223.508 -298.97)" opacity="0.1"/>
    <path id="Tracé_760" data-name="Tracé 760" d="M621.166,653.268c0,1.884-.214,3.41-.476,3.41s-.469-1.525-.469-3.41.262-1,.525-1S621.166,651.384,621.166,653.268Z" transform="translate(-231.448 -301.492)" fill="#ffd037"/>
    <path id="Tracé_761" data-name="Tracé 761" d="M623.923,656.475c-1.65.9-3.092,1.443-3.216,1.215s1.111-1.146,2.761-2.071,1-.242,1.125,0S625.579,655.571,623.923,656.475Z" transform="translate(-231.596 -302.449)" fill="#ffd037"/>
    <path id="Tracé_762" data-name="Tracé 762" d="M575.116,643.92s-4.093,5.356,1.891,13.439,10.912,14.916,8.918,19.94c0,0-9.021-15.012-16.372-15.185S567.034,652.948,575.116,643.92Z" transform="translate(-214.629 -298.97)" fill="#6c63ff"/>
    <path id="Tracé_763" data-name="Tracé 763" d="M575.116,643.92a6.771,6.771,0,0,0-.835,1.684c-7.171,8.421-10.988,16.275-4.093,16.476,6.412.186,14.115,11.658,15.958,14.557a5.734,5.734,0,0,1-.221.69s-9.021-15.012-16.372-15.185S567.034,652.948,575.116,643.92Z" transform="translate(-214.629 -298.97)" opacity="0.1"/>
    <path id="Tracé_764" data-name="Tracé 764" d="M568.22,653.268c0,1.884.207,3.41.469,3.41s.476-1.525.476-3.41-.269-1-.525-1S568.22,651.384,568.22,653.268Z" transform="translate(-215.339 -301.492)" fill="#ffd037"/>
    <path id="Tracé_765" data-name="Tracé 765" d="M563.977,656.475c1.657.9,3.1,1.443,3.223,1.215s-1.111-1.146-2.761-2.071-1-.242-1.125,0S562.3,655.571,563.977,656.475Z" transform="translate(-213.712 -302.449)" fill="#ffd037"/>
    <ellipse id="Ellipse_445" data-name="Ellipse 445" cx="42.794" cy="6.564" rx="42.794" ry="6.564" transform="translate(328.502 406.144)" fill="#6c63ff" opacity="0.1"/>
    <path id="Tracé_766" data-name="Tracé 766" d="M607.043,680.706l-.207,1.67-.29,2.36-.117.98-.29,2.367-.124.98-.283,2.361-3.279,26.849c-.29,2.4-4.2,4.266-8.931,4.266H576.507c-4.728,0-8.635-1.87-8.931-4.266L564.3,691.425l-.29-2.361-.117-.98-.29-2.367-.124-.98-.283-2.36-.207-1.67c-.166-1.38,1.953-2.505,4.631-2.505h34.8C605.1,678.2,607.208,679.346,607.043,680.706Z" transform="translate(-213.715 -309.59)" fill="#444053"/>
    <path id="Tracé_767" data-name="Tracé 767" d="M549.972,540.1l-.29,2.361h-43.07l-.283-2.361Z" transform="translate(-156.852 -167.314)" fill="#9d9cb5"/>
    <path id="Tracé_768" data-name="Tracé 768" d="M549.748,544.95l-.29,2.361H507.21l-.29-2.361Z" transform="translate(-157.035 -168.816)" fill="#9d9cb5"/>
    <path id="Tracé_769" data-name="Tracé 769" d="M549.517,549.8l-.283,2.361H507.8l-.29-2.361Z" transform="translate(-157.217 -170.319)" fill="#9d9cb5"/>
    <path id="Tracé_770" data-name="Tracé 770" d="M448.469,463.344l-6.592,8.759a.5.5,0,0,1-.511.214l-6.812-1.629a.732.732,0,0,1-.469-.621l-1.215-9.021a.966.966,0,0,1,.159-.69l6.578-8.745a1.884,1.884,0,0,0-.152-2.354,7.116,7.116,0,0,0-4.666-2.071,1.3,1.3,0,0,0-.29,0c-1.836.138-5.77,1.5-8.807,5.77a23.225,23.225,0,0,0-3.3,20.306,3.843,3.843,0,0,1-.4,3.831c-1.091,1.443-29.3,36.582-29.3,36.582-2.644,3.016-2.45,8.593,0,11.837a5.86,5.86,0,0,0,4.59,2.485,5.135,5.135,0,0,0,4.341-2.547s26.325-37.134,27.609-38.825a2.071,2.071,0,0,1,1.629-.987,2.258,2.258,0,0,1,1.256.462,8.282,8.282,0,0,0,4.756,1.443c3.934,0,8.069-2.416,10.595-5.756a20.831,20.831,0,0,0,4.341-11.678,12.838,12.838,0,0,0-1.567-6.647,1.015,1.015,0,0,0-1.774-.152Zm-49.7,57.944a1.746,1.746,0,0,1-2.92,0,3.451,3.451,0,0,1,0-3.865,1.746,1.746,0,0,1,2.92,0,3.451,3.451,0,0,1,.007,3.865Z" transform="translate(-160.372 -238.023)" fill="#fff"/>
    <path id="Tracé_771" data-name="Tracé 771" d="M768.425,478.309c-1.822-21.065-16.1-37.479-33.476-37.479-11.5,0-21.625,7.171-27.705,18.125a13.218,13.218,0,0,0-6.039-1.484c-8.78,0-15.875,9.663-16.034,20.555-8.973,3.562-14.881,14.495-14.881,25.966,0,14.06,9.138,26.47,20.4,26.47H764.85c11.271,0,20.41-12.424,20.41-26.47,0-12.521-7.275-23.557-16.834-25.683Zm-16.752-4.831-30.018,37.617h0a3.759,3.759,0,0,1-2.609,1.539,3.679,3.679,0,0,1-2.623-1.594l-12.6-15.7a1.318,1.318,0,0,1,0-1.594l4-4.983a.752.752,0,0,1,1.256,0l9.974,12.424,27.388-34.421a.828.828,0,0,1,.628-.338.759.759,0,0,1,.628.338l3.927,5.073a1.291,1.291,0,0,1,.048,1.622Z" transform="translate(-246.959 -236.057)" fill="#fff"/>
    <ellipse id="Ellipse_446" data-name="Ellipse 446" cx="6.826" cy="9.104" rx="6.826" ry="9.104" transform="translate(696.423 257.402)" fill="#fff"/>
    <path id="Tracé_772" data-name="Tracé 772" d="M1052.355,542.187a7.226,7.226,0,0,1-2.216-.359l-6.737,9.159a.449.449,0,0,0,0,.531l10.705,15.185a3.079,3.079,0,0,1,0,3.492,1.684,1.684,0,0,1-1.311.69,1.664,1.664,0,0,1-1.3-.69l-10.664-15.185a.249.249,0,0,0-.414,0l-2.6,3.534c-2.174,2.94-5.059,2.5-8.165,2.519s-6.122-1.746-8.331-4.728l-2.5-3.4a.248.248,0,0,0-.414,0l-10.664,15.185a1.684,1.684,0,0,1-1.311.69,1.664,1.664,0,0,1-1.3-.69,3.078,3.078,0,0,1,0-3.492l10.705-15.185a.525.525,0,0,0,0-.531l-15.316-20.789c-.186-.248-.483-.076-.483.262V570c0,3.341,2.071,6.074,4.548,6.074l50.055,2.071c2.505,0,4.548-2.761,4.548-6.074V538.294A8.506,8.506,0,0,1,1052.355,542.187Z" transform="translate(-349.106 -263.063)" fill="#fff"/>
    <path id="Tracé_773" data-name="Tracé 773" d="M1043.671,526.615a16.06,16.06,0,0,1,1.166-6.074l-39.5-2.071a3.845,3.845,0,0,0-2.816,1.332l22.315,30.3a6.9,6.9,0,0,0,5.556,3.106c2.071,0,4.086.973,5.563-1.035L1047.4,536.63A14.337,14.337,0,0,1,1043.671,526.615Z" transform="translate(-349.877 -260.108)" fill="#fff"/>
    <path id="Tracé_774" data-name="Tracé 774" d="M1139.591,688.375s-8.069-.483-7.116,5.163a1.381,1.381,0,0,0,.69,1.456s0-.421.828-.276a3.887,3.887,0,0,0,.876.041,1.871,1.871,0,0,0,1.07-.442h0s2.264-.939,3.147-4.645c0,0,.656-.808.628-1.015l-1.38.58a2.45,2.45,0,0,1,.1,1.8s-.042-1.767-.3-1.726c-.055,0-.69.345-.69.345a4.016,4.016,0,0,1,.2,2.947s.228-2.071-.449-2.823l-.959.559a4.2,4.2,0,0,1,.3,3.2s.166-2.209-.5-3.071l-.87.69s.884,1.746.345,2.94c0,0-.069-2.575-.531-2.761a5.324,5.324,0,0,0-.877.946s.6,1.263.228,1.926c0,0-.228-1.712-.414-1.719a5.6,5.6,0,0,0-.835,1.912,4.142,4.142,0,0,1,.656-2.022,2.27,2.27,0,0,0-1.16.6s.117-.8,1.38-.877a5.387,5.387,0,0,1,.787-.911,4.929,4.929,0,0,0-1.96.228,2.254,2.254,0,0,1,2.188-.414l.856-.69a7.11,7.11,0,0,0-2.292,0,2.707,2.707,0,0,1,2.519-.18l.939-.559a8.552,8.552,0,0,0-2.188-.193,3.355,3.355,0,0,1,2.457.042l.69-.3s-1.008-.2-1.3-.228-.311-.117-.311-.117a3.493,3.493,0,0,1,1.884.214A8.607,8.607,0,0,0,1139.591,688.375Z" transform="translate(-390.111 -312.739)" fill="#6c63ff"/>
    <ellipse id="Ellipse_447" data-name="Ellipse 447" cx="5.708" cy="0.966" rx="5.708" ry="0.966" transform="translate(738.216 381.78)" fill="#6c63ff" opacity="0.1"/>
    <path id="Tracé_775" data-name="Tracé 775" d="M958.884,688.714s-9.732-.587-8.586,6.212a1.663,1.663,0,0,0,.863,1.753s0-.5,1-.331a4.326,4.326,0,0,0,1.056.048,2.195,2.195,0,0,0,1.3-.531h0s2.761-1.132,3.8-5.6c0,0,.794-.973.759-1.229l-1.643.69a2.947,2.947,0,0,1,.117,2.167s-.048-2.126-.366-2.071c-.062,0-.856.407-.856.407s.966,2.071.242,3.568c0,0,.276-2.547-.545-3.451l-1.153.69a5.145,5.145,0,0,1,.366,3.879s.193-2.671-.607-3.713l-1.049.821s1.063,2.071.414,3.541c0,0-.083-3.106-.642-3.341a6.337,6.337,0,0,0-1.056,1.139s.69,1.525.276,2.333c0,0-.276-2.071-.5-2.071a6.9,6.9,0,0,0-1.008,2.312,5.011,5.011,0,0,1,.787-2.443,2.76,2.76,0,0,0-1.38.69s.145-.973,1.629-1.056a6.356,6.356,0,0,1,.953-1.1,5.949,5.949,0,0,0-2.367.276,2.656,2.656,0,0,1,2.637-.5l1.035-.842a8.626,8.626,0,0,0-2.761,0s.946-.808,3.044-.221l1.125-.69a10.122,10.122,0,0,0-2.643-.228,4.041,4.041,0,0,1,2.975.041l.8-.359s-1.208-.235-1.567-.276-.373-.138-.373-.138a4.224,4.224,0,0,1,2.278.255,9.8,9.8,0,0,0,1.657-.621Z" transform="translate(-333.671 -312.843)" fill="#6c63ff"/>
    <ellipse id="Ellipse_448" data-name="Ellipse 448" cx="6.888" cy="1.166" rx="6.888" ry="1.166" transform="translate(611.623 383.291)" fill="#6c63ff" opacity="0.1"/>
    <path id="Tracé_776" data-name="Tracé 776" d="M850.86,570.438s.794-.766.531-1.284a1.194,1.194,0,0,1,0-1.028s-1.781-7-2.443-7.7a5.37,5.37,0,0,1-.987-1.739.9.9,0,0,0,.1-.442,3.526,3.526,0,0,0-.69-1.953,4.79,4.79,0,0,1-.821-2.588,2.893,2.893,0,0,1,0-.345h0a3.451,3.451,0,0,0-2.388-2.119c.228-1.484.538-2.968.635-4.459.311-4.673-1.429-9.208-3.14-13.583a14.323,14.323,0,0,0-1.5-3.085,8.973,8.973,0,0,0-6.447-3.52,6.3,6.3,0,0,0-2.761.269,8.573,8.573,0,0,0-2.381,1.594c-.739.621-1.477,1.256-2.16,1.933l-.083.083-.242.255-.1.1-.228.255-.083.09c-.1.117-.2.235-.3.359h0c-.09.117-.179.228-.262.345l-.083.117-.179.255-.083.131c-.062.09-.11.18-.166.269l-.076.124c-.069.131-.145.262-.214.4l-.248.552v.076l-.145.366c-.186.442-.366.884-.594,1.3h0l-.041.069-.5.6a4.665,4.665,0,0,0-.566.966l-.048.11a.449.449,0,0,1-.055.152l-.048.124a1.4,1.4,0,0,1-.048.159c0,.041,0,.083,0,.131l-.041.152v.138a.246.246,0,0,1-.034.152v.994a1.7,1.7,0,0,0,0,.186.754.754,0,0,0,0,.124,1.465,1.465,0,0,0,0,.172v.3a.8.8,0,0,0,0,.124l.041.179v.11l.062.193a.131.131,0,0,0,.034.09,1.866,1.866,0,0,1,.11.283,7.422,7.422,0,0,0,.773,1.311c.2.276.407.545.614.821l.3.414a7.551,7.551,0,0,1,.545.863,6,6,0,0,1-.214,5.95l-.248.38a2.022,2.022,0,0,0-.283.69,1.477,1.477,0,0,0,.393,1.18l-.614.159c-.5.138-.849.248-.849.248a7.148,7.148,0,0,0-1.256,0,3.451,3.451,0,0,0-1.512.966s-2.637.318-3.5-.449-3.886-1.028-3.886-1.028a6.411,6.411,0,0,0-1.781-2.188c-.925-.518-3.161-1.477-3.23-1.988a4.687,4.687,0,0,0-.856-1.477,7.589,7.589,0,0,0-1.38-.166l-.145-.249-1.843-3.182s-2.312-2.7-3.562-2.954,1.76,2.864,1.9,3.009a1.981,1.981,0,0,0-2.761.456c-.98,1.091,1.622,3.651,3.237,5.066l.262.228a3.266,3.266,0,0,0,.062.421c.725,3.789,4.742,7.068,4.742,7.068s.462,2.119,1.981,2.637c1.208.407,7.7,3.348,11.078,3.934-.283.732-.614,2.43.787,4.928,0,0,.331,4.431-.393,5.011s-.69,7-.69,7-2.761,11.175,0,13.549a2.154,2.154,0,0,0,.587.359,5.235,5.235,0,0,0,.069.538,5.583,5.583,0,0,1-.131,2.761c-.69,1.091.228,4.045.228,4.045s-2.664,15.1-1.477,20.424a61.064,61.064,0,0,1,1.049,12.079s-.393,4.687,1.65,7.516a7.772,7.772,0,0,1,.393,2.071,12.346,12.346,0,0,0,1.056,3.914c.462.9,1.38,4.693.594,5.715s.856,12.21.856,12.21-1.318,3.451,0,5.266l.041.048a8.969,8.969,0,0,1-2.312-.331c-1.477-.5-.373,1.38,1.38,2.664-.766,1.739-1.815,4.072-2.167,4.831-1.525.262-4.549.69-6.322.269-2.437-.573,1.056,3.341,4.348,4.052a31.54,31.54,0,0,0,7.054.511l2.126-2.347a27.006,27.006,0,0,0,5.184.193l-.186,2.181h1.249v-2.264c.787-.076,1.6-.179,2.443-.331,0,0,.048-2.388-.1-4.645l.766.069.117-1.249,2.713.49,2.437-20.016s.269-7.447.863-11.623-1.256-18.18-1.256-18.18-.131-.69-.262-1.988,0-8.869,0-8.869.987-4.141.794-4.493a7.291,7.291,0,0,1,.062-2.119c4.141-8.441-.952-16.068-2.726-18.332a.546.546,0,0,0,.173-.366.345.345,0,0,0,0-.145,15.458,15.458,0,0,0-.994-2.071L841.2,585.1c.359.518.614.9.614.9a12.421,12.421,0,0,1,2.243-3.451c1.125-.946,6.523-9.953,6.523-9.953s1.256-.842.594-1.546S850.86,570.438,850.86,570.438Zm-16.607,71.037a1.781,1.781,0,0,0-.469-.766s-.193-1.38-.262-3.154c.393,1.38.794,2.381.794,2.381Zm3.106,32.834v-.366h.1Zm.814-91.371v-.083a1.021,1.021,0,0,1,.428-.918.483.483,0,0,0,.228-.449,1.63,1.63,0,0,0-.318-.8c.131.1.538.318.814-.483a1.22,1.22,0,0,0,.062-.387,3.237,3.237,0,0,0-.78-1.808l2.982-6.281a7.983,7.983,0,0,0,.994.228h0c-.78,2.416-1.422,5.294-1.422,5.294l-2.305,5.073a.973.973,0,0,1,.4.29Z" transform="translate(-286.703 -262.608)" fill="url(#linear-gradient)"/>
    <path id="Tracé_777" data-name="Tracé 777" d="M838.688,734.806s-3.872.476-5.756-.173.58,2.761,3.127,3.6a24,24,0,0,0,5.522.939l2.989-2.816,3.175.248-.552,3.113.987.09.38-4.072Z" transform="translate(-297.136 -327.046)" fill="#444053"/>
    <path id="Tracé_778" data-name="Tracé 778" d="M838.688,734.806s-3.872.476-5.756-.173.58,2.761,3.127,3.6a24,24,0,0,0,5.522.939l2.989-2.816,3.175.248-.552,3.113.987.09.38-4.072Z" transform="translate(-297.136 -327.046)" opacity="0.1"/>
    <path id="Tracé_779" data-name="Tracé 779" d="M829.972,745.23s-4.652,1.015-7.006.442,1.022,3.313,4.2,4.01a29.422,29.422,0,0,0,6.813.511l3.313-3.755,3.879-.062-.318,3.845h1.215v-4.99Z" transform="translate(-294.011 -330.354)" fill="#444053"/>
    <path id="Tracé_780" data-name="Tracé 780" d="M829.972,745.23s-4.652,1.015-7.006.442,1.022,3.313,4.2,4.01a29.422,29.422,0,0,0,6.813.511l3.313-3.755,3.879-.062-.318,3.845h1.215v-4.99Z" transform="translate(-294.011 -330.354)" opacity="0.1"/>
    <path id="Tracé_781" data-name="Tracé 781" d="M853.172,617.1s7.958,8.849,3.189,18.843a7.464,7.464,0,0,0-.069,2.105c.186.317-.759,4.459-.759,4.459s-.131,7.51,0,8.786.255,1.967.255,1.967,1.781,13.88,1.208,18.022-.828,11.527-.828,11.527l-2.354,19.865-12.224-2.292,5.522-27.257.193-4.832s-2.292-5.915-1.277-8.911-.255-41.13-.255-41.13Z" transform="translate(-300.024 -290.662)" fill="#444053"/>
    <path id="Tracé_782" data-name="Tracé 782" d="M853.172,617.1s7.958,8.849,3.189,18.843a7.464,7.464,0,0,0-.069,2.105c.186.317-.759,4.459-.759,4.459s-.131,7.51,0,8.786.255,1.967.255,1.967,1.781,13.88,1.208,18.022-.828,11.527-.828,11.527l-2.354,19.865-12.224-2.292,5.522-27.257.193-4.832s-2.292-5.915-1.277-8.911-.255-41.13-.255-41.13Z" transform="translate(-300.024 -290.662)" opacity="0.02"/>
    <path id="Tracé_783" data-name="Tracé 783" d="M843.138,660.048c-1.38,2.671-.511,9.166-.511,9.166,1.843,1.594.828,15.475.828,15.475s1.27,13.687,2.071,15.281.69,8.145.69,8.145c-9.359,1.719-15.475-1.974-15.475-1.974s3-6.812,3.058-7.13c.034-.179.435.3.552.449l-.552-.766c-1.277-1.781,0-5.218,0-5.218s-1.594-11.044-.828-12.1-.124-4.776-.573-5.667a12.482,12.482,0,0,1-1.021-3.886,7.917,7.917,0,0,0-.38-2.036c-1.974-2.8-1.594-7.448-1.594-7.448a61.559,61.559,0,0,0-1.015-11.968c-1.146-5.287,1.429-20.251,1.429-20.251s-.856-2.927-.221-4.01a5.668,5.668,0,0,0,.124-2.761c-.152-1.38-.442-2.664-.442-2.664l17.387-3.065c.366.607.69,1.194,1.008,1.76,5.75,10.622,1.87,14.564,1.87,14.564l-3.693,11.333S844.539,657.37,843.138,660.048Z" transform="translate(-295.844 -290.823)" fill="#444053"/>
    <path id="Tracé_784" data-name="Tracé 784" d="M806.877,555.4l-2.485,2.071s-.49-.387-1.139-.973c-1.56-1.38-4.072-3.941-3.127-5.018a1.877,1.877,0,0,1,2.664-.449c-.138-.152-3.023-3.237-1.836-2.989s3.451,2.927,3.451,2.927l1.781,3.154Z" transform="translate(-287.116 -269.265)" fill="#efb7b9"/>
    <path id="Tracé_785" data-name="Tracé 785" d="M799.917,464.38l-2.927.89,2.223,3.879,2.547-3.306Z" transform="translate(-246.893 -143.857)" fill="#efb7b9"/>
    <circle id="Ellipse_449" data-name="Ellipse 449" cx="8.338" cy="8.338" r="8.338" transform="translate(537.811 267.362)" fill="#efb7b9"/>
    <path id="Tracé_786" data-name="Tracé 786" d="M840.49,546.92s7.592,12.031.386,13.052,9.663,8.338,9.663,8.338l6.3-6.364s-6.557-11.333-5.522-15.661S840.49,546.92,840.49,546.92Z" transform="translate(-299.248 -268.176)" fill="#efb7b9"/>
    <path id="Tracé_787" data-name="Tracé 787" d="M848.244,619.38a39.021,39.021,0,0,1-5.128,1.194s-9.387,4.141-12.8,2.761c-.152-1.38-.442-2.664-.442-2.664l17.345-3.051C847.6,618.227,847.94,618.814,848.244,619.38Z" transform="translate(-296.394 -290.823)" opacity="0.1"/>
    <path id="Tracé_788" data-name="Tracé 788" d="M856.257,571.107l-1.7,3.513-1.912,3.948-.276.566-2.271,4.907-2.885,6.212s1.022,1.208.69,2.167-.766.5-.821.449c.048.076.69.9.117,1.27a1.208,1.208,0,0,0-.38,1.208,44.5,44.5,0,0,1,2.8,5.287c.449,1.4-7.13,2.609-7.13,2.609s-10.761,4.776-13.439,2.416,0-13.432,0-13.432,0-6.364.69-6.937.38-4.97.38-4.97c-1.843-3.375-.573-5.287-.573-5.287l-.511-8.655s.828-.89,1.463-.953a6.025,6.025,0,0,1,1.215,0s.331-.117.821-.248c1.021-.29,2.713-.69,3.313-.393.89.449,6.626-.69,6.626-.69a70.518,70.518,0,0,1,7.447-.69,7.594,7.594,0,0,1,2.526.276,3.382,3.382,0,0,1,2.436,2.147,4.438,4.438,0,0,0,.766,2.927C856.692,570.41,856.257,571.107,856.257,571.107Z" transform="translate(-295.773 -274.024)" fill="#ff6484"/>
    <path id="Tracé_789" data-name="Tracé 789" d="M808.367,558.134l-2.485,2.071s-.49-.386-1.139-.973c-.2-2.147,1.629-2.43,2.92-2.374Z" transform="translate(-288.605 -271.998)" opacity="0.1"/>
    <path id="Tracé_790" data-name="Tracé 790" d="M823.071,564.442l-1.084.062s-2.547.318-3.375-.449-3.755-1.015-3.755-1.015a6.34,6.34,0,0,0-1.719-2.167c-.89-.511-3.058-1.463-3.12-1.974a4.6,4.6,0,0,0-.828-1.463s-4.776-1.146-4.072,2.609,4.583,7.006,4.583,7.006.449,2.071,1.912,2.609,10.947,4.97,12.479,3.824S823.071,564.442,823.071,564.442Z" transform="translate(-288.704 -272.128)" fill="#ff6484"/>
    <path id="Tracé_791" data-name="Tracé 791" d="M856.493,568.745a4.438,4.438,0,0,1-.766-2.926,3.382,3.382,0,0,0-2.437-2.147,6.526,6.526,0,0,0-1.235-.242,3.382,3.382,0,0,1,2.4,2.133,4.383,4.383,0,0,0,.766,2.927c1.015,1.656.573,2.36.573,2.36l-1.7,3.506-1.919,3.962-.269.566-2.271,4.907L846.754,590s1.015,1.208.69,2.167-.759.5-.821.449c.055.076.69.9.124,1.27a1.222,1.222,0,0,0-.387,1.208,43.476,43.476,0,0,1,2.8,5.287c.442,1.4-7.13,2.609-7.13,2.609s-7.475,3.313-11.513,3.058c3.451,1.346,12.79-2.8,12.79-2.8s7.592-1.208,7.13-2.609a46.65,46.65,0,0,0-2.8-5.287,1.208,1.208,0,0,1,.38-1.208c.552-.366-.069-1.194-.117-1.27.055.055.525.442.821-.449s-.69-2.167-.69-2.167l2.885-6.212,2.271-4.907.276-.566,1.912-3.948,1.7-3.513S857.514,570.4,856.493,568.745Z" transform="translate(-296.595 -274.036)" opacity="0.1"/>
    <path id="Tracé_792" data-name="Tracé 792" d="M863.891,573.19l1.146.953a5.252,5.252,0,0,0,.959,1.726c.635.69,2.354,7.634,2.354,7.634a1.235,1.235,0,0,0,0,1.022c.255.511-.511,1.277-.511,1.277s-.38-.131.255.573-.573,1.525-.573,1.525-5.218,8.911-6.3,9.87a12.785,12.785,0,0,0-2.167,3.451s-2.264-3.562-2.8-3.63l2.229-5.032s1.525-7,2.671-8.283-.573-5.667-.573-5.667Z" transform="translate(-304.566 -277.059)" fill="#ff6484"/>
    <path id="Tracé_793" data-name="Tracé 793" d="M857.931,583.144a4.676,4.676,0,0,1-4.141,1.222,3.584,3.584,0,0,1-.656-.1c-.324-.062-.649-.138-.966-.228a10.073,10.073,0,0,1-3.161-1.553,1.986,1.986,0,0,0-.69-.407,1.491,1.491,0,0,0-1.5.808c-.324.518-.476,1.125-.808,1.643a3.79,3.79,0,0,1-3.127,1.532,11.044,11.044,0,0,1-3.548-.69,10.546,10.546,0,0,0,2.278-3.776,9.136,9.136,0,0,0,.18-2.844c-.276-4.507-1.843-9.256-5.522-11.879a4.127,4.127,0,0,1-1.615-1.677c1.022-.29,2.713-.69,3.313-.393.89.449,6.626-.69,6.626-.69a70.533,70.533,0,0,1,7.447-.69,7.6,7.6,0,0,1,2.526.276,15.875,15.875,0,0,0-.207,5.7,12.977,12.977,0,0,0,1.256,3.354c.331.628.69,1.256,1.028,1.884a13.838,13.838,0,0,1,2.071,5.446,4.2,4.2,0,0,1-.78,3.058Z" transform="translate(-297.874 -274.03)" opacity="0.1"/>
    <path id="Tracé_794" data-name="Tracé 794" d="M848.6,604.885a4.39,4.39,0,0,1,1.491-.131,2.761,2.761,0,0,1,1.118.649h-3.272c-.842,0-2.112.048-2.761-.545C845.746,604.285,847.775,604.982,848.6,604.885Z" transform="translate(-301.136 -286.799)" opacity="0.1"/>
    <path id="Tracé_795" data-name="Tracé 795" d="M833.287,537.909a4.928,4.928,0,0,0-.566,4.79c.525,1.235,1.532,2.195,2.153,3.382a6.108,6.108,0,0,1-.207,5.9,2.829,2.829,0,0,0-.511,1.056c-.152.973.856,1.67,1.656,2.236,3.672,2.623,5.239,7.372,5.522,11.879a8.935,8.935,0,0,1-.173,2.844,10.485,10.485,0,0,1-2.278,3.776,11.208,11.208,0,0,0,3.548.69,3.817,3.817,0,0,0,3.127-1.539c.331-.511.483-1.118.808-1.643a1.484,1.484,0,0,1,1.5-.808,2.07,2.07,0,0,1,.69.407,9.995,9.995,0,0,0,4.783,1.877,4.673,4.673,0,0,0,4.141-1.222,4.238,4.238,0,0,0,.78-3.078c-.331-3.858-3.6-6.9-4.348-10.685-.614-3.071.49-6.212.69-9.332.3-4.624-1.38-9.132-3.03-13.459a15,15,0,0,0-1.449-3.065,8.586,8.586,0,0,0-6.212-3.451,5.888,5.888,0,0,0-2.685.269,8.241,8.241,0,0,0-2.305,1.574,15.891,15.891,0,0,0-4.141,4.68c-.373.773-.614,1.6-1.028,2.347" transform="translate(-297.16 -263.189)" fill="#925978"/>
    <g id="Groupe_74" data-name="Groupe 74" transform="translate(535.176 268.694)" opacity="0.1">
      <path id="Tracé_796" data-name="Tracé 796" d="M835.447,537.781c.407-.752.69-1.581,1.022-2.347a9.663,9.663,0,0,1,1.325-1.995,11.229,11.229,0,0,0-2.34,3.078c-.359.752-.6,1.553-.994,2.285l.5-.428a5.3,5.3,0,0,0-.352.552,5.942,5.942,0,0,0,.835-1.146Z" transform="translate(-832.991 -533.44)"/>
      <path id="Tracé_797" data-name="Tracé 797" d="M861.048,590.068a10.042,10.042,0,0,1-4.783-1.884,2.328,2.328,0,0,0-.69-.407,1.512,1.512,0,0,0-1.5.815,3.187,3.187,0,0,0-.179.338,1.056,1.056,0,0,1,.69-.062,2.07,2.07,0,0,1,.69.407,9.994,9.994,0,0,0,4.783,1.877,4.673,4.673,0,0,0,4.141-1.222,2.755,2.755,0,0,0,.318-.476,5.321,5.321,0,0,1-3.465.614Z" transform="translate(-839.01 -550.27)"/>
      <path id="Tracé_798" data-name="Tracé 798" d="M843.429,577.4a11.2,11.2,0,0,1-3.541-.69,10.6,10.6,0,0,0,2.271-3.782,8.891,8.891,0,0,0,.179-2.837c-.276-4.507-1.836-9.263-5.522-11.879-.8-.573-1.8-1.27-1.657-2.243a3.07,3.07,0,0,1,.518-1.056,6.094,6.094,0,0,0,.207-5.894c-.621-1.187-1.629-2.154-2.16-3.382a4.977,4.977,0,0,1,.221-4.245,6.708,6.708,0,0,1-.559.525,6.124,6.124,0,0,1-.462.566,4.935,4.935,0,0,0-.214,4.238c.525,1.235,1.532,2.195,2.154,3.382a6.109,6.109,0,0,1-.207,5.9,2.829,2.829,0,0,0-.511,1.056c-.152.973.856,1.67,1.656,2.236,3.672,2.623,5.239,7.371,5.522,11.879a8.934,8.934,0,0,1-.173,2.844,10.485,10.485,0,0,1-2.278,3.776,11.207,11.207,0,0,0,3.548.69,3.817,3.817,0,0,0,3.127-1.539c.041-.069.083-.138.117-.207a4.335,4.335,0,0,1-2.236.663Z" transform="translate(-832.332 -535.903)"/>
    </g>
    <path id="Tracé_799" data-name="Tracé 799" d="M110.943,672.1a9.738,9.738,0,0,1-4.017-1.47l-.124-.09a1.331,1.331,0,0,0,.207-.476,2.333,2.333,0,0,1-.262-1.063,2.444,2.444,0,0,0-.207-1.021v-1.726a3.175,3.175,0,0,1-.58-1.981c-.048-1.429-.1-8.441-.1-8.441a3.285,3.285,0,0,1-.048-1.118c.048-.814.048-1.118.048-1.118a3.078,3.078,0,0,1-.152-1.477,1.9,1.9,0,0,0-.373-1.318l.787-3.865s.435-13.335-.835-17.359h0v-.048c.1-2.588-1.47-6.9-.58-9.911s1-3.658,1-3.658-3.934-9.863-4.928-12.2a30.281,30.281,0,0,0-2.071-4.39q-.1-.131-.186-.248l-.1-.124a2.671,2.671,0,0,0,.38-1.173c.055-.69-.048-1.56.483-2.071a4.26,4.26,0,0,1,.649-.435,2.581,2.581,0,0,0,1.146-2.485,4.19,4.19,0,0,0-1.042-2.022,6.212,6.212,0,0,0,.09-1.021,5.687,5.687,0,0,0-1.8-4.141h0v-.318a3.258,3.258,0,0,0-.628-1.96l.145.1-.248-.214a1.843,1.843,0,0,0-.407-.318,7.7,7.7,0,0,0-8.007-.414,4.39,4.39,0,0,0-1.56,1.38c-.821,1.27-.614,2.906-1.042,4.348a13.815,13.815,0,0,1-2.188,3.706,5.424,5.424,0,0,0-1.173,4.024c.221,1.022.939,1.933.925,2.968a2.34,2.34,0,0,1-2.071,2.181h-.311a7.592,7.592,0,0,0,3.382,1.077,1.435,1.435,0,0,1-.076.283c-.939,3.644-1.8,8.283-1.8,8.283a22.467,22.467,0,0,1-.628,8.338c-1.208,3.658-1.049,11.188-1.049,11.188s3.354-1.732,3.568-.614,0,1.422,0,1.422a15.823,15.823,0,0,0,1.491.69v.449l-.152,2a2.216,2.216,0,0,0,.186,1.215,4.787,4.787,0,0,1,0,2.071s-.248.152,0,.87a2.947,2.947,0,0,1-.193,1.726s-.3,3.81-.352,4.624a16.068,16.068,0,0,1-1.049,3.1s.9,1.118,0,1.277-.994,1.518-.994,1.518-1.049.87-1.049,1.173a24.068,24.068,0,0,0-5.915,12.6s-1.1,1.015-.946,1.981c.09.545-.09.732-.262.794.193,0,.407.152.311.628-.152.814-.573,2.54-.573,2.54h.076a9.247,9.247,0,0,0-2.305,4.141v.18l-.483,1.056,4.141,1.829.366-.559a8.974,8.974,0,0,0,3.934,2.54,5.344,5.344,0,0,0,1.1.124,9.8,9.8,0,0,0,3.41-.69s1.518-1.877-2.416-2.236c0,0-2.305-2.644-2.071-3.762a13.207,13.207,0,0,0,.145-1.422v-.3l.269.041.048-.856a.69.69,0,0,0,.159-.511c0-.352-.318-.407,0-.607s.311,0,.311-.5-.207-.359.262-.87-.048-1.422-.048-1.422a2.588,2.588,0,0,0,1.028-1.836c-.048-1.063,3.513-7.827,4.245-8.083s.787-1.581.787-1.581,1,.207,1.311,0a11.732,11.732,0,0,0,1.311-1.781s3.983-10.063,4.038-13.873l.262-.863s1.518,1.981,1.3,3.4A2.889,2.889,0,0,0,98,644.367v4.321a12.688,12.688,0,0,1,.248,2.285c-.048.69.621,1.422.366,2.036a3.451,3.451,0,0,0,0,1.677s-.055,1.422,0,1.829-.207,5.08,1.16,7.116a3.276,3.276,0,0,1,0,2.437c-.573.966.518,1.933.518,1.933a1.779,1.779,0,0,0,0,1.933,2.464,2.464,0,0,1,.49,1.8,5.063,5.063,0,0,0,0,3.334h0l.124,1.456,4.017-.311v-.808a14.959,14.959,0,0,0,5.294.331,5.018,5.018,0,0,0,3.506-1.912S115.34,671.031,110.943,672.1Z" transform="translate(-61.91 -279.664)" fill="url(#linear-gradient-2)"/>
    <path id="Tracé_800" data-name="Tracé 800" d="M125.2,712.982a4.832,4.832,0,0,1-3.41,1.891,13.888,13.888,0,0,1-5.115-.338v.815l-3.879.3-.117-1.449h0a5.359,5.359,0,0,1,.035-3.368,10.871,10.871,0,0,1,.476-1.436s3.341-2.837,4.452-.69a3.45,3.45,0,0,0,.98,1.118,9.271,9.271,0,0,0,3.879,1.463C126.77,710.2,125.2,712.982,125.2,712.982Z" transform="translate(-74.141 -318.792)" fill="#ff6484"/>
    <path id="Tracé_801" data-name="Tracé 801" d="M116,710.911s0,2.63,1.919,2.581,2.181-1.049,1.574-1.726a8.129,8.129,0,0,1-1.063-1.567Z" transform="translate(-75.25 -319.503)" opacity="0.1"/>
    <path id="Tracé_802" data-name="Tracé 802" d="M86.39,718.484a9.222,9.222,0,0,1-3.285.69,5.449,5.449,0,0,1-1.063-.117,8.563,8.563,0,0,1-3.8-2.533l-.352.559-4-1.822.456-1.063v-.186a9.246,9.246,0,0,1,2.223-4.1c.476-.552.849-.911.849-.911l4.832.69v1.38a11.677,11.677,0,0,1-.138,1.422c-.2,1.111,2.022,3.741,2.022,3.741C87.86,716.592,86.39,718.484,86.39,718.484Z" transform="translate(-62.205 -319.131)" fill="#ff6484"/>
    <path id="Tracé_803" data-name="Tracé 803" d="M77.958,705.695a.477.477,0,0,1-.248,0A.691.691,0,0,1,77.958,705.695Z" transform="translate(-63.388 -318.104)" fill="#444053"/>
    <path id="Tracé_804" data-name="Tracé 804" d="M83.383,709.732v1.38l-5.653-.9a.985.985,0,0,1,.062-.29,10.041,10.041,0,0,1,.814-.918Z" transform="translate(-63.394 -319.131)" opacity="0.1"/>
    <path id="Tracé_805" data-name="Tracé 805" d="M118.763,709.8c-.856,1.981-5.943,1.512-5.943,1.512a2.278,2.278,0,0,0,.035-.483,10.866,10.866,0,0,1,.476-1.436s3.341-2.837,4.452-.69a3.451,3.451,0,0,0,.98,1.1Z" transform="translate(-74.264 -318.789)" opacity="0.1"/>
    <path id="Tracé_806" data-name="Tracé 806" d="M107.985,690.974c-.5,2.271-6.026,1.767-6.026,1.767a2.582,2.582,0,0,0-.456-1.919,1.767,1.767,0,0,1,0-1.926s-1.063-.959-.5-1.926a3.331,3.331,0,0,0,0-2.43c-1.311-2.022-1.063-6.681-1.118-7.082s0-1.822,0-1.822a3.52,3.52,0,0,1,0-1.67c.248-.607-.4-1.318-.345-2.022a13.273,13.273,0,0,0-.214-2.257v-4.3a2.892,2.892,0,0,1-1.118-2.43c.2-1.422-1.27-3.389-1.27-3.389l-.248.856c-.055,3.8-3.9,13.8-3.9,13.8A11.894,11.894,0,0,1,91.523,676c-.3.207-1.263,0-1.263,0s-.055,1.318-.759,1.567-4.141,6.985-4.1,8.048a2.609,2.609,0,0,1-1.015,1.877s.5.911.048,1.415-.248.352-.248.863,0,.3-.3.5,0,.255,0,.607a.731.731,0,0,1-.152.5l-.048.849-5.922-.946s.4-1.726.552-2.533c.09-.476-.117-.6-.3-.628.166-.062.338-.248.255-.787-.152-.966.911-1.974.911-1.974a24.247,24.247,0,0,1,5.618-12.6c0-.3,1.008-1.167,1.008-1.167s.1-1.38.966-1.518,0-1.263,0-1.263a16.627,16.627,0,0,0,1.008-3.085c.055-.808.338-4.6.338-4.6A3.016,3.016,0,0,0,88.3,659.4c-.235-.69,0-.863,0-.863a4.792,4.792,0,0,0,0-2.071,2.284,2.284,0,0,1-.173-1.215l.138-1.988.214-2.968s15.737-2.685,17.456-.511a2.623,2.623,0,0,1,.407.89c1.229,4,.808,17.255.808,17.255l-.759,3.844a1.9,1.9,0,0,1,.359,1.311,3.155,3.155,0,0,0,.152,1.47s0,.3-.055,1.111a3.362,3.362,0,0,0,.055,1.118s.048,6.978.1,8.4a3.258,3.258,0,0,0,.559,1.974v1.719a2.5,2.5,0,0,1,.2,1.015A2.381,2.381,0,0,0,107.985,690.974Z" transform="translate(-63.403 -300.525)" fill="#444053"/>
    <path id="Tracé_807" data-name="Tracé 807" d="M83.1,721.4a5.454,5.454,0,0,1-1.063-.117,8.563,8.563,0,0,1-3.8-2.533l-.352.559-4-1.822.456-1.063v-.186l4.141,2.071A19.058,19.058,0,0,1,83.1,721.4Z" transform="translate(-62.205 -321.374)" opacity="0.1"/>
    <path id="Tracé_808" data-name="Tracé 808" d="M121.911,717.7a13.887,13.887,0,0,1-5.115-.338v.814l-3.879.3-.117-1.449c1.229,0,3.21.048,4.065,0a18.854,18.854,0,0,1,5.046.669Z" transform="translate(-74.258 -321.618)" opacity="0.1"/>
    <path id="Tracé_809" data-name="Tracé 809" d="M80.655,703.808a1.568,1.568,0,0,1,.594.076,4.7,4.7,0,0,1,.566.407,2.762,2.762,0,0,1,.38.248c.145.145.207.359.352.5.276.269.69.214,1.077.338.041,0,.083,0,.09.076a.1.1,0,0,1-.062.1.607.607,0,0,1-.587,0,2.267,2.267,0,0,1-.483-.373,3.228,3.228,0,0,0-.953-.587c-.476-.193-1.3-.242-1.608-.69A1.38,1.38,0,0,1,80.655,703.808Z" transform="translate(-64.104 -317.521)" opacity="0.1"/>
    <path id="Tracé_810" data-name="Tracé 810" d="M80.093,705.337a1.476,1.476,0,0,1,.3.124l.518.262a1.912,1.912,0,0,1-1.056-.235,2.181,2.181,0,0,1-.338-.159A1.6,1.6,0,0,1,80.093,705.337Z" transform="translate(-63.949 -317.987)" opacity="0.1"/>
    <path id="Tracé_811" data-name="Tracé 811" d="M80.929,706.622a1.314,1.314,0,0,1,.331,0,1.651,1.651,0,0,1,.538.324,2.119,2.119,0,0,0,1.339.462.588.588,0,0,1-.29.048H81.757a1.26,1.26,0,0,1-.359,0,1.754,1.754,0,0,1-.449-.166c-.186-.083-.952-.3-.959-.559S80.742,706.622,80.929,706.622Z" transform="translate(-64.094 -318.382)" opacity="0.1"/>
    <path id="Tracé_812" data-name="Tracé 812" d="M117.21,708.157a6.068,6.068,0,0,0,1,0,1.946,1.946,0,0,0,.994-.318c.29-.221.228-.456-.138-.469a2.631,2.631,0,0,0-1,.242,3.324,3.324,0,0,0-.469.242C117.528,707.922,117.279,708.164,117.21,708.157Z" transform="translate(-75.624 -318.626)" opacity="0.1"/>
    <path id="Tracé_813" data-name="Tracé 813" d="M118.358,709.31c0,.124-.159.193-.276.235a3.032,3.032,0,0,1-.89.2c-.076,0-.29,0-.262-.117s.345-.083.421-.1a7.289,7.289,0,0,0,1.008-.221Z" transform="translate(-75.537 -319.227)" opacity="0.1"/>
    <path id="Tracé_814" data-name="Tracé 814" d="M114.106,708.991a2.071,2.071,0,0,1,1.215.242.421.421,0,0,1-.414.221,1.73,1.73,0,0,1-.476-.124,2.8,2.8,0,0,0-.794-.117,2.061,2.061,0,0,1-.359,0c-.359-.062-.242-.2,0-.235a7.157,7.157,0,0,1,.828.014Z" transform="translate(-74.336 -319.122)" opacity="0.1"/>
    <path id="Tracé_815" data-name="Tracé 815" d="M93.656,679.954a3.141,3.141,0,0,0-1.726-.566,2.464,2.464,0,0,1,1.726.566Z" transform="translate(-67.793 -309.956)" opacity="0.1"/>
    <path id="Tracé_816" data-name="Tracé 816" d="M93.261,677.248a2.526,2.526,0,0,1,1.291.366l-.428-.124a4.237,4.237,0,0,0-.87-.179h-.5c-.166,0-.387-.048-.58-.055C92.508,677.255,92.888,677.234,93.261,677.248Z" transform="translate(-67.867 -309.293)" opacity="0.1"/>
    <path id="Tracé_817" data-name="Tracé 817" d="M95.191,678.477a.347.347,0,0,1,.345.235,6.414,6.414,0,0,0-1.125-.414c-.214-.069-.87-.359-1.022-.159C93.935,678.3,94.563,678.353,95.191,678.477Z" transform="translate(-68.245 -309.549)" opacity="0.1"/>
    <path id="Tracé_818" data-name="Tracé 818" d="M96.851,671.648a4.253,4.253,0,0,0,1.739-1.118,1.38,1.38,0,0,1-.642,1.132,3.451,3.451,0,0,1-1.27.476,5.7,5.7,0,0,0-1.3.393c-.2.1-.821.69-1.022.69s.152-.435.242-.5a8.609,8.609,0,0,1,2.257-1.07Z" transform="translate(-68.525 -307.214)" opacity="0.1"/>
    <path id="Tracé_819" data-name="Tracé 819" d="M114.8,681.53c-.214-.076-2.83.428-2.671-.076.1-.311.952-.193,1.16-.186a5.342,5.342,0,0,1,1.512.262Z" transform="translate(-74.048 -310.532)" opacity="0.1"/>
    <path id="Tracé_820" data-name="Tracé 820" d="M106.678,591.407a5.851,5.851,0,0,1-.138,1.263,5.784,5.784,0,1,1,.138-1.263Z" transform="translate(-68.778 -280.913)" fill="#fbbebe"/>
    <path id="Tracé_821" data-name="Tracé 821" d="M104.048,597.181s-1.87,5.466-.808,6.578-7.641,1.774-7.641,1.774,3.637-6.529,3.285-8.151S104.048,597.181,104.048,597.181Z" transform="translate(-68.93 -284.313)" fill="none" stroke="#6c63ff" stroke-miterlimit="10" stroke-width="1"/>
    <path id="Tracé_822" data-name="Tracé 822" d="M111.023,650.647a3.45,3.45,0,0,1,0,.38c-.1,2.581-4.707,7.793-5.77,6.9s-8.283-2.581-8.283-2.581-1.063-1.67-2.174-1.67a5.708,5.708,0,0,1-1.836-.469l.214-2.968s15.737-2.685,17.456-.511a2.623,2.623,0,0,1,.393.918Z" transform="translate(-68.112 -300.507)" opacity="0.1"/>
    <path id="Tracé_823" data-name="Tracé 823" d="M108.833,637.2c-.048,1.291-1.229,3.244-2.533,4.762s-2.706,2.6-3.237,2.167a5.118,5.118,0,0,0-1.256-.594c-2.4-.877-7.04-1.988-7.04-1.988s-1.063-1.67-2.174-1.67a10.383,10.383,0,0,1-3.244-1.111s.207-.3,0-1.415-3.451.607-3.451.607-.152-7.489,1.008-11.133a23.128,23.128,0,0,0,.607-8.283s.835-4.583,1.739-8.214c.545-2.174,1.118-4,1.553-4.286,1.166-.759,7.233,0,7.233,0a23.862,23.862,0,0,1,3.493.3,1.581,1.581,0,0,1,.732.594l.179.255a28.672,28.672,0,0,1,2.022,4.369c.966,2.326,4.763,12.141,4.763,12.141s-.1.69-.966,3.644S108.937,634.614,108.833,637.2Z" transform="translate(-65.922 -287.131)" fill="#65617d"/>
    <path id="Tracé_824" data-name="Tracé 824" d="M111.628,655.65l1.815,1.781s1.67,5.763-.5,5.253S108.95,659,108.95,659Z" transform="translate(-73.066 -302.604)" fill="#fbbebe"/>
    <path id="Tracé_825" data-name="Tracé 825" d="M116.455,625c-4.307-.048-5.418-6.074-5.418-6.074s-.3-5.97-.863-7.082a11.5,11.5,0,0,1-.5-3.354,28.672,28.672,0,0,1,2.022,4.369C112.659,615.185,116.455,625,116.455,625Z" transform="translate(-73.289 -287.995)" opacity="0.1"/>
    <path id="Tracé_826" data-name="Tracé 826" d="M116.675,624.34c-4.307-.048-5.418-6.074-5.418-6.074s-.3-5.97-.863-7.082a11.5,11.5,0,0,1-.5-3.354,28.672,28.672,0,0,1,2.022,4.369C112.879,614.525,116.675,624.34,116.675,624.34Z" transform="translate(-73.357 -287.79)" fill="#65617d"/>
    <path id="Tracé_827" data-name="Tracé 827" d="M105.939,609.542s-1.263-3.451-3.334,0a17.5,17.5,0,0,0-2.126,7.792l-.359,9.511a5.639,5.639,0,0,1,.635,1.974A10.58,10.58,0,0,0,102,631.58s.3,4,1.463,4.659l1.118,3.285s.048,2.174.808,3.037a2.54,2.54,0,0,1,.359,2.188l4.5-1.574s-.511.186,0-1.173a4.812,4.812,0,0,0-.3-3.134s-2.885-6.274-3.244-7.185a6.033,6.033,0,0,1-.69-3.037c.166-1.063.041-12.348.3-14.067A20.606,20.606,0,0,0,105.939,609.542Z" transform="translate(-70.33 -287.845)" opacity="0.1"/>
    <path id="Tracé_828" data-name="Tracé 828" d="M106.619,608.852s-1.263-3.451-3.341,0a17.607,17.607,0,0,0-2.126,7.793l-.352,9.511a5.736,5.736,0,0,1,.635,1.974,10.608,10.608,0,0,0,1.235,2.761s.3,4,1.47,4.652l1.111,3.292s.055,2.174.814,3.037a2.54,2.54,0,0,1,.359,2.188l4.493-1.574s-.5.186,0-1.18a4.865,4.865,0,0,0-.317-3.147s-2.878-6.274-3.237-7.185a6.032,6.032,0,0,1-.69-3.037c.166-1.063.041-12.348.3-14.074A21.022,21.022,0,0,0,106.619,608.852Z" transform="translate(-70.541 -287.632)" fill="#ff6484"/>
    <path id="Tracé_829" data-name="Tracé 829" d="M109.134,652.613a1.759,1.759,0,0,1,.552.166c.138.069.255.179.393.255a1.035,1.035,0,0,0,.518.138,5.983,5.983,0,0,1-.607,0,.96.96,0,0,1-.373-.048,1.533,1.533,0,0,1-.317-.2,1.925,1.925,0,0,0-.4-.228c-.11-.041-.228-.055-.269-.166A3.134,3.134,0,0,1,109.134,652.613Z" transform="translate(-72.966 -301.638)" opacity="0.1"/>
    <path id="Tracé_830" data-name="Tracé 830" d="M111.44,654.594c.193,0,.38-.041.573-.055a4.837,4.837,0,0,1,.835.041,2.292,2.292,0,0,1-1.318.235.76.76,0,0,0-.393,0c-.138.055-.552.525-.587.11S111.205,654.6,111.44,654.594Z" transform="translate(-73.561 -302.259)" opacity="0.1"/>
    <path id="Tracé_831" data-name="Tracé 831" d="M108.139,584.958l-.739-.538a1.147,1.147,0,0,1,.228.1,1.569,1.569,0,0,1,.414.324l.235.214Z" transform="translate(-72.585 -280.538)" opacity="0.1"/>
    <path id="Tracé_832" data-name="Tracé 832" d="M103.794,606.893a1.809,1.809,0,0,1-.621.752,1.25,1.25,0,0,1-.545.207,2.071,2.071,0,0,1-.814-.083,9.842,9.842,0,0,1-.994-.324,18.071,18.071,0,0,0-1.953-.69,3.12,3.12,0,0,0-2.913.594c-.642.649-.794,1.656-1.429,2.305-.856.87-2.25.814-3.451.642l-.283-.041c.545-2.174,1.118-4,1.553-4.286,1.166-.759,7.233,0,7.233,0a23.854,23.854,0,0,1,3.493.3,1.581,1.581,0,0,1,.725.621Z" transform="translate(-67.44 -287.109)" opacity="0.1"/>
    <path id="Tracé_833" data-name="Tracé 833" d="M95.16,591.4a5.763,5.763,0,0,1,9.794-4.141h0a10.61,10.61,0,0,0,.083,3,7.4,7.4,0,0,0,1.518,2.374,5.77,5.77,0,0,1-11.4-1.235Z" transform="translate(-68.794 -280.909)" opacity="0.1"/>
    <path id="Tracé_834" data-name="Tracé 834" d="M101.737,584.073a7.192,7.192,0,0,0-8.365-.939,4.293,4.293,0,0,0-1.5,1.38c-.794,1.263-.594,2.9-1.008,4.328a13.979,13.979,0,0,1-2.112,3.693,5.493,5.493,0,0,0-1.132,4c.214,1.015.911,1.926.9,2.961a2.292,2.292,0,0,1-2.223,2.181,7.475,7.475,0,0,0,3.382,1.091c1.208.173,2.6.228,3.451-.642.635-.649.787-1.656,1.429-2.305a3.12,3.12,0,0,1,2.913-.594c1.008.235,1.94.69,2.947.987a2.07,2.07,0,0,0,.814.083,1.982,1.982,0,0,0,1.436-1.946c.055-.69-.048-1.553.462-2.071a4.063,4.063,0,0,1,.628-.435,2.609,2.609,0,0,0,1.111-2.478c-.242-1.712-2.071-2.761-2.581-4.445a11.186,11.186,0,0,1-.083-3,2.566,2.566,0,0,0-1.346-2.492" transform="translate(-66.046 -279.853)" fill="#444053"/>
    <path id="Tracé_835" data-name="Tracé 835" d="M104.734,593.888c-.235-1.712-2.071-2.761-2.581-4.445a11.477,11.477,0,0,1-.083-3,3.251,3.251,0,0,0-.607-1.953l.145.1c-.076-.076-.159-.145-.242-.214a1.934,1.934,0,0,0-.393-.318l-.262-.179.138.131-.145-.1a3.237,3.237,0,0,1,.607,1.953,10.554,10.554,0,0,0,.083,3c.49,1.663,2.347,2.761,2.581,4.452a2.616,2.616,0,0,1-1.111,2.478,4.059,4.059,0,0,0-.628.435c-.511.511-.407,1.38-.462,2.071-.069.87-.566,1.829-1.429,1.946a2.208,2.208,0,0,1-.821-.083c-1-.262-1.94-.752-2.947-.987a3.106,3.106,0,0,0-2.913.594c-.635.642-.794,1.657-1.429,2.305-.856.863-2.25.814-3.451.642a10.577,10.577,0,0,1-2.319-.532,1.494,1.494,0,0,1-.3,0,7.524,7.524,0,0,0,3.382,1.091c1.208.173,2.6.228,3.451-.642.635-.649.794-1.657,1.429-2.305a3.12,3.12,0,0,1,2.913-.594c1.008.235,1.946.69,2.947.987a2.069,2.069,0,0,0,.821.083,1.968,1.968,0,0,0,1.429-1.946c.055-.69-.048-1.553.462-2.071a4.059,4.059,0,0,1,.628-.435,2.609,2.609,0,0,0,1.111-2.457Z" transform="translate(-66.006 -280.371)" opacity="0.1"/>
    <path id="Tracé_836" data-name="Tracé 836" d="M118.253,714.83c1.1,3.679-13.742,6.06-31.225,5.384-15.675-.6-27.968-3.486-28.872-6.5s9.78-5.473,25.269-5.522C100.7,708.19,117.149,711.151,118.253,714.83Z" transform="translate(-57.314 -318.88)" fill="#6c63ff" opacity="0.1"/>
  </g>
</svg>
