<svg xmlns="http://www.w3.org/2000/svg" width="617.417" height="327.601"><defs><linearGradient id="a" x1=".5" y1="1" x2=".5" gradientUnits="objectBoundingBox"><stop offset="0" stop-color="gray" stop-opacity=".251"/><stop offset=".54" stop-color="gray" stop-opacity=".122"/><stop offset="1" stop-color="gray" stop-opacity=".102"/></linearGradient></defs><g data-name="Groupe 178" transform="translate(0 -.051)"><path data-name="Tracé 940" d="M26.181 44.837c1 6.346 3.557 12.476 3.579 18.895.083 20.973-25.364 33.855-29.259 54.462-2.312 12.226 3.679 24.719 12.126 33.839s19.217 15.694 29.137 23.2a186.576 186.576 0 0 1 61.125 80.859c2.506 6.446 4.663 13.093 5.374 19.973.517 5 .272 10.12 1.445 15 4.64 19.39 28.17 26.914 48.065 28.17a210.789 210.789 0 0 0 93.774-15.665c6.669-2.779 13.554-5.935 20.712-5.152 5.724.628 10.831 3.723 15.855 6.541a210.306 210.306 0 0 0 46.896 19.311c9.058 2.5 18.567 4.4 27.82 2.779 27.787-4.9 42.552-38.6 69.817-45.97 18.862-5.1 38.49 3.807 55.406 13.582s34.378 21.034 53.906 21.062c26.053.033 47.471-19.684 65.143-38.823 3.707-4.018 7.475-8.219 9.242-13.393 3.584-10.5-2.223-22.3-10.809-29.359s-19.412-10.559-29.754-14.594a258.008 258.008 0 0 1-49.888-26.053c-10.114-6.78-19.912-14.449-26.831-24.452-5.952-8.625-9.525-18.623-13.515-28.315-8.747-21.223-21.118-42.791-41.774-52.75-16.866-8.136-36.456-7.225-55.179-7.441-27.587-.306-55.873-3.623-80.331-16.383-20.657-10.776-37.623-27.787-58.585-37.973-33.344-16.188-71.462-13.015-107.39-12.4-17.267.295-37.79 2.017-54.373-3.64C75.65 5.962 69.337-2.59 55.249.855 35.978 5.547 23.102 25.259 26.181 44.837z" fill="#6c63ff" opacity=".1"/><path data-name="Tracé 941" d="M603.555 382.951a13.893 13.893 0 0 1 .261-8.814c1.667-4.312 5.73-7.425 7.158-11.832 2.656-8.186-4.5-15.849-8.892-23.268a39.079 39.079 0 0 1-5.229-22.785c.684-8.536 4.179-16.7 4.446-25.258.239-7.975-2.345-15.733-4.9-23.291-2.106-6.246-4.251-12.565-7.814-18.111-6.735-10.487-18.7-17.078-31-18.167-5.807-.517-11.487 1.373-17.194.634-7.925-1.023-15.416-3.079-23.5-3.334-7.675-.228-16.161.745-21.39 6.369-4 4.307-5.274 10.526-8.931 15.127-5.191 6.53-14.266 8.769-20.006 14.816a20.99 20.99 0 0 0-4.74 20.245c.795 2.579 2.1 4.974 2.94 7.536 3.551 10.7-1.111 22.151-3.929 33.066a5 5 0 0 0-.167 2.779c.445 1.334 1.845 2.034 3.006 2.823 3.8 2.59 5.741 7.28 6.113 11.865s-.689 9.153-1.734 13.632c-2.662 11.387-5.991 23.585-14.766 31.16a80.166 80.166 0 0 0-5.635-10.981c-5.368-8.7-9.342-19.451-9.409-29.737a.387.387 0 0 1 0-.094c0-.556.028-1.111.061-1.667.695-12.137 5.941-23.846 5.824-35.928q0-1.467-.083-2.94c-.684-10.342-5.652-19.906-11.348-28.565-4.251-6.463-9.042-12.7-15.177-17.411-9.486-7.219-21.54-10.353-33.383-12.009s-22.618-3.212-34.555-4.012c-12.837-.861-26.964-1.345-37.112 6.558-13.232 10.3-13.966 30.2-24.052 43.6-6 7.969-15.561 14.127-18.723 23.18a55.976 55.976 0 0 1-2.134-6.808l-.1-.461a66.265 66.265 0 0 0 2.573-34.027 41.869 41.869 0 0 0 .383-5.557 21.884 21.884 0 0 0-.65-6.007c-1.428-5.413-5.368-9.742-9.175-13.849a40.636 40.636 0 0 0-4.5-4.363 65.976 65.976 0 0 0-112.5 65.576 17.272 17.272 0 0 1-4.651 10.148c-1.228 1.217-2.818 2.74-2.551 4.3a2.1 2.1 0 0 0 .178 1.306 3.656 3.656 0 0 0 1.111 1.217 20.006 20.006 0 0 0 13.61 4.057 56.907 56.907 0 0 0 22.918 29.42q0 .556-.039 1.078c0 .617-.05 1.228-.078 1.851v.256c0-.056-19.351 25.225-37.234 26.164-9.547.5-17.878 6.941-24.191 14.3-7.58 8.836-12.259 18.995-12.66 21.807-.739 5.157-5.9 30.221-5.9 30.221h148.574c-1.756 9.025-4.124 20.523-4.124 20.523h240.516a942.949 942.949 0 0 0-1.745-20.929h30.237l-.033.183h139.489l8.847-13.276c-2.195-38.692-25.014-59.96-52.311-62.316zm-347.277-43.214a36.033 36.033 0 0 0 10 3.6c1.517.311 3.212.506 4.507-.345a5.18 5.18 0 0 0 1.817-2.573l.067.167c3.751 9.447 7.224 19.195 7.9 29.343.061.956.1 1.912.106 2.873a41.557 41.557 0 0 1-3.507 16.816 324.159 324.159 0 0 1-36.268-22.227l-.784-.333c0 .061.272.756.595 1.928.078.283.161.595.245.928a120.757 120.757 0 0 1-2.151-7.864l-.217-.95a56.979 56.979 0 0 0 17.695-21.362z" transform="translate(-66.534 -185.349)" fill="url(#a)"/><path data-name="Tracé 947" d="M448.131 45.343c-7.552-.228-15.911.734-21.051 6.269-3.935 4.235-5.191 10.359-8.792 14.888-5.107 6.43-14.038 8.631-19.7 14.582a20.662 20.662 0 0 0-4.668 19.929c.784 2.534 2.062 4.9 2.9 7.413 3.5 10.559-1.067 21.8-3.89 32.544a4.9 4.9 0 0 0-.161 2.745c.433 1.312 1.817 2 2.956 2.779 3.74 2.551 5.652 7.163 5.991 11.67s-.678 9.008-1.706 13.415c-2.729 11.67-6.174 24.235-15.649 31.588-4 3.14-9.347 5.685-10.392 10.687-1.223 5.857 4.368 10.837 9.731 13.488 15.744 7.78 34.022 7.891 51.244 11.359 15.166 3.057 30.293 8.847 45.642 6.869 6.841-.878 13.382-3.284 19.856-5.668l40.313-14.855a10.488 10.488 0 0 0 3.168-1.595c2.428-2.023 2.512-5.869 1.189-8.742s-3.723-5.074-5.835-7.43c-4.6-5.152-8.1-12.426-5.591-18.862 1.667-4.246 5.641-7.308 7.047-11.67 2.612-8.058-4.446-15.6-8.725-22.907a38.463 38.463 0 0 1-5.146-22.4c.672-8.4 4.112-16.439 4.362-24.863.233-7.847-2.306-15.483-4.818-22.924-2.073-6.146-4.185-12.365-7.691-17.828-6.63-10.32-18.406-16.805-30.521-17.883-5.719-.506-11.3 1.35-16.922.628-7.808-.964-15.187-2.987-23.141-3.226z" fill="#f7d6c8"/><path data-name="Tracé 948" d="M459.407 265.863s-45.7-28.654-27.931-61.686a50.968 50.968 0 0 0 6.3-21.457 46.394 46.394 0 0 0 0-5.218v-.25q-.089-1.345-.239-2.645a53.857 53.857 0 0 0-13.321-28.8s75.807-22.124 63.114-2.178c-5.891 9.258-4.129 18.339-.183 27.737.417.989.861 1.99 1.323 2.984 4.557 9.909 10.881 20.173 12.648 31.3 3.626 22.851-41.711 60.213-41.711 60.213z" fill="#efb7b9"/><path data-name="Tracé 949" d="M487.332 143.624c-5.891 9.258-4.129 18.339-.183 27.737a51.222 51.222 0 0 1-49.627 3.268 53.78 53.78 0 0 0-13.3-28.826s75.809-22.129 63.11-2.179z" opacity=".1"/><circle data-name="Ellipse 473" cx="51.144" cy="51.144" r="51.144" transform="translate(408.257 76.158)" fill="#efb7b9"/><path data-name="Tracé 950" d="M437.778 177.523v-.25l.061-.1a1.662 1.662 0 0 0-.061.35z" opacity=".1"/><path data-name="Tracé 951" d="M459.407 265.863s-45.7-28.654-27.931-61.686a50.968 50.968 0 0 0 6.3-21.457c1.039 8.158 6.669 18.3 16.916 32.338 4.446 6.113 6.358 14.66 6.963 23.2l1.017.739 5-3.023c.556-9.447 2.467-18.995 6.991-25.764 11.887-17.783 14.71-26.675 13.832-35.889 4.557 9.909 10.881 20.173 12.648 31.3 3.601 22.88-41.736 60.242-41.736 60.242z" opacity=".1"/><path data-name="Tracé 952" d="M532.674 197.035c-27.231-1.978-44.458-23.118-44.458-23.118 1.45 9.9-.906 18.767-13.6 37.79-4.5 6.747-6.4 16.277-6.958 25.747l-5 3.023-1.017-.739c-.606-8.536-2.512-17.094-6.963-23.2-12.693-17.411-18.339-28.837-16.866-37.906 0 0-13.966 22.668-41.169 24.486s-50.055 21.04-52.239 56.223l8.7 11.97h85.844l-.033.183h137.262l8.736-13.076c-2.184-38.414-25.008-59.404-52.239-61.383z" fill="#6c63ff"/><path data-name="Tracé 953" d="M532.674 197.035c-27.231-1.978-44.458-23.118-44.458-23.118 1.45 9.9-.906 18.767-13.6 37.79-4.5 6.747-6.4 16.277-6.958 25.747l-5 3.023-1.017-.739c-.606-8.536-2.512-17.094-6.963-23.2-12.693-17.411-18.339-28.837-16.866-37.906 0 0-13.966 22.668-41.169 24.486s-50.055 21.04-52.239 56.223l8.7 11.97h85.844l-.033.183h137.262l8.736-13.076c-2.184-38.414-25.008-59.404-52.239-61.383z" opacity=".05"/><path data-name="Tracé 954" d="M493.979 102.583c-2.223 5.5-6.169 10.148-10.481 14.227-5.957 5.641-13.449 10.609-21.64 10.225a33.194 33.194 0 0 0 9.342-15.349c-5.168 3.012-9.075 7.78-14.01 11.176s-11.909 5.146-16.733 1.6a50.161 50.161 0 0 0 20.934-19.779c-11.715 3.04-17.728 16.233-28.281 22.157a32.083 32.083 0 0 1-16.4 3.7c-4.029-.083-8.519-1.023-10.765-4.368a12.406 12.406 0 0 1-1.667-6.741c-.245-10.659 4.1-21.118 10.781-29.415s15.561-14.6 25.052-19.5a34.633 34.633 0 0 1 10.664-3.89c4.679-.678 9.447.317 14.038 1.373 5.969 1.367 11.97 2.868 17.467 5.557 11.732 5.809 16.856 16.334 11.699 29.027z" opacity=".1"/><path data-name="Tracé 955" d="M493.979 101.855c-2.223 5.5-6.169 10.148-10.481 14.227-5.957 5.641-13.449 10.609-21.64 10.225a33.194 33.194 0 0 0 9.342-15.349c-5.168 3.012-9.075 7.78-14.01 11.176s-11.909 5.146-16.733 1.6a50.161 50.161 0 0 0 20.934-19.779c-11.715 3.04-17.728 16.233-28.281 22.157a32.083 32.083 0 0 1-16.4 3.7c-4.029-.083-8.519-1.023-10.765-4.368a12.406 12.406 0 0 1-1.667-6.741c-.245-10.659 4.1-21.118 10.781-29.415s15.561-14.6 25.052-19.5a34.633 34.633 0 0 1 10.664-3.89c4.679-.678 9.447.317 14.038 1.373 5.969 1.367 11.97 2.868 17.467 5.557 11.732 5.798 16.856 16.334 11.699 29.027z" fill="#f7d6c8"/><circle data-name="Ellipse 474" cx="64.926" cy="64.926" r="64.926" transform="translate(76.408 39.747)" fill="#c3705a"/><path data-name="Tracé 956" d="M199.552 229.629s-59.463 15.233-60.936 16.672-50.055 3.99-35.911-25.753c5.2-10.92 7.358-25.753 8.014-40.152.028-.611.056-1.217.078-1.823a296.586 296.586 0 0 0-2.284-46.531s68.911-27.231 63.837 14.149a86.456 86.456 0 0 0 2.084 30.36 120.418 120.418 0 0 0 2.668 9.5 161.942 161.942 0 0 0 22.45 43.578z" fill="#ecb4b6"/><path data-name="Tracé 957" d="M174.428 176.562a55.873 55.873 0 0 1-63.637 2.023 296.588 296.588 0 0 0-2.284-46.531s68.911-27.231 63.837 14.149a86.7 86.7 0 0 0 2.084 30.359z" opacity=".1"/><circle data-name="Ellipse 475" cx="55.857" cy="55.857" r="55.857" transform="translate(85.294 74.747)" fill="#ecb4b6"/><path data-name="Tracé 958" d="M199.552 229.629s-59.463 15.233-60.936 16.668-50.055 3.99-35.911-25.753c5.2-10.92 7.358-25.753 8.014-40.152.556 7.525 4.857 25.747 5.407 31.81a5.283 5.283 0 0 0 .211 1.045c.806 2.7 3.679 5.8 7.141 8.747l.206.172a26.492 26.492 0 0 0 31.2 2.084 140.687 140.687 0 0 0 14.2-10.237c6.469-5.341 8.486-12.537 8.736-18.895a40.453 40.453 0 0 0-.722-9.1 161.846 161.846 0 0 0 22.454 43.611z" opacity=".1"/><path data-name="Tracé 959" d="M274.637 271.709H31.96s5.079-24.663 5.8-29.743c.395-2.779 5-12.782 12.465-21.468 6.213-7.224 14.41-13.588 23.808-14.082 17.589-.922 36.634-25.753 36.634-25.753.422 7.224 4.879 26.092 5.441 32.282a5.286 5.286 0 0 0 .211 1.045c.806 2.7 3.679 5.8 7.141 8.747l.206.172a26.486 26.486 0 0 0 31.2 2.09 141.307 141.307 0 0 0 14.2-10.237c6.469-5.341 8.486-12.537 8.736-18.895a41.851 41.851 0 0 0-1.517-12.5 19.774 19.774 0 0 0-.589-1.9l.772.328s32.86 23.9 62.964 33.666a36 36 0 0 1 9.87 5 42.666 42.666 0 0 1 6.7 6.019 62.388 62.388 0 0 1 10 15.388 105.623 105.623 0 0 1 8.635 29.841z" fill="#6c63ff"/><path data-name="Tracé 960" d="M274.637 271.709H31.96s5.079-24.663 5.8-29.743c.395-2.779 5-12.782 12.465-21.468 6.213-7.224 14.41-13.588 23.808-14.082 17.589-.922 36.634-25.753 36.634-25.753.422 7.224 4.879 26.092 5.441 32.282a5.286 5.286 0 0 0 .211 1.045c.806 2.7 3.679 5.8 7.141 8.747l.206.172a26.486 26.486 0 0 0 31.2 2.09 141.307 141.307 0 0 0 14.2-10.237c6.469-5.341 8.486-12.537 8.736-18.895a41.851 41.851 0 0 0-1.517-12.5 19.774 19.774 0 0 0-.589-1.9l.772.328s32.86 23.9 62.964 33.666a36 36 0 0 1 9.87 5 42.666 42.666 0 0 1 6.7 6.019 62.388 62.388 0 0 1 10 15.388 105.623 105.623 0 0 1 8.635 29.841z" opacity=".05"/><path data-name="Tracé 961" d="M168.004 111.848c1.445 5.557 3.334 11.731 8.3 14.627a7.286 7.286 0 0 1 1.817 1.239c1.223 1.328.85 3.4.667 5.2-.634 6.18 2.023 12.443 6.38 16.872a31.708 31.708 0 0 0 16.339 8.38c1.489.306 3.162.5 4.446-.339a5.185 5.185 0 0 0 1.823-2.617c1.695-4.507.978-9.57-.439-14.171s-3.507-8.992-4.579-13.688c-2.551-11.142.828-22.657 2.351-33.989.506-3.768.8-7.652-.172-11.326-1.406-5.324-5.285-9.592-9.031-13.632a27.856 27.856 0 0 0-6.669-5.807c-7.636-4.174-17.467-.467-25.619-3.507-3.262-1.217-6.035-3.44-9.142-5-6.6-3.334-14.416-3.518-21.646-2s-14 4.635-20.712 7.725l-5.129 2.323c-7.225 3.334-14.966 7.1-18.856 14.077-4.14 7.425-2.99 16.928-7.13 24.352-1.256 2.223-3.007 4.357-3.334 6.913a13.786 13.786 0 0 0 .873 5.474c1.289 4.34 2.412 8.8 2.312 13.338s-1.545 9.181-4.757 12.371c-1.356 1.345-3.168 3.068-2.334 4.785a3.6 3.6 0 0 0 1.111 1.2 19.678 19.678 0 0 0 18.745 2.779 12.174 12.174 0 0 0 6.113-4.613 18.056 18.056 0 0 0 1.967-5.157c1.756-6.541 3.523-13.193 3.384-19.967-.078-3.89-.789-7.814-.222-11.67s2.818-7.83 6.569-8.892c2.779-.795 5.752.167 8.653.139 4.179-.033 9.3-4.668 13.176-3.307 3.334 1.178 5.974 7.558 8.731 10 6.985 6.24 16.744 9.505 26.014 7.888z" opacity=".1"/><path data-name="Tracé 962" d="M168.003 111.119c1.445 5.557 3.334 11.732 8.3 14.627a7.286 7.286 0 0 1 1.8 1.211c1.223 1.328.85 3.4.667 5.2-.634 6.18 2.023 12.443 6.38 16.872a31.708 31.708 0 0 0 16.339 8.38c1.489.306 3.162.5 4.446-.339a5.185 5.185 0 0 0 1.823-2.617c1.695-4.507.978-9.57-.439-14.171s-3.507-8.992-4.579-13.688c-2.551-11.142.828-22.657 2.351-33.989.506-3.768.8-7.652-.172-11.326-1.406-5.324-5.285-9.592-9.031-13.632a27.856 27.856 0 0 0-6.669-5.807c-7.636-4.174-17.467-.467-25.619-3.507-3.262-1.217-6.035-3.44-9.142-5-6.6-3.334-14.416-3.518-21.646-2s-14 4.635-20.712 7.725l-5.063 2.334c-7.225 3.334-14.966 7.1-18.856 14.077-4.14 7.425-2.99 16.928-7.13 24.352-1.256 2.223-3.007 4.357-3.334 6.913a13.786 13.786 0 0 0 .872 5.474c1.289 4.34 2.412 8.8 2.312 13.338s-1.545 9.181-4.757 12.371c-1.356 1.345-3.168 3.068-2.334 4.785a3.6 3.6 0 0 0 1.111 1.2 19.679 19.679 0 0 0 18.745 2.779 12.174 12.174 0 0 0 6.113-4.613 18.056 18.056 0 0 0 1.967-5.157c1.756-6.541 3.523-13.193 3.384-19.967-.078-3.89-.789-7.814-.222-11.67s2.818-7.83 6.569-8.892c2.779-.795 5.752.167 8.653.139 4.179-.033 9.3-4.668 13.176-3.307 3.334 1.178 5.974 7.558 8.731 10 6.938 6.266 16.697 9.528 25.966 7.905z" fill="#c3705a"/><path data-name="Rectangle 1820" fill="#463a3e" d="M226.755 134.843h127.318v109.179H226.755z"/><path data-name="Rectangle 1821" opacity=".05" d="M226.755 134.843h127.318v109.179H226.755z"/><path data-name="Tracé 963" d="M335.817 291.904H226.894c1.406-7.93 5.518-16.622 13.532-25.992a96.142 96.142 0 0 0 15.349-24.563q1.55-3.573 2.779-7.163a104.893 104.893 0 0 0 4.885-21.907 6.144 6.144 0 0 1 .072-.634 119.692 119.692 0 0 0 .678-15.516v-1.111a141.39 141.39 0 0 0-6.252-37.467l-.139-.433c-1.184-3.729-2.051-5.824-2.051-5.824s2.162-1.173 5.73-2.9l.3-.144c13.121-6.3 44.181-19.451 57.874-10.081l.222.15c4.79 3.412 7.369 9.675 6.157 20.106v.122a5.486 5.486 0 0 1-.061.556 201.868 201.868 0 0 0-1.039 21.64v1.112q0 2.54.056 5.146v.7c.111 5.613.361 11.409.711 17.289.483 8.153 1.173 16.455 1.967 24.6.339 3.484.706 6.947 1.111 10.353l.133 1.206c.467 4.151.95 8.219 1.445 12.165l.033.256c1.891 15.672 3.981 29.354 5.431 38.334z" fill="#c17174"/><path data-name="Tracé 964" d="M325.987 158.447v.122a199.863 199.863 0 0 0-1.107 22.228v1.111a53.022 53.022 0 0 1-60.714 14.271v-1.111a141.1 141.1 0 0 0-6.391-37.9c-1.184-3.729-2.051-5.824-2.051-5.824s2.162-1.173 5.73-2.9c12.993-6.28 44.7-19.84 58.38-10.1 4.78 3.403 7.359 9.671 6.153 20.103z" opacity=".1"/><circle data-name="Ellipse 476" cx="52.972" cy="52.972" r="52.972" transform="translate(231.757 93.247)" fill="#c17174"/><path data-name="Tracé 965" d="M287.536 291.543H174.528s5.079-24.663 5.8-29.743c.395-2.779 5-12.782 12.465-21.468a54.828 54.828 0 0 1 33.722-11.965c21.612-.322 27.9 7.119 29.609 12.621a12.321 12.321 0 0 1 .445 5.719l4.09 5.924z" opacity=".1"/><path data-name="Tracé 966" d="M287.177 291.905h-113.01s5.079-24.663 5.8-29.743c.395-2.779 5-12.782 12.465-21.468a54.829 54.829 0 0 1 33.722-11.965c21.612-.322 27.9 7.119 29.609 12.621a12.321 12.321 0 0 1 .445 5.719l4.09 5.924z" fill="#6c63ff"/><path data-name="Tracé 967" d="M410.536 291.547H292.132c5.646-12.015 20.445-44.047 21.268-51.455.317-2.868 3.373-5.557 7.419-7.841a42.154 42.154 0 0 1 3.94-1.99l.245-.111q1.111-.489 2.251-.906a45.1 45.1 0 0 1 31.677.25c9.72 3.7 22.229 8.675 31.966 13.338l.078.039c2.5 1.2 4.829 2.373 6.88 3.5 4.1 2.251 7.1 4.307 8.247 5.952.528.756 1.111 4.162 1.751 9.447.848 7.143 1.776 17.747 2.682 29.777z" opacity=".1"/><path data-name="Tracé 968" d="M410.897 291.905H292.493c5.646-12.015 20.445-44.047 21.268-51.455.317-2.868 3.373-5.557 7.419-7.841a42.192 42.192 0 0 1 3.94-1.99l.245-.111q1.111-.489 2.251-.906a45.1 45.1 0 0 1 31.677.25c9.72 3.7 22.229 8.675 31.966 13.338l.078.039c2.5 1.2 4.829 2.373 6.88 3.5 4.1 2.251 7.1 4.307 8.247 5.952.528.756 1.111 4.162 1.751 9.447.854 7.147 1.776 17.756 2.682 29.777z" fill="#6c63ff"/><path data-name="Tracé 969" d="M391.843 233.802q0 2.562-.139 5.129-.078 1.25-.189 2.5c-.05.6-.111 1.195-.172 1.789l-.078.689c-.906 8.08-2.579 16.116-2.779 24.235v1.15a101.145 101.145 0 0 0 2.868 22.607h-68.19a45.136 45.136 0 0 1-.15-4.151 36.435 36.435 0 0 1 .206-3.723c1.05-10.231 6.28-19.806 7.069-29.971l.033-.467c.05-.761.078-1.528.067-2.3v-.206a39.29 39.29 0 0 0-1.539-9.925l-.133-.483a99.987 99.987 0 0 0-3.334-9.447l-.245-.617c-1.851-4.624-3.8-9.208-5.113-13.8a36.729 36.729 0 0 1-1.606-10.559c0-.639.039-1.278.089-1.917.044-.522.106-1.045.183-1.573a24.638 24.638 0 0 1 .489-2.451c1.111-4.379 3.484-8.486 5.757-12.554 2.529-4.529 4.94-9.008 5.374-13.771a15.913 15.913 0 0 0 .061-1.812 15.963 15.963 0 0 0-.222-2.323c-.583-3.379-2.323-6.419-3.751-9.536a48.637 48.637 0 0 1-.428-.956c0-.05-.044-.1-.061-.15-2.779-6.419-4.39-13.265-6.085-20.079a43.27 43.27 0 0 0-.222-.878 240.27 240.27 0 0 0-1.3-5c-2.49-9.092-6.035-18.278-12.782-24.841s-17.505-9.886-25.953-5.707c-7.308 3.64-11.265 11.787-13.049 19.745s-1.928 16.266-4.246 24.091q-.25.856-.556 1.706c-.1.289-.2.556-.3.872a87.327 87.327 0 0 1-3.546 8.43l-.139.295c-4.224 8.986-9.131 17.817-9.286 26.847v.845a23.289 23.289 0 0 0 .967 6.335 31.568 31.568 0 0 0 5.468 10q.695.906 1.423 1.8c2.334 2.868 4.868 5.646 7.086 8.6l.072.094a35.156 35.156 0 0 1 4.24 7.074 25.825 25.825 0 0 1 .111 19.951 37.493 37.493 0 0 1-2.162 4.257c-1.428 2.467-3 4.868-4.24 7.436a27.764 27.764 0 0 0-1.111 2.629c-2.779 7.158-3.379 15.077-5.646 22.463a51 51 0 0 1-8.075 15.722h-72.246c.839-4.107 5-24.452 5.657-29.02.395-2.779 5-12.782 12.465-21.468-.628.495-1.234.995-1.817 1.495a61.82 61.82 0 0 0-12.1 13.927c.161-.5.328-1.006.495-1.506 1.017-3.034 2.117-6.041 3.234-9.008 3.234-8.547 6.835-17.267 13.282-23.746 3.64-3.657 8.069-6.474 11.537-10.292 6.113-6.719 8.642-16.027 8.569-25.152 0-.945-.039-1.884-.1-2.823-.661-10-4.079-19.578-7.78-28.9-1.99-5-4.1-10.259-4.007-15.561a17.341 17.341 0 0 1 .161-2.223c1.528-10.987 12.643-17.567 19.317-26.431C233.171 98 233.894 78.4 246.915 68.274c10-7.78 23.9-7.3 36.528-6.458 11.748.789 22.352 2.317 34.011 3.951s23.491 4.7 32.844 11.887c6.041 4.635 10.753 10.776 14.938 17.139 5.6 8.525 10.5 17.939 11.17 28.114.05.728.078 1.45.078 2.167.117 11.893-5.046 23.419-5.73 35.361a42.18 42.18 0 0 0-.056 1.667.374.374 0 0 0 0 .089c-.122 10.353 3.851 21.223 9.258 30.01a80.487 80.487 0 0 1 11.887 41.601z" opacity=".1"/><path data-name="Tracé 970" d="M391.842 233.802c0 1.467-.056 2.94-.139 4.4q-.078 1.25-.189 2.5t-.25 2.479c-.906 8.08-2.579 16.116-2.779 24.235v1.873a104.4 104.4 0 0 0 3.029 22.607h-68.289a49.579 49.579 0 0 1-.217-4.151 39.745 39.745 0 0 1 .206-4.446c1.05-10.231 6.28-19.806 7.069-29.971.056-.745.094-1.489.1-2.223v-.522a39.758 39.758 0 0 0-1.662-10.615 99.986 99.986 0 0 0-3.334-9.447c-1.923-4.829-3.985-9.625-5.363-14.449a37.576 37.576 0 0 1-1.606-9.853 25.854 25.854 0 0 1 .089-2.645c.044-.522.106-1.045.183-1.573a24.627 24.627 0 0 1 .489-2.451c1.111-4.379 3.484-8.486 5.757-12.554 2.534-4.535 4.957-9.025 5.385-13.793.033-.361.05-.728.061-1.111a15.559 15.559 0 0 0-.222-3.051c-.583-3.379-2.323-6.419-3.751-9.536a48.637 48.637 0 0 1-.428-.956c-2.818-6.458-4.446-13.338-6.146-20.229a293.077 293.077 0 0 0-1.517-5.885c-2.49-9.092-6.035-18.278-12.782-24.841s-17.489-9.82-25.93-5.618c-7.308 3.64-11.265 11.787-13.049 19.745s-1.928 16.266-4.246 24.091c-.256.861-.556 1.723-.839 2.579-1.034 2.929-2.323 5.835-3.679 8.725-4.34 9.22-9.392 18.289-9.286 27.575v.117a23.29 23.29 0 0 0 .967 6.335 31.566 31.566 0 0 0 5.468 10q.695.906 1.423 1.795c2.362 2.9 4.924 5.707 7.158 8.7a35.158 35.158 0 0 1 4.24 7.074 25.825 25.825 0 0 1 .111 19.951 37.488 37.488 0 0 1-2.162 4.257c-1.428 2.467-3 4.868-4.24 7.436a27.771 27.771 0 0 0-1.111 2.629c-2.779 7.158-3.379 15.077-5.646 22.463a51.128 51.128 0 0 1-8.63 16.444h-71.918s5.079-24.663 5.8-29.743c.361-2.54 4.257-11.115 10.648-19.245.556-.745 1.189-1.489 1.817-2.223a62.27 62.27 0 0 0-13.415 14.638l-.495.778c1.156-3.551 2.429-7.058 3.734-10.514 3.234-8.547 6.836-17.267 13.282-23.746 3.64-3.657 8.069-6.474 11.537-10.292 5.935-6.541 8.5-15.56 8.569-24.452 0-1.189 0-2.373-.1-3.551-.661-10-4.079-19.578-7.78-28.9-1.9-4.79-3.89-9.781-4.007-14.86a18.06 18.06 0 0 1 .161-2.929c1.534-10.926 12.648-17.478 19.323-26.369 9.925-13.188 10.648-32.788 23.669-42.914 10-7.78 23.9-7.3 36.528-6.458 11.748.789 22.352 2.317 34.011 3.951s23.507 4.7 32.849 11.859c6.041 4.663 10.753 10.776 14.938 17.144 5.6 8.525 10.5 17.939 11.17 28.114q.1 1.45.078 2.9c-.094 11.631-5.063 22.935-5.73 34.639a33.922 33.922 0 0 0-.056 2.367.38.38 0 0 0 0 .089c.067 10.137 3.979 20.707 9.258 29.27a80.492 80.492 0 0 1 11.886 42.357z" fill="#463a3e"/></g></svg>