<svg xmlns="http://www.w3.org/2000/svg" xmlns:xlink="http://www.w3.org/1999/xlink" width="437.5" height="268.13" viewBox="0 0 437.5 268.13">
  <defs>
    <linearGradient id="linear-gradient" x1="0.5" y1="1" x2="0.5" gradientUnits="objectBoundingBox">
      <stop offset="0" stop-color="gray" stop-opacity="0.251"/>
      <stop offset="0.54" stop-color="gray" stop-opacity="0.122"/>
      <stop offset="1" stop-color="gray" stop-opacity="0.102"/>
    </linearGradient>
    <linearGradient id="linear-gradient-4" x1="3.038" y1="10.738" x2="3.038" y2="9.777" gradientUnits="objectBoundingBox">
      <stop offset="0" stop-opacity="0.122"/>
      <stop offset="0.55" stop-opacity="0.09"/>
      <stop offset="1" stop-opacity="0.02"/>
    </linearGradient>
  </defs>
  <g id="Groupe_269" data-name="Groupe 269" transform="translate(-445 -288)">
    <rect id="Rectangle_2065" data-name="Rectangle 2065" width="418.74" height="237.84" transform="translate(445 318.29)" fill="url(#linear-gradient)"/>
    <rect id="Rectangle_2066" data-name="Rectangle 2066" width="408.69" height="197.65" transform="translate(449.47 352.91)" fill="#fff"/>
    <rect id="Rectangle_2067" data-name="Rectangle 2067" width="141.81" height="149.63" transform="translate(477.38 369.66)" fill="url(#linear-gradient)"/>
    <path id="Tracé_1023" data-name="Tracé 1023" d="M0,0H134V142.93H0Z" transform="translate(481.85 373.01)" fill="#4c6cf6" opacity="0.8"/>
    <rect id="Rectangle_2069" data-name="Rectangle 2069" width="408.69" height="30.15" transform="translate(449.47 322.76)" fill="#4c6cf6" opacity="0.704"/>
    <rect id="Rectangle_2070" data-name="Rectangle 2070" width="155.21" height="10.05" transform="translate(670.56 414.88)" fill="#e0e0e0"/>
    <rect id="Rectangle_2071" data-name="Rectangle 2071" width="155.21" height="10.05" transform="translate(670.56 457.31)" fill="#f5f5f5"/>
    <rect id="Rectangle_2072" data-name="Rectangle 2072" width="91.56" height="10.05" transform="translate(669.45 436.1)" fill="#4c6cf6" opacity="0.2"/>
    <rect id="Rectangle_2073" data-name="Rectangle 2073" width="62.53" height="10.05" transform="translate(669.45 478.53)" fill="#42ba96" opacity="0.2"/>
    <rect id="Rectangle_2074" data-name="Rectangle 2074" width="62.53" height="10.05" transform="translate(743.14 478.53)" fill="#42ba96"/>
    <path id="Tracé_1017" data-name="Tracé 1017" d="M713.25,644.66v-5.07a32,32,0,1,0-16,0v5.07a31.12,31.12,0,0,0-23,29.94v14h62v-14a31.12,31.12,0,0,0-23-29.94Z" transform="translate(-158.75 -171.93)" fill="#fff"/>
    <circle id="Ellipse_507" data-name="Ellipse 507" cx="34" cy="34" r="34" transform="translate(512.5 398.54)" fill="#fff"/>
    <path id="Tracé_1018" data-name="Tracé 1018" d="M707.25,569c2.73-.68,5.59-1,8.14-2.18a13.29,13.29,0,0,0,7.53-11.87,23,23,0,0,1,3.37,6.66,7.17,7.17,0,0,1,.35,3.94,3.09,3.09,0,0,1-2.82,2.42c2.64.52,5.48,1,7.94-.06s4.08-4.45,2.41-6.56a20.089,20.089,0,0,1,3.74,5.35,6.8,6.8,0,0,1-.28,6.29c-1.51,2.26-4.55,2.9-7.27,2.85q3.59.22,7.2.18a6.92,6.92,0,0,0,3.88-.84c1.11-.76,1.68-2.46.8-3.48a16.16,16.16,0,0,1-2.93,17.57c-2.84,2.95-6.86,4.84-8.86,8.41-1.21,2.15-1.53,4.67-2.28,7a20.229,20.229,0,0,1-4.37,7.55,13.09,13.09,0,0,1-8.35,4.53c-4.47.34-8.6-2.48-11.66-5.76s-5.51-7.16-9-10c-5-4.1-12.26-5.07-16.95-9.37,2.69-5.06,8.69-10.07,13.06-13.76A41,41,0,0,1,707.25,569Z" transform="translate(-158.75 -171.93)" fill="#fff"/>
    <circle id="Ellipse_511" data-name="Ellipse 511" cx="46" cy="46" r="46" transform="translate(790.5 291.54)" fill="url(#linear-gradient)"/>
    <circle id="Ellipse_514" data-name="Ellipse 514" cx="42" cy="42" r="42" transform="translate(794.5 295.54)" fill="#fff"/>
    <path id="Tracé_1021" data-name="Tracé 1021" d="M878.53,297.18,863.8,288l-28.31,45.15-19.13-11.76-9.52,15.24,27.8,16.82h0l6.92,4.42Z" fill="url(#linear-gradient-4)"/>
    <path id="Tracé_1022" data-name="Tracé 1022" d="M877.51,297.03l-13.34-8.1L836.18,335l-19.62-11.92-8.11,13.34,26.29,15.94h0l6.73,3.99Z" fill="#42ba96"/>
  </g>
</svg>
