<svg xmlns="http://www.w3.org/2000/svg" width="2039.208" height="1176.975"><g data-name="Groupe 4"><g data-name="Groupe 3"><g transform="translate(726)"><circle data-name="Ellipse 1" cx="297.337" cy="297.337" r="297.337" transform="translate(700.974 133.45)" fill="#f2f2f2"/><path data-name="Tracé 190" d="M161.318 0a113.55 113.55 0 1 1-113.55 113.55A113.55 113.55 0 0 1 161.318 0z" fill="#ee635d"/><circle data-name="Ellipse 3" cx="297.337" cy="297.337" r="297.337" transform="translate(67.669 15.218)" fill="#f2f2f2"/><ellipse data-name="Ellipse 4" cx="326.603" cy="17.559" rx="326.603" ry="17.559" transform="translate(24.356 591.163)" fill="#3f3d56"/><ellipse data-name="Ellipse 5" cx="244.66" cy="12.11" rx="244.66" ry="12.11" transform="translate(40.745 597.218)" opacity=".1"/><ellipse data-name="Ellipse 6" cx="326.603" cy="19.315" rx="326.603" ry="19.315" transform="translate(660.002 711.737)" fill="#3f3d56"/><ellipse data-name="Ellipse 7" cx="244.66" cy="13.321" rx="244.66" ry="13.321" transform="translate(676.391 718.397)" opacity=".1"/><ellipse data-name="Ellipse 8" cx="208.421" cy="10.536" rx="208.421" ry="10.536" transform="translate(260.884 675.448)" fill="#3f3d56"/><ellipse data-name="Ellipse 9" cx="100.56" cy="5.083" rx="100.56" ry="5.083" transform="translate(0 645.781)" fill="#3f3d56"/><ellipse data-name="Ellipse 10" cx="187.158" cy="9.461" rx="187.158" ry="9.461" transform="translate(928.357 799.438)" fill="#3f3d56"/><path data-name="Rectangle 1" fill="#3f3d56" d="M720.875 506.878h374.598v222.418H720.875z"/><circle data-name="Ellipse 11" cx="84.285" cy="84.285" r="84.285" transform="translate(757.164 536.144)" fill="#4c6cf6"/><path data-name="Rectangle 2" fill="#4c6cf6" d="M951.487 541.997h28.095v28.095h-28.095z"/><path data-name="Rectangle 3" fill="#4c6cf6" opacity=".5" d="M986.605 541.997h28.095v28.095h-28.095z"/><path data-name="Rectangle 4" fill="#4c6cf6" opacity=".2" d="M1021.724 541.997h28.095v28.095h-28.095z"/><path data-name="Rectangle 5" fill="#2f2e41" d="M951.487 577.116h28.095v28.095h-28.095z"/><path data-name="Rectangle 6" fill="#2f2e41" opacity=".5" d="M986.605 577.116h28.095v28.095h-28.095z"/><path data-name="Rectangle 7" fill="#2f2e41" opacity=".2" d="M1021.724 577.116h28.095v28.095h-28.095z"/><path data-name="Rectangle 8" fill="#ee635d" d="M951.487 612.234h28.095v28.095h-28.095z"/><path data-name="Tracé 191" d="M986.605 612.234h28.095v28.095h-28.095z" fill="#ee635d" opacity=".5"/><path data-name="Tracé 192" d="M1021.724 612.234h28.095v28.095h-28.095z" fill="#ee635d" opacity=".2"/><path data-name="Tracé 1" d="M841.445 536.144v168.569c46.549 0 86.626-37.736 86.626-84.285s-40.074-84.284-86.626-84.284z" fill="#3f3d56" opacity=".5"/><path data-name="Tracé 2" d="M1175.661 522.682s49.166 22.242 31.607 48-70.237 74.92-71.408 85.455-8.194 19.9-8.194 19.9-23.412-24.583-21.071-26.924 25.754-24.583 26.924-30.436 36.289-51.507 36.289-51.507l-31.607-28.095z" fill="#ffb9b9"/><path data-name="Tracé 3" d="M1175.661 522.682s49.166 22.242 31.607 48-70.237 74.92-71.408 85.455-8.194 19.9-8.194 19.9-23.412-24.583-21.071-26.924 25.754-24.583 26.924-30.436 36.289-51.507 36.289-51.507l-31.607-28.095z" opacity=".1"/><path data-name="Tracé 4" d="M1113.614 571.847s33.948 14.047 31.607 36.289 40.972 85.455 40.972 85.455 4.682 15.218 3.512 19.9 30.436 3.512 30.436 3.512v-10.534s-24.583-42.142-26.924-53.849-16.389-57.36-16.389-57.36-4.682-40.972-28.095-40.972a43.9 43.9 0 0 0-35.119 17.56z" fill="#ffb9b9"/><path data-name="Tracé 5" d="M1115.374 465.907s70.237 57.36 67.9 62.043-36.289 22.242-42.142 23.412-47.267-85.455-47.267-85.455z" fill="#2f2e41"/><path data-name="Tracé 6" d="M1115.374 465.907s70.237 57.36 67.9 62.043-36.289 22.242-42.142 23.412-47.267-85.455-47.267-85.455z" opacity=".1"/><path data-name="Tracé 7" d="M1039.283 477.613s-7.024 31.607 11.706 44.484 50.337 63.213 53.849 63.213 53.849-26.924 51.507-31.607-28.095-45.654-28.095-45.654l-8.194-43.313s-71.408-2.341-80.773 12.877z" fill="#2f2e41"/><path data-name="Tracé 8" d="M1115.37 374.598l10.536 67.9 18.73 48s28.095 29.265 11.706 31.607-25.754-31.607-25.754-31.607l-15.218-28.103z" fill="#ffb9b9"/><path data-name="Tracé 9" d="M1115.37 374.598l10.536 67.9 18.73 48s28.095 29.265 11.706 31.607-25.754-31.607-25.754-31.607l-15.218-28.103z" opacity=".1"/><path data-name="Tracé 10" d="M1076.157 299.093s0 24.583-8.194 26.924 32.777 33.948 32.777 33.948-4.682-40.972 11.706-51.507z" fill="#ffb9b9"/><path data-name="Tracé 11" d="M1076.157 299.093s0 24.583-8.194 26.924 32.777 33.948 32.777 33.948-4.682-40.972 11.706-51.507z" opacity=".1"/><circle data-name="Ellipse 12" cx="26.924" cy="26.924" r="26.924" transform="translate(1067.963 265.145)" fill="#ffb9b9"/><path data-name="Tracé 12" d="M1096.058 348.259s-24.583-30.436-28.095-29.266-29.266 26.924-31.607 35.119-7.024 66.725-3.512 78.432 3.512 42.142 2.341 44.484-8.194 8.194-1.171 8.194 31.607-17.559 48-14.047 38.63-1.171 39.8-3.512-1.171-63.213 0-67.9-2.341-28.095-3.512-32.777-1.171-23.412-12.877-28.095l-4.992-.493-.28 11.579z" fill="#4c6cf6"/><path data-name="Tracé 13" d="M1044.548 409.131s2.341 36.289 19.9 51.507 55.019 40.972 57.36 45.654 24.583 29.266 29.266 18.73a17.516 17.516 0 0 0 .939-10.38 25.816 25.816 0 0 0-11.593-16.872l-10.417-6.7-51.507-53.849-2.341-28.095z" fill="#ffb9b9"/><path data-name="Tracé 14" d="M1111.862 645.011s-13.462-2.927-18.145 5.268 4.682 30.436 4.682 30.436 26.924 56.19 31.607 49.166-3.512-32.777-3.512-32.777 11.706-25.754 7.024-26.924-21.656-11.121-21.656-25.169z" fill="#2f2e41"/><path data-name="Tracé 15" d="M1194.39 712.322s-7.024-3.512-8.194 0-8.194 21.071 0 23.412 88.967 4.682 86.626 0-15.218-10.536-23.412-12.877-29.266-19.9-29.266-19.9-11.706 15.218-25.754 9.365z" fill="#2f2e41"/><path data-name="Tracé 16" d="M1122.01 270.701a7.21 7.21 0 0 0-3.127-4.082 16.545 16.545 0 0 0-.66-5.387c-1.72-5.086-5.8-4.794-9.641-7.043-1.668-.976-1.565-1.838-2.434-3.44a12.768 12.768 0 0 0-4.919-5.02c-2.467-1.572-5.071-3.19-7.989-3.389-6.133-.418-10.835 5.35-16.7 7.2-2.584.816-5.36.85-7.957 1.621s-5.189 2.613-5.576 5.3c-.179 1.238.137 2.508-.045 3.746-.36 2.46-2.519 4.183-3.963 6.206-3.195 4.474-2.829 10.8-.274 15.663a22.015 22.015 0 0 0 1.842 2.883 17.735 17.735 0 0 0 1.945 6.586c2.555 4.868 6.951 8.506 11.544 11.528a27.259 27.259 0 0 1-.681-4.916 3.392 3.392 0 0 1 .209-1.629c.511-1.069 1.863-1.353 2.893-1.939 2.134-1.213 2.971-3.9 3.033-6.351s-.458-4.912-.2-7.353a4.019 4.019 0 0 1 1.376-2.956 4.752 4.752 0 0 1 2.593-.618c4.373-.178 8.942-.259 12.8-2.327a18.969 18.969 0 0 1 3.984-2.015c3.278-.855 6.628 1.443 8.517 4.255s2.831 6.158 4.574 9.063 4.754 5.5 8.124 5.151a1.349 1.349 0 0 0 1.006-.448 1.508 1.508 0 0 0 .185-.857l.188-12.882a19.473 19.473 0 0 0-.65-6.548z" fill="#2f2e41"/><path data-name="Tracé 17" d="M1055.086 349.43s25.754 11.706 24.583 36.289 7.024 26.924-12.877 29.266-24.583 0-25.754 2.341-8.194-53.848-3.512-59.7 17.56-8.196 17.56-8.196z" fill="#4c6cf6"/><circle data-name="Ellipse 13" cx="37.46" cy="37.46" r="37.46" transform="translate(499.627 76.09)" fill="#2f2e41"/><path data-name="Tracé 18" d="M562.256 523.852l-21.071 57.36s-17.559 14.047-7.024 18.73 31.607-4.682 31.607-4.682l16.389-42.142-2.341-29.266z" fill="#2f2e41"/><path data-name="Tracé 19" d="M562.256 523.852l-21.071 57.36s-17.559 14.047-7.024 18.73 31.607-4.682 31.607-4.682l16.389-42.142-2.341-29.266z" opacity=".1"/><path data-name="Tracé 20" d="M564.012 183.787l17.559 2.341s8.194 64.384 4.682 69.067-21.071 23.412-28.095 18.73 5.854-90.138 5.854-90.138z" fill="#575a89"/><path data-name="Tracé 21" d="M396.027 301.434s-24.583 10.536-29.266 11.706-11.706 12.877-3.512 15.218 39.8-21.071 39.8-21.071z" fill="#a0616a"/><path data-name="Tracé 22" d="M570.447 547.265l12.877 48s1.171 17.559 7.024 18.73 23.412-5.853 23.412-8.194-7.024-21.071-7.024-21.071 0-14.047-7.024-19.9-13.352-25.461-13.352-25.461z" fill="#2f2e41"/><path data-name="Tracé 23" d="M586.839 437.227c2.365 5.514 2.072 45.514-.515 72.134-1.253 12.935-3.044 22.71-5.338 23.857l-16.775-4.191-6.637-1.662-.175-14.565-.995-80.258-19.905-83.112v-21.071l50.337 4.682 7.984 12.537.211.339s-11.704 83.115-8.192 91.31z" fill="#2f2e41"/><path data-name="Tracé 24" d="M576.299 462.98c2.505 3.758 6.684 26.257 10.021 46.38-1.253 12.935-3.044 22.71-5.338 23.857l-16.775-4.191c-.257-.538-.515-1.1-.784-1.662-2.142-4.5-4.156-9.459-6.029-14.563l-.995-80.258-19.9-83.113v-21.071l50.337 4.682 7.984 12.537-46.614-3.172 10.536 45.654 12.877 48s.002 19.897 4.68 26.92z" opacity=".1"/><path data-name="Tracé 25" d="M493.189 281.534s-16.389 36.289 7.024 86.626a1023.236 1023.236 0 0 1 38.63 95.991s8.194 38.63 19.9 63.213 9.365 25.754 9.365 25.754l18.73-10.536s-10.535-72.578-15.218-79.6-4.682-26.924-4.682-26.924l-12.877-48-10.536-45.654 51.507 3.512s0-66.725-23.412-79.6z" fill="#2f2e41"/><path data-name="Tracé 26" d="M512.504 131.109s0 18.73-5.853 19.9-17.559 1.171-21.071 7.024 26.924 83.117 26.924 83.117l31.607-19.9 10.536-52.678s-15.218-9.365-15.218-14.047V133.45z" fill="#a0616a"/><path data-name="Tracé 27" d="M512.504 131.109s0 18.73-5.853 19.9-17.559 1.171-21.071 7.024 26.924 83.117 26.924 83.117l31.607-19.9 10.536-52.678s-15.218-9.365-15.218-14.047V133.45z" opacity=".1"/><circle data-name="Ellipse 14" cx="28.095" cy="28.095" r="28.095" transform="translate(502.554 95.406)" fill="#a0616a"/><path data-name="Tracé 28" d="M516.016 217.735s-10.535-66.725-12.875-66.725-35.119 7.024-37.46 8.194-10.54 11.707-10.54 11.707l16.389 46.825s7.024 32.777 11.706 38.63 14.047 22.242 9.365 24.583-9.365 5.853-4.682 5.853 43.313-7.024 45.654-3.512 40.972-12.877 40.972-14.047-4.682-56.19-4.682-56.19l11.706-26.924-35.119-24.583z" fill="#575a89"/><path data-name="Tracé 29" d="M466.85 165.057l-11.706 5.853s-32.778 74.92-35.117 76.088-14.049 23.415-15.22 28.1-3.512 19.9-7.024 22.242a60.786 60.786 0 0 1-5.853 3.512s7.024 11.706 10.536 11.706 15.218-16.389 15.218-16.389 25.754 16.389 32.777 3.512 24.583-94.82 24.583-94.82z" fill="#575a89"/><path data-name="Tracé 30" d="M558.744 200.762s-16.389-39.8-25.754-35.119 7.024 32.777 17.559 37.46z" fill="#a0616a"/><path data-name="Tracé 31" d="M542.356 201.932l16.424-3.713 3.476 17.76s15.218 26.924 11.706 38.63-24.583 30.436-31.607 19.9-12.877-26.924-8.194-36.289 11.706-31.605 8.195-36.288z" opacity=".1"/><path data-name="Tracé 32" d="M545.867 199.59l16.424-3.713 3.476 17.76s15.218 26.924 11.706 38.63-24.583 30.436-31.607 19.9-12.877-26.924-8.194-36.289 11.706-31.605 8.195-36.288z" fill="#575a89"/><ellipse data-name="Ellipse 15" cx="13.462" cy="28.095" rx="13.462" ry="28.095" transform="rotate(-64.899 337.076 -345.667)" fill="#2f2e41"/><circle data-name="Ellipse 16" cx="16.389" cy="16.389" r="16.389" transform="translate(542.94 65.555)" fill="#2f2e41"/><path data-name="Tracé 33" d="M544.111 76.09a16.388 16.388 0 0 1 14.63-16.292 16.389 16.389 0 1 0 0 32.583 16.388 16.388 0 0 1-14.633-16.292z" fill="#2f2e41"/><path data-name="Rectangle 11" fill="#3f3d56" d="M75.863 324.262H485.58v284.461H75.863z"/><path data-name="Rectangle 12" fill="#f2f2f2" d="M108.64 352.357h53.849v53.849H108.64z"/><path data-name="Rectangle 13" fill="#4c6cf6" d="M108.64 440.153h53.849v53.849H108.64z"/><path data-name="Rectangle 14" fill="#f2f2f2" d="M108.64 527.95h53.849v53.849H108.64z"/><path data-name="Rectangle 15" fill="#f2f2f2" d="M188.243 369.331h256.366v4.682H188.243z"/><path data-name="Rectangle 16" fill="#f2f2f2" d="M188.243 384.549h79.602v4.682h-79.602z"/><path data-name="Rectangle 17" fill="#f2f2f2" d="M188.243 457.127h256.366v4.682H188.243z"/><path data-name="Rectangle 18" fill="#f2f2f2" d="M188.243 472.345h79.602v4.682h-79.602z"/><path data-name="Rectangle 19" fill="#f2f2f2" d="M188.243 544.924h256.366v4.682H188.243z"/><path data-name="Rectangle 20" fill="#f2f2f2" d="M188.243 560.142h79.602v4.682h-79.602z"/><path data-name="Tracé 34" d="M1158.686 783.066c0 23.83-14.164 32.149-31.64 32.149a54.405 54.405 0 0 1-3.616-.125c-15.772-1.115-28.023-9.863-28.023-32.024 0-22.93 29.3-51.867 31.509-54.013.084-.084.128-.125.128-.125s31.642 30.311 31.642 54.138z" fill="#5e57b8"/><path data-name="Tracé 35" d="M1125.893 811.569l11.573-16.168-11.6 17.944-.029 1.855a48.566 48.566 0 0 1-2.405-.111l1.246-23.838-.009-.186.02-.032.119-2.254-11.631-17.988 11.666 16.3.029.478.941-18.011-9.956-18.588 10.079 15.428.981-37.345v-.128.125l-.163 29.447 9.913-11.675-9.953 14.211-.262 16.127 9.257-15.478-9.3 17.851-.146 8.966 13.433-21.544-13.486 24.671z" fill="#3f3d56"/><path data-name="Tracé 36" d="M132.053 620.35c0 23.83-14.164 32.149-31.64 32.149a54.405 54.405 0 0 1-3.616-.126c-15.772-1.115-28.023-9.863-28.023-32.024 0-22.93 29.3-51.867 31.509-54.013.084-.084.128-.125.128-.125s31.642 30.312 31.642 54.139z" fill="#57b894"/><path data-name="Tracé 37" d="M99.26 648.853l11.573-16.168-11.6 17.944-.029 1.855a48.566 48.566 0 0 1-2.405-.111l1.246-23.838-.009-.186.02-.032.119-2.254-11.631-17.988 11.666 16.3.029.478.941-18.011-9.956-18.588 10.079 15.428.981-37.344v-.128.125l-.163 29.447 9.913-11.675-9.953 14.211-.262 16.127 9.258-15.478-9.3 17.851-.146 8.966 13.433-21.544-13.486 24.671z" fill="#3f3d56"/></g><g transform="translate(0 371.973)"><path data-name="Tracé 72" d="M974 768.75v5a19.11 19.11 0 0 1-20.91 19c-39.15-3.72-78.12-10.64-117.4-9.43-72.42 2.21-145.44 31.83-215.54 13.53-19.77-5.16-39.32-14.13-59.66-12.2-18.25 1.73-34.49 12.05-52.17 16.89C454.55 816.3 399.8 779 344.06 780.51c-36.74 1-71.92 18.89-108.62 16.9-21.27-1.14-41.53-8.92-62.28-13.71-51.66-11.94-104.86-5.27-158.09-1.13A14 14 0 0 1 0 768.64v-4.28a14 14 0 0 1 14-14l940.92-.76A19.11 19.11 0 0 1 974 768.75z" fill="#3f3d56"/><path data-name="Tracé 73" d="M974 768.75v5a19.11 19.11 0 0 1-20.91 19c-39.15-3.72-78.12-10.64-117.4-9.43-72.42 2.21-145.44 31.83-215.54 13.53-19.77-5.16-39.32-14.13-59.66-12.2-18.25 1.73-34.49 12.05-52.17 16.89C454.55 816.3 399.8 779 344.06 780.51c-36.74 1-71.92 18.89-108.62 16.9-21.27-1.14-41.53-8.92-62.28-13.71-51.66-11.94-104.86-5.27-158.09-1.13A14 14 0 0 1 0 768.64v-4.28a14 14 0 0 1 14-14l940.92-.76A19.11 19.11 0 0 1 974 768.75z" opacity=".1"/><path data-name="Tracé 74" d="M974 759.61v5a20.409 20.409 0 0 1-.11 2.08 19.11 19.11 0 0 1-20.8 17c-39.15-3.73-78.12-10.65-117.4-9.44-72.42 2.22-145.44 31.84-215.54 13.53-19.77-5.16-39.32-14.13-59.66-12.2-18.25 1.73-34.49 12.05-52.17 16.9-53.77 14.72-108.52-22.58-164.26-21.08-36.74 1-71.92 18.89-108.62 16.91-21.27-1.15-41.53-8.92-62.28-13.72-51.65-11.93-104.86-5.26-158.09-1.12a14 14 0 0 1-14.86-11.5 13.7 13.7 0 0 1-.21-2.46v-4.28a14 14 0 0 1 14-14l235.83-.19 481.81-.4 223.28-.18A19.11 19.11 0 0 1 974 759.61z" fill="#3f3d56"/><path data-name="Tracé 75" d="M743.59 743.51c0 2.21-4.36 4.33-12.4 6.32-32.19 7.95-123.19 13.68-230.6 13.68-105.67 0-195.58-5.55-229-13.31-9-2.09-14-4.34-14-6.69 0-.82.6-1.63 1.78-2.43l481.81-.4c1.59.93 2.41 1.83 2.41 2.83z" opacity=".1"/><g data-name="Groupe 2" opacity=".5"><rect data-name="Rectangle 84" width="402" height="121" rx="19.03" transform="translate(48 98.51)" fill="#36334a"/><path data-name="Rectangle 85" fill="#36334a" d="M97 124.51h93v21H97z"/><path data-name="Rectangle 86" fill="#36334a" d="M97 158.51h285v11H97z"/><path data-name="Rectangle 87" fill="#36334a" d="M97 182.51h114v11H97z"/><rect data-name="Rectangle 88" width="402" height="121" rx="19.03" transform="translate(48 98.51)" fill="#36334a"/><path data-name="Rectangle 89" fill="#4c6cf6" d="M97 124.51h93v21H97z"/><path data-name="Rectangle 90" fill="#4c6cf6" opacity=".3" d="M97 158.51h285v11H97z"/><path data-name="Rectangle 91" fill="#4c6cf6" opacity=".3" d="M97 182.51h114v11H97z"/></g><rect data-name="Rectangle 92" width="10.31" height="85.02" rx="2.29" transform="translate(667.58 211.54)" fill="#3f3d56"/><rect data-name="Rectangle 93" width="5.79" height="27.99" rx="1.5" transform="translate(324.76 144.93)" fill="#3f3d56"/><rect data-name="Rectangle 94" width="6.52" height="48.72" rx="1.69" transform="translate(324.55 196.17)" fill="#3f3d56"/><rect data-name="Rectangle 95" width="6.21" height="49.14" rx="1.61" transform="translate(324.65 261.94)" fill="#3f3d56"/><rect data-name="Rectangle 96" width="345.1" height="701.37" rx="35.69" transform="translate(328.04 52.43)" fill="#3f3d56"/><rect data-name="Rectangle 97" width="48.19" height="9.79" rx="2.54" transform="translate(467.3 73.38)" fill="#e6e8ec"/><circle data-name="Ellipse 59" cx="5.55" cy="5.55" r="5.55" transform="translate(522.78 72.72)" fill="#e6e8ec"/><path data-name="Tracé 76" d="M651.83 98.11v610a27.41 27.41 0 0 1-27.41 27.4H376.76a27.41 27.41 0 0 1-27.41-27.4v-610a27.41 27.41 0 0 1 27.41-27.41h37.06v4.81a22.58 22.58 0 0 0 22.57 22.57h126a22.57 22.57 0 0 0 22.52-22.57v-4.76h39.51a27.41 27.41 0 0 1 27.41 27.36z" fill="#36334a"/><path data-name="Rectangle 98" fill="#3f3d56" d="M358 129h31v4h-31z"/><path data-name="Rectangle 99" fill="#3f3d56" d="M358 136h31v4h-31z"/><path data-name="Rectangle 100" fill="#3f3d56" d="M358 143h31v4h-31z"/><path data-name="Rectangle 101" fill="#3f3d56" d="M358 129h31v4h-31z"/><path data-name="Rectangle 102" fill="#3f3d56" d="M358 136h31v4h-31z"/><path data-name="Rectangle 103" fill="#3f3d56" d="M358 143h31v4h-31z"/><path data-name="Tracé 77" d="M637.66 139h-.91l-.35-.29a7.61 7.61 0 0 0 1.78-4.89 7.44 7.44 0 1 0-7.4 7.48 7.73 7.73 0 0 0 4.88-1.78l.34.29v.92l5.74 5.75 1.72-1.72zm-6.88 0a5.15 5.15 0 1 1 3.659-1.515A5.18 5.18 0 0 1 630.78 139z" fill="#3f3d56"/><path data-name="Rectangle 104" fill="#4c6cf6" d="M358 200h93v21h-93z"/><path data-name="Rectangle 105" fill="#4c6cf6" opacity=".3" d="M358 234h285v11H358z"/><path data-name="Rectangle 106" fill="#4c6cf6" opacity=".3" d="M358 258h114v11H358z"/><path data-name="Rectangle 107" fill="#4c6cf6" d="M358 444h93v21h-93z"/><path data-name="Rectangle 108" fill="#4c6cf6" opacity=".3" d="M358 478h285v11H358z"/><path data-name="Rectangle 109" fill="#4c6cf6" opacity=".3" d="M358 502h114v11H358z"/><path data-name="Rectangle 110" fill="#4c6cf6" d="M358 566h93v21h-93z"/><path data-name="Rectangle 111" fill="#4c6cf6" opacity=".3" d="M358 600h285v11H358z"/><path data-name="Rectangle 112" fill="#4c6cf6" opacity=".3" d="M358 624h114v11H358z"/><circle data-name="Ellipse 60" cx="34" cy="34" r="34" transform="translate(558 642)" fill="#4c6cf6"/><path data-name="Tracé 78" d="M609.33 673.32v16.43a1.25 1.25 0 0 1-1.25 1.25h-33.5a1.25 1.25 0 0 1-1.25-1.25v-26.17a1.25 1.25 0 0 1 1.25-1.25h23.31" fill="none" stroke="#fff" stroke-linecap="round" stroke-miterlimit="10"/><path data-name="Ligne 11" fill="none" stroke="#fff" stroke-linecap="round" stroke-miterlimit="10" d="M579.67 672h22.66"/><path data-name="Ligne 12" fill="none" stroke="#fff" stroke-linecap="round" stroke-miterlimit="10" d="M580 676.67h22.67"/><path data-name="Ligne 13" fill="none" stroke="#fff" stroke-linecap="round" stroke-miterlimit="10" d="M580.33 681.33H603"/><path data-name="Ligne 14" fill="none" stroke="#f0f" stroke-miterlimit="10" d="M605 661v11.33"/><path data-name="Ligne 15" fill="none" stroke="#f0f" stroke-miterlimit="10" d="M610.67 666.67h-11.34"/><path data-name="Ligne 16" fill="none" stroke="#fff" stroke-linecap="round" stroke-miterlimit="10" d="M605 661v11.33"/><path data-name="Ligne 17" fill="none" stroke="#fff" stroke-linecap="round" stroke-miterlimit="10" d="M610.67 666.67h-11.34"/><path data-name="Tracé 79" d="M888.6 745.17c3-5.51-.4-12.27-4.29-17.18s-8.61-10-8.51-16.29c.15-9 9.7-14.31 17.33-19.09a83.994 83.994 0 0 0 15.56-12.51 22.8 22.8 0 0 0 4.78-6.4c1.58-3.52 1.54-7.52 1.44-11.37q-.51-19.26-1.91-38.49" fill="none" stroke="#3f3d56" stroke-miterlimit="10" stroke-width="4"/><path data-name="Tracé 80" d="M927.51 623.14a14 14 0 0 0-7-11.5l-3.14 6.22.1-7.53a14.217 14.217 0 0 0-4.63-.56 14 14 0 1 0 14.68 13.37z" fill="#57b894"/><path data-name="Tracé 81" d="M902.48 718.13a14 14 0 1 1 .68-11.3l-8.77 7.13 9.65-2.23a14 14 0 0 1-1.56 6.4z" fill="#57b894"/><path data-name="Tracé 82" d="M895.55 690.88a14 14 0 0 1-4.45-27.53l-.08 5.78 3.18-6.29a14 14 0 0 1 14.67 13.36 13.843 13.843 0 0 1-.6 4.79 14 14 0 0 1-12.72 9.89z" fill="#57b894"/><path data-name="Tracé 83" d="M929.62 668.21a14 14 0 1 1 6.21-26.27l-2.48 6.8 5.1-4.9a14 14 0 0 1 4.55 9.67 13.793 13.793 0 0 1-.35 3.87 14 14 0 0 1-13.03 10.83z" fill="#57b894"/><path data-name="Tracé 84" d="M925.62 626.88c-3.24.35-6.39 1.36-9.64 1.56s-6.82-.57-8.88-3.1c-1.1-1.36-1.66-3.08-2.59-4.57a10 10 0 0 0-3.54-3.33 14 14 0 1 0 26.24 9.32q-.79.03-1.59.12z" opacity=".1"/><path data-name="Tracé 85" d="M929.62 668.21a14 14 0 0 1-13.35-20 10.367 10.367 0 0 1 2.82 2.82c1 1.51 1.61 3.26 2.78 4.64 2.19 2.57 5.92 3.41 9.31 3.26s6.66-1.12 10-1.43c.47 0 .94-.07 1.42-.08a14 14 0 0 1-12.98 10.79z" opacity=".1"/><path data-name="Tracé 86" d="M895.55 690.88a14 14 0 0 1-13.46-19.76 11.48 11.48 0 0 1 3 2.85c1.09 1.54 1.77 3.32 3.05 4.74 2.37 2.63 6.35 3.56 9.93 3.48s6.83-.93 10.28-1.2a14 14 0 0 1-12.8 9.89z" opacity=".1"/><path data-name="Tracé 87" d="M902.48 718.13a14.017 14.017 0 1 1-25.59-11.45 13.843 13.843 0 0 1 3.08 2.75c1.34 1.62 2.22 3.47 3.76 5 2.87 2.82 7.5 4 11.63 4.09a59.978 59.978 0 0 0 7.12-.39z" opacity=".1"/><path data-name="Tracé 88" d="M867.43 738.82s11.08-.34 14.42-2.72 17-5.21 17.86-1.4 16.65 19 4.15 19.06-29.06-1.94-32.4-4-4.03-10.94-4.03-10.94z" fill="#656380"/><path data-name="Tracé 89" d="M904.08 752.44c-12.51.1-29.06-1.95-32.39-4-2.54-1.55-3.55-7.09-3.89-9.65h-.37s.7 8.94 4 11 19.89 4.07 32.4 4c3.61 0 4.85-1.31 4.78-3.21-.47 1.12-1.84 1.83-4.53 1.86z" opacity=".2"/><path data-name="Tracé 90" d="M642 331.03v82.94a19 19 0 0 1-19 19H349.35v-121H623a19 19 0 0 1 19 19.06z" fill="#3f3d56"/><rect data-name="Rectangle 113" width="402" height="121" rx="19.03" transform="translate(208 295)" fill="#f2f2f2"/><rect data-name="Rectangle 114" width="402" height="121" rx="19.03" transform="translate(208 295)" fill="#f2f2f2"/><path data-name="Rectangle 115" fill="#4c6cf6" d="M257 321h93v21h-93z"/><path data-name="Rectangle 116" fill="#4c6cf6" opacity=".3" d="M257 355h285v11H257z"/><path data-name="Rectangle 117" fill="#4c6cf6" opacity=".3" d="M257 379h114v11H257z"/><circle data-name="Ellipse 61" cx="35.75" cy="35.75" r="35.75" transform="translate(56.59 211.09)" fill="#3f3d56"/><path data-name="Tracé 91" d="M71.6 524.94c3.69 25.89-.81 52.29-7.82 77.48-1.31 4.69-2.72 9.42-5.17 13.63s-5.86 7.83-8.74 11.79c-6 8.26-9.52 18-12.81 27.64a779.659 779.659 0 0 0-22.82 81.32 5.57 5.57 0 0 0 0 3.47c.87 2 3.51 2.26 5.68 2.25l28.06-.15c1-1.92-.85-4-2-5.84-4-6.22-.16-14.3 3.37-20.81a223.738 223.738 0 0 0 19.78-50c1.92-7.33 3.48-14.82 6.6-21.73 3.77-8.38 9.68-15.59 14.48-23.43 5.58-9.11 9.65-19 13.69-28.93 5.64-13.78 11.33-27.73 13.55-42.45 2.09-13.82 1.06-27.9-.3-41.81a2.64 2.64 0 0 0-3.06-3l-37.65-1.94c-7.76-.4-9.6-2.1-8.42 5.52.82 5.69 2.76 11.23 3.58 16.99z" fill="#3f3d56"/><path data-name="Tracé 92" d="M71.6 524.94c3.69 25.89-.81 52.29-7.82 77.48-1.31 4.69-2.72 9.42-5.17 13.63s-5.86 7.83-8.74 11.79c-6 8.26-9.52 18-12.81 27.64a779.659 779.659 0 0 0-22.82 81.32 5.57 5.57 0 0 0 0 3.47c.87 2 3.51 2.26 5.68 2.25l28.06-.15c1-1.92-.85-4-2-5.84-4-6.22-.16-14.3 3.37-20.81a223.738 223.738 0 0 0 19.78-50c1.92-7.33 3.48-14.82 6.6-21.73 3.77-8.38 9.68-15.59 14.48-23.43 5.58-9.11 9.65-19 13.69-28.93 5.64-13.78 11.33-27.73 13.55-42.45 2.09-13.82 1.06-27.9-.3-41.81a2.64 2.64 0 0 0-3.06-3l-37.65-1.94c-7.76-.4-9.6-2.1-8.42 5.52.82 5.69 2.76 11.23 3.58 16.99z" opacity=".1"/><path data-name="Tracé 93" d="M79 461.99c-7.65 11-15.67 23.66-13.13 36.83 1.93 10 9.55 17.75 16.74 25 28.74 28.86 57 60.92 66.78 100.47 2.52 10.22 3.74 20.71 5.91 31 3.94 18.7 11 36.58 18 54.35l18.72 47.38a28.36 28.36 0 0 0 27.1-18c-2.46-.19-5.67-2.57-7.11-4.57-8-11.07-9.64-25.31-11.69-38.81-2.27-14.92-5.3-29.72-8.34-44.51l-13.4-65.42c-1.55-7.55-3.1-15.11-5.12-22.54-7.82-28.83-22.64-56-24.93-85.81-.34-4.38-.55-9.19-3.52-12.44-3.12-3.43-8.24-4-12.87-4.27-18.73-1.24-34.89-3.07-53.14 1.34z" fill="#3f3d56"/><path data-name="Tracé 94" d="M28.47 736.13a29.86 29.86 0 0 0-6.22-.8 12.92 12.92 0 0 0-10.16 5.55 25.25 25.25 0 0 0-2.73 6l-2.71 7.78c-.8 2.28-1.58 4.91-.39 7a7.42 7.42 0 0 0 3.64 2.85c6.56 2.92 13.95 3.08 21.1 3.78 6.94.68 13.82 1.9 20.67 3.19 2.36.44 4.71.89 7.1 1.13 5.34.54 10.72 0 16.06-.48l5.51-.53a19.84 19.84 0 0 0 5.42-1 6.83 6.83 0 0 0 4-3.59c1.36-3.37-1.56-7.36-5.13-8-1.45-.29-2.95-.16-4.42-.35a20.882 20.882 0 0 1-4.84-1.45c-7.05-2.77-14.17-5.57-20.37-9.93-1.72-1.21-3.52-2.9-3.33-5a10.19 10.19 0 0 1 .89-2.59 9.46 9.46 0 0 0 .08-6.69c-.34-.92-1-1.89-1.93-2-2.64-.32-2.32 3.53-2.71 5-.53 2-1.49 2.18-3.37 2-5.4-.58-10.8-.85-16.16-1.87z" fill="#f2f2f2"/><path data-name="Tracé 95" d="M186.34 762.96a17.65 17.65 0 0 0 3.82 10.75 8.359 8.359 0 0 0 2.72 2.19 10.921 10.921 0 0 0 4.95.79 40.05 40.05 0 0 0 13.89-2.81 39.711 39.711 0 0 1 4.8-1.81 53.852 53.852 0 0 1 6.24-.9c8.27-1.19 15.53-6.07 23.52-8.54a49.452 49.452 0 0 0 7-2.3c3.16-1.49 5.72-4 8.23-6.43a19.891 19.891 0 0 0 3.78-4.52c1.47-2.74 1.56-6 1.62-9.1a2.589 2.589 0 0 0-.24-1.41 2.1 2.1 0 0 0-.9-.71c-2.43-1.2-5.31-.6-8-.13-9.72 1.73-19.67 1.41-29.54 1.09a4.29 4.29 0 0 1-4.54-2.59l-3.75-6c-1.07-1.72-2.77-3.69-4.71-3.1-1.55.47-2.18 2.37-2.12 4s.56 3.25.25 4.84a6.61 6.61 0 0 1-3.2 4.16 20.438 20.438 0 0 1-5 1.92c-5.52 1.56-11.94 3.33-16.21 7.39-3.09 2.92-2.8 9.37-2.61 13.22z" fill="#f2f2f2"/><path data-name="Tracé 96" d="M184.4 366.26a23.17 23.17 0 0 0 5.46-5.94 24.211 24.211 0 0 0 2.33-8.21l1.57-9.92c.87-5.47 1.89-11.26 5.54-15.43s10.92-5.66 14.63-1.54c1.62 1.79 2.26 4.25 2.66 6.64a48.34 48.34 0 0 1-11.82 40c-4.49 4.92-10 8.83-14.75 13.48-4.14 4-7.73 8.59-11.55 12.94a159.422 159.422 0 0 1-31.47 27.5c.14-7.44 1.09-15.42 0-22.81-.81-5.34-3-8.22 2.17-11.71 12-8.16 24.11-15.54 35.23-25z" fill="#fbbebe"/><path data-name="Tracé 97" d="M83.56 293.08c-.39 5.32-2.6 10.76-7 13.83q18.69 6.54 36.87 14.42c-2.34-2.25-3.05-5.7-3.16-8.94-.31-8.47 2.62-16.8 6.9-24.1a5.85 5.85 0 0 0 1.13-3.18c-.14-2.36-2.94-3.45-5.24-4a128.859 128.859 0 0 0-23.92-3.47c-3.45-.11-7.54-1.2-6.76 3.19.74 4.1 1.49 8.1 1.18 12.25z" fill="#fbbebe"/><circle data-name="Ellipse 62" cx="29.23" cy="29.23" r="29.23" transform="translate(78.43 237.47)" fill="#fbbebe"/><path data-name="Tracé 98" d="M136.6 345.65a35.361 35.361 0 0 0-3.71-6.22c-5.3-7.61-10.74-15.21-17.54-21.51a109.19 109.19 0 0 0-16.65-12.23 37.789 37.789 0 0 0-10.42-5 40.766 40.766 0 0 0-6.69-.91l-7.59-.62a6.209 6.209 0 0 0-2 .06c-2.06.52-3 3.08-2.56 5.15s2 3.75 3.38 5.32c.34 15.49-6.55 30.77-7.48 46.24-1.63 27 14.88 52.21 16.2 79.28a8.55 8.55 0 0 1-.38 3.63c-.22.56-.55 1.07-.8 1.62-.78 1.7-.75 3.63-.89 5.5a27.94 27.94 0 0 1-8.23 17.62 12.23 12.23 0 0 0 4.64 3.54c3.19 1.39 7 1.51 10.39 2.48 8.84 2.58 17.9 5.18 27.09 4.63a23.9 23.9 0 0 0 2.09-7.87c1.3-.81 2.8.92 3 2.44s-.09 3.29 1 4.39 2.47.93 3.8.76c5.61-.71 11-2.6 16.5-3.87s11.38-1.88 16.73-.06c1.08-1.37.62-3.4-.26-4.9s-2.13-2.82-2.63-4.49a10.08 10.08 0 0 1-.32-2.95c0-8.55 1.76-17.19.09-25.58-.49-2.46-1.27-4.86-1.77-7.33-1-4.79-.85-9.73-.72-14.62s-.46-10.18-.56-15.14a48.291 48.291 0 0 0-.4-6.13c-.34-2.13-1-4.21-1.18-6.36-.54-5.46 1.66-10.88 1.33-16.36-.55-8.32-10.22-12.84-13.46-20.51z" fill="#ee635d"/><path data-name="Tracé 99" d="M70.63 341.73c-7.08 18.78-10.54 38.7-14 58.48l-8 46.46c-2.27 13.13-4.55 26.34-4.46 39.66 0 3.74.24 7.55-.74 11.16-1.28 4.74-4.46 8.69-6.87 13a42.78 42.78 0 0 0-4.6 28.93c.82 4.15 3.06 8.86 7.27 9.34 3.46.38 6.45-2.37 8.47-5.21 4.64-6.51 6.94-14.37 9-22.11a500.113 500.113 0 0 0 13.87-77.09 75.06 75.06 0 0 1 1.39-9.8 69.543 69.543 0 0 1 3.38-9.76q4.59-11.38 9.19-22.76c7.07-17.53 14.18-35.14 23.89-51.36-9.6-2.76-19.59-6-29.19-8.73-2.77-.82-5.74-.33-8.6-.21z" fill="#fbbebe"/><path data-name="Tracé 100" d="M87.27 355.97c-6.72-1.45-13.67-1-20.53-1.17a4.43 4.43 0 0 1-2.76-.72c-1.39-1.19-.8-3.42-.1-5.11l3.32-8a11.64 11.64 0 0 1 2.66-4.42c1.69-1.5 4.07-1.87 6.31-2.14 7.29-.84 14.79-1.12 21.86.85s13.72 6.45 16.88 13.08c1.32 2.76 1.93 6.24.18 8.75-2.6 3.73-8.43 7.9-12.78 5.86-5.21-2.44-9.2-5.71-15.04-6.98z" fill="#ee635d"/><path data-name="Tracé 101" d="M123 221.3a29.52 29.52 0 0 0-16.28 4.69 35.75 35.75 0 0 0-35.1-8.22A20.43 20.43 0 1 0 48 241.42a35.75 35.75 0 1 0 68.57 20.09 32 32 0 0 0 6.41.65c14.1 0 25.54-9.15 25.54-20.43S137.08 221.3 123 221.3z" fill="#3f3d56"/><path data-name="Tracé 102" d="M128.09 251.94a31.1 31.1 0 0 1-6.41-.65 35.569 35.569 0 0 1-4.68 10.29 32.108 32.108 0 0 0 6 .58c13.18 0 24-8 25.39-18.24-4.69 4.88-12.04 8.02-20.3 8.02z" opacity=".1"/><path data-name="Tracé 103" d="M87.23 277.51a35.8 35.8 0 0 1-34.18-46.28 20.43 20.43 0 0 1-16.89-20.12 20.09 20.09 0 0 1 .33-3.66 20.43 20.43 0 0 0 11.46 34 35.75 35.75 0 1 0 68.29 21.18 35.68 35.68 0 0 1-29.01 14.88z" opacity=".1"/></g></g></g></svg>