<svg xmlns="http://www.w3.org/2000/svg" width="2039.208" height="1176.975" viewBox="0 0 2039.208 1176.975">
  <g id="Groupe_4" data-name="Groupe 4" transform="translate(-117 -246.027)">
    <g id="Groupe_3" data-name="Groupe 3" transform="translate(58 369)">
      <g id="undraw_creative_team_r90h" transform="translate(785 -122.973)">
        <circle id="Ellipse_1" data-name="Ellipse 1" cx="297.337" cy="297.337" r="297.337" transform="translate(700.974 133.45)" fill="#f2f2f2"/>
        <path id="Tracé_190" data-name="Tracé 190" d="M113.55,0A113.55,113.55,0,1,1,0,113.55,113.55,113.55,0,0,1,113.55,0Z" transform="translate(47.768 0)" fill="#ee635d"/>
        <circle id="Ellipse_3" data-name="Ellipse 3" cx="297.337" cy="297.337" r="297.337" transform="translate(67.669 15.218)" fill="#f2f2f2"/>
        <ellipse id="Ellipse_4" data-name="Ellipse 4" cx="326.603" cy="17.559" rx="326.603" ry="17.559" transform="translate(24.356 591.163)" fill="#3f3d56"/>
        <ellipse id="Ellipse_5" data-name="Ellipse 5" cx="244.66" cy="12.11" rx="244.66" ry="12.11" transform="translate(40.745 597.218)" opacity="0.1"/>
        <ellipse id="Ellipse_6" data-name="Ellipse 6" cx="326.603" cy="19.315" rx="326.603" ry="19.315" transform="translate(660.002 711.737)" fill="#3f3d56"/>
        <ellipse id="Ellipse_7" data-name="Ellipse 7" cx="244.66" cy="13.321" rx="244.66" ry="13.321" transform="translate(676.391 718.397)" opacity="0.1"/>
        <ellipse id="Ellipse_8" data-name="Ellipse 8" cx="208.421" cy="10.536" rx="208.421" ry="10.536" transform="translate(260.884 675.448)" fill="#3f3d56"/>
        <ellipse id="Ellipse_9" data-name="Ellipse 9" cx="100.56" cy="5.083" rx="100.56" ry="5.083" transform="translate(0 645.781)" fill="#3f3d56"/>
        <ellipse id="Ellipse_10" data-name="Ellipse 10" cx="187.158" cy="9.461" rx="187.158" ry="9.461" transform="translate(928.357 799.438)" fill="#3f3d56"/>
        <rect id="Rectangle_1" data-name="Rectangle 1" width="374.598" height="222.418" transform="translate(720.875 506.878)" fill="#3f3d56"/>
        <circle id="Ellipse_11" data-name="Ellipse 11" cx="84.285" cy="84.285" r="84.285" transform="translate(757.164 536.144)" fill="#4c6cf6"/>
        <rect id="Rectangle_2" data-name="Rectangle 2" width="28.095" height="28.095" transform="translate(951.487 541.997)" fill="#4c6cf6"/>
        <rect id="Rectangle_3" data-name="Rectangle 3" width="28.095" height="28.095" transform="translate(986.605 541.997)" fill="#4c6cf6" opacity="0.5"/>
        <rect id="Rectangle_4" data-name="Rectangle 4" width="28.095" height="28.095" transform="translate(1021.724 541.997)" fill="#4c6cf6" opacity="0.2"/>
        <rect id="Rectangle_5" data-name="Rectangle 5" width="28.095" height="28.095" transform="translate(951.487 577.116)" fill="#2f2e41"/>
        <rect id="Rectangle_6" data-name="Rectangle 6" width="28.095" height="28.095" transform="translate(986.605 577.116)" fill="#2f2e41" opacity="0.5"/>
        <rect id="Rectangle_7" data-name="Rectangle 7" width="28.095" height="28.095" transform="translate(1021.724 577.116)" fill="#2f2e41" opacity="0.2"/>
        <rect id="Rectangle_8" data-name="Rectangle 8" width="28.095" height="28.095" transform="translate(951.487 612.234)" fill="#ee635d"/>
        <path id="Tracé_191" data-name="Tracé 191" d="M0,0H28.095V28.095H0Z" transform="translate(986.605 612.234)" fill="#ee635d" opacity="0.5"/>
        <path id="Tracé_192" data-name="Tracé 192" d="M0,0H28.095V28.095H0Z" transform="translate(1021.724 612.234)" fill="#ee635d" opacity="0.2"/>
        <path id="Tracé_1" data-name="Tracé 1" d="M757.9,558.459V727.028c46.549,0,86.626-37.736,86.626-84.285S804.452,558.459,757.9,558.459Z" transform="translate(83.545 -22.315)" fill="#3f3d56" opacity="0.5"/>
        <path id="Tracé_2" data-name="Tracé 2" d="M1053.494,546.959s49.166,22.242,31.607,48-70.237,74.92-71.408,85.455-8.194,19.9-8.194,19.9-23.412-24.583-21.071-26.924,25.754-24.583,26.924-30.436,36.289-51.507,36.289-51.507l-31.607-28.095Z" transform="translate(122.167 -24.277)" fill="#ffb9b9"/>
        <path id="Tracé_3" data-name="Tracé 3" d="M1053.494,546.959s49.166,22.242,31.607,48-70.237,74.92-71.408,85.455-8.194,19.9-8.194,19.9-23.412-24.583-21.071-26.924,25.754-24.583,26.924-30.436,36.289-51.507,36.289-51.507l-31.607-28.095Z" transform="translate(122.167 -24.277)" opacity="0.1"/>
        <path id="Tracé_4" data-name="Tracé 4" d="M990.4,591.518s33.948,14.047,31.607,36.289,40.972,85.455,40.972,85.455,4.682,15.218,3.512,19.9,30.436,3.512,30.436,3.512V726.14s-24.583-42.142-26.924-53.849-16.389-57.36-16.389-57.36-4.682-40.972-28.095-40.972A43.9,43.9,0,0,0,990.4,591.519Z" transform="translate(123.214 -19.671)" fill="#ffb9b9"/>
        <path id="Tracé_5" data-name="Tracé 5" d="M995.039,498.459s70.237,57.36,67.9,62.043-36.289,22.242-42.142,23.412-47.267-85.455-47.267-85.455Z" transform="translate(120.335 -32.552)" fill="#2f2e41"/>
        <path id="Tracé_6" data-name="Tracé 6" d="M995.039,498.459s70.237,57.36,67.9,62.043-36.289,22.242-42.142,23.412-47.267-85.455-47.267-85.455Z" transform="translate(120.335 -32.552)" opacity="0.1"/>
        <path id="Tracé_7" data-name="Tracé 7" d="M927.091,510.355s-7.024,31.607,11.706,44.484,50.337,63.213,53.849,63.213,53.849-26.924,51.507-31.607-28.095-45.654-28.095-45.654l-8.194-43.313S936.456,495.137,927.091,510.355Z" transform="translate(112.192 -32.742)" fill="#2f2e41"/>
        <path id="Tracé_8" data-name="Tracé 8" d="M991.9,420.459l10.536,67.9,18.73,48s28.095,29.265,11.706,31.607-25.754-31.607-25.754-31.607L991.9,508.256Z" transform="translate(123.47 -45.861)" fill="#ffb9b9"/>
        <path id="Tracé_9" data-name="Tracé 9" d="M991.9,420.459l10.536,67.9,18.73,48s28.095,29.265,11.706,31.607-25.754-31.607-25.754-31.607L991.9,508.256Z" transform="translate(123.47 -45.861)" opacity="0.1"/>
        <path id="Tracé_10" data-name="Tracé 10" d="M959.755,355.959s0,24.583-8.194,26.924,32.777,33.948,32.777,33.948-4.682-40.972,11.706-51.507Z" transform="translate(116.402 -56.866)" fill="#ffb9b9"/>
        <path id="Tracé_11" data-name="Tracé 11" d="M959.755,355.959s0,24.583-8.194,26.924,32.777,33.948,32.777,33.948-4.682-40.972,11.706-51.507Z" transform="translate(116.402 -56.866)" opacity="0.1"/>
        <circle id="Ellipse_12" data-name="Ellipse 12" cx="26.924" cy="26.924" r="26.924" transform="translate(1067.963 265.145)" fill="#ffb9b9"/>
        <path id="Tracé_12" data-name="Tracé 12" d="M984.895,402.229s-24.583-30.436-28.095-29.266-29.266,26.924-31.607,35.119-7.024,66.725-3.512,78.432,3.512,42.142,2.341,44.484-8.194,8.194-1.171,8.194,31.607-17.559,48-14.047,38.63-1.171,39.8-3.512-1.171-63.213,0-67.9-2.341-28.095-3.512-32.777-1.171-23.412-12.877-28.095l-4.992-.493-.28,11.579Z" transform="translate(111.163 -53.97)" fill="#4c6cf6"/>
        <path id="Tracé_13" data-name="Tracé 13" d="M931.4,449.959s2.341,36.289,19.9,51.507,55.019,40.972,57.36,45.654,24.583,29.266,29.266,18.73a17.516,17.516,0,0,0,.939-10.38,25.816,25.816,0,0,0-11.593-16.872l-10.417-6.7-51.507-53.849-2.341-28.095Z" transform="translate(113.148 -40.828)" fill="#ffb9b9"/>
        <path id="Tracé_14" data-name="Tracé 14" d="M991.739,651.533s-13.462-2.927-18.145,5.268,4.682,30.436,4.682,30.436,26.924,56.19,31.607,49.166-3.512-32.777-3.512-32.777,11.706-25.754,7.024-26.924S991.739,665.581,991.739,651.533Z" transform="translate(120.123 -6.522)" fill="#2f2e41"/>
        <path id="Tracé_15" data-name="Tracé 15" d="M1061.168,710.324s-7.024-3.512-8.194,0-8.194,21.071,0,23.412,88.967,4.682,86.626,0-15.218-10.536-23.412-12.877-29.266-19.9-29.266-19.9S1075.216,716.177,1061.168,710.324Z" transform="translate(133.222 1.998)" fill="#2f2e41"/>
        <path id="Tracé_16" data-name="Tracé 16" d="M1007.09,335.842a7.21,7.21,0,0,0-3.127-4.082,16.545,16.545,0,0,0-.66-5.387c-1.72-5.086-5.8-4.794-9.641-7.043-1.668-.976-1.565-1.838-2.434-3.44a12.768,12.768,0,0,0-4.919-5.02c-2.467-1.572-5.071-3.19-7.989-3.389-6.133-.418-10.835,5.35-16.7,7.2-2.584.816-5.36.85-7.957,1.621s-5.189,2.613-5.576,5.3c-.179,1.238.137,2.508-.045,3.746-.36,2.46-2.519,4.183-3.963,6.206-3.195,4.474-2.829,10.8-.274,15.663a22.015,22.015,0,0,0,1.842,2.883,17.735,17.735,0,0,0,1.945,6.586c2.555,4.868,6.951,8.506,11.544,11.528a27.259,27.259,0,0,1-.681-4.916,3.392,3.392,0,0,1,.209-1.629c.511-1.069,1.863-1.353,2.893-1.939,2.134-1.213,2.971-3.9,3.033-6.351s-.458-4.912-.2-7.353a4.019,4.019,0,0,1,1.376-2.956,4.752,4.752,0,0,1,2.593-.618c4.373-.178,8.942-.259,12.8-2.327a18.969,18.969,0,0,1,3.984-2.015c3.278-.855,6.628,1.443,8.517,4.255s2.831,6.158,4.574,9.063,4.754,5.5,8.124,5.151a1.349,1.349,0,0,0,1.006-.448,1.508,1.508,0,0,0,.185-.857l.188-12.882a19.473,19.473,0,0,0-.65-6.548Z" transform="translate(114.92 -65.141)" fill="#2f2e41"/>
        <path id="Tracé_17" data-name="Tracé 17" d="M943.194,398.959s25.754,11.706,24.583,36.289,7.024,26.924-12.877,29.266-24.583,0-25.754,2.341-8.194-53.848-3.512-59.7S943.194,398.959,943.194,398.959Z" transform="translate(111.892 -49.529)" fill="#4c6cf6"/>
        <circle id="Ellipse_13" data-name="Ellipse 13" cx="37.46" cy="37.46" r="37.46" transform="translate(499.627 76.09)" fill="#2f2e41"/>
        <path id="Tracé_18" data-name="Tracé 18" d="M523.989,547.959l-21.071,57.36s-17.559,14.047-7.024,18.73,31.607-4.682,31.607-4.682l16.389-42.142-2.341-29.266Z" transform="translate(38.267 -24.107)" fill="#2f2e41"/>
        <path id="Tracé_19" data-name="Tracé 19" d="M523.989,547.959l-21.071,57.36s-17.559,14.047-7.024,18.73,31.607-4.682,31.607-4.682l16.389-42.142-2.341-29.266Z" transform="translate(38.267 -24.107)" opacity="0.1"/>
        <path id="Tracé_20" data-name="Tracé 20" d="M522.062,257.459l17.559,2.341s8.194,64.384,4.682,69.067-21.071,23.412-28.095,18.73S522.062,257.459,522.062,257.459Z" transform="translate(41.95 -73.672)" fill="#575a89"/>
        <path id="Tracé_21" data-name="Tracé 21" d="M382.73,357.959s-24.583,10.536-29.266,11.706-11.706,12.877-3.512,15.218,39.8-21.071,39.8-21.071Z" transform="translate(13.297 -56.525)" fill="#a0616a"/>
        <path id="Tracé_22" data-name="Tracé 22" d="M526.4,569.111l12.877,48s1.171,17.559,7.024,18.73,23.412-5.853,23.412-8.194-7.024-21.071-7.024-21.071,0-14.047-7.024-19.9-13.352-25.461-13.352-25.461Z" transform="translate(44.047 -21.846)" fill="#2f2e41"/>
        <path id="Tracé_23" data-name="Tracé 23" d="M547.74,489.827c2.365,5.514,2.072,45.514-.515,72.134-1.253,12.935-3.044,22.71-5.338,23.857l-16.775-4.191-6.637-1.662L518.3,565.4l-.995-80.258L497.4,402.03V380.959l50.337,4.682,7.984,12.537.211.339S544.228,481.632,547.74,489.827Z" transform="translate(39.099 -52.6)" fill="#2f2e41"/>
        <path id="Tracé_24" data-name="Tracé 24" d="M537.2,515.58c2.505,3.758,6.684,26.257,10.021,46.38-1.253,12.935-3.044,22.71-5.338,23.857l-16.775-4.191c-.257-.538-.515-1.1-.784-1.662-2.142-4.5-4.156-9.459-6.029-14.563l-.995-80.258L497.4,402.03V380.959l50.337,4.682,7.984,12.537-46.614-3.172,10.536,45.654,12.877,48S532.522,508.557,537.2,515.58Z" transform="translate(39.099 -52.6)" opacity="0.1"/>
        <path id="Tracé_25" data-name="Tracé 25" d="M461.216,343.177s-16.389,36.289,7.024,86.626a1023.236,1023.236,0,0,1,38.63,95.991s8.194,38.63,19.9,63.213,9.365,25.754,9.365,25.754l18.73-10.536s-10.535-72.578-15.218-79.6-4.682-26.924-4.682-26.924l-12.877-48-10.536-45.654,51.507,3.512s0-66.725-23.412-79.6Z" transform="translate(31.973 -61.643)" fill="#2f2e41"/>
        <path id="Tracé_26" data-name="Tracé 26" d="M480.868,212.459s0,18.73-5.853,19.9-17.559,1.171-21.071,7.024S480.868,322.5,480.868,322.5l31.607-19.9,10.536-52.678s-15.218-9.365-15.218-14.047V214.8Z" transform="translate(31.636 -81.35)" fill="#a0616a"/>
        <path id="Tracé_27" data-name="Tracé 27" d="M480.868,212.459s0,18.73-5.853,19.9-17.559,1.171-21.071,7.024S480.868,322.5,480.868,322.5l31.607-19.9,10.536-52.678s-15.218-9.365-15.218-14.047V214.8Z" transform="translate(31.636 -81.35)" opacity="0.1"/>
        <circle id="Ellipse_14" data-name="Ellipse 14" cx="28.095" cy="28.095" r="28.095" transform="translate(502.554 95.406)" fill="#a0616a"/>
        <path id="Tracé_28" data-name="Tracé 28" d="M488.775,296.184S478.24,229.459,475.9,229.459s-35.119,7.024-37.46,8.194S427.9,249.36,427.9,249.36l16.389,46.825s7.024,32.777,11.706,38.63,14.047,22.242,9.365,24.583-9.365,5.853-4.682,5.853,43.313-7.024,45.654-3.512,40.972-12.877,40.972-14.047-4.682-56.19-4.682-56.19l11.706-26.924-35.119-24.583Z" transform="translate(27.241 -78.449)" fill="#575a89"/>
        <path id="Tracé_29" data-name="Tracé 29" d="M448.823,241.459l-11.706,5.853S404.339,322.232,402,323.4,387.951,346.815,386.78,351.5s-3.512,19.9-7.024,22.242a60.786,60.786,0,0,1-5.853,3.512s7.024,11.706,10.536,11.706,15.218-16.389,15.218-16.389,25.754,16.389,32.777,3.512,24.583-94.82,24.583-94.82Z" transform="translate(18.027 -76.402)" fill="#575a89"/>
        <path id="Tracé_30" data-name="Tracé 30" d="M520.563,277.134s-16.389-39.8-25.754-35.119,7.024,32.777,17.559,37.46Z" transform="translate(38.181 -76.372)" fill="#a0616a"/>
        <path id="Tracé_31" data-name="Tracé 31" d="M503.843,273.5l16.424-3.713,3.476,17.76s15.218,26.924,11.706,38.63-24.583,30.436-31.607,19.9-12.877-26.924-8.194-36.289S507.354,278.183,503.843,273.5Z" transform="translate(38.513 -71.568)" opacity="0.1"/>
        <path id="Tracé_32" data-name="Tracé 32" d="M506.843,271.5l16.424-3.713,3.476,17.76s15.218,26.924,11.706,38.63-24.583,30.436-31.607,19.9-12.877-26.924-8.194-36.289S510.354,276.183,506.843,271.5Z" transform="translate(39.024 -71.91)" fill="#575a89"/>
        <ellipse id="Ellipse_15" data-name="Ellipse 15" cx="13.462" cy="28.095" rx="13.462" ry="28.095" transform="translate(507.106 106.213) rotate(-64.899)" fill="#2f2e41"/>
        <circle id="Ellipse_16" data-name="Ellipse 16" cx="16.389" cy="16.389" r="16.389" transform="translate(542.94 65.555)" fill="#2f2e41"/>
        <path id="Tracé_33" data-name="Tracé 33" d="M504.419,167.848a16.388,16.388,0,0,1,14.63-16.292,16.389,16.389,0,1,0,0,32.583,16.388,16.388,0,0,1-14.633-16.292Z" transform="translate(39.692 -91.758)" fill="#2f2e41"/>
        <rect id="Rectangle_11" data-name="Rectangle 11" width="409.717" height="284.461" transform="translate(75.863 324.262)" fill="#3f3d56"/>
        <rect id="Rectangle_12" data-name="Rectangle 12" width="53.849" height="53.849" transform="translate(108.64 352.357)" fill="#f2f2f2"/>
        <rect id="Rectangle_13" data-name="Rectangle 13" width="53.849" height="53.849" transform="translate(108.64 440.153)" fill="#4c6cf6"/>
        <rect id="Rectangle_14" data-name="Rectangle 14" width="53.849" height="53.849" transform="translate(108.64 527.95)" fill="#f2f2f2"/>
        <rect id="Rectangle_15" data-name="Rectangle 15" width="256.366" height="4.682" transform="translate(188.243 369.331)" fill="#f2f2f2"/>
        <rect id="Rectangle_16" data-name="Rectangle 16" width="79.602" height="4.682" transform="translate(188.243 384.549)" fill="#f2f2f2"/>
        <rect id="Rectangle_17" data-name="Rectangle 17" width="256.366" height="4.682" transform="translate(188.243 457.127)" fill="#f2f2f2"/>
        <rect id="Rectangle_18" data-name="Rectangle 18" width="79.602" height="4.682" transform="translate(188.243 472.345)" fill="#f2f2f2"/>
        <rect id="Rectangle_19" data-name="Rectangle 19" width="256.366" height="4.682" transform="translate(188.243 544.924)" fill="#f2f2f2"/>
        <rect id="Rectangle_20" data-name="Rectangle 20" width="79.602" height="4.682" transform="translate(188.243 560.142)" fill="#f2f2f2"/>
        <path id="Tracé_34" data-name="Tracé 34" d="M1038.126,777.283c0,23.83-14.164,32.149-31.64,32.149-.4,0-.81-.006-1.211-.015-.81-.017-1.613-.055-2.405-.11-15.772-1.115-28.023-9.863-28.023-32.024,0-22.93,29.3-51.867,31.509-54.013l0,0c.084-.084.128-.125.128-.125S1038.126,753.456,1038.126,777.283Z" transform="translate(120.56 5.783)" fill="#5e57b8"/>
        <path id="Tracé_35" data-name="Tracé 35" d="M1002.743,805.786l11.573-16.168-11.6,17.944-.029,1.855c-.81-.017-1.613-.055-2.405-.111l1.246-23.838-.009-.186.02-.032.119-2.254-11.631-17.988,11.666,16.3.029.478.941-18.011-9.956-18.588,10.079,15.428.981-37.345,0-.128v.125l-.163,29.447,9.913-11.675-9.953,14.211-.262,16.127,9.257-15.478-9.3,17.851-.146,8.966,13.433-21.544-13.486,24.671Z" transform="translate(123.15 5.783)" fill="#3f3d56"/>
        <path id="Tracé_36" data-name="Tracé 36" d="M161.126,638.283c0,23.83-14.164,32.149-31.64,32.149-.4,0-.81-.006-1.211-.015-.81-.017-1.613-.055-2.405-.111-15.772-1.115-28.023-9.863-28.023-32.024,0-22.93,29.3-51.867,31.509-54.013l0,0c.084-.084.128-.125.128-.125S161.126,614.456,161.126,638.283Z" transform="translate(-29.073 -17.933)" fill="#57b894"/>
        <path id="Tracé_37" data-name="Tracé 37" d="M125.743,666.786l11.573-16.168-11.6,17.944-.029,1.855c-.81-.017-1.613-.055-2.405-.111l1.246-23.838-.009-.186.02-.032.119-2.254-11.631-17.988,11.666,16.3.029.478.941-18.011-9.956-18.588,10.079,15.428.981-37.344,0-.128v.125l-.163,29.447,9.913-11.675-9.953,14.211-.262,16.127L135.56,616.9l-9.3,17.851-.146,8.966,13.433-21.544-13.486,24.671Z" transform="translate(-26.483 -17.933)" fill="#3f3d56"/>
      </g>
      <g id="undraw_note_list_etto" transform="translate(59 249)">
        <path id="Tracé_72" data-name="Tracé 72" d="M1087,816.24v5a19.11,19.11,0,0,1-20.91,19c-39.15-3.72-78.12-10.64-117.4-9.43-72.42,2.21-145.44,31.83-215.54,13.53-19.77-5.16-39.32-14.13-59.66-12.2-18.25,1.73-34.49,12.05-52.17,16.89C567.55,863.79,512.8,826.49,457.06,828c-36.74,1-71.92,18.89-108.62,16.9-21.27-1.14-41.53-8.92-62.28-13.71-51.66-11.94-104.86-5.27-158.09-1.13A14,14,0,0,1,113,816.13v-4.28a14,14,0,0,1,14-14l940.92-.76A19.11,19.11,0,0,1,1087,816.24Z" transform="translate(-113 -47.49)" fill="#3f3d56"/>
        <path id="Tracé_73" data-name="Tracé 73" d="M1087,816.24v5a19.11,19.11,0,0,1-20.91,19c-39.15-3.72-78.12-10.64-117.4-9.43-72.42,2.21-145.44,31.83-215.54,13.53-19.77-5.16-39.32-14.13-59.66-12.2-18.25,1.73-34.49,12.05-52.17,16.89C567.55,863.79,512.8,826.49,457.06,828c-36.74,1-71.92,18.89-108.62,16.9-21.27-1.14-41.53-8.92-62.28-13.71-51.66-11.94-104.86-5.27-158.09-1.13A14,14,0,0,1,113,816.13v-4.28a14,14,0,0,1,14-14l940.92-.76A19.11,19.11,0,0,1,1087,816.24Z" transform="translate(-113 -47.49)" opacity="0.1"/>
        <path id="Tracé_74" data-name="Tracé 74" d="M1087,807.1v5a20.409,20.409,0,0,1-.11,2.08,19.11,19.11,0,0,1-20.8,17c-39.15-3.73-78.12-10.65-117.4-9.44-72.42,2.22-145.44,31.84-215.54,13.53-19.77-5.16-39.32-14.13-59.66-12.2-18.25,1.73-34.49,12.05-52.17,16.9-53.77,14.72-108.52-22.58-164.26-21.08-36.74,1-71.92,18.89-108.62,16.91-21.27-1.15-41.53-8.92-62.28-13.72-51.65-11.93-104.86-5.26-158.09-1.12a14,14,0,0,1-14.86-11.5A13.7,13.7,0,0,1,113,807v-4.28a14,14,0,0,1,14-14l235.83-.19,481.81-.4,223.28-.18A19.11,19.11,0,0,1,1087,807.1Z" transform="translate(-113 -47.49)" fill="#3f3d56"/>
        <path id="Tracé_75" data-name="Tracé 75" d="M856.59,791c0,2.21-4.36,4.33-12.4,6.32C812,805.27,721,811,613.59,811c-105.67,0-195.58-5.55-229-13.31-9-2.09-14-4.34-14-6.69,0-.82.6-1.63,1.78-2.43l481.81-.4C855.77,789.1,856.59,790,856.59,791Z" transform="translate(-113 -47.49)" opacity="0.1"/>
        <g id="Groupe_2" data-name="Groupe 2" opacity="0.5">
          <rect id="Rectangle_84" data-name="Rectangle 84" width="402" height="121" rx="19.03" transform="translate(48 98.51)" fill="#36334a"/>
          <rect id="Rectangle_85" data-name="Rectangle 85" width="93" height="21" transform="translate(97 124.51)" fill="#36334a"/>
          <rect id="Rectangle_86" data-name="Rectangle 86" width="285" height="11" transform="translate(97 158.51)" fill="#36334a"/>
          <rect id="Rectangle_87" data-name="Rectangle 87" width="114" height="11" transform="translate(97 182.51)" fill="#36334a"/>
          <rect id="Rectangle_88" data-name="Rectangle 88" width="402" height="121" rx="19.03" transform="translate(48 98.51)" fill="#36334a"/>
          <rect id="Rectangle_89" data-name="Rectangle 89" width="93" height="21" transform="translate(97 124.51)" fill="#4c6cf6"/>
          <rect id="Rectangle_90" data-name="Rectangle 90" width="285" height="11" transform="translate(97 158.51)" fill="#4c6cf6" opacity="0.3"/>
          <rect id="Rectangle_91" data-name="Rectangle 91" width="114" height="11" transform="translate(97 182.51)" fill="#4c6cf6" opacity="0.3"/>
        </g>
        <rect id="Rectangle_92" data-name="Rectangle 92" width="10.31" height="85.02" rx="2.29" transform="translate(667.58 211.54)" fill="#3f3d56"/>
        <rect id="Rectangle_93" data-name="Rectangle 93" width="5.79" height="27.99" rx="1.5" transform="translate(324.76 144.93)" fill="#3f3d56"/>
        <rect id="Rectangle_94" data-name="Rectangle 94" width="6.52" height="48.72" rx="1.69" transform="translate(324.55 196.17)" fill="#3f3d56"/>
        <rect id="Rectangle_95" data-name="Rectangle 95" width="6.21" height="49.14" rx="1.61" transform="translate(324.65 261.94)" fill="#3f3d56"/>
        <rect id="Rectangle_96" data-name="Rectangle 96" width="345.1" height="701.37" rx="35.69" transform="translate(328.04 52.43)" fill="#3f3d56"/>
        <rect id="Rectangle_97" data-name="Rectangle 97" width="48.19" height="9.79" rx="2.54" transform="translate(467.3 73.38)" fill="#e6e8ec"/>
        <circle id="Ellipse_59" data-name="Ellipse 59" cx="5.55" cy="5.55" r="5.55" transform="translate(522.78 72.72)" fill="#e6e8ec"/>
        <path id="Tracé_76" data-name="Tracé 76" d="M764.83,145.6v610A27.41,27.41,0,0,1,737.42,783H489.76a27.41,27.41,0,0,1-27.41-27.4v-610a27.41,27.41,0,0,1,27.41-27.41h37.06V123a22.58,22.58,0,0,0,22.57,22.57h126A22.57,22.57,0,0,0,697.91,123v-4.76h39.51a27.41,27.41,0,0,1,27.41,27.36Z" transform="translate(-113 -47.49)" fill="#36334a"/>
        <rect id="Rectangle_98" data-name="Rectangle 98" width="31" height="4" transform="translate(358 129)" fill="#3f3d56"/>
        <rect id="Rectangle_99" data-name="Rectangle 99" width="31" height="4" transform="translate(358 136)" fill="#3f3d56"/>
        <rect id="Rectangle_100" data-name="Rectangle 100" width="31" height="4" transform="translate(358 143)" fill="#3f3d56"/>
        <rect id="Rectangle_101" data-name="Rectangle 101" width="31" height="4" transform="translate(358 129)" fill="#3f3d56"/>
        <rect id="Rectangle_102" data-name="Rectangle 102" width="31" height="4" transform="translate(358 136)" fill="#3f3d56"/>
        <rect id="Rectangle_103" data-name="Rectangle 103" width="31" height="4" transform="translate(358 143)" fill="#3f3d56"/>
        <path id="Tracé_77" data-name="Tracé 77" d="M750.66,186.49h-.91l-.35-.29a7.61,7.61,0,0,0,1.78-4.89,7.44,7.44,0,1,0-7.4,7.48,7.73,7.73,0,0,0,4.88-1.78l.34.29v.92l5.74,5.75,1.72-1.72Zm-6.88,0a5.15,5.15,0,1,1,3.659-1.515,5.18,5.18,0,0,1-3.659,1.515Z" transform="translate(-113 -47.49)" fill="#3f3d56"/>
        <rect id="Rectangle_104" data-name="Rectangle 104" width="93" height="21" transform="translate(358 200)" fill="#4c6cf6"/>
        <rect id="Rectangle_105" data-name="Rectangle 105" width="285" height="11" transform="translate(358 234)" fill="#4c6cf6" opacity="0.3"/>
        <rect id="Rectangle_106" data-name="Rectangle 106" width="114" height="11" transform="translate(358 258)" fill="#4c6cf6" opacity="0.3"/>
        <rect id="Rectangle_107" data-name="Rectangle 107" width="93" height="21" transform="translate(358 444)" fill="#4c6cf6"/>
        <rect id="Rectangle_108" data-name="Rectangle 108" width="285" height="11" transform="translate(358 478)" fill="#4c6cf6" opacity="0.3"/>
        <rect id="Rectangle_109" data-name="Rectangle 109" width="114" height="11" transform="translate(358 502)" fill="#4c6cf6" opacity="0.3"/>
        <rect id="Rectangle_110" data-name="Rectangle 110" width="93" height="21" transform="translate(358 566)" fill="#4c6cf6"/>
        <rect id="Rectangle_111" data-name="Rectangle 111" width="285" height="11" transform="translate(358 600)" fill="#4c6cf6" opacity="0.3"/>
        <rect id="Rectangle_112" data-name="Rectangle 112" width="114" height="11" transform="translate(358 624)" fill="#4c6cf6" opacity="0.3"/>
        <circle id="Ellipse_60" data-name="Ellipse 60" cx="34" cy="34" r="34" transform="translate(558 642)" fill="#4c6cf6"/>
        <path id="Tracé_78" data-name="Tracé 78" d="M722.33,720.81v16.43a1.25,1.25,0,0,1-1.25,1.25h-33.5a1.25,1.25,0,0,1-1.25-1.25V711.07a1.25,1.25,0,0,1,1.25-1.25h23.31" transform="translate(-113 -47.49)" fill="none" stroke="#fff" stroke-linecap="round" stroke-miterlimit="10" stroke-width="1"/>
        <line id="Ligne_11" data-name="Ligne 11" x2="22.66" transform="translate(579.67 672)" fill="none" stroke="#fff" stroke-linecap="round" stroke-miterlimit="10" stroke-width="1"/>
        <line id="Ligne_12" data-name="Ligne 12" x2="22.67" transform="translate(580 676.67)" fill="none" stroke="#fff" stroke-linecap="round" stroke-miterlimit="10" stroke-width="1"/>
        <line id="Ligne_13" data-name="Ligne 13" x2="22.67" transform="translate(580.33 681.33)" fill="none" stroke="#fff" stroke-linecap="round" stroke-miterlimit="10" stroke-width="1"/>
        <line id="Ligne_14" data-name="Ligne 14" y2="11.33" transform="translate(605 661)" fill="none" stroke="#f0f" stroke-miterlimit="10" stroke-width="1"/>
        <line id="Ligne_15" data-name="Ligne 15" x1="11.34" transform="translate(599.33 666.67)" fill="none" stroke="#f0f" stroke-miterlimit="10" stroke-width="1"/>
        <line id="Ligne_16" data-name="Ligne 16" y2="11.33" transform="translate(605 661)" fill="none" stroke="#fff" stroke-linecap="round" stroke-miterlimit="10" stroke-width="1"/>
        <line id="Ligne_17" data-name="Ligne 17" x1="11.34" transform="translate(599.33 666.67)" fill="none" stroke="#fff" stroke-linecap="round" stroke-miterlimit="10" stroke-width="1"/>
        <path id="Tracé_79" data-name="Tracé 79" d="M1001.6,792.66c3-5.51-.4-12.27-4.29-17.18s-8.61-10-8.51-16.29c.15-9,9.7-14.31,17.33-19.09a83.994,83.994,0,0,0,15.56-12.51,22.8,22.8,0,0,0,4.78-6.4c1.58-3.52,1.54-7.52,1.44-11.37q-.51-19.26-1.91-38.49" transform="translate(-113 -47.49)" fill="none" stroke="#3f3d56" stroke-miterlimit="10" stroke-width="4"/>
        <path id="Tracé_80" data-name="Tracé 80" d="M1040.51,670.63a14,14,0,0,0-7-11.5l-3.14,6.22.1-7.53a14.217,14.217,0,0,0-4.63-.56,14,14,0,1,0,14.68,13.37Z" transform="translate(-113 -47.49)" fill="#57b894"/>
        <path id="Tracé_81" data-name="Tracé 81" d="M1015.48,765.62a14,14,0,1,1,.68-11.3l-8.77,7.13,9.65-2.23a14,14,0,0,1-1.56,6.4Z" transform="translate(-113 -47.49)" fill="#57b894"/>
        <path id="Tracé_82" data-name="Tracé 82" d="M1008.55,738.37a14,14,0,0,1-4.45-27.53l-.08,5.78,3.18-6.29h0a14,14,0,0,1,14.67,13.36,13.843,13.843,0,0,1-.6,4.79,14,14,0,0,1-12.72,9.89Z" transform="translate(-113 -47.49)" fill="#57b894"/>
        <path id="Tracé_83" data-name="Tracé 83" d="M1042.62,715.7a14,14,0,1,1,6.21-26.27l-2.48,6.8,5.1-4.9A14,14,0,0,1,1056,701a13.793,13.793,0,0,1-.35,3.87,14,14,0,0,1-13.03,10.83Z" transform="translate(-113 -47.49)" fill="#57b894"/>
        <path id="Tracé_84" data-name="Tracé 84" d="M1038.62,674.37c-3.24.35-6.39,1.36-9.64,1.56s-6.82-.57-8.88-3.1c-1.1-1.36-1.66-3.08-2.59-4.57a10,10,0,0,0-3.54-3.33,14,14,0,1,0,26.24,9.32Q1039.42,674.28,1038.62,674.37Z" transform="translate(-113 -47.49)" opacity="0.1"/>
        <path id="Tracé_85" data-name="Tracé 85" d="M1042.62,715.7a14,14,0,0,1-13.35-20,10.367,10.367,0,0,1,2.82,2.82c1,1.51,1.61,3.26,2.78,4.64,2.19,2.57,5.92,3.41,9.31,3.26s6.66-1.12,10-1.43c.47,0,.94-.07,1.42-.08a14,14,0,0,1-12.98,10.79Z" transform="translate(-113 -47.49)" opacity="0.1"/>
        <path id="Tracé_86" data-name="Tracé 86" d="M1008.55,738.37a14,14,0,0,1-13.46-19.76,11.48,11.48,0,0,1,3,2.85c1.09,1.54,1.77,3.32,3.05,4.74,2.37,2.63,6.35,3.56,9.93,3.48s6.83-.93,10.28-1.2a14,14,0,0,1-12.8,9.89Z" transform="translate(-113 -47.49)" opacity="0.1"/>
        <path id="Tracé_87" data-name="Tracé 87" d="M1015.48,765.62a14.017,14.017,0,1,1-25.59-11.45,13.843,13.843,0,0,1,3.08,2.75c1.34,1.62,2.22,3.47,3.76,5,2.87,2.82,7.5,4,11.63,4.09a59.978,59.978,0,0,0,7.12-.39Z" transform="translate(-113 -47.49)" opacity="0.1"/>
        <path id="Tracé_88" data-name="Tracé 88" d="M980.43,786.31s11.08-.34,14.42-2.72,17-5.21,17.86-1.4,16.65,19,4.15,19.06-29.06-1.94-32.4-4S980.43,786.31,980.43,786.31Z" transform="translate(-113 -47.49)" fill="#656380"/>
        <path id="Tracé_89" data-name="Tracé 89" d="M1017.08,799.93c-12.51.1-29.06-1.95-32.39-4-2.54-1.55-3.55-7.09-3.89-9.65h-.37s.7,8.94,4,11,19.89,4.07,32.4,4c3.61,0,4.85-1.31,4.78-3.21C1021.14,799.19,1019.77,799.9,1017.08,799.93Z" transform="translate(-113 -47.49)" opacity="0.2"/>
        <path id="Tracé_90" data-name="Tracé 90" d="M755,378.52v82.94a19,19,0,0,1-19,19H462.35v-121H736a19,19,0,0,1,19,19.06Z" transform="translate(-113 -47.49)" fill="#3f3d56"/>
        <rect id="Rectangle_113" data-name="Rectangle 113" width="402" height="121" rx="19.03" transform="translate(208 295)" fill="#f2f2f2"/>
        <rect id="Rectangle_114" data-name="Rectangle 114" width="402" height="121" rx="19.03" transform="translate(208 295)" fill="#f2f2f2"/>
        <rect id="Rectangle_115" data-name="Rectangle 115" width="93" height="21" transform="translate(257 321)" fill="#4c6cf6"/>
        <rect id="Rectangle_116" data-name="Rectangle 116" width="285" height="11" transform="translate(257 355)" fill="#4c6cf6" opacity="0.3"/>
        <rect id="Rectangle_117" data-name="Rectangle 117" width="114" height="11" transform="translate(257 379)" fill="#4c6cf6" opacity="0.3"/>
        <circle id="Ellipse_61" data-name="Ellipse 61" cx="35.75" cy="35.75" r="35.75" transform="translate(56.59 211.09)" fill="#3f3d56"/>
        <path id="Tracé_91" data-name="Tracé 91" d="M184.6,572.43c3.69,25.89-.81,52.29-7.82,77.48-1.31,4.69-2.72,9.42-5.17,13.63s-5.86,7.83-8.74,11.79c-6,8.26-9.52,18-12.81,27.64a779.659,779.659,0,0,0-22.82,81.32,5.57,5.57,0,0,0,0,3.47c.87,2,3.51,2.26,5.68,2.25l28.06-.15c1-1.92-.85-4-2-5.84-4-6.22-.16-14.3,3.37-20.81a223.738,223.738,0,0,0,19.78-50c1.92-7.33,3.48-14.82,6.6-21.73,3.77-8.38,9.68-15.59,14.48-23.43,5.58-9.11,9.65-19,13.69-28.93,5.64-13.78,11.33-27.73,13.55-42.45,2.09-13.82,1.06-27.9-.3-41.81a2.64,2.64,0,0,0-3.06-3l-37.65-1.94c-7.76-.4-9.6-2.1-8.42,5.52C181.84,561.13,183.78,566.67,184.6,572.43Z" transform="translate(-113 -47.49)" fill="#3f3d56"/>
        <path id="Tracé_92" data-name="Tracé 92" d="M184.6,572.43c3.69,25.89-.81,52.29-7.82,77.48-1.31,4.69-2.72,9.42-5.17,13.63s-5.86,7.83-8.74,11.79c-6,8.26-9.52,18-12.81,27.64a779.659,779.659,0,0,0-22.82,81.32,5.57,5.57,0,0,0,0,3.47c.87,2,3.51,2.26,5.68,2.25l28.06-.15c1-1.92-.85-4-2-5.84-4-6.22-.16-14.3,3.37-20.81a223.738,223.738,0,0,0,19.78-50c1.92-7.33,3.48-14.82,6.6-21.73,3.77-8.38,9.68-15.59,14.48-23.43,5.58-9.11,9.65-19,13.69-28.93,5.64-13.78,11.33-27.73,13.55-42.45,2.09-13.82,1.06-27.9-.3-41.81a2.64,2.64,0,0,0-3.06-3l-37.65-1.94c-7.76-.4-9.6-2.1-8.42,5.52C181.84,561.13,183.78,566.67,184.6,572.43Z" transform="translate(-113 -47.49)" opacity="0.1"/>
        <path id="Tracé_93" data-name="Tracé 93" d="M192,509.48c-7.65,11-15.67,23.66-13.13,36.83,1.93,10,9.55,17.75,16.74,25,28.74,28.86,57,60.92,66.78,100.47,2.52,10.22,3.74,20.71,5.91,31,3.94,18.7,11,36.58,18,54.35l18.72,47.38a28.36,28.36,0,0,0,27.1-18c-2.46-.19-5.67-2.57-7.11-4.57-8-11.07-9.64-25.31-11.69-38.81-2.27-14.92-5.3-29.72-8.34-44.51l-13.4-65.42c-1.55-7.55-3.1-15.11-5.12-22.54-7.82-28.83-22.64-56-24.93-85.81-.34-4.38-.55-9.19-3.52-12.44-3.12-3.43-8.24-4-12.87-4.27C226.41,506.9,210.25,505.07,192,509.48Z" transform="translate(-113 -47.49)" fill="#3f3d56"/>
        <path id="Tracé_94" data-name="Tracé 94" d="M141.47,783.62a29.86,29.86,0,0,0-6.22-.8,12.92,12.92,0,0,0-10.16,5.55,25.25,25.25,0,0,0-2.73,6l-2.71,7.78c-.8,2.28-1.58,4.91-.39,7A7.42,7.42,0,0,0,122.9,812c6.56,2.92,13.95,3.08,21.1,3.78,6.94.68,13.82,1.9,20.67,3.19,2.36.44,4.71.89,7.1,1.13,5.34.54,10.72,0,16.06-.48l5.51-.53a19.84,19.84,0,0,0,5.42-1,6.83,6.83,0,0,0,4-3.59c1.36-3.37-1.56-7.36-5.13-8-1.45-.29-2.95-.16-4.42-.35a20.882,20.882,0,0,1-4.84-1.45c-7.05-2.77-14.17-5.57-20.37-9.93-1.72-1.21-3.52-2.9-3.33-5a10.19,10.19,0,0,1,.89-2.59,9.46,9.46,0,0,0,.08-6.69c-.34-.92-1-1.89-1.93-2-2.64-.32-2.32,3.53-2.71,5-.53,2-1.49,2.18-3.37,2C152.23,784.91,146.83,784.64,141.47,783.62Z" transform="translate(-113 -47.49)" fill="#f2f2f2"/>
        <path id="Tracé_95" data-name="Tracé 95" d="M299.34,810.45a17.65,17.65,0,0,0,3.82,10.75,8.359,8.359,0,0,0,2.72,2.19,10.921,10.921,0,0,0,4.95.79,40.05,40.05,0,0,0,13.89-2.81,39.711,39.711,0,0,1,4.8-1.81,53.852,53.852,0,0,1,6.24-.9c8.27-1.19,15.53-6.07,23.52-8.54a49.452,49.452,0,0,0,7-2.3c3.16-1.49,5.72-4,8.23-6.43a19.891,19.891,0,0,0,3.78-4.52c1.47-2.74,1.56-6,1.62-9.1a2.589,2.589,0,0,0-.24-1.41,2.1,2.1,0,0,0-.9-.71c-2.43-1.2-5.31-.6-8-.13-9.72,1.73-19.67,1.41-29.54,1.09a4.29,4.29,0,0,1-4.54-2.59l-3.75-6c-1.07-1.72-2.77-3.69-4.71-3.1-1.55.47-2.18,2.37-2.12,4s.56,3.25.25,4.84a6.61,6.61,0,0,1-3.2,4.16,20.438,20.438,0,0,1-5,1.92c-5.52,1.56-11.94,3.33-16.21,7.39C298.86,800.15,299.15,806.6,299.34,810.45Z" transform="translate(-113 -47.49)" fill="#f2f2f2"/>
        <path id="Tracé_96" data-name="Tracé 96" d="M297.4,413.75a23.17,23.17,0,0,0,5.46-5.94,24.211,24.211,0,0,0,2.33-8.21l1.57-9.92c.87-5.47,1.89-11.26,5.54-15.43s10.92-5.66,14.63-1.54c1.62,1.79,2.26,4.25,2.66,6.64a48.34,48.34,0,0,1-11.82,40c-4.49,4.92-10,8.83-14.75,13.48-4.14,4-7.73,8.59-11.55,12.94A159.422,159.422,0,0,1,260,473.27c.14-7.44,1.09-15.42,0-22.81-.81-5.34-3-8.22,2.17-11.71C274.17,430.59,286.28,423.21,297.4,413.75Z" transform="translate(-113 -47.49)" fill="#fbbebe"/>
        <path id="Tracé_97" data-name="Tracé 97" d="M196.56,340.57c-.39,5.32-2.6,10.76-7,13.83q18.69,6.54,36.87,14.42c-2.34-2.25-3.05-5.7-3.16-8.94-.31-8.47,2.62-16.8,6.9-24.1a5.85,5.85,0,0,0,1.13-3.18c-.14-2.36-2.94-3.45-5.24-4a128.859,128.859,0,0,0-23.92-3.47c-3.45-.11-7.54-1.2-6.76,3.19C196.12,332.42,196.87,336.42,196.56,340.57Z" transform="translate(-113 -47.49)" fill="#fbbebe"/>
        <circle id="Ellipse_62" data-name="Ellipse 62" cx="29.23" cy="29.23" r="29.23" transform="translate(78.43 237.47)" fill="#fbbebe"/>
        <path id="Tracé_98" data-name="Tracé 98" d="M249.6,393.14a35.361,35.361,0,0,0-3.71-6.22c-5.3-7.61-10.74-15.21-17.54-21.51a109.19,109.19,0,0,0-16.65-12.23,37.789,37.789,0,0,0-10.42-5,40.766,40.766,0,0,0-6.69-.91l-7.59-.62a6.209,6.209,0,0,0-2,.06c-2.06.52-3,3.08-2.56,5.15s2,3.75,3.38,5.32c.34,15.49-6.55,30.77-7.48,46.24-1.63,27,14.88,52.21,16.2,79.28a8.55,8.55,0,0,1-.38,3.63c-.22.56-.55,1.07-.8,1.62-.78,1.7-.75,3.63-.89,5.5a27.94,27.94,0,0,1-8.23,17.62,12.23,12.23,0,0,0,4.64,3.54c3.19,1.39,7,1.51,10.39,2.48,8.84,2.58,17.9,5.18,27.09,4.63a23.9,23.9,0,0,0,2.09-7.87c1.3-.81,2.8.92,3,2.44s-.09,3.29,1,4.39,2.47.93,3.8.76c5.61-.71,11-2.6,16.5-3.87s11.38-1.88,16.73-.06c1.08-1.37.62-3.4-.26-4.9s-2.13-2.82-2.63-4.49a10.08,10.08,0,0,1-.32-2.95c0-8.55,1.76-17.19.09-25.58-.49-2.46-1.27-4.86-1.77-7.33-1-4.79-.85-9.73-.72-14.62s-.46-10.18-.56-15.14a48.291,48.291,0,0,0-.4-6.13c-.34-2.13-1-4.21-1.18-6.36-.54-5.46,1.66-10.88,1.33-16.36C262.51,405.33,252.84,400.81,249.6,393.14Z" transform="translate(-113 -47.49)" fill="#ee635d"/>
        <path id="Tracé_99" data-name="Tracé 99" d="M183.63,389.22c-7.08,18.78-10.54,38.7-14,58.48l-8,46.46c-2.27,13.13-4.55,26.34-4.46,39.66,0,3.74.24,7.55-.74,11.16-1.28,4.74-4.46,8.69-6.87,13a42.78,42.78,0,0,0-4.6,28.93c.82,4.15,3.06,8.86,7.27,9.34,3.46.38,6.45-2.37,8.47-5.21,4.64-6.51,6.94-14.37,9-22.11a500.113,500.113,0,0,0,13.87-77.09,75.06,75.06,0,0,1,1.39-9.8,69.543,69.543,0,0,1,3.38-9.76q4.59-11.38,9.19-22.76c7.07-17.53,14.18-35.14,23.89-51.36-9.6-2.76-19.59-6-29.19-8.73C189.46,388.61,186.49,389.1,183.63,389.22Z" transform="translate(-113 -47.49)" fill="#fbbebe"/>
        <path id="Tracé_100" data-name="Tracé 100" d="M200.27,403.46c-6.72-1.45-13.67-1-20.53-1.17a4.43,4.43,0,0,1-2.76-.72c-1.39-1.19-.8-3.42-.1-5.11l3.32-8a11.64,11.64,0,0,1,2.66-4.42c1.69-1.5,4.07-1.87,6.31-2.14,7.29-.84,14.79-1.12,21.86.85s13.72,6.45,16.88,13.08c1.32,2.76,1.93,6.24.18,8.75-2.6,3.73-8.43,7.9-12.78,5.86C210.1,408,206.11,404.73,200.27,403.46Z" transform="translate(-113 -47.49)" fill="#ee635d"/>
        <path id="Tracé_101" data-name="Tracé 101" d="M236,268.79a29.52,29.52,0,0,0-16.28,4.69,35.75,35.75,0,0,0-35.1-8.22A20.43,20.43,0,1,0,161,288.91,35.75,35.75,0,1,0,229.57,309a32,32,0,0,0,6.41.65c14.1,0,25.54-9.15,25.54-20.43S250.08,268.79,236,268.79Z" transform="translate(-113 -47.49)" fill="#3f3d56"/>
        <path id="Tracé_102" data-name="Tracé 102" d="M241.09,299.43a31.1,31.1,0,0,1-6.41-.65A35.569,35.569,0,0,1,230,309.07a32.108,32.108,0,0,0,6,.58c13.18,0,24-8,25.39-18.24C256.7,296.29,249.35,299.43,241.09,299.43Z" transform="translate(-113 -47.49)" opacity="0.1"/>
        <path id="Tracé_103" data-name="Tracé 103" d="M200.23,325a35.8,35.8,0,0,1-34.18-46.28,20.43,20.43,0,0,1-16.89-20.12,20.09,20.09,0,0,1,.33-3.66,20.43,20.43,0,0,0,11.46,34,35.75,35.75,0,1,0,68.29,21.18A35.68,35.68,0,0,1,200.23,325Z" transform="translate(-113 -47.49)" opacity="0.1"/>
      </g>
    </g>
  </g>
</svg>
