<svg xmlns="http://www.w3.org/2000/svg" xmlns:xlink="http://www.w3.org/1999/xlink" width="1064.506" height="264.064" viewBox="0 0 1064.506 264.064">
  <defs>
    <clipPath id="clip-path">
      <path id="Union_16" data-name="Union 16" d="M43.21,130.66a1.554,1.554,0,0,0,1.552-1.487l2.576-59.348c0-3.515,3.8-19.666,6.354-40.953l.4-27.295q0-.01,0-.02A1.554,1.554,0,0,0,52.5,0L11.042,1.081A3.885,3.885,0,0,0,7.295,4.435L0,57.439l1.378,70.908a.777.777,0,0,0,.777.762H12.6a.777.777,0,0,0,.773-.7L19.8,66.324c.309-4.428,10.507-24.413,10.507-24.413s-.84,14.774-.84,21.1l2.567,66.154a1.554,1.554,0,0,0,1.553,1.494Z" transform="translate(54.09 130.66) rotate(180)" fill="none"/>
    </clipPath>
    <clipPath id="clip-path-2">
      <path id="Mask" d="M-49.312,91.232c.059,1.137.968,2.087.571,2.157-12.86,2.27-22.752,1.493-27.684,1.554-7.907.1-9.757-3.811-14.5-3.064-13.968,2.2-8.822-2.2-8.822-2.2s1.994-19.961,2.041-28.145c.077-13.212.867-24.27,1.068-28.748l-1.469,1.238a.777.777,0,0,1-.822.113l-15.831-7.194a.777.777,0,0,1-.331-1.13l8.059-12.452C-100.813,9.475-90.709-1.4-89.932.151S-82.413,4.457-77.2,4.457s7.006-1.895,9.47-3.446C-63.508,1.7-58.068,5.67-54.182,8.3s1.848,38.508,1.848,48.131S-50.419,69.823-49.312,91.232Z" transform="translate(115.214 0)" fill="#ff4133"/>
    </clipPath>
    <linearGradient id="linear-gradient" x1="0.502" x2="0.502" y2="1" gradientUnits="objectBoundingBox">
      <stop offset="0" stop-opacity="0.063"/>
      <stop offset="1" stop-opacity="0.031"/>
    </linearGradient>
    <clipPath id="clip-path-3">
      <path id="Mask-2" data-name="Mask" d="M.134,16.084a.719.719,0,0,1,.192-1.019L23.306,0c.346,1.274,9.06,16.112,7.779,17.386S11.635,32.034,10.588,30.76Z" fill="#f7c475"/>
    </clipPath>
    <filter id="Combined_Shape" x="885.683" y="23.99" width="47.212" height="46.632" filterUnits="userSpaceOnUse">
      <feOffset dx="3" dy="3" input="SourceAlpha"/>
      <feGaussianBlur stdDeviation="3.5" result="blur"/>
      <feFlood flood-opacity="0.141"/>
      <feComposite operator="in" in2="blur"/>
      <feComposite in="SourceGraphic"/>
    </filter>
    <clipPath id="clip-path-4">
      <path id="Mask-3" data-name="Mask" d="M.134,16.084a.719.719,0,0,1,.192-1.019L23.306,0c.346,1.274,9.06,16.112,7.779,17.386S11.635,32.034,10.588,30.76Z" fill="rgba(255,255,255,0)"/>
    </clipPath>
    <filter id="Path_10" x="881.252" y="27.979" width="56.958" height="56.517" filterUnits="userSpaceOnUse">
      <feOffset dy="3" input="SourceAlpha"/>
      <feGaussianBlur stdDeviation="3" result="blur-2"/>
      <feFlood flood-opacity="0.18"/>
      <feComposite operator="in" in2="blur-2"/>
      <feComposite in="SourceGraphic"/>
    </filter>
    <filter id="Path_37" x="892.641" y="42.774" width="41.539" height="37.324" filterUnits="userSpaceOnUse">
      <feOffset dy="3" input="SourceAlpha"/>
      <feGaussianBlur stdDeviation="3" result="blur-3"/>
      <feFlood flood-opacity="0.18"/>
      <feComposite operator="in" in2="blur-3"/>
      <feComposite in="SourceGraphic"/>
    </filter>
    <linearGradient id="linear-gradient-2" x1="0.5" y1="1" x2="0.5" gradientUnits="objectBoundingBox">
      <stop offset="0" stop-color="#d4a181"/>
      <stop offset="1" stop-color="#c89676"/>
    </linearGradient>
  </defs>
  <g id="Groupe_168" data-name="Groupe 168" transform="translate(11.002 -814.859)">
    <path id="Path_12" data-name="Path 12" d="M-655.52-9.583C-639.643.065-479.353,91.928-415.326,119.582c51.77,17.826,224.787,53.341,349.346,47.809,135.874-6.035,263.523-62.455,277.162-72.064,11.287-7.952,20.969-17.2,30.66-26.758C264.834,45.881,287.318,21.893,330.212,12c60.671-13.986,120.764,49.917,22.535,71.731S213.016,54.909,213.016,36.28,238.917,0,238.917,0" transform="translate(646.518 878.231)" fill="none" stroke="#4c6cf6" stroke-linecap="round" stroke-miterlimit="10" stroke-width="4" stroke-dasharray="10 20"/>
    <g id="Group_6" data-name="Group 6" transform="translate(875.349 814.809)">
      <g id="Group_4" data-name="Group 4" transform="matrix(-0.998, 0.07, -0.07, -0.998, 124.105, 260.506)">
        <path id="Path_21" data-name="Path 21" d="M9.756,0l.654,9.357H.606L0,.682Z" transform="translate(19.823 18.183) rotate(-172)" fill="#d4a181"/>
        <path id="Path_22" data-name="Path 22" d="M11.125.73l-.608,8.692-9.671.762L0,0Z" transform="translate(52.336 21.332) rotate(180)" fill="#d4a181"/>
        <g id="Path_6" data-name="Path 6" transform="translate(0 17.822)">
          <g id="Mask-4" data-name="Mask" transform="translate(0 0)">
            <path id="Mask-5" data-name="Mask" d="M53.693,28.871C51.14,50.159,47.338,66.31,47.338,69.825l-2.575,59.348a1.554,1.554,0,0,1-1.552,1.487H33.589a1.554,1.554,0,0,1-1.553-1.494L29.469,63.012c0-6.327.84-21.1.84-21.1S20.112,61.9,19.8,66.324l-6.434,62.088a.777.777,0,0,1-.773.7H2.154a.777.777,0,0,1-.777-.762L0,57.439l7.295-53a3.885,3.885,0,0,1,3.747-3.354L52.5,0A1.554,1.554,0,0,1,54.09,1.577Z" transform="translate(54.09 130.659) rotate(180)" fill="none"/>
            <path id="Mask-6" data-name="Mask" d="M53.693,28.871C51.14,50.159,47.338,66.31,47.338,69.825l-2.575,59.348a1.554,1.554,0,0,1-1.552,1.487H33.589a1.554,1.554,0,0,1-1.553-1.494L29.469,63.012c0-6.327.84-21.1.84-21.1S20.112,61.9,19.8,66.324l-6.434,62.088a.777.777,0,0,1-.773.7H2.154a.777.777,0,0,1-.777-.762L0,57.439l7.295-53a3.885,3.885,0,0,1,3.747-3.354L52.5,0A1.554,1.554,0,0,1,54.09,1.577Z" transform="translate(54.09 130.659) rotate(180)" fill="rgba(4,3,39,0.86)"/>
          </g>
          <g id="Path_6-2" data-name="Path 6" transform="translate(0 0)" clip-path="url(#clip-path)">
            <path id="Path_6-3" data-name="Path 6" d="M66.479,41.576s2.255-9.968,4.131-14.51,2.635-15.393,3.069-21.594S42.118.029,42.118.029L27.384,77.008S-2.2,143.481.13,143.644s35.856,10.3,38.222,10.461,18.048-1.854,18.211-4.179S66.479,41.576,66.479,41.576Z" transform="translate(92.461 121.131) rotate(180)" fill="rgba(255,255,255,0.05)"/>
            <path id="Path_26" data-name="Path 26" d="M3.605,1.783c-5.44-4.011-3.109,0-3.109,0S1.7,18.829,1.7,16.823,9.046,5.793,3.605,1.783Z" transform="translate(50.414 110.236) rotate(180)" fill="rgba(0,0,0,0.24)"/>
          </g>
        </g>
        <path id="Path_24" data-name="Path 24" d="M1.162.965S.157-.513.157.19A4.743,4.743,0,0,0,.316,3.032c.6,1.44,12.571,8.771,16.762,9.065s5.722-1.157,6.433-1.662,1.694-2.1.293-4.208-1.728,2.2-3.828,2.2S1.162.965,1.162.965Z" transform="translate(64.662 13.403) rotate(180)" fill="#e8ba6e"/>
        <g id="Group_5" data-name="Group 5" transform="translate(9.104 0)">
          <path id="Path_25" data-name="Path 25" d="M.743,0A3.06,3.06,0,0,0,0,1.927,4.377,4.377,0,0,0,1.1,4.958C3,7.91,11.545,14.7,14.646,14.914s5.552-1.392,5.7-3.5S11.5,9.587,11.5,9.587Z" transform="translate(20.416 14.933) rotate(180)" fill="#e8ba6e"/>
          <path id="Path_23" data-name="Path 23" d="M18.951,4.848c.652.193,1.91,7.745.7,8.436a11.4,11.4,0,0,1-7,.7c-2.1-.7-10.8-6.254-12.2-9.769S1.154,0,3.254,0a40.577,40.577,0,0,1,6.17.89L9.148,4.848s4.575,2.682,7.392,2.682S18.3,4.656,18.951,4.848Z" transform="translate(20.157 16.055) rotate(180)" fill="#3f3f3f"/>
        </g>
        <path id="Path_23-2" data-name="Path 23" d="M22.113,4.914s1.4-1.406,1.4,0,.933,7.927-.7,8.436-4.9,1.408-7,.706S3.076,7.123.813,4.219,1.515,0,3.615,0,9.75.921,11.306.92s1.7,1.259,1.7,1.962a2.717,2.717,0,0,0,.769,1.483l7.637.549Z" transform="matrix(-0.995, 0.105, -0.105, -0.995, 64.764, 15.042)" fill="#3f3f3f"/>
      </g>
      <path id="Path_20" data-name="Path 20" d="M23.315,6.216S24.87,19.424,24.87,20.978,17.1,26.417,13.212,27.194s-10.1,0-10.1,0L0,18.648l11.658-.777L10.1,8.547,9.326,0Z" transform="translate(101.496 67.28)" fill="#d4a181"/>
      <path id="Path_28" data-name="Path 28" d="M0,0S4.39.945,6.019,1.5c4,1.355,6.174,2.871,7.391,4.247l9.025,12.4a.777.777,0,0,1-.393,1.2L9.657,23.271Z" transform="translate(110.822 49.409) rotate(19)" fill="#4c6cf6"/>
      <g id="Group_10" data-name="Group 10" transform="matrix(0.999, -0.035, 0.035, 0.999, 68.05, 1.055)">
        <path id="Path_31" data-name="Path 31" d="M5.457,35.287s.419-3.062.48-4.624c.1-2.487.1-6.086-2.33-6.086-4.8,0-3.453-11.125-3.374-14.492C.356,4.886-.32-1.025,3.607.151c6.47,1.937,14.055.671,16,1.317S24.132.176,24.132,5.342s.647,5.165-1.294,10.33-.383,5.811-.383,9.685S28.768,37.94,28.768,37.94s-9.2,2.423-13.588,1.937S5.457,35.287,5.457,35.287Z" transform="translate(1.464 8.988)" fill="#d4a181"/>
        <path id="Path_32" data-name="Path 32" d="M17.876,36.165c6.125,0,7.093-6.372,7.8-8.5S31.285,14.358,27.16,6.281,7.971-.8,1.561,2.181c-2.954,1.374-1.419,9.2,2.128,9.2,1.207,0,1.5,3.623,3.547,8.5C9.07,24.259,9.573,30.9,12.2,34.041,13.672,35.8,16.593,36.165,17.876,36.165Z" transform="translate(0 0)" fill="#2f2f2f"/>
      </g>
      <path id="Combined_Shape-2" data-name="Combined Shape" d="M31.752,35.886C22.686,33.62,15.273,25.573,11.922,21.378c-1.5-1.261-3.8-4.458-5.039-5.693-1.175-1.175-4.663-3.108-5.441-4.662S-.889,3.253.665,2.477,9.214-2.186,9.991,1.7s1.554,3.108,2.331,4.662a9.077,9.077,0,0,0,3.109,3.885C15.5,10.3,16.75,11.3,16.75,11.3l3.064,2.341c3.28,2.237,7.745,5.307,9.607,6.7A73.141,73.141,0,0,1,34.084,6.361c1.706-3.98,15.544,4.662,15.544,4.662s-2.615,8.266-3.886,11.655c-.172.458-3.728,7.4-3.886,7.77a9.585,9.585,0,0,1-8.714,5.589A5.82,5.82,0,0,1,31.752,35.886Z" transform="translate(18.867 56.863) rotate(8)" fill="#d4a181"/>
      <g id="Path_39" data-name="Path 39" transform="translate(50.567 41.488)">
        <path id="Mask-7" data-name="Mask" d="M-49.312,91.232c.059,1.137.968,2.087.571,2.157-12.86,2.27-22.752,1.493-27.684,1.554-7.907.1-9.757-3.811-14.5-3.064-13.968,2.2-8.822-2.2-8.822-2.2s1.994-19.961,2.041-28.145c.077-13.212.867-24.27,1.068-28.748l-1.469,1.238a.777.777,0,0,1-.822.113l-15.831-7.194a.777.777,0,0,1-.331-1.13l8.059-12.452C-100.813,9.475-90.709-1.4-89.932.151S-82.413,4.457-77.2,4.457s7.006-1.895,9.47-3.446C-63.508,1.7-58.068,5.67-54.182,8.3s1.848,38.508,1.848,48.131S-50.419,69.823-49.312,91.232Z" transform="translate(115.214 0)" fill="#4c6cf6"/>
        <g id="Path_39-2" data-name="Path 39" transform="translate(0 0)" clip-path="url(#clip-path-2)">
          <path id="Path_39-3" data-name="Path 39" d="M.42,7.012,3.561,3.081a.777.777,0,0,1,1.383.529L3.529,28.371C3.529,39.249.42,51.68.42,51.68S-.357,8.963.42,7.012Z" transform="translate(17.09 26.168)" fill="rgba(30,0,0,0.11)"/>
          <path id="Path_7" data-name="Path 7" d="M.275,12.973c1.8,2.817,4.97,14.5,7.3,14.5S19.2,28.6,19.582,33.4s7.424,69.863,7.424,69.863h10.1s.08-68.865.914-69.863,2.195-4.506,5.3-6.437S42.046,9.793,42.046,9.793,9.131,0,7.576,0-1.522,10.156.275,12.973Z" transform="translate(14.597 -5.829)" fill="url(#linear-gradient)"/>
        </g>
      </g>
      <path id="Path_11" data-name="Path 11" d="M0,2.373A15.669,15.669,0,0,0,6.217,5.481c3.456.72,8.549,1.762,14.766,0,2.694-.764,4.663-1.535,4.663-2.331,0-.777-1.622-1.245-1.879-1.357-.453-.2-3.566,1.519-7.447,1.94S6.217,2.373,3.886,1.6,2.332-.224,1.554.042,0,2.373,0,2.373Z" transform="translate(74.295 40.043)" fill="#4c6cf6"/>
      <path id="Path_29" data-name="Path 29" d="M3.431,6.14l9.326-.777s2.332,0,2.332-.777L14.432.649A.777.777,0,0,0,13.58,0L.322,1.478c-.777,0,0,4.662.777,4.662Z" transform="matrix(0.995, 0.105, -0.105, 0.995, 99.982, 238.297)" fill="#474779"/>
      <path id="Path_30" data-name="Path 30" d="M14.766,3.915V.849a.777.777,0,0,0-.818-.776L0,.807,1.354,4.869a.777.777,0,0,0,.828.526Z" transform="translate(68.077 239.739)" fill="#474779"/>
      <g id="Group_7" data-name="Group 7" transform="matrix(0.978, 0.208, -0.208, 0.978, 8.037, 26.318)">
        <g id="Group_8" data-name="Group 8" transform="translate(5.158 7.812)">
          <path id="Mask-8" data-name="Mask" d="M.134,16.084a.719.719,0,0,1,.192-1.019L23.306,0c.346,1.274,9.06,16.112,7.779,17.386S11.635,32.034,10.588,30.76Z" transform="translate(0 0)" fill="#f7c475"/>
          <g id="Group_8-2" data-name="Group 8" transform="translate(0 0)" clip-path="url(#clip-path-3)">
            <path id="Path_37-2" data-name="Path 37" d="M.887,18.869a.636.636,0,0,1-.852-.79L6.16,0c1.312,0,16.4,8.02,17.052,9.359Z" transform="translate(6.699 13.09) rotate(-13)" fill="#f6b36a"/>
          </g>
        </g>
        <path id="Path_9" data-name="Path 9" d="M.985,20.107a.636.636,0,0,1-.979-.615L2.535,0,22.72,4.605a.636.636,0,0,1,.207,1.153Z" transform="matrix(1, -0.017, 0.017, 1, 5.051, 3.353)" fill="#f7c475"/>
        <g transform="matrix(0.98, -0.21, 0.21, 0.98, -880.3, 160.26)" filter="url(#Combined_Shape)">
          <path id="Combined_Shape-3" data-name="Combined Shape" d="M18.39,25.186,5.66,21.778.105,8.921A1.273,1.273,0,0,1,.784,7.242L17.915.1a1.272,1.272,0,0,1,1.658.67l6.2,14.357-7.386,10.06Z" transform="translate(893.18 31.94) rotate(-1)" fill="#4c6cf6"/>
        </g>
        <g id="Group_9" data-name="Group 9" transform="translate(5.158 7.812)">
          <path id="Mask-9" data-name="Mask" d="M.134,16.084a.719.719,0,0,1,.192-1.019L23.306,0c.346,1.274,9.06,16.112,7.779,17.386S11.635,32.034,10.588,30.76Z" transform="translate(0 0)" fill="rgba(255,255,255,0)"/>
          <g id="Group_9-2" data-name="Group 9" transform="translate(0 0)" clip-path="url(#clip-path-4)">
            <g transform="matrix(0.98, -0.21, 0.21, 0.98, -885.46, 152.45)" filter="url(#Path_10)">
              <path id="Path_10-2" data-name="Path 10" d="M0,15.451l18.217,4.415L24.161,0l8.786,17.659L11.714,32.374Z" transform="matrix(0.98, 0.21, -0.21, 0.98, 896.98, 33.98)" fill="#f2c073"/>
            </g>
            <g transform="matrix(0.98, -0.21, 0.21, 0.98, -885.46, 152.45)" filter="url(#Path_37)">
              <path id="Path_37-3" data-name="Path 37" d="M.887,18.869a.636.636,0,0,1-.852-.79L6.16,0c1.312,0,16.4,8.02,17.052,9.359Z" transform="translate(901.64 49.18) rotate(-1)" fill="#f6c66a"/>
            </g>
          </g>
        </g>
      </g>
      <path id="Path_36" data-name="Path 36" d="M3.637,0c1.1-.038.227,2.854.192,5.491-.02,1.5.112,3.2.154,4.393C4.136,14.24.024,12.3,0,11.485-.066,8.919,1.324.081,3.637,0Z" transform="translate(14.901 62.767) rotate(-43)" fill="url(#linear-gradient-2)"/>
    </g>
    <path id="Path_40" data-name="Path 40" d="M0,4.992,12.712,0" transform="translate(887.168 852.012)" fill="none" stroke="rgba(4,4,4,0.06)" stroke-linecap="round" stroke-miterlimit="10" stroke-width="3"/>
    <path id="Path_42" data-name="Path 42" d="M0,5,13.1,0" transform="translate(888.324 854.693)" fill="none" stroke="rgba(4,4,4,0.06)" stroke-linecap="round" stroke-miterlimit="10" stroke-width="3"/>
    <path id="Path_42-2" data-name="Path 42" d="M0,3.271,8.475,0" transform="translate(890.058 859.315)" fill="none" stroke="rgba(4,4,4,0.06)" stroke-linecap="round" stroke-miterlimit="10" stroke-width="3"/>
  </g>
</svg>
