<svg xmlns="http://www.w3.org/2000/svg" width="1064.506" height="264.064"><defs><clipPath id="a"><path data-name="Union 16" d="M43.21 130.66a1.554 1.554 0 0 0 1.552-1.487l2.576-59.348c0-3.515 3.8-19.666 6.354-40.953l.4-27.295v-.02A1.554 1.554 0 0 0 52.5 0L11.042 1.081a3.885 3.885 0 0 0-3.747 3.354L0 57.439l1.378 70.908a.777.777 0 0 0 .777.762H12.6a.777.777 0 0 0 .773-.7L19.8 66.324c.309-4.428 10.507-24.413 10.507-24.413s-.84 14.774-.84 21.1l2.567 66.154a1.554 1.554 0 0 0 1.553 1.494z" transform="rotate(180 27.045 65.33)" fill="none"/></clipPath><clipPath id="b"><path d="M-49.312 91.232c.059 1.137.968 2.087.571 2.157-12.86 2.27-22.752 1.493-27.684 1.554-7.907.1-9.757-3.811-14.5-3.064-13.968 2.2-8.822-2.2-8.822-2.2s1.994-19.961 2.041-28.145c.077-13.212.867-24.27 1.068-28.748l-1.469 1.238a.777.777 0 0 1-.822.113l-15.831-7.194a.777.777 0 0 1-.331-1.13l8.059-12.452c6.219-3.886 16.323-14.761 17.1-13.21s7.519 4.306 12.732 4.306 7.006-1.895 9.47-3.446c4.222.689 9.662 4.659 13.548 7.289s1.848 38.508 1.848 48.131 1.915 13.392 3.022 34.801z" transform="translate(115.214)" fill="#ff4133"/></clipPath><linearGradient id="c" x1=".502" x2=".502" y2="1" gradientUnits="objectBoundingBox"><stop offset="0" stop-opacity=".063"/><stop offset="1" stop-opacity=".031"/></linearGradient><clipPath id="d"><path data-name="Mask" d="M.134 16.084a.719.719 0 0 1 .192-1.019L23.306 0c.346 1.274 9.06 16.112 7.779 17.386S11.635 32.034 10.588 30.76z" fill="#f7c475"/></clipPath><filter id="e" x="885.683" y="23.99" width="47.212" height="46.632" filterUnits="userSpaceOnUse"><feOffset dx="3" dy="3"/><feGaussianBlur stdDeviation="3.5" result="blur"/><feFlood flood-opacity=".141"/><feComposite operator="in" in2="blur"/><feComposite in="SourceGraphic"/></filter><clipPath id="f"><path data-name="Mask" d="M.134 16.084a.719.719 0 0 1 .192-1.019L23.306 0c.346 1.274 9.06 16.112 7.779 17.386S11.635 32.034 10.588 30.76z" fill="rgba(255,255,255,0)"/></clipPath><filter id="g" x="881.252" y="27.979" width="56.958" height="56.517" filterUnits="userSpaceOnUse"><feOffset dy="3"/><feGaussianBlur stdDeviation="3" result="blur-2"/><feFlood flood-opacity=".18"/><feComposite operator="in" in2="blur-2"/><feComposite in="SourceGraphic"/></filter><filter id="h" x="892.641" y="42.774" width="41.539" height="37.324" filterUnits="userSpaceOnUse"><feOffset dy="3"/><feGaussianBlur stdDeviation="3" result="blur-3"/><feFlood flood-opacity=".18"/><feComposite operator="in" in2="blur-3"/><feComposite in="SourceGraphic"/></filter><linearGradient id="i" x1=".5" y1="1" x2=".5" gradientUnits="objectBoundingBox"><stop offset="0" stop-color="#d4a181"/><stop offset="1" stop-color="#c89676"/></linearGradient></defs><g data-name="Groupe 168"><path data-name="Path 12" d="M2 53.789C17.877 63.437 178.167 155.3 242.194 182.954c51.77 17.826 224.787 53.341 349.346 47.809 135.874-6.035 263.523-62.455 277.162-72.064 11.287-7.952 20.969-17.2 30.66-26.758 22.992-22.688 45.476-46.676 88.37-56.569 60.671-13.986 120.764 49.917 22.535 71.731s-139.731-28.822-139.731-47.451 25.901-36.28 25.901-36.28" fill="none" stroke="#4c6cf6" stroke-linecap="round" stroke-miterlimit="10" stroke-width="4" stroke-dasharray="10 20"/><g data-name="Group 6"><g data-name="Group 4"><path data-name="Path 21" d="M999.137 244.376l.001 9.384-9.784-.682-.002-8.7z" fill="#d4a181"/><path data-name="Path 22" d="M967.885 242.78l.002 8.717-9.598 1.438-1.558-10.105z" fill="#d4a181"/><g data-name="Path 6"><g data-name="Mask"><path data-name="Mask" d="M1001.687 141.113c-1.058 21.424-3.721 37.809-3.475 41.317l1.584 59.41a1.555 1.555 0 0 1-1.445 1.592l-9.602.674a1.555 1.555 0 0 1-1.655-1.383l-7.193-65.842c-.442-6.314-.638-21.116-.638-21.116s-8.778 20.662-8.78 25.099l-2.074 62.414a.777.777 0 0 1-.723.753l-10.418.73a.777.777 0 0 1-.829-.706l-6.338-70.673 3.57-53.404a3.887 3.887 0 0 1 3.505-3.61l41.3-3.985a1.555 1.555 0 0 1 1.697 1.463z" fill="none"/><path data-name="Mask" d="M1001.687 141.113c-1.058 21.424-3.721 37.809-3.475 41.317l1.584 59.41a1.555 1.555 0 0 1-1.445 1.592l-9.602.674a1.555 1.555 0 0 1-1.655-1.383l-7.193-65.842c-.442-6.314-.638-21.116-.638-21.116s-8.778 20.662-8.78 25.099l-2.074 62.414a.777.777 0 0 1-.723.753l-10.418.73a.777.777 0 0 1-.829-.706l-6.338-70.673 3.57-53.404a3.887 3.887 0 0 1 3.505-3.61l41.3-3.985a1.555 1.555 0 0 1 1.697 1.463z" fill="rgba(4,3,39,0.86)"/></g><g data-name="Path 6" clip-path="url(#a)" transform="matrix(-.998 .07 -.07 -.998 1009.208 242.67)"><path data-name="Path 6" d="M25.982 79.555s-2.255 9.968-4.131 14.51-2.635 15.393-3.069 21.594 31.561 5.443 31.561 5.443l14.734-76.979S94.661-22.35 92.331-22.513s-35.856-10.3-38.222-10.461-18.048 1.854-18.211 4.179-9.916 108.35-9.916 108.35z" fill="rgba(255,255,255,0.05)"/><path data-name="Path 26" d="M46.809 108.453c5.44 4.011 3.109 0 3.109 0s-1.204-17.046-1.204-15.04-7.346 11.03-1.905 15.04z" fill="rgba(0,0,0,0.24)"/></g></g><path data-name="Path 24" d="M946.212 252.488s-1.106-1.405-1.057-.703a4.745 4.745 0 0 0 .358 2.825c.7 1.395 13.16 7.873 17.363 7.873s5.63-1.555 6.304-2.108 1.543-2.215-.003-4.22-1.57 2.316-3.666 2.463-19.299-6.13-19.299-6.13z" fill="#e8ba6e"/><g data-name="Group 5"><path data-name="Path 25" d="M980.691 247.567a3.061 3.061 0 0 0-.606 1.975 4.379 4.379 0 0 0 1.31 2.948c2.102 2.813 11.106 8.992 14.215 8.988s5.444-1.778 5.444-3.892-8.956-1.204-8.956-1.204z" fill="#e8ba6e"/><path data-name="Path 23" d="M999.382 249.993c.664.147 2.448 7.596 1.29 8.37a11.405 11.405 0 0 1-6.938 1.189c-2.145-.552-11.216-5.486-12.86-8.896s.407-4.255 2.503-4.402a40.595 40.595 0 0 1 6.22.456l.002 3.97s4.753 2.356 7.565 2.159 1.555-2.992 2.218-2.846z" fill="#3f3f3f"/></g><path data-name="Path 23" d="M967.422 250.964s1.134-1.63 1.38-.245 2.302 7.651.781 8.438-4.584 2.242-6.776 1.917-13.764-4.612-16.501-7.08-.044-4.28 2.026-4.647 6.207-.162 7.74-.435 1.896.945 2.019 1.637a2.72 2.72 0 0 0 1.016 1.328l7.624-.791z" fill="#3f3f3f"/></g><path data-name="Path 20" d="M1011.162 73.446s1.555 13.208 1.555 14.762-7.77 5.439-11.658 6.216-10.1 0-10.1 0l-3.112-8.546 11.658-.777-1.558-9.324-.774-8.547z" fill="#d4a181"/><path data-name="Path 28" d="M997.173 49.359s3.843 2.323 5.203 3.378c3.34 2.583 4.903 4.725 5.605 6.422l4.497 14.662a.777.777 0 0 1-.763 1.007l-12.987-.322z" fill="#4c6cf6"/><g data-name="Group 10"><path data-name="Path 31" d="M962.865 44.993s.311-3.073.317-4.636c.013-2.488-.113-6.083-2.54-5.998-4.795.168-3.84-10.993-3.878-14.36-.06-5.198-.941-11.079 3.023-10.042 6.531 1.709 14.064.179 16.03.756s4.475-1.449 4.656 3.712.827 5.137-.931 10.365-.18 5.818-.044 9.688 6.747 12.35 6.747 12.35-9.106 2.743-13.506 2.41-9.874-4.245-9.874-4.245z" fill="#d4a181"/><path data-name="Path 32" d="M973.525 36.508c6.119-.214 6.863-6.614 7.495-8.764s5.137-13.49.734-21.415-19.418-6.402-25.717-3.2c-2.903 1.476-1.096 9.24 2.448 9.117 1.205-.043 1.625 3.566 3.84 8.367 1.986 4.31 2.72 10.926 5.455 13.972 1.532 1.706 4.463 1.968 5.745 1.923z" fill="#2f2f2f"/></g><path data-name="Combined Shape" d="M931.667 96.769c-8.663-3.506-14.884-12.506-17.618-17.127-1.31-1.457-3.143-4.943-4.198-6.339-1-1.327-4.185-3.726-4.74-5.374s-1.226-8.018.42-8.57 9.116-3.428 9.344.528 1.107 3.294 1.66 4.941a9.077 9.077 0 0 0 2.538 4.28l1.16 1.226 2.708 2.745c2.936 2.672 6.93 6.333 8.58 7.972a73.141 73.141 0 0 1 6.564-13.195c2.243-3.704 14.744 6.78 14.744 6.78s-3.74 7.821-5.47 11c-.234.43-4.722 6.81-4.93 7.154a9.585 9.585 0 0 1-9.407 4.322 5.82 5.82 0 0 1-1.355-.343z" fill="#d4a181"/><g data-name="Path 39"><path data-name="Mask" d="M1002.82 132.67c.059 1.137.968 2.087.571 2.157-12.86 2.27-22.752 1.493-27.684 1.554-7.907.1-9.757-3.811-14.5-3.064-13.968 2.2-8.822-2.2-8.822-2.2s1.994-19.961 2.041-28.145c.077-13.212.867-24.27 1.068-28.748l-1.469 1.238a.777.777 0 0 1-.822.113l-15.831-7.194a.777.777 0 0 1-.331-1.13l8.059-12.452c6.219-3.886 16.323-14.761 17.1-13.21s7.519 4.306 12.732 4.306 7.006-1.895 9.47-3.446c4.222.689 9.662 4.659 13.548 7.289s1.848 38.508 1.848 48.131 1.915 13.392 3.022 34.801z" fill="#4c6cf6"/><g data-name="Path 39" transform="translate(936.918 41.438)" clip-path="url(#b)"><path data-name="Path 39" d="M17.51 33.18l3.141-3.931a.777.777 0 0 1 1.383.529l-1.415 24.761c0 10.878-3.109 23.309-3.109 23.309s-.777-42.717 0-44.668z" fill="rgba(30,0,0,0.11)"/><path data-name="Path 7" d="M.275 12.973c1.8 2.817 4.97 14.5 7.3 14.5S19.2 28.6 19.582 33.4s7.424 69.863 7.424 69.863h10.1s.08-68.865.914-69.863 2.195-4.506 5.3-6.437-1.274-17.17-1.274-17.17S9.131 0 7.576 0-1.522 10.156.275 12.973z" transform="translate(14.597 -5.829)" fill="url(#c)"/></g></g><path data-name="Path 11" d="M960.646 42.366a15.669 15.669 0 0 0 6.217 3.108c3.456.72 8.549 1.762 14.766 0 2.694-.764 4.663-1.535 4.663-2.331 0-.777-1.622-1.245-1.879-1.357-.453-.2-3.566 1.519-7.447 1.94s-10.103-1.36-12.434-2.133-1.554-1.824-2.332-1.558-1.554 2.331-1.554 2.331z" fill="#4c6cf6"/><path data-name="Path 29" d="M989.102 244.717l9.361.206s2.32.245 2.402-.529l-.24-3.986a.777.777 0 0 0-.78-.735l-13.347.078c-.773-.081-.49 4.64.284 4.72z" fill="#474779"/><path data-name="Path 30" d="M969.194 243.604v-3.066a.777.777 0 0 0-.818-.776l-13.948.734 1.354 4.062a.777.777 0 0 0 .828.526z" fill="#474779"/><g data-name="Group 7"><g data-name="Group 8"><path data-name="Mask" d="M894.593 50.739a.719.719 0 0 1 .4-.957L920.6 39.83c.073 1.318 5.51 17.642 3.991 18.621s-22.068 10.28-22.827 8.817z" fill="#f7c475"/><g data-name="Group 8" clip-path="url(#d)" transform="rotate(12.04 285.172 4286.22)"><path data-name="Path 37" d="M11.808 31.276a.636.636 0 0 1-1.008-.578l1.901-18.994c1.278-.295 17.784 4.126 18.72 5.284z" fill="#f6b36a"/></g></g><path data-name="Path 9" d="M895.75 50.522a.636.636 0 0 1-.844-.79l6.213-18.649 18.93 8.383a.636.636 0 0 1-.017 1.171z" fill="#f7c475"/><path data-name="Combined Shape" d="M18.39 25.186L5.66 21.778.105 8.921a1.273 1.273 0 0 1 .679-1.679L17.915.1a1.272 1.272 0 0 1 1.658.67l6.2 14.357-7.386 10.06z" transform="rotate(-.62 1755.088 -47134.44) scale(1.002)" fill="#4c6cf6" filter="url(#e)"/><g data-name="Group 9"><path data-name="Mask" d="M894.593 50.739a.719.719 0 0 1 .4-.957L920.6 39.83c.073 1.318 5.51 17.642 3.991 18.621s-22.068 10.28-22.827 8.817z" fill="rgba(255,255,255,0)"/><g data-name="Group 9" clip-path="url(#f)" transform="rotate(12.04 285.172 4286.22)"><path data-name="Path 10" d="M0 15.451l18.217 4.415L24.161 0l8.786 17.659-21.233 14.715z" transform="matrix(1 0 0 1 .716 -2.615)" fill="#f2c073" filter="url(#g)"/><path data-name="Path 37" d="M.887 18.869a.636.636 0 0 1-.852-.79L6.16 0c1.312 0 16.4 8.02 17.052 9.359z" transform="rotate(-12.5 53.103 -31.754)" fill="#f6c66a" filter="url(#h)"/></g></g></g><path data-name="Path 36" d="M3.637 0c1.1-.038.227 2.854.192 5.491-.02 1.5.112 3.2.154 4.393C4.136 14.24.024 12.3 0 11.485-.066 8.919 1.324.081 3.637 0z" transform="rotate(-43 530.234 -1112.622)" fill="url(#i)"/></g><path data-name="Path 40" d="M898.17 42.145l12.712-4.992" fill="none" stroke="rgba(4,4,4,0.06)" stroke-linecap="round" stroke-miterlimit="10" stroke-width="3"/><path data-name="Path 42" d="M899.326 44.834l13.1-5M901.06 47.727l8.475-3.271" fill="none" stroke="rgba(4,4,4,0.06)" stroke-linecap="round" stroke-miterlimit="10" stroke-width="3"/></g></svg>