<svg xmlns="http://www.w3.org/2000/svg" xmlns:xlink="http://www.w3.org/1999/xlink" width="868.951" height="634.74" viewBox="0 0 868.951 634.74">
  <defs>
    <linearGradient id="linear-gradient" x1="0.5" y1="1" x2="0.5" gradientUnits="objectBoundingBox">
      <stop offset="0.01" stop-color="gray" stop-opacity="0.251"/>
      <stop offset="0.54" stop-color="gray" stop-opacity="0.122"/>
      <stop offset="1" stop-color="gray" stop-opacity="0.102"/>
    </linearGradient>
  </defs>
  <g id="Groupe_292" data-name="Groupe 292" transform="translate(-0.05)">
    <path id="Tracé_1414" data-name="Tracé 1414" d="M998.41,290.82H566.95c-42.38,0-76.74,34.69-76.74,77.48V636.48a36.26,36.26,0,0,0,36.09,36.44h274c9.12,31.56,32,75.06,89.64,94.45l-16.27-94.45H998.41a36.26,36.26,0,0,0,36.09-36.44V327.26a36.26,36.26,0,0,0-36.09-36.44Z" transform="translate(-165.5 -132.63)" opacity="0.501" fill="url(#linear-gradient)"/>
    <path id="Tracé_1415" data-name="Tracé 1415" d="M991.15,299.86H572.35a74.49,74.49,0,0,0-74.49,74.49V632.17a35,35,0,0,0,35,35H798.83c8.85,30.34,31.09,72.16,87,90.8L870,667.2H991.1a35,35,0,0,0,35-35V334.89A35,35,0,0,0,991.15,299.86Z" transform="translate(-165.5 -132.63)" fill="#fafafa"/>
    <rect id="Rectangle_2348" data-name="Rectangle 2348" width="216.47" height="27.06" transform="translate(500.77 234.16)" fill="#f0f0f0"/>
    <rect id="Rectangle_2349" data-name="Rectangle 2349" width="81.18" height="27.06" transform="translate(634.84 284.12)" fill="#f0f0f0"/>
    <rect id="Rectangle_2350" data-name="Rectangle 2350" width="160.08" height="27.06" transform="translate(554.7 334.07)" fill="#f0f0f0"/>
    <rect id="Rectangle_2351" data-name="Rectangle 2351" width="196.32" height="27.06" transform="translate(517.24 384.03)" fill="#f0f0f0"/>
    <rect id="Rectangle_2352" data-name="Rectangle 2352" width="103.51" height="27.06" transform="translate(608.82 433.98)" fill="#f0f0f0"/>
    <path id="Tracé_1416" data-name="Tracé 1416" d="M201.38,132.63H670.79c19.82,0,35.88,16.29,35.88,36.39V477.85c0,20.1-16.06,36.39-35.88,36.39H398.38c-9.07,31.52-31.85,75-89.13,94.33l16.18-94.33h-124c-19.82,0-35.88-16.29-35.88-36.39V169A36.055,36.055,0,0,1,201.38,132.63Z" transform="translate(-165.5 -132.63)" opacity="0.505" fill="url(#linear-gradient)"/>
    <path id="Tracé_1417" data-name="Tracé 1417" d="M206.77,142.1H665a35,35,0,0,1,35,35V474.41a35,35,0,0,1-35,35H399.09c-8.85,30.34-31.09,72.16-87,90.8l15.79-90.8H206.77a35,35,0,0,1-35-35V177.13a35,35,0,0,1,35-35.03Z" transform="translate(-165.5 -132.63)" fill="#fff"/>
    <rect id="Rectangle_2353" data-name="Rectangle 2353" width="216.47" height="27.06" transform="translate(162.16 66.61)" fill="#4c6cf6"/>
    <rect id="Rectangle_2354" data-name="Rectangle 2354" width="81.18" height="27.06" transform="translate(163.39 116.56)" fill="#4c6cf6"/>
    <rect id="Rectangle_2355" data-name="Rectangle 2355" width="160.08" height="27.06" transform="translate(164.62 166.51)" fill="#4c6cf6"/>
    <rect id="Rectangle_2356" data-name="Rectangle 2356" width="196.32" height="27.06" transform="translate(165.85 216.47)" fill="#4c6cf6"/>
    <rect id="Rectangle_2357" data-name="Rectangle 2357" width="103.51" height="27.06" transform="translate(167.08 266.42)" fill="#4c6cf6"/>
  </g>
</svg>
