<svg xmlns="http://www.w3.org/2000/svg" width="868.951" height="634.74"><defs><linearGradient id="a" x1=".5" y1="1" x2=".5" gradientUnits="objectBoundingBox"><stop offset=".01" stop-color="gray" stop-opacity=".251"/><stop offset=".54" stop-color="gray" stop-opacity=".122"/><stop offset="1" stop-color="gray" stop-opacity=".102"/></linearGradient></defs><g data-name="Groupe 292"><path data-name="Tracé 1414" d="M998.41 290.82H566.95c-42.38 0-76.74 34.69-76.74 77.48v268.18a36.26 36.26 0 0 0 36.09 36.44h274c9.12 31.56 32 75.06 89.64 94.45l-16.27-94.45h124.74a36.26 36.26 0 0 0 36.09-36.44V327.26a36.26 36.26 0 0 0-36.09-36.44z" transform="translate(-165.55 -132.63)" opacity=".501" fill="url(#a)"/><path data-name="Tracé 1415" d="M825.6 167.23H406.8a74.49 74.49 0 0 0-74.49 74.49v257.82a35 35 0 0 0 35 35h265.97c8.85 30.34 31.09 72.16 87 90.8l-15.83-90.77h121.1a35 35 0 0 0 35-35V202.26a35 35 0 0 0-34.95-35.03z" fill="#fafafa"/><path data-name="Rectangle 2348" fill="#f0f0f0" d="M500.72 234.16h216.47v27.06H500.72z"/><path data-name="Rectangle 2349" fill="#f0f0f0" d="M634.79 284.12h81.18v27.06h-81.18z"/><path data-name="Rectangle 2350" fill="#f0f0f0" d="M554.65 334.07h160.08v27.06H554.65z"/><path data-name="Rectangle 2351" fill="#f0f0f0" d="M517.19 384.03h196.32v27.06H517.19z"/><path data-name="Rectangle 2352" fill="#f0f0f0" d="M608.77 433.98h103.51v27.06H608.77z"/><path data-name="Tracé 1416" d="M201.38 132.63h469.41c19.82 0 35.88 16.29 35.88 36.39v308.83c0 20.1-16.06 36.39-35.88 36.39H398.38c-9.07 31.52-31.85 75-89.13 94.33l16.18-94.33h-124c-19.82 0-35.88-16.29-35.88-36.39V169a36.055 36.055 0 0 1 35.83-36.37z" transform="translate(-165.55 -132.63)" opacity=".505" fill="url(#a)"/><path data-name="Tracé 1417" d="M41.22 9.47h458.23a35 35 0 0 1 35 35v297.31a35 35 0 0 1-35 35H233.54c-8.85 30.34-31.09 72.16-87 90.8l15.79-90.8H41.22a35 35 0 0 1-35-35V44.5a35 35 0 0 1 35-35.03z" fill="#fff"/><path data-name="Rectangle 2353" fill="#4c6cf6" d="M162.11 66.61h216.47v27.06H162.11z"/><path data-name="Rectangle 2354" fill="#4c6cf6" d="M163.34 116.56h81.18v27.06h-81.18z"/><path data-name="Rectangle 2355" fill="#4c6cf6" d="M164.57 166.51h160.08v27.06H164.57z"/><path data-name="Rectangle 2356" fill="#4c6cf6" d="M165.8 216.47h196.32v27.06H165.8z"/><path data-name="Rectangle 2357" fill="#4c6cf6" d="M167.03 266.42h103.51v27.06H167.03z"/></g></svg>