<svg id="Groupe_30" data-name="Groupe 30" xmlns="http://www.w3.org/2000/svg" xmlns:xlink="http://www.w3.org/1999/xlink" width="806.344" height="493.26" viewBox="0 0 806.344 493.26">
  <defs>
    <linearGradient id="linear-gradient" x1="27.757" y1="1" x2="27.757" y2="0.003" gradientUnits="objectBoundingBox">
      <stop offset="0" stop-color="gray" stop-opacity="0.251"/>
      <stop offset="0.54" stop-color="gray" stop-opacity="0.122"/>
      <stop offset="1" stop-color="gray" stop-opacity="0.102"/>
    </linearGradient>
  </defs>
  <path id="Tracé_328" data-name="Tracé 328" d="M689.252,337.475a22.321,22.321,0,0,0-12.952,1.413,19.085,19.085,0,0,1-15.625-.07,21.827,21.827,0,0,0-18.289.355,11.308,11.308,0,0,1-5.268,1.321c-7.415,0-13.586-7.469-14.868-17.324a14.35,14.35,0,0,0,3.707-4c4.348-7.005,11.083-11.5,18.645-11.5s14.211,4.441,18.537,11.377a14.312,14.312,0,0,0,12.358,6.766h.193C681.614,325.844,686.727,330.578,689.252,337.475Z" transform="translate(-201.893 -170.97)" fill="#6c63ff" opacity="0.1"/>
  <path id="Tracé_329" data-name="Tracé 329" d="M711.819,298.443l-11.987,7.608,7.276-13.238a11.894,11.894,0,0,0-7.252-2.587h-.193a14.025,14.025,0,0,1-2.487-.178l-4.047,2.572,1.746-3.167a14.428,14.428,0,0,1-7.106-5.406l-7.276,4.634,4.634-8.349c-4.256-5.105-9.987-8.241-16.289-8.241-7.561,0-14.3,4.5-18.645,11.508a13.9,13.9,0,0,1-12.358,6.642h-.409c-8.349,0-15.115,9.469-15.115,21.139s6.766,21.139,15.115,21.139a11.369,11.369,0,0,0,5.267-1.313,21.8,21.8,0,0,1,18.289-.363,19.085,19.085,0,0,0,15.555.039,21.85,21.85,0,0,1,18.135.348,11.315,11.315,0,0,0,5.206,1.29c8.349,0,15.115-9.461,15.115-21.139a26.846,26.846,0,0,0-3.174-12.937Z" transform="translate(-201.907 -162.871)" fill="#6c63ff" opacity="0.1"/>
  <path id="Tracé_330" data-name="Tracé 330" d="M575.463,378.587c.471-.069.942-.162,1.406-.278a4.428,4.428,0,0,1-.394,1.344,5.785,5.785,0,0,1-2.194,1.931.672.672,0,0,0-.85-.054c-1,.587-1.792,1.452-2.85,1.962-.371.185-.772.332-1.12.533a6.131,6.131,0,0,0-2.085,2.17,1.545,1.545,0,0,0-.247,1.545,1.251,1.251,0,0,0,.425.378,2.464,2.464,0,0,0,1.468.44,5.5,5.5,0,0,0,.927-.193c.309-.054.834,0,1.251-.077a7.042,7.042,0,0,0,1.761-.456l2.062-.718a11.329,11.329,0,0,0,1.707-.7c.324-.17.633-.378.973-.541a7.636,7.636,0,0,1,1.159-.409l1.174-.348a1.259,1.259,0,0,1,.533-.069c.162,0,.3.131.463.178a1.383,1.383,0,0,0,.772-.07l1.367-.394a2.573,2.573,0,0,0,.811-.332,2.487,2.487,0,0,0,.726-2.093,15.869,15.869,0,0,0-.4-3.468,1.1,1.1,0,0,0-.44.332c-.139-.2-.3-.386-.448-.564a6.705,6.705,0,0,1-1.359-2.5,4.479,4.479,0,0,0,1.22-1.359,29.88,29.88,0,0,0-2.919-7.955c-.479-.772-1.027-1.545-1.545-2.317-1.421-2.255-1.715-5.105-3.337-7.214a1.251,1.251,0,0,1,0-1.475c.185-.239.487-.479.425-.772s-.263-.425-.178-.626.139-.154.224-.232c.27-.255.239-.7.263-1.074a5.3,5.3,0,0,1,1.182-2.572,1.491,1.491,0,0,1,.432-.471c.147-.093.317-.131.463-.224.525-.324.487-1.089.734-1.653.324-.772,1.143-1.128,1.684-1.73.68-.772.85-1.846,1.545-2.518a1.919,1.919,0,0,1,.232-.193,12.285,12.285,0,0,0-.417,3.522c-.07,4.07.935,8.287.463,12.358a8.519,8.519,0,0,0,4.364,8.009,20.852,20.852,0,0,0,3.4,1.444c1.746.626,3.476,1.267,5.183,1.977q1.807.772,3.568,1.63a45.792,45.792,0,0,1,4.209,2.356,16.22,16.22,0,0,1,4.541,3.769,3.638,3.638,0,0,0,2.008-.772c.456.363,1.012.633,1.444,1.035a4.4,4.4,0,0,1,1.135,2.248H612.2l.062,1.2a.509.509,0,0,1-.046.3.6.6,0,0,1-.162.147l-.927.626c-.672.456-1.413,1.027-1.452,1.846a.919.919,0,0,0,.2.664,1.429,1.429,0,0,0,.826.371,14.421,14.421,0,0,0,4.9.448,3.213,3.213,0,0,0,2.085-.958,4.109,4.109,0,0,0,.772-2c.2-1.213.371-2.433.5-3.661a8.023,8.023,0,0,1,.494-2.425.285.285,0,0,1,.131-.162h.224a.325.325,0,0,0,.147-.232,14.831,14.831,0,0,0,.433-3.638,2.551,2.551,0,0,0-.147-.935,1.869,1.869,0,0,0-1.29-1,9.956,9.956,0,0,0-1.661-.193,7.535,7.535,0,0,1-1.383-.263,1.329,1.329,0,0,0-.572-.069.409.409,0,0,0-.355.4.461.461,0,0,0,.077.193l-.471-.093c-.378-.07-.919-.239-1.475-.371v-.294a.579.579,0,0,0-.324-.517l-7.948-4.248-1.491-.772c-3.259-1.746-6.627-3.352-9.886-5.1-.224.07-.4-.185-.463-.4s-.108-.494-.317-.587-.239-.054-.317-.139a.34.34,0,0,1-.054-.263c.108-1.591,1.244-3.051,1.012-4.634a5.592,5.592,0,0,1-.286-1.993,8.171,8.171,0,0,1,.6-1.259c.386-.965,0-2.132.425-3.09a7.259,7.259,0,0,0,.579-1.962,13.426,13.426,0,0,1,1.213-3.862,6.867,6.867,0,0,1,1.12-1.707c.239-.263.51-.494.734-.772a6.263,6.263,0,0,0,1.143-2.989,14.358,14.358,0,0,0,.162-5.847,8.283,8.283,0,0,1-.371-1.969c0-.772.317-1.715-.07-2.356a2.062,2.062,0,0,0,.772-1.29,1.483,1.483,0,0,1,.108-.525,1.36,1.36,0,0,1,.5-.456,2.093,2.093,0,0,0,.772-2.07c.409.185.842-.232,1.035-.641s.348-.919.772-1.089a5.932,5.932,0,0,1,.9-.131c.479-.124.772-.587,1.112-.95a8.5,8.5,0,0,1,2.557-1.583,28.365,28.365,0,0,0,6.951-5.615,23.591,23.591,0,0,0,3-3.391,11,11,0,0,0,.656-1.089h.054V308a1.5,1.5,0,0,0,.108.394c.093.317.209.626.317.935a6.835,6.835,0,0,0,1.336,2.549,3.408,3.408,0,0,0,.3.27,3.1,3.1,0,0,0,.386.263,4.758,4.758,0,0,0,1.769.533c.232,0,.471.046.711.054h.711l4.866.131c-1.668-2.433-1.8-5.584-1.692-8.542.278-7.585,1.753-15.239.386-22.7a5.909,5.909,0,0,0-.935-2.533,5.237,5.237,0,0,0-3.089-1.676,18.634,18.634,0,0,1-3.445-.88,14.263,14.263,0,0,0-2.711-1.29,5.993,5.993,0,0,0-2.163,0c-.88.131-1.753.286-2.626.463l-.209.046h-1.043l-.085.039-.077.039-.077.039-.077.039-.077.046-.07.046-.07.046-.069.054-.062.046-.07.062-.054.046-.07.07-.046.054a.372.372,0,0,0-.069.085v.046l-.085.124h0a2.205,2.205,0,0,0-.17.363,1.671,1.671,0,0,0-.054.185,3.514,3.514,0,0,0-.069.394v.6a2.446,2.446,0,0,0,.07.672,7.337,7.337,0,0,0-.348,12.412,3.274,3.274,0,0,1,0,.363v.077a9.92,9.92,0,0,1-.131,1.267,17.268,17.268,0,0,0-3.622-.317c-.726,0-1.452.062-2.186.124-.772-.927-1.483-1.946-2.178-2.95l-1.607-2.356a23.8,23.8,0,0,1-1.545-2.417c-.394-.772-.7-1.545-1.135-2.317-.9-1.545-2.387-2.827-2.564-4.6l-.425.093c-.232-.386-.525-.772-.633-1a19.6,19.6,0,0,1-1.336-3.924,6.071,6.071,0,0,0-.641-2.031,4.542,4.542,0,0,0-.935-.989,6.18,6.18,0,0,0-2.008-1.267,2.58,2.58,0,0,0-2.047.116c-.108-.039-.208-.085-.317-.116a2.487,2.487,0,0,0-2.271.263,3.089,3.089,0,0,0-1,2.109,5.229,5.229,0,0,0,.541,3.2,12.725,12.725,0,0,0,2.572,2.665,10.4,10.4,0,0,1,1.614,2.008,21.935,21.935,0,0,1-.124,4.881c-.116.7-.294,1.375-.355,2.07-.224,2.526,1.089,5.051.626,7.538a1.823,1.823,0,0,0,.849,1.946,9.67,9.67,0,0,0,2.2.6c1.452.371,2.719,1.305,4.178,1.653.68.162,1.383.193,2.054.371h.108a4.889,4.889,0,0,0-1.081,2.054c-.293,1.267,0,2.618-.317,3.862a8.8,8.8,0,0,1-1.475,2.835l-3.537,5.113a32.983,32.983,0,0,1-2.6,3.422c-1.622,1.769-4.426,3.174-5.244,5.306l-.07-.154c-1.166.857-1.6,2.456-2.533,3.568-.448.541-1.012.981-1.506,1.475A16.564,16.564,0,0,0,576.8,328.5a37.068,37.068,0,0,0-3.769,6c-.517,1.12-.919,2.317-1.328,3.445-1.622,4.565-4.263,8.9-5.36,13.624-.27,1.151-.973,2.194-1.081,3.375a6.565,6.565,0,0,0,1.058,3.576c.911,1.7,1.908,3.352,2.719,5.1.479,1.02.888,2.07,1.413,3.089s1.282,2.085,1.877,3.159A36.386,36.386,0,0,1,575.463,378.587Zm19.911-86.265-.139-.07a4.941,4.941,0,0,1-1.468-.965,11.359,11.359,0,0,1-2.255-5.337c-.046-.216-.093-.44-.131-.664A31.572,31.572,0,0,1,595.374,292.322Z" transform="translate(-188.92 -162.195)" fill="url(#linear-gradient)"/>
  <path id="Tracé_331" data-name="Tracé 331" d="M594.546,274.445a5.988,5.988,0,0,0-.641-2.016,4.581,4.581,0,0,0-.942-.989,6.178,6.178,0,0,0-2.008-1.251,2.5,2.5,0,0,0-2.317.263,3.043,3.043,0,0,0-1,2.093,5.168,5.168,0,0,0,.541,3.174,13.249,13.249,0,0,0,2.572,2.649,10.041,10.041,0,0,1,1.684,2.093,5.858,5.858,0,0,0,.772,1.12,1.444,1.444,0,0,0,1.213.479,2.093,2.093,0,0,0,.989-.579c.363-.317,1.352-.9,1.383-1.406s-.772-1.344-.935-1.73a19.551,19.551,0,0,1-1.305-3.9Z" transform="translate(-194 -162.399)" fill="#fbbebe"/>
  <path id="Tracé_332" data-name="Tracé 332" d="M616.643,297.194a17.642,17.642,0,0,0-4.874-.6c-2.742.039-5.569.7-8.179-.139a14.2,14.2,0,0,1-1.962-.85,5.035,5.035,0,0,1-1.46-.958,11.185,11.185,0,0,1-2.263-5.3,34.6,34.6,0,0,1-.618-5.638,4.434,4.434,0,0,1-2.139.564,1.545,1.545,0,0,1-1.491-1.383,22.964,22.964,0,0,1-.1,5.252c-.116.687-.294,1.359-.355,2.054-.224,2.5,1.1,5.013.626,7.484a1.807,1.807,0,0,0,.85,1.931,9.624,9.624,0,0,0,2.209.6c1.452.371,2.726,1.29,4.186,1.637.68.162,1.382.193,2.054.371.965.255,1.838.772,2.819.981.734.131,1.491.039,2.24.1s1.282.224,1.923.247a5.592,5.592,0,0,0,4.148-2.054,17.835,17.835,0,0,0,2.387-4.3Z" transform="translate(-195.275 -165.329)" fill="#f86d70"/>
  <path id="Tracé_333" data-name="Tracé 333" d="M616.643,297.194a17.642,17.642,0,0,0-4.874-.6c-2.742.039-5.569.7-8.179-.139a14.2,14.2,0,0,1-1.962-.85,5.035,5.035,0,0,1-1.46-.958,11.185,11.185,0,0,1-2.263-5.3,34.6,34.6,0,0,1-.618-5.638,4.434,4.434,0,0,1-2.139.564,1.545,1.545,0,0,1-1.491-1.383,22.964,22.964,0,0,1-.1,5.252c-.116.687-.294,1.359-.355,2.054-.224,2.5,1.1,5.013.626,7.484a1.807,1.807,0,0,0,.85,1.931,9.624,9.624,0,0,0,2.209.6c1.452.371,2.726,1.29,4.186,1.637.68.162,1.382.193,2.054.371.965.255,1.838.772,2.819.981.734.131,1.491.039,2.24.1s1.282.224,1.923.247a5.592,5.592,0,0,0,4.148-2.054,17.835,17.835,0,0,0,2.387-4.3Z" transform="translate(-195.275 -165.329)" opacity="0.1"/>
  <g id="Groupe_27" data-name="Groupe 27" transform="translate(234.792 105.952)" opacity="0.1">
    <path id="Tracé_334" data-name="Tracé 334" d="M474.873,662.4v3.978a14.907,14.907,0,0,1-29.813,0V662.4a14.907,14.907,0,1,1,29.813,0Z" transform="translate(-396.349 -354.279)" fill="#3f3d56"/>
    <path id="Tracé_335" data-name="Tracé 335" d="M445.06,578.866V574.9a14.907,14.907,0,0,1,29.813,0v3.97a14.737,14.737,0,0,1-.641,4.31,14.9,14.9,0,0,1-29.172-4.31Z" transform="translate(-396.349 -334.36)" fill="#3f3d56"/>
    <path id="Tracé_336" data-name="Tracé 336" d="M474.873,618.607v3.978a14.907,14.907,0,0,1-29.813,0v-3.978a14.907,14.907,0,0,1,29.813,0Z" transform="translate(-396.349 -344.311)" fill="#3f3d56"/>
    <path id="Tracé_337" data-name="Tracé 337" d="M459.967,691.24a14.953,14.953,0,0,1,14.907,14.914v3.97a14.907,14.907,0,0,1-29.813,0v-3.97a14.953,14.953,0,0,1,14.906-14.914Z" transform="translate(-396.349 -364.238)" fill="#3f3d56"/>
    <path id="Tracé_338" data-name="Tracé 338" d="M445.06,579.78v3.591a14.9,14.9,0,0,0,29.172,4.3Z" transform="translate(-396.349 -338.865)" opacity="0.1"/>
    <path id="Tracé_339" data-name="Tracé 339" d="M445.06,623.53v3.6a14.907,14.907,0,0,0,29.172,4.31Z" transform="translate(-396.349 -348.825)" opacity="0.1"/>
    <path id="Tracé_340" data-name="Tracé 340" d="M445.06,667.29v3.591a14.907,14.907,0,0,0,29.172,4.31Z" transform="translate(-396.349 -358.786)" opacity="0.1"/>
    <path id="Tracé_341" data-name="Tracé 341" d="M445.06,711v3.592a14.9,14.9,0,0,0,29.172,4.31Z" transform="translate(-396.349 -368.736)" opacity="0.1"/>
    <path id="Tracé_342" data-name="Tracé 342" d="M404.114,625.552l1.189.911a5.631,5.631,0,0,0,8.017-7.724,5.508,5.508,0,0,0-1.135-1.189l-1.189-.9a5.633,5.633,0,0,0-6.882,8.921Z" transform="translate(-386.529 -346.992)" fill="#3f3d56"/>
    <path id="Tracé_343" data-name="Tracé 343" d="M424.085,626.714l1.189.919a5.633,5.633,0,1,1-6.882,8.921l-1.189-.919a5.633,5.633,0,1,1,6.882-8.921Z" transform="translate(-389.509 -349.283)" fill="#3f3d56"/>
    <path id="Tracé_344" data-name="Tracé 344" d="M437.165,636.814l1.189.919a5.633,5.633,0,0,1-6.882,8.921l-1.189-.919a5.633,5.633,0,0,1,6.882-8.921Z" transform="translate(-392.486 -351.582)" fill="#3f3d56"/>
    <path id="Tracé_345" data-name="Tracé 345" d="M450.251,646.914l1.189.919a5.633,5.633,0,0,1-6.882,8.921l-1.2-.919a5.633,5.633,0,1,1,6.882-8.921Z" transform="translate(-395.462 -353.881)" fill="#3f3d56"/>
    <path id="Tracé_346" data-name="Tracé 346" d="M404.9,626.6l1.081.826A5.631,5.631,0,0,0,414,619.7Z" transform="translate(-387.207 -347.953)" opacity="0.1"/>
    <path id="Tracé_347" data-name="Tracé 347" d="M418,636.7l1.081.826A5.631,5.631,0,0,0,427.1,629.8Z" transform="translate(-390.189 -350.252)" opacity="0.1"/>
    <path id="Tracé_348" data-name="Tracé 348" d="M431.08,646.8l1.074.826a5.631,5.631,0,0,0,8.025-7.724Z" transform="translate(-393.167 -352.551)" opacity="0.1"/>
    <path id="Tracé_349" data-name="Tracé 349" d="M406.489,361.292a16.9,16.9,0,1,0,0,33.795,16.9,16.9,0,1,0,0,33.787,16.9,16.9,0,0,0,0,33.8,16.9,16.9,0,1,0,0,33.795l81.5,0a16.9,16.9,0,1,0,0-33.795,16.9,16.9,0,1,0,0-33.8,16.9,16.9,0,1,0,0-33.789,16.9,16.9,0,1,0,0-33.795,16.9,16.9,0,1,0,0-33.8,16.9,16.9,0,1,0,0-33.789h-3.723c-2.139-14.536-18.537-25.843-38.518-25.843S409.37,279.167,407.23,293.7h-.772a16.9,16.9,0,1,0,0,33.795,16.9,16.9,0,1,0,0,33.8Z" transform="translate(-383.621 -267.86)" fill="#6c63ff"/>
    <path id="Tracé_350" data-name="Tracé 350" d="M389.72,318.212a16.946,16.946,0,0,0,16.9,16.9h81.5L407.114,301.32h-.494a16.946,16.946,0,0,0-16.9,16.892Z" transform="translate(-383.752 -275.477)" opacity="0.1"/>
    <path id="Tracé_351" data-name="Tracé 351" d="M509.368,362.019a16.992,16.992,0,0,1-16.9,16.9H411l81.013-33.8h.494A16.992,16.992,0,0,1,509.368,362.019Z" transform="translate(-388.596 -285.447)" opacity="0.1"/>
    <path id="Tracé_352" data-name="Tracé 352" d="M509.368,449.479a16.946,16.946,0,0,1-16.9,16.891H411l81.013-33.791h.494a16.946,16.946,0,0,1,16.861,16.9Z" transform="translate(-388.596 -305.357)" opacity="0.1"/>
    <path id="Tracé_353" data-name="Tracé 353" d="M509.368,537.019a16.946,16.946,0,0,1-16.9,16.892H411l81.013-33.791h.494A16.946,16.946,0,0,1,509.368,537.019Z" transform="translate(-388.596 -325.284)" opacity="0.1"/>
    <path id="Tracé_354" data-name="Tracé 354" d="M389.72,405.722a16.946,16.946,0,0,0,16.9,16.9h81.5L407.114,388.83h-.494a16.946,16.946,0,0,0-16.9,16.892Z" transform="translate(-383.752 -295.398)" opacity="0.1"/>
    <path id="Tracé_355" data-name="Tracé 355" d="M389.72,493.229a16.992,16.992,0,0,0,16.9,16.9h81.5l-81.005-33.8h-.494A16.992,16.992,0,0,0,389.72,493.229Z" transform="translate(-383.752 -315.316)" opacity="0.1"/>
    <path id="Tracé_356" data-name="Tracé 356" d="M397.3,639.333l26.84-14.451a6.318,6.318,0,0,0-5.993-11.114,6.319,6.319,0,0,0-5.986-11.13l-1.228.664c-3.283-4.41-10.7-5.221-17.27-1.684s-9.971,10.172-8.1,15.339l-.239.131a6.319,6.319,0,1,0,5.986,11.13,6.32,6.32,0,0,0,5.994,11.13Z" transform="translate(-381.992 -343.333)" fill="#6c63ff"/>
    <path id="Tracé_357" data-name="Tracé 357" d="M382.78,629.863a6.341,6.341,0,0,0,8.558,2.572L418.154,618l-32.663,3.236-.162.085A6.341,6.341,0,0,0,382.78,629.863Z" transform="translate(-382.002 -347.566)" opacity="0.1"/>
    <path id="Tracé_358" data-name="Tracé 358" d="M431,620.442A6.333,6.333,0,0,1,428.44,629L401.6,643.45l20.684-25.488.162-.093A6.341,6.341,0,0,1,431,620.442Z" transform="translate(-386.456 -347.366)" opacity="0.1"/>
  </g>
  <g id="Groupe_28" data-name="Groupe 28" transform="translate(145.956 362.082)" opacity="0.1">
    <path id="Tracé_359" data-name="Tracé 359" d="M293.619,712.515v1.135a4.279,4.279,0,0,1-8.55,0v-1.135a4.279,4.279,0,1,1,8.55,0Z" transform="translate(-271.092 -624.196)" fill="#3f3d56"/>
    <path id="Tracé_360" data-name="Tracé 360" d="M285.07,688.676v-1.143a4.279,4.279,0,0,1,8.55,0v1.143a4.133,4.133,0,0,1-.185,1.236,4.271,4.271,0,0,1-8.365-1.236Z" transform="translate(-271.093 -618.592)" fill="#3f3d56"/>
    <path id="Tracé_361" data-name="Tracé 361" d="M293.619,699.975v1.135a4.279,4.279,0,0,1-8.55,0v-1.135a4.279,4.279,0,1,1,8.55,0Z" transform="translate(-271.092 -621.341)" fill="#3f3d56"/>
    <path id="Tracé_362" data-name="Tracé 362" d="M289.348,720.83a4.287,4.287,0,0,1,4.271,4.279v1.135a4.279,4.279,0,1,1-8.55,0v-1.135a4.287,4.287,0,0,1,4.279-4.279Z" transform="translate(-271.092 -627.104)" fill="#3f3d56"/>
    <path id="Tracé_363" data-name="Tracé 363" d="M285.07,688.89v1.027a4.271,4.271,0,0,0,8.365,1.236Z" transform="translate(-271.093 -619.833)" opacity="0.1"/>
    <path id="Tracé_364" data-name="Tracé 364" d="M285.07,701.43v1.027a4.271,4.271,0,0,0,8.365,1.236Z" transform="translate(-271.093 -622.688)" opacity="0.1"/>
    <path id="Tracé_365" data-name="Tracé 365" d="M285.07,714v1.027a4.271,4.271,0,0,0,8.365,1.236Z" transform="translate(-271.093 -625.549)" opacity="0.1"/>
    <path id="Tracé_366" data-name="Tracé 366" d="M285.07,726.51v1.027a4.271,4.271,0,0,0,8.365,1.236Z" transform="translate(-271.093 -628.397)" opacity="0.1"/>
    <path id="Tracé_367" data-name="Tracé 367" d="M273.34,702l.34.27A1.614,1.614,0,0,0,276,700.051a1.544,1.544,0,0,0-.324-.348l-.34-.263A1.616,1.616,0,1,0,273.355,702Z" transform="translate(-268.284 -622.158)" fill="#3f3d56"/>
    <path id="Tracé_368" data-name="Tracé 368" d="M279.062,702.34l.34.263a1.614,1.614,0,1,1-1.969,2.557l-.348-.263a1.616,1.616,0,0,1,1.977-2.557Z" transform="translate(-269.133 -622.818)" fill="#3f3d56"/>
    <path id="Tracé_369" data-name="Tracé 369" d="M282.825,705.239l.34.263a1.614,1.614,0,1,1-1.97,2.557l-.34-.263a1.614,1.614,0,0,1,1.97-2.557Z" transform="translate(-269.999 -623.485)" fill="#3f3d56"/>
    <path id="Tracé_370" data-name="Tracé 370" d="M286.575,708.139l.34.263a1.614,1.614,0,1,1-1.97,2.556l-.34-.263a1.614,1.614,0,0,1,1.97-2.557Z" transform="translate(-270.852 -624.145)" fill="#3f3d56"/>
    <path id="Tracé_371" data-name="Tracé 371" d="M273.56,702.307l.309.24a1.614,1.614,0,0,0,2.317-2.217Z" transform="translate(-268.473 -622.438)" opacity="0.1"/>
    <path id="Tracé_372" data-name="Tracé 372" d="M277.32,705.2l.309.24a1.614,1.614,0,0,0,2.317-2.217Z" transform="translate(-269.329 -623.095)" opacity="0.1"/>
    <path id="Tracé_373" data-name="Tracé 373" d="M281.07,708.095l.309.232a1.614,1.614,0,0,0,2.263-.286,1.637,1.637,0,0,0,0-1.931Z" transform="translate(-270.183 -623.753)" opacity="0.1"/>
    <path id="Tracé_374" data-name="Tracé 374" d="M274.053,626.258a4.843,4.843,0,0,0,0,9.685,4.85,4.85,0,0,0,0,9.693,4.843,4.843,0,0,0,0,9.685,4.843,4.843,0,1,0,0,9.685h23.364a4.843,4.843,0,1,0,0-9.685,4.843,4.843,0,1,0,0-9.685,4.85,4.85,0,0,0,0-9.693,4.843,4.843,0,1,0,0-9.685,4.843,4.843,0,1,0,0-9.685,4.843,4.843,0,1,0,0-9.685h-1.066c-.618-4.163-5.322-7.407-11.045-7.407s-10.427,3.244-11.037,7.407h-.216a4.843,4.843,0,0,0,0,9.685,4.843,4.843,0,1,0,0,9.685Z" transform="translate(-267.483 -599.48)" fill="#6c63ff"/>
    <path id="Tracé_375" data-name="Tracé 375" d="M269.21,613.913a4.858,4.858,0,0,0,4.843,4.843h23.364L274.2,609.07h-.147a4.858,4.858,0,0,0-4.843,4.843Z" transform="translate(-267.483 -601.663)" opacity="0.1"/>
    <path id="Tracé_376" data-name="Tracé 376" d="M303.507,626.453a4.858,4.858,0,0,1-4.843,4.843H275.3l23.217-9.685h.147a4.858,4.858,0,0,1,4.843,4.843Z" transform="translate(-268.869 -604.518)" opacity="0.1"/>
    <path id="Tracé_377" data-name="Tracé 377" d="M303.507,651.57a4.866,4.866,0,0,1-4.843,4.843H275.3l23.217-9.693h.147a4.866,4.866,0,0,1,4.843,4.85Z" transform="translate(-268.869 -610.234)" opacity="0.1"/>
    <path id="Tracé_378" data-name="Tracé 378" d="M303.507,676.623a4.858,4.858,0,0,1-4.843,4.843H275.3l23.217-9.685h.147a4.858,4.858,0,0,1,4.843,4.843Z" transform="translate(-268.869 -615.938)" opacity="0.1"/>
    <path id="Tracé_379" data-name="Tracé 379" d="M269.21,638.993a4.858,4.858,0,0,0,4.843,4.843h23.364L274.2,634.15h-.147A4.858,4.858,0,0,0,269.21,638.993Z" transform="translate(-267.483 -607.372)" opacity="0.1"/>
    <path id="Tracé_380" data-name="Tracé 380" d="M269.21,664.083a4.858,4.858,0,0,0,4.843,4.843h23.364L274.2,659.24h-.147a4.858,4.858,0,0,0-4.843,4.843Z" transform="translate(-267.483 -613.084)" opacity="0.1"/>
    <path id="Tracé_381" data-name="Tracé 381" d="M271.656,705.956l7.724-4.148a4.032,4.032,0,0,1-.981-5.638,1.807,1.807,0,0,0-2.456-.734l-.348.185c-.942-1.259-3.089-1.5-4.951-.479s-2.858,2.912-2.317,4.395l-.069.039a4.032,4.032,0,0,1,.981,5.638A1.815,1.815,0,0,0,271.656,705.956Z" transform="translate(-267.248 -621.112)" fill="#6c63ff"/>
    <path id="Tracé_382" data-name="Tracé 382" d="M267.21,703.247a1.815,1.815,0,0,0,2.456.772l7.724-4.14-9.4.865h-.046a1.815,1.815,0,0,0-.734,2.5Z" transform="translate(-266.974 -622.335)" opacity="0.1"/>
    <path id="Tracé_383" data-name="Tracé 383" d="M281.037,700.542A1.823,1.823,0,0,1,280.3,703l-7.724,4.14,5.924-7.307h.046a1.823,1.823,0,0,1,2.487.711Z" transform="translate(-268.25 -622.271)" opacity="0.1"/>
  </g>
  <g id="Groupe_29" data-name="Groupe 29" transform="translate(531.52 29.381)" opacity="0.1">
    <path id="Tracé_384" data-name="Tracé 384" d="M834.26,649.644v4.843a18.174,18.174,0,1,0,36.347,0v-4.843a18.174,18.174,0,0,0-36.347,0Z" transform="translate(-781.675 -274.061)" fill="#3f3d56"/>
    <path id="Tracé_385" data-name="Tracé 385" d="M870.607,547.816v-4.843a18.174,18.174,0,0,0-36.347,0v4.843a17.858,17.858,0,0,0,.772,5.252,18.166,18.166,0,0,0,35.529-5.252Z" transform="translate(-781.675 -249.778)" fill="#3f3d56"/>
    <path id="Tracé_386" data-name="Tracé 386" d="M834.26,596.3v4.85a18.174,18.174,0,1,0,36.347,0V596.3a18.174,18.174,0,1,0-36.347,0Z" transform="translate(-781.675 -261.918)" fill="#3f3d56"/>
    <path id="Tracé_387" data-name="Tracé 387" d="M852.434,684.8a18.228,18.228,0,0,0-18.174,18.174v4.843a18.174,18.174,0,1,0,36.347,0v-4.843A18.22,18.22,0,0,0,852.434,684.8Z" transform="translate(-781.675 -286.201)" fill="#3f3d56"/>
    <path id="Tracé_388" data-name="Tracé 388" d="M870.849,548.93v4.379a18.166,18.166,0,0,1-35.529,5.252Z" transform="translate(-781.916 -255.271)" opacity="0.1"/>
    <path id="Tracé_389" data-name="Tracé 389" d="M870.849,602.27v4.379A18.166,18.166,0,0,1,835.32,611.9Z" transform="translate(-781.916 -267.414)" opacity="0.1"/>
    <path id="Tracé_390" data-name="Tracé 390" d="M870.849,655.6v4.379a18.166,18.166,0,0,1-35.529,5.252Z" transform="translate(-781.916 -279.553)" opacity="0.1"/>
    <path id="Tracé_391" data-name="Tracé 391" d="M870.849,708.93v4.379a18.166,18.166,0,0,1-35.529,5.252Z" transform="translate(-781.916 -291.694)" opacity="0.1"/>
    <path id="Tracé_392" data-name="Tracé 392" d="M926.763,604.714l-1.452,1.12a6.866,6.866,0,0,1-9.778-9.431,6.643,6.643,0,0,1,1.39-1.444l1.452-1.12a6.867,6.867,0,0,1,8.388,10.875Z" transform="translate(-799.885 -265.169)" fill="#3f3d56"/>
    <path id="Tracé_393" data-name="Tracé 393" d="M902.374,606.144l-1.444,1.1a6.866,6.866,0,1,0,8.388,10.867L910.762,617a6.867,6.867,0,1,0-8.388-10.875Z" transform="translate(-796.21 -267.966)" fill="#3f3d56"/>
    <path id="Tracé_394" data-name="Tracé 394" d="M886.422,618.459l-1.452,1.12a6.866,6.866,0,1,0,8.388,10.867l1.452-1.112a6.867,6.867,0,1,0-8.388-10.875Z" transform="translate(-792.577 -270.773)" fill="#3f3d56"/>
    <path id="Tracé_395" data-name="Tracé 395" d="M870.506,630.735l-1.444,1.112a6.867,6.867,0,1,0,8.388,10.875l1.444-1.12a6.866,6.866,0,1,0-8.388-10.867Z" transform="translate(-788.989 -273.542)" fill="#3f3d56"/>
    <path id="Tracé_396" data-name="Tracé 396" d="M926.624,606l-1.313,1.012a6.866,6.866,0,0,1-9.778-9.431Z" transform="translate(-799.885 -266.346)" opacity="0.1"/>
    <path id="Tracé_397" data-name="Tracé 397" d="M910.689,618.309l-1.305,1a6.866,6.866,0,0,1-9.747-9.423Z" transform="translate(-796.277 -269.148)" opacity="0.1"/>
    <path id="Tracé_398" data-name="Tracé 398" d="M894.718,630.611l-1.313,1.012a6.866,6.866,0,0,1-9.778-9.423Z" transform="translate(-792.624 -271.95)" opacity="0.1"/>
    <path id="Tracé_399" data-name="Tracé 399" d="M886.613,282.6a20.6,20.6,0,1,1,0,41.2,20.6,20.6,0,1,1,0,41.194,20.6,20.6,0,0,1,0,41.186,20.6,20.6,0,1,1,0,41.2H787.265a20.6,20.6,0,1,1,0-41.2,20.6,20.6,0,1,1,0-41.194,20.6,20.6,0,1,1,0-41.186,20.6,20.6,0,1,1,0-41.2,20.6,20.6,0,1,1,0-41.194,20.6,20.6,0,1,1,0-41.186h4.542c2.61-17.718,22.63-31.5,46.952-31.5s44.341,13.787,46.952,31.5h.9a20.6,20.6,0,1,1,0,41.194,20.6,20.6,0,0,1,0,41.186Z" transform="translate(-766.176 -168.72)" fill="#6c63ff"/>
    <path id="Tracé_400" data-name="Tracé 400" d="M913.42,230.109A20.653,20.653,0,0,1,892.829,250.7H793.48l98.739-41.19h.61A20.653,20.653,0,0,1,913.42,230.109Z" transform="translate(-772.392 -178.006)" opacity="0.1"/>
    <path id="Tracé_401" data-name="Tracé 401" d="M767.6,283.439a20.653,20.653,0,0,0,20.6,20.591H887.54L788.8,262.84h-.6A20.661,20.661,0,0,0,767.6,283.439Z" transform="translate(-766.5 -190.146)" opacity="0.1"/>
    <path id="Tracé_402" data-name="Tracé 402" d="M767.6,390.1a20.66,20.66,0,0,0,20.6,20.6H887.54L788.8,369.51h-.6A20.653,20.653,0,0,0,767.6,390.1Z" transform="translate(-766.5 -214.428)" opacity="0.1"/>
    <path id="Tracé_403" data-name="Tracé 403" d="M767.6,496.769a20.661,20.661,0,0,0,20.6,20.6H887.54L788.8,476.17h-.6A20.661,20.661,0,0,0,767.6,496.769Z" transform="translate(-766.5 -238.708)" opacity="0.1"/>
    <path id="Tracé_404" data-name="Tracé 404" d="M913.42,336.769a20.653,20.653,0,0,1-20.591,20.6H793.48l98.739-41.2h.61A20.653,20.653,0,0,1,913.42,336.769Z" transform="translate(-772.392 -202.286)" opacity="0.1"/>
    <path id="Tracé_405" data-name="Tracé 405" d="M913.42,443.439a20.653,20.653,0,0,1-20.591,20.591H793.48l98.739-41.19h.61A20.653,20.653,0,0,1,913.42,443.439Z" transform="translate(-772.392 -226.568)" opacity="0.1"/>
    <path id="Tracé_406" data-name="Tracé 406" d="M923.3,621.5l-32.717-17.61a7.724,7.724,0,0,1,7.307-13.563,7.724,7.724,0,1,1,7.3-13.563l1.5.772c4-5.407,13.03-6.364,21.039-2.054s12.165,12.4,9.878,18.7l.3.162a7.724,7.724,0,1,1-7.307,13.563,7.724,7.724,0,1,1-7.3,13.594Z" transform="translate(-793.684 -260.7)" fill="#6c63ff"/>
    <path id="Tracé_407" data-name="Tracé 407" d="M944.284,609.97a7.724,7.724,0,0,1-10.435,3.089L901.14,595.45l39.815,3.939.2.108a7.724,7.724,0,0,1,3.128,10.473Z" transform="translate(-796.9 -265.861)" opacity="0.1"/>
    <path id="Tracé_408" data-name="Tracé 408" d="M887.62,598.5a7.724,7.724,0,0,0,3.128,10.435l32.717,17.61-25.217-31.064-.193-.108A7.724,7.724,0,0,0,887.62,598.5Z" transform="translate(-793.613 -265.634)" opacity="0.1"/>
  </g>
  <ellipse id="Ellipse_63" data-name="Ellipse 63" cx="403.172" cy="17.764" rx="403.172" ry="17.764" transform="translate(0 457.731)" fill="#3f3d56"/>
  <ellipse id="Ellipse_64" data-name="Ellipse 64" cx="87.277" cy="11.639" rx="87.277" ry="11.639" transform="translate(300.448 463.084)" opacity="0.1"/>
  <path id="Tracé_409" data-name="Tracé 409" d="M575.758,633.117A17.764,17.764,0,0,1,554.7,613.746c2.024-17.888,8.318-46.7,25.534-89.964,19.958-50.157,12.759-62.275-8.627-98.244-6.9-11.624-14.737-24.793-23.171-41.707-21.75-43.453-13.485-76.943-2.75-97.325a98.89,98.89,0,0,1,29.566-34.285L592.108,280.1l-1.545,1.545c-.039,0,.772,0,1.946,2.139a67.356,67.356,0,0,0-15.965,20.444c-9.346,18.714-8.11,40.163,3.669,63.7,7.886,15.772,15.362,28.353,21.958,39.452,11.848,19.927,21.2,35.668,24.3,55.54,3.205,20.568-.772,42.7-13.2,73.992-16.382,41.159-21.626,66.917-23.225,80.742A17.8,17.8,0,0,1,575.781,633.1Z" transform="translate(-181.985 -158.347)" fill="#3f3d56"/>
  <path id="Tracé_410" data-name="Tracé 410" d="M409,71.482,480.482,0l72.177,71.482H503.606v54.66H458.053V71.829Z" transform="translate(-93.105)" fill="#6c63ff"/>
  <ellipse id="Ellipse_65" data-name="Ellipse 65" cx="45.569" cy="6.078" rx="45.569" ry="6.078" transform="translate(498.172 462.265)" opacity="0.1"/>
  <path id="Tracé_411" data-name="Tracé 411" d="M779.785,678.477a9.268,9.268,0,0,1-10.991-10.11c1.05-9.338,4.341-24.383,13.331-46.967,10.419-26.191,6.658-32.516-4.5-51.3-3.607-6.063-7.724-12.945-12.118-21.781-11.338-22.684-7.028-40.163-1.421-50.806a51.655,51.655,0,0,1,15.447-17.9l8.8,14.559-.819.772s.417,0,1.02,1.12a35.128,35.128,0,0,0-8.341,10.674c-4.874,9.77-4.225,20.962,1.923,33.258,4.117,8.233,8.017,14.806,11.462,20.6,6.179,10.4,11.068,18.622,12.69,29,1.668,10.736-.394,22.29-6.9,38.618-8.55,21.487-11.292,34.934-12.126,42.156a9.268,9.268,0,0,1-7.446,8.071Z" transform="translate(-232.885 -210.11)" fill="#3f3d56"/>
  <path id="Tracé_412" data-name="Tracé 412" d="M655.44,322.78l37.32-37.32,37.691,37.32H704.84v28.539H681.051V322.966Z" transform="translate(-149.204 -64.982)" fill="#6c63ff"/>
  <ellipse id="Ellipse_66" data-name="Ellipse 66" cx="45.569" cy="6.078" rx="45.569" ry="6.078" transform="translate(186.139 462.265)" opacity="0.1"/>
  <path id="Tracé_413" data-name="Tracé 413" d="M365.944,678.477a9.268,9.268,0,0,0,10.991-10.11c-1.05-9.338-4.341-24.383-13.331-46.967-10.419-26.191-6.658-32.516,4.5-51.3,3.607-6.063,7.724-12.945,12.118-21.781,11.338-22.684,7.028-40.163,1.421-50.806a51.655,51.655,0,0,0-15.447-17.9l-8.8,14.559.819.772s-.417,0-1.02,1.12a35.127,35.127,0,0,1,8.341,10.674c4.874,9.77,4.225,20.962-1.923,33.258-4.117,8.233-8.017,14.806-11.462,20.6-6.179,10.4-11.068,18.622-12.69,29-1.668,10.736.394,22.29,6.9,38.618,8.55,21.487,11.292,34.934,12.126,42.156a9.268,9.268,0,0,0,7.446,8.071Z" transform="translate(-137.395 -210.11)" fill="#3f3d56"/>
  <path id="Tracé_414" data-name="Tracé 414" d="M326.452,322.78l-37.32-37.32L251.44,322.78h25.611v28.539H300.84V322.966Z" transform="translate(-57.238 -64.982)" fill="#6c63ff"/>
  <ellipse id="Ellipse_67" data-name="Ellipse 67" cx="16.22" cy="1.931" rx="16.22" ry="1.931" transform="matrix(0.959, -0.284, 0.284, 0.959, 371.085, 226.904)" opacity="0.1"/>
  <ellipse id="Ellipse_68" data-name="Ellipse 68" cx="16.22" cy="1.931" rx="16.22" ry="1.931" transform="matrix(0.959, -0.284, 0.284, 0.959, 378.034, 242.353)" opacity="0.1"/>
  <ellipse id="Ellipse_69" data-name="Ellipse 69" cx="16.22" cy="1.931" rx="16.22" ry="1.931" transform="matrix(0.959, -0.284, 0.284, 0.959, 385.755, 253.934)" opacity="0.1"/>
  <ellipse id="Ellipse_70" data-name="Ellipse 70" cx="16.22" cy="1.931" rx="16.22" ry="1.931" transform="matrix(0.959, -0.284, 0.284, 0.959, 391.94, 265.521)" opacity="0.1"/>
  <path id="Tracé_415" data-name="Tracé 415" d="M947.457,727.629h-32.81a6.8,6.8,0,0,1,0-13.609,6.8,6.8,0,1,1,0-13.6h1.5c.857-5.854,7.461-10.411,15.494-10.419s14.675,4.541,15.517,10.388h.3a6.8,6.8,0,1,1,0,13.6,6.8,6.8,0,0,1,0,13.609Z" transform="translate(-266.853 -258.004)" fill="#6c63ff"/>
  <path id="Tracé_416" data-name="Tracé 416" d="M956.329,710.278a6.812,6.812,0,0,1-6.8,6.8h-32.8l32.594-13.632h.2A6.82,6.82,0,0,1,956.329,710.278Z" transform="translate(-268.929 -261.065)" opacity="0.1"/>
  <path id="Tracé_417" data-name="Tracé 417" d="M908.17,728a6.82,6.82,0,0,0,6.8,6.8h32.81l-32.617-13.57h-.178A6.828,6.828,0,0,0,908.17,728Z" transform="translate(-266.98 -265.113)" opacity="0.1"/>
  <path id="Tracé_418" data-name="Tracé 418" d="M694.373,721.906H675.752a3.862,3.862,0,0,1,0-7.724,3.862,3.862,0,1,1,0-7.724h.857c.479-3.321,4.233-5.909,8.789-5.909s8.311,2.572,8.8,5.893h.17a3.862,3.862,0,1,1,0,7.724,3.862,3.862,0,1,1,0,7.724Z" transform="translate(-213.193 -260.405)" fill="#6c63ff"/>
  <path id="Tracé_419" data-name="Tracé 419" d="M699.373,712.062a3.862,3.862,0,0,1-3.862,3.862H676.89l18.537-7.724h.085A3.862,3.862,0,0,1,699.373,712.062Z" transform="translate(-214.331 -262.147)" opacity="0.1"/>
  <path id="Tracé_420" data-name="Tracé 420" d="M672.05,722.092a3.862,3.862,0,0,0,3.862,3.862h18.614l-18.537-7.724h-.116A3.862,3.862,0,0,0,672.05,722.092Z" transform="translate(-213.23 -264.43)" opacity="0.1"/>
  <path id="Tracé_421" data-name="Tracé 421" d="M235.36,743.267H195.97a8.164,8.164,0,1,1,0-16.32,8.164,8.164,0,1,1,0-16.32h1.792c1.027-7.021,8.959-12.489,18.591-12.5s17.571,5.445,18.614,12.458h.355a8.164,8.164,0,0,1,0,16.32,8.164,8.164,0,0,1,0,16.32Z" transform="translate(-102.939 -259.854)" fill="#6c63ff"/>
  <path id="Tracé_422" data-name="Tracé 422" d="M245.989,722.455a8.179,8.179,0,0,1-8.148,8.164H198.45l39.1-16.359h.239A8.2,8.2,0,0,1,245.989,722.455Z" transform="translate(-105.419 -263.526)" opacity="0.1"/>
  <path id="Tracé_423" data-name="Tracé 423" d="M188.22,743.673a8.187,8.187,0,0,0,8.172,8.148h39.39L196.646,735.54h-.239A8.2,8.2,0,0,0,188.22,743.673Z" transform="translate(-103.09 -268.37)" opacity="0.1"/>
  <path id="Tracé_424" data-name="Tracé 424" d="M340.18,277.6a15.694,15.694,0,0,0-9.106.973,13.339,13.339,0,0,1-10.89,0,15.292,15.292,0,0,0-12.806.247,7.948,7.948,0,0,1-3.684.927c-5.19,0-9.508-5.229-10.4-12.134a10,10,0,0,0,2.6-2.8c3.043-4.9,7.724-8.048,13.045-8.048s9.956,3.089,13,7.963a10.041,10.041,0,0,0,8.62,4.735h.139C334.82,269.46,338.4,272.773,340.18,277.6Z" transform="translate(-127.009 -159.383)" fill="#6c63ff" opacity="0.1"/>
  <path id="Tracé_425" data-name="Tracé 425" d="M355.954,250.272l-8.388,5.322,5.09-9.268a8.257,8.257,0,0,0-5.074-1.815h-.131a9.268,9.268,0,0,1-1.738-.124l-2.85,1.8,1.22-2.217a10.141,10.141,0,0,1-4.974-3.777L334,243.429l3.213-5.847a14.9,14.9,0,0,0-11.4-5.762c-5.291,0-10.041,3.144-13.053,8.048a9.77,9.77,0,0,1-8.627,4.634h-.255c-5.839,0-10.581,6.627-10.581,14.8s4.742,14.8,10.581,14.8a7.855,7.855,0,0,0,3.684-.927,15.293,15.293,0,0,1,12.806-.247,13.516,13.516,0,0,0,5.476,1.174,13.354,13.354,0,0,0,5.407-1.151,15.285,15.285,0,0,1,12.69.247,7.91,7.91,0,0,0,3.646.9c5.847,0,10.581-6.627,10.581-14.8a18.807,18.807,0,0,0-2.217-9.029Z" transform="translate(-127.011 -153.703)" fill="#6c63ff" opacity="0.1"/>
  <path id="Tracé_426" data-name="Tracé 426" d="M210.62,387.6a15.694,15.694,0,0,1,9.067.973,13.315,13.315,0,0,0,10.883,0,15.293,15.293,0,0,1,12.806.247,7.971,7.971,0,0,0,3.684.927c5.19,0,9.515-5.229,10.411-12.134a9.878,9.878,0,0,1-2.6-2.8c-3.043-4.9-7.762-8.048-13.053-8.048s-9.948,3.089-12.991,7.963a10.041,10.041,0,0,1-8.65,4.727h-.131C215.942,379.46,212.358,382.773,210.62,387.6Z" transform="translate(-108.19 -184.424)" fill="#6c63ff" opacity="0.1"/>
  <path id="Tracé_427" data-name="Tracé 427" d="M189.489,360.269l8.388,5.322-5.1-9.268a8.272,8.272,0,0,1,5.074-1.815h.139a9.268,9.268,0,0,0,1.738-.124l2.842,1.8-1.22-2.217a10.156,10.156,0,0,0,4.982-3.777l5.09,3.228-3.221-5.847a14.919,14.919,0,0,1,11.408-5.762c5.291,0,10,3.143,13.053,8.048a9.763,9.763,0,0,0,8.627,4.634h.278c5.847,0,10.581,6.627,10.581,14.8s-4.735,14.8-10.581,14.8a7.9,7.9,0,0,1-3.684-.927,15.293,15.293,0,0,0-12.806-.247,13.477,13.477,0,0,1-5.468,1.174,13.3,13.3,0,0,1-5.407-1.151,15.3,15.3,0,0,0-12.7.247,7.886,7.886,0,0,1-3.646.9c-5.839,0-10.581-6.627-10.581-14.8a18.807,18.807,0,0,1,2.209-9.021Z" transform="translate(-102.876 -178.742)" fill="#6c63ff" opacity="0.1"/>
  <path id="Tracé_428" data-name="Tracé 428" d="M627.528,401.569a4.042,4.042,0,0,1,1.406.44,3.329,3.329,0,0,1,1.228,1.645,14.518,14.518,0,0,1,.819,5.152,11.044,11.044,0,0,1-.533,4.178,2.611,2.611,0,0,1-.7,1.089,2.411,2.411,0,0,1-.958.463,2.557,2.557,0,0,1-2.248-.278,3.568,3.568,0,0,1-1-2.317,5.461,5.461,0,0,0-1.336-3.228c-.641-.595-1.545-.9-2.016-1.63a3.468,3.468,0,0,1,.093-3c.3-.85.772-2.564,1.637-3S626.609,401.4,627.528,401.569Z" transform="translate(-201.811 -192.206)" fill="#fbbebe"/>
  <path id="Tracé_429" data-name="Tracé 429" d="M584.133,406.634a6.6,6.6,0,0,0,1.382,2.556c.394.456.88,1,.672,1.545a1.313,1.313,0,0,1-.371.5c-2.9,2.842-6.951,4.225-11.006,4.727a.41.41,0,0,1-.193,0c-.116-.054-.147-.2-.162-.332a4.1,4.1,0,0,1,0-1.267,3.769,3.769,0,0,1,1.908-2.224,6.056,6.056,0,0,0,2.24-1.954c.587-1.1.34-2.541,1.035-3.576a3.746,3.746,0,0,1,2.626-1.352c.34-.054,1.081-.44,1.375-.263S584.017,406.286,584.133,406.634Z" transform="translate(-191.002 -193.115)" fill="#fbbebe"/>
  <path id="Tracé_430" data-name="Tracé 430" d="M628.133,401.5a.409.409,0,0,1,.355-.4,1.212,1.212,0,0,1,.572.077,8.494,8.494,0,0,0,1.383.255,10.041,10.041,0,0,1,1.668.193,1.884,1.884,0,0,1,1.29.989,2.489,2.489,0,0,1,.147.927,14.675,14.675,0,0,1-.432,3.615.256.256,0,0,1-.147.224.545.545,0,0,1-.224,0,.294.294,0,0,0-.131.154,7.971,7.971,0,0,0-.494,2.418c-.139,1.213-.3,2.425-.5,3.63a4.047,4.047,0,0,1-.772,1.985,3.282,3.282,0,0,1-2.085.958,14.675,14.675,0,0,1-4.912-.448,1.429,1.429,0,0,1-.826-.371.95.95,0,0,1-.2-.656c0-.772.772-1.383,1.452-1.831l1-.61a.5.5,0,0,0,.162-.147.558.558,0,0,0,.046-.3l-.062-1.189a3.4,3.4,0,0,1,2.943,1.869c.131.255.255.556.517.656a.687.687,0,0,0,.811-.494,2.078,2.078,0,0,0,0-1.043c-.541-2.912-.409-5.909-.772-8.851a1.962,1.962,0,0,0-.3-.927C628.465,401.963,628.172,401.793,628.133,401.5Z" transform="translate(-202.022 -192.236)" fill="#f86d70"/>
  <path id="Tracé_431" data-name="Tracé 431" d="M575.05,414.98c-.139.224-.355.394-.479.633a.533.533,0,0,0,.1.7.687.687,0,0,0,.432.046,14.543,14.543,0,0,0,7.839-3.545,5.405,5.405,0,0,0,.958-1.058c.255-.386.471-.857.9-1.02a15.661,15.661,0,0,1,.409,3.445,2.449,2.449,0,0,1-.772,2.078,2.5,2.5,0,0,1-.772.332l-1.367.386a1.382,1.382,0,0,1-.772.07,3.415,3.415,0,0,0-.471-.17,1.111,1.111,0,0,0-.525.062l-1.174.348a6.709,6.709,0,0,0-1.166.4c-.34.162-.649.371-.973.548a12.125,12.125,0,0,1-1.707.687l-2.07.718a7.3,7.3,0,0,1-1.761.456,7.553,7.553,0,0,0-1.251.07c-.417.069-.61.162-.935.193a2.51,2.51,0,0,1-1.468-.433,1.453,1.453,0,0,1-.425-.386c-.294-.456,0-1.066.255-1.545a5.979,5.979,0,0,1,2.093-2.163c.363-.2.772-.348,1.12-.525,1.058-.51,1.854-1.367,2.85-1.954S575.49,414.254,575.05,414.98Z" transform="translate(-189.426 -194.433)" fill="#f86d70"/>
  <path id="Tracé_432" data-name="Tracé 432" d="M614.92,305.4a8.634,8.634,0,0,0,3.661,1.429,15.5,15.5,0,0,0,2.07.108,53.645,53.645,0,0,0,8.62-.718,10.674,10.674,0,0,1-2.711-4.217,7.067,7.067,0,0,1-.131-2.641,20.7,20.7,0,0,1,.772-3.329,22.122,22.122,0,0,1-3.646-.093c-.687-.07-2.379-.7-2.981-.216s-.139,2-.123,2.726a.292.292,0,0,1,0,.077,8.688,8.688,0,0,1-.7,3.182A5.986,5.986,0,0,1,614.92,305.4Z" transform="translate(-200.225 -168.211)" fill="#fbbebe"/>
  <path id="Tracé_433" data-name="Tracé 433" d="M622.068,298.454a7.276,7.276,0,0,0,5.939.911,20.71,20.71,0,0,1,.772-3.329,22.119,22.119,0,0,1-3.646-.093c-.687-.07-2.379-.7-2.981-.216S622.052,297.728,622.068,298.454Z" transform="translate(-201.804 -168.211)" opacity="0.1"/>
  <circle id="Ellipse_71" data-name="Ellipse 71" cx="7.26" cy="7.26" r="7.26" transform="translate(416.974 116.572)" fill="#fbbebe"/>
  <path id="Tracé_434" data-name="Tracé 434" d="M587.4,330.753a3.391,3.391,0,0,0,1.638,2.912,6.238,6.238,0,0,0,1.776.626,34.931,34.931,0,0,0,10.133,1.251,5.653,5.653,0,0,0,2.147-.448,2.317,2.317,0,0,0,1.328-1.661.942.942,0,0,1,.6-.973,2.054,2.054,0,0,0,.772-2.054c.417.185.85-.232,1.043-.641s.348-.911.772-1.081a5.793,5.793,0,0,1,.9-.131c.479-.124.772-.587,1.112-.942a8.357,8.357,0,0,1,2.564-1.545,28.453,28.453,0,0,0,6.951-5.584,23.357,23.357,0,0,0,3-3.36c.239-.355.463-.718.664-1.089a30.652,30.652,0,0,0,1.676-3.823,4.448,4.448,0,0,0,.425-2.194,1.837,1.837,0,0,0,0-.2,4.188,4.188,0,0,0-.657-1.328,5.561,5.561,0,0,0-2.974-2.448,8.549,8.549,0,0,0-3.862.34,9.424,9.424,0,0,1-1.3.2,12.071,12.071,0,0,1-4.039-.633l-1.444-.394c-.718-.2-1.081-1.074-1.807-1.228a2.633,2.633,0,0,0-.981.054,13.331,13.331,0,0,0-4.279,1.4,6.5,6.5,0,0,0-.826.564,5.282,5.282,0,0,0-1.931,2.85c-.3,1.259,0,2.6-.324,3.862a8.542,8.542,0,0,1-1.475,2.811l-3.537,5.082a30.894,30.894,0,0,1-2.611,3.391C590.953,326.374,587.454,327.942,587.4,330.753Z" transform="translate(-193.96 -170.203)" fill="#f86d70"/>
  <path id="Tracé_435" data-name="Tracé 435" d="M597.606,274.445a5.984,5.984,0,0,0-.641-2.016,4.582,4.582,0,0,0-.942-.989,6.179,6.179,0,0,0-2.008-1.251,2.5,2.5,0,0,0-2.317.263,3.043,3.043,0,0,0-1,2.093,5.167,5.167,0,0,0,.541,3.174,13.247,13.247,0,0,0,2.572,2.649,10.043,10.043,0,0,1,1.684,2.093,5.859,5.859,0,0,0,.772,1.12,1.444,1.444,0,0,0,1.213.479,2.093,2.093,0,0,0,.989-.579c.363-.317,1.352-.9,1.383-1.406s-.772-1.344-.935-1.73A19.55,19.55,0,0,1,597.606,274.445Z" transform="translate(-194.697 -162.399)" fill="#fbbebe"/>
  <path id="Tracé_436" data-name="Tracé 436" d="M566.3,373.706c.911,1.684,1.915,3.321,2.726,5.059.471,1.012.888,2.054,1.413,3.035s1.282,2.078,1.885,3.136a36.446,36.446,0,0,1,3.136,8.681,17.471,17.471,0,0,0,6.179-2.17c.124-.077.247-.154.363-.239a4.449,4.449,0,0,0,1.251-1.375,29.134,29.134,0,0,0-2.927-7.893c-.471-.772-1.02-1.545-1.545-2.317-1.429-2.24-1.722-5.067-3.344-7.167a1.228,1.228,0,0,1,0-1.46c.185-.239.487-.471.425-.772s-.27-.425-.178-.626.139-.154.224-.224c.27-.255.239-.7.263-1.066a5.275,5.275,0,0,1,1.182-2.564,1.651,1.651,0,0,1,.433-.463c.147-.093.324-.131.471-.224.517-.324.479-1.081.726-1.645.332-.772,1.151-1.112,1.684-1.715.687-.772.857-1.831,1.545-2.495a2,2,0,0,1,.239-.193,11.813,11.813,0,0,0-.425,3.5c-.069,4.039.942,8.226.464,12.242a8.45,8.45,0,0,0,4.371,7.963,20.9,20.9,0,0,0,3.406,1.429c1.746.618,3.483,1.259,5.19,1.97q1.807.772,3.568,1.614a44.012,44.012,0,0,1,4.217,2.317,16.218,16.218,0,0,1,4.549,3.738,4.062,4.062,0,0,0,2.935-1.614,11.268,11.268,0,0,0,1.614-3.043,8.39,8.39,0,0,0,.772-2.865.549.549,0,0,0-.317-.518l-7.963-4.225-1.491-.772c-3.259-1.73-6.642-3.329-9.9-5.059-.216.062-.4-.185-.463-.4s-.108-.487-.317-.587-.239-.046-.317-.131a.34.34,0,0,1-.054-.263c.108-1.545,1.244-3.028,1.012-4.6a5.506,5.506,0,0,1-.286-1.977,9.277,9.277,0,0,1,.6-1.251c.394-.958,0-2.116.432-3.089a6.949,6.949,0,0,0,.572-1.954,13.323,13.323,0,0,1,1.22-3.862,6.952,6.952,0,0,1,1.12-1.7c.239-.255.51-.487.772-.772a6.179,6.179,0,0,0,1.143-2.966,14.181,14.181,0,0,0,.162-5.808,8.55,8.55,0,0,1-.371-1.954c0-.88.394-1.908-.216-2.541a1.954,1.954,0,0,0-.888-.456,28.152,28.152,0,0,0-4.318-.772l-6.658-.865a6.18,6.18,0,0,1-2.217-.572,4.426,4.426,0,0,1-1.861-2.387c-1.174.85-1.606,2.441-2.541,3.537a17.468,17.468,0,0,1-1.545,1.467,17.756,17.756,0,0,0-1.668,2.055,36.4,36.4,0,0,0-3.769,5.963c-.517,1.112-.919,2.271-1.336,3.422-1.622,4.534-4.271,8.836-5.406,13.524-.27,1.151-.973,2.186-1.081,3.352A6.494,6.494,0,0,0,566.3,373.706Z" transform="translate(-188.897 -177.597)" fill="#434175"/>
  <path id="Tracé_437" data-name="Tracé 437" d="M611.451,335.491a1.984,1.984,0,0,1,.239.981c-.147-.772-1.159-1.143-1.22-1.869,0-.332,0-.317.239-.139S611.157,335.2,611.451,335.491Z" transform="translate(-199.212 -177.041)" opacity="0.1"/>
  <path id="Tracé_438" data-name="Tracé 438" d="M607.562,338.655a1.544,1.544,0,0,1,.456.68,1.714,1.714,0,0,1,.093,1.189c-.147-.07-.193-.255-.24-.409a2.878,2.878,0,0,0-.317-.7c-.116-.193-.672-.641-.664-.85S607.415,338.547,607.562,338.655Z" transform="translate(-198.397 -177.981)" opacity="0.1"/>
  <path id="Tracé_439" data-name="Tracé 439" d="M607.3,306.309a7.725,7.725,0,0,0,1.545,1.02c1.437.726,3.028,1.112,4.48,1.815a20.791,20.791,0,0,1,2.078,1.213l4.3,2.726a5.122,5.122,0,0,1,.95.718c.51.556.51,1.545.981,2.116a2.865,2.865,0,0,0,2.093.965,6.875,6.875,0,0,0,2.317-.394,11.905,11.905,0,0,0,1.328-.487,6.309,6.309,0,0,0,1.274-.726,3.661,3.661,0,0,0,1.545-2.379,4.772,4.772,0,0,0-.255-1.939,7.266,7.266,0,0,0-.463-1.174,3.813,3.813,0,0,0-.363-.618,6.846,6.846,0,0,0-4.41-2.387c-.888-.17-1.792-.278-2.68-.433a9.41,9.41,0,0,1-1.3.2,12.072,12.072,0,0,1-4.039-.633l-1.444-.394c-.718-.2-1.081-1.074-1.807-1.228a2.634,2.634,0,0,0-.981.054,13.332,13.332,0,0,0-4.279,1.4,6.5,6.5,0,0,0-.873.564Z" transform="translate(-198.49 -170.196)" opacity="0.1"/>
  <path id="Tracé_440" data-name="Tracé 440" d="M601.228,282c.185,1.753,1.661,3.043,2.564,4.557.44.772.772,1.545,1.143,2.317a23.46,23.46,0,0,0,1.545,2.394l1.614,2.317a24.246,24.246,0,0,0,3.089,3.916c2.116.363,3.862,1.931,5.885,2.688a29.841,29.841,0,0,0,5.036,1.02,6.846,6.846,0,0,1,4.41,2.387,6.575,6.575,0,0,1,.826,1.8,4.736,4.736,0,0,1,.255,1.939,3.661,3.661,0,0,1-1.545,2.371,8.024,8.024,0,0,1-2.6,1.213,6.689,6.689,0,0,1-2.317.394,2.834,2.834,0,0,1-2.093-.965c-.471-.587-.463-1.545-.981-2.109a4.725,4.725,0,0,0-.95-.718l-4.3-2.726a20.778,20.778,0,0,0-2.078-1.213c-1.452-.711-3.043-1.089-4.48-1.823a5.429,5.429,0,0,1-3.089-3.514c-.873-4.874-4.248-8.983-7.129-13.007.093,0,.062-.232.1-.324a4.171,4.171,0,0,1,2.109-2.132A12.354,12.354,0,0,1,601.228,282Z" transform="translate(-195.924 -165.127)" fill="#f86d70"/>
  <path id="Tracé_441" data-name="Tracé 441" d="M622.445,281a2.6,2.6,0,0,1,.3-1.545,3.406,3.406,0,0,1,2.387-1.259c.873-.185,1.746-.332,2.626-.463a6.031,6.031,0,0,1,2.17-.039,14.679,14.679,0,0,1,2.711,1.282,18.778,18.778,0,0,0,3.445.88,5.213,5.213,0,0,1,3.089,1.661,5.785,5.785,0,0,1,.919,2.572c1.375,7.415-.108,15.015-.386,22.553-.108,2.927,0,6.063,1.7,8.5l-4.881-.124a5.985,5.985,0,0,1-3.576-.873,5.848,5.848,0,0,1-1.637-2.8,8.679,8.679,0,0,1-.626-2.51c-.077-1.776.927-3.514.6-5.252a5.854,5.854,0,0,0-2.24-3.267,20.476,20.476,0,0,1-2.958-2.634,9.557,9.557,0,0,1-1.545-6.735,25.43,25.43,0,0,0,.239-4.186,5.282,5.282,0,0,0-1.1-2.943A4.078,4.078,0,0,1,622.445,281Z" transform="translate(-201.934 -164.129)" fill="#434175"/>
  <path id="Tracé_442" data-name="Tracé 442" d="M622.742,279.631a3.344,3.344,0,0,1,2.317-1.251,2.27,2.27,0,0,0-1.159.911,2.6,2.6,0,0,0-.3,1.545,4.047,4.047,0,0,0,1.251,2.811,5.283,5.283,0,0,1,1.1,2.935,25.476,25.476,0,0,1-.239,4.194c-.178,2.317.1,4.874,1.545,6.727a20.472,20.472,0,0,0,2.958,2.634,5.877,5.877,0,0,1,2.209,3.205c.324,1.746-.68,3.483-.6,5.252a8.616,8.616,0,0,0,.626,2.51,4.434,4.434,0,0,0,5.213,3.676l3.46.093c.077.124.154.247.239.371l-4.881-.124a5.985,5.985,0,0,1-3.576-.873,5.848,5.848,0,0,1-1.637-2.8,8.675,8.675,0,0,1-.626-2.51c-.077-1.776.927-3.514.6-5.252a5.855,5.855,0,0,0-2.2-3.2,20.471,20.471,0,0,1-2.958-2.634,9.557,9.557,0,0,1-1.545-6.735,25.43,25.43,0,0,0,.239-4.186,5.283,5.283,0,0,0-1.1-2.943,4.078,4.078,0,0,1-1.251-2.811,2.6,2.6,0,0,1,.317-1.545Z" transform="translate(-201.93 -164.302)" opacity="0.1"/>
  <path id="Tracé_443" data-name="Tracé 443" d="M575.37,374.709l8.983,21.819a4.449,4.449,0,0,0,1.251-1.375,29.134,29.134,0,0,0-2.927-7.894c-.471-.772-1.019-1.545-1.545-2.317-1.429-2.24-1.722-5.067-3.344-7.168a1.228,1.228,0,0,1,0-1.46c.185-.239.487-.471.425-.772s-.27-.425-.178-.626.139-.154.224-.224c.27-.255.239-.7.263-1.066a5.276,5.276,0,0,1,1.182-2.564,1.654,1.654,0,0,1,.432-.463c.147-.093.324-.131.471-.224.517-.324.479-1.081.726-1.645.332-.772,1.151-1.112,1.684-1.715.687-.772.857-1.83,1.545-2.495l.062-.154-.68-4.217Z" transform="translate(-191.221 -182.917)" opacity="0.1"/>
</svg>
