<svg data-name="Groupe 230" xmlns="http://www.w3.org/2000/svg" width="1021.76" height="750.264"><path data-name="Tracé 1000" d="M179.107 0l-53.388 87.261a65.991 65.991 0 0 1-68.855 112.541L.099 292.583l547.635 335.049 179.008-292.579z" fill="#f2f2f2"/><circle data-name="Ellipse 498" cx="43" cy="43" r="43" transform="translate(54.759 99.593)" fill="#f2f2f2"/><ellipse data-name="Ellipse 499" cx="152" cy="10" rx="152" ry="10" transform="translate(344.759 698.593)" fill="#f2f2f2"/><ellipse data-name="Ellipse 500" cx="71" cy="4.671" rx="71" ry="4.671" transform="translate(168.759 740.922)" fill="#f2f2f2"/><ellipse data-name="Ellipse 501" cx="152" cy="10" rx="152" ry="10" transform="translate(646.759 675.593)" fill="#f2f2f2"/><path data-name="Ligne 53" fill="none" stroke="#2f2e41" stroke-miterlimit="10" stroke-width="2" d="M6.759 669.593h1015"/><path data-name="Rectangle 2036" fill="#3f3d56" d="M183.259 176.093h730v493h-730z"/><path data-name="Ligne 54" fill="none" stroke="#2f2e41" stroke-miterlimit="10" stroke-width="2" d="M183.259 212.152h730"/><circle data-name="Ellipse 502" cx="9" cy="9" r="9" transform="translate(196.759 185.093)" fill="#6c63ff"/><circle data-name="Ellipse 503" cx="9" cy="9" r="9" transform="translate(223.759 185.593)" fill="#6c63ff"/><circle data-name="Ellipse 504" cx="9" cy="9" r="9" transform="translate(250.759 186.093)" fill="#6c63ff"/><path data-name="Rectangle 2037" fill="#6c63ff" opacity=".3" d="M228.759 245.593h616v120h-616z"/><path data-name="Ligne 55" fill="none" stroke="#6c63ff" stroke-miterlimit="10" stroke-width="2" opacity=".3" d="M228.759 365.593l616-120"/><path data-name="Ligne 56" fill="none" stroke="#6c63ff" stroke-miterlimit="10" stroke-width="2" opacity=".3" d="M844.759 365.593l-616-120"/><path data-name="Rectangle 2038" fill="#6c63ff" opacity=".3" d="M228.759 441.593h147v193h-147z"/><path data-name="Rectangle 2039" fill="#6c63ff" opacity=".3" d="M697.759 441.593h147v193h-147z"/><path data-name="Rectangle 2040" fill="#6c63ff" opacity=".3" d="M463.259 441.593h147v193h-147z"/><path data-name="Ligne 57" fill="none" stroke="#6c63ff" stroke-miterlimit="10" stroke-width="2" opacity=".3" d="M228.759 441.593l147 193"/><path data-name="Ligne 58" fill="none" stroke="#6c63ff" stroke-miterlimit="10" stroke-width="2" opacity=".3" d="M375.759 441.593l-147 193"/><path data-name="Ligne 59" fill="none" stroke="#6c63ff" stroke-miterlimit="10" stroke-width="2" opacity=".3" d="M463.759 441.593l147 193"/><path data-name="Ligne 60" fill="none" stroke="#6c63ff" stroke-miterlimit="10" stroke-width="2" opacity=".3" d="M610.759 441.593l-147 193"/><path data-name="Ligne 61" fill="none" stroke="#6c63ff" stroke-miterlimit="10" stroke-width="2" opacity=".3" d="M697.759 441.593l147 193"/><path data-name="Ligne 62" fill="none" stroke="#6c63ff" stroke-miterlimit="10" stroke-width="2" opacity=".3" d="M844.759 441.593l-147 193"/><path data-name="Rectangle 2041" fill="#6c63ff" d="M310.759 245.593h616v120h-616z"/><path data-name="Rectangle 2042" fill="#6c63ff" d="M725.759 487.593h147v193h-147z"/><path data-name="Rectangle 2043" fill="#3f3d56" d="M747.259 513.093h104v12h-104z"/><path data-name="Rectangle 2044" fill="#3f3d56" d="M747.259 539.093h104v12h-104z"/><path data-name="Rectangle 2045" fill="#3f3d56" d="M747.259 565.093h104v12h-104z"/><path data-name="Rectangle 2046" fill="#3f3d56" d="M747.259 591.093h104v12h-104z"/><path data-name="Rectangle 2047" fill="#3f3d56" d="M747.259 617.093h104v12h-104z"/><path data-name="Rectangle 2048" fill="#3f3d56" d="M747.259 643.093h104v12h-104z"/><path data-name="Rectangle 2049" fill="#6c63ff" d="M264.759 467.593h147v193h-147z"/><path data-name="Rectangle 2050" fill="#3f3d56" d="M286.259 532.093h104v12h-104z"/><path data-name="Rectangle 2051" fill="#3f3d56" d="M286.259 558.093h104v12h-104z"/><path data-name="Rectangle 2052" fill="#3f3d56" d="M286.259 584.093h104v12h-104z"/><path data-name="Tracé 1001" d="M648.594 315.962c0 22.469-13.356 30.314-29.834 30.314q-.573 0-1.143-.013a54.193 54.193 0 0 1-2.267-.1c-14.871-1.052-26.424-9.3-26.424-30.2 0-21.625 27.634-48.912 29.71-50.932l.12-.116s29.838 28.579 29.838 51.047z" fill="#3f3d56"/><path data-name="Tracé 1002" d="M617.673 342.839l10.907-15.247-10.939 16.921-.029 1.75a54.193 54.193 0 0 1-2.267-.1l1.176-22.479-.009-.174.02-.033.111-2.123-10.963-16.967 11 15.37.025.451.889-16.985-9.388-17.528 9.5 14.547.925-35.212v-.12.116l-.154 27.767 9.347-11.008-9.385 13.4-.247 15.207 8.727-14.594-8.756 16.834-.138 8.454 12.669-20.313-12.714 23.259z" fill="#6c63ff"/><circle data-name="Ellipse 505" cx="23.433" cy="23.433" r="23.433" transform="translate(58.798 315.806)" fill="#2f2e41"/><path data-name="Tracé 1003" d="M69.894 354.839s.353 14.464-1.058 14.817 19.4 6 19.4 6l2.117-19.756z" fill="#a0616a"/><path data-name="Tracé 1004" d="M234.293 478.315s15.523 0 15.875-1.764 3.528 14.464 3.528 14.464l-6.35 2.117s-11.995-5.292-13.053-5.292 0-9.525 0-9.525z" fill="#a0616a"/><path data-name="Tracé 1005" d="M251.227 484.665s-2.822-9.525-6.35-9.878c0 0 11.995-7.761 12.348-10.231s4.586-8.82 6.35-6.7 1.764 35.632-1.411 39.159-17.284-4.961-17.284-4.961 8.817-3.861 6.347-7.389z" fill="#2f2e41"/><path data-name="Tracé 1006" d="M59.663 619.783l-2.822 15.17 13.053 2.117v-17.287z" fill="#a0616a"/><path data-name="Tracé 1007" d="M59.663 633.189s-2.117-6.7-3.528-5.645-3.528 7.761-3.175 9.525 2.822 15.523 1.764 17.992 5.292 15.17 13.406 14.112 7.409-8.114 7.409-8.114l-2.822-10.936-1.059-17.291s-9.173-1.407-11.995.357z" fill="#2f2e41"/><circle data-name="Ellipse 506" cx="9.696" cy="9.696" r="9.696" transform="translate(64.338 304.88)" fill="#2f2e41"/><path data-name="Tracé 1008" d="M61.106 309.324a9.7 9.7 0 0 1 8.686-9.644 9.7 9.7 0 1 0 0 19.288 9.7 9.7 0 0 1-8.686-9.644z" fill="#2f2e41"/><circle data-name="Ellipse 507" cx="14.817" cy="14.817" r="14.817" transform="translate(67.424 335.083)" fill="#a0616a"/><path data-name="Tracé 1009" d="M52.96 452.914s.706 17.639 3.528 26.812 13 74.5 10.881 79.436-13 59.563-10.528 62.738 14.112 2.117 14.112 2.117l15.82-66.266s-3.119-73.086 22.987-74.849 68.794-2.822 68.794-2.822 27.517 8.114 39.865 7.761 19.4 3.175 19.4 3.175l2.117-14.464-54.682-11.995s-50.1-17.287-77.613-12.7-54.681 1.057-54.681 1.057z" fill="#2f2e41"/><path data-name="Tracé 1010" d="M72.716 365.07s-4.233-2.47-5.292 0-8.467 4.586-11.289 2.47-9.878.706-9.878.706l-7.761 22.931s3.881 19.756 7.409 30.693 4.939 33.515 3.528 35.632 28.223 10.584 42.687 5.292 17.639-11.289 17.639-11.289-15.879-22.58-10.579-33.164 1.058-22.578 1.058-22.578l2.117-11.995-11.995-6.7s-.706-6.35-3.528-6.35-14.116-5.648-14.116-5.648z" fill="#d0cde1"/><path data-name="Tracé 1011" d="M97.059 384.12h5.292a11.843 11.843 0 0 1 3.529 10.937c-1.411 6.7-7.775 28.925-7.775 28.925l-5.278-13.755z" fill="#d0cde1"/><path data-name="Tracé 1012" d="M112.255 440.776s10.558 11.432 2.8 17.43-9.674-13.759-9.674-13.759z" fill="#a0616a"/><path data-name="Tracé 1013" d="M97.059 416.932l2.47 9.878 4.233 7.761s14.464 9.525 14.464 13.053c0 0-6.35-8.114-14.464 0l-7.232-17.463z" fill="#d0cde1"/><ellipse data-name="Ellipse 508" cx="16.16" cy="9.696" rx="16.16" ry="9.696" transform="translate(68.797 324.574)" fill="#2f2e41"/><path data-name="Tracé 1014" d="M52.96 335.083s11.289-6.35 15.875-1.764-13.755 11.642-13.755 11.642z" fill="#a0616a"/><path data-name="Tracé 1015" d="M48.727 370.009l-2.47-1.764s-2.822-4.233-5.292-2.822-16.933-5.291-16.933-5.291 5.292 2.47 5.292-1.764.706-3.528 4.233-3.528 3.528 1.764 4.939-.706.706-3.881 3.175-2.47 5.292.353 6-.706 13.403-2.826 13.403-2.826-4.939-14.464-6-15.523-28.223 10.936-28.223 10.936-34.22 9.525-25.4 20.462 40.573 27.525 40.573 27.525z" fill="#d0cde1"/><path data-name="Rectangle 2053" fill="#6c63ff" d="M430.759 515.593h147v193h-147z"/><path data-name="Rectangle 2054" fill="#3f3d56" d="M471.259 546.093h66v66h-66z"/><path data-name="Rectangle 2055" fill="#3f3d56" d="M446.259 626.093h116v8h-116z"/><path data-name="Rectangle 2056" fill="#3f3d56" d="M446.259 648.093h116v8h-116z"/><path data-name="Rectangle 2057" fill="#3f3d56" d="M446.259 670.093h116v8h-116z"/><path data-name="Tracé 1016" d="M262.633 725.026c0 14.581-8.668 19.672-19.361 19.672q-.372 0-.742-.008a31.9 31.9 0 0 1-1.471-.067c-9.65-.683-17.148-6.036-17.148-19.6 0-14.034 17.933-31.742 19.28-33.052l.078-.076s19.364 18.551 19.364 33.131z" fill="#6c63ff"/><path data-name="Tracé 1017" d="M242.567 742.468l7.081-9.894-7.1 10.981-.019 1.136a31.9 31.9 0 0 1-1.471-.067l.763-14.588-.006-.113.013-.021.072-1.378-7.116-11.008 7.139 9.975.017.293.577-11.022-6.093-11.375 6.167 9.44.6-22.851v-.078.076l-.1 18.019 6.065-7.144-6.09 8.7-.16 9.868 5.663-9.471-5.687 10.923-.09 5.486 8.222-13.182-8.252 15.1z" fill="#3f3d56"/></svg>