<svg xmlns="http://www.w3.org/2000/svg" xmlns:xlink="http://www.w3.org/1999/xlink" width="699.913" height="538.708" viewBox="0 0 699.913 538.708">
  <defs>
    <linearGradient id="linear-gradient" x1="0.531" y1="1.017" x2="0.531" y2="-0.007" gradientUnits="objectBoundingBox">
      <stop offset="0" stop-color="gray" stop-opacity="0.251"/>
      <stop offset="0.54" stop-color="gray" stop-opacity="0.122"/>
      <stop offset="1" stop-color="gray" stop-opacity="0.102"/>
    </linearGradient>
    <linearGradient id="linear-gradient-2" x1="0.5" y1="1" x2="0.5" y2="0.001" xlink:href="#linear-gradient"/>
  </defs>
  <g id="Groupe_70" data-name="Groupe 70" transform="translate(0.007 0)">
    <path id="Tracé_603" data-name="Tracé 603" d="M695.506,323.7c-25.789,38.793-19.262,92.713-6.277,135.421,4.372,14.3,9.313,29.405,6.377,45.207-3.591,19.324-18.231,34.208-33.24,42.54-27.35,15.2-59.1,13.947-82.651-3.242-20.355-14.859-34.189-40.21-54.963-54.338-34.72-23.559-81.083-10.955-121.118,9.294-28.325,14.309-59.423,32.559-86.267,21.111-18.887-8.057-31.129-29.755-37.212-53.183-2.936-11.311-4.859-23.634-11.118-32.359-3.747-5.184-8.744-8.744-13.922-11.636-47.287-26.695-109.676-6.964-155.427-36.981-30.873-20.236-49.242-60.922-56.1-104.111s-3.479-89.128,1.106-134.335c3.254-32.122,7.92-66.487,25.839-92.238,18.956-27.238,49.7-38.836,76.823-35.57s50.966,19.443,71.72,38.974c25.939,24.359,49.573,55.25,82.507,63.707,22.429,5.777,46.6.356,70.172-2.5,39.411-4.716,78.466-2.092,117.259,1.024,37.144,2.985,74.525,6.489,109.408,19.218,24.683,9.006,43.933,26.944,67.074,38.874,15.084,7.776,31.885,9.138,46.019,19.362,17.413,12.585,32.8,35.407,26.751,63.607C732.513,288.4,709.191,303.086,695.506,323.7Z" transform="translate(-39.7 -18.74)" fill="#6c63ff" opacity="0.1"/>
    <rect id="Rectangle_1681" data-name="Rectangle 1681" width="25.539" height="38.661" transform="translate(550.127 160.155)" fill="#6c63ff" opacity="0.1"/>
    <rect id="Rectangle_1682" data-name="Rectangle 1682" width="20.574" height="31.142" transform="translate(552.607 163.915)" fill="#6c63ff" opacity="0.1"/>
    <rect id="Rectangle_1683" data-name="Rectangle 1683" width="39.224" height="38.661" transform="translate(498.287 133.298)" fill="#6c63ff" opacity="0.1"/>
    <rect id="Rectangle_1684" data-name="Rectangle 1684" width="31.597" height="31.142" transform="translate(502.097 137.058)" fill="#6c63ff" opacity="0.1"/>
    <rect id="Rectangle_1685" data-name="Rectangle 1685" width="119.888" height="3.192" transform="translate(40.358 75.774)" fill="#6c63ff" opacity="0.1"/>
    <rect id="Rectangle_1686" data-name="Rectangle 1686" width="119.888" height="3.192" transform="translate(40.358 91.382)" fill="#6c63ff" opacity="0.1"/>
    <rect id="Rectangle_1687" data-name="Rectangle 1687" width="12.248" height="136.87" transform="translate(242.603 282.703)" fill="#d6d6e3"/>
    <path id="Tracé_604" data-name="Tracé 604" d="M971.116,410.519V284.266A13.272,13.272,0,0,1,984.388,271h0a13.272,13.272,0,0,1,13.247,13.266v152.8a13.272,13.272,0,0,1-13.272,13.272h-82.2a13.272,13.272,0,0,1-13.272-13.272h0a13.272,13.272,0,0,1,13.272-13.272h55.681a13.272,13.272,0,0,0,13.272-13.272Z" transform="translate(-358.506 -113.444)" fill="#aebee1"/>
    <path id="Tracé_605" data-name="Tracé 605" d="M971.116,410.519V284.266A13.272,13.272,0,0,1,984.388,271h0a13.272,13.272,0,0,1,13.247,13.266v152.8a13.272,13.272,0,0,1-13.272,13.272h-82.2a13.272,13.272,0,0,1-13.272-13.272h0a13.272,13.272,0,0,1,13.272-13.272h55.681a13.272,13.272,0,0,0,13.272-13.272Z" transform="translate(-358.506 -113.444)" fill="#535461"/>
    <path id="Tracé_606" data-name="Tracé 606" d="M888.92,436.351a13.272,13.272,0,0,1,13.254-12.56h55.681a13.272,13.272,0,0,0,13.272-13.272V284.266A13.272,13.272,0,0,1,983.762,271V436.351Z" transform="translate(-358.517 -113.444)" fill="#d6d6e3"/>
    <path id="Tracé_607" data-name="Tracé 607" d="M216.263,417.335V291.082a13.272,13.272,0,0,0-13.241-13.272h0a13.272,13.272,0,0,0-13.272,13.272v152.8a13.272,13.272,0,0,0,13.272,13.3h82.195a13.272,13.272,0,0,0,13.272-13.272h0a13.272,13.272,0,0,0-13.272-13.272H229.542a13.272,13.272,0,0,1-13.279-13.3Z" transform="translate(-96.034 -116)" fill="#aebee1"/>
    <path id="Tracé_608" data-name="Tracé 608" d="M216.263,417.335V291.082a13.272,13.272,0,0,0-13.241-13.272h0a13.272,13.272,0,0,0-13.272,13.272v152.8a13.272,13.272,0,0,0,13.272,13.3h82.195a13.272,13.272,0,0,0,13.272-13.272h0a13.272,13.272,0,0,0-13.272-13.272H229.542a13.272,13.272,0,0,1-13.279-13.3Z" transform="translate(-96.034 -116)" fill="#535461"/>
    <path id="Tracé_609" data-name="Tracé 609" d="M306.824,443.179a13.272,13.272,0,0,0-13.254-12.56H237.9a13.272,13.272,0,0,1-13.279-13.272V291.094A13.272,13.272,0,0,0,212,277.84l0,165.339Z" transform="translate(-104.387 -116.012)" fill="#d6d6e3"/>
    <rect id="Rectangle_1688" data-name="Rectangle 1688" width="12.248" height="140.062" transform="translate(484.921 282.703)" fill="#d6d6e3"/>
    <rect id="Rectangle_1689" data-name="Rectangle 1689" width="12.248" height="10.118" transform="translate(242.603 282.703)" opacity="0.1"/>
    <rect id="Rectangle_1690" data-name="Rectangle 1690" width="12.248" height="10.118" transform="translate(484.921 282.703)" opacity="0.1"/>
    <path id="Tracé_610" data-name="Tracé 610" d="M496.683,337.92q-.294,3.235-.743,6.558h-1.73V337.92Z" transform="translate(-210.335 -138.567)" opacity="0.1"/>
    <path id="Tracé_611" data-name="Tracé 611" d="M546.868,406.053a3.779,3.779,0,0,1-3.541,4.035H505.946v-3.9h31.1a1.954,1.954,0,0,0,1.505-2.923L510.349,345.9a2.5,2.5,0,0,0-2.186-1.412H494.21V337.93h17.619a1.749,1.749,0,0,1,1.53.987l32.334,62.458A10.617,10.617,0,0,1,546.868,406.053Z" transform="translate(-210.335 -138.571)" fill="#535461"/>
    <path id="Tracé_612" data-name="Tracé 612" d="M465.413,360.433l-.512.862-4.791-3.2L474.931,244.13h3.816s.156.525.412,1.524C481.714,255.5,494.262,311.285,465.413,360.433Z" transform="translate(-197.533 -103.356)" fill="#535461"/>
    <path id="Tracé_613" data-name="Tracé 613" d="M479.153,245.654,465.413,360.433l-.512.862-4.791-3.2L474.931,244.13h3.816S478.9,244.673,479.153,245.654Z" transform="translate(-197.533 -103.356)" opacity="0.1"/>
    <rect id="Rectangle_1691" data-name="Rectangle 1691" width="118.226" height="9.056" transform="matrix(0.119, -0.993, 0.993, 0.119, 258.241, 256.982)" fill="#d6d6e3"/>
    <path id="Tracé_614" data-name="Tracé 614" d="M401.583,446.432a1.074,1.074,0,0,1-1.068,1.068h-1.6a1.068,1.068,0,0,1-1.068-1.068.518.518,0,0,1,0-.125,1.068,1.068,0,0,1,1.056-.937h1.6a1.074,1.074,0,0,1,1.031.812A.988.988,0,0,1,401.583,446.432Z" transform="translate(-174.157 -178.906)" fill="#e3edf9"/>
    <path id="Tracé_615" data-name="Tracé 615" d="M409.255,446.432a1.074,1.074,0,0,1-1.068,1.068h-1.6a1.068,1.068,0,0,1-1.068-1.068,1.05,1.05,0,0,1,.044-.294,1.006,1.006,0,0,1,.269-.456,1.043,1.043,0,0,1,.75-.312h1.6a1.074,1.074,0,0,1,.981.625,1.1,1.1,0,0,1,.094.437Z" transform="translate(-177.039 -178.906)" fill="#e3edf9"/>
    <path id="Tracé_616" data-name="Tracé 616" d="M416.075,446.428a1.074,1.074,0,0,1-1.068,1.068h-1.6a1.068,1.068,0,0,1-1.068-1.068,1.012,1.012,0,0,1,.094-.443,1.087,1.087,0,0,1,.968-.625H415a1.062,1.062,0,0,1,1.068,1.068Z" transform="translate(-179.599 -178.902)" fill="#e3edf9"/>
    <path id="Tracé_617" data-name="Tracé 617" d="M423.755,446.432a1.074,1.074,0,0,1-1.068,1.068h-1.6a1.068,1.068,0,0,1-.874-1.68l.125-.137a1.043,1.043,0,0,1,.75-.312h1.6a1.074,1.074,0,0,1,.774.344A1.03,1.03,0,0,1,423.755,446.432Z" transform="translate(-182.483 -178.906)" fill="#e3edf9"/>
    <path id="Tracé_618" data-name="Tracé 618" d="M401.552,446.66a.987.987,0,0,1,.031.256,1.074,1.074,0,0,1-1.068,1.068h-1.6a1.068,1.068,0,0,1-1.068-1.068.518.518,0,0,1,0-.125Z" transform="translate(-174.157 -179.39)" opacity="0.1"/>
    <path id="Tracé_619" data-name="Tracé 619" d="M409.168,446.39a1.1,1.1,0,0,1,.087.418,1.074,1.074,0,0,1-1.068,1.068h-1.6a1.068,1.068,0,0,1-1.068-1.068,1.049,1.049,0,0,1,.044-.294Z" transform="translate(-177.039 -179.289)" opacity="0.1"/>
    <path id="Tracé_620" data-name="Tracé 620" d="M415.922,446.16a1.065,1.065,0,0,1-.906,1.63h-1.6a1.068,1.068,0,0,1-1.068-1.068,1.013,1.013,0,0,1,.094-.443Z" transform="translate(-179.603 -179.202)" opacity="0.1"/>
    <path id="Tracé_621" data-name="Tracé 621" d="M423.755,446.635a1.074,1.074,0,0,1-1.068,1.068h-1.6a1.068,1.068,0,0,1-.874-1.68l3.248-.112a1.031,1.031,0,0,1,.294.725Z" transform="translate(-182.483 -179.108)" opacity="0.1"/>
    <path id="Tracé_622" data-name="Tracé 622" d="M422.775,451.084H391.89v-1.405a2.4,2.4,0,0,1,2.323-2.4l24.771-.856a3.673,3.673,0,0,1,3.8,3.666Z" transform="translate(-171.922 -179.299)" fill="#d6d6e3"/>
    <path id="Tracé_623" data-name="Tracé 623" d="M685.31,406.053a3.779,3.779,0,0,0,3.541,4.035h37.4v-3.9H695.109a1.954,1.954,0,0,1-1.505-2.923L721.81,345.9A2.5,2.5,0,0,1,724,344.488h13.959V337.93H720.349a1.749,1.749,0,0,0-1.505.981l-32.335,62.458a10.617,10.617,0,0,0-1.2,4.684Z" transform="translate(-282.077 -138.571)" fill="#535461"/>
    <path id="Tracé_624" data-name="Tracé 624" d="M784.019,360.433l.512.862,4.791-3.2L774.5,244.13h-3.816s-.156.525-.412,1.524C767.711,255.5,755.138,311.285,784.019,360.433Z" transform="translate(-312.127 -103.356)" fill="#535461"/>
    <path id="Tracé_625" data-name="Tracé 625" d="M773.23,245.654l13.741,114.779.512.862,4.791-3.2L777.458,244.13h-3.816S773.486,244.673,773.23,245.654Z" transform="translate(-315.085 -103.356)" opacity="0.1"/>
    <rect id="Rectangle_1692" data-name="Rectangle 1692" width="9.056" height="118.226" transform="matrix(0.993, -0.119, 0.119, 0.993, 458.481, 140.662)" fill="#d6d6e3"/>
    <path id="Tracé_626" data-name="Tracé 626" d="M860,446.432a1.074,1.074,0,0,0,1.068,1.068h1.6a1.068,1.068,0,0,0,1.068-1.068.515.515,0,0,0,0-.125,1.068,1.068,0,0,0-1.056-.937h-1.6a1.074,1.074,0,0,0-1.031.812A.987.987,0,0,0,860,446.432Z" transform="translate(-347.66 -178.906)" fill="#e3edf9"/>
    <path id="Tracé_627" data-name="Tracé 627" d="M852.329,446.432A1.074,1.074,0,0,0,853.4,447.5H855a1.068,1.068,0,0,0,1.068-1.068,1.053,1.053,0,0,0-.044-.294,1,1,0,0,0-.268-.456,1.044,1.044,0,0,0-.75-.312h-1.63a1.074,1.074,0,0,0-.981.625A1.1,1.1,0,0,0,852.329,446.432Z" transform="translate(-344.779 -178.906)" fill="#e3edf9"/>
    <path id="Tracé_628" data-name="Tracé 628" d="M845.51,446.428a1.074,1.074,0,0,0,1.068,1.068h1.6a1.068,1.068,0,0,0,1.068-1.068,1.01,1.01,0,0,0-.094-.443,1.087,1.087,0,0,0-.968-.625h-1.6a1.062,1.062,0,0,0-1.068,1.068Z" transform="translate(-342.22 -178.902)" fill="#e3edf9"/>
    <path id="Tracé_629" data-name="Tracé 629" d="M837.83,446.432A1.074,1.074,0,0,0,838.9,447.5h1.6a1.068,1.068,0,0,0,.874-1.68l-.125-.137a1.043,1.043,0,0,0-.75-.312h-1.6a1.075,1.075,0,0,0-.775.344A1.031,1.031,0,0,0,837.83,446.432Z" transform="translate(-339.337 -178.906)" fill="#e3edf9"/>
    <path id="Tracé_630" data-name="Tracé 630" d="M860.031,446.66a.987.987,0,0,0-.031.256,1.074,1.074,0,0,0,1.068,1.068h1.6a1.068,1.068,0,0,0,1.068-1.068.515.515,0,0,0,0-.125Z" transform="translate(-347.66 -179.39)" opacity="0.1"/>
    <path id="Tracé_631" data-name="Tracé 631" d="M852.417,446.39a1.1,1.1,0,0,0-.087.418,1.074,1.074,0,0,0,1.068,1.068H855a1.068,1.068,0,0,0,1.068-1.068,1.049,1.049,0,0,0-.044-.294Z" transform="translate(-344.78 -179.289)" opacity="0.1"/>
    <path id="Tracé_632" data-name="Tracé 632" d="M845.662,446.16a1.065,1.065,0,0,0,.906,1.63h1.6a1.068,1.068,0,0,0,1.068-1.068,1.012,1.012,0,0,0-.094-.443Z" transform="translate(-342.216 -179.202)" opacity="0.1"/>
    <path id="Tracé_633" data-name="Tracé 633" d="M837.83,446.635A1.074,1.074,0,0,0,838.9,447.7h1.6a1.068,1.068,0,0,0,.874-1.68l-3.248-.112a1.031,1.031,0,0,0-.293.725Z" transform="translate(-339.337 -179.108)" opacity="0.1"/>
    <path id="Tracé_634" data-name="Tracé 634" d="M822.486,451.084h30.885v-1.405a2.4,2.4,0,0,0-2.323-2.4l-24.771-.856a3.673,3.673,0,0,0-3.8,3.666Z" transform="translate(-333.574 -179.299)" fill="#d6d6e3"/>
    <path id="Tracé_635" data-name="Tracé 635" d="M937.345,376.658c14.409-24.44,9.188-73.738,9.768-74.681.518-.831-1.468-24.046-14.709-29.717-2.392-4.741-4.747-10.081-4.747-10.081a4.2,4.2,0,0,1-.762.568q-.156-.425-.306-.862c-.169-.493-.325-1-.481-1.505a9.71,9.71,0,0,0,1.13.287,4.71,4.71,0,0,0,3.023-.269,3.368,3.368,0,0,0,.868-.668,6.582,6.582,0,0,0,2.1-3.123l3.854-9.231A71.848,71.848,0,0,0,941.5,234.6a35.964,35.964,0,0,0-1.536-19.9c-.912-2.423-2.174-4.847-4.316-6.3-4.291-2.911-10.262-.9-15.165-2.6-1.611-.562-3.067-1.511-4.678-2.086-3.479-1.249-7.407-.581-10.755.974s-6.058,4.029-8.988,6.246c-1.443,1.106-3.747,2.249-5.446,3.747-1.649,1.287-2.917,2.842-2.673,4.89.275,2.342,2.742,3.747,5.04,4.3.381.087.775.156,1.162.225a22.485,22.485,0,0,0,9.6,37.35,52.664,52.664,0,0,1,3.035,6.827q.169.481.331.968c-3.785,1.074-6.745,1.967-7.339,2.461-1.792,1.487,1.961,14.5,1.961,14.5-.956,1.212-1.93,2.592-2.917,4.072a87.784,87.784,0,0,0-13.841,37.831c-.625,4.94-1.437,9.993-2.467,14.8l-44.764-8.975-.094,1.105-1.068-.262h0l-3.36-.831-.131.756-.512-.244c-8.326-3.9-22.354-8.888-31.854-3.747-10.025,5.4,11.611,12.567,25.5,16.383-4.6.225-9.006,1.33-12.492,3.916-10.068,7.545,18.406,11.474,31.854,12.866l.543.056v.287l4.659.431,1.093.1.106,1.661s6.67,1.093,15.583,2.417a271.819,271.819,0,0,1-31.479,5.334,23.032,23.032,0,0,0-19.624,16.52,14.69,14.69,0,0,0-.225,7.945c2.6,9.075-.575,75.836-1.293,90.214l-16.458,9.475s-25.608,3.123-8.551,9.125a35.071,35.071,0,0,0,4.7,1.249c-2.248,1.449-2.055,3.341,4.572,5.665,17.07,5.983,56.749-.262,56.749-.262s-.868-7.033-2.28-12.879l.437.037s-4.1-15.246,2.117-22.935-1.043-66.205-1.043-66.205,10.88-4.5,43.4-4.8c26.232,6.733,39.017-17.37,38.836-29.83A6.619,6.619,0,0,1,937.345,376.658Z" transform="translate(-319.157 -87.94)" fill="url(#linear-gradient)"/>
    <path id="Tracé_636" data-name="Tracé 636" d="M850.064,414.724l-2.779,11.242s-2.5-.562-6.246-1.524c-12.691-3.285-39.461-11.174-28.731-16.964,9.25-5,22.872-.137,30.96,3.654,2.961,1.393,5.184,2.642,6.177,3.229C849.864,414.6,850.064,414.724,850.064,414.724Z" transform="translate(-328.824 -163.88)" fill="#f8b9bf"/>
    <path id="Tracé_637" data-name="Tracé 637" d="M868.044,421.4l-2,8.12s-2.5-.562-6.246-1.524l2.255-13.31c2.961,1.393,5.184,2.642,6.177,3.229Z" transform="translate(-347.585 -167.388)" opacity="0.1"/>
    <path id="Tracé_638" data-name="Tracé 638" d="M828.647,411.233l-7.757-1.917L823.3,395.1l6.2,1.53Z" transform="translate(-308.181 -148.329)" fill="#d9dfe8"/>
    <path id="Tracé_639" data-name="Tracé 639" d="M831.3,411.717l-3.348-.824,1.262-14.5,2.942.724Z" transform="translate(-310.832 -148.813)" opacity="0.1"/>
    <path id="Tracé_640" data-name="Tracé 640" d="M946.388,344.527s-14.9-8.607-21.517,16.083-7.245,36.063-7.245,36.063l-47.043-9.406-1.493,17.182s50.3,16.239,56.624,15.059,26.857-35.6,26.857-35.6S971.234,357.231,946.388,344.527Z" transform="translate(-351.072 -140.502)" fill="#6c63ff"/>
    <g id="Groupe_66" data-name="Groupe 66" transform="translate(481.003 203.197)" opacity="0.1">
      <path id="Tracé_641" data-name="Tracé 641" d="M850.064,414.724l-2.779,11.242s-2.5-.562-6.246-1.524c-12.691-3.285-39.461-11.174-28.731-16.964,9.25-5,22.872-.137,30.96,3.654,2.961,1.393,5.184,2.642,6.177,3.229C849.864,414.6,850.064,414.724,850.064,414.724Z" transform="translate(-809.826 -367.078)"/>
      <path id="Tracé_642" data-name="Tracé 642" d="M868.044,421.4l-2,8.12s-2.5-.562-6.246-1.524l2.255-13.31c2.961,1.393,5.184,2.642,6.177,3.229Z" transform="translate(-828.587 -370.585)" opacity="0.1"/>
      <path id="Tracé_643" data-name="Tracé 643" d="M828.647,411.233l-7.757-1.917L823.3,395.1l6.2,1.53Z" transform="translate(-789.184 -351.526)"/>
      <path id="Tracé_644" data-name="Tracé 644" d="M831.3,411.717l-3.348-.824,1.262-14.5,2.942.724Z" transform="translate(-791.834 -352.01)" opacity="0.1"/>
      <path id="Tracé_645" data-name="Tracé 645" d="M946.388,345.527s-14.9-8.607-21.517,16.083-7.245,36.063-7.245,36.063l-47.043-9.406-1.493,17.182s50.3,16.239,56.624,15.059,26.857-35.6,26.857-35.6S971.234,358.231,946.388,345.527Z" transform="translate(-832.075 -344.075)"/>
    </g>
    <path id="Tracé_646" data-name="Tracé 646" d="M821.189,651.023l-19.206,11.061s-24.883,3.048-8.307,8.857,55.113-.256,55.113-.256-2.142-17.313-5.128-19.731S821.189,651.023,821.189,651.023Z" transform="translate(-320.623 -255.69)" fill="#68739d"/>
    <path id="Tracé_647" data-name="Tracé 647" d="M913.986,452.828s-9.556,5-26.532,9.313a265.921,265.921,0,0,1-31.01,5.284,22.366,22.366,0,0,0-19.062,16.008,14.267,14.267,0,0,0-.219,7.745c2.829,9.887-1.393,90.258-1.393,90.258l29.168,2.7s-3.979-14.809,2.061-22.273-1.012-64.276-1.012-64.276,10.568-4.372,42.147-4.659c29.255,7.495,41.31-24.527,36.794-33.5S913.986,452.828,913.986,452.828Z" transform="translate(-338.563 -181.598)" fill="#6394e2"/>
    <g id="Groupe_67" data-name="Groupe 67" transform="translate(467.359 270.944)" opacity="0.1">
      <path id="Tracé_648" data-name="Tracé 648" d="M821.189,651.023l-19.206,11.061s-24.883,3.048-8.307,8.857,55.113-.256,55.113-.256-2.142-17.313-5.128-19.731S821.189,651.023,821.189,651.023Z" transform="translate(-787.982 -526.634)"/>
      <path id="Tracé_649" data-name="Tracé 649" d="M913.986,452.828s-9.556,5-26.532,9.313a265.921,265.921,0,0,1-31.01,5.284,22.366,22.366,0,0,0-19.062,16.008,14.267,14.267,0,0,0-.219,7.745c2.829,9.887-1.393,90.258-1.393,90.258l29.168,2.7s-3.979-14.809,2.061-22.273-1.012-64.276-1.012-64.276,10.568-4.372,42.147-4.659c29.255,7.495,41.31-24.527,36.794-33.5S913.986,452.828,913.986,452.828Z" transform="translate(-805.922 -452.543)"/>
    </g>
    <path id="Tracé_650" data-name="Tracé 650" d="M835.613,661.774l-19.206,11.061s-24.871,3.023-8.307,8.857,55.113-.256,55.113-.256-2.142-17.313-5.128-19.73S835.613,661.774,835.613,661.774Z" transform="translate(-326.039 -259.725)" fill="#68739d"/>
    <path id="Tracé_651" data-name="Tracé 651" d="M922.5,503.67c-31.579.287-42.147,4.659-42.147,4.659s7.052,56.837,1.012,64.276-2.061,22.272-2.061,22.272l-29.168-2.7s.05-.949.131-2.648c.7-13.966,3.779-78.8,1.249-87.61a14.266,14.266,0,0,1,.219-7.72,22.372,22.372,0,0,1,19.056-16.045,258.347,258.347,0,0,0,31-5.284l.487-.125c16.676-4.285,26.045-9.188,26.045-9.188s26.426-2.373,30.942,6.6a10.618,10.618,0,0,1,.924,4.528C960.422,486.8,947.993,510.209,922.5,503.67Z" transform="translate(-343.958 -185.628)" fill="#6394e2"/>
    <path id="Tracé_652" data-name="Tracé 652" d="M871.279,439.565l-1.068,11.555s-2.567-.181-6.383-.581c-13.035-1.355-40.685-5.165-30.91-12.492,8.407-6.3,22.6-3.548,31.16-1,3.123.937,5.521,1.842,6.589,2.273C871.061,439.471,871.279,439.565,871.279,439.565Z" transform="translate(-336.723 -174.712)" fill="#f8b9bf"/>
    <path id="Tracé_653" data-name="Tracé 653" d="M999.718,304.417s-3.91,3.06-8.688,6.421c-5.24,1.187-11.324,2.167-15.708,2.8,1.568-5,.625-10.618-1.143-15.546a58.515,58.515,0,0,0-7.838-14.415l26.432-8.251c-2.074,5.253-1.137,11.242.625,16.451A54.241,54.241,0,0,0,999.718,304.417Z" transform="translate(-387.582 -115.107)" fill="#f8b9bf"/>
    <path id="Tracé_654" data-name="Tracé 654" d="M890.792,444.527l-.768,8.3s-2.567-.181-6.383-.581l.25-13.5c3.123.937,5.521,1.843,6.589,2.273Z" transform="translate(-356.535 -176.42)" opacity="0.1"/>
    <path id="Tracé_655" data-name="Tracé 655" d="M852.737,434.222l-7.957-.737.262-14.415,6.365.587Z" transform="translate(-317.15 -157.328)" fill="#d9dfe8"/>
    <path id="Tracé_656" data-name="Tracé 656" d="M1004.429,314.287s-3.91,3.06-8.688,6.421c-5.24,1.187-11.324,2.167-15.708,2.8,1.568-5,.625-10.618-1.143-15.546,6.458-1.874,15.7-4.3,19.225-6.246A54.242,54.242,0,0,0,1004.429,314.287Z" transform="translate(-392.293 -124.977)" opacity="0.1"/>
    <path id="Tracé_657" data-name="Tracé 657" d="M994.77,302.22s4.422,10.037,7.208,14.571-32.366,8.744-32.366,8.744-3.648-12.635-1.9-14.084S991.828,305.156,994.77,302.22Z" transform="translate(-387.918 -125.164)" fill="#d9dfe8"/>
    <path id="Tracé_658" data-name="Tracé 658" d="M991.606,474.7a31.625,31.625,0,0,1-5.471,7.083c-15.527,14.753-40.979-.625-52.465-9.031,16.676-4.285,26.045-9.188,26.045-9.188s26.426-2.373,30.942,6.6A10.617,10.617,0,0,1,991.606,474.7Z" transform="translate(-375.317 -185.628)" opacity="0.1"/>
    <path id="Tracé_659" data-name="Tracé 659" d="M982.743,425.417c-17.651,16.764-48.093-5.434-56.3-11.973-1.33-1.062-2.074-1.718-2.074-1.718,3.242-3.035,6.09-9.469,8.344-17.338a152.159,152.159,0,0,0,4.541-22.972A85.255,85.255,0,0,1,950.7,334.672c.956-1.437,1.874-2.779,2.829-3.954,6.664-8.476,17.863-13.859,17.863-13.859,23.634-6.908,26.813,28.15,26.182,29.162S1003.261,405.924,982.743,425.417Z" transform="translate(-371.826 -130.322)" fill="#6c63ff"/>
    <path id="Tracé_660" data-name="Tracé 660" d="M985.029,391.216s-15.2,37.1-21.273,39.217c-3.479,1.205-22.06-1.081-37.312-3.26-1.33-1.062-2.074-1.718-2.074-1.718,3.242-3.035,6.09-9.469,8.344-17.338l19.643.937s-1.093-11.33,1.793-36.738S973.031,353.2,973.031,353.2C999.494,362.067,985.029,391.216,985.029,391.216Z" transform="translate(-371.826 -144.045)" opacity="0.1"/>
    <path id="Tracé_661" data-name="Tracé 661" d="M854.907,434.41l-3.435-.319-.912-14.521,3.017.275Z" transform="translate(-319.32 -157.515)" opacity="0.1"/>
    <path id="Tracé_662" data-name="Tracé 662" d="M960.438,350.585s-16-6.29-18.881,19.112-1.793,36.738-1.793,36.738l-47.924-2.292,1.081,17.213s52.159,8.563,58.236,6.452,21.273-39.217,21.273-39.217S986.876,359.442,960.438,350.585Z" transform="translate(-359.613 -143.063)" fill="#6c63ff"/>
    <path id="Tracé_663" data-name="Tracé 663" d="M990.322,286.38c-.7-3.8,3.267-3.747,4.691-7.32l-26.432,8.251a58.331,58.331,0,0,1,4.9,7.788,21.929,21.929,0,0,0,4.2.812C983.982,296.511,985.95,290.309,990.322,286.38Z" transform="translate(-388.423 -116.47)" opacity="0.1"/>
    <ellipse id="Ellipse_436" data-name="Ellipse 436" cx="21.835" cy="21.835" rx="21.835" ry="21.835" transform="matrix(0.092, -0.996, 0.996, 0.092, 566.095, 175.151)" fill="#f8b9bf"/>
    <path id="Tracé_664" data-name="Tracé 664" d="M949.582,226.641c.269,2.273,2.667,3.66,4.9,4.172s4.647.537,6.6,1.73c3.123,1.924,3.966,6.2,3.573,9.868-.219,2.074-.531,4.616,1.168,5.821a4.527,4.527,0,0,0,1.749.625,16.4,16.4,0,0,0,5.384.187,7.656,7.656,0,0,1,3.123-.081c1.636.475,2.6,2.2,2.923,3.866s.144,3.4.4,5.084a10.555,10.555,0,0,0,8.319,8.582,4.578,4.578,0,0,0,2.936-.262,5.867,5.867,0,0,0,2.3-3.2l3.748-8.969a69.874,69.874,0,0,0,4.285-12.4,34.925,34.925,0,0,0-1.493-19.325c-.887-2.348-2.111-4.7-4.191-6.115-4.166-2.829-9.993-.874-14.728-2.5-1.568-.543-2.979-1.468-4.541-2.024-3.379-1.205-7.2-.568-10.449.949s-5.884,3.91-8.744,6.09C954.367,220.67,949.114,222.712,949.582,226.641Z" transform="translate(-381.28 -90.945)" opacity="0.1"/>
    <path id="Tracé_665" data-name="Tracé 665" d="M950.5,225.871c.269,2.273,2.667,3.66,4.9,4.172s4.647.537,6.6,1.73c3.123,1.924,3.966,6.2,3.573,9.868-.219,2.074-.531,4.616,1.168,5.821a4.528,4.528,0,0,0,1.749.625,16.4,16.4,0,0,0,5.384.187,7.656,7.656,0,0,1,3.123-.081c1.636.475,2.6,2.2,2.923,3.866s.144,3.4.4,5.084a10.555,10.555,0,0,0,8.319,8.582,4.578,4.578,0,0,0,2.935-.262,5.867,5.867,0,0,0,2.3-3.2l3.747-8.969a69.874,69.874,0,0,0,4.285-12.4,34.926,34.926,0,0,0-1.493-19.324c-.887-2.348-2.111-4.7-4.191-6.115-4.166-2.829-9.993-.874-14.728-2.5-1.568-.543-2.979-1.468-4.541-2.024-3.379-1.205-7.2-.568-10.449.949s-5.884,3.91-8.744,6.09C955.293,219.9,950.041,221.942,950.5,225.871Z" transform="translate(-381.626 -90.656)" fill="#b96b6b"/>
    <path id="Tracé_666" data-name="Tracé 666" d="M966.208,373.34s-8.338,32.391-16.639,35.389-4.634,3.847-4.634,3.847" transform="translate(-379.243 -151.864)" opacity="0.1"/>
    <rect id="Rectangle_1693" data-name="Rectangle 1693" width="9.063" height="59.566" transform="translate(578.296 340.133)" fill="#d6d6e3"/>
    <rect id="Rectangle_1694" data-name="Rectangle 1694" width="9.063" height="4.416" transform="translate(578.296 340.133)" opacity="0.1"/>
    <path id="Tracé_667" data-name="Tracé 667" d="M936.57,561.059v1.249a2.929,2.929,0,0,0,2.929,2.929H978.96a2.929,2.929,0,0,0,2.929-2.929v-1.249a2.929,2.929,0,0,0-2.929-2.929H939.5A2.929,2.929,0,0,0,936.57,561.059Z" transform="translate(-376.406 -221.238)" fill="#d6d6e3"/>
    <path id="Tracé_668" data-name="Tracé 668" d="M937.65,559.2h43.977a2.917,2.917,0,0,0-2.261-1.068H939.9A2.917,2.917,0,0,0,937.65,559.2Z" transform="translate(-376.811 -221.238)" opacity="0.1"/>
    <rect id="Rectangle_1695" data-name="Rectangle 1695" width="74.456" height="7.12" rx="3.56" transform="translate(545.605 396.458)" fill="#d6d6e3"/>
    <circle id="Ellipse_437" data-name="Ellipse 437" cx="4.534" cy="4.534" r="4.534" transform="translate(611.317 403.578)" fill="#535461"/>
    <circle id="Ellipse_438" data-name="Ellipse 438" cx="4.534" cy="4.534" r="4.534" transform="translate(545.274 403.578)" fill="#535461"/>
    <circle id="Ellipse_439" data-name="Ellipse 439" cx="4.534" cy="4.534" r="4.534" transform="translate(578.296 403.578)" fill="#535461"/>
    <rect id="Rectangle_1696" data-name="Rectangle 1696" width="71.221" height="11.005" rx="5.503" transform="translate(573.199 266.97)" fill="#d6d6e3"/>
    <path id="Tracé_669" data-name="Tracé 669" d="M974.663,653.5s-3.56,3.516-9.063,0" transform="translate(-387.304 -257.042)" opacity="0.1"/>
    <path id="Tracé_670" data-name="Tracé 670" d="M1028.661,455.17v.868a4.528,4.528,0,0,1-4.528,4.528H961.968a4.528,4.528,0,0,1-4.528-4.528v-.868Z" transform="translate(-384.241 -182.585)" opacity="0.1"/>
    <rect id="Rectangle_1697" data-name="Rectangle 1697" width="12.248" height="156.057" transform="translate(513.677 282.703)" fill="#d6d6e3"/>
    <rect id="Rectangle_1698" data-name="Rectangle 1698" width="12.248" height="10.118" transform="translate(513.677 282.703)" opacity="0.1"/>
    <rect id="Rectangle_1699" data-name="Rectangle 1699" width="9.063" height="59.566" transform="translate(145.487 344.393)" fill="#d6d6e3"/>
    <rect id="Rectangle_1700" data-name="Rectangle 1700" width="9.063" height="4.416" transform="translate(145.487 344.393)" opacity="0.1"/>
    <path id="Tracé_671" data-name="Tracé 671" d="M288.93,567.9v1.249A2.929,2.929,0,0,1,286,572.083H246.539a2.929,2.929,0,0,1-2.929-2.929V567.9a2.929,2.929,0,0,1,2.929-2.9H286a2.929,2.929,0,0,1,2.929,2.929Z" transform="translate(-116.254 -223.817)" fill="#d6d6e3"/>
    <path id="Tracé_672" data-name="Tracé 672" d="M288.663,566.037H244.68A2.917,2.917,0,0,1,246.941,565H286.4A2.917,2.917,0,0,1,288.663,566.037Z" transform="translate(-116.656 -223.817)" opacity="0.1"/>
    <rect id="Rectangle_1701" data-name="Rectangle 1701" width="74.456" height="7.12" rx="3.56" transform="translate(112.79 400.718)" fill="#d6d6e3"/>
    <circle id="Ellipse_440" data-name="Ellipse 440" cx="4.534" cy="4.534" r="4.534" transform="translate(112.466 407.838)" fill="#535461"/>
    <circle id="Ellipse_441" data-name="Ellipse 441" cx="4.534" cy="4.534" r="4.534" transform="translate(178.502 407.838)" fill="#535461"/>
    <circle id="Ellipse_442" data-name="Ellipse 442" cx="4.534" cy="4.534" r="4.534" transform="translate(145.481 407.838)" fill="#535461"/>
    <path id="Tracé_673" data-name="Tracé 673" d="M272.64,660.32s3.56,3.516,9.063,0" transform="translate(-127.153 -259.602)" opacity="0.1"/>
    <path id="Tracé_674" data-name="Tracé 674" d="M635,335.194s-10.168-18.481-6.452-34.546a31.96,31.96,0,0,0-1.78-20.136A53.747,53.747,0,0,0,622,271.93" transform="translate(-258.31 -113.793)" fill="none" stroke="#535461" stroke-miterlimit="10" stroke-width="2"/>
    <path id="Tracé_675" data-name="Tracé 675" d="M620.219,253.367c.531,2.423-2.311,10.412-2.311,10.412s-5.927-6.058-6.464-8.482a4.491,4.491,0,1,1,8.744-1.93Z" transform="translate(-254.274 -105.373)" fill="#6c63ff"/>
    <path id="Tracé_676" data-name="Tracé 676" d="M636.736,270.879c-.868,2.323-7.595,7.495-7.595,7.495s-1.686-8.307-.812-10.618a4.491,4.491,0,1,1,8.413,3.123Z" transform="translate(-260.591 -111.061)" fill="#6c63ff"/>
    <path id="Tracé_677" data-name="Tracé 677" d="M643.287,306.648c-1.924,1.568-10.337,2.623-10.337,2.623s2.742-8.02,4.666-9.587a4.491,4.491,0,1,1,5.671,6.964Z" transform="translate(-262.421 -123.833)" fill="#6c63ff"/>
    <path id="Tracé_678" data-name="Tracé 678" d="M643.093,336.045c-1.63,1.874-9.743,4.335-9.743,4.335s1.343-8.369,2.973-10.237a4.491,4.491,0,1,1,6.764,5.9Z" transform="translate(-262.571 -135.03)" fill="#6c63ff"/>
    <path id="Tracé_679" data-name="Tracé 679" d="M613.86,285.543c2.111,1.305,10.587,1.249,10.587,1.249s-3.747-7.6-5.859-8.906a4.491,4.491,0,1,0-4.728,7.632Z" transform="translate(-254.416 -115.752)" fill="#6c63ff"/>
    <path id="Tracé_680" data-name="Tracé 680" d="M613.075,319.4c2.4.625,10.48-1.949,10.48-1.949s-5.852-6.133-8.257-6.745a4.491,4.491,0,0,0-2.224,8.694Z" transform="translate(-253.757 -128.315)" fill="#6c63ff"/>
    <path id="Tracé_681" data-name="Tracé 681" d="M617.731,352.689c2.261,1.012,10.662-.15,10.662-.15s-4.734-7.033-7-8.045a4.491,4.491,0,0,0-3.666,8.2Z" transform="translate(-255.709 -140.888)" fill="#6c63ff"/>
    <path id="Tracé_682" data-name="Tracé 682" d="M620.219,253.367c.531,2.423-2.311,10.412-2.311,10.412s-5.927-6.058-6.464-8.482a4.491,4.491,0,1,1,8.744-1.93Z" transform="translate(-254.274 -105.373)" fill="#6c63ff"/>
    <path id="Tracé_683" data-name="Tracé 683" d="M636.736,270.879c-.868,2.323-7.595,7.495-7.595,7.495s-1.686-8.307-.812-10.618a4.491,4.491,0,1,1,8.413,3.123Z" transform="translate(-260.591 -111.061)" fill="#6c63ff"/>
    <path id="Tracé_684" data-name="Tracé 684" d="M643.287,306.648c-1.924,1.568-10.337,2.623-10.337,2.623s2.742-8.02,4.666-9.587a4.491,4.491,0,1,1,5.671,6.964Z" transform="translate(-262.421 -123.833)" fill="#6c63ff"/>
    <path id="Tracé_685" data-name="Tracé 685" d="M643.093,336.045c-1.63,1.874-9.743,4.335-9.743,4.335s1.343-8.369,2.973-10.237a4.491,4.491,0,1,1,6.764,5.9Z" transform="translate(-262.571 -135.03)" fill="#6c63ff"/>
    <path id="Tracé_686" data-name="Tracé 686" d="M613.86,285.543c2.111,1.305,10.587,1.249,10.587,1.249s-3.747-7.6-5.859-8.906a4.491,4.491,0,1,0-4.728,7.632Z" transform="translate(-254.416 -115.752)" fill="#6c63ff"/>
    <path id="Tracé_687" data-name="Tracé 687" d="M613.075,319.4c2.4.625,10.48-1.949,10.48-1.949s-5.852-6.133-8.257-6.745a4.491,4.491,0,0,0-2.224,8.694Z" transform="translate(-253.757 -128.315)" fill="#6c63ff"/>
    <path id="Tracé_688" data-name="Tracé 688" d="M617.731,352.689c2.261,1.012,10.662-.15,10.662-.15s-4.734-7.033-7-8.045a4.491,4.491,0,0,0-3.666,8.2Z" transform="translate(-255.709 -140.888)" fill="#6c63ff"/>
    <path id="Tracé_689" data-name="Tracé 689" d="M629.754,419.955h0a10.705,10.705,0,0,1-10.687-11.38l2.992-47.406h15.39l2.992,47.406a10.705,10.705,0,0,1-10.687,11.38Z" transform="translate(-257.201 -147.295)" fill="#6c63ff"/>
    <rect id="Rectangle_1702" data-name="Rectangle 1702" width="8.744" height="36.226" transform="translate(52.212 39.611)" fill="#6c63ff" opacity="0.1"/>
    <rect id="Rectangle_1703" data-name="Rectangle 1703" width="8.744" height="36.226" transform="translate(63.455 39.611)" fill="#6c63ff" opacity="0.1"/>
    <rect id="Rectangle_1704" data-name="Rectangle 1704" width="8.744" height="36.226" transform="translate(74.697 39.611)" fill="#6c63ff" opacity="0.1"/>
    <rect id="Rectangle_1705" data-name="Rectangle 1705" width="8.744" height="36.226" transform="translate(85.94 39.611)" fill="#6c63ff" opacity="0.1"/>
    <rect id="Rectangle_1706" data-name="Rectangle 1706" width="8.744" height="36.226" transform="translate(108.425 39.611)" fill="#6c63ff" opacity="0.1"/>
    <rect id="Rectangle_1707" data-name="Rectangle 1707" width="8.744" height="36.226" transform="translate(119.667 39.611)" fill="#6c63ff" opacity="0.1"/>
    <rect id="Rectangle_1708" data-name="Rectangle 1708" width="8.744" height="1.874" transform="translate(52.212 46.481)" fill="#6c63ff" opacity="0.1"/>
    <rect id="Rectangle_1709" data-name="Rectangle 1709" width="8.744" height="1.874" transform="translate(52.212 68.966)" fill="#6c63ff" opacity="0.1"/>
    <rect id="Rectangle_1710" data-name="Rectangle 1710" width="8.744" height="1.874" transform="translate(63.455 46.481)" fill="#6c63ff" opacity="0.1"/>
    <rect id="Rectangle_1711" data-name="Rectangle 1711" width="8.744" height="1.874" transform="translate(63.455 68.966)" fill="#6c63ff" opacity="0.1"/>
    <rect id="Rectangle_1712" data-name="Rectangle 1712" width="8.744" height="1.874" transform="translate(74.697 46.481)" fill="#6c63ff" opacity="0.1"/>
    <rect id="Rectangle_1713" data-name="Rectangle 1713" width="8.744" height="1.874" transform="translate(74.697 68.966)" fill="#6c63ff" opacity="0.1"/>
    <rect id="Rectangle_1714" data-name="Rectangle 1714" width="8.744" height="1.874" transform="translate(85.94 46.481)" fill="#6c63ff" opacity="0.1"/>
    <rect id="Rectangle_1715" data-name="Rectangle 1715" width="8.744" height="1.874" transform="translate(85.94 68.966)" fill="#6c63ff" opacity="0.1"/>
    <rect id="Rectangle_1716" data-name="Rectangle 1716" width="8.744" height="1.874" transform="translate(97.182 46.481)" fill="#6c63ff" opacity="0.1"/>
    <rect id="Rectangle_1717" data-name="Rectangle 1717" width="8.744" height="1.874" transform="translate(97.182 68.966)" fill="#6c63ff" opacity="0.1"/>
    <rect id="Rectangle_1718" data-name="Rectangle 1718" width="8.744" height="1.874" transform="translate(108.425 46.481)" fill="#6c63ff" opacity="0.1"/>
    <rect id="Rectangle_1719" data-name="Rectangle 1719" width="8.744" height="1.874" transform="translate(108.425 68.966)" fill="#6c63ff" opacity="0.1"/>
    <rect id="Rectangle_1720" data-name="Rectangle 1720" width="8.744" height="1.874" transform="translate(119.667 46.481)" fill="#6c63ff" opacity="0.1"/>
    <rect id="Rectangle_1721" data-name="Rectangle 1721" width="8.744" height="1.874" transform="translate(119.667 68.966)" fill="#6c63ff" opacity="0.1"/>
    <rect id="Rectangle_1722" data-name="Rectangle 1722" width="8.744" height="36.226" transform="translate(97.182 39.611)" fill="#6c63ff" opacity="0.1"/>
    <rect id="Rectangle_1723" data-name="Rectangle 1723" width="8.744" height="36.226" transform="translate(128.699 43.117) rotate(-24.84)" fill="#6c63ff" opacity="0.1"/>
    <rect id="Rectangle_1724" data-name="Rectangle 1724" width="8.744" height="1.874" transform="translate(131.587 49.358) rotate(-24.84)" fill="#6c63ff" opacity="0.1"/>
    <rect id="Rectangle_1725" data-name="Rectangle 1725" width="8.744" height="1.874" transform="translate(141.028 69.76) rotate(-24.84)" fill="#6c63ff" opacity="0.1"/>
    <path id="Tracé_690" data-name="Tracé 690" d="M345.8,498.652,329.93,488.527c-.081-14.259-.306-80.458,2.661-89.315a14.546,14.546,0,0,0,.125-7.876,22.8,22.8,0,0,0-18.694-17.2,268.628,268.628,0,0,1-30.917-6.652c8.875-.918,15.527-1.711,15.527-1.711l.175-1.643,5.715-.275v-.244l.543-.031c13.347-.793,41.691-3.435,32.06-11.342-3.3-2.711-7.614-3.991-12.161-4.422,13.9-3.173,35.632-9.319,25.945-15.1-9.206-5.484-23.3-1.174-31.716,2.33l-.518.219-.094-.756-3.36.675h0l-1.068.212-.05-1.1-47.15,7.283a160.923,160.923,0,0,0-1.924-16.12c1.056-7.033,5.965-17.288,4.235-22.791-2.011-6.389-10.268-8.482-13.741-14.253-.912-1.505-1.818-2.917-2.7-4.153a43.724,43.724,0,0,0-6.652-7.189,30.355,30.355,0,0,1,2.448-10.774,52.194,52.194,0,0,1,3.3-6.621,22.235,22.235,0,0,0,16.514-25.608c2.986,1.28,6.614,1.412,8.482-1.087l-.887-.344a2.818,2.818,0,0,0,.25-.294,16.763,16.763,0,0,1-5.172-2.742,6.058,6.058,0,0,1-.906-1.343c-.862-1.749-.762-3.847-1.586-5.621a6.5,6.5,0,0,0-1.618-2.111,11.136,11.136,0,0,0-5.284-3.023,66.8,66.8,0,0,1-6.789-1.874,22.953,22.953,0,0,0-24.427-6.87l-.781.269a10.186,10.186,0,1,0-19.87-4.5,10.162,10.162,0,0,1,2.725-6.083c-.162.137-.331.269-.487.412a10.193,10.193,0,0,0-.443,14.409l.181.175a10.237,10.237,0,0,0,2.555,2.236,10.193,10.193,0,0,1-6.72-8.351v.625a10.193,10.193,0,0,0,10.836,9.581l.281-.031-.15.206a22.928,22.928,0,0,0,2.061,28.387,10.618,10.618,0,0,0,1.636,2.623,8.5,8.5,0,0,0,.756.762,9.687,9.687,0,0,0,6.533,3.01,19.533,19.533,0,0,0,1.33,1.43,37.173,37.173,0,0,1-1.611,5.147,54.553,54.553,0,0,1-4.947,9.537c-13.491,3.835-14.678,26.745-14.19,27.613.581,1.037-2.011,37.013,7.982,80.471-.412,12.423,6.833,32.965,32.553,27.55,32.166,1.718,42.715,6.646,42.715,6.646s-3.054,55.944,1.305,64.088c2.729,5.1.793,12.6-1.249,17.888a19.654,19.654,0,0,0-1.8,4.147c-.625,1.318-1.081,2.117-1.081,2.117h.437c-1.649,5.727-2.817,12.641-2.817,12.641s38.992,7.913,56.143,2.736c6.658-2.011,6.933-3.872,4.772-5.409a34.724,34.724,0,0,0,4.709-1.031C371.021,502.893,345.8,498.652,345.8,498.652Z" transform="translate(-102.754 -85.511)" fill="url(#linear-gradient-2)"/>
    <path id="Tracé_691" data-name="Tracé 691" d="M265.97,241.485A22.485,22.485,0,1,1,243.485,219,22.485,22.485,0,0,1,265.97,241.485Z" transform="translate(-107.766 -93.922)" fill="#fa595f"/>
    <path id="Tracé_692" data-name="Tracé 692" d="M374.09,419.252l2.28,11.38s2.536-.456,6.29-1.249c12.823-2.717,39.917-9.425,29.424-15.683-9.025-5.378-22.847-1.149-31.092,2.286-3.023,1.249-5.3,2.411-6.314,2.954C374.3,419.133,374.09,419.252,374.09,419.252Z" transform="translate(-165.239 -166.054)" fill="#f8b9bf"/>
    <path id="Tracé_693" data-name="Tracé 693" d="M375.086,425.377l1.636,8.169s2.536-.456,6.29-1.249l-1.668-13.4c-3.023,1.249-5.3,2.411-6.314,2.954Z" transform="translate(-165.592 -168.968)" opacity="0.1"/>
    <path id="Tracé_694" data-name="Tracé 694" d="M334.662,415.2l7.832-1.568-1.774-14.309-6.271,1.255Z" transform="translate(-125.562 -149.913)" fill="#d9dfe8"/>
    <path id="Tracé_695" data-name="Tracé 695" d="M334.662,415.595l3.379-.681-.618-14.534-2.973.593Z" transform="translate(-125.562 -150.311)" opacity="0.1"/>
    <path id="Tracé_696" data-name="Tracé 696" d="M250.624,343.278s15.246-7.945,20.786,17.02,5.621,36.344,5.621,36.344l47.418-7.326.737,17.232s-50.966,14.009-57.23,12.548-25.283-36.757-25.283-36.757S225.247,354.889,250.624,343.278Z" transform="translate(-113.712 -140.127)" fill="#6c63ff"/>
    <g id="Groupe_68" data-name="Groupe 68" transform="translate(124.375 203.198)" opacity="0.1">
      <path id="Tracé_697" data-name="Tracé 697" d="M374.09,419.252l2.28,11.38s2.536-.456,6.29-1.249c12.823-2.717,39.917-9.425,29.424-15.683-9.025-5.378-22.847-1.149-31.092,2.286-3.023,1.249-5.3,2.411-6.314,2.954C374.3,419.133,374.09,419.252,374.09,419.252Z" transform="translate(-289.614 -369.252)"/>
      <path id="Tracé_698" data-name="Tracé 698" d="M375.086,425.377l1.636,8.169s2.536-.456,6.29-1.249l-1.668-13.4c-3.023,1.249-5.3,2.411-6.314,2.954Z" transform="translate(-289.967 -372.166)" opacity="0.1"/>
      <path id="Tracé_699" data-name="Tracé 699" d="M334.662,415.2l7.832-1.568-1.774-14.309-6.271,1.255Z" transform="translate(-249.937 -353.111)"/>
      <path id="Tracé_700" data-name="Tracé 700" d="M334.662,415.595l3.379-.681-.618-14.534-2.973.593Z" transform="translate(-249.937 -353.509)" opacity="0.1"/>
      <path id="Tracé_701" data-name="Tracé 701" d="M252.624,345.278s15.246-7.945,20.786,17.02,5.621,36.344,5.621,36.344l47.418-7.326.737,17.232s-50.966,14.009-57.23,12.548-25.283-36.756-25.283-36.756S227.247,356.889,252.624,345.278Z" transform="translate(-238.838 -344.076)"/>
    </g>
    <path id="Tracé_702" data-name="Tracé 702" d="M379.907,655.584l18.7,11.867s24.727,4.141,7.907,9.219-55.044-2.686-55.044-2.686,2.9-17.2,6-19.481S379.907,655.584,379.907,655.584Z" transform="translate(-156.747 -257.121)" fill="#f37291"/>
    <path id="Tracé_703" data-name="Tracé 703" d="M266.549,452.477s9.325,5.415,26.095,10.474c9.831,2.967,22.2,5.259,30.742,6.652a22.366,22.366,0,0,1,18.331,16.864,14.265,14.265,0,0,1-.119,7.72c-3.26,9.756-2.6,90.233-2.6,90.233l-29.255,1.405s4.628-14.621-1.074-22.341,3.847-64.163,3.847-64.163-10.362-4.834-41.9-6.514c-29.561,6.246-40.185-26.326-35.276-35.1S266.549,452.477,266.549,452.477Z" transform="translate(-112.717 -181.309)" fill="#96a2d0"/>
    <g id="Groupe_69" data-name="Groupe 69" transform="translate(121.471 270.463)" opacity="0.1">
      <path id="Tracé_704" data-name="Tracé 704" d="M379.907,655.584l18.7,11.867s24.727,4.141,7.907,9.219-55.044-2.686-55.044-2.686,2.9-17.2,6-19.481S379.907,655.584,379.907,655.584Z" transform="translate(-278.218 -527.584)"/>
      <path id="Tracé_705" data-name="Tracé 705" d="M266.549,452.477s9.325,5.415,26.095,10.474c9.831,2.967,22.2,5.259,30.742,6.652a22.366,22.366,0,0,1,18.331,16.864,14.265,14.265,0,0,1-.119,7.72c-3.26,9.756-2.6,90.233-2.6,90.233l-29.255,1.405s4.628-14.621-1.074-22.341,3.847-64.163,3.847-64.163-10.362-4.834-41.9-6.514c-29.561,6.246-40.185-26.326-35.276-35.1S266.549,452.477,266.549,452.477Z" transform="translate(-234.188 -451.772)"/>
    </g>
    <path id="Tracé_706" data-name="Tracé 706" d="M364.987,665.694l18.7,11.867s24.727,4.141,7.907,9.219-55.044-2.686-55.044-2.686,2.9-17.2,6-19.481S364.987,665.694,364.987,665.694Z" transform="translate(-151.146 -260.916)" fill="#f37291"/>
    <path id="Tracé_707" data-name="Tracé 707" d="M258.455,503.288c31.541,1.68,41.9,6.514,41.9,6.514s-2.992,54.851,1.249,62.833c4.528,8.469-4.047,23.672-4.047,23.672l29.255-1.405v-2.648c-.087-13.978-.3-78.884,2.6-87.585a14.266,14.266,0,0,0,.119-7.72,22.372,22.372,0,0,0-18.331-16.864,258.708,258.708,0,0,1-30.742-6.646l-.481-.15c-16.47-5-25.608-10.324-25.608-10.324s-19.481-1.349-24.359,7.42c-.625,1.137-3.316,3.373-3.429,5.178C225.858,487.642,232.735,508.7,258.455,503.288Z" transform="translate(-109.845 -185.483)" fill="#96a2d0"/>
    <path id="Tracé_708" data-name="Tracé 708" d="M351.81,443l.556,11.592s2.573-.069,6.408-.3c13.085-.781,40.879-3.366,31.435-11.117-8.12-6.664-22.422-4.541-31.085-2.373-3.179.8-5.621,1.6-6.683,1.98C352.029,442.92,351.81,443,351.81,443Z" transform="translate(-156.875 -176.393)" fill="#f8b9bf"/>
    <path id="Tracé_709" data-name="Tracé 709" d="M233,302.066s3.747,3.229,8.394,6.8c5.184,1.412,11.242,2.667,15.571,3.5-1.343-5.09-.15-10.618,1.83-15.483a58.517,58.517,0,0,1,8.469-14.059l-26.045-9.412c1.843,5.34.625,11.3-1.355,16.408A54.246,54.246,0,0,1,233,302.066Z" transform="translate(-112.271 -114.348)" fill="#f8b9bf"/>
    <path id="Tracé_710" data-name="Tracé 710" d="M352.06,447.541l.4,8.326s2.573-.069,6.408-.3l.35-13.5c-3.179.8-5.621,1.6-6.683,1.98Z" transform="translate(-156.969 -177.667)" opacity="0.1"/>
    <path id="Tracé_711" data-name="Tracé 711" d="M309.62,437.156l7.976-.381.375-14.415-6.383.306Z" transform="translate(-116.24 -158.563)" fill="#d9dfe8"/>
    <path id="Tracé_712" data-name="Tracé 712" d="M222.4,422.958c16.864,17.532,48.311-3.3,56.768-9.475,1.374-1.006,2.142-1.624,2.142-1.624-3.123-3.179-8.12-6.121-10.037-14.084a173.008,173.008,0,0,1-3.71-24.683c-.518-6.589,6.289-19.137,4.322-25.4s-10.068-8.313-13.472-13.978c-.893-1.474-1.78-2.861-2.654-4.072-6.283-8.744-17.232-14.634-17.232-14.634-23.328-7.963-25.158,25.352-24.577,26.388S211.863,379.162,222.4,422.958Z" transform="translate(-105.088 -129.505)" fill="#6c63ff"/>
    <path id="Tracé_713" data-name="Tracé 713" d="M225.309,388.939s13.547,37.737,19.524,40.117c3.423,1.362,22.091-.106,37.419-1.611,1.374-1.006,2.142-1.624,2.142-1.624-3.123-3.179-5.665-9.731-7.576-17.688l-19.668.069s1.593-11.242-.169-36.781S238.962,351.5,238.962,351.5C212.149,359.184,225.309,388.939,225.309,388.939Z" transform="translate(-108.172 -143.467)" opacity="0.1"/>
    <path id="Tracé_714" data-name="Tracé 714" d="M309.62,437.254l3.441-.162,1.555-14.471-3.029.144Z" transform="translate(-116.24 -158.66)" opacity="0.1"/>
    <path id="Tracé_715" data-name="Tracé 715" d="M239.7,348.9s16.239-5.578,18.019,19.924.187,36.782.187,36.782l47.98-.175-1.842,17.151s-52.465,6.246-58.461,3.879-19.531-40.111-19.531-40.111S212.883,356.588,239.7,348.9Z" transform="translate(-108.45 -142.495)" fill="#6c63ff"/>
    <path id="Tracé_716" data-name="Tracé 716" d="M248.172,284.495c.868-3.747-3.123-3.866-4.372-7.495l26.057,9.369a58.335,58.335,0,0,0-5.234,7.564,21.932,21.932,0,0,1-4.235.625C254.056,294.869,252.363,288.6,248.172,284.495Z" transform="translate(-116.326 -115.696)" opacity="0.1"/>
    <ellipse id="Ellipse_443" data-name="Ellipse 443" cx="21.835" cy="21.835" rx="21.835" ry="21.835" transform="matrix(0.999, -0.048, 0.048, 0.999, 121.644, 134.1)" fill="#f8b9bf"/>
    <path id="Tracé_717" data-name="Tracé 717" d="M253,375.14s6.908,32.722,15.065,36.063,4.46,4.054,4.46,4.054" transform="translate(-119.78 -152.54)" opacity="0.1"/>
    <path id="Tracé_718" data-name="Tracé 718" d="M291.072,400.63s-5.771,1.805-12.492-6.82" transform="translate(-129.383 -159.549)" opacity="0.1"/>
    <circle id="Ellipse_444" data-name="Ellipse 444" cx="9.993" cy="9.993" r="9.993" transform="translate(108.237 114.46)" fill="#fa595f"/>
    <path id="Tracé_719" data-name="Tracé 719" d="M215.582,218.232a9.993,9.993,0,0,1,0-13.672c-.162.131-.325.262-.475.406A9.995,9.995,0,1,0,228.8,219.531c.156-.144.294-.3.431-.45a9.993,9.993,0,0,1-13.647-.849Z" transform="translate(-104.371 -88.501)" fill="#fa595f"/>
    <path id="Tracé_720" data-name="Tracé 720" d="M220.578,226.483a9.993,9.993,0,0,1-10.518-8.744v.625a9.994,9.994,0,1,0,19.949-1.249,5.305,5.305,0,0,0-.069-.625A9.993,9.993,0,0,1,220.578,226.483Z" transform="translate(-103.659 -92.979)" fill="#fa595f"/>
    <path id="Tracé_721" data-name="Tracé 721" d="M262.974,228.593c2.33,1.149,5,1.468,7.495,2.192s5.047,2.049,6.146,4.41c.806,1.736.712,3.791,1.555,5.509,1.212,2.5,4.01,3.648,6.583,4.628-2.211,2.967-6.958,2.161-10.056.144s-5.765-5-9.369-5.777a8.794,8.794,0,0,0-9.25,4.116,22.213,22.213,0,0,0-1.824,5.671c-1.249,5.072-3.747,10.118-8.12,13s-10.886,2.861-14.315-1.081c-2-2.3-2.667-5.428-3.26-8.413a17.092,17.092,0,0,1-.481-4.253c.2-3.585,2.586-6.639,5-9.3,2.842-3.123,5.865-6.121,8.888-9.1,2.611-2.573,5.621-6.933,9.556-7.239C256.054,222.734,259.258,226.775,262.974,228.593Z" transform="translate(-110.423 -95.451)" opacity="0.1"/>
    <path id="Tracé_722" data-name="Tracé 722" d="M261.974,227.593c2.33,1.149,5,1.468,7.495,2.192s5.047,2.049,6.146,4.41c.806,1.736.712,3.791,1.555,5.509,1.212,2.5,4.01,3.648,6.583,4.628-2.211,2.967-6.958,2.161-10.056.144s-5.765-5-9.369-5.777a8.794,8.794,0,0,0-9.25,4.116,22.214,22.214,0,0,0-1.824,5.671c-1.249,5.072-3.747,10.118-8.12,13s-10.886,2.861-14.315-1.081c-2-2.3-2.667-5.428-3.26-8.413a17.1,17.1,0,0,1-.481-4.253c.2-3.585,2.586-6.639,5-9.3,2.842-3.123,5.865-6.121,8.888-9.1,2.611-2.573,5.621-6.933,9.556-7.239C255.054,221.734,258.258,225.775,261.974,227.593Z" transform="translate(-110.048 -95.076)" fill="#fa595f"/>
    <rect id="Rectangle_1726" data-name="Rectangle 1726" width="71.221" height="11.005" rx="5.503" transform="translate(88.426 271.23)" fill="#d6d6e3"/>
    <path id="Tracé_723" data-name="Tracé 723" d="M181.28,462v.868a4.528,4.528,0,0,0,4.528,4.528h62.164a4.528,4.528,0,0,0,4.528-4.528V462Z" transform="translate(-92.854 -185.149)" opacity="0.1"/>
    <rect id="Rectangle_1727" data-name="Rectangle 1727" width="12.248" height="156.039" transform="translate(213.847 282.703)" fill="#d6d6e3"/>
    <rect id="Rectangle_1728" data-name="Rectangle 1728" width="12.248" height="10.118" transform="translate(213.847 282.703)" opacity="0.1"/>
    <rect id="Rectangle_1729" data-name="Rectangle 1729" width="323.795" height="20.236" transform="translate(207.989 271.517)" fill="#d6d6e3"/>
  </g>
</svg>
