<svg xmlns="http://www.w3.org/2000/svg" xmlns:xlink="http://www.w3.org/1999/xlink" width="699.913" height="538.708"><defs><linearGradient id="a" x1=".531" y1="1.017" x2=".531" y2="-.007" gradientUnits="objectBoundingBox"><stop offset="0" stop-color="gray" stop-opacity=".251"/><stop offset=".54" stop-color="gray" stop-opacity=".122"/><stop offset="1" stop-color="gray" stop-opacity=".102"/></linearGradient><linearGradient id="b" x1=".5" y1="1" x2=".5" y2=".001" xlink:href="#a"/></defs><g data-name="Groupe 70" transform="translate(.007)"><path data-name="Tracé 603" d="M655.806 304.96c-25.789 38.793-19.262 92.713-6.277 135.421 4.372 14.3 9.313 29.405 6.377 45.207-3.591 19.324-18.231 34.208-33.24 42.54-27.35 15.2-59.1 13.947-82.651-3.242-20.355-14.859-34.189-40.21-54.963-54.338-34.72-23.559-81.083-10.955-121.118 9.294-28.325 14.309-59.423 32.559-86.267 21.111-18.887-8.057-31.129-29.755-37.212-53.183-2.936-11.311-4.859-23.634-11.118-32.359-3.747-5.184-8.744-8.744-13.922-11.636-47.287-26.695-109.676-6.964-155.427-36.981-30.873-20.236-49.242-60.922-56.1-104.111S.409 173.555 4.994 128.348c3.254-32.122 7.92-66.487 25.839-92.238C49.789 8.872 80.533-2.726 107.656.54s50.966 19.443 71.72 38.974c25.939 24.359 49.573 55.25 82.507 63.707 22.429 5.777 46.6.356 70.172-2.5 39.411-4.716 78.466-2.092 117.259 1.024 37.144 2.985 74.525 6.489 109.408 19.218 24.683 9.006 43.933 26.944 67.074 38.874 15.084 7.776 31.885 9.138 46.019 19.362 17.413 12.585 32.8 35.407 26.751 63.607-5.753 26.854-29.075 41.54-42.76 62.154z" fill="#6c63ff" opacity=".1"/><path data-name="Rectangle 1681" fill="#6c63ff" opacity=".1" d="M550.127 160.155h25.539v38.661h-25.539z"/><path data-name="Rectangle 1682" fill="#6c63ff" opacity=".1" d="M552.607 163.915h20.574v31.142h-20.574z"/><path data-name="Rectangle 1683" fill="#6c63ff" opacity=".1" d="M498.287 133.298h39.224v38.661h-39.224z"/><path data-name="Rectangle 1684" fill="#6c63ff" opacity=".1" d="M502.097 137.058h31.597V168.2h-31.597z"/><path data-name="Rectangle 1685" fill="#6c63ff" opacity=".1" d="M40.358 75.774h119.888v3.192H40.358z"/><path data-name="Rectangle 1686" fill="#6c63ff" opacity=".1" d="M40.358 91.382h119.888v3.192H40.358z"/><path data-name="Rectangle 1687" fill="#d6d6e3" d="M242.603 282.703h12.248v136.87h-12.248z"/><path data-name="Tracé 604" d="M612.61 297.075V170.822a13.272 13.272 0 0 1 13.272-13.266 13.272 13.272 0 0 1 13.247 13.266v152.8a13.272 13.272 0 0 1-13.272 13.272h-82.2a13.272 13.272 0 0 1-13.272-13.272 13.272 13.272 0 0 1 13.272-13.272h55.681a13.272 13.272 0 0 0 13.272-13.272z" fill="#aebee1"/><path data-name="Tracé 605" d="M612.61 297.075V170.822a13.272 13.272 0 0 1 13.272-13.266 13.272 13.272 0 0 1 13.247 13.266v152.8a13.272 13.272 0 0 1-13.272 13.272h-82.2a13.272 13.272 0 0 1-13.272-13.272 13.272 13.272 0 0 1 13.272-13.272h55.681a13.272 13.272 0 0 0 13.272-13.272z" fill="#535461"/><path data-name="Tracé 606" d="M530.403 322.907a13.272 13.272 0 0 1 13.254-12.56h55.681a13.272 13.272 0 0 0 13.272-13.272V170.822a13.272 13.272 0 0 1 12.635-13.266v165.351z" fill="#d6d6e3"/><path data-name="Tracé 607" d="M120.229 301.335V175.082a13.272 13.272 0 0 0-13.241-13.272 13.272 13.272 0 0 0-13.272 13.272v152.8a13.272 13.272 0 0 0 13.272 13.3h82.195a13.272 13.272 0 0 0 13.272-13.272 13.272 13.272 0 0 0-13.272-13.272h-55.675a13.272 13.272 0 0 1-13.279-13.3z" fill="#aebee1"/><path data-name="Tracé 608" d="M120.229 301.335V175.082a13.272 13.272 0 0 0-13.241-13.272 13.272 13.272 0 0 0-13.272 13.272v152.8a13.272 13.272 0 0 0 13.272 13.3h82.195a13.272 13.272 0 0 0 13.272-13.272 13.272 13.272 0 0 0-13.272-13.272h-55.675a13.272 13.272 0 0 1-13.279-13.3z" fill="#535461"/><path data-name="Tracé 609" d="M202.437 327.167a13.272 13.272 0 0 0-13.254-12.56h-55.67a13.272 13.272 0 0 1-13.279-13.272V175.082a13.272 13.272 0 0 0-12.621-13.254v165.339z" fill="#d6d6e3"/><path data-name="Rectangle 1688" fill="#d6d6e3" d="M484.921 282.703h12.248v140.062h-12.248z"/><path data-name="Rectangle 1689" opacity=".1" d="M242.603 282.703h12.248v10.118h-12.248z"/><path data-name="Rectangle 1690" opacity=".1" d="M484.921 282.703h12.248v10.118h-12.248z"/><path data-name="Tracé 610" d="M286.348 199.353q-.294 3.235-.743 6.558h-1.73v-6.558z" opacity=".1"/><path data-name="Tracé 611" d="M336.533 267.482a3.779 3.779 0 0 1-3.541 4.035h-37.381v-3.9h31.1a1.954 1.954 0 0 0 1.505-2.923l-28.202-57.365a2.5 2.5 0 0 0-2.186-1.412h-13.953v-6.558h17.619a1.749 1.749 0 0 1 1.53.987l32.334 62.458a10.617 10.617 0 0 1 1.175 4.678z" fill="#535461"/><path data-name="Tracé 612" d="M267.88 257.077l-.512.862-4.791-3.2 14.821-113.965h3.816s.156.525.412 1.524c2.555 9.846 15.103 65.631-13.746 114.779z" fill="#535461"/><path data-name="Tracé 613" d="M281.62 142.298l-13.74 114.779-.512.862-4.791-3.2 14.821-113.965h3.816s.153.543.406 1.524z" opacity=".1"/><path data-name="Rectangle 1691" fill="#d6d6e3" d="M258.241 256.982l14.069-117.398 8.993 1.077-14.07 117.399z"/><path data-name="Tracé 614" d="M227.426 267.526a1.074 1.074 0 0 1-1.068 1.068h-1.6a1.068 1.068 0 0 1-1.068-1.068.518.518 0 0 1 0-.125 1.068 1.068 0 0 1 1.056-.937h1.6a1.074 1.074 0 0 1 1.031.812.988.988 0 0 1 .049.25z" fill="#e3edf9"/><path data-name="Tracé 615" d="M232.216 267.526a1.074 1.074 0 0 1-1.068 1.068h-1.6a1.068 1.068 0 0 1-1.068-1.068 1.05 1.05 0 0 1 .044-.294 1.006 1.006 0 0 1 .269-.456 1.043 1.043 0 0 1 .75-.312h1.6a1.074 1.074 0 0 1 .981.625 1.1 1.1 0 0 1 .094.437z" fill="#e3edf9"/><path data-name="Tracé 616" d="M236.476 267.526a1.074 1.074 0 0 1-1.068 1.068h-1.6a1.068 1.068 0 0 1-1.068-1.068 1.012 1.012 0 0 1 .094-.443 1.087 1.087 0 0 1 .968-.625h1.599a1.062 1.062 0 0 1 1.068 1.068z" fill="#e3edf9"/><path data-name="Tracé 617" d="M241.272 267.526a1.074 1.074 0 0 1-1.068 1.068h-1.6a1.068 1.068 0 0 1-.874-1.68l.125-.137a1.043 1.043 0 0 1 .75-.312h1.6a1.074 1.074 0 0 1 .774.344 1.03 1.03 0 0 1 .293.717z" fill="#e3edf9"/><path data-name="Tracé 618" d="M227.395 267.27a.987.987 0 0 1 .031.256 1.074 1.074 0 0 1-1.068 1.068h-1.6a1.068 1.068 0 0 1-1.068-1.068.518.518 0 0 1 0-.125z" opacity=".1"/><path data-name="Tracé 619" d="M232.129 267.101a1.1 1.1 0 0 1 .087.418 1.074 1.074 0 0 1-1.068 1.068h-1.6a1.068 1.068 0 0 1-1.068-1.068 1.049 1.049 0 0 1 .044-.294z" opacity=".1"/><path data-name="Tracé 620" d="M236.319 266.958a1.065 1.065 0 0 1-.906 1.63h-1.6a1.068 1.068 0 0 1-1.068-1.068 1.013 1.013 0 0 1 .094-.443z" opacity=".1"/><path data-name="Tracé 621" d="M241.272 267.527a1.074 1.074 0 0 1-1.068 1.068h-1.6a1.068 1.068 0 0 1-.874-1.68l3.248-.112a1.031 1.031 0 0 1 .294.725z" opacity=".1"/><path data-name="Tracé 622" d="M250.853 271.785h-30.885v-1.405a2.4 2.4 0 0 1 2.323-2.4l24.771-.856a3.673 3.673 0 0 1 3.8 3.666z" fill="#d6d6e3"/><path data-name="Tracé 623" d="M403.233 267.482a3.779 3.779 0 0 0 3.541 4.035h37.4v-3.9h-31.142a1.954 1.954 0 0 1-1.505-2.923l28.206-57.365a2.5 2.5 0 0 1 2.19-1.412h13.959v-6.558h-17.61a1.749 1.749 0 0 0-1.505.981l-32.335 62.458a10.617 10.617 0 0 0-1.2 4.684z" fill="#535461"/><path data-name="Tracé 624" d="M471.892 257.077l.512.862 4.791-3.2-14.822-113.965h-3.816s-.156.525-.412 1.524c-2.561 9.846-15.134 65.631 13.747 114.779z" fill="#535461"/><path data-name="Tracé 625" d="M458.145 142.298l13.741 114.779.512.862 4.791-3.2-14.816-113.965h-3.816s-.156.543-.412 1.524z" opacity=".1"/><path data-name="Rectangle 1692" fill="#d6d6e3" d="M458.481 140.662l8.993-1.078 14.069 117.399-8.993 1.077z"/><path data-name="Tracé 626" d="M512.34 267.526a1.074 1.074 0 0 0 1.068 1.068h1.6a1.068 1.068 0 0 0 1.068-1.068.515.515 0 0 0 0-.125 1.068 1.068 0 0 0-1.056-.937h-1.6a1.074 1.074 0 0 0-1.031.812.987.987 0 0 0-.049.25z" fill="#e3edf9"/><path data-name="Tracé 627" d="M507.55 267.526a1.074 1.074 0 0 0 1.071 1.068h1.6a1.068 1.068 0 0 0 1.068-1.068 1.053 1.053 0 0 0-.044-.294 1 1 0 0 0-.268-.456 1.044 1.044 0 0 0-.75-.312h-1.63a1.074 1.074 0 0 0-.981.625 1.1 1.1 0 0 0-.066.437z" fill="#e3edf9"/><path data-name="Tracé 628" d="M503.29 267.526a1.074 1.074 0 0 0 1.068 1.068h1.6a1.068 1.068 0 0 0 1.068-1.068 1.01 1.01 0 0 0-.094-.443 1.087 1.087 0 0 0-.968-.625h-1.6a1.062 1.062 0 0 0-1.068 1.068z" fill="#e3edf9"/><path data-name="Tracé 629" d="M498.493 267.526a1.074 1.074 0 0 0 1.07 1.068h1.6a1.068 1.068 0 0 0 .874-1.68l-.125-.137a1.043 1.043 0 0 0-.75-.312h-1.6a1.075 1.075 0 0 0-.775.344 1.031 1.031 0 0 0-.294.717z" fill="#e3edf9"/><path data-name="Tracé 630" d="M512.371 267.27a.987.987 0 0 0-.031.256 1.074 1.074 0 0 0 1.068 1.068h1.6a1.068 1.068 0 0 0 1.068-1.068.515.515 0 0 0 0-.125z" opacity=".1"/><path data-name="Tracé 631" d="M507.637 267.101a1.1 1.1 0 0 0-.087.418 1.074 1.074 0 0 0 1.068 1.068h1.602a1.068 1.068 0 0 0 1.068-1.068 1.049 1.049 0 0 0-.044-.294z" opacity=".1"/><path data-name="Tracé 632" d="M503.446 266.958a1.065 1.065 0 0 0 .906 1.63h1.6a1.068 1.068 0 0 0 1.068-1.068 1.012 1.012 0 0 0-.094-.443z" opacity=".1"/><path data-name="Tracé 633" d="M498.493 267.527a1.074 1.074 0 0 0 1.07 1.065h1.6a1.068 1.068 0 0 0 .874-1.68l-3.248-.112a1.031 1.031 0 0 0-.293.725z" opacity=".1"/><path data-name="Tracé 634" d="M488.912 271.785h30.885v-1.405a2.4 2.4 0 0 0-2.323-2.4l-24.771-.856a3.673 3.673 0 0 0-3.8 3.666z" fill="#d6d6e3"/><path data-name="Tracé 635" d="M937.345 376.658c14.409-24.44 9.188-73.738 9.768-74.681.518-.831-1.468-24.046-14.709-29.717-2.392-4.741-4.747-10.081-4.747-10.081a4.2 4.2 0 0 1-.762.568q-.156-.425-.306-.862c-.169-.493-.325-1-.481-1.505a9.71 9.71 0 0 0 1.13.287 4.71 4.71 0 0 0 3.023-.269 3.368 3.368 0 0 0 .868-.668 6.582 6.582 0 0 0 2.1-3.123l3.854-9.231A71.848 71.848 0 0 0 941.5 234.6a35.964 35.964 0 0 0-1.536-19.9c-.912-2.423-2.174-4.847-4.316-6.3-4.291-2.911-10.262-.9-15.165-2.6-1.611-.562-3.067-1.511-4.678-2.086-3.479-1.249-7.407-.581-10.755.974s-6.058 4.029-8.988 6.246c-1.443 1.106-3.747 2.249-5.446 3.747-1.649 1.287-2.917 2.842-2.673 4.89.275 2.342 2.742 3.747 5.04 4.3.381.087.775.156 1.162.225a22.485 22.485 0 0 0 9.6 37.35 52.664 52.664 0 0 1 3.035 6.827q.169.481.331.968c-3.785 1.074-6.745 1.967-7.339 2.461-1.792 1.487 1.961 14.5 1.961 14.5-.956 1.212-1.93 2.592-2.917 4.072a87.784 87.784 0 0 0-13.841 37.831c-.625 4.94-1.437 9.993-2.467 14.8l-44.764-8.975-.094 1.105-1.068-.262-3.36-.831-.131.756-.512-.244c-8.326-3.9-22.354-8.888-31.854-3.747-10.025 5.4 11.611 12.567 25.5 16.383-4.6.225-9.006 1.33-12.492 3.916-10.068 7.545 18.406 11.474 31.854 12.866l.543.056v.287l4.659.431 1.093.1.106 1.661s6.67 1.093 15.583 2.417a271.819 271.819 0 0 1-31.479 5.334 23.032 23.032 0 0 0-19.624 16.52 14.69 14.69 0 0 0-.225 7.945c2.6 9.075-.575 75.836-1.293 90.214l-16.458 9.475s-25.608 3.123-8.551 9.125a35.071 35.071 0 0 0 4.7 1.249c-2.248 1.449-2.055 3.341 4.572 5.665 17.07 5.983 56.749-.262 56.749-.262s-.868-7.033-2.28-12.879l.437.037s-4.1-15.246 2.117-22.935-1.043-66.205-1.043-66.205 10.88-4.5 43.4-4.8c26.232 6.733 39.017-17.37 38.836-29.83a6.619 6.619 0 0 1-.084-.819z" transform="translate(-319.157 -87.94)" fill="url(#a)"/><path data-name="Tracé 636" d="M521.24 250.844l-2.779 11.242s-2.5-.562-6.246-1.524c-12.691-3.285-39.461-11.174-28.731-16.964 9.25-5 22.872-.137 30.96 3.654 2.961 1.393 5.184 2.642 6.177 3.229.419.239.619.363.619.363z" fill="#f8b9bf"/><path data-name="Tracé 637" d="M520.459 254.012l-2 8.12s-2.5-.562-6.246-1.524l2.255-13.31c2.961 1.393 5.184 2.642 6.177 3.229z" opacity=".1"/><path data-name="Tracé 638" d="M520.466 262.904l-7.757-1.917 2.41-14.216 6.2 1.53z" fill="#d9dfe8"/><path data-name="Tracé 639" d="M520.468 262.904l-3.348-.824 1.262-14.5 2.942.724z" opacity=".1"/><path data-name="Tracé 640" d="M595.316 204.025s-14.9-8.607-21.517 16.083-7.245 36.063-7.245 36.063l-47.043-9.406-1.493 17.182s50.3 16.239 56.624 15.059 26.857-35.6 26.857-35.6 18.663-26.677-6.183-39.381z" fill="#6c63ff"/><g data-name="Groupe 66" opacity=".1"><path data-name="Tracé 641" d="M521.241 250.843l-2.779 11.242s-2.5-.562-6.246-1.524c-12.691-3.285-39.461-11.174-28.731-16.964 9.25-5 22.872-.137 30.96 3.654 2.961 1.393 5.184 2.642 6.177 3.229.419.239.619.363.619.363z"/><path data-name="Tracé 642" d="M520.46 254.012l-2 8.12s-2.5-.562-6.246-1.524l2.255-13.31c2.961 1.393 5.184 2.642 6.177 3.229z" opacity=".1"/><path data-name="Tracé 643" d="M520.466 262.904l-7.757-1.917 2.41-14.216 6.2 1.53z"/><path data-name="Tracé 644" d="M520.469 262.904l-3.348-.824 1.262-14.5 2.942.724z" opacity=".1"/><path data-name="Tracé 645" d="M595.316 204.649s-14.9-8.607-21.517 16.083-7.245 36.063-7.245 36.063l-47.043-9.406-1.493 17.182s50.3 16.239 56.624 15.059 26.857-35.6 26.857-35.6 18.663-26.677-6.183-39.381z"/></g><path data-name="Tracé 646" d="M500.566 395.333l-19.206 11.061s-24.883 3.048-8.307 8.857 55.113-.256 55.113-.256-2.142-17.313-5.128-19.731-22.472.069-22.472.069z" fill="#68739d"/><path data-name="Tracé 647" d="M575.423 271.23s-9.556 5-26.532 9.313a265.921 265.921 0 0 1-31.01 5.284 22.366 22.366 0 0 0-19.062 16.008 14.267 14.267 0 0 0-.219 7.745c2.829 9.887-1.393 90.258-1.393 90.258l29.168 2.7s-3.979-14.809 2.061-22.273-1.012-64.276-1.012-64.276 10.568-4.372 42.147-4.659c29.255 7.495 41.31-24.527 36.794-33.5s-30.942-6.6-30.942-6.6z" fill="#6394e2"/><g data-name="Groupe 67" opacity=".1"><path data-name="Tracé 648" d="M500.566 395.333l-19.206 11.061s-24.883 3.048-8.307 8.857 55.113-.256 55.113-.256-2.142-17.313-5.128-19.731-22.472.069-22.472.069z"/><path data-name="Tracé 649" d="M575.423 271.229s-9.556 5-26.532 9.313a265.921 265.921 0 0 1-31.01 5.284 22.366 22.366 0 0 0-19.062 16.008 14.267 14.267 0 0 0-.219 7.745c2.829 9.887-1.393 90.258-1.393 90.258l29.168 2.7s-3.979-14.809 2.061-22.273-1.012-64.276-1.012-64.276 10.568-4.372 42.147-4.659c29.255 7.495 41.31-24.527 36.794-33.5s-30.942-6.6-30.942-6.6z"/></g><path data-name="Tracé 650" d="M509.574 402.049l-19.206 11.061s-24.871 3.023-8.307 8.857 55.113-.256 55.113-.256-2.142-17.313-5.128-19.73-22.472.068-22.472.068z" fill="#68739d"/><path data-name="Tracé 651" d="M578.542 318.042c-31.579.287-42.147 4.659-42.147 4.659s7.052 56.837 1.012 64.276-2.061 22.272-2.061 22.272l-29.168-2.7s.05-.949.131-2.648c.7-13.966 3.779-78.8 1.249-87.61a14.266 14.266 0 0 1 .219-7.72 22.372 22.372 0 0 1 19.056-16.045 258.347 258.347 0 0 0 31-5.284l.487-.125c16.676-4.285 26.045-9.188 26.045-9.188s26.426-2.373 30.942 6.6a10.618 10.618 0 0 1 .924 4.528c.233 12.115-12.196 35.524-37.689 28.985z" fill="#6394e2"/><path data-name="Tracé 652" d="M534.556 264.853l-1.068 11.555s-2.567-.181-6.383-.581c-13.035-1.355-40.685-5.165-30.91-12.492 8.407-6.3 22.6-3.548 31.16-1 3.123.937 5.521 1.842 6.589 2.273.394.151.612.245.612.245z" fill="#f8b9bf"/><path data-name="Tracé 653" d="M612.136 189.31s-3.91 3.06-8.688 6.421c-5.24 1.187-11.324 2.167-15.708 2.8 1.568-5 .625-10.618-1.143-15.546a58.515 58.515 0 0 0-7.838-14.415l26.432-8.251c-2.074 5.253-1.137 11.242.625 16.451a54.241 54.241 0 0 0 6.32 12.54z" fill="#f8b9bf"/><path data-name="Tracé 654" d="M534.257 268.107l-.768 8.3s-2.567-.181-6.383-.581l.25-13.5c3.123.937 5.521 1.843 6.589 2.273z" opacity=".1"/><path data-name="Tracé 655" d="M535.587 276.894l-7.957-.737.262-14.415 6.365.587z" fill="#d9dfe8"/><path data-name="Tracé 656" d="M612.136 189.31s-3.91 3.06-8.688 6.421c-5.24 1.187-11.324 2.167-15.708 2.8 1.568-5 .625-10.618-1.143-15.546 6.458-1.874 15.7-4.3 19.225-6.246a54.242 54.242 0 0 0 6.314 12.571z" opacity=".1"/><path data-name="Tracé 657" d="M606.852 177.056s4.422 10.037 7.208 14.571-32.366 8.744-32.366 8.744-3.648-12.635-1.9-14.084 24.116-6.295 27.058-9.231z" fill="#d9dfe8"/><path data-name="Tracé 658" d="M616.289 289.072a31.625 31.625 0 0 1-5.471 7.083c-15.527 14.753-40.979-.625-52.465-9.031 16.676-4.285 26.045-9.188 26.045-9.188s26.426-2.373 30.942 6.6a10.617 10.617 0 0 1 .949 4.536z" opacity=".1"/><path data-name="Tracé 659" d="M610.917 295.095c-17.651 16.764-48.093-5.434-56.3-11.973-1.33-1.062-2.074-1.718-2.074-1.718 3.242-3.035 6.09-9.469 8.344-17.338a152.159 152.159 0 0 0 4.541-22.972 85.255 85.255 0 0 1 13.446-36.744c.956-1.437 1.874-2.779 2.829-3.954 6.664-8.476 17.863-13.859 17.863-13.859 23.634-6.908 26.813 28.15 26.182 29.162s5.687 59.903-14.831 79.396z" fill="#6c63ff"/><path data-name="Tracé 660" d="M613.203 247.171s-15.2 37.1-21.273 39.217c-3.479 1.205-22.06-1.081-37.312-3.26-1.33-1.062-2.074-1.718-2.074-1.718 3.242-3.035 6.09-9.469 8.344-17.338l19.643.937s-1.093-11.33 1.793-36.738 18.881-19.116 18.881-19.116c26.463 8.867 11.998 38.016 11.998 38.016z" opacity=".1"/><path data-name="Tracé 661" d="M535.587 276.895l-3.435-.319-.912-14.521 3.017.275z" opacity=".1"/><path data-name="Tracé 662" d="M600.825 207.522s-16-6.29-18.881 19.112-1.793 36.738-1.793 36.738l-47.924-2.292 1.081 17.213s52.159 8.563 58.236 6.452 21.273-39.217 21.273-39.217 14.446-29.149-11.992-38.006z" fill="#6c63ff"/><path data-name="Tracé 663" d="M601.899 169.91c-.7-3.8 3.267-3.747 4.691-7.32l-26.432 8.251a58.331 58.331 0 0 1 4.9 7.788 21.929 21.929 0 0 0 4.2.812c6.301.6 8.269-5.602 12.641-9.531z" opacity=".1"/><ellipse data-name="Ellipse 436" cx="21.835" cy="21.835" rx="21.835" ry="21.835" transform="rotate(-84.72 379.01 -222.845)" fill="#f8b9bf"/><path data-name="Tracé 664" d="M568.302 135.696c.269 2.273 2.667 3.66 4.9 4.172s4.647.537 6.6 1.73c3.123 1.924 3.966 6.2 3.573 9.868-.219 2.074-.531 4.616 1.168 5.821a4.527 4.527 0 0 0 1.749.625 16.4 16.4 0 0 0 5.384.187 7.656 7.656 0 0 1 3.123-.081c1.636.475 2.6 2.2 2.923 3.866s.144 3.4.4 5.084a10.555 10.555 0 0 0 8.319 8.582 4.578 4.578 0 0 0 2.936-.262 5.867 5.867 0 0 0 2.3-3.2l3.748-8.969a69.874 69.874 0 0 0 4.285-12.4 34.925 34.925 0 0 0-1.493-19.325c-.887-2.348-2.111-4.7-4.191-6.115-4.166-2.829-9.993-.874-14.728-2.5-1.568-.543-2.979-1.468-4.541-2.024-3.379-1.205-7.2-.568-10.449.949s-5.884 3.91-8.744 6.09c-2.477 1.931-7.73 3.973-7.262 7.902z" opacity=".1"/><path data-name="Tracé 665" d="M568.874 135.215c.269 2.273 2.667 3.66 4.9 4.172s4.647.537 6.6 1.73c3.123 1.924 3.966 6.2 3.573 9.868-.219 2.074-.531 4.616 1.168 5.821a4.528 4.528 0 0 0 1.749.625 16.4 16.4 0 0 0 5.384.187 7.656 7.656 0 0 1 3.123-.081c1.636.475 2.6 2.2 2.923 3.866s.144 3.4.4 5.084a10.555 10.555 0 0 0 8.319 8.582 4.578 4.578 0 0 0 2.935-.262 5.867 5.867 0 0 0 2.3-3.2l3.747-8.969a69.874 69.874 0 0 0 4.285-12.4 34.926 34.926 0 0 0-1.493-19.324c-.887-2.348-2.111-4.7-4.191-6.115-4.166-2.829-9.993-.874-14.728-2.5-1.568-.543-2.979-1.468-4.541-2.024-3.379-1.205-7.2-.568-10.449.949s-5.884 3.91-8.744 6.09c-2.467 1.93-7.719 3.972-7.26 7.901z" fill="#b96b6b"/><path data-name="Tracé 666" d="M586.965 221.476s-8.338 32.391-16.639 35.389-4.634 3.847-4.634 3.847" opacity=".1"/><path data-name="Rectangle 1693" fill="#d6d6e3" d="M578.296 340.133h9.063v59.566h-9.063z"/><path data-name="Rectangle 1694" opacity=".1" d="M578.296 340.133h9.063v4.416h-9.063z"/><path data-name="Tracé 667" d="M560.164 339.821v1.249a2.929 2.929 0 0 0 2.929 2.929h39.461a2.929 2.929 0 0 0 2.929-2.929v-1.249a2.929 2.929 0 0 0-2.929-2.929h-39.46a2.929 2.929 0 0 0-2.93 2.929z" fill="#d6d6e3"/><path data-name="Tracé 668" d="M560.839 337.962h43.977a2.917 2.917 0 0 0-2.261-1.068h-39.466a2.917 2.917 0 0 0-2.25 1.068z" opacity=".1"/><rect data-name="Rectangle 1695" width="74.456" height="7.12" rx="3.56" transform="translate(545.605 396.458)" fill="#d6d6e3"/><circle data-name="Ellipse 437" cx="4.534" cy="4.534" r="4.534" transform="translate(611.317 403.578)" fill="#535461"/><circle data-name="Ellipse 438" cx="4.534" cy="4.534" r="4.534" transform="translate(545.274 403.578)" fill="#535461"/><circle data-name="Ellipse 439" cx="4.534" cy="4.534" r="4.534" transform="translate(578.296 403.578)" fill="#535461"/><rect data-name="Rectangle 1696" width="71.221" height="11.005" rx="5.503" transform="translate(573.199 266.97)" fill="#d6d6e3"/><path data-name="Tracé 669" d="M587.359 396.458s-3.56 3.516-9.063 0" opacity=".1"/><path data-name="Tracé 670" d="M644.42 272.585v.868a4.528 4.528 0 0 1-4.528 4.528h-62.165a4.528 4.528 0 0 1-4.528-4.528v-.868z" opacity=".1"/><path data-name="Rectangle 1697" fill="#d6d6e3" d="M513.677 282.703h12.248V438.76h-12.248z"/><path data-name="Rectangle 1698" opacity=".1" d="M513.677 282.703h12.248v10.118h-12.248z"/><path data-name="Rectangle 1699" fill="#d6d6e3" d="M145.487 344.393h9.063v59.566h-9.063z"/><path data-name="Rectangle 1700" opacity=".1" d="M145.487 344.393h9.063v4.416h-9.063z"/><path data-name="Tracé 671" d="M172.676 344.083v1.249a2.929 2.929 0 0 1-2.93 2.934h-39.461a2.929 2.929 0 0 1-2.929-2.929v-1.254a2.929 2.929 0 0 1 2.929-2.9h39.461a2.929 2.929 0 0 1 2.929 2.929z" fill="#d6d6e3"/><path data-name="Tracé 672" d="M172.007 342.22h-43.983a2.917 2.917 0 0 1 2.261-1.037h39.459a2.917 2.917 0 0 1 2.263 1.037z" opacity=".1"/><rect data-name="Rectangle 1701" width="74.456" height="7.12" rx="3.56" transform="translate(112.79 400.718)" fill="#d6d6e3"/><circle data-name="Ellipse 440" cx="4.534" cy="4.534" r="4.534" transform="translate(112.466 407.838)" fill="#535461"/><circle data-name="Ellipse 441" cx="4.534" cy="4.534" r="4.534" transform="translate(178.502 407.838)" fill="#535461"/><circle data-name="Ellipse 442" cx="4.534" cy="4.534" r="4.534" transform="translate(145.481 407.838)" fill="#535461"/><path data-name="Tracé 673" d="M145.487 400.718s3.56 3.516 9.063 0" opacity=".1"/><path data-name="Tracé 674" d="M376.69 221.401s-10.168-18.481-6.452-34.546a31.96 31.96 0 0 0-1.78-20.136 53.747 53.747 0 0 0-4.768-8.582" fill="none" stroke="#535461" stroke-miterlimit="10" stroke-width="2"/><path data-name="Tracé 675" d="M365.945 147.994c.531 2.423-2.311 10.412-2.311 10.412s-5.927-6.058-6.464-8.482a4.491 4.491 0 1 1 8.744-1.93z" fill="#6c63ff"/><path data-name="Tracé 676" d="M376.145 159.818c-.868 2.323-7.595 7.495-7.595 7.495s-1.686-8.307-.812-10.618a4.491 4.491 0 1 1 8.413 3.123z" fill="#6c63ff"/><path data-name="Tracé 677" d="M380.866 182.815c-1.924 1.568-10.337 2.623-10.337 2.623s2.742-8.02 4.666-9.587a4.491 4.491 0 1 1 5.671 6.964z" fill="#6c63ff"/><path data-name="Tracé 678" d="M380.522 201.015c-1.63 1.874-9.743 4.335-9.743 4.335s1.343-8.369 2.973-10.237a4.491 4.491 0 1 1 6.764 5.9z" fill="#6c63ff"/><path data-name="Tracé 679" d="M359.444 169.791c2.111 1.305 10.587 1.249 10.587 1.249s-3.747-7.6-5.859-8.906a4.491 4.491 0 1 0-4.728 7.632z" fill="#6c63ff"/><path data-name="Tracé 680" d="M359.318 191.085c2.4.625 10.48-1.949 10.48-1.949s-5.852-6.133-8.257-6.745a4.491 4.491 0 0 0-2.224 8.694z" fill="#6c63ff"/><path data-name="Tracé 681" d="M362.022 211.801c2.261 1.012 10.662-.15 10.662-.15s-4.734-7.033-7-8.045a4.491 4.491 0 0 0-3.666 8.2z" fill="#6c63ff"/><path data-name="Tracé 682" d="M365.945 147.994c.531 2.423-2.311 10.412-2.311 10.412s-5.927-6.058-6.464-8.482a4.491 4.491 0 1 1 8.744-1.93z" fill="#6c63ff"/><path data-name="Tracé 683" d="M376.145 159.818c-.868 2.323-7.595 7.495-7.595 7.495s-1.686-8.307-.812-10.618a4.491 4.491 0 1 1 8.413 3.123z" fill="#6c63ff"/><path data-name="Tracé 684" d="M380.866 182.815c-1.924 1.568-10.337 2.623-10.337 2.623s2.742-8.02 4.666-9.587a4.491 4.491 0 1 1 5.671 6.964z" fill="#6c63ff"/><path data-name="Tracé 685" d="M380.522 201.015c-1.63 1.874-9.743 4.335-9.743 4.335s1.343-8.369 2.973-10.237a4.491 4.491 0 1 1 6.764 5.9z" fill="#6c63ff"/><path data-name="Tracé 686" d="M359.444 169.791c2.111 1.305 10.587 1.249 10.587 1.249s-3.747-7.6-5.859-8.906a4.491 4.491 0 1 0-4.728 7.632z" fill="#6c63ff"/><path data-name="Tracé 687" d="M359.318 191.085c2.4.625 10.48-1.949 10.48-1.949s-5.852-6.133-8.257-6.745a4.491 4.491 0 0 0-2.224 8.694z" fill="#6c63ff"/><path data-name="Tracé 688" d="M362.022 211.801c2.261 1.012 10.662-.15 10.662-.15s-4.734-7.033-7-8.045a4.491 4.491 0 0 0-3.666 8.2z" fill="#6c63ff"/><path data-name="Tracé 689" d="M372.553 272.66a10.705 10.705 0 0 1-10.687-11.38l2.992-47.406h15.39l2.992 47.406a10.705 10.705 0 0 1-10.687 11.38z" fill="#6c63ff"/><path data-name="Rectangle 1702" fill="#6c63ff" opacity=".1" d="M52.212 39.611h8.744v36.226h-8.744z"/><path data-name="Rectangle 1703" fill="#6c63ff" opacity=".1" d="M63.455 39.611h8.744v36.226h-8.744z"/><path data-name="Rectangle 1704" fill="#6c63ff" opacity=".1" d="M74.697 39.611h8.744v36.226h-8.744z"/><path data-name="Rectangle 1705" fill="#6c63ff" opacity=".1" d="M85.94 39.611h8.744v36.226H85.94z"/><path data-name="Rectangle 1706" fill="#6c63ff" opacity=".1" d="M108.425 39.611h8.744v36.226h-8.744z"/><path data-name="Rectangle 1707" fill="#6c63ff" opacity=".1" d="M119.667 39.611h8.744v36.226h-8.744z"/><path data-name="Rectangle 1708" fill="#6c63ff" opacity=".1" d="M52.212 46.481h8.744v1.874h-8.744z"/><path data-name="Rectangle 1709" fill="#6c63ff" opacity=".1" d="M52.212 68.966h8.744v1.874h-8.744z"/><path data-name="Rectangle 1710" fill="#6c63ff" opacity=".1" d="M63.455 46.481h8.744v1.874h-8.744z"/><path data-name="Rectangle 1711" fill="#6c63ff" opacity=".1" d="M63.455 68.966h8.744v1.874h-8.744z"/><path data-name="Rectangle 1712" fill="#6c63ff" opacity=".1" d="M74.697 46.481h8.744v1.874h-8.744z"/><path data-name="Rectangle 1713" fill="#6c63ff" opacity=".1" d="M74.697 68.966h8.744v1.874h-8.744z"/><path data-name="Rectangle 1714" fill="#6c63ff" opacity=".1" d="M85.94 46.481h8.744v1.874H85.94z"/><path data-name="Rectangle 1715" fill="#6c63ff" opacity=".1" d="M85.94 68.966h8.744v1.874H85.94z"/><path data-name="Rectangle 1716" fill="#6c63ff" opacity=".1" d="M97.182 46.481h8.744v1.874h-8.744z"/><path data-name="Rectangle 1717" fill="#6c63ff" opacity=".1" d="M97.182 68.966h8.744v1.874h-8.744z"/><path data-name="Rectangle 1718" fill="#6c63ff" opacity=".1" d="M108.425 46.481h8.744v1.874h-8.744z"/><path data-name="Rectangle 1719" fill="#6c63ff" opacity=".1" d="M108.425 68.966h8.744v1.874h-8.744z"/><path data-name="Rectangle 1720" fill="#6c63ff" opacity=".1" d="M119.667 46.481h8.744v1.874h-8.744z"/><path data-name="Rectangle 1721" fill="#6c63ff" opacity=".1" d="M119.667 68.966h8.744v1.874h-8.744z"/><path data-name="Rectangle 1722" fill="#6c63ff" opacity=".1" d="M97.182 39.611h8.744v36.226h-8.744z"/><path data-name="Rectangle 1723" fill="#6c63ff" opacity=".1" d="M128.699 43.117l7.935-3.673 15.218 32.874-7.935 3.674z"/><path data-name="Rectangle 1724" fill="#6c63ff" opacity=".1" d="M131.587 49.358l7.935-3.673.787 1.7-7.935 3.674z"/><path data-name="Rectangle 1725" fill="#6c63ff" opacity=".1" d="M141.028 69.76l7.935-3.673.787 1.7-7.935 3.674z"/><path data-name="Tracé 690" d="M345.8 498.652l-15.87-10.125c-.081-14.259-.306-80.458 2.661-89.315a14.546 14.546 0 0 0 .125-7.876 22.8 22.8 0 0 0-18.694-17.2 268.628 268.628 0 0 1-30.917-6.652c8.875-.918 15.527-1.711 15.527-1.711l.175-1.643 5.715-.275v-.244l.543-.031c13.347-.793 41.691-3.435 32.06-11.342-3.3-2.711-7.614-3.991-12.161-4.422 13.9-3.173 35.632-9.319 25.945-15.1-9.206-5.484-23.3-1.174-31.716 2.33l-.518.219-.094-.756-3.36.675-1.068.212-.05-1.1-47.15 7.283a160.923 160.923 0 0 0-1.924-16.12c1.056-7.033 5.965-17.288 4.235-22.791-2.011-6.389-10.268-8.482-13.741-14.253-.912-1.505-1.818-2.917-2.7-4.153a43.724 43.724 0 0 0-6.652-7.189 30.355 30.355 0 0 1 2.448-10.774 52.194 52.194 0 0 1 3.3-6.621 22.235 22.235 0 0 0 16.514-25.608c2.986 1.28 6.614 1.412 8.482-1.087l-.887-.344a2.818 2.818 0 0 0 .25-.294 16.763 16.763 0 0 1-5.172-2.742 6.058 6.058 0 0 1-.906-1.343c-.862-1.749-.762-3.847-1.586-5.621a6.5 6.5 0 0 0-1.618-2.111 11.136 11.136 0 0 0-5.284-3.023 66.8 66.8 0 0 1-6.789-1.874 22.953 22.953 0 0 0-24.427-6.87l-.781.269a10.186 10.186 0 1 0-19.87-4.5 10.162 10.162 0 0 1 2.725-6.083c-.162.137-.331.269-.487.412a10.193 10.193 0 0 0-.443 14.409l.181.175a10.237 10.237 0 0 0 2.555 2.236 10.193 10.193 0 0 1-6.72-8.351v.625a10.193 10.193 0 0 0 10.836 9.581l.281-.031-.15.206a22.928 22.928 0 0 0 2.061 28.387 10.618 10.618 0 0 0 1.636 2.623 8.5 8.5 0 0 0 .756.762 9.687 9.687 0 0 0 6.533 3.01 19.533 19.533 0 0 0 1.33 1.43 37.173 37.173 0 0 1-1.611 5.147 54.553 54.553 0 0 1-4.947 9.537c-13.491 3.835-14.678 26.745-14.19 27.613.581 1.037-2.011 37.013 7.982 80.471-.412 12.423 6.833 32.965 32.553 27.55 32.166 1.718 42.715 6.646 42.715 6.646s-3.054 55.944 1.305 64.088c2.729 5.1.793 12.6-1.249 17.888a19.654 19.654 0 0 0-1.8 4.147 34.74 34.74 0 0 1-1.081 2.117h.437c-1.649 5.727-2.817 12.641-2.817 12.641s38.992 7.913 56.143 2.736c6.658-2.011 6.933-3.872 4.772-5.409a34.724 34.724 0 0 0 4.709-1.031c17.161-5.169-8.06-9.41-8.06-9.41z" transform="translate(-102.754 -85.511)" fill="url(#b)"/><path data-name="Tracé 691" d="M158.204 147.563a22.485 22.485 0 1 1-22.485-22.485 22.485 22.485 0 0 1 22.485 22.485z" fill="#fa595f"/><path data-name="Tracé 692" d="M208.851 253.198l2.28 11.38s2.536-.456 6.29-1.249c12.823-2.717 39.917-9.425 29.424-15.683-9.025-5.378-22.847-1.149-31.092 2.286a72.522 72.522 0 0 0-6.314 2.954c-.378.193-.588.312-.588.312z" fill="#f8b9bf"/><path data-name="Tracé 693" d="M209.494 256.409l1.636 8.169s2.536-.456 6.29-1.249l-1.668-13.4a72.522 72.522 0 0 0-6.314 2.954z" opacity=".1"/><path data-name="Tracé 694" d="M209.1 265.287l7.832-1.568-1.774-14.309-6.271 1.255z" fill="#d9dfe8"/><path data-name="Tracé 695" d="M209.1 265.284l3.379-.681-.618-14.534-2.973.593z" opacity=".1"/><path data-name="Tracé 696" d="M136.912 203.151s15.246-7.945 20.786 17.02 5.621 36.344 5.621 36.344l47.418-7.326.737 17.232s-50.966 14.009-57.23 12.548-25.283-36.757-25.283-36.757-17.426-27.45 7.951-39.061z" fill="#6c63ff"/><g data-name="Groupe 68" opacity=".1"><path data-name="Tracé 697" d="M208.851 253.198l2.28 11.38s2.536-.456 6.29-1.249c12.823-2.717 39.917-9.425 29.424-15.683-9.025-5.378-22.847-1.149-31.092 2.286a72.522 72.522 0 0 0-6.314 2.954c-.378.193-.588.312-.588.312z"/><path data-name="Tracé 698" d="M209.494 256.409l1.636 8.169s2.536-.456 6.29-1.249l-1.668-13.4a72.522 72.522 0 0 0-6.314 2.954z" opacity=".1"/><path data-name="Tracé 699" d="M209.1 265.287l7.832-1.568-1.774-14.309-6.271 1.255z"/><path data-name="Tracé 700" d="M209.1 265.284l3.379-.681-.618-14.534-2.973.593z" opacity=".1"/><path data-name="Tracé 701" d="M138.161 204.4s15.246-7.945 20.786 17.02 5.621 36.344 5.621 36.344l47.418-7.326.737 17.232s-50.966 14.009-57.23 12.548-25.283-36.756-25.283-36.756-17.426-27.451 7.951-39.062z"/></g><path data-name="Tracé 702" d="M223.16 398.463l18.7 11.867s24.727 4.141 7.907 9.219-55.044-2.686-55.044-2.686 2.9-17.2 6-19.481 22.437 1.081 22.437 1.081z" fill="#f37291"/><path data-name="Tracé 703" d="M153.832 271.168s9.325 5.415 26.095 10.474c9.831 2.967 22.2 5.259 30.742 6.652A22.366 22.366 0 0 1 229 305.158a14.265 14.265 0 0 1-.119 7.72c-3.26 9.756-2.6 90.233-2.6 90.233l-29.255 1.405s4.628-14.621-1.074-22.341 3.847-64.163 3.847-64.163-10.362-4.834-41.9-6.514c-29.561 6.246-40.185-26.326-35.276-35.1s31.209-5.23 31.209-5.23z" fill="#96a2d0"/><g data-name="Groupe 69" opacity=".1"><path data-name="Tracé 704" d="M223.16 398.463l18.7 11.867s24.727 4.141 7.907 9.219-55.044-2.686-55.044-2.686 2.9-17.2 6-19.481 22.437 1.081 22.437 1.081z"/><path data-name="Tracé 705" d="M153.832 271.168s9.325 5.415 26.095 10.474c9.831 2.967 22.2 5.259 30.742 6.652A22.366 22.366 0 0 1 229 305.158a14.265 14.265 0 0 1-.119 7.72c-3.26 9.756-2.6 90.233-2.6 90.233l-29.255 1.405s4.628-14.621-1.074-22.341 3.847-64.163 3.847-64.163-10.362-4.834-41.9-6.514c-29.561 6.246-40.185-26.326-35.276-35.1s31.209-5.23 31.209-5.23z"/></g><path data-name="Tracé 706" d="M213.841 404.778l18.7 11.867s24.727 4.141 7.907 9.219-55.044-2.686-55.044-2.686 2.9-17.2 6-19.481 22.437 1.081 22.437 1.081z" fill="#f37291"/><path data-name="Tracé 707" d="M148.61 317.805c31.541 1.68 41.9 6.514 41.9 6.514s-2.992 54.851 1.249 62.833c4.528 8.469-4.047 23.672-4.047 23.672l29.255-1.405v-2.648c-.087-13.978-.3-78.884 2.6-87.585a14.266 14.266 0 0 0 .119-7.72 22.372 22.372 0 0 0-18.331-16.864 258.708 258.708 0 0 1-30.742-6.646l-.481-.15c-16.47-5-25.608-10.324-25.608-10.324s-19.481-1.349-24.359 7.42c-.625 1.137-3.316 3.373-3.429 5.178-.723 12.079 6.154 33.137 31.874 27.725z" fill="#96a2d0"/><path data-name="Tracé 708" d="M194.935 266.607l.556 11.592s2.573-.069 6.408-.3c13.085-.781 40.879-3.366 31.435-11.117-8.12-6.664-22.422-4.541-31.085-2.373-3.179.8-5.621 1.6-6.683 1.98-.412.138-.631.218-.631.218z" fill="#f8b9bf"/><path data-name="Tracé 709" d="M120.729 187.718s3.747 3.229 8.394 6.8c5.184 1.412 11.242 2.667 15.571 3.5-1.343-5.09-.15-10.618 1.83-15.483a58.517 58.517 0 0 1 8.469-14.059l-26.045-9.412c1.843 5.34.625 11.3-1.355 16.408a54.246 54.246 0 0 1-6.864 12.246z" fill="#f8b9bf"/><path data-name="Tracé 710" d="M195.091 269.874l.4 8.326s2.573-.069 6.408-.3l.35-13.5c-3.179.8-5.621 1.6-6.683 1.98z" opacity=".1"/><path data-name="Tracé 711" d="M193.38 278.593l7.976-.381.375-14.415-6.383.306z" fill="#d9dfe8"/><path data-name="Tracé 712" d="M117.312 293.453c16.864 17.532 48.311-3.3 56.768-9.475 1.374-1.006 2.142-1.624 2.142-1.624-3.123-3.179-8.12-6.121-10.037-14.084a173.008 173.008 0 0 1-3.71-24.683c-.518-6.589 6.289-19.137 4.322-25.4s-10.068-8.313-13.472-13.978c-.893-1.474-1.78-2.861-2.654-4.072-6.283-8.744-17.232-14.634-17.232-14.634-23.328-7.963-25.158 25.352-24.577 26.388s-2.087 37.766 8.45 81.562z" fill="#6c63ff"/><path data-name="Tracé 713" d="M117.137 245.472s13.547 37.737 19.524 40.117c3.423 1.362 22.091-.106 37.419-1.611 1.374-1.006 2.142-1.624 2.142-1.624-3.123-3.179-5.665-9.731-7.576-17.688l-19.668.069s1.593-11.242-.169-36.781-18.019-19.921-18.019-19.921c-26.813 7.684-13.653 37.439-13.653 37.439z" opacity=".1"/><path data-name="Tracé 714" d="M193.38 278.594l3.441-.162 1.555-14.471-3.029.144z" opacity=".1"/><path data-name="Tracé 715" d="M131.25 206.405s16.239-5.578 18.019 19.924.187 36.782.187 36.782l47.98-.175-1.842 17.151s-52.465 6.246-58.461 3.879-19.531-40.111-19.531-40.111-13.169-29.762 13.648-37.45z" fill="#6c63ff"/><path data-name="Tracé 716" d="M131.846 168.799c.868-3.747-3.123-3.866-4.372-7.495l26.057 9.369a58.335 58.335 0 0 0-5.234 7.564 21.932 21.932 0 0 1-4.235.625c-6.332.311-8.025-5.958-12.216-10.063z" opacity=".1"/><ellipse data-name="Ellipse 443" cx="21.835" cy="21.835" rx="21.835" ry="21.835" transform="rotate(-2.56 2845.312 -2474.973)" fill="#f8b9bf"/><path data-name="Tracé 717" d="M133.22 222.6s6.908 32.722 15.065 36.063 4.46 4.054 4.46 4.054" opacity=".1"/><path data-name="Tracé 718" d="M161.689 241.081s-5.771 1.805-12.492-6.82" opacity=".1"/><circle data-name="Ellipse 444" cx="9.993" cy="9.993" r="9.993" transform="translate(108.237 114.46)" fill="#fa595f"/><path data-name="Tracé 719" d="M111.211 129.731a9.993 9.993 0 0 1 0-13.672c-.162.131-.325.262-.475.406a9.995 9.995 0 1 0 13.693 14.565c.156-.144.294-.3.431-.45a9.993 9.993 0 0 1-13.647-.849z" fill="#fa595f"/><path data-name="Tracé 720" d="M116.919 133.504a9.993 9.993 0 0 1-10.518-8.744v.625a9.994 9.994 0 1 0 19.949-1.249 5.305 5.305 0 0 0-.069-.625 9.993 9.993 0 0 1-9.362 9.993z" fill="#fa595f"/><path data-name="Tracé 721" d="M152.551 133.142c2.33 1.149 5 1.468 7.495 2.192s5.047 2.049 6.146 4.41c.806 1.736.712 3.791 1.555 5.509 1.212 2.5 4.01 3.648 6.583 4.628-2.211 2.967-6.958 2.161-10.056.144s-5.765-5-9.369-5.777a8.794 8.794 0 0 0-9.25 4.116 22.213 22.213 0 0 0-1.824 5.671c-1.249 5.072-3.747 10.118-8.12 13s-10.886 2.861-14.315-1.081c-2-2.3-2.667-5.428-3.26-8.413a17.092 17.092 0 0 1-.481-4.253c.2-3.585 2.586-6.639 5-9.3 2.842-3.123 5.865-6.121 8.888-9.1 2.611-2.573 5.621-6.933 9.556-7.239 4.532-.366 7.736 3.675 11.452 5.493z" opacity=".1"/><path data-name="Tracé 722" d="M151.926 132.517c2.33 1.149 5 1.468 7.495 2.192s5.047 2.049 6.146 4.41c.806 1.736.712 3.791 1.555 5.509 1.212 2.5 4.01 3.648 6.583 4.628-2.211 2.967-6.958 2.161-10.056.144s-5.765-5-9.369-5.777a8.794 8.794 0 0 0-9.25 4.116 22.214 22.214 0 0 0-1.824 5.671c-1.249 5.072-3.747 10.118-8.12 13s-10.886 2.861-14.315-1.081c-2-2.3-2.667-5.428-3.26-8.413a17.1 17.1 0 0 1-.481-4.253c.2-3.585 2.586-6.639 5-9.3 2.842-3.123 5.865-6.121 8.888-9.1 2.611-2.573 5.621-6.933 9.556-7.239 4.532-.366 7.736 3.675 11.452 5.493z" fill="#fa595f"/><rect data-name="Rectangle 1726" width="71.221" height="11.005" rx="5.503" transform="translate(88.426 271.23)" fill="#d6d6e3"/><path data-name="Tracé 723" d="M88.426 276.851v.868a4.528 4.528 0 0 0 4.528 4.528h62.164a4.528 4.528 0 0 0 4.528-4.528v-.868z" opacity=".1"/><path data-name="Rectangle 1727" fill="#d6d6e3" d="M213.847 282.703h12.248v156.039h-12.248z"/><path data-name="Rectangle 1728" opacity=".1" d="M213.847 282.703h12.248v10.118h-12.248z"/><path data-name="Rectangle 1729" fill="#d6d6e3" d="M207.989 271.517h323.795v20.236H207.989z"/></g></svg>