<svg xmlns="http://www.w3.org/2000/svg" width="1937.075" height="814" viewBox="0 0 1937.075 814">
  <g id="Groupe_275" data-name="Groupe 275" transform="translate(-2317 3041.5)">
    <g id="Groupe_274" data-name="Groupe 274" transform="translate(0 2)">
      <path id="Union_33" data-name="Union 33" d="M891.512,891.024c-45.22-1.291-90.678-3.244-135.113-5.8-43.87-2.524-87.807-5.7-130.59-9.44-42.31-3.7-84.508-8.034-125.423-12.891-80.953-9.608-159.266-21.514-232.762-35.386-36.346-6.861-72.025-14.3-106.048-22.121-33.924-7.795-98.3-24.822-98.3-24.822V81H1030.5c46.36,0,967.623,1.976,967.623,1.976V193.548l2.232,586.284s-64.35,17.121-98.294,24.961c-34.043,7.864-69.763,15.351-106.168,22.254-73.621,13.961-152.118,25.945-233.312,35.621-41.04,4.89-83.374,9.258-125.827,12.982-42.934,3.767-87.029,6.967-131.062,9.51-44.607,2.578-90.242,4.545-135.638,5.846C1124,892.33,1077.046,893,1030.5,893,984.142,893,937.38,892.336,891.512,891.024Z" transform="translate(2253.72 -3122.5)" fill="#f0f0f0"/>
    </g>
    <g id="Groupe_273" data-name="Groupe 273">
      <path id="Union_33-2" data-name="Union 33" d="M891.512,891.024c-45.22-1.291-90.678-3.244-135.113-5.8-43.87-2.524-87.807-5.7-130.59-9.44-42.31-3.7-84.508-8.034-125.423-12.891-80.953-9.608-159.266-21.514-232.762-35.386-36.346-6.861-72.025-14.3-106.048-22.121-33.924-7.795-98.3-24.822-98.3-24.822V81H1030.5c46.36,0,967.623,1.976,967.623,1.976V193.548l2.232,586.284s-64.35,17.121-98.294,24.961c-34.043,7.864-69.763,15.351-106.168,22.254-73.621,13.961-152.118,25.945-233.312,35.621-41.04,4.89-83.374,9.258-125.827,12.982-42.934,3.767-87.029,6.967-131.062,9.51-44.607,2.578-90.242,4.545-135.638,5.846C1124,892.33,1077.046,893,1030.5,893,984.142,893,937.38,892.336,891.512,891.024Z" transform="translate(2253.72 -3122.5)" fill="#f8f8f8"/>
    </g>
  </g>
</svg>
