<svg xmlns="http://www.w3.org/2000/svg" width="1937.075" height="814"><g data-name="Groupe 275"><g data-name="Groupe 274"><path data-name="Union 33" d="M828.232 812.024a4698.72 4698.72 0 0 1-135.113-5.8c-43.87-2.524-87.807-5.7-130.59-9.44-42.31-3.7-84.508-8.034-125.423-12.891-80.953-9.608-159.266-21.514-232.762-35.386-36.346-6.861-72.025-14.3-106.048-22.121-33.924-7.795-98.3-24.822-98.3-24.822V2H967.22c46.36 0 967.623 1.976 967.623 1.976v110.572l2.232 586.284s-64.35 17.121-98.294 24.961c-34.043 7.864-69.763 15.351-106.168 22.254-73.621 13.961-152.118 25.945-233.312 35.621-41.04 4.89-83.374 9.258-125.827 12.982a4426.6 4426.6 0 0 1-131.062 9.51 4690.957 4690.957 0 0 1-135.638 5.846A4878.967 4878.967 0 0 1 967.22 814c-46.358 0-93.12-.664-138.988-1.976z" fill="#f0f0f0"/></g><g data-name="Groupe 273"><path data-name="Union 33" d="M828.232 810.024a4698.72 4698.72 0 0 1-135.113-5.8c-43.87-2.524-87.807-5.7-130.59-9.44-42.31-3.7-84.508-8.034-125.423-12.891-80.953-9.608-159.266-21.514-232.762-35.386-36.346-6.861-72.025-14.3-106.048-22.121-33.924-7.795-98.3-24.822-98.3-24.822V0H967.22c46.36 0 967.623 1.976 967.623 1.976v110.572l2.232 586.284s-64.35 17.121-98.294 24.961c-34.043 7.864-69.763 15.351-106.168 22.254-73.621 13.961-152.118 25.945-233.312 35.621-41.04 4.89-83.374 9.258-125.827 12.982a4426.6 4426.6 0 0 1-131.062 9.51 4690.957 4690.957 0 0 1-135.638 5.846A4878.967 4878.967 0 0 1 967.22 812c-46.358 0-93.12-.664-138.988-1.976z" fill="#f8f8f8"/></g></g></svg>