<svg xmlns="http://www.w3.org/2000/svg" width="494.377" height="344.643" viewBox="0 0 494.377 344.643">
  <g id="Groupe_176" data-name="Groupe 176" transform="translate(0 0)">
    <circle id="Ellipse_464" data-name="Ellipse 464" cx="9.834" cy="9.834" r="9.834" transform="translate(114.676 165.62)" fill="#f2f2f2"/>
    <circle id="Ellipse_465" data-name="Ellipse 465" cx="6.094" cy="6.094" r="6.094" transform="translate(84.762 282.604)" fill="#f2f2f2"/>
    <rect id="Rectangle_1771" data-name="Rectangle 1771" width="74.784" height="1.068" transform="translate(202.985 11.485)" fill="#f2f2f2"/>
    <rect id="Rectangle_1772" data-name="Rectangle 1772" width="1.068" height="9.882" transform="translate(223.283 1.87)" fill="#f2f2f2"/>
    <rect id="Rectangle_1773" data-name="Rectangle 1773" width="1.068" height="9.882" transform="translate(255.868 1.87)" fill="#f2f2f2"/>
    <rect id="Rectangle_1774" data-name="Rectangle 1774" width="74.784" height="1.068" transform="translate(323.708 270.025)" fill="#f2f2f2"/>
    <rect id="Rectangle_1775" data-name="Rectangle 1775" width="1.068" height="9.882" transform="translate(344.007 260.41)" fill="#f2f2f2"/>
    <rect id="Rectangle_1776" data-name="Rectangle 1776" width="1.068" height="9.882" transform="translate(376.591 260.41)" fill="#f2f2f2"/>
    <rect id="Rectangle_1777" data-name="Rectangle 1777" width="74.784" height="1.068" transform="translate(327.447 107.102)" fill="#f2f2f2"/>
    <rect id="Rectangle_1778" data-name="Rectangle 1778" width="1.068" height="9.882" transform="translate(347.746 97.487)" fill="#f2f2f2"/>
    <rect id="Rectangle_1779" data-name="Rectangle 1779" width="1.068" height="9.882" transform="translate(380.331 97.487)" fill="#f2f2f2"/>
    <rect id="Rectangle_1780" data-name="Rectangle 1780" width="74.784" height="1.068" transform="translate(327.447 68.641)" fill="#f2f2f2"/>
    <rect id="Rectangle_1781" data-name="Rectangle 1781" width="1.068" height="9.882" transform="translate(347.746 59.026)" fill="#f2f2f2"/>
    <rect id="Rectangle_1782" data-name="Rectangle 1782" width="1.068" height="9.882" transform="translate(380.331 59.026)" fill="#f2f2f2"/>
    <rect id="Rectangle_1783" data-name="Rectangle 1783" width="74.784" height="1.068" transform="translate(163.456 73.983)" fill="#f2f2f2"/>
    <rect id="Rectangle_1784" data-name="Rectangle 1784" width="1.068" height="9.882" transform="translate(183.754 64.368)" fill="#f2f2f2"/>
    <rect id="Rectangle_1785" data-name="Rectangle 1785" width="1.068" height="9.882" transform="translate(216.339 64.368)" fill="#f2f2f2"/>
    <rect id="Rectangle_1786" data-name="Rectangle 1786" width="74.784" height="1.068" transform="translate(108.97 48.877)" fill="#f2f2f2"/>
    <rect id="Rectangle_1787" data-name="Rectangle 1787" width="1.068" height="9.882" transform="translate(129.269 39.262)" fill="#f2f2f2"/>
    <rect id="Rectangle_1788" data-name="Rectangle 1788" width="1.068" height="9.882" transform="translate(161.853 39.262)" fill="#f2f2f2"/>
    <rect id="Rectangle_1789" data-name="Rectangle 1789" width="74.784" height="1.068" transform="translate(75.317 147.699)" fill="#f2f2f2"/>
    <rect id="Rectangle_1790" data-name="Rectangle 1790" width="1.068" height="9.882" transform="translate(95.616 138.084)" fill="#f2f2f2"/>
    <rect id="Rectangle_1791" data-name="Rectangle 1791" width="1.068" height="9.882" transform="translate(128.2 138.084)" fill="#f2f2f2"/>
    <rect id="Rectangle_1792" data-name="Rectangle 1792" width="74.784" height="1.068" transform="translate(37.925 256.671)" fill="#f2f2f2"/>
    <rect id="Rectangle_1793" data-name="Rectangle 1793" width="1.068" height="9.882" transform="translate(58.223 247.056)" fill="#f2f2f2"/>
    <rect id="Rectangle_1794" data-name="Rectangle 1794" width="1.068" height="9.882" transform="translate(90.808 247.056)" fill="#f2f2f2"/>
    <rect id="Rectangle_1795" data-name="Rectangle 1795" width="74.784" height="1.068" transform="translate(391.548 211.8)" fill="#f2f2f2"/>
    <rect id="Rectangle_1796" data-name="Rectangle 1796" width="1.068" height="9.882" transform="translate(411.847 202.185)" fill="#f2f2f2"/>
    <rect id="Rectangle_1797" data-name="Rectangle 1797" width="1.068" height="9.882" transform="translate(444.432 202.185)" fill="#f2f2f2"/>
    <rect id="Rectangle_1798" data-name="Rectangle 1798" width="74.784" height="1.068" transform="translate(369.647 143.426)" fill="#f2f2f2"/>
    <rect id="Rectangle_1799" data-name="Rectangle 1799" width="1.068" height="9.882" transform="translate(423.065 144.227)" fill="#f2f2f2"/>
    <rect id="Rectangle_1800" data-name="Rectangle 1800" width="1.068" height="9.882" transform="translate(390.48 144.227)" fill="#f2f2f2"/>
    <rect id="Rectangle_1801" data-name="Rectangle 1801" width="74.784" height="1.068" transform="translate(7.477 63.3)" fill="#f2f2f2"/>
    <rect id="Rectangle_1802" data-name="Rectangle 1802" width="1.068" height="9.882" transform="translate(60.894 64.101)" fill="#f2f2f2"/>
    <rect id="Rectangle_1803" data-name="Rectangle 1803" width="1.068" height="9.882" transform="translate(28.31 64.101)" fill="#f2f2f2"/>
    <rect id="Rectangle_1804" data-name="Rectangle 1804" width="74.784" height="1.068" transform="translate(12.284 203.253)" fill="#f2f2f2"/>
    <rect id="Rectangle_1805" data-name="Rectangle 1805" width="1.068" height="9.882" transform="translate(65.702 204.055)" fill="#f2f2f2"/>
    <rect id="Rectangle_1806" data-name="Rectangle 1806" width="1.068" height="9.882" transform="translate(33.117 204.055)" fill="#f2f2f2"/>
    <rect id="Rectangle_1807" data-name="Rectangle 1807" width="74.784" height="1.068" transform="translate(247.855 28.578)" fill="#f2f2f2"/>
    <rect id="Rectangle_1808" data-name="Rectangle 1808" width="1.068" height="9.882" transform="translate(301.273 29.38)" fill="#f2f2f2"/>
    <rect id="Rectangle_1809" data-name="Rectangle 1809" width="1.068" height="9.882" transform="translate(268.688 29.38)" fill="#f2f2f2"/>
    <rect id="Rectangle_1810" data-name="Rectangle 1810" width="74.784" height="1.068" transform="translate(37.925 102.829)" fill="#f2f2f2"/>
    <rect id="Rectangle_1811" data-name="Rectangle 1811" width="1.068" height="9.882" transform="translate(58.223 93.213)" fill="#f2f2f2"/>
    <rect id="Rectangle_1812" data-name="Rectangle 1812" width="1.068" height="9.882" transform="translate(90.808 93.213)" fill="#f2f2f2"/>
    <path id="Tracé_905" data-name="Tracé 905" d="M370.749,300.408V552h232.9v-251.6ZM487.2,318.57a8.013,8.013,0,1,1,8.013-8.013,8.013,8.013,0,0,1-8.013,8.013Z" transform="translate(-246.02 -207.996)" fill="#3f3d56"/>
    <path id="Tracé_906" data-name="Tracé 906" d="M173.534,707.37c3.693,13.653,16.344,22.108,16.344,22.108s6.662-13.68,2.969-27.332S176.5,680.038,176.5,680.038,169.841,693.718,173.534,707.37Z" transform="translate(-153.633 -384.837)" fill="#3f3d56"/>
    <path id="Tracé_907" data-name="Tracé 907" d="M162.579,716.386c10.134,9.865,11.372,25.031,11.372,25.031s-15.193-.83-25.328-10.7-11.372-25.031-11.372-25.031S152.445,706.52,162.579,716.386Z" transform="translate(-137.252 -396.787)" fill="#6c63ff"/>
    <rect id="Rectangle_1813" data-name="Rectangle 1813" width="485.565" height="1.068" transform="translate(8.812 343.474)" fill="#3f3d56"/>
    <path id="Tracé_908" data-name="Tracé 908" d="M308.751,679.4a11.769,11.769,0,0,0-7.5-10.951,11.752,11.752,0,1,0-8.513,0,11.747,11.747,0,0,0,0,21.9,11.752,11.752,0,1,0,8.514,0,11.769,11.769,0,0,0,7.5-10.951Zm-22.435-21.9a10.683,10.683,0,1,1,13.094,10.4,11.765,11.765,0,0,0-4.821,0A10.7,10.7,0,0,1,286.316,657.495Zm21.367,43.8a10.683,10.683,0,1,1-13.094-10.4,11.764,11.764,0,0,0,4.821,0,10.7,10.7,0,0,1,8.273,10.4Zm-8.273-11.5a11.763,11.763,0,0,0-4.821,0,10.672,10.672,0,0,1,0-20.8,11.765,11.765,0,0,0,4.821,0,10.672,10.672,0,0,1,0,20.8Z" transform="translate(-206.191 -368.86)" fill="#3f3d56"/>
    <path id="Tracé_909" data-name="Tracé 909" d="M538.314,392.386H415.988a3.739,3.739,0,1,1,0-7.478H538.314a3.739,3.739,0,1,1,0,7.478Z" transform="translate(-265.352 -247.358)" fill="#f2f2f2"/>
    <path id="Tracé_910" data-name="Tracé 910" d="M538.314,464.386H415.988a3.739,3.739,0,1,1,0-7.478H538.314a3.739,3.739,0,1,1,0,7.478Z" transform="translate(-265.352 -280.897)" fill="#f2f2f2"/>
    <path id="Tracé_911" data-name="Tracé 911" d="M538.314,536.386H415.988a3.739,3.739,0,1,1,0-7.478H538.314a3.739,3.739,0,0,1,0,7.479Z" transform="translate(-265.352 -314.437)" fill="#f2f2f2"/>
    <path id="Tracé_912" data-name="Tracé 912" d="M538.314,608.386H415.988a3.739,3.739,0,1,1,0-7.478H538.314a3.739,3.739,0,1,1,0,7.478Z" transform="translate(-265.352 -347.976)" fill="#f2f2f2"/>
    <path id="Tracé_913" data-name="Tracé 913" d="M538.314,680.386H415.988a3.739,3.739,0,1,1,0-7.478H538.314a3.739,3.739,0,1,1,0,7.478Z" transform="translate(-265.352 -381.516)" fill="#f2f2f2"/>
    <path id="Tracé_914" data-name="Tracé 914" d="M516.481,392.386H414.988a3.739,3.739,0,1,1,0-7.478H516.481a3.739,3.739,0,1,1,0,7.478Z" transform="translate(-264.886 -247.358)" fill="#6c63ff"/>
    <path id="Tracé_915" data-name="Tracé 915" d="M484.965,464.386H414.988a3.739,3.739,0,1,1,0-7.478h69.977a3.739,3.739,0,1,1,0,7.478Z" transform="translate(-264.886 -280.897)" fill="#6c63ff"/>
    <path id="Tracé_916" data-name="Tracé 916" d="M446.5,536.386H414.988a3.739,3.739,0,1,1,0-7.478H446.5a3.739,3.739,0,0,1,0,7.479Z" transform="translate(-264.886 -314.437)" fill="#6c63ff"/>
    <path id="Tracé_917" data-name="Tracé 917" d="M526.1,608.386H414.988a3.739,3.739,0,1,1,0-7.478H526.1a3.739,3.739,0,1,1,0,7.478Z" transform="translate(-264.886 -347.976)" fill="#6c63ff"/>
    <path id="Tracé_918" data-name="Tracé 918" d="M501.524,680.386H414.988a3.739,3.739,0,1,1,0-7.478h86.536a3.739,3.739,0,1,1,0,7.478Z" transform="translate(-264.886 -381.516)" fill="#6c63ff"/>
    <rect id="Rectangle_1814" data-name="Rectangle 1814" width="1.068" height="7.478" transform="translate(322.64 137.55)" fill="#6c63ff"/>
    <path id="Tracé_919" data-name="Tracé 919" d="M754.522,392.455a4.273,4.273,0,1,1,4.273-4.273,4.273,4.273,0,0,1-4.273,4.273Zm0-7.478a3.205,3.205,0,1,0,3.205,3.205A3.205,3.205,0,0,0,754.522,384.976Z" transform="translate(-422.801 -246.892)" fill="#6c63ff"/>
    <rect id="Rectangle_1815" data-name="Rectangle 1815" width="1.068" height="7.478" transform="translate(322.64 176.011)" fill="#6c63ff"/>
    <path id="Tracé_920" data-name="Tracé 920" d="M754.522,464.455a4.273,4.273,0,1,1,4.273-4.273,4.273,4.273,0,0,1-4.273,4.273Zm0-7.478a3.205,3.205,0,1,0,3.205,3.205,3.205,3.205,0,0,0-3.205-3.205Z" transform="translate(-422.801 -280.431)" fill="#6c63ff"/>
    <rect id="Rectangle_1816" data-name="Rectangle 1816" width="1.068" height="7.478" transform="translate(322.64 214.471)" fill="#6c63ff"/>
    <path id="Tracé_921" data-name="Tracé 921" d="M754.522,536.455a4.273,4.273,0,1,1,4.273-4.273A4.273,4.273,0,0,1,754.522,536.455Zm0-7.478a3.205,3.205,0,1,0,3.205,3.205A3.205,3.205,0,0,0,754.522,528.976Z" transform="translate(-422.801 -313.971)" fill="#6c63ff"/>
    <rect id="Rectangle_1817" data-name="Rectangle 1817" width="1.068" height="7.478" transform="translate(322.64 252.932)" fill="#6c63ff"/>
    <path id="Tracé_922" data-name="Tracé 922" d="M754.522,608.455a4.273,4.273,0,1,1,4.273-4.273A4.273,4.273,0,0,1,754.522,608.455Zm0-7.478a3.205,3.205,0,1,0,3.205,3.205A3.205,3.205,0,0,0,754.522,600.976Z" transform="translate(-422.801 -347.51)" fill="#6c63ff"/>
    <rect id="Rectangle_1818" data-name="Rectangle 1818" width="1.068" height="7.478" transform="translate(322.64 291.392)" fill="#6c63ff"/>
    <path id="Tracé_923" data-name="Tracé 923" d="M754.522,680.455a4.273,4.273,0,1,1,4.273-4.273A4.273,4.273,0,0,1,754.522,680.455Zm0-7.478a3.205,3.205,0,1,0,3.205,3.205,3.205,3.205,0,0,0-3.205-3.205Z" transform="translate(-422.801 -381.05)" fill="#6c63ff"/>
    <circle id="Ellipse_466" data-name="Ellipse 466" cx="2.137" cy="2.137" r="2.137" transform="translate(329.584 139.152)" fill="#6c63ff"/>
    <circle id="Ellipse_467" data-name="Ellipse 467" cx="2.137" cy="2.137" r="2.137" transform="translate(329.584 254.534)" fill="#6c63ff"/>
    <circle id="Ellipse_468" data-name="Ellipse 468" cx="2.137" cy="2.137" r="2.137" transform="translate(329.584 292.995)" fill="#6c63ff"/>
    <circle id="Ellipse_469" data-name="Ellipse 469" cx="3.739" cy="3.739" r="3.739" transform="translate(237.439 98.822)" fill="#3f3d56"/>
    <circle id="Ellipse_470" data-name="Ellipse 470" cx="3.739" cy="3.739" r="3.739" transform="translate(237.439)" fill="#3f3d56"/>
    <rect id="Rectangle_1819" data-name="Rectangle 1819" width="1.068" height="98.822" transform="translate(240.644 3.739)" fill="#3f3d56"/>
    <path id="Tracé_924" data-name="Tracé 924" d="M950.875,506.978v13.234s3.186,21.322,3.186,39.947-5.147,62-5.147,62-10.293,3.676-11.028-1.961-2.7-35.536-2.7-39.947-8.578-37.987-8.578-37.987l-5.392,37.252s1.716,44.114,0,45.339-10.048,3.431-11.028,1.225-6.127-49.505-6.127-49.505-4.166-61.759-1.716-65.435,4.656-6.617,4.656-6.617S942.053,495.95,950.875,506.978Z" transform="translate(-493.294 -301.599)" fill="#2f2e41"/>
    <path id="Tracé_925" data-name="Tracé 925" d="M978.61,724.767l.615,3.995a39.352,39.352,0,0,1,.4,4.113c.1,2.007.43,5.1,1.573,5.589,1.716.735,12.85,10.126,5.008,10.616s-11.766,1.337-14.089-.467c-2.746-2.132.365-1.167-.861-1.167s-2.7,0-3.186-1.961.735-5.392.735-5.392V724.767Z" transform="translate(-524.215 -405.673)" fill="#2f2e41"/>
    <path id="Tracé_926" data-name="Tracé 926" d="M910.357,724.408l-.615,3.995a39.353,39.353,0,0,0-.4,4.113c-.1,2.007-.43,5.1-1.573,5.589-1.715.735-12.85,10.126-5.008,10.616s11.766,1.337,14.089-.467c2.746-2.132-.365-1.167.861-1.167s2.7,0,3.186-1.961-.735-5.392-.735-5.392V724.408Z" transform="translate(-492.555 -405.506)" fill="#2f2e41"/>
    <path id="Tracé_927" data-name="Tracé 927" d="M920.331,312.77s4.166,10.293,7.107,12.009,1.47,9.558,1.47,9.558l-7.352,10.293h-5.882l-7.107-12.254s-.49-8.087-1.961-10.048S920.331,312.77,920.331,312.77Z" transform="translate(-495.59 -213.754)" fill="#ffb9b9"/>
    <path id="Tracé_928" data-name="Tracé 928" d="M920.331,312.77s4.166,10.293,7.107,12.009,1.47,9.558,1.47,9.558l-7.352,10.293h-5.882l-7.107-12.254s-.49-8.087-1.961-10.048S920.331,312.77,920.331,312.77Z" transform="translate(-495.59 -213.754)" opacity="0.1"/>
    <path id="Tracé_929" data-name="Tracé 929" d="M924.408,352.227l11.028,2.451,8.088,81.365s-4.411.735-8.823,6.617-9.8,4.9-12.5,3.431-13.479-5.637-13.724-7.352.49-31.86.49-31.86l-6.862-47.055,3.431-5.147h6.127l4.9,4.166Z" transform="translate(-493.54 -232.134)" fill="#6c63ff"/>
    <circle id="Ellipse_471" data-name="Ellipse 471" cx="12.744" cy="12.744" r="12.744" transform="translate(401.459 86.272)" fill="#ffb9b9"/>
    <path id="Tracé_930" data-name="Tracé 930" d="M943.559,344.427s24.017,2.451,26.223,7.6-1.47,27.939-1.47,27.939,8.823,19.851,8.578,24.508,8.333,36.516-.98,32.84-6.372-13.234-11.028-6.372-6.617,5.882-6.617,5.882-4.656,7.6-6.127,6.862-2.451-6.372.735-9.068,2.7-7.352-3.431-16.175-12.5-55.142-8.823-62.249S943.559,344.427,943.559,344.427Z" transform="translate(-510.976 -228.501)" fill="#575a89"/>
    <path id="Tracé_931" data-name="Tracé 931" d="M848.492,389.135l-4.167,3.921-5.147-3.431,2.206-5.147Z" transform="translate(-390.911 -179.1)" fill="#ffb9b9"/>
    <path id="Tracé_932" data-name="Tracé 932" d="M897.792,352.227s-18.626,6.862-18.626,14.214S890.44,405.9,890.44,405.9s0,8.333-.49,10.293-8.2,19.061-1.47,20.586c4.2.952,7.653,3.454,7.965,6.985.37,4.193-2.839,9.484-2.573,10.416.49,1.716,3.431,4.166,3.186,2.941s1.961-18.871,5.392-26.713-1.47-60.534-2.451-67.4A75.859,75.859,0,0,0,897.792,352.227Z" transform="translate(-482.854 -232.134)" fill="#575a89"/>
    <path id="Tracé_933" data-name="Tracé 933" d="M758.432,388.217l4.411,10.539,3.309-6.74-3.8-8.455Z" transform="translate(-353.297 -178.673)" fill="#ffb9b9"/>
    <path id="Tracé_934" data-name="Tracé 934" d="M936.461,327.551s4.024,1.663,6.474,1.663,12.5,5.147,9.068,8.333-8.578,3.921-11.028,8.578-3.676,5.392-3.676,5.392l-4.363-5.861s6.079-6.883,5.834-9.088A90.348,90.348,0,0,0,936.461,327.551Z" transform="translate(-507.901 -220.639)" fill="#6c63ff"/>
    <path id="Tracé_935" data-name="Tracé 935" d="M902.447,338.582s-3.014,1.162-3.75,3.122-5.392,5.637-3.431,6.617,10.538,4.9,12.254,5.637,4.913-2.086,4.913-2.086-4.3-2.448-4.3-4.164S902.447,338.582,902.447,338.582Z" transform="translate(-490.131 -225.778)" fill="#6c63ff"/>
    <path id="Tracé_936" data-name="Tracé 936" d="M879.73,372.413l-5.882,1.47s-8.088,36.271-5.637,45.339,13.969,36.271,13.969,36.271l7.352-8.578s-3.207-19.505-5.035-20.781-.6-3.972-.6-4.707.735-.245-.98-1.961,6.372-11.273,4.166-13.969S879.73,372.413,879.73,372.413Z" transform="translate(-477.536 -241.538)" fill="#575a89"/>
    <path id="Tracé_937" data-name="Tracé 937" d="M986.391,373.383l-3.554-13.357s9.558,6.862,11.519,16.91,9.558,30.144,4.656,38.967-13.479,34.311-16.42,33.82-10.048-6.617-10.293-7.6,12.744-23.527,10.783-25.243-1.47-6.127,0-7.107,3.186-5.637,1.961-5.392-4.9-2.206-4.166-4.9-3.676-20.831-3.676-20.831Z" transform="translate(-526.236 -235.767)" opacity="0.1"/>
    <path id="Tracé_938" data-name="Tracé 938" d="M983.535,356.814l3.431.98s9.558,6.862,11.519,16.91,9.558,30.144,4.656,38.967-13.479,34.311-16.42,33.82-10.048-6.617-10.293-7.6,12.744-23.527,10.783-25.243-1.47-6.127,0-7.107,3.186-5.637,1.961-5.392-4.9-2.206-4.166-4.9-3.676-20.831-3.676-20.831Z" transform="translate(-528.16 -234.271)" fill="#575a89"/>
    <path id="Tracé_939" data-name="Tracé 939" d="M906.286,284.509l2.39-.869s-5-5-11.951-4.563l1.956-1.956s-4.78-1.738-9.126,2.825a38.823,38.823,0,0,0-6.576,8.395h-2.56l1.068,2.137-3.739,2.137,3.838-.384a10.782,10.782,0,0,0,.363,5.534l.869,2.39s3.477-6.953,3.477-7.823V294.5s2.39-1.956,2.39-3.259l1.3,1.521.652-2.39,8.04,2.39-1.3-1.956,5,.652-1.956-2.39s5.65,2.825,5.867,5.215,3.042,5.432,3.042,5.432l1.3-2.173S912.588,287.768,906.286,284.509Z" transform="translate(-482.194 -196.997)" fill="#2f2e41"/>
    <ellipse id="Ellipse_472" data-name="Ellipse 472" cx="1.87" cy="2.938" rx="1.87" ry="2.938" transform="translate(421.729 94.549)" fill="#ffb9b9"/>
  </g>
</svg>
