<svg xmlns="http://www.w3.org/2000/svg" width="494.377" height="344.643"><g data-name="Groupe 176"><circle data-name="Ellipse 464" cx="9.834" cy="9.834" r="9.834" transform="translate(114.676 165.62)" fill="#f2f2f2"/><circle data-name="Ellipse 465" cx="6.094" cy="6.094" r="6.094" transform="translate(84.762 282.604)" fill="#f2f2f2"/><path data-name="Rectangle 1771" fill="#f2f2f2" d="M202.985 11.485h74.784v1.068h-74.784z"/><path data-name="Rectangle 1772" fill="#f2f2f2" d="M223.283 1.87h1.068v9.882h-1.068z"/><path data-name="Rectangle 1773" fill="#f2f2f2" d="M255.868 1.87h1.068v9.882h-1.068z"/><path data-name="Rectangle 1774" fill="#f2f2f2" d="M323.708 270.025h74.784v1.068h-74.784z"/><path data-name="Rectangle 1775" fill="#f2f2f2" d="M344.007 260.41h1.068v9.882h-1.068z"/><path data-name="Rectangle 1776" fill="#f2f2f2" d="M376.591 260.41h1.068v9.882h-1.068z"/><path data-name="Rectangle 1777" fill="#f2f2f2" d="M327.447 107.102h74.784v1.068h-74.784z"/><path data-name="Rectangle 1778" fill="#f2f2f2" d="M347.746 97.487h1.068v9.882h-1.068z"/><path data-name="Rectangle 1779" fill="#f2f2f2" d="M380.331 97.487h1.068v9.882h-1.068z"/><path data-name="Rectangle 1780" fill="#f2f2f2" d="M327.447 68.641h74.784v1.068h-74.784z"/><path data-name="Rectangle 1781" fill="#f2f2f2" d="M347.746 59.026h1.068v9.882h-1.068z"/><path data-name="Rectangle 1782" fill="#f2f2f2" d="M380.331 59.026h1.068v9.882h-1.068z"/><path data-name="Rectangle 1783" fill="#f2f2f2" d="M163.456 73.983h74.784v1.068h-74.784z"/><path data-name="Rectangle 1784" fill="#f2f2f2" d="M183.754 64.368h1.068v9.882h-1.068z"/><path data-name="Rectangle 1785" fill="#f2f2f2" d="M216.339 64.368h1.068v9.882h-1.068z"/><path data-name="Rectangle 1786" fill="#f2f2f2" d="M108.97 48.877h74.784v1.068H108.97z"/><path data-name="Rectangle 1787" fill="#f2f2f2" d="M129.269 39.262h1.068v9.882h-1.068z"/><path data-name="Rectangle 1788" fill="#f2f2f2" d="M161.853 39.262h1.068v9.882h-1.068z"/><path data-name="Rectangle 1789" fill="#f2f2f2" d="M75.317 147.699h74.784v1.068H75.317z"/><path data-name="Rectangle 1790" fill="#f2f2f2" d="M95.616 138.084h1.068v9.882h-1.068z"/><path data-name="Rectangle 1791" fill="#f2f2f2" d="M128.2 138.084h1.068v9.882H128.2z"/><path data-name="Rectangle 1792" fill="#f2f2f2" d="M37.925 256.671h74.784v1.068H37.925z"/><path data-name="Rectangle 1793" fill="#f2f2f2" d="M58.223 247.056h1.068v9.882h-1.068z"/><path data-name="Rectangle 1794" fill="#f2f2f2" d="M90.808 247.056h1.068v9.882h-1.068z"/><path data-name="Rectangle 1795" fill="#f2f2f2" d="M391.548 211.8h74.784v1.068h-74.784z"/><path data-name="Rectangle 1796" fill="#f2f2f2" d="M411.847 202.185h1.068v9.882h-1.068z"/><path data-name="Rectangle 1797" fill="#f2f2f2" d="M444.432 202.185h1.068v9.882h-1.068z"/><path data-name="Rectangle 1798" fill="#f2f2f2" d="M369.647 143.426h74.784v1.068h-74.784z"/><path data-name="Rectangle 1799" fill="#f2f2f2" d="M423.065 144.227h1.068v9.882h-1.068z"/><path data-name="Rectangle 1800" fill="#f2f2f2" d="M390.48 144.227h1.068v9.882h-1.068z"/><path data-name="Rectangle 1801" fill="#f2f2f2" d="M7.477 63.3h74.784v1.068H7.477z"/><path data-name="Rectangle 1802" fill="#f2f2f2" d="M60.894 64.101h1.068v9.882h-1.068z"/><path data-name="Rectangle 1803" fill="#f2f2f2" d="M28.31 64.101h1.068v9.882H28.31z"/><path data-name="Rectangle 1804" fill="#f2f2f2" d="M12.284 203.253h74.784v1.068H12.284z"/><path data-name="Rectangle 1805" fill="#f2f2f2" d="M65.702 204.055h1.068v9.882h-1.068z"/><path data-name="Rectangle 1806" fill="#f2f2f2" d="M33.117 204.055h1.068v9.882h-1.068z"/><path data-name="Rectangle 1807" fill="#f2f2f2" d="M247.855 28.578h74.784v1.068h-74.784z"/><path data-name="Rectangle 1808" fill="#f2f2f2" d="M301.273 29.38h1.068v9.882h-1.068z"/><path data-name="Rectangle 1809" fill="#f2f2f2" d="M268.688 29.38h1.068v9.882h-1.068z"/><path data-name="Rectangle 1810" fill="#f2f2f2" d="M37.925 102.829h74.784v1.068H37.925z"/><path data-name="Rectangle 1811" fill="#f2f2f2" d="M58.223 93.213h1.068v9.882h-1.068z"/><path data-name="Rectangle 1812" fill="#f2f2f2" d="M90.808 93.213h1.068v9.882h-1.068z"/><path data-name="Tracé 905" d="M124.729 92.412v251.592h232.9v-251.6zm116.451 18.162a8.013 8.013 0 1 1 8.013-8.013 8.013 8.013 0 0 1-8.013 8.013z" fill="#3f3d56"/><path data-name="Tracé 906" d="M19.901 322.533c3.693 13.653 16.344 22.108 16.344 22.108s6.662-13.68 2.969-27.332-16.347-22.108-16.347-22.108-6.659 13.68-2.966 27.332z" fill="#3f3d56"/><path data-name="Tracé 907" d="M25.327 319.599c10.134 9.865 11.372 25.031 11.372 25.031s-15.193-.83-25.328-10.7S-.001 308.899-.001 308.899s15.194.834 25.328 10.7z" fill="#6c63ff"/><path data-name="Rectangle 1813" fill="#3f3d56" d="M8.812 343.474h485.565v1.068H8.812z"/><path data-name="Tracé 908" d="M102.56 310.54a11.769 11.769 0 0 0-7.5-10.951 11.752 11.752 0 1 0-8.513 0 11.747 11.747 0 0 0 0 21.9 11.752 11.752 0 1 0 8.514 0 11.769 11.769 0 0 0 7.5-10.951zm-22.435-21.9a10.683 10.683 0 1 1 13.094 10.4 11.765 11.765 0 0 0-4.821 0 10.7 10.7 0 0 1-8.273-10.405zm21.367 43.8a10.683 10.683 0 1 1-13.094-10.4 11.764 11.764 0 0 0 4.821 0 10.7 10.7 0 0 1 8.273 10.4zm-8.273-11.5a11.763 11.763 0 0 0-4.821 0 10.672 10.672 0 0 1 0-20.8 11.765 11.765 0 0 0 4.821 0 10.672 10.672 0 0 1 0 20.8z" fill="#3f3d56"/><path data-name="Tracé 909" d="M272.962 145.028H150.636a3.739 3.739 0 1 1 0-7.478h122.326a3.739 3.739 0 1 1 0 7.478z" fill="#f2f2f2"/><path data-name="Tracé 910" d="M272.962 183.489H150.636a3.739 3.739 0 1 1 0-7.478h122.326a3.739 3.739 0 1 1 0 7.478z" fill="#f2f2f2"/><path data-name="Tracé 911" d="M272.962 221.949H150.636a3.739 3.739 0 1 1 0-7.478h122.326a3.74 3.74 0 0 1 0 7.479z" fill="#f2f2f2"/><path data-name="Tracé 912" d="M272.962 260.41H150.636a3.739 3.739 0 1 1 0-7.478h122.326a3.739 3.739 0 1 1 0 7.478z" fill="#f2f2f2"/><path data-name="Tracé 913" d="M272.962 298.87H150.636a3.739 3.739 0 1 1 0-7.478h122.326a3.739 3.739 0 1 1 0 7.478z" fill="#f2f2f2"/><path data-name="Tracé 914" d="M251.595 145.028H150.102a3.739 3.739 0 1 1 0-7.478h101.493a3.739 3.739 0 1 1 0 7.478z" fill="#6c63ff"/><path data-name="Tracé 915" d="M220.079 183.489h-69.977a3.739 3.739 0 1 1 0-7.478h69.977a3.739 3.739 0 1 1 0 7.478z" fill="#6c63ff"/><path data-name="Tracé 916" d="M181.614 221.949h-31.512a3.739 3.739 0 1 1 0-7.478h31.512a3.74 3.74 0 0 1 0 7.479z" fill="#6c63ff"/><path data-name="Tracé 917" d="M261.214 260.41H150.102a3.739 3.739 0 1 1 0-7.478h111.112a3.739 3.739 0 1 1 0 7.478z" fill="#6c63ff"/><path data-name="Tracé 918" d="M236.638 298.87h-86.536a3.739 3.739 0 1 1 0-7.478h86.536a3.739 3.739 0 1 1 0 7.478z" fill="#6c63ff"/><path data-name="Rectangle 1814" fill="#6c63ff" d="M322.64 137.55h1.068v7.478h-1.068z"/><path data-name="Tracé 919" d="M331.721 145.563a4.273 4.273 0 1 1 4.273-4.273 4.273 4.273 0 0 1-4.273 4.273zm0-7.478a3.205 3.205 0 1 0 3.205 3.205 3.205 3.205 0 0 0-3.205-3.206z" fill="#6c63ff"/><path data-name="Rectangle 1815" fill="#6c63ff" d="M322.64 176.011h1.068v7.478h-1.068z"/><path data-name="Tracé 920" d="M331.721 184.024a4.273 4.273 0 1 1 4.273-4.273 4.273 4.273 0 0 1-4.273 4.273zm0-7.478a3.205 3.205 0 1 0 3.205 3.205 3.205 3.205 0 0 0-3.205-3.205z" fill="#6c63ff"/><path data-name="Rectangle 1816" fill="#6c63ff" d="M322.64 214.471h1.068v7.478h-1.068z"/><path data-name="Tracé 921" d="M331.721 222.484a4.273 4.273 0 1 1 4.273-4.273 4.273 4.273 0 0 1-4.273 4.273zm0-7.478a3.205 3.205 0 1 0 3.205 3.205 3.205 3.205 0 0 0-3.205-3.206z" fill="#6c63ff"/><path data-name="Rectangle 1817" fill="#6c63ff" d="M322.64 252.932h1.068v7.478h-1.068z"/><path data-name="Tracé 922" d="M331.721 260.945a4.273 4.273 0 1 1 4.273-4.273 4.273 4.273 0 0 1-4.273 4.273zm0-7.478a3.205 3.205 0 1 0 3.205 3.205 3.205 3.205 0 0 0-3.205-3.206z" fill="#6c63ff"/><path data-name="Rectangle 1818" fill="#6c63ff" d="M322.64 291.392h1.068v7.478h-1.068z"/><path data-name="Tracé 923" d="M331.721 299.405a4.273 4.273 0 1 1 4.273-4.273 4.273 4.273 0 0 1-4.273 4.273zm0-7.478a3.205 3.205 0 1 0 3.205 3.205 3.205 3.205 0 0 0-3.205-3.205z" fill="#6c63ff"/><circle data-name="Ellipse 466" cx="2.137" cy="2.137" r="2.137" transform="translate(329.584 139.152)" fill="#6c63ff"/><circle data-name="Ellipse 467" cx="2.137" cy="2.137" r="2.137" transform="translate(329.584 254.534)" fill="#6c63ff"/><circle data-name="Ellipse 468" cx="2.137" cy="2.137" r="2.137" transform="translate(329.584 292.995)" fill="#6c63ff"/><circle data-name="Ellipse 469" cx="3.739" cy="3.739" r="3.739" transform="translate(237.439 98.822)" fill="#3f3d56"/><circle data-name="Ellipse 470" cx="3.739" cy="3.739" r="3.739" transform="translate(237.439)" fill="#3f3d56"/><path data-name="Rectangle 1819" fill="#3f3d56" d="M240.644 3.739h1.068v98.822h-1.068z"/><path data-name="Tracé 924" d="M457.581 205.379v13.234s3.186 21.322 3.186 39.947-5.147 62-5.147 62-10.293 3.676-11.028-1.961-2.7-35.536-2.7-39.947-8.578-37.987-8.578-37.987l-5.392 37.252s1.716 44.114 0 45.339-10.048 3.431-11.028 1.225-6.127-49.505-6.127-49.505-4.166-61.759-1.716-65.435 4.656-6.617 4.656-6.617 35.052-8.573 43.874 2.455z" fill="#2f2e41"/><path data-name="Tracé 925" d="M454.395 319.094l.615 3.995a39.352 39.352 0 0 1 .4 4.113c.1 2.007.43 5.1 1.573 5.589 1.716.735 12.85 10.126 5.008 10.616s-11.766 1.337-14.089-.467c-2.746-2.132.365-1.167-.861-1.167s-2.7 0-3.186-1.961.735-5.392.735-5.392v-15.326z" fill="#2f2e41"/><path data-name="Tracé 926" d="M417.802 318.902l-.615 3.995a39.353 39.353 0 0 0-.4 4.113c-.1 2.007-.43 5.1-1.573 5.589-1.715.735-12.85 10.126-5.008 10.616s11.766 1.337 14.089-.467c2.746-2.132-.365-1.167.861-1.167s2.7 0 3.186-1.961-.735-5.392-.735-5.392v-15.326z" fill="#2f2e41"/><path data-name="Tracé 927" d="M424.741 99.016s4.166 10.293 7.107 12.009 1.47 9.558 1.47 9.558l-7.352 10.293h-5.882l-7.107-12.254s-.49-8.087-1.961-10.048 13.725-9.558 13.725-9.558z" fill="#ffb9b9"/><path data-name="Tracé 928" d="M424.741 99.016s4.166 10.293 7.107 12.009 1.47 9.558 1.47 9.558l-7.352 10.293h-5.882l-7.107-12.254s-.49-8.087-1.961-10.048 13.725-9.558 13.725-9.558z" opacity=".1"/><path data-name="Tracé 929" d="M430.868 120.093l11.028 2.451 8.088 81.365s-4.411.735-8.823 6.617-9.8 4.9-12.5 3.431-13.479-5.637-13.724-7.352.49-31.86.49-31.86l-6.862-47.055 3.431-5.147h6.127l4.9 4.166z" fill="#6c63ff"/><circle data-name="Ellipse 471" cx="12.744" cy="12.744" r="12.744" transform="translate(401.459 86.272)" fill="#ffb9b9"/><path data-name="Tracé 930" d="M432.583 115.926s24.017 2.451 26.223 7.6-1.47 27.939-1.47 27.939 8.823 19.851 8.578 24.508 8.333 36.516-.98 32.84-6.372-13.234-11.028-6.372-6.617 5.882-6.617 5.882-4.656 7.6-6.127 6.862-2.451-6.372.735-9.068 2.7-7.352-3.431-16.175-12.5-55.142-8.823-62.249 2.94-11.767 2.94-11.767z" fill="#575a89"/><path data-name="Tracé 931" d="M457.581 210.035l-4.167 3.921-5.147-3.431 2.206-5.147z" fill="#ffb9b9"/><path data-name="Tracé 932" d="M414.938 120.093s-18.626 6.862-18.626 14.214 11.274 39.459 11.274 39.459 0 8.333-.49 10.293-8.2 19.061-1.47 20.586c4.2.952 7.653 3.454 7.965 6.985.37 4.193-2.839 9.484-2.573 10.416.49 1.716 3.431 4.166 3.186 2.941s1.961-18.871 5.392-26.713-1.47-60.534-2.451-67.4a75.859 75.859 0 0 0-2.207-10.781z" fill="#575a89"/><path data-name="Tracé 933" d="M405.135 209.544l4.411 10.539 3.309-6.74-3.8-8.455z" fill="#ffb9b9"/><path data-name="Tracé 934" d="M428.56 106.912s4.024 1.663 6.474 1.663 12.5 5.147 9.068 8.333-8.578 3.921-11.028 8.578-3.676 5.392-3.676 5.392l-4.363-5.861s6.079-6.883 5.834-9.088a90.348 90.348 0 0 0-2.309-9.017z" fill="#6c63ff"/><path data-name="Tracé 935" d="M412.316 112.804s-3.014 1.162-3.75 3.122-5.392 5.637-3.431 6.617 10.538 4.9 12.254 5.637 4.913-2.086 4.913-2.086-4.3-2.448-4.3-4.164-5.686-9.126-5.686-9.126z" fill="#6c63ff"/><path data-name="Tracé 936" d="M402.194 130.875l-5.882 1.47s-8.088 36.271-5.637 45.339 13.969 36.271 13.969 36.271l7.352-8.578s-3.207-19.505-5.035-20.781-.6-3.972-.6-4.707.735-.245-.98-1.961 6.372-11.273 4.166-13.969-7.353-33.084-7.353-33.084z" fill="#575a89"/><path data-name="Tracé 937" d="M460.155 137.616l-3.554-13.357s9.558 6.862 11.519 16.91 9.558 30.144 4.656 38.967-13.479 34.311-16.42 33.82-10.048-6.617-10.293-7.6 12.744-23.527 10.783-25.243-1.47-6.127 0-7.107 3.186-5.637 1.961-5.392-4.9-2.206-4.166-4.9-3.676-20.831-3.676-20.831z" opacity=".1"/><path data-name="Tracé 938" d="M455.375 122.543l3.431.98s9.558 6.862 11.519 16.91 9.558 30.144 4.656 38.967-13.479 34.311-16.42 33.82-10.048-6.617-10.293-7.6 12.744-23.527 10.783-25.243-1.47-6.127 0-7.107 3.186-5.637 1.961-5.392-4.9-2.206-4.166-4.9-3.676-20.831-3.676-20.831z" fill="#575a89"/><path data-name="Tracé 939" d="M424.092 87.512l2.39-.869s-5-5-11.951-4.563l1.956-1.956s-4.78-1.738-9.126 2.825a38.823 38.823 0 0 0-6.576 8.395h-2.56l1.068 2.137-3.739 2.137 3.838-.384a10.782 10.782 0 0 0 .363 5.534l.869 2.39s3.477-6.953 3.477-7.823v2.168s2.39-1.956 2.39-3.259l1.3 1.521.652-2.39 8.04 2.39-1.3-1.956 5 .652-1.956-2.39s5.65 2.825 5.867 5.215 3.042 5.432 3.042 5.432l1.3-2.173s1.958-9.774-4.344-13.033z" fill="#2f2e41"/><ellipse data-name="Ellipse 472" cx="1.87" cy="2.938" rx="1.87" ry="2.938" transform="translate(421.729 94.549)" fill="#ffb9b9"/></g></svg>