<svg xmlns="http://www.w3.org/2000/svg" xmlns:xlink="http://www.w3.org/1999/xlink" width="382" height="214.818" viewBox="0 0 382 214.818">
  <defs>
    <linearGradient id="linear-gradient" x1="0.5" y1="1" x2="0.5" gradientUnits="objectBoundingBox">
      <stop offset="0" stop-color="gray" stop-opacity="0.251"/>
      <stop offset="0.54" stop-color="gray" stop-opacity="0.122"/>
      <stop offset="1" stop-color="gray" stop-opacity="0.102"/>
    </linearGradient>
    <linearGradient id="linear-gradient-2" x1="-4.28" y1="0.935" x2="-4.28" y2="-0.076" xlink:href="#linear-gradient"/>
    <linearGradient id="linear-gradient-3" x1="0.5" y1="1" x2="0.5" y2="0" xlink:href="#linear-gradient"/>
  </defs>
  <g id="Groupe_14" data-name="Groupe 14" transform="translate(0.02)">
    <path id="Tracé_331" data-name="Tracé 331" d="M272.276,208.2c-23.989.183-47.032-5.238-69.068-11.279S159.315,184.1,135.8,181.326c-15.127-1.79-32.342-1.509-44.235,5.424-11.442,6.665-14.825,17.588-16.5,27.671-1.258,7.587-1.871,15.547,2.556,22.453,3.075,4.79,8.37,8.723,12.1,13.286,12.971,15.88,4.929,36.312-7.933,52.721-6.024,7.686-13.076,15.083-17.666,23.219s-6.5,17.327-1.963,25.291c4.5,7.9,14.761,13.581,25.792,17.442,22.409,7.845,48.537,9.391,73.984,9.889,56.324,1.1,112.795-2.251,169.109-5.6,20.843-1.237,41.777-2.485,62.2-5.814,11.344-1.848,23.029-4.553,31.1-10.374,10.252-7.391,12.435-19.365,5.085-27.915-12.33-14.337-45.089-16.842-53.9-32.386-4.851-8.557-.532-18.432,5.763-26.752,13.54-17.849,36.729-33.9,37.275-53.778.376-13.645-11.527-26.877-29.386-32.691-18.727-6.1-44.337-4.336-57.579,7.33C317.989,202.735,293.464,208.041,272.276,208.2Z" transform="translate(-51.792 -164.118)" fill="#6c63ff" opacity="0.1"/>
    <path id="Tracé_332" data-name="Tracé 332" d="M949.4,681.211s-4.167-2.749-8.3-.8c0,0,1.271,2.451,6.5,2.217Z" transform="translate(-634.472 -494.436)" fill="#6c63ff"/>
    <path id="Tracé_333" data-name="Tracé 333" d="M961.692,684.56s1.268,4.828-1.909,8.113c0,0-1.912-1.99-.017-6.865Z" transform="translate(-646.256 -497.639)" fill="#6c63ff"/>
    <path id="Tracé_334" data-name="Tracé 334" d="M963.731,665s-.308-4.105-9.581-2.746c0,0-.041,2.651,3.214,3.906S962.107,666.354,963.731,665Z" transform="translate(-643.098 -482.712)" fill="#6c63ff"/>
    <path id="Tracé_335" data-name="Tracé 335" d="M978.789,670.81s3.919,1.258.424,9.954c0,0-2.583-.576-3.051-4.038S977.091,672.068,978.789,670.81Z" transform="translate(-657.587 -488.551)" fill="#6c63ff"/>
    <path id="Tracé_336" data-name="Tracé 336" d="M982.105,641.7s.532-6.757-8.943-6.062c0,0-.678,6.1,7.272,7.689Z" transform="translate(-655.655 -465.272)" fill="#6c63ff"/>
    <path id="Tracé_337" data-name="Tracé 337" d="M997.007,619.819s-1.3-7.658-10.767-5.377c0,0-.037,6.621,9.221,7.2Z" transform="translate(-664.309 -451.012)" fill="#6c63ff"/>
    <path id="Tracé_338" data-name="Tracé 338" d="M1009,596.866s-2.177-7.458-11.56-5.228c0,0,2.234,6.709,10.937,6.6Z" transform="translate(-671.712 -435.944)" fill="#6c63ff"/>
    <path id="Tracé_339" data-name="Tracé 339" d="M1022.548,573.731s-2.126-7.74-11.188-5.424c0,0,3.024,7.353,10.588,6.736Z" transform="translate(-680.912 -420.512)" fill="#6c63ff"/>
    <path id="Tracé_340" data-name="Tracé 340" d="M1032.972,548.61s-1.634-9.465-10.082-7.37c0,0,2.451,8.611,9.459,8.747Z" transform="translate(-688.534 -402.707)" fill="#6c63ff"/>
    <path id="Tracé_341" data-name="Tracé 341" d="M1039.88,523.3s-1.96-9.543-10.51-6.78c0,0,3.353,9.018,9.906,8.086Z" transform="translate(-692.817 -386.237)" fill="#6c63ff"/>
    <path id="Tracé_342" data-name="Tracé 342" d="M1046.213,495.122s-3.115-9.54-9.723-9.282c0,0,3.187,10.079,9.153,11.188Z" transform="translate(-697.523 -366.285)" fill="#6c63ff"/>
    <path id="Tracé_343" data-name="Tracé 343" d="M1051.12,468.8s-3.39-11.486-8.77-10.6c0,0,2.349,8.781,8.577,12.391Z" transform="translate(-701.396 -347.984)" fill="#6c63ff"/>
    <path id="Tracé_344" data-name="Tracé 344" d="M1053.475,441.874s-3.177-9.57-8.475-9.954c0,0,2.16,9.418,8.367,12.439Z" transform="translate(-703.148 -330.649)" fill="#6c63ff"/>
    <path id="Tracé_345" data-name="Tracé 345" d="M1057.3,415.9s-3.963-9.581-7.458-9.8c0,0,1.722,9.435,7.119,11.371Z" transform="translate(-706.347 -313.582)" fill="#6c63ff"/>
    <path id="Tracé_346" data-name="Tracé 346" d="M1061.56,388.459s-2.434-10.408-5.94-11.269c0,0,.478,8.513,5.587,12.049Z" transform="translate(-710.168 -294.473)" fill="#6c63ff"/>
    <path id="Tracé_347" data-name="Tracé 347" d="M1066.47,359.707s-2.563-8.292-5.4-9.557c0,0,.563,9.777,4.746,11.588Z" transform="translate(-713.77 -276.6)" fill="#6c63ff"/>
    <path id="Tracé_348" data-name="Tracé 348" d="M1076.109,328.755l.519-14.625s-5.3,11.038-.909,17.205Z" transform="translate(-722.303 -252.792)" fill="#6c63ff"/>
    <path id="Tracé_349" data-name="Tracé 349" d="M1088.326,292.416s3.817-10.679,4.746-11.276c0,0-7.492,6.93-6.76,15.842Z" transform="translate(-730.421 -230.986)" fill="#6c63ff"/>
    <path id="Tracé_350" data-name="Tracé 350" d="M997.346,653.438s6.719-.881,6.516,8.618c0,0-6.072.987-8.052-6.865Z" transform="translate(-670.634 -477.054)" fill="#6c63ff"/>
    <path id="Tracé_351" data-name="Tracé 351" d="M1015.979,630.37s7.767-.024,7.119,9.7c0,0-6.516,1.163-8.669-7.858Z" transform="translate(-682.942 -461.821)" fill="#6c63ff"/>
    <path id="Tracé_352" data-name="Tracé 352" d="M1030.55,608.492s7.048-3.305,11.561,5.228c0,0-6.513,2.753-12.181-3.848Z" transform="translate(-693.187 -446.943)" fill="#6c63ff"/>
    <path id="Tracé_353" data-name="Tracé 353" d="M1043.663,583.924s7.218-3.516,11.455,4.817c0,0-7.516,2.59-12.049-3.5Z" transform="translate(-701.872 -430.634)" fill="#6c63ff"/>
    <path id="Tracé_354" data-name="Tracé 354" d="M1051.729,558.471s6.946-6.638,12.493.075c0,0-7.1,5.458-12.812,1.4Z" transform="translate(-707.385 -412.361)" fill="#6c63ff"/>
    <path id="Tracé_355" data-name="Tracé 355" d="M1058.727,531.131s6.991-6.78,12.489.312c0,0-7.845,5.57-12.737,1.112Z" transform="translate(-712.058 -394.293)" fill="#6c63ff"/>
    <path id="Tracé_356" data-name="Tracé 356" d="M1063.07,499.062s5.384-8.475,11.72-6.58c0,0-5.584,8.974-11.662,8.574Z" transform="translate(-715.092 -370.496)" fill="#6c63ff"/>
    <path id="Tracé_357" data-name="Tracé 357" d="M1067.479,471.79s5.424-10.676,10.554-8.814c0,0-3.909,8.2-10.693,10.615Z" transform="translate(-717.914 -351.032)" fill="#6c63ff"/>
    <path id="Tracé_358" data-name="Tracé 358" d="M1067.8,445.118s5.577-8.4,10.8-7.377c0,0-4.56,8.52-11.34,9.808Z" transform="translate(-717.861 -334.439)" fill="#6c63ff"/>
    <path id="Tracé_359" data-name="Tracé 359" d="M1070.1,415.883s4.322-9.425,7.838-9.492c0,0-2.078,9.36-7.547,11.093Z" transform="translate(-719.739 -313.774)" fill="#6c63ff"/>
    <path id="Tracé_360" data-name="Tracé 360" d="M1072.63,391.177s4.8-9.55,8.414-9.567c0,0-2.458,8.164-8.255,10.4Z" transform="translate(-721.411 -297.395)" fill="#6c63ff"/>
    <path id="Tracé_361" data-name="Tracé 361" d="M1074.76,362.924s3.594-7.9,6.57-8.794c0,0-1.8,9.628-6.173,10.889Z" transform="translate(-722.819 -279.231)" fill="#6c63ff"/>
    <path id="Tracé_362" data-name="Tracé 362" d="M1079.24,332.6l8.031-12.232s-2.058,12.069-9.2,14.578Z" transform="translate(-725.007 -256.916)" fill="#6c63ff"/>
    <path id="Tracé_363" data-name="Tracé 363" d="M1090.2,302.706s9.337-6.441,9.672-7.486c0,0-4.746,9.025-13.561,10.618Z" transform="translate(-730.453 -240.292)" fill="#6c63ff"/>
    <path id="Tracé_364" data-name="Tracé 364" d="M1098.928,288.689s10.716-10.3,13.452-10.289a17.493,17.493,0,0,0-13.71,9.743Z" transform="translate(-738.623 -229.175)" fill="#6c63ff"/>
    <path id="Tracé_365" data-name="Tracé 365" d="M1075.07,332.812l.39.051c2.014-15.764,4.95-25.087,8.269-26.23l-.129-.373C1080.081,307.48,1077.131,316.661,1075.07,332.812Z" transform="translate(-723.024 -247.59)" fill="#444053"/>
    <path id="Tracé_366" data-name="Tracé 366" d="M1066.34,419.988l.59.051c.122-1.471.217-2.98.281-4.478.563-13.045,1.434-25.026,2.583-34.007l-.339-.424c-1.149,9-2.268,21.341-2.831,34.407C1066.564,417.022,1066.462,418.527,1066.34,419.988Z" transform="translate(-717.253 -297.077)" fill="#444053"/>
    <path id="Tracé_367" data-name="Tracé 367" d="M932.5,564.889c.105-.044,10.489-4.682,21.267-15.744a85.573,85.573,0,0,0,15.544-22.036c4.98-10.147,8.018-22.616,9.038-34.729l-.617.288c-2.285,27.189-14.666,45.767-24.508,55.887-10.672,10.96-20.938,15.551-21.039,15.595Z" transform="translate(-628.576 -370.612)" fill="#444053"/>
    <path id="Tracé_368" data-name="Tracé 368" d="M497.606,143.774V319.527c0,5.224-5.041,9.492-11.266,9.492H247.886c-6.224,0-11.266-4.251-11.266-9.492V143.774c0-5.234,5.041-10.574,11.266-10.574l238.441.58C492.551,133.78,497.606,138.556,497.606,143.774Z" transform="translate(-168.823 -133.2)" fill="#fff"/>
    <path id="Tracé_369" data-name="Tracé 369" d="M497.606,143.828v8.136H236.62v-8.136A10.628,10.628,0,0,1,247.258,133.2H486.981A10.628,10.628,0,0,1,497.606,143.828Z" transform="translate(-168.823 -133.2)" fill="#3f3d56"/>
    <circle id="Ellipse_9" data-name="Ellipse 9" cx="3.756" cy="3.756" r="3.756" transform="translate(76.686 5.624)" fill="#fa5959" opacity="0.8"/>
    <circle id="Ellipse_10" data-name="Ellipse 10" cx="3.756" cy="3.756" r="3.756" transform="translate(87.613 5.624)" fill="#fed253" opacity="0.8"/>
    <circle id="Ellipse_11" data-name="Ellipse 11" cx="3.756" cy="3.756" r="3.756" transform="translate(98.539 5.624)" fill="#8ccf4d" opacity="0.8"/>
    <g id="Groupe_3" data-name="Groupe 3" transform="translate(166.675 63.203)" opacity="0.2">
      <path id="Tracé_370" data-name="Tracé 370" d="M583.106,320.772v18.985c0,.566-1.061,1.017-2.373,1.017h-50.08c-1.309,0-2.373-.458-2.373-1.017V320.772c0-.566,1.058-1.142,2.373-1.142h50.08C582.048,319.627,583.106,320.2,583.106,320.772Z" transform="translate(-528.28 -319.63)" fill="#6c63ff"/>
    </g>
    <rect id="Rectangle_736" data-name="Rectangle 736" width="26.091" height="0.922" transform="translate(190.742 69.98)" fill="#6c63ff"/>
    <path id="Tracé_371" data-name="Tracé 371" d="M548.273,333.66a6.187,6.187,0,0,0-3.41,11.347v-.41A1.407,1.407,0,0,1,546.1,343.2a2.455,2.455,0,0,0,4.306,0,1.407,1.407,0,0,1,1.237,1.393v.437a6.187,6.187,0,0,0-3.37-11.374ZM550.7,341.5a2.451,2.451,0,0,1-4.892,0,2.685,2.685,0,0,1,1.407-3.6.833.833,0,0,1-.132-.444.817.817,0,0,1,.82-.817h.058a.817.817,0,0,0-.759.814.827.827,0,0,0,.108.407h.024a.884.884,0,0,1,0-.163.8.8,0,0,1,.156-.475.814.814,0,0,1,.78-.576h.058a.81.81,0,0,0-.624.366.793.793,0,0,1,.451-.136.817.817,0,0,1,.817.817.848.848,0,0,1,0,.092,2.688,2.688,0,0,1,1.993,2.6A2.736,2.736,0,0,1,550.7,341.5Z" transform="translate(-370.733 -265.701)" fill="#6c63ff" opacity="0.2"/>
    <rect id="Rectangle_737" data-name="Rectangle 737" width="26.091" height="0.922" transform="translate(190.742 72.224)" fill="#6c63ff" opacity="0.2"/>
    <rect id="Rectangle_738" data-name="Rectangle 738" width="26.091" height="0.922" transform="translate(190.742 74.469)" fill="#6c63ff" opacity="0.2"/>
    <rect id="Rectangle_739" data-name="Rectangle 739" width="26.091" height="0.922" transform="translate(190.742 76.716)" fill="#6c63ff" opacity="0.2"/>
    <g id="Groupe_4" data-name="Groupe 4" transform="translate(107.886 100.383)" opacity="0.2">
      <path id="Tracé_372" data-name="Tracé 372" d="M409.7,430.443v18.985c0,.563-1.058,1.017-2.373,1.017h-50.08c-1.309,0-2.373-.461-2.373-1.017V430.443c0-.566,1.058-1.142,2.373-1.142H407.33C408.638,429.3,409.7,429.876,409.7,430.443Z" transform="translate(-354.87 -429.3)" fill="#6c63ff"/>
    </g>
    <rect id="Rectangle_740" data-name="Rectangle 740" width="26.091" height="0.922" transform="translate(131.949 107.163)" fill="#6c63ff"/>
    <path id="Tracé_373" data-name="Tracé 373" d="M374.853,443.33a6.187,6.187,0,0,0-3.41,11.35v-.414a1.4,1.4,0,0,1,1.237-1.39,2.454,2.454,0,0,0,4.306,0,1.4,1.4,0,0,1,1.237,1.39v.441a6.187,6.187,0,0,0-3.37-11.377Zm2.424,7.845a2.451,2.451,0,0,1-4.892,0,2.7,2.7,0,0,1,1.407-3.6.81.81,0,0,1-.129-.44.82.82,0,0,1,.817-.82h.061a.817.817,0,0,0-.654,1.22h.027a.82.82,0,0,1,0-.159,1.2,1.2,0,0,1,.936-1.054h.031a.82.82,0,0,0-.624.366.81.81,0,0,1,.448-.136.82.82,0,0,1,.82.82.832.832,0,0,1,0,.091,2.685,2.685,0,0,1,1.749,3.729Z" transform="translate(-256.102 -338.19)" fill="#6c63ff" opacity="0.2"/>
    <rect id="Rectangle_741" data-name="Rectangle 741" width="26.091" height="0.922" transform="translate(131.949 109.408)" fill="#6c63ff" opacity="0.2"/>
    <rect id="Rectangle_742" data-name="Rectangle 742" width="26.091" height="0.922" transform="translate(131.949 111.652)" fill="#6c63ff" opacity="0.2"/>
    <rect id="Rectangle_743" data-name="Rectangle 743" width="26.091" height="0.922" transform="translate(131.949 113.896)" fill="#6c63ff" opacity="0.2"/>
    <g id="Groupe_5" data-name="Groupe 5" transform="translate(94.369 40.177)" opacity="0.2">
      <path id="Tracé_374" data-name="Tracé 374" d="M369.819,252.853v18.985c0,.563-1.058,1.017-2.373,1.017H317.373c-1.305,0-2.373-.461-2.373-1.017V252.853c0-.566,1.061-1.142,2.373-1.142h50.08C368.761,251.71,369.819,252.286,369.819,252.853Z" transform="translate(-315 -251.71)" fill="#6c63ff"/>
    </g>
    <rect id="Rectangle_744" data-name="Rectangle 744" width="26.091" height="0.922" transform="translate(118.426 46.957)" fill="#6c63ff"/>
    <rect id="Rectangle_745" data-name="Rectangle 745" width="26.091" height="0.922" transform="translate(118.426 49.202)" fill="#6c63ff" opacity="0.2"/>
    <rect id="Rectangle_746" data-name="Rectangle 746" width="26.091" height="0.922" transform="translate(118.426 51.446)" fill="#6c63ff" opacity="0.2"/>
    <rect id="Rectangle_747" data-name="Rectangle 747" width="26.091" height="0.922" transform="translate(118.426 53.69)" fill="#6c63ff" opacity="0.2"/>
    <path id="Tracé_375" data-name="Tracé 375" d="M334.988,265.74a6.19,6.19,0,0,0-3.39,11.35v-1.048a1.407,1.407,0,0,1,1.237-1.393,2.455,2.455,0,0,0,4.306,0,1.4,1.4,0,0,1,1.237,1.393v1.071a6.187,6.187,0,0,0-3.39-11.374Zm2.712,7.553a.418.418,0,0,1-.081.105.339.339,0,0,1-.18.061h-.125a2.458,2.458,0,0,1-4.811-.7,2.421,2.421,0,0,1,.322-1.207l-.027-.017a.817.817,0,0,1,.081-1.136,1.635,1.635,0,0,1,.509-.186,2.271,2.271,0,0,0,1.288-.987,2.716,2.716,0,0,1,0,.373.546.546,0,0,1,.776-.027,1.56,1.56,0,0,0,.22.251.679.679,0,0,0,.275.078l.617.078a1.18,1.18,0,0,1,.7.254,1.112,1.112,0,0,1,.234.414,6.185,6.185,0,0,1,.4,1.305,2.092,2.092,0,0,1-.186,1.332Z" transform="translate(-229.77 -220.807)" fill="#6c63ff" opacity="0.2"/>
    <g id="Groupe_6" data-name="Groupe 6" transform="translate(180.358 129.992)" opacity="0.2">
      <path id="Tracé_376" data-name="Tracé 376" d="M623.469,517.778v18.985c0,.566-1.058,1.017-2.373,1.017H571.013c-1.309,0-2.373-.458-2.373-1.017V517.778c0-.566,1.058-1.139,2.373-1.139H621.1C622.412,516.622,623.469,517.2,623.469,517.778Z" transform="translate(-568.64 -516.639)" fill="#6c63ff"/>
    </g>
    <rect id="Rectangle_748" data-name="Rectangle 748" width="26.091" height="0.922" transform="translate(204.425 136.753)" fill="#6c63ff"/>
    <rect id="Rectangle_749" data-name="Rectangle 749" width="26.091" height="0.922" transform="translate(204.425 138.997)" fill="#6c63ff" opacity="0.2"/>
    <rect id="Rectangle_750" data-name="Rectangle 750" width="26.091" height="0.922" transform="translate(204.425 141.245)" fill="#6c63ff" opacity="0.2"/>
    <rect id="Rectangle_751" data-name="Rectangle 751" width="26.091" height="0.922" transform="translate(204.425 143.489)" fill="#6c63ff" opacity="0.2"/>
    <path id="Tracé_377" data-name="Tracé 377" d="M588.633,530.62a6.187,6.187,0,0,0-3.411,11.347v-1.048a1.407,1.407,0,0,1,1.237-1.39,2.455,2.455,0,0,0,4.305,0,1.4,1.4,0,0,1,1.237,1.39v1.075a6.187,6.187,0,0,0-3.37-11.374Zm2.712,7.55a.379.379,0,0,1-.081.109.339.339,0,0,1-.18.061h-.129a2.455,2.455,0,1,1-4.485-1.905h-.027a.817.817,0,0,1,.081-1.136,1.632,1.632,0,0,1,.508-.186,2.268,2.268,0,0,0,1.288-.983,2.706,2.706,0,0,1,0,.373.546.546,0,0,1,.776-.027,1.4,1.4,0,0,0,.22.247.647.647,0,0,0,.275.081l.617.078a1.159,1.159,0,0,1,.7.254,1.111,1.111,0,0,1,.234.414,6.121,6.121,0,0,1,.4,1.305,2.081,2.081,0,0,1-.193,1.315Z" transform="translate(-397.41 -395.888)" fill="#6c63ff" opacity="0.2"/>
    <path id="Tracé_378" data-name="Tracé 378" d="M438.2,587.134l-7.438-10.784s-.139-2.671-.627-3.3-.105-2.01-.105-2.01.522-.763.071-.834-.071-1.77-.071-1.77l-.034-2.712s.417-2.6.071-3.227a1.017,1.017,0,0,1,.034-1.109s.417-1.492,0-1.875-.315-2.712-.21-4.543a6.929,6.929,0,0,0-.729-3.156c0-.278-2.746-2.98-2.746-3.224a6.865,6.865,0,0,0-2.783-1.526c-1.044-.278-1.563-.485-1.529-.624s-1.634-.678-1.634-.678a3.306,3.306,0,0,1-2.017-.831,4.236,4.236,0,0,0-2.305-.946l-.031-.146-.031-.156c.129-.22.251-.448.363-.678.034-.071.064-.139.095-.21a2.976,2.976,0,0,0,1.712-.532,2.322,2.322,0,0,0,.831-1.665,3.672,3.672,0,0,0-.4-1.848,3.141,3.141,0,0,1-.6-1.949c.068-.292.244-.549.339-.834a2.2,2.2,0,0,0-.251-1.644c-.261-.5-.627-.946-.922-1.434a5.566,5.566,0,0,1-.732-2.034,3.133,3.133,0,0,0-.271-1.105,2.117,2.117,0,0,0-.61-.617,6.1,6.1,0,0,0-3.729-1.132,18.092,18.092,0,0,1-2.831.173,10.371,10.371,0,0,1-1.651-.431,4.288,4.288,0,0,0-3.526.18c-1.014.668-1.421,1.98-2.109,3.007a23.761,23.761,0,0,0-1.963,2.631v-.058a3.343,3.343,0,0,0-.258.7,5,5,0,0,0,.153,2.3,1.6,1.6,0,0,0,.563,1.017,3.26,3.26,0,0,0,1.217.241c-.017.064-.034.132-.047.2a7.8,7.8,0,0,0-.173,1.651,7.946,7.946,0,0,0,5.675,7.618v.21a5.552,5.552,0,0,1-.034.6h0s-3.5-.719-4.431-.231-2.783.865-3.051,1.143-.973.071-1.6,1.7-.7,3.3-1.492,4.068-1.217,1.285-1.254,1.841.105.678-.207.865-.766.9-.627,1.18a.983.983,0,0,1-.383,1.041,1.156,1.156,0,0,0-.485,1.041s-.21.763-.695.936-.8,1.319-.8,1.319l-1.576,1.814-3.126-3.458a1.319,1.319,0,0,0-1.858-.095l-1.539,1.366a3.031,3.031,0,0,0-1.536.915,3.983,3.983,0,0,0-.793,1.183l-.841.756a2.129,2.129,0,0,0-.217,2.356l2,2.214v.02a3.5,3.5,0,0,0-1.936.787c-2.987,2.638-3.024,5.065-2.57,6.173s4.241,5.377,4.241,5.377a16.934,16.934,0,0,0,5.377,4.383h0l-.024.024c-.064.068-.125.139-.186.217l-.051.068a.482.482,0,0,0-.047.068l-.058.081-.044.068-.061.1-.037.064-.071.136-.024.044c-.007.014-.058.125-.085.19l-.031.071a.38.38,0,0,1-.054.136l-.031.092a.574.574,0,0,1-.044.136l-.031.1q-.02.071-.041.153a.456.456,0,0,1-.024.092c-.007.031-.037.166-.054.251a.851.851,0,0,0,0,.1,1.532,1.532,0,0,0-.031.18.33.33,0,0,1-.017.125.819.819,0,0,0-.024.173.853.853,0,0,0,0,.132v.658c-.071,4.068.166,4.648.166,4.648a2.251,2.251,0,0,0,1.844,1.383,2.431,2.431,0,0,0,.6-.031c1.807-.315,6.048-1.041,7.543-.763a12.9,12.9,0,0,0,3.746-.305l.312-.061.217.678.678-.19.583.339.37.21c.678,2.326,3.472,1.532,3.472,1.532l.661.383,6.709.173a13.486,13.486,0,0,0,2.373,1.139,2.124,2.124,0,0,0,.339.075,15.046,15.046,0,0,0,1.868.034c.515,0,.912-.034.912-.034s-.068-1.82-.166-3.861a54.722,54.722,0,0,0,6.214-.509c3.583-.631,5.085-3.889,5.628-5.628a15.9,15.9,0,0,1,.339,2.16,15.741,15.741,0,0,0,.556,1.871,6.252,6.252,0,0,0,.766,1.39c2.641-.9,1.041-2.255.485-2.844s.383-1.075.383-1.075.732-.488.678-.939-.105-.936,2.261-.9S438.2,587.134,438.2,587.134ZM401.488,564.99a16.136,16.136,0,0,0,.658,2.9,3.7,3.7,0,0,1,.078,1.142c-1.4-.112-2.858-.173-2.858-.173a.339.339,0,0,1,.075.18l-.22-.051-.322-.078,2.583-3.922Zm-5.112,8.136,2.424.386.2.031a8.655,8.655,0,0,0-.125,1.146c0,.034.054.078.132.129a3.633,3.633,0,0,0-.047.573,6.7,6.7,0,0,0,2.475.953c-.02.068-.037.136-.054.2h0c-1.149-.6-2.956-.885-3.166-1.332s-6.36-2.6-6.36-2.6-.227-.119-.614-.305l1.62.305.444-.044a24.229,24.229,0,0,0,3.068.559Z" transform="translate(-262.07 -393.8)" fill="url(#linear-gradient)"/>
    <path id="Tracé_379" data-name="Tracé 379" d="M447.427,682.517s-.966,5.824-5.858,6.685-21.223.678-21.223.678-9.337-1.356-12.713-9.231-5.55-11.028-2.655-11.164,18.5,5.272,19.4,5.34S448.288,662.844,447.427,682.517Z" transform="translate(-279.213 -487.673)" fill="#65617d"/>
    <path id="Tracé_380" data-name="Tracé 380" d="M447.427,682.517s-.966,5.824-5.858,6.685-21.223.678-21.223.678-9.337-1.356-12.713-9.231-5.55-11.028-2.655-11.164,18.5,5.272,19.4,5.34S448.288,662.844,447.427,682.517Z" transform="translate(-279.213 -487.673)" opacity="0.05"/>
    <path id="Tracé_381" data-name="Tracé 381" d="M403.3,709.814a2.234,2.234,0,0,0,1.821,1.39,2.374,2.374,0,0,0,.59-.034c1.79-.308,5.994-1.017,7.475-.756a12.926,12.926,0,0,0,3.729-.3c.78-.146,1.356-.285,1.356-.285s-1.376-4.583-1.549-4.719-6.214-3.77-6.214-3.77L405.728,701h0a2.512,2.512,0,0,0-1.617.953,5.071,5.071,0,0,0-.966,3.251C403.06,709.242,403.3,709.814,403.3,709.814Z" transform="translate(-278.88 -508.506)" fill="#3f3d56"/>
    <path id="Tracé_382" data-name="Tracé 382" d="M403.307,709.814a2.234,2.234,0,0,0,1.82,1.39,19.559,19.559,0,0,1-1.3-1.892l.024-3.343a5.892,5.892,0,0,1,1.882-4.97h0s-2.516.173-2.583,4.2S403.307,709.814,403.307,709.814Z" transform="translate(-278.891 -508.506)" opacity="0.05"/>
    <path id="Tracé_383" data-name="Tracé 383" d="M459.317,685.105l4.445-3.478,6.994-6.892-1.9-.085c-.285.18-1.078.749-1.109,1.441-.034.841-1.888.058-2.855.539s-5.685,6.523-6.506,6.485-1.482-.42-1.824.166a.332.332,0,0,1-.027.037Z" transform="translate(-314.186 -491.089)" opacity="0.1"/>
    <path id="Tracé_384" data-name="Tracé 384" d="M406,701.959l.481.22c3.39,1.448,7.543,4.478,7.855,5.031a32.287,32.287,0,0,0,4.472,2.9c.78-.146,1.356-.285,1.356-.285s-1.376-4.583-1.549-4.719-6.211-3.77-6.211-3.77L407.627,701h0A2.512,2.512,0,0,0,406,701.959Z" transform="translate(-280.78 -508.506)" opacity="0.1"/>
    <path id="Tracé_385" data-name="Tracé 385" d="M377.93,661.124c.448,1.1,4.2,5.34,4.2,5.34a16.409,16.409,0,0,0,5.763,4.55c3.39,1.448,7.547,4.478,7.855,5.031a38.239,38.239,0,0,0,4.787,3.088l.427.247.939.546.5.285s1.153-.926,2.3-1.858,2.265-1.844,2.282-1.9c.034-.105.481-1.275.376-1.356-.054-.034-.288-.512-.726-1.065a4.885,4.885,0,0,0-1.753-1.451,4.977,4.977,0,0,1-2.275-2.373s-.153-.109-.38-.254a4.61,4.61,0,0,0-1.549-.678c-.759-.095-2.17-1.644-2.17-1.644a4.248,4.248,0,0,1-1.356-1.414c-.363-.756-5.706-4.407-6.2-4.746l12.964,8.3,3.1,1.99,4.445-3.478,6.994-6.892-2.309-.1c-3.39-.149-9.435-.38-10.2-.207a5.761,5.761,0,0,1-1.9.122,6.645,6.645,0,0,1-2.858-.522c-1.136-.6-2.932-.881-3.139-1.326s-6.306-2.583-6.306-2.583-8.3-4.407-11.266-1.79S377.476,660.022,377.93,661.124Z" transform="translate(-262.088 -477.546)" fill="#65617d"/>
    <path id="Tracé_386" data-name="Tracé 386" d="M457.31,580.161l1.068,3.549,1.376,7.994,5.065.339,1.468-2.434,1.461-2.424s.912-3.231,1.57-6.357c.58-2.763.956-5.448.339-5.74-.559-.258-.926-1.19-1.166-2.19-.031-.122-.058-.247-.081-.373a19.5,19.5,0,0,1-.339-2.57s-10.615-.553-9.133,3.824a6.909,6.909,0,0,1,.4,2.326,5.546,5.546,0,0,1-.034.593A4.96,4.96,0,0,1,457.31,580.161Z" transform="translate(-314.695 -421.873)" fill="#ee8e9e"/>
    <path id="Tracé_387" data-name="Tracé 387" d="M450.8,592.791l.38,6.031.861,5.133.966,2.373.861,13s8.306.963,10.326,0a.885.885,0,0,0,.366-.285c2.441-3.685,1.641-14.357,1.641-14.357l.939-6.9-.62-3.577-1.5-.159-1.156-.122s-.261.319-.634.817c-1.017,1.356-2.9,4-2.777,5.109.173,1.515-.207,3.051-.793,3.305s-1.068.658-1.17.244a1.865,1.865,0,0,1-.105-1.1,8.94,8.94,0,0,0-.448-2.373,10.015,10.015,0,0,1-.861-3,3.518,3.518,0,0,0-.38-2.17c-.278-.241-.654-.485-.339-1.587S455,589.93,455,589.93Z" transform="translate(-310.392 -435.09)" fill="#e3e8f4"/>
    <path id="Tracé_388" data-name="Tracé 388" d="M483.141,600.3l.339,10.3,1.99,1.105a.861.861,0,0,0,.366-.288c2.441-3.685,1.641-14.357,1.641-14.357l.929-6.892-.62-3.577-1.5-.159c.58-2.763.959-5.445.339-5.736-.559-.261-.929-1.19-1.166-2.19h0l-1.078,7.285s.092.654.122,1.332a3.773,3.773,0,0,1-.088,1.285,4.285,4.285,0,0,0-.068,1.722,14,14,0,0,0-1.081,5.085C483.063,597.824,483.141,600.3,483.141,600.3Z" transform="translate(-331.76 -427.542)" opacity="0.1"/>
    <path id="Tracé_389" data-name="Tracé 389" d="M485.854,578s1.736.217,2.285.939a3.262,3.262,0,0,0,2,.827,7.9,7.9,0,0,1,1.617.678c-.037.125.485.339,1.519.62a6.833,6.833,0,0,1,2.756,1.519c0,.244,2.712,2.926,2.712,3.2a6.9,6.9,0,0,1,.722,3.136c-.1,1.827-.207,4.133.207,4.512s0,1.861,0,1.861a1.017,1.017,0,0,0-.034,1.1c.339.62-.071,3.2-.071,3.2l.037,2.688s-.38,1.7.068,1.756-.068.827-.068.827-.38,1.38.1,2,.62,3.271.62,3.271l7.374,10.716s.1,1.963-2.241,1.929-2.309.448-2.238.9-.654.932-.654.932-.932.481-.38,1.068,2.136,1.929-.481,2.824a6.234,6.234,0,0,1-.759-1.376,16.054,16.054,0,0,1-.553-1.861s-.241-2.621-.722-2.963-.414-2-.414-2,.678-1.356-.275-1.9-14.954-8.3-14.954-8.3l-.339-10.3s-.241-7.614,1.207-10.171a4.285,4.285,0,0,1,.068-1.722,8.968,8.968,0,0,0-.034-2.621Z" transform="translate(-332.123 -427.205)" fill="#3f3d56"/>
    <path id="Tracé_390" data-name="Tracé 390" d="M438.9,589.439s-3.465-.715-4.407-.234-2.756.861-3.031,1.139-.966.068-1.587,1.7-.678,3.272-1.482,4.031-1.207,1.275-1.241,1.824.105.678-.207.861-.756.9-.62,1.173,7.167,6.34,7.167,6.34a16.076,16.076,0,0,0,.654,2.9c.315.586-.339,8.648-1.034,9.2s4.665.5,4.665.5.244-5.289.451-5.567a54.9,54.9,0,0,0-.139-5.926s-.034-4.824.414-6.1a27.878,27.878,0,0,0,.4-5.512,11.4,11.4,0,0,1,.878-3.136C440.255,592.023,438.9,589.439,438.9,589.439Z" transform="translate(-294.195 -434.501)" opacity="0.1"/>
    <path id="Tracé_391" data-name="Tracé 391" d="M438.6,589.135s-3.465-.712-4.407-.231-2.756.861-3.031,1.136-.966.071-1.583,1.7-.678,3.275-1.482,4.031-1.207,1.275-1.241,1.827.1.678-.207.861-.759.9-.62,1.173,7.167,6.34,7.167,6.34a15.991,15.991,0,0,0,.654,2.892c.315.583-.339,8.648-1.034,9.2s4.651.5,4.651.5.241-5.289.448-5.563a54.92,54.92,0,0,0-.139-5.926s-.034-4.824.414-6.1a27.943,27.943,0,0,0,.4-5.512,11.367,11.367,0,0,1,.875-3.136C439.946,591.725,438.6,589.135,438.6,589.135Z" transform="translate(-294.002 -434.302)" fill="#3f3d56"/>
    <path id="Tracé_392" data-name="Tracé 392" d="M461.8,573.8a6.91,6.91,0,0,1,.4,2.326,7.892,7.892,0,0,0,9.065-3.58,19.5,19.5,0,0,1-.339-2.57S460.322,569.424,461.8,573.8Z" transform="translate(-317.571 -421.887)" opacity="0.1"/>
    <path id="Tracé_393" data-name="Tracé 393" d="M446.64,549.859a7.872,7.872,0,1,0,.169-1.641A7.872,7.872,0,0,0,446.64,549.859Z" transform="translate(-307.642 -403.39)" fill="#ee8e9e"/>
    <path id="Tracé_394" data-name="Tracé 394" d="M418.223,619.11l-1.9.586a.976.976,0,0,1-.38,1.017,1.149,1.149,0,0,0-.481,1.017s-.207.759-.678.932-.79,1.309-.79,1.309l-1.587,1.827s-.586.481-.481.722-.62.309-.62.309l.38,6.136,3.272.617,2.034-.207,1.654-.617,1.448-.865.654-1.7,2.892-4.407Z" transform="translate(-284.29 -454.378)" fill="#3f3d56"/>
    <path id="Tracé_395" data-name="Tracé 395" d="M396.22,636.068s-4.2-6.065-7.34-2.79,1.275,8.577,2.309,8.4,5.963-.448,5.963-.448Z" transform="translate(-268.732 -463.102)" fill="#ee8e9e"/>
    <path id="Tracé_396" data-name="Tracé 396" d="M447.14,548.24a.956.956,0,0,1,.58.261c.264.281.278.78.627.956a.732.732,0,0,0,.41.047c.915-.132,1.444-1.166,2.326-1.451a2.373,2.373,0,0,1,1.543.132,1.173,1.173,0,0,1,.509.339c.295.383.088.942.224,1.4.19.641.953.9,1.617.976a2.806,2.806,0,0,1,1.848.631,1.7,1.7,0,0,1,.339,1.332,1.063,1.063,0,0,0,0,.495c.183.515,1.078.441,1.312.031.17-.295.119-.542.519-.624a1.7,1.7,0,0,1,.844.146,6.14,6.14,0,0,0,2.183.339,7.892,7.892,0,1,0-14.862-5Z" transform="translate(-307.973 -403.412)" opacity="0.1"/>
    <path id="Tracé_397" data-name="Tracé 397" d="M453.361,544.905a1.063,1.063,0,0,1,0-.495,1.7,1.7,0,0,0-.339-1.332,2.831,2.831,0,0,0-1.848-.631c-.661-.085-1.427-.339-1.617-.976-.136-.461.071-1.017-.224-1.4a1.136,1.136,0,0,0-.509-.339,2.373,2.373,0,0,0-1.543-.136c-.881.285-1.41,1.319-2.326,1.451a.736.736,0,0,1-.41-.047c-.339-.176-.363-.678-.627-.956-.42-.444-1.214-.159-1.726-.488a1.57,1.57,0,0,1-.556-1.017,4.939,4.939,0,0,1-.153-2.285c.3-1.281,1.444-2.16,2.176-3.255.678-1.017,1.065-2.309,2.088-2.987a4.171,4.171,0,0,1,3.5-.18,9.787,9.787,0,0,0,1.637.431,18.179,18.179,0,0,0,2.8-.17,6.008,6.008,0,0,1,3.7,1.126,2.035,2.035,0,0,1,.6.61,3.078,3.078,0,0,1,.271,1.1,5.574,5.574,0,0,0,.726,2.014c.292.485.654.926.915,1.427a2.18,2.18,0,0,1,.247,1.631c-.088.285-.261.539-.339.831a3.111,3.111,0,0,0,.593,1.936,3.655,3.655,0,0,1,.4,1.837,2.319,2.319,0,0,1-.827,1.651,2.956,2.956,0,0,1-1.746.529,6.214,6.214,0,0,1-2.227-.339,1.7,1.7,0,0,0-.841-.146c-.4.081-.339.339-.522.624C454.439,545.346,453.544,545.42,453.361,544.905Z" transform="translate(-304.19 -395.171)" fill="#3f3d56"/>
    <path id="Tracé_398" data-name="Tracé 398" d="M458.085,685.682l4.445-3.478,6.994-6.892-2.309-.1a1.505,1.505,0,0,0-.488.939c-.034.844-1.888.061-2.855.542s-5.685,6.523-6.506,6.482-1.481-.417-1.824.166l-.027.041a.98.98,0,0,1-.525.312Z" transform="translate(-313.162 -491.459)" opacity="0.1"/>
    <path id="Tracé_399" data-name="Tracé 399" d="M437.69,680.753l2.234,7.119.339,1.119,1.065-.292,2.346-.644,10.442-2.868a9.059,9.059,0,0,0,3.76-1.017,11.366,11.366,0,0,1,6.489-1.417c1.38.129,2.916-.464,4.19-2.821,0,0,2.892-8.543-4.407-10.988s-7.655,1.3-7.655,1.3l-.1.061c-.285.18-1.078.749-1.109,1.441-.034.841-1.888.058-2.855.539s-5.679,6.55-6.5,6.513-1.482-.42-1.824.166a.344.344,0,0,1-.027.037c-.254.339-1.017.434-1.529.448h-.478l-.064.02-.529.156Z" transform="translate(-301.727 -486.77)" fill="#65617d"/>
    <path id="Tracé_400" data-name="Tracé 400" d="M439.4,655.789l1.075.173.448-4.445s-.492-.075-1.109-.217A23.21,23.21,0,0,1,439.4,655.789Z" transform="translate(-302.857 -475.655)" opacity="0.1"/>
    <path id="Tracé_401" data-name="Tracé 401" d="M467.86,603.07s3.2-.929,2.414,8.167a25.406,25.406,0,0,1-6.719,14.849s-6.824,3-9.889,2.516-5.3-.587-5.3-.587a7.843,7.843,0,0,0-3.1-.827c-1.722-.068-5.34-1.136-5.424-1.482s.9-5.407.485-5.787c0,0,4.824.2,5.306.546s1.17.1,1.7,0a5.893,5.893,0,0,1,5.238-.271,3.137,3.137,0,0,0,1.482-.173,1.485,1.485,0,0,1,1.078-.068,2.964,2.964,0,0,0,.746-.38c.105-.136.932,0,.932,0a.366.366,0,0,0,.515-.241,2.258,2.258,0,0,1,.481-.756s.932-5.238,2.688-7.2a1.126,1.126,0,0,0,.38-1C460.727,609.824,463.724,601.958,467.86,603.07Z" transform="translate(-303.144 -443.705)" opacity="0.1"/>
    <path id="Tracé_402" data-name="Tracé 402" d="M448.85,701.72l4.55,5.509.03-.034c.034-.1.481-1.275.376-1.356a6.327,6.327,0,0,0-2.482-2.516,4.723,4.723,0,0,1-1.946-1.773Z" transform="translate(-309.103 -508.869)" opacity="0.1"/>
    <path id="Tracé_403" data-name="Tracé 403" d="M448.809,718.279l.5.285s1.153-.925,2.3-1.858,2.265-1.844,2.282-1.9c.034-.105.481-1.275.376-1.356-.054-.034-.288-.512-.726-1.064-3.085-.865-1.119,1.278-.858,1.376a3.144,3.144,0,0,0-3.963,3.227A4.881,4.881,0,0,0,448.809,718.279Z" transform="translate(-309.011 -515.899)" opacity="0.1"/>
    <path id="Tracé_404" data-name="Tracé 404" d="M453.261,720.031l.658.38,6.648.173a13.43,13.43,0,0,0,2.353,1.132,2.183,2.183,0,0,0,.339.075,15.513,15.513,0,0,0,1.854.034c.508,0,.9-.034.9-.034s-.315-8.387-.553-9.269c-.112-.424-.678-.339-1.22-.119a7.868,7.868,0,0,0-1.19.6,21.2,21.2,0,0,0-3.275.515c-.451.244-1.722-.139-2.516,0s-2.2-.932-2.2-.932c-3.858-1.275-1.7,1.1-1.414,1.207a3.141,3.141,0,0,0-3.96,3.227C449.477,721.112,453.261,720.031,453.261,720.031Z" transform="translate(-309.649 -515.918)" fill="#3f3d56"/>
    <path id="Tracé_405" data-name="Tracé 405" d="M488.6,716.8c.071,1.736,1.424,3.892,2.234,5.031.509,0,.9-.034.9-.034s-.315-8.387-.553-9.269c-.112-.424-.678-.339-1.22-.119A9.693,9.693,0,0,0,488.6,716.8Z" transform="translate(-335.378 -515.93)" fill="#565387"/>
    <path id="Tracé_406" data-name="Tracé 406" d="M488.6,716.8c.071,1.736,1.424,3.892,2.234,5.031.509,0,.9-.034.9-.034s-.315-8.387-.553-9.269c-.112-.424-.678-.339-1.22-.119A9.693,9.693,0,0,0,488.6,716.8Z" transform="translate(-335.378 -515.93)" opacity="0.1"/>
    <path id="Tracé_407" data-name="Tracé 407" d="M485.041,717.035c.458,1.675.451,3.556,1.18,4.692a2.183,2.183,0,0,0,.339.075,15.5,15.5,0,0,0,1.854.034c.509,0,.9-.034.9-.034s-.315-8.387-.553-9.269c-.112-.424-.678-.339-1.22-.119a7.868,7.868,0,0,0-1.19.6S484.454,714.889,485.041,717.035Z" transform="translate(-332.95 -515.93)" opacity="0.05"/>
    <path id="Tracé_408" data-name="Tracé 408" d="M417.59,676.26a13.755,13.755,0,0,1,6.1,4.878Z" transform="translate(-288.441 -492.153)" opacity="0.1"/>
    <g id="Groupe_7" data-name="Groupe 7" transform="translate(137.232 140.411)" opacity="0.1">
      <path id="Tracé_409" data-name="Tracé 409" d="M496.5,554.3l-.02.075a2.319,2.319,0,0,1-.115.288,2.035,2.035,0,0,1,.136-.363Z" transform="translate(-477.739 -551.951)"/>
      <path id="Tracé_410" data-name="Tracé 410" d="M441.5,548.048a3.1,3.1,0,0,1,.254-.678c-.017.058-.034.119-.047.18a4.943,4.943,0,0,0,.153,2.285,1.57,1.57,0,0,0,.556,1.017c.512.339,1.305.044,1.722.485.268.281.281.783.627.956a.678.678,0,0,0,.414.047c.915-.129,1.444-1.163,2.326-1.448a2.326,2.326,0,0,1,1.539.132,1.136,1.136,0,0,1,.512.339c.295.38.088.943.224,1.4.19.637.953.892,1.614.976a2.828,2.828,0,0,1,1.851.631,1.668,1.668,0,0,1,.339,1.332,1.1,1.1,0,0,0,0,.492c.183.519,1.078.441,1.312.034.169-.3.119-.542.519-.627a1.728,1.728,0,0,1,.844.146,6.207,6.207,0,0,0,2.227.339,3,3,0,0,0,1.746-.529,2.085,2.085,0,0,0,.536-.654,2.2,2.2,0,0,1-.742,1.17,2.956,2.956,0,0,1-1.746.529,6.2,6.2,0,0,1-2.227-.339,1.7,1.7,0,0,0-.844-.146c-.4.081-.339.339-.519.624-.234.41-1.129.485-1.312-.031a1.109,1.109,0,0,1,0-.495,1.668,1.668,0,0,0-.339-1.332,2.84,2.84,0,0,0-1.851-.631c-.664-.085-1.424-.339-1.614-.976-.136-.461.071-1.017-.224-1.4a1.136,1.136,0,0,0-.509-.339,2.373,2.373,0,0,0-1.543-.136c-.881.285-1.41,1.319-2.326,1.451a.747.747,0,0,1-.414-.047c-.339-.176-.359-.678-.627-.956-.417-.444-1.21-.159-1.722-.488a1.57,1.57,0,0,1-.556-1.017A4.939,4.939,0,0,1,441.5,548.048Z" transform="translate(-441.433 -547.37)"/>
    </g>
    <path id="Tracé_411" data-name="Tracé 411" d="M492.96,627.5c-.631.851-1.356,1.641-1.909,2.543a4.824,4.824,0,0,0-.837,3.007,7.988,7.988,0,0,0,1.207-2.156,30.615,30.615,0,0,1,2.315-3.485c.149-.22,1.1-1.5.62-1.559C493.96,625.8,493.187,627.207,492.96,627.5Z" transform="translate(-336.439 -458.83)" opacity="0.1"/>
    <path id="Tracé_412" data-name="Tracé 412" d="M373.244,589.121l6.906,13.059c.207.386-.356,1.088-1.254,1.566l-34.468,18.229c-.9.475-1.8.546-2,.156l-6.906-13.056c-.207-.39.312-1.173,1.21-1.648L371.2,589.2C372.1,588.72,373.041,588.731,373.244,589.121Z" transform="translate(-234.165 -434.366)" fill="#fff"/>
    <g id="Groupe_8" data-name="Groupe 8" transform="translate(101.311 154.468)" opacity="0.2">
      <path id="Tracé_413" data-name="Tracé 413" d="M373.244,589.121l6.906,13.059c.207.386-.356,1.088-1.254,1.566l-34.468,18.229c-.9.475-1.8.546-2,.156l-6.906-13.056c-.207-.39.312-1.173,1.21-1.648L371.2,589.2C372.1,588.72,373.041,588.731,373.244,589.121Z" transform="translate(-335.477 -588.834)" fill="#6c63ff"/>
    </g>
    <rect id="Rectangle_752" data-name="Rectangle 752" width="20.311" height="0.715" transform="matrix(0.884, -0.467, 0.467, 0.884, 119.954, 169.849)" fill="#6c63ff"/>
    <rect id="Rectangle_753" data-name="Rectangle 753" width="20.311" height="0.715" transform="matrix(0.884, -0.467, 0.467, 0.884, 120.772, 171.396)" fill="#6c63ff" opacity="0.2"/>
    <rect id="Rectangle_754" data-name="Rectangle 754" width="20.311" height="0.715" transform="matrix(0.884, -0.467, 0.467, 0.884, 121.588, 172.937)" fill="#6c63ff" opacity="0.2"/>
    <rect id="Rectangle_755" data-name="Rectangle 755" width="20.311" height="0.715" transform="matrix(0.884, -0.467, 0.467, 0.884, 122.406, 174.485)" fill="#6c63ff" opacity="0.2"/>
    <path id="Tracé_414" data-name="Tracé 414" d="M356.527,643.126a4.814,4.814,0,0,0,1.783,9.048l-.38-.719a1.1,1.1,0,0,1,.339-1.41,1.909,1.909,0,0,0,2.963-1.566,1.1,1.1,0,0,1,1.356.509l.39.739a4.814,4.814,0,0,0-6.458-6.6Zm4.621,4.207a.258.258,0,0,1-.017.1.285.285,0,0,1-.1.109l-.085.047a1.912,1.912,0,1,1-3.783.339h-.024a.641.641,0,0,1-.356-.814,1.224,1.224,0,0,1,.281-.312,1.766,1.766,0,0,0,.529-1.146,2.035,2.035,0,0,1,.125.261.427.427,0,0,1,.522-.3,1.427,1.427,0,0,0,.244.092.556.556,0,0,0,.22-.044l.451-.173a.678.678,0,0,1,.888.122,4.917,4.917,0,0,1,.753.749A1.624,1.624,0,0,1,361.148,647.333Z" transform="translate(-246.383 -469.881)" fill="#6c63ff" opacity="0.2"/>
    <path id="Tracé_415" data-name="Tracé 415" d="M404.66,642.993c-.034,4.546,9.374,5.512,9.374,5.512l2.4.38,1.075.173.448-4.445s-.492-.075-1.109-.217c-.909-.214-2.088-.58-2.336-1.1C414.1,642.441,404.694,638.444,404.66,642.993Z" transform="translate(-279.894 -468.752)" fill="#ee8e9e"/>
    <path id="Tracé_416" data-name="Tracé 416" d="M467.6,601.017s3.2-.929,2.414,8.167a25.405,25.405,0,0,1-6.719,14.849s-6.824,3-9.889,2.516-5.306-.586-5.306-.586a7.842,7.842,0,0,0-3.1-.827c-1.722-.068-5.34-1.136-5.424-1.481s.9-5.424.485-5.787c0,0,4.824.2,5.306.546s1.17.1,1.7,0a5.881,5.881,0,0,1,5.238-.271,3.136,3.136,0,0,0,1.482-.173,1.485,1.485,0,0,1,1.078-.068,2.962,2.962,0,0,0,.746-.38c.105-.136.932,0,.932,0a.363.363,0,0,0,.515-.241,2.291,2.291,0,0,1,.481-.759s.932-5.234,2.688-7.2a1.115,1.115,0,0,0,.38-1C460.463,607.77,463.464,599.925,467.6,601.017Z" transform="translate(-302.966 -442.35)" fill="#3f3d56"/>
    <path id="Tracé_417" data-name="Tracé 417" d="M807.839,267.112V286.1c0,.566-1.058,1.017-2.373,1.017H755.373c-1.309,0-2.373-.458-2.373-1.017V267.112c0-.566,1.058-1.142,2.373-1.142h50.1C806.782,265.98,807.839,266.546,807.839,267.112Z" transform="translate(-510.141 -220.959)" fill="#fff"/>
    <g id="Groupe_9" data-name="Groupe 9" transform="translate(237.001 48.466)" opacity="0.1">
      <path id="Tracé_418" data-name="Tracé 418" d="M790.549,277.3v18.985c0,.563-1.061,1.017-2.373,1.017H738.093c-1.309,0-2.373-.461-2.373-1.017V277.3c0-.566,1.058-1.142,2.373-1.142h50.09C789.488,276.16,790.549,276.736,790.549,277.3Z" transform="translate(-735.72 -276.16)" fill="#6c63ff"/>
    </g>
    <path id="Tracé_419" data-name="Tracé 419" d="M807.839,267.112V286.1c0,.566-1.058,1.017-2.373,1.017H755.373c-1.309,0-2.373-.458-2.373-1.017V267.112c0-.566,1.058-1.142,2.373-1.142h50.1C806.782,265.98,807.839,266.546,807.839,267.112Z" transform="translate(-510.141 -220.959)" fill="#fff"/>
    <g id="Groupe_10" data-name="Groupe 10" transform="translate(242.859 45.011)" opacity="0.2">
      <path id="Tracé_420" data-name="Tracé 420" d="M807.839,267.112V286.1c0,.566-1.058,1.017-2.373,1.017H755.373c-1.309,0-2.373-.458-2.373-1.017V267.112c0-.566,1.058-1.142,2.373-1.142h50.1C806.782,265.98,807.839,266.546,807.839,267.112Z" transform="translate(-753 -265.97)" fill="#6c63ff"/>
    </g>
    <rect id="Rectangle_756" data-name="Rectangle 756" width="26.091" height="0.922" transform="translate(266.936 51.792)" fill="#6c63ff"/>
    <rect id="Rectangle_757" data-name="Rectangle 757" width="26.091" height="0.922" transform="translate(266.936 54.036)" fill="#6c63ff" opacity="0.2"/>
    <rect id="Rectangle_758" data-name="Rectangle 758" width="26.091" height="0.922" transform="translate(266.936 56.28)" fill="#6c63ff" opacity="0.2"/>
    <rect id="Rectangle_759" data-name="Rectangle 759" width="26.091" height="0.922" transform="translate(266.936 58.525)" fill="#6c63ff" opacity="0.2"/>
    <path id="Tracé_421" data-name="Tracé 421" d="M773,280a6.187,6.187,0,0,0-3.421,11.35V290.3a1.41,1.41,0,0,1,1.237-1.393,2.455,2.455,0,0,0,4.306,0,1.41,1.41,0,0,1,1.237,1.393v1.075A6.187,6.187,0,0,0,773,280Zm2.712,7.55a.268.268,0,0,1-.261.166.775.775,0,0,1-.125,0,2.454,2.454,0,0,1-4.807-.7,2.428,2.428,0,0,1,.319-1.207l-.027-.017a.82.82,0,0,1,.081-1.136,1.664,1.664,0,0,1,.509-.186,2.255,2.255,0,0,0,1.288-.983,2.292,2.292,0,0,1,0,.373.546.546,0,0,1,.776-.027c.078.078.129.186.224.247a.587.587,0,0,0,.275.078l.614.081a.868.868,0,0,1,.936.678,5.93,5.93,0,0,1,.4,1.305,2.061,2.061,0,0,1-.2,1.329Z" transform="translate(-519.265 -230.232)" fill="#6c63ff" opacity="0.2"/>
    <path id="Tracé_422" data-name="Tracé 422" d="M813.438,446.468c-.468-1.7-.773-3.18-.773-3.18a6.609,6.609,0,0,0-.868-3.224l-.017-.464h0l-.136-3.444a11.608,11.608,0,0,1,.8-1.831c.576-1.1-.193-5.034-.193-5.034s-2.509-5.489-2.085-9.045-5.312-15.524-5.312-15.524a15.6,15.6,0,0,1,.363-3.485,2.773,2.773,0,0,0,.037-.732.758.758,0,0,0,0-.088v.027c-.169-2.329-2.18-6.628-2.18-6.628L803,385.472a24.465,24.465,0,0,0-1.187-11.479c-.759-2.275-1.258-4.1-1.583-5.512-.037-.159-.075-.312-.105-.461,3.929-.753,6.926-1.356,6.926-1.356s-2.658-9.492-4.272-11.12-3.051-6.845-3.051-6.845-1.065-6.743.159-8.77a13.236,13.236,0,0,0,1.271-5.479s2.888-2.275,3.224-3.248a15.85,15.85,0,0,0,.827-4.292,26.911,26.911,0,0,1-.339-2.749c.115-.6-.98-2.844-.526-3.943a2.923,2.923,0,0,0,.159-1.048v-.044a14.618,14.618,0,0,0-.37-2.8,7.981,7.981,0,0,0-3-1.461l-.075-.254-.193-.678c-.1-.061-.2-.115-.3-.163v-.244l-.064-.973.38-2.207c.77-3.841-4.333-4.214-4.333-4.214a2.651,2.651,0,0,0-1.485-1.2c-1.037-.339.047,5.733.542,6.1a23.166,23.166,0,0,1,2.122,3.051h0l.095.149a2.311,2.311,0,0,0-.224.254l.244,1.312.037.2a5.315,5.315,0,0,0-.756,1.41,2.952,2.952,0,0,1,.824,2.129,6.536,6.536,0,0,0,.41,2.624c-.058-.061-.739-.742-1.383-.542s-2.451.814-2.451.814-1.356.292-1.217.586-.865,1.654-.865,1.654l-3.8-3.329c-.041-.1-.081-.2-.119-.309a8.685,8.685,0,0,1-.376-1.509,8.25,8.25,0,0,0,1.156-.417,2.532,2.532,0,0,0,.99-.678,4.151,4.151,0,0,0,.529-1.6,22.251,22.251,0,0,1,1.241-3.082,9.855,9.855,0,0,0,.5-5.445,3.614,3.614,0,0,0-.624-1.57c-.631-.8-1.726-1.1-2.539-1.719s-1.356-1.607-2.3-2.065a4.277,4.277,0,0,0-2.787-.132,14.873,14.873,0,0,0-5.119,2.085,2.623,2.623,0,0,1-1.7.637,2.311,2.311,0,0,1-1.285-.871.3.3,0,0,1,0-.051l-.044-.044a6.472,6.472,0,0,0-.461,2.76,1.9,1.9,0,0,0,.034.437v.153a.81.81,0,0,1,0,.129h0a.781.781,0,0,1-.02.2,1.41,1.41,0,0,1-.339.505,3.054,3.054,0,0,0-.285.42.519.519,0,0,1,.044-.153,2.143,2.143,0,0,0-.339,1.17,1.153,1.153,0,0,0,.305.817,3.982,3.982,0,0,0,.617.458,6.621,6.621,0,0,0-.064,1.22,7.089,7.089,0,0,0,3.682,5.909c.047.1.092.2.139.309a8.775,8.775,0,0,1,.817,3.966,2.076,2.076,0,0,1-.034.292c-.014.095-.088.105-.125.159h0s-6.045.292-7.516-.942-3.471,3.285-3.471,3.285-2.149.505-2.6.1-2.977.054-2.977.054a5.452,5.452,0,0,0-3.828-1.234,11.217,11.217,0,0,0-2.834-1.434h0l-.071-.02h0a3.112,3.112,0,0,0-1.356-.122,27.888,27.888,0,0,1-3.987-3.628c-.919-1.285-5.234-6.018-5.255-6.041l-.024-.234-.075-.712a2.561,2.561,0,0,1-.37.047l-.091-.244a13.054,13.054,0,0,0-.956-1.98s-.034-.9.22-1.136-.244-3.519-.244-3.519-2.919-6.16-5.14-1.39c0,0-4.407,3.2-.478,6.574,0,0,1.549.678,1.787,1.254.156.373.712,1.41,1.085,2.1.061.115.119.217.166.309l-.041.037.078.587.031.227c-.7.434-1.17.858-1.041,1.159a6.55,6.55,0,0,1,.495,1.6s5.519,6.39,6.309,9.184c0,0,14.442,7.848,19.11,8.269l-.61,4.217a33.427,33.427,0,0,0-.054,3.424c.095.9-.366,5-.366,5s-.576,6.024-1.224,6.892-.39,4.455-.39,4.455a30.283,30.283,0,0,1-.732,5.133,13.092,13.092,0,0,0,0,5.1s-2.146,5.485,3.35,1.61c0,0,2.76-.278,5.94-.509v.319c0,.41.02.854.034,1.322.075,3.092.22,7.35.485,10.567.471,5.685,2.638,16.873,2.638,16.873l.217,5.662a7.774,7.774,0,0,0-.1,1.624,10.51,10.51,0,0,0,1.729,5.624l.58,3.756a14.847,14.847,0,0,1,1.19,3.936,2.035,2.035,0,0,1-.031.363,2.508,2.508,0,0,0-.027.58,31.866,31.866,0,0,0,1.2,5.78s.22,4.133.848,4.35c.539.183-.614,2.41-.959,3.051q-.016-.059-.027-.119c-.044.085-.071.129-.071.129a2.945,2.945,0,0,0-.153,1.054,1.5,1.5,0,0,0,.742,1.427c1.2.678,1.858,1.248.871,1.526a10.513,10.513,0,0,0-1.085.275c0-.047-.041-.095-.058-.139a.678.678,0,0,0-.38.739,3.12,3.12,0,0,0,.424,1.39,15.063,15.063,0,0,0,1.8,2.993l.471-.071a2.471,2.471,0,0,1-.254.522,2.01,2.01,0,0,1-.678.648,2.14,2.14,0,0,1-.834.339,2.373,2.373,0,0,0-1.722.922,1.819,1.819,0,0,0,.339,2.834l4.489,1.356s7.655.7,7.184-1-.773-3.18-.773-3.18a6.781,6.781,0,0,0-.736-3.007,3.726,3.726,0,0,0-.285-.437l.268-.041s.41-3.8,1.125-4.546c.166-.17.2-.3.156-.4.068-.21-.129-.339-.383-.38a.541.541,0,0,1-.047.149,3.8,3.8,0,0,0-.742-.054s-.339-1.966.454-2.712a.759.759,0,0,0,.132-.593,3.212,3.212,0,0,0-.115-.8.209.209,0,0,0-.024.047,29.406,29.406,0,0,0-1.96-4.58,5.7,5.7,0,0,1,.339-2.532c.468-.736-.441-9.77-.441-9.77a29.493,29.493,0,0,0-.617-6.4,7.182,7.182,0,0,1,.512-4.461.632.632,0,0,0-.02-.132v-.031s-.037-.268-.1-.678a.221.221,0,0,1,0,.044c-.166-1.153-.485-3.241-.678-4.207-.3-1.356-.244-7.974-.244-7.974l1.017-2.861,2.17,4.78,2.356,6.394a5.525,5.525,0,0,1,1.173,2.712v.2a3.73,3.73,0,0,0,0,.434,3.858,3.858,0,0,0,.729,2.278s.678,3.051,1.573,3.783a3.453,3.453,0,0,1,.956,2.244,37.95,37.95,0,0,0,1.749,5.156,7.782,7.782,0,0,1,.549,3h0v.163s.21,1.58.254,2.912v.441a4.823,4.823,0,0,1-.088,1.081v-.159a11.393,11.393,0,0,0-.21,2.773c.034,1.6.339,3.475,1.356,4.546,1.746,1.854,2.79,1.573,2.79,1.573s-.712,2.427-1.7,2.946a.719.719,0,0,0-.105.071.952.952,0,0,0-.027-.136,1.159,1.159,0,0,0-.258.9,6.47,6.47,0,0,0,1.356,3.509,1.973,1.973,0,0,0,.854.454,1.663,1.663,0,0,1-.149.105,3.206,3.206,0,0,1-.339.173,1.661,1.661,0,0,1-.5.149,2.39,2.39,0,0,0-1.722.922,1.821,1.821,0,0,0,.339,2.834l4.489,1.356S813.922,448.163,813.438,446.468Z" transform="translate(-499.87 -245.017)" fill="url(#linear-gradient-2)"/>
    <path id="Tracé_423" data-name="Tracé 423" d="M865.985,722.419l-4.346-1.356a1.867,1.867,0,0,1-.315-2.838,2.288,2.288,0,0,1,1.665-.919,2.034,2.034,0,0,0,.807-.339,1.9,1.9,0,0,0,.654-.648,3.173,3.173,0,0,0,.427-1.675s4.651-1.559,5.994-.231a3.621,3.621,0,0,1,.6.814,7,7,0,0,1,.715,3.01s.3,1.485.753,3.18S865.985,722.419,865.985,722.419Z" transform="translate(-581.403 -517.018)" fill="#2d293d"/>
    <path id="Tracé_424" data-name="Tracé 424" d="M927.626,713.848l-4.343-1.356a1.858,1.858,0,0,1-.319-2.831,2.264,2.264,0,0,1,1.665-.919,1.7,1.7,0,0,0,.485-.153,2.793,2.793,0,0,0,.339-.173,2.709,2.709,0,0,0,1.081-2.322s4.655-1.559,5.994-.23a3.313,3.313,0,0,1,.475.593,6.793,6.793,0,0,1,.844,3.227s.3,1.492.753,3.183S927.626,713.848,927.626,713.848Z" transform="translate(-622.147 -511.367)" fill="#2d293d"/>
    <path id="Tracé_425" data-name="Tracé 425" d="M877.961,714.453a3.617,3.617,0,0,1,.6.814h0l-7.024,1.088a3.174,3.174,0,0,0,.427-1.675S876.619,713.124,877.961,714.453Z" transform="translate(-588.494 -517.043)" opacity="0.1"/>
    <path id="Tracé_426" data-name="Tracé 426" d="M938.172,706.438l.051,1.322c-1.017,1.851-6.346,1.658-7.923.81a2.8,2.8,0,0,0,.339-.173,2.709,2.709,0,0,0,1.082-2.322s4.655-1.559,5.994-.231A3.313,3.313,0,0,1,938.172,706.438Z" transform="translate(-627.333 -511.354)" opacity="0.1"/>
    <path id="Tracé_427" data-name="Tracé 427" d="M880.646,555.855a11.638,11.638,0,0,0-.77,1.831l.18,4.746c-1.122,2.034-7.38,1.607-8.262.559s-1.888-3.827-.946-4.346,1.627-2.943,1.627-2.943-1.017.278-2.712-1.576-1.376-6.129-1.115-7.16a21.256,21.256,0,0,0-.173-4.438,8.893,8.893,0,0,0-.539-3.16,39.394,39.394,0,0,1-1.7-5.156,3.546,3.546,0,0,0-.925-2.248c-.868-.749-1.526-3.783-1.526-3.783a3.933,3.933,0,0,1-.7-2.553,5.231,5.231,0,0,0-1.139-3.078l-2.288-6.394-2.105-4.784-.966,2.865s-.047,6.6.247,7.974.793,5.011.793,5.011a7.381,7.381,0,0,0-.488,4.461,30.465,30.465,0,0,1,.607,6.4s.885,9.028.434,9.767a5.974,5.974,0,0,0-.339,2.532s2.661,5.18,1.909,5.929-.437,2.712-.437,2.712,1.7-.064.99.678-1.088,4.546-1.088,4.546l-7.214,1.119a15.032,15.032,0,0,1-1.743-3c-1.044-2.183.105-1.983,1.061-2.261s.339-.851-.844-1.529-.57-2.319-.57-2.319,1.624-3,1.017-3.221-.827-4.35-.827-4.35-1.387-4.868-1.139-6.2-1.132-4.458-1.132-4.458l-.563-3.76a10.387,10.387,0,0,1-1.593-7.082l-.21-5.834s-2.112-11.188-2.57-16.89c-.295-3.641-.444-8.618-.512-11.727-.037-1.743-.051-2.9-.051-2.9l25.789-3.692a21.539,21.539,0,0,0,.617,3.828c.319,1.41.8,3.238,1.542,5.512a25.309,25.309,0,0,1,1.163,11.483l.081,8.34s2.492,5.485,2.085,7.424a16.12,16.12,0,0,0-.339,3.5s5.563,11.971,5.16,15.527,2.034,9.048,2.034,9.048S881.205,554.754,880.646,555.855Z" transform="translate(-569.187 -366.494)" fill="#65617d"/>
    <path id="Tracé_428" data-name="Tracé 428" d="M908.13,598.676l7.841-1.356S911.683,602.053,908.13,598.676Z" transform="translate(-612.679 -439.975)" opacity="0.05"/>
    <path id="Tracé_429" data-name="Tracé 429" d="M924.482,574.74s.376,2.777-1.292,3.892C923.2,578.632,926.241,578.035,924.482,574.74Z" transform="translate(-622.634 -425.05)" opacity="0.1"/>
    <path id="Tracé_430" data-name="Tracé 430" d="M906.742,548.63s-6.38,5.679-8.815,5.323S906.742,548.63,906.742,548.63Z" transform="translate(-605.708 -407.792)" opacity="0.1"/>
    <path id="Tracé_431" data-name="Tracé 431" d="M869.79,610s-4.96,1.329-5.031,3.343S869.79,610,869.79,610Z" transform="translate(-584.011 -448.356)" opacity="0.1"/>
    <path id="Tracé_432" data-name="Tracé 432" d="M875.259,683.55s-7.014,1.59-4.98,2.41a34.311,34.311,0,0,0,5.367,1.417S877.927,687.408,875.259,683.55Z" transform="translate(-587.415 -496.972)" opacity="0.05"/>
    <g id="Groupe_11" data-name="Groupe 11" transform="translate(273.133 123.172)" opacity="0.05">
      <path id="Tracé_433" data-name="Tracé 433" d="M865.248,693.05a1.407,1.407,0,0,1-.678-1c-.041.081-.068.129-.068.129s-.6,1.641.57,2.319c.136.078.261.153.38.227.21-.047.434-.085.651-.149C867.031,694.315,866.4,693.728,865.248,693.05Z" transform="translate(-856.875 -625.762)"/>
      <path id="Tracé_434" data-name="Tracé 434" d="M893.128,690.184c.186-.186.163-.648.02-1.234a3.331,3.331,0,0,0-.339,1.749A1.39,1.39,0,0,1,893.128,690.184Z" transform="translate(-875.679 -623.713)"/>
      <path id="Tracé_435" data-name="Tracé 435" d="M886.4,604.75a8.138,8.138,0,0,0-.393,2.224,8.649,8.649,0,0,1,.492-1.536S886.464,605.174,886.4,604.75Z" transform="translate(-871.192 -568.058)"/>
      <path id="Tracé_436" data-name="Tracé 436" d="M934.369,592.348a2.663,2.663,0,0,0,.041-.658c-.071.451-.119.868-.149,1.234C934.294,592.738,934.328,592.544,934.369,592.348Z" transform="translate(-903.084 -559.426)"/>
      <path id="Tracé_437" data-name="Tracé 437" d="M888.789,665.016a3.814,3.814,0,0,0,.125-1.336,4.513,4.513,0,0,0-.278,1.7A1.628,1.628,0,0,1,888.789,665.016Z" transform="translate(-872.926 -607.01)"/>
      <path id="Tracé_438" data-name="Tracé 438" d="M874.8,700.8a23.593,23.593,0,0,0-.678,3.729l-7.214,1.119a15.19,15.19,0,0,1-1.739-2.994c-.092-.193-.166-.366-.227-.522-.427.217-.58.678.041,1.97a15.05,15.05,0,0,0,1.743,2.994l7.214-1.119s.393-3.8,1.085-4.543C875.36,701.051,875.126,700.868,874.8,700.8Z" transform="translate(-857.019 -631.545)"/>
      <path id="Tracé_439" data-name="Tracé 439" d="M850.091,555.377s.22,4.136.827,4.353h0c.278-.695.454-1.356.183-1.448-.61-.217-.827-4.353-.827-4.353s-1.39-4.868-1.139-6.2S848,543.274,848,543.274l-.566-3.76a10.387,10.387,0,0,1-1.593-7.082l-.224-5.814s-2.112-11.188-2.57-16.89c-.295-3.641-.444-8.621-.512-11.727,0-.563-.02-1.061-.031-1.482l-.207.03s0,1.153.054,2.9c.068,3.105.217,8.086.509,11.727.461,5.685,2.573,16.89,2.573,16.89l.224,5.814a10.387,10.387,0,0,0,1.593,7.082l.563,3.76s1.383,3.126,1.132,4.458S850.091,555.377,850.091,555.377Z" transform="translate(-842.3 -496.52)"/>
      <path id="Tracé_440" data-name="Tracé 440" d="M926.833,702.54a7.01,7.01,0,0,1-1.254-2.8c-.715.678.234,3.255,1.071,4.248.881,1.048,7.14,1.468,8.262-.556l-.044-1.142C933.311,703.964,927.667,703.537,926.833,702.54Z" transform="translate(-897.179 -630.845)"/>
      <path id="Tracé_441" data-name="Tracé 441" d="M954.38,686.907a11.635,11.635,0,0,0-.77,1.831l.031.841c.125-.312.305-.729.556-1.224a3.638,3.638,0,0,0,.2-1.5Z" transform="translate(-915.874 -622.331)"/>
      <path id="Tracé_442" data-name="Tracé 442" d="M923.019,673.756a11.324,11.324,0,0,0,.536-1.448s-1.017.278-2.712-1.576c-1.231-1.356-1.4-3.983-1.3-5.712-.261,1.017-.576,5.306,1.115,7.16A4.323,4.323,0,0,0,923.019,673.756Z" transform="translate(-893.22 -607.896)"/>
      <path id="Tracé_443" data-name="Tracé 443" d="M896.64,588.373a32.553,32.553,0,0,1,.258,3.546,4.368,4.368,0,0,1,.1-.559,21.278,21.278,0,0,0-.173-4.434,8.942,8.942,0,0,0-.542-3.163,39.552,39.552,0,0,1-1.7-5.156,3.525,3.525,0,0,0-.929-2.244c-.871-.746-1.526-3.783-1.526-3.783a3.946,3.946,0,0,1-.7-2.556,5.218,5.218,0,0,0-1.139-3.075L888,560.55l-2.105-4.78-.97,2.858v.912l.79-2.322,2.105,4.78,2.285,6.394a5.217,5.217,0,0,1,1.139,3.075,3.926,3.926,0,0,0,.7,2.556s.654,3.051,1.526,3.783a3.489,3.489,0,0,1,.925,2.244,39.413,39.413,0,0,0,1.7,5.156A9.018,9.018,0,0,1,896.64,588.373Z" transform="translate(-870.478 -535.683)"/>
    </g>
    <path id="Tracé_444" data-name="Tracé 444" d="M909.988,315.47l-.366,2.207.064.973.047.719-2.492.339-.3-.509h0a21.013,21.013,0,0,0-2.061-3.051c-.475-.37-1.536-6.424-.532-6.1a2.628,2.628,0,0,1,1.444,1.207S910.734,311.632,909.988,315.47Z" transform="translate(-609.903 -250.084)" fill="#ffcdd3"/>
    <path id="Tracé_445" data-name="Tracé 445" d="M915.6,335.646l-2.492.339-.3-.509h0a2.21,2.21,0,0,1,2.746-.563Z" transform="translate(-615.773 -266.361)" opacity="0.1"/>
    <path id="Tracé_446" data-name="Tracé 446" d="M915.994,337.292l-3.268.892-.088-.488-.237-1.315a2.27,2.27,0,0,1,3.177-.556l.19.678Z" transform="translate(-615.502 -266.844)" fill="#dce6f2"/>
    <path id="Tracé_447" data-name="Tracé 447" d="M749,312.631l-3.448,2.034s-.146-.271-.339-.651c-.363-.678-.9-1.729-1.054-2.1-.23-.573-1.729-1.254-1.729-1.254-3.821-3.39.454-6.574.454-6.574,2.143-4.767,4.973,1.4,4.973,1.4s.488,3.285.241,3.519-.21,1.132-.21,1.132a13.324,13.324,0,0,1,.926,1.983C748.94,312.427,749,312.631,749,312.631Z" transform="translate(-502.108 -244.956)" fill="#ffcdd3"/>
    <path id="Tracé_448" data-name="Tracé 448" d="M757.527,331.833l-3.448,2.034s-.146-.271-.339-.651c.478-.434,2.187-1.932,2.766-1.888a4.468,4.468,0,0,0,.834,0C757.462,331.63,757.527,331.833,757.527,331.833Z" transform="translate(-510.63 -264.159)" opacity="0.1"/>
    <path id="Tracé_449" data-name="Tracé 449" d="M758.152,333.236l-3.882,2.1-.112-.848-.078-.587s2.217-2.051,2.9-2A3.667,3.667,0,0,0,758,331.86l.075.709Z" transform="translate(-510.855 -264.511)" fill="#dce6f2"/>
    <path id="Tracé_450" data-name="Tracé 450" d="M867.114,344.194s-17.175,2.61-13.991,1.441a4.335,4.335,0,0,0,3.18-3.868,9.059,9.059,0,0,0-.8-3.97,17.319,17.319,0,0,0-1.661-3.051s12.906-7.76,10.51-1.065a10.486,10.486,0,0,0-.627,3.153,8.813,8.813,0,0,0,.461,3.149A9.425,9.425,0,0,0,867.114,344.194Z" transform="translate(-576.06 -263.915)" fill="#ffcdd3"/>
    <path id="Tracé_451" data-name="Tracé 451" d="M866.543,333.7a10.49,10.49,0,0,0-.627,3.153c-1.2,1.092-2.566,1.075-4.316,1.143-1.356.051-2.821.434-3.919-.173a17.323,17.323,0,0,0-1.661-3.051S868.926,327,866.543,333.7Z" transform="translate(-578.236 -263.927)" opacity="0.1"/>
    <circle id="Ellipse_12" data-name="Ellipse 12" cx="7.14" cy="7.14" r="7.14" transform="translate(275.737 60.26)" fill="#ffcdd3"/>
    <path id="Tracé_452" data-name="Tracé 452" d="M867.114,360.516s-17.175,2.61-13.991,1.441a4.335,4.335,0,0,0,3.18-3.868,9.526,9.526,0,0,1,3.617-2.1,5.149,5.149,0,0,1,3.122-.169,4.349,4.349,0,0,1,1.159.481,9.425,9.425,0,0,0,2.912,4.217Z" transform="translate(-576.06 -280.237)" opacity="0.1"/>
    <path id="Tracé_453" data-name="Tracé 453" d="M916.456,339.266l-3.268.892-.088-.488a2.922,2.922,0,0,1,3.129-1.207Z" transform="translate(-615.964 -268.818)" opacity="0.1"/>
    <path id="Tracé_454" data-name="Tracé 454" d="M758.3,334.651l-3.882,2.1-.112-.848A28.731,28.731,0,0,1,758.236,334Z" transform="translate(-511.007 -265.925)" opacity="0.1"/>
    <path id="Tracé_455" data-name="Tracé 455" d="M868.716,490.018c-6.638,1.312-16.093,3.051-17.629,2.648-1.268-.339-5.262-.139-8.737.115-.037-1.743-.051-2.9-.051-2.9l25.789-3.692A21.532,21.532,0,0,0,868.716,490.018Z" transform="translate(-569.167 -366.52)" opacity="0.1"/>
    <path id="Tracé_456" data-name="Tracé 456" d="M815.249,388.028s-21.853,4.621-24.243,3.994-14.479.617-14.479.617c-5.312,3.865-3.244-1.617-3.244-1.617a13.235,13.235,0,0,1,0-5.1,31.343,31.343,0,0,0,.7-5.129s-.258-3.59.37-4.455,1.176-6.889,1.176-6.889.441-4.1.339-5a32.629,32.629,0,0,1,.051-3.421l.61-4.224c-4.519-.427-18.507-8.292-18.507-8.292-.77-2.79-6.1-9.187-6.1-9.187a6.881,6.881,0,0,0-.481-1.6c-.4-.946,4.926-3.072,4.926-3.072s4.2,4.746,5.085,6.048a26.045,26.045,0,0,0,3.861,3.634,2.881,2.881,0,0,1,1.326.119l.068.02h0a10.733,10.733,0,0,1,2.743,1.437,5.207,5.207,0,0,1,3.709,1.237s2.444-.454,2.878-.051,2.519-.095,2.519-.095,1.926-4.519,3.353-3.282,7.279.949,7.279.949c.739-1.065,2.607-1.882,3.78-2.309a5.15,5.15,0,0,1,3.122-.173,4.008,4.008,0,0,1,1.258.549l3.682,3.339s.97-1.356.837-1.654,1.18-.583,1.18-.583,1.715-.607,2.373-.814,1.281.488,1.339.546a6.935,6.935,0,0,1-.4-2.624,3.1,3.1,0,0,0-.8-2.129c1.9-5.234,6.8-1.1,6.8-1.1s.651,2.8.21,3.9.61,3.336.512,3.939.3,1.61.339,2.749a16.625,16.625,0,0,1-.793,4.292c-.322.973-3.119,3.241-3.119,3.241a13.543,13.543,0,0,1-1.231,5.451c-1.183,2.027-.142,8.77-.142,8.77s1.4,5.228,2.966,6.848S815.249,388.028,815.249,388.028Z" transform="translate(-509.095 -266.355)" fill="#3f3d56"/>
    <path id="Tracé_457" data-name="Tracé 457" d="M834.542,372.433s-.736-1.953-1.356-2.109a14.39,14.39,0,0,1-1.766-.712l.339-.753s2.275.529,2.661,1.176A5.275,5.275,0,0,1,834.542,372.433Z" transform="translate(-561.975 -288.967)" opacity="0.1"/>
    <path id="Tracé_458" data-name="Tracé 458" d="M794.024,365.024c-.1.6-5.424,1.356-5.424,1.356l2.594-2.81h0l.068.02h0A10.733,10.733,0,0,1,794.024,365.024Z" transform="translate(-533.672 -285.471)" opacity="0.1"/>
    <circle id="Ellipse_13" data-name="Ellipse 13" cx="0.481" cy="0.481" r="0.481" transform="translate(244.12 71.438)" fill="#575988"/>
    <circle id="Ellipse_14" data-name="Ellipse 14" cx="0.481" cy="0.481" r="0.481" transform="translate(244.771 72.373)" fill="#575988"/>
    <circle id="Ellipse_15" data-name="Ellipse 15" cx="0.481" cy="0.481" r="0.481" transform="translate(245.405 73.235)" fill="#575988"/>
    <circle id="Ellipse_16" data-name="Ellipse 16" cx="0.481" cy="0.481" r="0.481" transform="translate(246.069 74.17)" fill="#575988"/>
    <circle id="Ellipse_17" data-name="Ellipse 17" cx="0.39" cy="0.39" r="0.39" transform="translate(302.662 72.034)" fill="#575988"/>
    <circle id="Ellipse_18" data-name="Ellipse 18" cx="0.39" cy="0.39" r="0.39" transform="translate(302.757 72.916)" fill="#575988"/>
    <circle id="Ellipse_19" data-name="Ellipse 19" cx="0.39" cy="0.39" r="0.39" transform="translate(302.841 73.797)" fill="#575988"/>
    <path id="Tracé_459" data-name="Tracé 459" d="M842.56,427.31c-.058-.068,14.11,16.476,24.223,6.211C866.779,433.52,850.293,436.405,842.56,427.31Z" transform="translate(-569.338 -327.601)" opacity="0.1"/>
    <path id="Tracé_460" data-name="Tracé 460" d="M820.67,454.359s8.1-.092,9.031,2.2l.092,2.421a1.543,1.543,0,0,1-1.505.058c-.831-.407-5.814-2.712-7.492-1.441Z" transform="translate(-554.87 -345.48)" opacity="0.1"/>
    <path id="Tracé_461" data-name="Tracé 461" d="M821.12,454.339s7.74-.088,8.635,2.1l.088,2.309a1.485,1.485,0,0,1-1.441.054c-.793-.39-5.56-2.577-7.163-1.373Z" transform="translate(-555.167 -345.467)" fill="#656691"/>
    <path id="Tracé_462" data-name="Tracé 462" d="M831.7,402.07a26.007,26.007,0,0,0,3.343,5.258,21.1,21.1,0,0,0,5.085,4.55S831.876,403.175,831.7,402.07Z" transform="translate(-562.16 -310.918)" opacity="0.1"/>
    <path id="Tracé_463" data-name="Tracé 463" d="M822.83,374.66s1.573,5.763,5.126,7.614Z" transform="translate(-556.297 -292.801)" opacity="0.1"/>
    <path id="Tracé_464" data-name="Tracé 464" d="M816.631,376.626c-.041-.108-1.017,4.651,4.746,7.038C821.387,383.664,818.943,382.939,816.631,376.626Z" transform="translate(-552.143 -294.099)" opacity="0.1"/>
    <path id="Tracé_465" data-name="Tracé 465" d="M920.486,361.082a39.342,39.342,0,0,1,3.692,2.56S922.192,360.9,920.486,361.082Z" transform="translate(-620.845 -283.82)" opacity="0.1"/>
    <path id="Tracé_466" data-name="Tracé 466" d="M853.785,319.577a1.122,1.122,0,0,0,1.271,1.068,14.511,14.511,0,0,0,6.441-.854,2.427,2.427,0,0,0,.953-.678,4.056,4.056,0,0,0,.512-1.6,23.291,23.291,0,0,1,1.2-3.078,10.194,10.194,0,0,0,.481-5.468,3.641,3.641,0,0,0-.6-1.57c-.61-.8-1.675-1.1-2.461-1.722s-1.319-1.61-2.227-2.068a4.074,4.074,0,0,0-2.712-.136,14.158,14.158,0,0,0-4.95,2.082,2.5,2.5,0,0,1-1.658.634,2.31,2.31,0,0,1-1.271-.9,6.647,6.647,0,0,0-.414,3.129,1.356,1.356,0,0,1,0,.468,1.439,1.439,0,0,1-.315.505,1.813,1.813,0,0,0-.254,2.251c.241.268.6.4.837.678.42.485.312,1.21.339,1.851a.939.939,0,0,0,.183.627.926.926,0,0,0,.888.176,2.4,2.4,0,0,1,.932-.125,1.553,1.553,0,0,1,.841.6A10.9,10.9,0,0,1,853.785,319.577Z" transform="translate(-572.59 -245.637)" fill="#2d293d"/>
    <g id="Groupe_12" data-name="Groupe 12" transform="translate(274.894 59.569)" opacity="0.1">
      <path id="Tracé_467" data-name="Tracé 467" d="M862.667,330.873a2.43,2.43,0,0,1-.956.678,14.363,14.363,0,0,1-6.424.854,1.122,1.122,0,0,1-1.275-1.065,11.081,11.081,0,0,0-1.98-4.15,1.559,1.559,0,0,0-.837-.6,2.478,2.478,0,0,0-.936.125.926.926,0,0,1-.888-.176.96.96,0,0,1-.183-.627,2.688,2.688,0,0,0-.339-1.851c-.234-.271-.6-.407-.837-.678a1.41,1.41,0,0,1-.193-1.427,1.645,1.645,0,0,0-.027,1.915c.241.264.6.4.837.678.42.485.315,1.21.339,1.854a.935.935,0,0,0,.183.624.915.915,0,0,0,.888.176,2.468,2.468,0,0,1,.936-.125,1.576,1.576,0,0,1,.837.6,11.159,11.159,0,0,1,1.98,4.15,1.509,1.509,0,0,0,.593.942,1.529,1.529,0,0,0,.678.125,14.511,14.511,0,0,0,6.441-.858,2.458,2.458,0,0,0,.956-.678,1.94,1.94,0,0,0,.285-.59.988.988,0,0,1-.078.1Z" transform="translate(-847.494 -317.536)"/>
      <path id="Tracé_468" data-name="Tracé 468" d="M850.021,312.388a1.016,1.016,0,0,0,.2-.37,1.277,1.277,0,0,0,0-.468,6.643,6.643,0,0,1,.237-2.594l-.044-.047a6.658,6.658,0,0,0-.414,3.129A2.018,2.018,0,0,1,850.021,312.388Z" transform="translate(-849.128 -308.91)"/>
    </g>
    <path id="Tracé_469" data-name="Tracé 469" d="M862.82,363.162s8.957.841,9.706-.532" transform="translate(-582.73 -284.849)" opacity="0.1"/>
    <path id="Tracé_470" data-name="Tracé 470" d="M913.5,351.35s4.95-.183,6.1,1.631" transform="translate(-616.229 -277.39)" opacity="0.1"/>
    <path id="Tracé_471" data-name="Tracé 471" d="M91.409,303.022v18.985c0,.566-1.061,1.017-2.373,1.017H38.953c-1.309,0-2.373-.458-2.373-1.017V303.022c0-.566,1.058-1.142,2.373-1.142h50.09C90.348,301.88,91.409,302.456,91.409,303.022Z" transform="translate(-36.6 -244.695)" fill="#fff"/>
    <g id="Groupe_13" data-name="Groupe 13" transform="translate(-0.02 57.185)" opacity="0.2">
      <path id="Tracé_472" data-name="Tracé 472" d="M91.409,303.022v18.985c0,.566-1.061,1.017-2.373,1.017H38.953c-1.309,0-2.373-.458-2.373-1.017V303.022c0-.566,1.058-1.142,2.373-1.142h50.09C90.348,301.88,91.409,302.456,91.409,303.022Z" transform="translate(-36.58 -301.88)" fill="#6c63ff"/>
    </g>
    <rect id="Rectangle_760" data-name="Rectangle 760" width="26.091" height="0.922" transform="translate(24.047 63.966)" fill="#6c63ff"/>
    <path id="Tracé_473" data-name="Tracé 473" d="M56.573,315.92a6.187,6.187,0,0,0-3.411,11.347v-.414a1.4,1.4,0,0,1,1.237-1.39,2.454,2.454,0,0,0,4.306,0,1.4,1.4,0,0,1,1.237,1.39v.441a6.187,6.187,0,0,0-3.37-11.374ZM59,323.761a2.451,2.451,0,0,1-4.889,0,2.685,2.685,0,0,1,1.407-3.6.787.787,0,0,1-.132-.441.817.817,0,0,1,.82-.817h.058a.817.817,0,0,0-.759.817.783.783,0,0,0,.108.4h.024a.82.82,0,0,1,0-.159,1.2,1.2,0,0,1,.936-1.051h.058a.82.82,0,0,0-.624.366.817.817,0,0,1,1.268.678.832.832,0,0,1,0,.092,2.685,2.685,0,0,1,1.749,3.712Z" transform="translate(-45.728 -253.975)" fill="#6c63ff" opacity="0.2"/>
    <rect id="Rectangle_761" data-name="Rectangle 761" width="26.091" height="0.922" transform="translate(24.047 66.21)" fill="#6c63ff" opacity="0.2"/>
    <rect id="Rectangle_762" data-name="Rectangle 762" width="26.091" height="0.922" transform="translate(24.047 68.454)" fill="#6c63ff" opacity="0.2"/>
    <rect id="Rectangle_763" data-name="Rectangle 763" width="26.091" height="0.922" transform="translate(24.047 70.699)" fill="#6c63ff" opacity="0.2"/>
    <path id="Tracé_474" data-name="Tracé 474" d="M164.305,386.086a20.511,20.511,0,0,1-.339-3.122c0-1.254-1.7-2.373-1.7-2.373s-1.054-2.441-1.746-2.8-2.871-3.553-2.871-3.553a2.9,2.9,0,0,0-.654-1.722,24.675,24.675,0,0,1-1.776-2.682h0c-.292-.359-.146-.61-.583-2.692q-.037-.163-.081-.315a.467.467,0,0,0-.044-.132,3.519,3.519,0,0,0,.827-3.641,1.5,1.5,0,0,0-.417-.644c-.495-.4-1.285-.237-1.793-.62l.539-2.393c.132-.583.2-1.329-.315-1.644a2.583,2.583,0,0,0-.6-.2,2.79,2.79,0,0,1-1.614-2.112,7.241,7.241,0,0,1-.176-2.644c.1-.848.339-1.675.441-2.526a6.974,6.974,0,0,0-1.075-4.5,3.505,3.505,0,0,0-1.421-1.339,12.875,12.875,0,0,1-1.7-.6c-1.092-.678-1.037-2.336-1.905-3.288s-2.41-.942-3.678-.617a10.885,10.885,0,0,1-3.828.739c-.837-.092-1.624-.471-2.461-.559a2.461,2.461,0,0,0-.722.034l.017-.031a1.56,1.56,0,0,0-1.339,1.048,1.617,1.617,0,0,0-.041.427c0,.339.081.7.088,1.017a.99.99,0,0,1-.237.722c-.166.18-.414.275-.576.458a.746.746,0,0,0-.214.539c0,.522.651.98,1.088,1.19h0c-.119.119-.234.241-.339.366a7.7,7.7,0,0,0-1.909,5.129,7.814,7.814,0,0,0,4.746,7.157c-.02.064-.037.125-.061.19a10.075,10.075,0,0,1-.427,1.109,2.2,2.2,0,0,0-1.841.2,4.727,4.727,0,0,1-2.909.431,40.3,40.3,0,0,0-5.343-.539c-.363.139-1.092-.5-1.563.359s-.678,1.329-1.163,1.543-1.309.9-1.2,1.041-1.2,1.017-1.2,1.017a5.789,5.789,0,0,1-1.78,1.329,9.908,9.908,0,0,0-2.034,1.041l-1.6,1.254s-1.2.18-.837-.644-.654-1.868-.654-1.868-2.034-4.126-2.034-4.984-1.671-4.485-1.671-4.485l-.207-.02c-.031-.088-.061-.176-.095-.268a25.309,25.309,0,0,0-1.017-2.546c-.576-1.183-.949-1.319-.949-1.319s-7.052-5.3-11.632-3.682,8.36,6.421,9.523,6.926a2.193,2.193,0,0,1,.905,1.4,6.024,6.024,0,0,0-2.492,2.268s2.8,6.2,2.868,7.747,1.929,5.848,1.929,5.848a4.073,4.073,0,0,0,4.434,3.014s5.16.946,6.285,0a8.911,8.911,0,0,1,2.692-1.8,2.119,2.119,0,0,0,1.017-.719s-1.7,10.76-2.543,11.7-8.252,13.022-5.6,15.171a53.156,53.156,0,0,0,6.652,4.407c.227.112.9-1.017,1.868-1.814v.62c.017,4.3.576,10.849,1.373,12.313,1.163,2.153.678,6.316.678,6.316a5.017,5.017,0,0,0,1.966.471c.034.139.075.285.115.437a58.773,58.773,0,0,0,2.207,7.16c.8,1.509,1.383,6.279,1.383,6.279a44.2,44.2,0,0,1,.292,5.346,31.222,31.222,0,0,0,.719,4.672h0c-.295,3.363-.848,9.848-.942,12.2h0v.393h0a2.667,2.667,0,0,0,0,.441,1.38,1.38,0,0,1-.047.678,10.892,10.892,0,0,1-.79,1.878,9,9,0,0,0-.339.912,1.642,1.642,0,0,0-.848,1.2c-.363,1.4-.909,5.275-.909,5.275a9.377,9.377,0,0,1-.654,2.905c-.437.532-.871,3.909,2.217,4.339a4.488,4.488,0,0,0,4.434-1.641l-.108-9.391h0a1.356,1.356,0,0,0,.159-.258v-.02c.02-.047.044-.092.064-.146s0-.044.027-.068.031-.075.044-.115a.189.189,0,0,1,0-.041,6.17,6.17,0,0,0,.261-2.8v-.193a.436.436,0,0,0,0-.064.655.655,0,0,1,0-.081v-.058a.615.615,0,0,1,.02-.19.125.125,0,0,1,0-.037v-.112a.262.262,0,0,0,0-.051.818.818,0,0,1,.024-.119v-.027c.027-.139.064-.278.1-.424v-.031l.041-.142h0c.047-.153.1-.3.149-.451v-.031l.051-.139v-.017c.051-.142.105-.281.159-.414v-.037l.051-.119v-.034l.112-.264h0l.858,2.648a6.713,6.713,0,0,1,.217,2.438c-.254.464.292,2.407.654,2.441l-.339,2.441a37.315,37.315,0,0,0-.339,4.068c-.024.153-.047.285-.064.386a8.71,8.71,0,0,0,.339,3.187c2.871,3.39,6.289.264,6.289.264s.4-1.8,0-2.153-.217-1.651-.217-1.651.18-3.194.217-5.526a7.242,7.242,0,0,0-1.909-4.384l-.108.1a7.434,7.434,0,0,1-.678-2.458c.146-.824-.4-9.54-.4-9.54a52.031,52.031,0,0,0,.125-7.011h0c.047-.4.092-.787.136-1.163.22-1.875.4-3.478.468-4.316h0v-.1c.017-.227.027-.386.024-.464,0-.278,0-.627.027-.993.071-1.017.227-2.129.227-2.129l.763-4.628a14.358,14.358,0,0,1,1.417-3.516l.1-.159h0c.034-.054.068-.115.1-.18v-.027l.1-.193v-.027c.119-.231.244-.5.373-.79l.031-.064.1-.224.037-.088.1-.224c0-.031.024-.058.037-.088.037-.092.075-.183.115-.275l.054-.132c.031-.068.058-.136.085-.207l.075-.176.051-.132.081-.2c0-.031.027-.061.037-.092.207-.519.41-1.017.586-1.5h0c.058-.146.112-.285.163-.42,1.861.115,3.126.22,3.126.22a43.393,43.393,0,0,0,.4-6.96,25.644,25.644,0,0,1,.458-5.57c.027-.146.051-.275.071-.39l.051.041c.912.715,1.563-1.651,1.563-1.651s-.244-2.214-.573-4.889a2.4,2.4,0,0,0-.034-.268,14.086,14.086,0,0,0,1.59.244s.292-.027.678-.078a19.264,19.264,0,0,0,3.451,1.546l1.926-3.587a14.627,14.627,0,0,1,1.271-2.115c.583-.719,2.655-3.014,2.617-3.444a11.766,11.766,0,0,1,1.417-4.017A9.617,9.617,0,0,0,164.305,386.086Zm-8.069,2.712c-.763.322-1.492,2.115-1.526,2.655s-.837,2.905-1.675,3.194a11.227,11.227,0,0,0-2.471,1.831c-.241.024-.512.054-.8.1a27.716,27.716,0,0,0-.837-4.516c-.58-1.078.641-4.519.641-4.519s.122-3.478.885-4.306.583-2.905.583-2.905.18-.861.254-1.254,1.081,0,1.088,0h0s1.963,1.075,2.254,2.688,2.434,4.407,2.434,4.407-.339.966,0,1.471-.068.844-.831,1.166Z" transform="translate(-75.021 -269.715)" fill="url(#linear-gradient-3)"/>
    <path id="Tracé_475" data-name="Tracé 475" d="M121.15,388.572a5.862,5.862,0,0,1,5.872-2.756v4.19h-2.532l-2.007-.519Z" transform="translate(-92.499 -300.132)" fill="#4c4981"/>
    <path id="Tracé_476" data-name="Tracé 476" d="M121.15,388.572a5.862,5.862,0,0,1,5.872-2.756v4.19h-2.532l-2.007-.519Z" transform="translate(-92.499 -300.132)" opacity="0.1"/>
    <path id="Tracé_477" data-name="Tracé 477" d="M110.1,371.237l-3.116,2.187s-.027-.441-.105-1.037c-.156-1.129-.505-2.824-1.258-3.153-1.146-.5-13.9-5.3-9.377-6.909S107.7,366,107.7,366s.359.122.929,1.305c.3.62.678,1.678,1,2.539C109.9,370.62,110.1,371.237,110.1,371.237Z" transform="translate(-75.399 -284.445)" fill="#ae6e79"/>
    <path id="Tracé_478" data-name="Tracé 478" d="M174.221,265.609l.353-.169,1,1.136-.814,1.736-1.387-.556.322-1.387Z" transform="translate(-114.608 -175.451)" fill="#4c4981"/>
    <path id="Tracé_479" data-name="Tracé 479" d="M192.524,699.067s-.9-.105-1.254,1.288-.9,5.265-.9,5.265a9.43,9.43,0,0,1-.644,2.9c-.431.525-.858,3.9,2.183,4.333a4.4,4.4,0,0,0,4.37-1.637l-.108-9.391Z" transform="translate(-137.63 -507.227)" fill="#444053"/>
    <path id="Tracé_480" data-name="Tracé 480" d="M220.706,700.32a7.235,7.235,0,0,1,1.882,4.373c-.034,2.339-.217,5.516-.217,5.516s-.176,1.288.217,1.648,0,2.146,0,2.146-3.366,3.126-6.194-.261a9.185,9.185,0,0,1-.339-3.183c.214-1.248.858-6.865.858-6.865Z" transform="translate(-155.197 -508.056)" fill="#444053"/>
    <path id="Tracé_481" data-name="Tracé 481" d="M209.345,570.146a58.692,58.692,0,0,1-2.76,6.658,14.116,14.116,0,0,0-1.393,3.512l-.753,4.621a25.342,25.342,0,0,0-.251,3.116c.034,1.037-1.861,16.181-1.861,16.181l-3.007,3.831s-1.326,2.685-1.112,3.8a5.619,5.619,0,0,1-.573,3.434s-.071,3.509-.18,4.3.4,3.007,0,3.39-5.655.214-5.8-.431a18.949,18.949,0,0,1,.648-3.76l.464-3.007s.929-1.648.715-2.183.393-1.79.431-1.9,1.017-1.861.824-2.539,1.109-15.11,1.109-15.11l3.689-25.887Z" transform="translate(-139.09 -420.708)" fill="#ae6e79"/>
    <path id="Tracé_482" data-name="Tracé 482" d="M209.352,570.16s-.292.814-.7,1.885a35.926,35.926,0,0,1-2.061,4.773,14.493,14.493,0,0,0-1.4,3.509l-.749,4.621a25.331,25.331,0,0,0-.251,3.112c0,.41-.275,3.027-.627,6.038-.542,4.607-1.234,10.147-1.234,10.147l-3.01,3.831s-.153.308-.339.756a7.069,7.069,0,0,0-.766,3.051,5.63,5.63,0,0,1-.573,3.438s-.071,3.512-.18,4.3.4,3.01,0,3.39-5.655.217-5.8-.431a18.9,18.9,0,0,1,.644-3.756l.468-3.01s.929-1.648.715-2.183.393-1.79.431-1.9,1.017-1.861.824-2.543c-.139-.519.576-9,.922-13.018.112-1.268.186-2.088.186-2.088l3.173-22.27.254-1.8.261-1.821Z" transform="translate(-139.097 -420.721)" opacity="0.1"/>
    <path id="Tracé_483" data-name="Tracé 483" d="M204.1,627.487c.034.393-5.048.966-5.763.536s0-5.763,0-5.763l.339-2.434c-.359-.037-.895-1.97-.644-2.438a6.761,6.761,0,0,0-.217-2.434l-.844-2.644-.515-1.614c-.834-1.848-2.034-7.119-2.8-11.052a31.668,31.668,0,0,1-.709-4.668,44.08,44.08,0,0,0-.288-5.333s-.57-4.746-1.356-6.265a60.392,60.392,0,0,1-2.176-7.15c-.322-1.237-.546-2.126-.546-2.126s5.424-.454,8.692-.614c1.512-.071,2.57-.081,2.444.044a4.419,4.419,0,0,0-.146,1.726,43.761,43.761,0,0,0,.719,7.94c.5,1.61,1.017,6.441.787,6.909a20.046,20.046,0,0,0-.142,3.58,16.08,16.08,0,0,1,.627,3.888,52.478,52.478,0,0,1-.125,7s.539,8.7.393,9.523,1.146,3.39,1.146,3.9.325,3.9.325,3.9S204.066,627.094,204.1,627.487Z" transform="translate(-137.069 -424.188)" fill="#ae6e79"/>
    <path id="Tracé_484" data-name="Tracé 484" d="M216.525,394.8l-.617.678-.4.431-2.346,2.492-6.051.678-3.214-.861-.8-.21s0-1.617.146-3.556c.2-2.485.695-5.506,1.861-6.326a4.625,4.625,0,0,0,1.356-1.726,9.66,9.66,0,0,0,.587-1.448c.024-.064.041-.125.061-.186a15.861,15.861,0,0,0,.57-2.658s.773-.427,1.844-.926c2.8-1.309,7.645-3.112,5.96.926a15.225,15.225,0,0,0-.631,1.817c-.027.088-.051.18-.071.268a5.863,5.863,0,0,0,.231,4.367h0a3.051,3.051,0,0,0,.244.37,1.865,1.865,0,0,0,.407.414l.7,4.424.058.366Z" transform="translate(-146.667 -296.081)" fill="#ae6e79"/>
    <path id="Tracé_485" data-name="Tracé 485" d="M223.195,382.789c-.319.766.156-.627,0,0-1.275.909-4.282,3.492-5.973,3.492a4.712,4.712,0,0,1-2.461-.648,15.9,15.9,0,0,0,.631-2.844S225.52,377.2,223.195,382.789Z" transform="translate(-154.374 -296.532)" opacity="0.1"/>
    <path id="Tracé_486" data-name="Tracé 486" d="M216.812,358.561a7.8,7.8,0,0,1-6.987,7.76,7.257,7.257,0,0,1-.817.044,7.8,7.8,0,1,1,7.8-7.8Z" transform="translate(-145.418 -277.01)" fill="#ae6e79"/>
    <path id="Tracé_487" data-name="Tracé 487" d="M212.851,438.134l-1.109,2.9s-.909.041-2.319.085c-4.746.153-15.256.339-15.727-.875a2.939,2.939,0,0,1-.163-.963,18.77,18.77,0,0,1,.807-4.729s.5-5.729.5-5.977-.431-4.278-.431-4.278l.858-3.221,2.4-1.7s1.075,1.648,1.719,1.79a4.5,4.5,0,0,1,1.505.932s2.109,1.288,2.79.57,5.98-3.865,5.98-3.865l2.794,3.078Z" transform="translate(-140.341 -321.983)" opacity="0.1"/>
    <path id="Tracé_488" data-name="Tracé 488" d="M212.851,439.4l-1.109,2.9s-.909.041-2.319.081h-.139l-2.058.054a90.04,90.04,0,0,1-11.723-.288c-1.017-.149-1.7-.339-1.807-.644a2.372,2.372,0,0,1-.129-.532,4.262,4.262,0,0,1-.034-.431,18.966,18.966,0,0,1,.807-4.746s.5-5.729.5-5.98-.431-4.261-.431-4.261l.858-3.221,1.651-1.156.749-.526a10.815,10.815,0,0,0,.824,1.081,2.156,2.156,0,0,0,.9.705,4.562,4.562,0,0,1,1.505.932s2.109,1.292,2.79.573a53,53,0,0,1,5.228-3.417l.753-.451.376.417,2.417,2.665Z" transform="translate(-140.341 -322.823)" fill="#fff"/>
    <path id="Tracé_489" data-name="Tracé 489" d="M132.721,386.487l-3.116,2.187s-.027-.441-.105-1.037a6.3,6.3,0,0,0,2.746-2.546C132.521,385.87,132.721,386.487,132.721,386.487Z" transform="translate(-98.018 -299.695)" opacity="0.1"/>
    <path id="Tracé_490" data-name="Tracé 490" d="M138.155,394.46l-.678-.176a5.694,5.694,0,0,1-1.756,1.322,9.551,9.551,0,0,0-2,1.041l-1.576,1.251s-1.183.18-.824-.644-.644-1.861-.644-1.861-2-4.119-2-4.977-1.648-4.475-1.648-4.475-2.078,4.044-5.872,2.756c0,0,2.756,6.194,2.827,7.733s1.9,5.838,1.9,5.838a4.034,4.034,0,0,0,4.367,3.007s5.085.946,6.194,0a8.651,8.651,0,0,1,2.651-1.8,2.1,2.1,0,0,0,1-.715V398.5Z" transform="translate(-92.499 -300.257)" fill="#3f3d56"/>
    <path id="Tracé_491" data-name="Tracé 491" d="M152.51,423s.9,3.329.339,3.689Z" transform="translate(-113.228 -324.753)" opacity="0.1"/>
    <path id="Tracé_492" data-name="Tracé 492" d="M209.43,482.3c-4.746.153-15.256.339-15.727-.871a2.94,2.94,0,0,1-.163-.963l15.558.82Z" transform="translate(-140.348 -362.739)" opacity="0.1"/>
    <path id="Tracé_493" data-name="Tracé 493" d="M207.265,570.16s-.292.814-.695,1.885c-1.976-.122-4.594-.247-7.079-.264-.881,0-1.743,0-2.553.027a19.122,19.122,0,0,0-4.173.464,11.012,11.012,0,0,1-3.729.478c-.322-1.237-.546-2.126-.546-2.126s5.424-.454,8.692-.614l.261-1.821Z" transform="translate(-137.01 -420.721)" opacity="0.1"/>
    <path id="Tracé_494" data-name="Tracé 494" d="M204.584,499.846l-.607,1.288s-.085.383-.193.993a26,26,0,0,0-.454,5.56,43.517,43.517,0,0,1-.393,6.943s-13.174-1.109-17.039,0-5.763,0-5.763,0,.464-4.153-.678-6.3c-.787-1.471-1.336-8-1.356-12.289a11.14,11.14,0,0,1,.339-3.787c.787-.97,4.153-10.635,4.153-10.635l.766.041,2.034.108,11.659.614,1.827.095.193.593Z" transform="translate(-130.142 -363.5)" fill="#65617d"/>
    <path id="Tracé_495" data-name="Tracé 495" d="M262.84,512.785l.108,1.146s-5.763-1.878-5.479-4.187,0-2.034,0-2.034l4.638.393Z" transform="translate(-182.598 -380.738)" fill="#4c4981"/>
    <path id="Tracé_496" data-name="Tracé 496" d="M262.84,512.785l.108,1.146s-5.763-1.878-5.479-4.187,0-2.034,0-2.034l4.638.393Z" transform="translate(-182.598 -380.738)" opacity="0.1"/>
    <path id="Tracé_497" data-name="Tracé 497" d="M162.138,423.939A5.143,5.143,0,0,0,164.172,425a1.322,1.322,0,0,1-.6-.281c-.414-.295-.807-.614-1.2-.926a3.535,3.535,0,0,0-1.119-.77A6.175,6.175,0,0,0,162.138,423.939Z" transform="translate(-119.005 -324.766)" opacity="0.1"/>
    <path id="Tracé_498" data-name="Tracé 498" d="M161.007,427.394a2.492,2.492,0,0,1,.444.709,2.847,2.847,0,0,1,.129.915,2.888,2.888,0,0,1-.159,1.3l-.939-2.227c-.159-.38-.339-.759-.515-1.126-.085-.156-.617-.8-.556-.936C159.587,425.638,160.834,427.18,161.007,427.394Z" transform="translate(-117.786 -326.712)" opacity="0.1"/>
    <path id="Tracé_499" data-name="Tracé 499" d="M233.065,465.093a3,3,0,0,0,1.7-.783c-.953.119-1.851.492-2.79.678a4.146,4.146,0,0,1-2.6-.237A6.253,6.253,0,0,0,233.065,465.093Z" transform="translate(-164.031 -352.058)" opacity="0.1"/>
    <path id="Tracé_500" data-name="Tracé 500" d="M223.238,441.764a.641.641,0,0,1-.485-.122q-1.071-.61-2.115-1.281a12.83,12.83,0,0,1-2.068-1.431A10.5,10.5,0,0,0,223.238,441.764Z" transform="translate(-156.892 -335.282)" opacity="0.1"/>
    <path id="Tracé_501" data-name="Tracé 501" d="M234.4,468.314a4.552,4.552,0,0,0,1.115-.088,1.509,1.509,0,0,0,.919-.6.519.519,0,0,0-.39.061,6.583,6.583,0,0,1-3.594.431A5.23,5.23,0,0,0,234.4,468.314Z" transform="translate(-166.067 -354.238)" opacity="0.1"/>
    <path id="Tracé_502" data-name="Tracé 502" d="M200.4,518.138a11.488,11.488,0,0,1-2.288.451,14.055,14.055,0,0,1-1.81-.034l-2.932-.186-1.468-.095c-.173,0-.881,0-.532-.339.176-.166,1.156-.061,1.407-.068.488,0,.973-.024,1.458-.027.97,0,1.943,0,2.912.061Q198.775,517.965,200.4,518.138Z" transform="translate(-138.846 -387.44)" opacity="0.1"/>
    <path id="Tracé_503" data-name="Tracé 503" d="M195.1,522.478a12.3,12.3,0,0,0-1.651.339,10.868,10.868,0,0,1-1.726.071,9.709,9.709,0,0,1-3.333-.678C190.631,522.322,192.865,522.39,195.1,522.478Z" transform="translate(-136.944 -390.329)" opacity="0.1"/>
    <path id="Tracé_504" data-name="Tracé 504" d="M187.671,527.352a5.249,5.249,0,0,1,.641.173,7.4,7.4,0,0,0,3.794-.264,2.246,2.246,0,0,1-1.441.8,6.78,6.78,0,0,1-2.81.1c-.295-.058-1.017-.163-1.18-.468C186.45,527.243,187.4,527.307,187.671,527.352Z" transform="translate(-135.787 -393.667)" opacity="0.1"/>
    <path id="Tracé_505" data-name="Tracé 505" d="M206.541,533.068a10.387,10.387,0,0,1,1.1.285,9.355,9.355,0,0,0,4.231-.448,19.573,19.573,0,0,1,5.123-.475,5.027,5.027,0,0,0-1.1.363c-.4.119-.8.227-1.2.339a24.075,24.075,0,0,1-2.393.468,24.515,24.515,0,0,1-4.909.214,7.187,7.187,0,0,1-2.692-.339,2.977,2.977,0,0,1,1.841-.407Z" transform="translate(-147.724 -397.074)" opacity="0.1"/>
    <path id="Tracé_506" data-name="Tracé 506" d="M189.51,400.785a18.775,18.775,0,0,1-.468,4.8c-.166.468-.431,1.332-.715,2.3-.315,1.075-.658,2.278-.922,3.211s-.437,1.576-.437,1.576-1.21,9.852-1.526,14.544v.244c-.017.264-.047.539-.088.824-.7,4.661-4.719,11.849-6.068,12.425a4.069,4.069,0,0,0-1.136.78,11.139,11.139,0,0,1,.339-3.787c.787-.97,4.153-10.635,4.153-10.635l.766.041a4.261,4.261,0,0,1-.034-.431,18.965,18.965,0,0,1,.807-4.746s.5-5.729.5-5.98-.431-4.261-.431-4.261l.858-3.221,1.651-1.156c.2-2.485.695-5.506,1.861-6.326a4.624,4.624,0,0,0,1.356-1.726c.234.03-.19-.173-.19-.173Z" transform="translate(-130.175 -308.949)" opacity="0.1"/>
    <path id="Tracé_507" data-name="Tracé 507" d="M172.654,398.419a2.142,2.142,0,0,0-1.814.207,4.61,4.61,0,0,1-2.865.427,38.559,38.559,0,0,0-5.262-.536c-.356.142-1.075-.5-1.539.356s-.678,1.326-1.146,1.542-1.292.9-1.183,1.037-1.18,1.017-1.18,1.017l2.61,8.475s-1.7,10.74-2.505,11.669-8.136,13-5.512,15.147a52.866,52.866,0,0,0,6.55,4.407c.288.142,1.326-1.79,2.76-2.4s5.872-8.682,6.163-13.252,1.539-14.788,1.539-14.788,1.539-5.587,2.078-7.089a18.533,18.533,0,0,0,.451-4.8Z" transform="translate(-112.688 -308.43)" fill="#3f3d56"/>
    <path id="Tracé_508" data-name="Tracé 508" d="M241.346,450.292l-.607,1.288s-.085.383-.193.993a.563.563,0,0,1-.309-.132c-.895-.719-6.16-6.123-6.407-10.923-.186-3.539-.1-6.587-.041-7.947.02-.427.034-.678.037-.742,0,0,4.068-4.943,3.614-6.7S235.9,415,235.9,415l-.159-1.231-.271-2.078-.641-5.038.678.156a1.865,1.865,0,0,0,.407.414l.7,4.424,2.417,2.665.393,16.219-1.109,2.9s-.909.041-2.319.081h-.139Z" transform="translate(-166.904 -313.946)" opacity="0.1"/>
    <path id="Tracé_509" data-name="Tracé 509" d="M244.439,423.08s-1.017-.393-1.075,0-.251,1.251-.251,1.251.176,2.078-.573,2.9-.871,4.3-.871,4.3-1.2,3.438-.634,4.512a29.227,29.227,0,0,1,.851,4.685c.2,1.461.407,3.071.59,4.539.339,2.675.566,4.882.566,4.882s-.644,2.373-1.539,1.648-6.16-6.129-6.411-10.92c-.176-3.373-.105-6.3-.047-7.743.027-.614.047-.959.047-.959s4.068-4.939,3.617-6.692-1.539-11.137-1.539-11.137l-.19-1.448-.2-1.56-.044-.339-.648-5h0c.115.024,4.133.932,4.661,1.461s3.794,1.288,3.794,1.288a2.871,2.871,0,0,1,2.034,2.088c.031.1.054.2.078.312.431,2.078.288,2.326.576,2.685S244.439,423.08,244.439,423.08Z" transform="translate(-167.739 -313.516)" fill="#3f3d56"/>
    <path id="Tracé_510" data-name="Tracé 510" d="M250.089,512.969c-1.471-.285-3.638-.966-3.59-2.458.047-1.4,1.729-1.9,3-2.082C249.719,509.891,249.906,511.5,250.089,512.969Z" transform="translate(-175.352 -381.22)" opacity="0.1"/>
    <path id="Tracé_511" data-name="Tracé 511" d="M255.071,511.635c-.058.125-.3.234-.624.339a16.363,16.363,0,0,1-2.373.386s-4.977-.393-4.906-2.648c.051-1.62,2.3-2.034,3.563-2.146.495-.044.841-.037.841-.037S255.288,511.17,255.071,511.635Z" transform="translate(-175.795 -380.625)" fill="#ae6e79"/>
    <path id="Tracé_512" data-name="Tracé 512" d="M261.477,511.635c-.058.125-.3.234-.624.339-1.3-1.736-3.109-3.963-3.994-4.16,0,0,.1-.1.268-.247.495-.044.841-.037.841-.037S261.694,511.17,261.477,511.635Z" transform="translate(-182.201 -380.625)" opacity="0.1"/>
    <path id="Tracé_513" data-name="Tracé 513" d="M260.659,428.5l1.468.214a25.238,25.238,0,0,0,1.756,2.685,2.919,2.919,0,0,1,.644,1.719s2.149,3.187,2.827,3.546,1.719,2.793,1.719,2.793,1.7,1.109,1.7,2.373a20.677,20.677,0,0,0,.322,3.112,8.868,8.868,0,0,1-.97,3.509,12.018,12.018,0,0,0-1.393,4.011c.037.431-2.007,2.712-2.58,3.438a14.465,14.465,0,0,0-1.251,2.112l-1.9,3.58s-4.011-5.906-5.479-6.228a11.474,11.474,0,0,1,2.471-1.861c.824-.285,1.61-2.651,1.648-3.187s.749-2.329,1.5-2.651,1.146-.644.824-1.146,0-1.468,0-1.468-2.112-2.794-2.4-4.407a4.726,4.726,0,0,0-2.217-2.685l-1.112-2.712Z" transform="translate(-182.637 -328.388)" fill="#3f3d56"/>
    <path id="Tracé_514" data-name="Tracé 514" d="M279.865,465.785a4.641,4.641,0,0,1,2.892-1.1,3.527,3.527,0,0,0-1.892.739,4.32,4.32,0,0,0-.522.678c-.173.244-1.553,2-1.773,1.726C278.241,467.412,279.587,466.022,279.865,465.785Z" transform="translate(-196.517 -352.309)" opacity="0.1"/>
    <path id="Tracé_515" data-name="Tracé 515" d="M272.93,451.789a1.234,1.234,0,0,0,1.017-.722,4.068,4.068,0,0,0,.319-1.271,18.844,18.844,0,0,1,.444-2.173,1.383,1.383,0,0,0,.071-.454,1.284,1.284,0,0,0-.132-.437,3.119,3.119,0,0,0-.312-.651,3.976,3.976,0,0,0-.451,1.356q-.2.732-.376,1.465C273.452,449.158,272.954,451.789,272.93,451.789Z" transform="translate(-192.823 -340.008)" opacity="0.1"/>
    <path id="Tracé_516" data-name="Tracé 516" d="M227.965,374.471a3.194,3.194,0,0,1-.495.509c-.573.464-1.356.858-1.437,1.59a1.753,1.753,0,0,1-.085.709c-.186.319-.648.295-1.017.231a1.79,1.79,0,0,1-.858-.315c-.383-.339-.42-.915-.712-1.326a1.81,1.81,0,0,0-1.451-.651c-.549-.017-1.1.105-1.641.132a4.546,4.546,0,0,1-1.051-.071c-.115-.02-.227-.044-.339-.071a4.448,4.448,0,0,1-.715-.244,3.611,3.611,0,0,1-.339-.163,4.607,4.607,0,0,1-1.017-.7,2.513,2.513,0,0,1-.936-1.9,11.684,11.684,0,0,1,.305-1.3,4.085,4.085,0,0,0-1.532-3.366c-.363-.356-.749-.709-1.112-1.075a5.363,5.363,0,0,1-1.312-1.865,5.682,5.682,0,0,1-.234-2.332,15.861,15.861,0,0,0,.071-2.4c-.271-2.848-2.712-5.028-5.133-6.218l-.105-.054A7.8,7.8,0,1,1,217.33,365c-.027.088-.051.18-.071.268a5.863,5.863,0,0,0,.231,4.367h0c.115.024,4.133.932,4.661,1.461s3.794,1.288,3.794,1.288a2.871,2.871,0,0,1,2.021,2.088Z" transform="translate(-149.126 -277.142)" opacity="0.1"/>
    <path id="Tracé_517" data-name="Tracé 517" d="M204.816,344.592c.159-.183.4-.278.566-.458.505-.549,0-1.448.186-2.173a1.8,1.8,0,0,1,2.014-1.071c.827.088,1.6.464,2.424.556a10.6,10.6,0,0,0,3.773-.736c1.251-.325,2.76-.339,3.624.614s.8,2.59,1.871,3.285a13.864,13.864,0,0,0,1.654.593,3.431,3.431,0,0,1,1.4,1.339,7.014,7.014,0,0,1,1.054,4.485c-.088.848-.339,1.675-.434,2.522a7.357,7.357,0,0,0,.173,2.638,2.789,2.789,0,0,0,1.593,2.109,2.5,2.5,0,0,1,.593.2c.505.312.441,1.058.312,1.637l-.542,2.39c.5.383,1.278.217,1.766.62a1.434,1.434,0,0,1,.41.644,3.522,3.522,0,0,1-1.051,3.844c-.573.468-1.356.858-1.437,1.593a1.7,1.7,0,0,1-.085.705c-.186.319-.648.295-1.017.231a1.756,1.756,0,0,1-.854-.315c-.387-.339-.42-.915-.712-1.326a1.81,1.81,0,0,0-1.451-.651c-.553-.017-1.1.105-1.644.132a4.838,4.838,0,0,1-3.461-1.251,2.509,2.509,0,0,1-.939-1.9,12.55,12.55,0,0,1,.305-1.305,4.085,4.085,0,0,0-1.529-3.363,8.906,8.906,0,0,1-2.424-2.943c-.556-1.492,0-3.153-.166-4.746-.271-2.848-2.712-5.028-5.129-6.214C205.108,346.016,204.186,345.307,204.816,344.592Z" transform="translate(-147.661 -270.228)" fill="#444053"/>
    <path id="Tracé_518" data-name="Tracé 518" d="M223.961,369.944c-.383-.339-.417-.912-.709-1.326a1.824,1.824,0,0,0-1.454-.648c-.549-.017-1.092.105-1.641.132a4.855,4.855,0,0,1-3.461-1.234,2.522,2.522,0,0,1-.939-1.9,12.491,12.491,0,0,1,.305-1.3,4.085,4.085,0,0,0-1.532-3.366,8.94,8.94,0,0,1-2.424-2.943c-.553-1.488,0-3.153-.163-4.746-.271-2.848-2.712-5.031-5.133-6.218-.566-.278-1.488-.983-.858-1.7.159-.183.4-.275.566-.454.505-.549,0-1.451.186-2.177a1.149,1.149,0,0,1,.183-.4,1.549,1.549,0,0,0-1.319,1.041c-.18.725.319,1.627-.186,2.177-.163.18-.407.271-.566.454-.631.719.292,1.424.861,1.7,2.431,1.19,4.858,3.37,5.129,6.218.149,1.58-.39,3.244.166,4.746a8.932,8.932,0,0,0,2.424,2.943,4.086,4.086,0,0,1,1.529,3.366,12.691,12.691,0,0,0-.305,1.3,2.522,2.522,0,0,0,.939,1.9,4.838,4.838,0,0,0,3.461,1.251c.549-.027,1.092-.149,1.644-.132a1.817,1.817,0,0,1,1.451.648c.292.414.339,1,.712,1.326a1.756,1.756,0,0,0,.854.315c.366.068.827.092,1.017-.231a.8.8,0,0,0,.081-.42,1.648,1.648,0,0,1-.82-.325Z" transform="translate(-147.661 -270.995)" opacity="0.1"/>
  </g>
</svg>
