<svg xmlns="http://www.w3.org/2000/svg" width="292.395" height="58.55" viewBox="0 0 292.395 58.55">
  <g id="facebook_logo_h-ac976c64e688a30aebcca4f782355000b2fde606969d54d776a21340762be3e6" transform="translate(0)">
    <path id="path10" d="M152.388,28.453a13.522,13.522,0,0,0-5.993,1.618V48.547a38.929,38.929,0,0,0,4.316.163c5.867,0,6.671-2.687,6.671-6.438V33.448C157.383,30.678,156.463,28.453,152.388,28.453Zm-38.961-1.008c-4.07,0-5,2.235-5,5V34h9.994V32.447c0-2.767-.929-5-4.994-5ZM37.953,46.677c0,2.189,1.033,3.326,3.313,3.326a12.146,12.146,0,0,0,5.678-1.616V44H41.6C39.066,44,37.953,44.475,37.953,46.677ZM190.287,28.453c-4.077,0-5.489,2.225-5.489,4.994V43.557c0,2.778,1.413,5.009,5.489,5.009s5.489-2.232,5.489-5.009V33.448C195.777,30.678,194.353,28.453,190.287,28.453ZM17.973,58.012H5.989V29H0v-10H5.989V13c0-8.155,3.38-13,12.986-13h8V10h-5c-3.74,0-3.986,1.4-3.986,4l-.015,5H27.03L25.97,29h-8V58.012Zm40.959.075H48.945l-.433-2.526A22.9,22.9,0,0,1,37.2,58.5C29.87,58.5,25.97,53.6,25.97,46.835,25.97,38.85,30.52,36,38.66,36h8.284V34.275C46.944,30.2,46.477,29,40.21,29H29.962l1-10h11.2c13.752,0,16.767,4.344,16.767,15.349V58.087ZM92.9,29.736c-6.216-1.065-8-1.3-10.992-1.3-5.372,0-7,1.185-7,5.747v8.63c0,4.562,1.624,5.753,7,5.753,2.991,0,4.776-.238,10.992-1.308v9.751A53.01,53.01,0,0,1,80.91,58.55c-12.867,0-17.982-6.767-17.982-16.542v-7c0-9.783,5.115-16.562,17.982-16.562A52.789,52.789,0,0,1,92.9,19.991v9.745Zm37.506,12.272H108.428v.805c0,4.562,1.625,5.753,7,5.753a69.848,69.848,0,0,0,13.98-1.308v9.751A63.035,63.035,0,0,1,114.43,58.55c-12.868,0-17.986-6.767-17.986-16.542V34c0-8.553,3.8-15.559,16.983-15.559S130.406,25.367,130.406,34Zm38.959.185c0,9.448-2.7,16.339-19.059,16.339a90.414,90.414,0,0,1-15.892-1.523V3L146.4,1V19.893a27.2,27.2,0,0,1,8.991-1.45c11.982,0,13.979,5.372,13.979,14v9.745Zm38.406.206c0,8.151-3.365,16.055-17.444,16.055s-17.513-7.9-17.513-16.055v-7.87c0-8.155,3.428-16.06,17.513-16.06s17.444,7.906,17.444,16.06Zm38.379,0c0,8.151-3.369,16.055-17.445,16.055s-17.513-7.9-17.513-16.055v-7.87c0-8.155,3.428-16.06,17.513-16.06s17.445,7.906,17.445,16.06Zm39.387,15.613H272.55L261.567,39.677V58.012H249.582V3l11.985-2V36.415L272.55,19.006h12.987l-11.99,19ZM228.665,28.453c-4.07,0-5.483,2.225-5.483,4.994V43.557c0,2.778,1.413,5.009,5.483,5.009s5.5-2.232,5.5-5.009V33.448c0-2.769-1.438-4.994-5.5-4.994Z" transform="translate(0 0)" fill="#394165"/>
    <path id="path12" d="M1006.858,183.3a2.875,2.875,0,1,1-.012,0h.011Zm-.011.451a2.458,2.458,0,0,0,.011,4.908,2.458,2.458,0,0,0,0-4.908h-.011Zm-.541,4.137h-.516v-3.235a5.912,5.912,0,0,1,.914-.075,1.718,1.718,0,0,1,1.005.243.781.781,0,0,1,.292.669.8.8,0,0,1-.628.788v.025c.282.052.475.308.54.784a2.666,2.666,0,0,0,.2.8h-.54a2.438,2.438,0,0,1-.219-.826.6.6,0,0,0-.7-.566h-.357Zm0-1.791h.373c.422,0,.782-.155.782-.556,0-.283-.2-.566-.782-.566a2.535,2.535,0,0,0-.373.025Z" transform="translate(-717.305 -130.961)" fill="#394165"/>
  </g>
</svg>
