<svg xmlns="http://www.w3.org/2000/svg" width="292.395" height="58.55"><g fill="#394165"><path d="M152.388 28.453a13.522 13.522 0 0 0-5.993 1.618v18.476a38.929 38.929 0 0 0 4.316.163c5.867 0 6.671-2.687 6.671-6.438v-8.824c.001-2.77-.919-4.995-4.994-4.995zm-38.961-1.008c-4.07 0-5 2.235-5 5V34h9.994v-1.553c0-2.767-.929-5-4.994-5zM37.953 46.677c0 2.189 1.033 3.326 3.313 3.326a12.146 12.146 0 0 0 5.678-1.616V44H41.6c-2.534 0-3.647.475-3.647 2.677zm152.334-18.224c-4.077 0-5.489 2.225-5.489 4.994v10.11c0 2.778 1.413 5.009 5.489 5.009s5.489-2.232 5.489-5.009V33.448c.001-2.77-1.423-4.995-5.489-4.995zM17.973 58.012H5.989V29H0V19h5.989v-6c0-8.155 3.38-13 12.986-13h8v10h-5c-3.74 0-3.986 1.4-3.986 4l-.015 5h9.056l-1.06 10h-8v29.012zm40.959.075h-9.987l-.433-2.526A22.9 22.9 0 0 1 37.2 58.5c-7.33 0-11.23-4.9-11.23-11.665C25.97 38.85 30.52 36 38.66 36h8.284v-1.725c0-4.075-.467-5.275-6.734-5.275H29.962l1-10h11.2c13.752 0 16.767 4.344 16.767 15.349v23.738zM92.9 29.736c-6.216-1.065-8-1.3-10.992-1.3-5.372 0-7 1.185-7 5.747v8.63c0 4.562 1.624 5.753 7 5.753 2.991 0 4.776-.238 10.992-1.308v9.751a53.01 53.01 0 0 1-11.99 1.541c-12.867 0-17.982-6.767-17.982-16.542v-7c0-9.783 5.115-16.562 17.982-16.562a52.789 52.789 0 0 1 11.99 1.545v9.745zm37.506 12.272h-21.978v.805c0 4.562 1.625 5.753 7 5.753a69.848 69.848 0 0 0 13.98-1.308v9.751a63.035 63.035 0 0 1-14.978 1.541c-12.868 0-17.986-6.767-17.986-16.542V34c0-8.553 3.8-15.559 16.983-15.559S130.406 25.367 130.406 34zm38.959.185c0 9.448-2.7 16.339-19.059 16.339a90.414 90.414 0 0 1-15.892-1.523V3L146.4 1v18.893a27.2 27.2 0 0 1 8.991-1.45c11.982 0 13.979 5.372 13.979 14v9.745zm38.406.206c0 8.151-3.365 16.055-17.444 16.055s-17.513-7.9-17.513-16.055v-7.87c0-8.155 3.428-16.06 17.513-16.06s17.444 7.906 17.444 16.06zm38.379 0c0 8.151-3.369 16.055-17.445 16.055s-17.513-7.9-17.513-16.055v-7.87c0-8.155 3.428-16.06 17.513-16.06s17.445 7.906 17.445 16.06zm39.387 15.613H272.55l-10.983-18.335v18.335h-11.985V3l11.985-2v35.415l10.983-17.409h12.987l-11.99 19zm-56.872-29.559c-4.07 0-5.483 2.225-5.483 4.994v10.11c0 2.778 1.413 5.009 5.483 5.009s5.5-2.232 5.5-5.009V33.448c0-2.769-1.438-4.994-5.5-4.994zM289.553 52.339a2.875 2.875 0 1 1-.012 0h.011zm-.011.451a2.458 2.458 0 0 0 .011 4.908 2.458 2.458 0 0 0 0-4.908h-.011zm-.541 4.137h-.516v-3.235a5.912 5.912 0 0 1 .914-.075 1.718 1.718 0 0 1 1.005.243.781.781 0 0 1 .292.669.8.8 0 0 1-.628.788v.025c.282.052.475.308.54.784a2.666 2.666 0 0 0 .2.8h-.54a2.438 2.438 0 0 1-.219-.826.6.6 0 0 0-.7-.566h-.357zm0-1.791h.373c.422 0 .782-.155.782-.556 0-.283-.2-.566-.782-.566a2.535 2.535 0 0 0-.373.025z"/></g></svg>