<svg xmlns="http://www.w3.org/2000/svg" width="100.066" height="129.428"><g fill="#394165"><path d="M85.489 121.544v7.868h2.523v-5.238h9.184v5.239h2.521v-7.855l-14.228-.014M87.732 118.999h9.7a3.581 3.581 0 0 0 2.632-2.608H85.1a3.594 3.594 0 0 0 2.632 2.608"/></g><path d="M77.847 129.418a3.608 3.608 0 0 0 2.219-2.564H68.749l.007-10.456-2.537.007v13.013h11.628M47.354 118.964h8.961a3.928 3.928 0 0 0 2.762-2.562H44.842v7.69h11.65v2.7l-9.138.007a5.1 5.1 0 0 0-3.252 2.631l.74-.014h14.153v-7.88H47.354v-2.572" fill="#394165"/><g fill="#394165"><path d="M25.234 118.989h9.7a3.578 3.578 0 0 0 2.634-2.609H22.6a3.6 3.6 0 0 0 2.634 2.609M25.234 124.132h9.7a3.571 3.571 0 0 0 2.634-2.608H22.6a3.588 3.588 0 0 0 2.634 2.608M25.234 129.416h9.7a3.577 3.577 0 0 0 2.634-2.608H22.6a3.594 3.594 0 0 0 2.634 2.608"/></g><path d="M0 116.411a3.62 3.62 0 0 0 2.627 2.591H6.71l.208.082v10.3h2.549v-10.3l.232-.082h4.087a3.671 3.671 0 0 0 2.616-2.591v-.025H.002v.025" fill="#394165"/><g fill="#394165"><path d="M50.038 90.67l12.739-71.644c12.142 0 15.972 1.331 16.525 6.766 0 0 8.145-3.037 12.254-9.206a90.02 90.02 0 0 0-32.14-7.764l-9.4 11.448h.021l-9.4-11.449a90.011 90.011 0 0 0-32.136 7.764c4.1 6.168 12.253 9.205 12.253 9.205.556-5.435 4.382-6.767 16.442-6.775L50.038 90.67"/><path d="M50.033 5.516a104.959 104.959 0 0 1 42.978 8.623 34.9 34.9 0 0 0 2.551-5.267A124.638 124.638 0 0 0 50.031.003 124.623 124.623 0 0 0 4.504 8.871a44.048 44.048 0 0 0 2.549 5.267 104.949 104.949 0 0 1 42.978-8.623"/></g></svg>