<svg xmlns="http://www.w3.org/2000/svg" width="100.066" height="129.428" viewBox="0 0 100.066 129.428">
  <g id="Tesla_Motors" transform="translate(0)">
    <g id="TESLA" transform="translate(0 116.38)">
      <g id="g8" transform="translate(85.1 0.011)">
        <path id="polyline10" d="M266.6,403.28v7.868h2.523V405.91h9.184v5.239h2.521v-7.855L266.6,403.28" transform="translate(-266.211 -398.127)" fill="#394165"/>
        <path id="path12" d="M268.147,391.538h9.7a3.581,3.581,0,0,0,2.632-2.608H265.515a3.594,3.594,0,0,0,2.632,2.608" transform="translate(-265.515 -388.93)" fill="#394165"/>
      </g>
      <g id="g14" transform="translate(66.219 0.018)">
        <path id="path16" d="M224.564,401.968a3.608,3.608,0,0,0,2.219-2.564H215.466l.007-10.456-2.537.007v13.013h11.628" transform="translate(-212.936 -388.948)" fill="#394165"/>
      </g>
      <g id="g18" transform="translate(44.102 0.022)">
        <path id="path20" d="M154.593,391.52h8.961a3.928,3.928,0,0,0,2.762-2.562H152.081v7.69h11.65v2.7l-9.138.007a5.1,5.1,0,0,0-3.252,2.631l.74-.014h14.153v-7.88H154.593V391.52" transform="translate(-151.341 -388.958)" fill="#394165"/>
      </g>
      <g id="g22" transform="translate(22.6)">
        <path id="path24" d="M94.095,391.507h9.7a3.578,3.578,0,0,0,2.634-2.609H91.461a3.6,3.6,0,0,0,2.634,2.609" transform="translate(-91.461 -388.898)" fill="#394165"/>
        <path id="path26" d="M94.095,405.831h9.7a3.571,3.571,0,0,0,2.634-2.608H91.461a3.588,3.588,0,0,0,2.634,2.608" transform="translate(-91.461 -398.079)" fill="#394165"/>
        <path id="path28" d="M94.095,420.547h9.7a3.577,3.577,0,0,0,2.634-2.608H91.461a3.594,3.594,0,0,0,2.634,2.608" transform="translate(-91.461 -407.511)" fill="#394165"/>
      </g>
      <g id="g30" transform="translate(0 0.006)">
        <path id="path32" d="M28.524,388.941a3.62,3.62,0,0,0,2.627,2.591h4.083l.208.082v10.3h2.549v-10.3l.232-.082H42.31a3.671,3.671,0,0,0,2.616-2.591v-.025h-16.4v.025" transform="translate(-28.524 -388.916)" fill="#394165"/>
      </g>
    </g>
    <g id="T" transform="translate(4.504)">
      <path id="path35" d="M99.007,171.21l12.739-71.644c12.142,0,15.972,1.331,16.525,6.766,0,0,8.145-3.037,12.254-9.206a90.02,90.02,0,0,0-32.14-7.764l-9.4,11.448h.021l-9.4-11.449A90.011,90.011,0,0,0,57.47,97.125c4.1,6.168,12.253,9.205,12.253,9.205.556-5.435,4.382-6.767,16.442-6.775L99.007,171.21" transform="translate(-53.473 -80.54)" fill="#394165"/>
      <path id="path37" d="M91.869,70.313a104.959,104.959,0,0,1,42.978,8.623,34.9,34.9,0,0,0,2.551-5.267A124.638,124.638,0,0,0,91.867,64.8,124.623,124.623,0,0,0,46.34,73.668a44.048,44.048,0,0,0,2.549,5.267,104.949,104.949,0,0,1,42.978-8.623h0" transform="translate(-46.34 -64.797)" fill="#394165"/>
    </g>
  </g>
</svg>
