<svg id="Calque_8" data-name="Calque 8" xmlns="http://www.w3.org/2000/svg" viewBox="0 0 64 63.96"><defs><style>.cls-3{fill:#fff}</style></defs><path d="M34.38 7.32a3.37 3.37 0 0 0-4.77 0L7.35 29.59a3.37 3.37 0 0 0 0 4.77l22.26 22.26a3.37 3.37 0 0 0 4.77 0l22.27-22.26a3.37 3.37 0 0 0 0-4.77zm20.68 25.44L32.79 55a1.14 1.14 0 0 1-1.59 0L8.94 32.76a1.12 1.12 0 0 1 0-1.59L31.2 8.91a1.12 1.12 0 0 1 1.59 0l22.27 22.26a1.12 1.12 0 0 1 0 1.59z" fill="#4c81f6"/><path d="M34.38 1a3.44 3.44 0 0 0-4.77 0L1 29.59a3.37 3.37 0 0 0 0 4.77L29.61 63a3.39 3.39 0 0 0 4.77 0L63 34.35a3.39 3.39 0 0 0 0-4.77zm27 31.8L32.79 61.39a1.14 1.14 0 0 1-1.59 0L2.58 32.76a1.12 1.12 0 0 1 0-1.59L31.2 2.55a1.12 1.12 0 0 1 1.59 0l28.63 28.62a1.12 1.12 0 0 1 0 1.59z" fill="#4c6cf6"/><path class="cls-3" d="M31.82 15.42A4.31 4.31 0 0 0 27.51 20l.82 15a3.38 3.38 0 0 0 3.37 3.19h.24A3.38 3.38 0 0 0 35.32 35l.82-15a4.31 4.31 0 0 0-4.32-4.55zm1.24 19.49A1.13 1.13 0 0 1 31.94 36h-.24a1.14 1.14 0 0 1-1.13-1.07l-.82-15.06a2.07 2.07 0 1 1 4.13 0zM32 40.48a3.37 3.37 0 1 0 3.37 3.37A3.37 3.37 0 0 0 32 40.48zM32 45a1.13 1.13 0 1 1 1.12-1.12A1.13 1.13 0 0 1 32 45z"/></svg>