<?xml version="1.0" encoding="utf-8"?>
<!-- Generator: Adobe Illustrator 23.0.4, SVG Export Plug-In . SVG Version: 6.00 Build 0)  -->
<svg version="1.1" xmlns="http://www.w3.org/2000/svg" xmlns:xlink="http://www.w3.org/1999/xlink" x="0px" y="0px"
	 viewBox="0 0 64 64" style="enable-background:new 0 0 64 64;" xml:space="preserve">
<style type="text/css">
	.st0{display:none;}
	.st1{display:inline;}
	.st2{fill:#F6F7FC;}
	.st3{fill:#5D7AF6;}
	.st4{fill:#4C6CF6;}
	.st5{fill:#5D58F6;}
	.st6{display:inline;fill:#4C6CF6;}
	.st7{display:inline;fill:#2E88F6;}
	.st8{display:inline;fill:#2EA8F6;}
	.st9{fill:#4396F6;}
	.st10{display:inline;fill:#8AA4FF;}
	.st11{fill:#338FF6;}
	.st12{fill:#4C93F6;}
	.st13{fill:#4C81F6;}
</style>
<g id="Calque_1" class="st0">
	<g class="st1">
		<path class="st2" d="M32,0c17.7,0,32,14.3,32,32c0,17.7-14.3,32-32,32S0,49.7,0,32C0,14.3,14.3,0,32,0z"/>
		<path class="st3" d="M32,10c12.1,0,22,9.8,22,22c0,12.1-9.8,22-22,22s-22-9.9-22-22C10,19.8,19.8,10,32,10z"/>
		<path class="st4" d="M32,20c6.6,0,12,5.4,12,12s-5.4,12-12,12s-12-5.4-12-12S25.4,20,32,20z"/>
		<path class="st5" d="M34,52c-12.1,0-22-9.9-22-22c0-5.6,2.1-10.6,5.5-14.5c-4.6,4-7.5,9.9-7.5,16.5c0,12.1,9.8,22,22,22
			c6.6,0,12.5-2.9,16.5-7.5C44.6,49.9,39.6,52,34,52z"/>
	</g>
</g>
<g id="Calque_2" class="st0">
	<path class="st6" d="M24.9,30.4l-23.1,12c-2.5,1.3-2.5,4.9,0,6.2l23.2,11.7c4.3,2.2,9.5,2.2,13.8,0l23.2-11.7
		c2.5-1.3,2.5-4.9,0-6.2l-23.1-12C34.6,28.1,29.4,28.1,24.9,30.4z"/>
	<path class="st7" d="M24.9,17.2l-23.1,12c-2.5,1.3-2.5,4.9,0,6.2l23.2,11.7c4.3,2.2,9.5,2.2,13.8,0l23.2-11.7
		c2.5-1.3,2.5-4.9,0-6.2l-23.1-12C34.6,14.9,29.4,14.9,24.9,17.2z"/>
	<path class="st7" d="M38.9,46.9l16.3-8.2l-16.1-8.4c-4.4-2.3-9.7-2.3-14.2,0L8.8,38.8l16.3,8.2C29.4,49.1,34.6,49.1,38.9,46.9z"/>
	<path class="st8" d="M24.9,3.9l-23.1,12c-2.5,1.3-2.5,4.9,0,6.2l23.2,11.7c4.3,2.2,9.5,2.2,13.8,0L62.1,22c2.5-1.3,2.5-4.9,0-6.2
		l-23.1-12C34.6,1.6,29.4,1.6,24.9,3.9z"/>
	<path class="st8" d="M38.9,33.7l16.3-8.2l-16.1-8.4c-4.4-2.3-9.7-2.3-14.2,0L8.8,25.5l16.3,8.2C29.4,35.9,34.6,35.9,38.9,33.7z"/>
	<path class="st8" d="M38.9,33.7l3.3-1.7l-3.1-1.6c-4.4-2.3-9.7-2.3-14.2,0L21.8,32l3.3,1.7C29.4,35.9,34.6,35.9,38.9,33.7z"/>
</g>
<g id="Calque_3" class="st0">
	<g class="st1">
		<g>
			<path class="st9" d="M50,23.3h1.1c1.7,0,3.1,1.4,3.1,3.1v4.9c0,0.3-0.2,0.6-0.4,0.8c-0.4,0.2-0.6,0.6-0.6,1.1v4.7
				c0,0.6,0.3,1.1,0.8,1.4c0.6,0.3,3.8,1.9,6.7,4.3c0.2,0.2,0.4,0.5,0.4,0.8v3.3c0,0.7,0.6,1.3,1.3,1.3c0.7,0,1.3-0.6,1.3-1.3v-3.3
				c0-1.1-0.5-2.1-1.3-2.8c-2.6-2.1-5.3-3.7-6.6-4.3v-3.5c0.6-0.6,1-1.5,1-2.4v-4.9c0-3.1-2.6-5.7-5.7-5.7H50
				c-3.1,0-5.7,2.6-5.7,5.7v4.9c0,0.9,0.4,1.8,1,2.4v1.7c0,0.7,0.6,1.3,1.3,1.3c0.7,0,1.3-0.6,1.3-1.3v-2.3c0-0.4-0.2-0.8-0.6-1.1
				c-0.3-0.2-0.4-0.5-0.4-0.8v-4.9C46.9,24.7,48.3,23.3,50,23.3z"/>
			<path class="st9" d="M1.4,41.5c-0.8,0.7-1.3,1.7-1.3,2.8v3.3c0,0.7,0.6,1.3,1.3,1.3s1.3-0.6,1.3-1.3v-3.3c0-0.3,0.1-0.6,0.4-0.8
				c2.9-2.4,6.1-4,6.7-4.3c0.5-0.3,0.8-0.8,0.8-1.4v-4.7c0-0.4-0.2-0.8-0.6-1.1c-0.3-0.2-0.4-0.5-0.4-0.8v-4.9
				c0-1.7,1.4-3.1,3.1-3.1h1.1c1.7,0,3.1,1.4,3.1,3.1v4.9c0,0.3-0.2,0.6-0.4,0.8c-0.4,0.2-0.6,0.6-0.6,1.1v2.4
				c0,0.7,0.6,1.3,1.3,1.3s1.3-0.6,1.3-1.3v-1.8c0.6-0.6,1-1.5,1-2.4v-4.9c0-3.1-2.6-5.7-5.7-5.7h-1.1c-3.1,0-5.7,2.6-5.7,5.7v4.9
				c0,0.9,0.4,1.8,1,2.4v3.5C6.8,37.9,4,39.4,1.4,41.5z"/>
			<path class="st4" d="M47.3,49c0.7,0,1.3-0.6,1.3-1.3v-4.3c0-1.3-0.6-2.5-1.6-3.4c-3.5-2.9-7.2-4.9-8.7-5.7v-4.9
				c0.8-0.8,1.3-1.8,1.3-3v-6.3c0-3.9-3.1-7-7-7h-1.4c-3.9,0-7,3.1-7,7v6.3c0,1.1,0.5,2.2,1.3,3v4.9c-1.5,0.8-5.2,2.8-8.7,5.7
				c-1,0.8-1.6,2.1-1.6,3.4v4.3c0,0.7,0.6,1.3,1.3,1.3c0.7,0,1.3-0.6,1.3-1.3v-4.3c0-0.5,0.2-1,0.6-1.4c3.8-3.1,8-5.2,8.8-5.6
				c0.5-0.3,0.9-0.8,0.9-1.4v-6.1c0-0.4-0.2-0.8-0.6-1.1c-0.4-0.3-0.7-0.8-0.7-1.3v-6.3c0-2.4,2-4.4,4.4-4.4h1.4
				c2.4,0,4.4,2,4.4,4.4v6.3c0,0.5-0.3,1-0.7,1.3c-0.4,0.2-0.6,0.6-0.6,1.1V35c0,0.6,0.3,1.1,0.9,1.4c0.8,0.4,4.9,2.5,8.8,5.6
				c0.4,0.3,0.6,0.8,0.6,1.4v4.3C46.1,48.4,46.6,49,47.3,49z"/>
		</g>
	</g>
</g>
<g id="Calque_4" class="st0">
	<g class="st1">
		<path class="st4" d="M51.5,60.6c-0.5,0-1-0.1-1.4-0.4L34,49.3l-8.6,6.2c-0.7,0.5-1.5,0.6-2.3,0.3c-0.8-0.3-1.4-0.9-1.6-1.7
			l-4.3-16.4L1.6,31.7c-1-0.4-1.6-1.3-1.6-2.3c0-1,0.6-2,1.6-2.4L60.5,3.6c0.3-0.1,0.5-0.2,0.8-0.2c0.1,0,0.2,0,0.3,0
			c0.6,0,1.2,0.3,1.6,0.7c0,0,0.1,0.1,0.1,0.1c0.4,0.4,0.6,1,0.6,1.5c0,0.1,0,0.3,0,0.4c0,0.1,0,0.2,0,0.3L54,58.6
			c-0.2,0.8-0.7,1.5-1.5,1.9C52.2,60.6,51.8,60.6,51.5,60.6z M35.4,44.1l14.3,9.7l7.7-40.6L29.6,40.1L35.4,44.1
			C35.4,44.1,35.4,44.1,35.4,44.1z M23.5,41.9l1.9,7.3l4.1-3l-5.4-3.7C23.9,42.4,23.7,42.2,23.5,41.9z M9.5,29.3l10.6,4.1
			c0.8,0.3,1.3,0.9,1.5,1.7l1.3,5.1c0.1-0.6,0.3-1.1,0.8-1.6L50.4,13L9.5,29.3z"/>
	</g>
</g>
<g id="Calque_5" class="st0">
	<g class="st1">
		<g>
			<path class="st4" d="M23.2,31.1c0,0.6-0.5,1.1-1.1,1.1h-4c-0.6,0-1.1-0.5-1.1-1.1v-4c0-0.6,0.5-1.1,1.1-1.1h4
				c0.6,0,1.1,0.5,1.1,1.1V31.1z M31.6,27.2c0-0.6-0.5-1.1-1.1-1.1h-4c-0.6,0-1.1,0.5-1.1,1.1v4c0,0.6,0.5,1.1,1.1,1.1h4
				c0.6,0,1.1-0.5,1.1-1.1V27.2z M39.9,27.2c0-0.6-0.5-1.1-1.1-1.1h-4c-0.6,0-1.1,0.5-1.1,1.1v4c0,0.6,0.5,1.1,1.1,1.1h4
				c0.6,0,1.1-0.5,1.1-1.1V27.2z M23.2,35.3c0-0.6-0.5-1.1-1.1-1.1h-4c-0.6,0-1.1,0.5-1.1,1.1v4c0,0.6,0.5,1.1,1.1,1.1h4
				c0.6,0,1.1-0.5,1.1-1.1V35.3z M31.6,35.3c0-0.6-0.5-1.1-1.1-1.1h-4c-0.6,0-1.1,0.5-1.1,1.1v4c0,0.6,0.5,1.1,1.1,1.1h4
				c0.6,0,1.1-0.5,1.1-1.1V35.3z M38.8,34.2h-4c-0.6,0-1.1,0.5-1.1,1.1v4c0,0.6,0.5,1.1,1.1,1.1h4c0.6,0,1.1-0.5,1.1-1.1v-4
				C39.9,34.7,39.4,34.2,38.8,34.2z M13.8,42.3h-4c-0.6,0-1.1,0.5-1.1,1.1v4c0,0.6,0.5,1.1,1.1,1.1h4c0.6,0,1.1-0.5,1.1-1.1v-4
				C14.9,42.8,14.4,42.3,13.8,42.3z M14.9,35.3c0-0.6-0.5-1.1-1.1-1.1h-4c-0.6,0-1.1,0.5-1.1,1.1v4c0,0.6,0.5,1.1,1.1,1.1h4
				c0.6,0,1.1-0.5,1.1-1.1V35.3z M30.5,42.3h-4c-0.6,0-1.1,0.5-1.1,1.1v4c0,0.6,0.5,1.1,1.1,1.1h4c0.6,0,1.1-0.5,1.1-1.1v-4
				C31.6,42.8,31.1,42.3,30.5,42.3z M22.2,42.3h-4c-0.6,0-1.1,0.5-1.1,1.1v4c0,0.6,0.5,1.1,1.1,1.1h4c0.6,0,1.1-0.5,1.1-1.1v-4
				C23.2,42.8,22.8,42.3,22.2,42.3z M47.2,32.2c0.6,0,1.1-0.5,1.1-1.1v-4c0-0.6-0.5-1.1-1.1-1.1h-4c-0.6,0-1.1,0.5-1.1,1.1v4
				c0,0.6,0.5,1.1,1.1,1.1H47.2z M6.2,57.1h30.3c-0.5-1.5-0.8-3.2-0.8-4.8H6.2c-0.8,0-1.4-0.6-1.4-1.4V22.3h47.5v13.3
				c1.7,0,3.3,0.3,4.8,0.7v-24c0-3.5-2.8-6.3-6.3-6.3h-7V2.2c0-1.3-1-2.3-2.3-2.3h-3.6c-1.3,0-2.3,1-2.3,2.3v3.9H21.3V2.2
				c0-1.3-1-2.3-2.3-2.3h-3.6c-1.3,0-2.3,1-2.3,2.3v3.9h-7c-3.5,0-6.3,2.8-6.3,6.3v38.5C-0.1,54.3,2.7,57.1,6.2,57.1z M64.1,52.1
				c0,6.6-5.4,12-12,12s-12-5.4-12-12s5.4-12,12-12S64.1,45.5,64.1,52.1z M58.2,49c0-0.4-0.1-0.7-0.4-1c-0.6-0.6-1.5-0.6-2,0
				l-5.2,5.2l-2-2c-0.6-0.6-1.5-0.6-2,0c-0.3,0.3-0.4,0.6-0.4,1c0,0.4,0.1,0.7,0.4,1l3,3c0.6,0.6,1.5,0.6,2,0l6.2-6.2
				C58,49.7,58.2,49.4,58.2,49z"/>
		</g>
	</g>
	<path class="st10" d="M22.2,32.2h-4.1c-0.6,0-1-0.4-1-1v-4.1c0-0.6,0.4-1,1-1h4.1c0.6,0,1,0.4,1,1v4.1
		C23.2,31.8,22.8,32.2,22.2,32.2z"/>
	<path class="st10" d="M30.5,32.2h-4.1c-0.6,0-1-0.4-1-1v-4.1c0-0.6,0.4-1,1-1h4.1c0.6,0,1,0.4,1,1v4.1
		C31.5,31.8,31.1,32.2,30.5,32.2z"/>
	<path class="st10" d="M38.9,32.2h-4.1c-0.6,0-1-0.4-1-1v-4.1c0-0.6,0.4-1,1-1h4.1c0.6,0,1,0.4,1,1v4.1
		C39.9,31.8,39.5,32.2,38.9,32.2z"/>
	<path class="st10" d="M22.2,40.3h-4.1c-0.6,0-1-0.4-1-1v-4.1c0-0.6,0.4-1,1-1h4.1c0.6,0,1,0.4,1,1v4.1
		C23.2,39.9,22.8,40.3,22.2,40.3z"/>
	<path class="st10" d="M30.5,40.3h-4.1c-0.6,0-1-0.4-1-1v-4.1c0-0.6,0.4-1,1-1h4.1c0.6,0,1,0.4,1,1v4.1
		C31.5,39.9,31.1,40.3,30.5,40.3z"/>
	<path class="st10" d="M22.2,48.4h-4.1c-0.6,0-1-0.4-1-1v-4.1c0-0.6,0.4-1,1-1h4.1c0.6,0,1,0.4,1,1v4.1C23.2,48,22.8,48.4,22.2,48.4
		z"/>
	<path class="st10" d="M13.9,40.3H9.8c-0.6,0-1-0.4-1-1v-4.1c0-0.6,0.4-1,1-1h4.1c0.6,0,1,0.4,1,1v4.1
		C14.9,39.9,14.4,40.3,13.9,40.3z"/>
	<path class="st10" d="M13.9,48.4H9.8c-0.6,0-1-0.4-1-1v-4.1c0-0.6,0.4-1,1-1h4.1c0.6,0,1,0.4,1,1v4.1C14.9,48,14.4,48.4,13.9,48.4z
		"/>
	<path class="st10" d="M30.5,48.4h-4.1c-0.6,0-1-0.4-1-1v-4.1c0-0.6,0.4-1,1-1h4.1c0.6,0,1,0.4,1,1v4.1C31.5,48,31.1,48.4,30.5,48.4
		z"/>
	<path class="st10" d="M38.9,40.3h-4.1c-0.6,0-1-0.4-1-1v-4.1c0-0.6,0.4-1,1-1h4.1c0.6,0,1,0.4,1,1v4.1
		C39.9,39.9,39.5,40.3,38.9,40.3z"/>
	<path class="st10" d="M47.2,32.2h-4.1c-0.6,0-1-0.4-1-1v-4.1c0-0.6,0.4-1,1-1h4.1c0.6,0,1,0.4,1,1v4.1
		C48.2,31.8,47.8,32.2,47.2,32.2z"/>
</g>
<g id="Calque_6" class="st0">
	<g class="st1">
		<rect x="30.9" y="18.8" class="st11" width="2.2" height="26.3"/>
		<polygon class="st11" points="57.2,45.2 55,45.2 55,33.1 9,33.1 9,45.2 6.8,45.2 6.8,30.9 57.2,30.9 		"/>
		<path class="st4" d="M7.9,60.5L7.9,60.5c-4.2,0-7.7-3.4-7.7-7.7l0,0c0-4.2,3.4-7.7,7.7-7.7l0,0c4.2,0,7.7,3.4,7.7,7.7l0,0
			C15.5,57.1,12.1,60.5,7.9,60.5z"/>
		<path class="st4" d="M56.1,60.5L56.1,60.5c-4.2,0-7.7-3.4-7.7-7.7l0,0c0-4.2,3.4-7.7,7.7-7.7l0,0c4.2,0,7.7,3.4,7.7,7.7l0,0
			C63.8,57.1,60.4,60.5,56.1,60.5z"/>
		<path class="st4" d="M32,60.5L32,60.5c-4.2,0-7.7-3.4-7.7-7.7l0,0c0-4.2,3.4-7.7,7.7-7.7l0,0c4.2,0,7.7,3.4,7.7,7.7l0,0
			C39.7,57.1,36.2,60.5,32,60.5z"/>
		<path class="st4" d="M32,18.8L32,18.8c-4.2,0-7.7-3.4-7.7-7.7l0,0c0-4.2,3.4-7.7,7.7-7.7l0,0c4.2,0,7.7,3.4,7.7,7.7l0,0
			C39.7,15.4,36.2,18.8,32,18.8z"/>
	</g>
</g>
<g id="Calque_7" class="st0">
	<g class="st1">
		<g>
			<path class="st12" d="M38.8,23.8c-0.7,0-1.2,0.6-1.2,1.2s0.6,1.2,1.2,1.2S40,25.7,40,25S39.5,23.8,38.8,23.8z"/>
		</g>
	</g>
	<g class="st1">
		<g>
			<path class="st4" d="M62.6,55.5L45.9,38.8C48.6,34.7,50,29.9,50,25C50,11.2,38.8,0,25,0S0,11.2,0,25s11.2,25,25,25
				c4.9,0,9.7-1.4,13.8-4.1l4.6,4.6c0,0,0,0,0,0l12.1,12.1c0.9,0.9,2.2,1.5,3.5,1.5s2.6-0.5,3.5-1.5c0.9-0.9,1.5-2.2,1.5-3.5
				S63.5,56.4,62.6,55.5z M38.2,43.2C38.2,43.2,38.2,43.2,38.2,43.2c-3.9,2.8-8.4,4.3-13.2,4.3C12.6,47.5,2.5,37.4,2.5,25
				S12.6,2.5,25,2.5S47.5,12.6,47.5,25c0,4.8-1.5,9.3-4.3,13.2C41.8,40.1,40.1,41.8,38.2,43.2z M40.8,44.3c1.3-1.1,2.5-2.2,3.5-3.5
				l3.5,3.5c-1.1,1.3-2.3,2.5-3.5,3.5L40.8,44.3z M60.8,60.8c-0.5,0.5-1.1,0.7-1.8,0.7s-1.3-0.3-1.8-0.7L46.1,49.7
				c1.3-1.1,2.4-2.3,3.5-3.5l11.1,11.1c0.5,0.5,0.7,1.1,0.7,1.8S61.3,60.3,60.8,60.8z"/>
		</g>
	</g>
	<g class="st1">
		<g>
			<path class="st13" d="M25,5C14,5,5,14,5,25s9,20,20,20s20-9,20-20S36,5,25,5z M25,42.5c-9.6,0-17.5-7.9-17.5-17.5
				S15.4,7.5,25,7.5S42.5,15.4,42.5,25S34.7,42.5,25,42.5z"/>
		</g>
	</g>
	<g class="st1">
		<g>
			<path class="st12" d="M39,19.6c-1.1-2.8-3-5.2-5.4-6.9C31.1,10.9,28.1,10,25,10c-0.7,0-1.2,0.6-1.2,1.2s0.6,1.2,1.2,1.2
				c5.1,0,9.8,3.2,11.7,8c0.2,0.5,0.7,0.8,1.2,0.8c0.1,0,0.3,0,0.4-0.1C39,21,39.3,20.3,39,19.6z"/>
		</g>
	</g>
</g>
<g id="Calque_8">
	<path class="st13" d="M34.4,7.3c-1.3-1.3-3.5-1.3-4.8,0L7.3,29.6C6,30.9,6,33,7.3,34.4l22.3,22.3c1.3,1.3,3.5,1.3,4.8,0l22.3-22.3
		c1.3-1.3,1.3-3.5,0-4.8L34.4,7.3z M55.1,32.8L32.8,55c-0.4,0.4-1.2,0.4-1.6,0L8.9,32.8c-0.4-0.4-0.4-1.2,0-1.6L31.2,8.9
		c0.4-0.4,1.2-0.4,1.6,0l22.3,22.3C55.5,31.6,55.5,32.3,55.1,32.8z"/>
	<path class="st4" d="M34.4,1c-1.3-1.3-3.4-1.3-4.8,0L1,29.6c-1.3,1.3-1.3,3.5,0,4.8L29.6,63c1.3,1.3,3.5,1.3,4.8,0L63,34.4
		c1.3-1.3,1.3-3.5,0-4.8L34.4,1z M61.4,32.8L32.8,61.4c-0.4,0.4-1.2,0.4-1.6,0L2.6,32.8c-0.4-0.4-0.4-1.2,0-1.6L31.2,2.5
		c0.4-0.4,1.2-0.4,1.6,0l28.6,28.6C61.9,31.6,61.9,32.3,61.4,32.8z"/>
	<path class="st12" d="M31.8,15.4c-1.2,0-2.3,0.5-3.1,1.3c-0.8,0.9-1.2,2-1.2,3.2L28.3,35c0.1,1.8,1.6,3.2,3.4,3.2h0.2
		c1.8,0,3.3-1.4,3.4-3.2L36.1,20c0.1-1.2-0.4-2.3-1.2-3.2C34.1,15.9,33,15.4,31.8,15.4z M33.1,34.9c0,0.6-0.5,1.1-1.1,1.1h-0.2
		c-0.6,0-1.1-0.5-1.1-1.1l-0.8-15.1c0-0.8,0.3-1.5,1-1.9c0.7-0.4,1.5-0.4,2.1,0c0.7,0.4,1,1.1,1,1.9L33.1,34.9z"/>
	<path class="st12" d="M32,40.5c-1.9,0-3.4,1.5-3.4,3.4s1.5,3.4,3.4,3.4c1.9,0,3.4-1.5,3.4-3.4S33.9,40.5,32,40.5z M32,45
		c-0.6,0-1.1-0.5-1.1-1.1s0.5-1.1,1.1-1.1c0.6,0,1.1,0.5,1.1,1.1S32.6,45,32,45z"/>
</g>
</svg>
