<svg id="Calque_5" data-name="Calque 5" xmlns="http://www.w3.org/2000/svg" viewBox="0 0 64.21 64.11"><defs><style>.cls-2{fill:#fff}</style></defs><path d="M23.23 31.15a1.05 1.05 0 0 1-1.06 1.06h-4a1.05 1.05 0 0 1-1.06-1.06v-4a1.06 1.06 0 0 1 1.06-1.07h4a1.06 1.06 0 0 1 1.06 1.07zm8.34-4a1.06 1.06 0 0 0-1.07-1.06h-4a1.05 1.05 0 0 0-1.06 1.06v4a1.05 1.05 0 0 0 1.06 1.06h4a1.06 1.06 0 0 0 1.07-1.06zm8.33 0a1.05 1.05 0 0 0-1.06-1.06h-4a1.05 1.05 0 0 0-1.06 1.06v4a1.05 1.05 0 0 0 1.06 1.06h4a1.05 1.05 0 0 0 1.06-1.06zm-16.67 8.13a1.05 1.05 0 0 0-1.06-1.06h-4a1.05 1.05 0 0 0-1.06 1.06v4a1.06 1.06 0 0 0 1.06 1.07h4a1.06 1.06 0 0 0 1.06-1.07zm8.34 0a1.06 1.06 0 0 0-1.07-1.06h-4a1.05 1.05 0 0 0-1.06 1.06v4a1.06 1.06 0 0 0 1.06 1.07h4a1.07 1.07 0 0 0 1.07-1.07zm7.27-1.06h-4a1.05 1.05 0 0 0-1.06 1.06v4a1.06 1.06 0 0 0 1.06 1.07h4a1.06 1.06 0 0 0 1.06-1.07v-4a1.05 1.05 0 0 0-1.06-1.06zm-25 8.11h-4a1.05 1.05 0 0 0-1.06 1.06v4a1.06 1.06 0 0 0 1.06 1.07h4a1.07 1.07 0 0 0 1.07-1.07v-4a1.07 1.07 0 0 0-1.09-1.06zm1.08-7a1.06 1.06 0 0 0-1.07-1.06h-4a1.05 1.05 0 0 0-1.06 1.06v4a1.06 1.06 0 0 0 1.06 1.07h4a1.07 1.07 0 0 0 1.07-1.07zm15.6 7h-4a1.05 1.05 0 0 0-1.06 1.06v4a1.06 1.06 0 0 0 1.06 1.07h4a1.07 1.07 0 0 0 1.07-1.07v-4a1.06 1.06 0 0 0-1.09-1.06zm-8.33 0h-4a1.05 1.05 0 0 0-1.06 1.06v4a1.06 1.06 0 0 0 1.06 1.07h4a1.06 1.06 0 0 0 1.06-1.07v-4a1.05 1.05 0 0 0-1.08-1.06zm25-10.11a1.06 1.06 0 0 0 1.07-1.06v-4a1.06 1.06 0 0 0-1.07-1.06h-4a1.05 1.05 0 0 0-1.06 1.06v4a1.05 1.05 0 0 0 1.06 1.06zm-41 24.89h30.25a16.39 16.39 0 0 1-.78-4.83H6.15a1.42 1.42 0 0 1-1.41-1.42V22.34h47.47v13.27a16.05 16.05 0 0 1 4.83.75v-24a6.26 6.26 0 0 0-6.26-6.26h-7V2.23A2.28 2.28 0 0 0 41.49 0h-3.56a2.28 2.28 0 0 0-2.28 2.28V6.1H21.29V2.23A2.28 2.28 0 0 0 19 0h-3.55a2.29 2.29 0 0 0-2.29 2.28V6.1h-7a6.27 6.27 0 0 0-6.27 6.26v38.5a6.27 6.27 0 0 0 6.26 6.25zm58-5a12 12 0 1 1-12-12A12 12 0 0 1 64.11 52.1zm-6-3.11a1.41 1.41 0 0 0-.42-1 1.43 1.43 0 0 0-2 0l-5.2 5.2-2-2a1.44 1.44 0 0 0-2.46 1 1.41 1.41 0 0 0 .42 1l3 3a1.44 1.44 0 0 0 2 0l6.22-6.2a1.35 1.35 0 0 0 .44-1z" transform="translate(.11 .05)" fill="#4c6cf6"/><rect class="cls-2" x="17.22" y="26.16" width="6.12" height="6.12" rx="1"/><rect class="cls-2" x="25.52" y="26.16" width="6.12" height="6.12" rx="1"/><rect class="cls-2" x="33.89" y="26.16" width="6.12" height="6.12" rx="1"/><rect class="cls-2" x="17.22" y="34.27" width="6.12" height="6.12" rx="1"/><rect class="cls-2" x="25.52" y="34.27" width="6.12" height="6.12" rx="1"/><rect class="cls-2" x="17.22" y="42.38" width="6.12" height="6.12" rx="1"/><rect class="cls-2" x="8.89" y="34.27" width="6.12" height="6.12" rx="1"/><rect class="cls-2" x="8.89" y="42.38" width="6.12" height="6.12" rx="1"/><rect class="cls-2" x="25.52" y="42.38" width="6.12" height="6.12" rx="1"/><rect class="cls-2" x="33.89" y="34.27" width="6.12" height="6.12" rx="1"/><rect class="cls-2" x="42.23" y="26.16" width="6.12" height="6.12" rx="1"/></svg>