<svg id="Calque_9" data-name="Calque 9" xmlns="http://www.w3.org/2000/svg" viewBox="0 0 64.06 64.11"><defs><style>.cls-2{fill:#fff}</style></defs><path d="M61.29 13.79l-1.55-.48a4.82 4.82 0 0 0-1.26-.2 4.18 4.18 0 0 0-3.89 2.82l-.87 2.62v-2a1.2 1.2 0 0 0-.39-.77L37.4.29a1.09 1.09 0 0 0-.68-.29H5.54a.91.91 0 0 0-1 1v3H1a.92.92 0 0 0-1 1v58.14a.92.92 0 0 0 1 1h47.18a.92.92 0 0 0 1-1v-3h3.59a.92.92 0 0 0 1-1V46l2.72-3.69.09-.29 7.29-23.22a3.87 3.87 0 0 0-2.58-5.01zM37.69 3.3l12.72 12.24H37.69zm9.52 58.87H1.94V5.93h2.63v53.23a.91.91 0 0 0 1 1h41.64v2zm4.66-4H6.51V1.94h29.24v14.57a.91.91 0 0 0 1 1h15.12v7.29L47.3 39.15v.29l.2 12.33a1 1 0 0 0 1.75.49l2.62-3.5v9.42zm-2.53-9.42l-.19-8.06L54 42.25zm12.73-30.5l-7 22.25-5.64-1.85 7-22.15a2.1 2.1 0 0 1 2.62-1.36l1.55.49a2 2 0 0 1 1.47 2.63z" fill="#4c6cf6"/><path class="cls-2" d="M13.11 17.48h14a.91.91 0 0 0 1-1V6.61a.92.92 0 0 0-1-1h-14a.92.92 0 0 0-1 1v9.9a1 1 0 0 0 1 .97zm1-9.9h12v8h-12zM11.17 26.62H40.7a1 1 0 0 0 0-1.95H11.17a1 1 0 0 0 0 1.95zM11.17 33.71H40.7a1 1 0 0 0 0-1.95H11.17a1 1 0 0 0 0 1.95zM11.17 40.8H40.7a1 1 0 0 0 0-1.95H11.17a1 1 0 0 0 0 1.95zM41.57 46.92a.91.91 0 0 0-1-1h-29.4a1 1 0 0 0 0 1.94H40.7a1 1 0 0 0 .87-.94zM44.78 53H30.11a1 1 0 0 0 0 1.94h14.57a.91.91 0 0 0 1-1 .89.89 0 0 0-.9-.94z"/></svg>