<svg xmlns="http://www.w3.org/2000/svg" viewBox="0 0 64 64"><style>.st0{display:none}.st1{display:inline}.st4{fill:#4c6cf6}.st7,.st8{display:inline;fill:#2e88f6}.st8{fill:#2ea8f6}.st9{fill:#4396f6}</style><g id="Calque_1" class="st0"><g class="st1"><path d="M32 0c17.7 0 32 14.3 32 32S49.7 64 32 64 0 49.7 0 32 14.3 0 32 0z" fill="#f6f7fc"/><path d="M32 10c12.1 0 22 9.8 22 22 0 12.1-9.8 22-22 22s-22-9.9-22-22c0-12.2 9.8-22 22-22z" fill="#5d7af6"/><path class="st4" d="M32 20c6.6 0 12 5.4 12 12s-5.4 12-12 12-12-5.4-12-12 5.4-12 12-12z"/><path d="M34 52c-12.1 0-22-9.9-22-22 0-5.6 2.1-10.6 5.5-14.5-4.6 4-7.5 9.9-7.5 16.5 0 12.1 9.8 22 22 22 6.6 0 12.5-2.9 16.5-7.5C44.6 49.9 39.6 52 34 52z" fill="#5d58f6"/></g></g><g id="Calque_2" class="st0"><path d="M24.9 30.4l-23.1 12c-2.5 1.3-2.5 4.9 0 6.2L25 60.3c4.3 2.2 9.5 2.2 13.8 0L62 48.6c2.5-1.3 2.5-4.9 0-6.2l-23.1-12c-4.3-2.3-9.5-2.3-14 0z" fill="#4c6cf6"/><path class="st7" d="M24.9 17.2l-23.1 12c-2.5 1.3-2.5 4.9 0 6.2L25 47.1c4.3 2.2 9.5 2.2 13.8 0L62 35.4c2.5-1.3 2.5-4.9 0-6.2l-23.1-12c-4.3-2.3-9.5-2.3-14 0z"/><path class="st7" d="M38.9 46.9l16.3-8.2-16.1-8.4c-4.4-2.3-9.7-2.3-14.2 0L8.8 38.8 25.1 47c4.3 2.1 9.5 2.1 13.8-.1z"/><path class="st8" d="M24.9 3.9l-23.1 12c-2.5 1.3-2.5 4.9 0 6.2L25 33.8c4.3 2.2 9.5 2.2 13.8 0L62.1 22c2.5-1.3 2.5-4.9 0-6.2L39 3.8c-4.4-2.2-9.6-2.2-14.1.1z"/><path class="st8" d="M38.9 33.7l16.3-8.2-16.1-8.4c-4.4-2.3-9.7-2.3-14.2 0L8.8 25.5l16.3 8.2c4.3 2.2 9.5 2.2 13.8 0z"/><path class="st8" d="M38.9 33.7l3.3-1.7-3.1-1.6c-4.4-2.3-9.7-2.3-14.2 0L21.8 32l3.3 1.7c4.3 2.2 9.5 2.2 13.8 0z"/></g><g id="Calque_3" class="st0"><g class="st1"><path class="st9" d="M50 23.3h1.1c1.7 0 3.1 1.4 3.1 3.1v4.9c0 .3-.2.6-.4.8-.4.2-.6.6-.6 1.1v4.7c0 .6.3 1.1.8 1.4.6.3 3.8 1.9 6.7 4.3.2.2.4.5.4.8v3.3c0 .7.6 1.3 1.3 1.3.7 0 1.3-.6 1.3-1.3v-3.3c0-1.1-.5-2.1-1.3-2.8-2.6-2.1-5.3-3.7-6.6-4.3v-3.5c.6-.6 1-1.5 1-2.4v-4.9c0-3.1-2.6-5.7-5.7-5.7H50c-3.1 0-5.7 2.6-5.7 5.7v4.9c0 .9.4 1.8 1 2.4v1.7c0 .7.6 1.3 1.3 1.3.7 0 1.3-.6 1.3-1.3v-2.3c0-.4-.2-.8-.6-1.1-.3-.2-.4-.5-.4-.8v-4.9c0-1.7 1.4-3.1 3.1-3.1zM1.4 41.5c-.8.7-1.3 1.7-1.3 2.8v3.3c0 .7.6 1.3 1.3 1.3s1.3-.6 1.3-1.3v-3.3c0-.3.1-.6.4-.8 2.9-2.4 6.1-4 6.7-4.3.5-.3.8-.8.8-1.4v-4.7c0-.4-.2-.8-.6-1.1-.3-.2-.4-.5-.4-.8v-4.9c0-1.7 1.4-3.1 3.1-3.1h1.1c1.7 0 3.1 1.4 3.1 3.1v4.9c0 .3-.2.6-.4.8-.4.2-.6.6-.6 1.1v2.4c0 .7.6 1.3 1.3 1.3s1.3-.6 1.3-1.3v-1.8c.6-.6 1-1.5 1-2.4v-4.9c0-3.1-2.6-5.7-5.7-5.7h-1.1c-3.1 0-5.7 2.6-5.7 5.7v4.9c0 .9.4 1.8 1 2.4v3.5c-1.2.7-4 2.2-6.6 4.3z"/><path class="st4" d="M47.3 49c.7 0 1.3-.6 1.3-1.3v-4.3c0-1.3-.6-2.5-1.6-3.4-3.5-2.9-7.2-4.9-8.7-5.7v-4.9c.8-.8 1.3-1.8 1.3-3v-6.3c0-3.9-3.1-7-7-7h-1.4c-3.9 0-7 3.1-7 7v6.3c0 1.1.5 2.2 1.3 3v4.9c-1.5.8-5.2 2.8-8.7 5.7-1 .8-1.6 2.1-1.6 3.4v4.3c0 .7.6 1.3 1.3 1.3.7 0 1.3-.6 1.3-1.3v-4.3c0-.5.2-1 .6-1.4 3.8-3.1 8-5.2 8.8-5.6.5-.3.9-.8.9-1.4v-6.1c0-.4-.2-.8-.6-1.1-.4-.3-.7-.8-.7-1.3v-6.3c0-2.4 2-4.4 4.4-4.4h1.4c2.4 0 4.4 2 4.4 4.4v6.3c0 .5-.3 1-.7 1.3-.4.2-.6.6-.6 1.1V35c0 .6.3 1.1.9 1.4.8.4 4.9 2.5 8.8 5.6.4.3.6.8.6 1.4v4.3c.1.7.6 1.3 1.3 1.3z"/></g></g><path class="st4" d="M51.5 60.6c-.5 0-1-.1-1.4-.4L34 49.3l-8.6 6.2c-.7.5-1.5.6-2.3.3-.8-.3-1.4-.9-1.6-1.7l-4.3-16.4-15.6-6c-1-.4-1.6-1.3-1.6-2.3 0-1 .6-2 1.6-2.4L60.5 3.6c.3-.1.5-.2.8-.2h.3c.6 0 1.2.3 1.6.7l.1.1c.4.4.6 1 .6 1.5v.7L54 58.6c-.2.8-.7 1.5-1.5 1.9-.3.1-.7.1-1 .1zM35.4 44.1l14.3 9.7 7.7-40.6-27.8 26.9 5.8 4zm-11.9-2.2l1.9 7.3 4.1-3-5.4-3.7c-.2-.1-.4-.3-.6-.6zm-14-12.6l10.6 4.1c.8.3 1.3.9 1.5 1.7l1.3 5.1c.1-.6.3-1.1.8-1.6L50.4 13 9.5 29.3z" id="Calque_4"/></svg>