<svg xmlns="http://www.w3.org/2000/svg" viewBox="0 0 64 64"><style>.st6{display:inline;fill:#7de2e2}</style><g id="Calque_1"><path d="M32 0c17.7 0 32 14.3 32 32S49.7 64 32 64 0 49.7 0 32 14.3 0 32 0z" fill="#f6f7fc"/><path d="M32 10c12.1 0 22 9.8 22 22 0 12.1-9.8 22-22 22s-22-9.9-22-22c0-12.2 9.8-22 22-22z" fill="#5d7af6"/><path d="M32 20c6.6 0 12 5.4 12 12s-5.4 12-12 12-12-5.4-12-12 5.4-12 12-12z" fill="#4c6cf6"/><path d="M34 52c-12.1 0-22-9.9-22-22 0-5.6 2.1-10.6 5.5-14.5-4.6 4-7.5 9.9-7.5 16.5 0 12.1 9.8 22 22 22 6.6 0 12.5-2.9 16.5-7.5C44.6 49.9 39.6 52 34 52z" fill="#5d58f6"/></g></svg>