<svg xmlns="http://www.w3.org/2000/svg" viewBox="0 0 64 64"><style>.st4{fill:#4c6cf6}.st6{fill:#2e88f6}.st7{fill:#2ea8f6}</style><g id="Calque_2"><path class="st4" d="M24.9 30.4l-23.1 12c-2.5 1.3-2.5 4.9 0 6.2L25 60.3c4.3 2.2 9.5 2.2 13.8 0L62 48.6c2.5-1.3 2.5-4.9 0-6.2l-23.1-12c-4.3-2.3-9.5-2.3-14 0z"/><path class="st6" d="M24.9 17.2l-23.1 12c-2.5 1.3-2.5 4.9 0 6.2L25 47.1c4.3 2.2 9.5 2.2 13.8 0L62 35.4c2.5-1.3 2.5-4.9 0-6.2l-23.1-12c-4.3-2.3-9.5-2.3-14 0z"/><path class="st6" d="M38.9 46.9l16.3-8.2-16.1-8.4c-4.4-2.3-9.7-2.3-14.2 0L8.8 38.8 25.1 47c4.3 2.1 9.5 2.1 13.8-.1z"/><path class="st7" d="M24.9 3.9l-23.1 12c-2.5 1.3-2.5 4.9 0 6.2L25 33.8c4.3 2.2 9.5 2.2 13.8 0L62.1 22c2.5-1.3 2.5-4.9 0-6.2L39 3.8c-4.4-2.2-9.6-2.2-14.1.1z"/><path class="st7" d="M38.9 33.7l16.3-8.2-16.1-8.4c-4.4-2.3-9.7-2.3-14.2 0L8.8 25.5l16.3 8.2c4.3 2.2 9.5 2.2 13.8 0z"/><path class="st7" d="M38.9 33.7l3.3-1.7-3.1-1.6c-4.4-2.3-9.7-2.3-14.2 0L21.8 32l3.3 1.7c4.3 2.2 9.5 2.2 13.8 0z"/></g></svg>