<svg xmlns="http://www.w3.org/2000/svg" viewBox="0 0 64 64"><style>.st0{display:none}.st1{display:inline}.st4{fill:#4c6cf6}.st6,.st7,.st8{display:inline;fill:#4c6cf6}.st7,.st8{fill:#2e88f6}.st8{fill:#2ea8f6}.st9{fill:#4396f6}.st10{display:inline;fill:#8aa4ff}.st11{fill:#338ff6}.st12{fill:#4c93f6}.st13{fill:#4c81f6}.st15{display:inline;fill:#4c93f6}</style><g id="Calque_1" class="st0"><g class="st1"><path d="M32 0c17.7 0 32 14.3 32 32S49.7 64 32 64 0 49.7 0 32 14.3 0 32 0z" fill="#f6f7fc"/><path d="M32 10c12.1 0 22 9.8 22 22 0 12.1-9.8 22-22 22s-22-9.9-22-22c0-12.2 9.8-22 22-22z" fill="#5d7af6"/><path class="st4" d="M32 20c6.6 0 12 5.4 12 12s-5.4 12-12 12-12-5.4-12-12 5.4-12 12-12z"/><path d="M34 52c-12.1 0-22-9.9-22-22 0-5.6 2.1-10.6 5.5-14.5-4.6 4-7.5 9.9-7.5 16.5 0 12.1 9.8 22 22 22 6.6 0 12.5-2.9 16.5-7.5C44.6 49.9 39.6 52 34 52z" fill="#5d58f6"/></g></g><g id="Calque_2" class="st0"><path class="st6" d="M24.9 30.4l-23.1 12c-2.5 1.3-2.5 4.9 0 6.2L25 60.3c4.3 2.2 9.5 2.2 13.8 0L62 48.6c2.5-1.3 2.5-4.9 0-6.2l-23.1-12c-4.3-2.3-9.5-2.3-14 0z"/><path class="st7" d="M24.9 17.2l-23.1 12c-2.5 1.3-2.5 4.9 0 6.2L25 47.1c4.3 2.2 9.5 2.2 13.8 0L62 35.4c2.5-1.3 2.5-4.9 0-6.2l-23.1-12c-4.3-2.3-9.5-2.3-14 0z"/><path class="st7" d="M38.9 46.9l16.3-8.2-16.1-8.4c-4.4-2.3-9.7-2.3-14.2 0L8.8 38.8 25.1 47c4.3 2.1 9.5 2.1 13.8-.1z"/><path class="st8" d="M24.9 3.9l-23.1 12c-2.5 1.3-2.5 4.9 0 6.2L25 33.8c4.3 2.2 9.5 2.2 13.8 0L62.1 22c2.5-1.3 2.5-4.9 0-6.2L39 3.8c-4.4-2.2-9.6-2.2-14.1.1z"/><path class="st8" d="M38.9 33.7l16.3-8.2-16.1-8.4c-4.4-2.3-9.7-2.3-14.2 0L8.8 25.5l16.3 8.2c4.3 2.2 9.5 2.2 13.8 0z"/><path class="st8" d="M38.9 33.7l3.3-1.7-3.1-1.6c-4.4-2.3-9.7-2.3-14.2 0L21.8 32l3.3 1.7c4.3 2.2 9.5 2.2 13.8 0z"/></g><g id="Calque_3" class="st0"><g class="st1"><path class="st9" d="M50 23.3h1.1c1.7 0 3.1 1.4 3.1 3.1v4.9c0 .3-.2.6-.4.8-.4.2-.6.6-.6 1.1v4.7c0 .6.3 1.1.8 1.4.6.3 3.8 1.9 6.7 4.3.2.2.4.5.4.8v3.3c0 .7.6 1.3 1.3 1.3.7 0 1.3-.6 1.3-1.3v-3.3c0-1.1-.5-2.1-1.3-2.8-2.6-2.1-5.3-3.7-6.6-4.3v-3.5c.6-.6 1-1.5 1-2.4v-4.9c0-3.1-2.6-5.7-5.7-5.7H50c-3.1 0-5.7 2.6-5.7 5.7v4.9c0 .9.4 1.8 1 2.4v1.7c0 .7.6 1.3 1.3 1.3.7 0 1.3-.6 1.3-1.3v-2.3c0-.4-.2-.8-.6-1.1-.3-.2-.4-.5-.4-.8v-4.9c0-1.7 1.4-3.1 3.1-3.1zM1.4 41.5c-.8.7-1.3 1.7-1.3 2.8v3.3c0 .7.6 1.3 1.3 1.3s1.3-.6 1.3-1.3v-3.3c0-.3.1-.6.4-.8 2.9-2.4 6.1-4 6.7-4.3.5-.3.8-.8.8-1.4v-4.7c0-.4-.2-.8-.6-1.1-.3-.2-.4-.5-.4-.8v-4.9c0-1.7 1.4-3.1 3.1-3.1h1.1c1.7 0 3.1 1.4 3.1 3.1v4.9c0 .3-.2.6-.4.8-.4.2-.6.6-.6 1.1v2.4c0 .7.6 1.3 1.3 1.3s1.3-.6 1.3-1.3v-1.8c.6-.6 1-1.5 1-2.4v-4.9c0-3.1-2.6-5.7-5.7-5.7h-1.1c-3.1 0-5.7 2.6-5.7 5.7v4.9c0 .9.4 1.8 1 2.4v3.5c-1.2.7-4 2.2-6.6 4.3z"/><path class="st4" d="M47.3 49c.7 0 1.3-.6 1.3-1.3v-4.3c0-1.3-.6-2.5-1.6-3.4-3.5-2.9-7.2-4.9-8.7-5.7v-4.9c.8-.8 1.3-1.8 1.3-3v-6.3c0-3.9-3.1-7-7-7h-1.4c-3.9 0-7 3.1-7 7v6.3c0 1.1.5 2.2 1.3 3v4.9c-1.5.8-5.2 2.8-8.7 5.7-1 .8-1.6 2.1-1.6 3.4v4.3c0 .7.6 1.3 1.3 1.3.7 0 1.3-.6 1.3-1.3v-4.3c0-.5.2-1 .6-1.4 3.8-3.1 8-5.2 8.8-5.6.5-.3.9-.8.9-1.4v-6.1c0-.4-.2-.8-.6-1.1-.4-.3-.7-.8-.7-1.3v-6.3c0-2.4 2-4.4 4.4-4.4h1.4c2.4 0 4.4 2 4.4 4.4v6.3c0 .5-.3 1-.7 1.3-.4.2-.6.6-.6 1.1V35c0 .6.3 1.1.9 1.4.8.4 4.9 2.5 8.8 5.6.4.3.6.8.6 1.4v4.3c.1.7.6 1.3 1.3 1.3z"/></g></g><g id="Calque_4" class="st0"><g class="st1"><path class="st4" d="M51.5 60.6c-.5 0-1-.1-1.4-.4L34 49.3l-8.6 6.2c-.7.5-1.5.6-2.3.3-.8-.3-1.4-.9-1.6-1.7l-4.3-16.4-15.6-6c-1-.4-1.6-1.3-1.6-2.3 0-1 .6-2 1.6-2.4L60.5 3.6c.3-.1.5-.2.8-.2h.3c.6 0 1.2.3 1.6.7l.1.1c.4.4.6 1 .6 1.5v.7L54 58.6c-.2.8-.7 1.5-1.5 1.9-.3.1-.7.1-1 .1zM35.4 44.1l14.3 9.7 7.7-40.6-27.8 26.9 5.8 4zm-11.9-2.2l1.9 7.3 4.1-3-5.4-3.7c-.2-.1-.4-.3-.6-.6zm-14-12.6l10.6 4.1c.8.3 1.3.9 1.5 1.7l1.3 5.1c.1-.6.3-1.1.8-1.6L50.4 13 9.5 29.3z"/></g></g><g id="Calque_5" class="st0"><g class="st1"><path class="st4" d="M23.2 31.1c0 .6-.5 1.1-1.1 1.1h-4c-.6 0-1.1-.5-1.1-1.1v-4c0-.6.5-1.1 1.1-1.1h4c.6 0 1.1.5 1.1 1.1v4zm8.4-3.9c0-.6-.5-1.1-1.1-1.1h-4c-.6 0-1.1.5-1.1 1.1v4c0 .6.5 1.1 1.1 1.1h4c.6 0 1.1-.5 1.1-1.1v-4zm8.3 0c0-.6-.5-1.1-1.1-1.1h-4c-.6 0-1.1.5-1.1 1.1v4c0 .6.5 1.1 1.1 1.1h4c.6 0 1.1-.5 1.1-1.1v-4zm-16.7 8.1c0-.6-.5-1.1-1.1-1.1h-4c-.6 0-1.1.5-1.1 1.1v4c0 .6.5 1.1 1.1 1.1h4c.6 0 1.1-.5 1.1-1.1v-4zm8.4 0c0-.6-.5-1.1-1.1-1.1h-4c-.6 0-1.1.5-1.1 1.1v4c0 .6.5 1.1 1.1 1.1h4c.6 0 1.1-.5 1.1-1.1v-4zm7.2-1.1h-4c-.6 0-1.1.5-1.1 1.1v4c0 .6.5 1.1 1.1 1.1h4c.6 0 1.1-.5 1.1-1.1v-4c0-.6-.5-1.1-1.1-1.1zm-25 8.1h-4c-.6 0-1.1.5-1.1 1.1v4c0 .6.5 1.1 1.1 1.1h4c.6 0 1.1-.5 1.1-1.1v-4c0-.6-.5-1.1-1.1-1.1zm1.1-7c0-.6-.5-1.1-1.1-1.1h-4c-.6 0-1.1.5-1.1 1.1v4c0 .6.5 1.1 1.1 1.1h4c.6 0 1.1-.5 1.1-1.1v-4zm15.6 7h-4c-.6 0-1.1.5-1.1 1.1v4c0 .6.5 1.1 1.1 1.1h4c.6 0 1.1-.5 1.1-1.1v-4c0-.6-.5-1.1-1.1-1.1zm-8.3 0h-4c-.6 0-1.1.5-1.1 1.1v4c0 .6.5 1.1 1.1 1.1h4c.6 0 1.1-.5 1.1-1.1v-4c-.1-.6-.5-1.1-1.1-1.1zm25-10.1c.6 0 1.1-.5 1.1-1.1v-4c0-.6-.5-1.1-1.1-1.1h-4c-.6 0-1.1.5-1.1 1.1v4c0 .6.5 1.1 1.1 1.1h4zm-41 24.9h30.3c-.5-1.5-.8-3.2-.8-4.8H6.2c-.8 0-1.4-.6-1.4-1.4V22.3h47.5v13.3c1.7 0 3.3.3 4.8.7v-24c0-3.5-2.8-6.3-6.3-6.3h-7V2.2c0-1.3-1-2.3-2.3-2.3h-3.6c-1.3 0-2.3 1-2.3 2.3v3.9H21.3V2.2c0-1.3-1-2.3-2.3-2.3h-3.6c-1.3 0-2.3 1-2.3 2.3v3.9h-7c-3.5 0-6.3 2.8-6.3 6.3v38.5c.1 3.4 2.9 6.2 6.4 6.2zm57.9-5c0 6.6-5.4 12-12 12s-12-5.4-12-12 5.4-12 12-12 12 5.4 12 12zM58.2 49c0-.4-.1-.7-.4-1-.6-.6-1.5-.6-2 0l-5.2 5.2-2-2c-.6-.6-1.5-.6-2 0-.3.3-.4.6-.4 1s.1.7.4 1l3 3c.6.6 1.5.6 2 0l6.2-6.2c.2-.3.4-.6.4-1z"/></g><path class="st10" d="M22.2 32.2h-4.1c-.6 0-1-.4-1-1v-4.1c0-.6.4-1 1-1h4.1c.6 0 1 .4 1 1v4.1c0 .6-.4 1-1 1zM30.5 32.2h-4.1c-.6 0-1-.4-1-1v-4.1c0-.6.4-1 1-1h4.1c.6 0 1 .4 1 1v4.1c0 .6-.4 1-1 1zM38.9 32.2h-4.1c-.6 0-1-.4-1-1v-4.1c0-.6.4-1 1-1h4.1c.6 0 1 .4 1 1v4.1c0 .6-.4 1-1 1zM22.2 40.3h-4.1c-.6 0-1-.4-1-1v-4.1c0-.6.4-1 1-1h4.1c.6 0 1 .4 1 1v4.1c0 .6-.4 1-1 1zM30.5 40.3h-4.1c-.6 0-1-.4-1-1v-4.1c0-.6.4-1 1-1h4.1c.6 0 1 .4 1 1v4.1c0 .6-.4 1-1 1zM22.2 48.4h-4.1c-.6 0-1-.4-1-1v-4.1c0-.6.4-1 1-1h4.1c.6 0 1 .4 1 1v4.1c0 .6-.4 1-1 1zM13.9 40.3H9.8c-.6 0-1-.4-1-1v-4.1c0-.6.4-1 1-1h4.1c.6 0 1 .4 1 1v4.1c0 .6-.5 1-1 1zM13.9 48.4H9.8c-.6 0-1-.4-1-1v-4.1c0-.6.4-1 1-1h4.1c.6 0 1 .4 1 1v4.1c0 .6-.5 1-1 1zM30.5 48.4h-4.1c-.6 0-1-.4-1-1v-4.1c0-.6.4-1 1-1h4.1c.6 0 1 .4 1 1v4.1c0 .6-.4 1-1 1zM38.9 40.3h-4.1c-.6 0-1-.4-1-1v-4.1c0-.6.4-1 1-1h4.1c.6 0 1 .4 1 1v4.1c0 .6-.4 1-1 1zM47.2 32.2h-4.1c-.6 0-1-.4-1-1v-4.1c0-.6.4-1 1-1h4.1c.6 0 1 .4 1 1v4.1c0 .6-.4 1-1 1z"/></g><g id="Calque_6" class="st0"><g class="st1"><path class="st11" d="M30.9 18.8h2.2v26.3h-2.2z"/><path class="st11" d="M57.2 45.2H55V33.1H9v12.1H6.8V30.9h50.4z"/><path class="st4" d="M7.9 60.5c-4.2 0-7.7-3.4-7.7-7.7 0-4.2 3.4-7.7 7.7-7.7 4.2 0 7.7 3.4 7.7 7.7-.1 4.3-3.5 7.7-7.7 7.7zM56.1 60.5c-4.2 0-7.7-3.4-7.7-7.7 0-4.2 3.4-7.7 7.7-7.7 4.2 0 7.7 3.4 7.7 7.7 0 4.3-3.4 7.7-7.7 7.7zM32 60.5c-4.2 0-7.7-3.4-7.7-7.7 0-4.2 3.4-7.7 7.7-7.7 4.2 0 7.7 3.4 7.7 7.7 0 4.3-3.5 7.7-7.7 7.7zM32 18.8c-4.2 0-7.7-3.4-7.7-7.7 0-4.2 3.4-7.7 7.7-7.7 4.2 0 7.7 3.4 7.7 7.7 0 4.3-3.5 7.7-7.7 7.7z"/></g></g><g id="Calque_7" class="st0"><g class="st1"><path class="st12" d="M38.8 23.8c-.7 0-1.2.6-1.2 1.2s.6 1.2 1.2 1.2S40 25.7 40 25s-.5-1.2-1.2-1.2z"/></g><g class="st1"><path class="st4" d="M62.6 55.5L45.9 38.8C48.6 34.7 50 29.9 50 25 50 11.2 38.8 0 25 0S0 11.2 0 25s11.2 25 25 25c4.9 0 9.7-1.4 13.8-4.1l4.6 4.6 12.1 12.1c.9.9 2.2 1.5 3.5 1.5s2.6-.5 3.5-1.5c.9-.9 1.5-2.2 1.5-3.5s-.5-2.7-1.4-3.6zM38.2 43.2c-3.9 2.8-8.4 4.3-13.2 4.3C12.6 47.5 2.5 37.4 2.5 25S12.6 2.5 25 2.5 47.5 12.6 47.5 25c0 4.8-1.5 9.3-4.3 13.2-1.4 1.9-3.1 3.6-5 5zm2.6 1.1c1.3-1.1 2.5-2.2 3.5-3.5l3.5 3.5c-1.1 1.3-2.3 2.5-3.5 3.5l-3.5-3.5zm20 16.5c-.5.5-1.1.7-1.8.7s-1.3-.3-1.8-.7L46.1 49.7c1.3-1.1 2.4-2.3 3.5-3.5l11.1 11.1c.5.5.7 1.1.7 1.8s-.1 1.2-.6 1.7z"/></g><g class="st1"><path class="st13" d="M25 5C14 5 5 14 5 25s9 20 20 20 20-9 20-20S36 5 25 5zm0 37.5c-9.6 0-17.5-7.9-17.5-17.5S15.4 7.5 25 7.5 42.5 15.4 42.5 25 34.7 42.5 25 42.5z"/></g><g class="st1"><path class="st12" d="M39 19.6c-1.1-2.8-3-5.2-5.4-6.9-2.5-1.8-5.5-2.7-8.6-2.7-.7 0-1.2.6-1.2 1.2s.6 1.2 1.2 1.2c5.1 0 9.8 3.2 11.7 8 .2.5.7.8 1.2.8.1 0 .3 0 .4-.1.7-.1 1-.8.7-1.5z"/></g></g><g id="Calque_8" class="st0"><path d="M34.4 7.3c-1.3-1.3-3.5-1.3-4.8 0L7.3 29.6C6 30.9 6 33 7.3 34.4l22.3 22.3c1.3 1.3 3.5 1.3 4.8 0l22.3-22.3c1.3-1.3 1.3-3.5 0-4.8L34.4 7.3zm20.7 25.5L32.8 55c-.4.4-1.2.4-1.6 0L8.9 32.8c-.4-.4-.4-1.2 0-1.6L31.2 8.9c.4-.4 1.2-.4 1.6 0l22.3 22.3c.4.4.4 1.1 0 1.6z" fill="#4c81f6"/><path class="st6" d="M34.4 1C33.1-.3 31-.3 29.6 1L1 29.6c-1.3 1.3-1.3 3.5 0 4.8L29.6 63c1.3 1.3 3.5 1.3 4.8 0L63 34.4c1.3-1.3 1.3-3.5 0-4.8L34.4 1zm27 31.8L32.8 61.4c-.4.4-1.2.4-1.6 0L2.6 32.8c-.4-.4-.4-1.2 0-1.6L31.2 2.5c.4-.4 1.2-.4 1.6 0l28.6 28.6c.5.5.5 1.2 0 1.7z"/><path class="st15" d="M31.8 15.4c-1.2 0-2.3.5-3.1 1.3-.8.9-1.2 2-1.2 3.2l.8 15.1a3.4 3.4 0 0 0 3.4 3.2h.2c1.8 0 3.3-1.4 3.4-3.2l.8-15c.1-1.2-.4-2.3-1.2-3.2a4.1 4.1 0 0 0-3.1-1.4zm1.3 19.5c0 .6-.5 1.1-1.1 1.1h-.2c-.6 0-1.1-.5-1.1-1.1l-.8-15.1c0-.8.3-1.5 1-1.9.7-.4 1.5-.4 2.1 0 .7.4 1 1.1 1 1.9l-.9 15.1zM32 40.5c-1.9 0-3.4 1.5-3.4 3.4s1.5 3.4 3.4 3.4 3.4-1.5 3.4-3.4-1.5-3.4-3.4-3.4zm0 4.5c-.6 0-1.1-.5-1.1-1.1s.5-1.1 1.1-1.1c.6 0 1.1.5 1.1 1.1S32.6 45 32 45z"/></g><g id="Calque_9" class="st0"><g class="st1"><path class="st4" d="M61.3 13.8l-1.6-.5c-.4-.1-.8-.2-1.3-.2-1.7 0-3.3 1.2-3.9 2.8l-.9 2.6v-2c0-.3-.2-.6-.4-.8L37.4.3c-.2-.2-.5-.3-.7-.3H5.5c-.6 0-1 .4-1 1v3H1c-.6 0-1 .4-1 1v58.2c0 .6.4 1 1 1h47.2c.6 0 1-.4 1-1v-3h3.6c.6 0 1-.4 1-1V46l2.7-3.7.1-.3 7.3-23.2c.7-2.1-.5-4.3-2.6-5zM37.7 3.3l12.7 12.2H37.7V3.3zm9.5 58.9H1.9V5.9h2.6v53.2c0 .6.4 1 1 1h41.7v2.1zm4.7-4H6.5V1.9h29.2v14.6c0 .6.4 1 1 1h15.2v7.3l-4.6 14.4v.3l.2 12.3c0 .4.3.8.7.9.4.1.9 0 1.1-.4l2.6-3.5v9.4zm-2.6-9.4l-.2-8.1 4.9 1.6-4.7 6.5zm12.8-30.5l-7 22.2-5.6-1.8 7-22.1c.4-1.1 1.6-1.7 2.6-1.4l1.6.5c1.1.2 1.8 1.5 1.4 2.6z"/><path class="st4" d="M13.1 17.5h14c.6 0 1-.4 1-1V6.6c0-.6-.4-1-1-1h-14c-.6 0-1 .4-1 1v9.9c0 .5.5 1 1 1zm1-9.9h12v8h-12v-8zM11.2 26.6h29.5c.6 0 1-.4 1-1s-.4-1-1-1H11.2c-.6 0-1 .4-1 1s.4 1 1 1zM11.2 33.7h29.5c.6 0 1-.4 1-1s-.4-1-1-1H11.2c-.6 0-1 .4-1 1s.4 1 1 1zM11.2 40.8h29.5c.6 0 1-.4 1-1s-.4-1-1-1H11.2c-.6 0-1 .4-1 1s.4 1 1 1zM41.6 46.9c0-.6-.4-1-1-1H11.2c-.6 0-1 .4-1 1s.4 1 1 1h29.5c.5 0 .9-.5.9-1zM44.8 53H30.1c-.6 0-1 .4-1 1s.4 1 1 1h14.6c.6 0 1-.4 1-1s-.4-1-.9-1z"/></g></g><g id="Calque_10"><path class="st4" d="M4.6 23.6c.3 1.1.8 2.2 1.4 3.3L4.3 29c-.5.7-.5 1.7.1 2.3l2.9 2.9c.6.6 1.6.7 2.3.1l2.1-1.6c1.1.6 2.2 1.1 3.4 1.4l.3 2.7c.1.9.8 1.5 1.7 1.5h4c.9 0 1.6-.6 1.7-1.5l.3-2.6c1.3-.3 2.5-.8 3.6-1.5l2 1.6c.7.5 1.7.5 2.3-.1l2.9-2.9c.6-.6.7-1.6.1-2.3l-1.6-2c.6-1.1 1.2-2.3 1.5-3.6l2.4-.3c.9-.1 1.5-.8 1.5-1.7v-4c0-.9-.6-1.6-1.5-1.7l-2.3-.3c-.3-1.2-.8-2.4-1.4-3.5L34 10c.5-.7.5-1.7-.1-2.3L31 4.9c-.6-.6-1.6-.7-2.3-.1l-1.8 1.4c-1.2-.7-2.4-1.2-3.7-1.6L23 2.3c-.1-.9-.8-1.5-1.7-1.5h-4c-.9 0-1.6.6-1.7 1.5l-.3 2.3c-1.3.4-2.6.9-3.8 1.6L9.6 4.8c-.7-.6-1.7-.5-2.3.1L4.5 7.7c-.7.7-.7 1.6-.2 2.3l1.6 2c-.6 1.1-1.1 2.3-1.4 3.6l-2.5.2c-.9.1-1.5.8-1.5 1.7v4c0 .9.6 1.6 1.5 1.7l2.6.4zm14.6-10.9a6.7 6.7 0 1 1-6.7 6.7c0-3.7 3.1-6.7 6.7-6.7z"/><path class="st13" d="M59.2 24.6L57 22.8c-.7-.6-1.6-.5-2.2.1L53.6 24c-1-.5-2-.8-3.1-1l-.3-1.6c-.2-.8-.9-1.4-1.8-1.4l-2.8.2c-.9.1-1.6.8-1.6 1.6v1.7c-1.1.4-2.1.9-3 1.6l-1.4-.9c-.7-.5-1.7-.3-2.2.3l-1.8 2.1c-.6.7-.5 1.6.1 2.2l1.2 1.3c-.4 1-.7 2-.9 3l-1.8.4c-.8.2-1.4.9-1.4 1.8l.2 2.8c.1.9.8 1.5 1.6 1.5l1.9.1c.3.9.8 1.8 1.3 2.6l-1.1 1.6c-.5.7-.3 1.7.3 2.2l2.1 1.8c.7.6 1.6.5 2.2-.1l1.4-1.3c.9.4 1.9.7 2.9.9l.4 1.9c.2.8.9 1.4 1.8 1.4l2.8-.2c.9-.1 1.5-.8 1.5-1.6l.1-1.9c1-.4 2-.8 2.9-1.4l1.5 1c.7.5 1.7.3 2.2-.3l1.8-2.1c.6-.7.5-1.6-.1-2.2l-1.2-1.3c.5-1 .8-2 1-3l1.7-.3c.8-.2 1.4-.9 1.4-1.8l-.2-2.8c-.1-.9-.8-1.5-1.6-1.5L60 31c-.4-1-.8-1.9-1.4-2.8l.9-1.4c.5-.7.3-1.7-.3-2.2zm-10.5 16c-3 .3-5.7-2-5.9-5-.3-3 2-5.7 5-5.9 3-.3 5.7 2 5.9 5 .2 3-2 5.7-5 5.9z"/><path class="st12" d="M14.3 48.1c-.9.1-1.5.8-1.5 1.7v1.7c0 .9.6 1.6 1.5 1.7l1.3.2c.2.8.5 1.5.9 2.2l-.8 1c-.5.7-.5 1.6.1 2.2L17 60c.6.6 1.6.7 2.2.2l1-.8c.7.4 1.5.8 2.2 1l.1 1.3c.1.9.8 1.5 1.7 1.5h1.7c.9 0 1.6-.6 1.7-1.5l.2-1.2c.9-.2 1.7-.5 2.4-.9l.9.8c.7.5 1.6.5 2.2-.1l1.2-1.2c.6-.6.7-1.6.2-2.2L34 56c.4-.7.8-1.5 1-2.4l1.1-.1c.9-.1 1.5-.8 1.5-1.7v-1.7c0-.9-.6-1.6-1.5-1.7l-1.1-.1c-.2-.8-.5-1.6-.9-2.4l.7-.8c.5-.7.5-1.6-.1-2.2l-1.2-1.2c-.6-.6-1.6-.7-2.2-.2l-.8.6c-.8-.5-1.6-.8-2.5-1.1v-1.2c-.1-.9-.8-1.5-1.7-1.5h-1.7c-.9 0-1.6.6-1.7 1.5l-.1 1.1c-.9.2-1.8.6-2.6 1l-.8-.7c-.7-.5-1.6-.5-2.2.1L16 42.5c-.6.6-.7 1.6-.2 2.2l.7.9c-.4.7-.8 1.5-1 2.4l-1.2.1zm11.1-1.9c2.5 0 4.4 2 4.4 4.5s-2 4.4-4.5 4.4-4.4-2-4.4-4.5 2-4.4 4.5-4.4z"/></g></svg>