<svg data-name="Calque 3" xmlns="http://www.w3.org/2000/svg" viewBox="0 0 63.65 35.83"><path d="M49.94 10.13h1a3.12 3.12 0 0 1 3.12 3.11v4.9a.89.89 0 0 1-.42.76 1.28 1.28 0 0 0-.57 1.07v4.71a1.49 1.49 0 0 0 .87 1.35 37.33 37.33 0 0 1 6.71 4.31 1.08 1.08 0 0 1 .39.84v3.35a1.29 1.29 0 1 0 2.57 0v-3.35a3.66 3.66 0 0 0-1.33-2.83 40.29 40.29 0 0 0-6.62-4.32v-3.46a3.51 3.51 0 0 0 1-2.43v-4.9a5.68 5.68 0 0 0-5.68-5.68h-1.04a5.69 5.69 0 0 0-5.69 5.68v4.9a3.48 3.48 0 0 0 1 2.43v1.67a1.29 1.29 0 1 0 2.57 0v-2.26a1.27 1.27 0 0 0-.57-1.06.92.92 0 0 1-.42-.77v-4.89a3.13 3.13 0 0 1 3.11-3.13z" fill="#4c6cf6"/><path d="M1.34 28.37A3.67 3.67 0 0 0 0 31.2v3.35a1.29 1.29 0 0 0 2.58 0V31.2a1.13 1.13 0 0 1 .36-.85 38.27 38.27 0 0 1 6.72-4.31 1.48 1.48 0 0 0 .84-1.35v-4.71a1.27 1.27 0 0 0-.56-1.06.92.92 0 0 1-.42-.77v-4.89a3.12 3.12 0 0 1 3.12-3.12h1a3.12 3.12 0 0 1 3.12 3.12v4.89a.92.92 0 0 1-.42.77 1.25 1.25 0 0 0-.57 1.06v2.36a1.29 1.29 0 1 0 2.57 0v-1.76a3.52 3.52 0 0 0 1-2.43v-4.89a5.7 5.7 0 0 0-5.69-5.69h-1a5.7 5.7 0 0 0-5.71 5.69v4.89a3.52 3.52 0 0 0 1 2.43v3.46a41.68 41.68 0 0 0-6.6 4.33z" fill="#4396f6"/><path d="M47.28 35.83a1.28 1.28 0 0 0 1.29-1.28v-4.34a4.32 4.32 0 0 0-1.58-3.38 50.82 50.82 0 0 0-8.7-5.66v-4.86a4.18 4.18 0 0 0 1.27-3V6.99a7 7 0 0 0-7-7h-1.35a7 7 0 0 0-7 7v6.33a4.18 4.18 0 0 0 1.27 3v4.88a50.82 50.82 0 0 0-8.68 5.63 4.32 4.32 0 0 0-1.58 3.36v4.34a1.29 1.29 0 0 0 2.57 0v-4.32a1.77 1.77 0 0 1 .65-1.38 49.24 49.24 0 0 1 8.76-5.62 1.53 1.53 0 0 0 .88-1.4v-6.1a1.27 1.27 0 0 0-.57-1.06 1.58 1.58 0 0 1-.7-1.32V7a4.42 4.42 0 0 1 4.42-4.41h1.36A4.41 4.41 0 0 1 37 7v6.33a1.61 1.61 0 0 1-.7 1.32 1.25 1.25 0 0 0-.57 1.06v6.12a1.6 1.6 0 0 0 .88 1.42 48.81 48.81 0 0 1 8.77 5.58 1.78 1.78 0 0 1 .65 1.37v4.34a1.23 1.23 0 0 0 1.25 1.29z" fill="#fff"/></svg>