<svg id="Calque_7" data-name="Calque 7" xmlns="http://www.w3.org/2000/svg" viewBox="0 0 64 64"><defs><style>.cls-1{fill:#fff}</style></defs><path class="cls-1" d="M38.77 23.75A1.25 1.25 0 1 0 40 25a1.25 1.25 0 0 0-1.23-1.25z" transform="translate(-.02)"/><path d="M62.55 55.46L45.87 38.78a25 25 0 1 0-7.07 7.07l4.61 4.61 12.07 12.08a5 5 0 1 0 7.07-7.08zM38.21 43.22a22.59 22.59 0 1 1 5-5 22.81 22.81 0 0 1-5 5zm2.62 1.13a25.2 25.2 0 0 0 3.54-3.54l3.54 3.55a31.05 31.05 0 0 1-3.53 3.54zm20 16.42a2.5 2.5 0 0 1-3.53 0l-11.1-11.1a31.89 31.89 0 0 0 3.53-3.54l11.1 11.1a2.49 2.49 0 0 1 0 3.54z" transform="translate(-.02)" fill="#4c6cf6"/><path d="M25 5a20 20 0 1 0 20 20A20 20 0 0 0 25 5zm0 37.5A17.5 17.5 0 1 1 42.52 25 17.52 17.52 0 0 1 25 42.5z" transform="translate(-.02)" fill="#fbf8fb"/><path class="cls-1" d="M39 19.63A15 15 0 0 0 25 10a1.25 1.25 0 1 0 0 2.5 12.59 12.59 0 0 1 11.67 8 1.25 1.25 0 0 0 1.17.8 1.19 1.19 0 0 0 .45-.08 1.25 1.25 0 0 0 .71-1.59z" transform="translate(-.02)"/></svg>