<svg xmlns="http://www.w3.org/2000/svg" xmlns:xlink="http://www.w3.org/1999/xlink" width="733.138" height="796.989" viewBox="0 0 733.138 796.989">
  <defs>
    <filter id="Oval" x="0" y="15.963" width="243.081" height="243.081" filterUnits="userSpaceOnUse">
      <feOffset dy="7" input="SourceAlpha"/>
      <feGaussianBlur stdDeviation="32" result="blur"/>
      <feFlood flood-opacity="0.071"/>
      <feComposite operator="in" in2="blur"/>
      <feComposite in="SourceGraphic"/>
    </filter>
    <filter id="Rectangle" x="70.236" y="0" width="662.902" height="367.59" filterUnits="userSpaceOnUse">
      <feOffset dy="7" input="SourceAlpha"/>
      <feGaussianBlur stdDeviation="32" result="blur-2"/>
      <feFlood flood-opacity="0.071"/>
      <feComposite operator="in" in2="blur-2"/>
      <feComposite in="SourceGraphic"/>
    </filter>
    <filter id="Rectangle-2" x="70.236" y="213.901" width="662.902" height="367.59" filterUnits="userSpaceOnUse">
      <feOffset dy="7" input="SourceAlpha"/>
      <feGaussianBlur stdDeviation="32" result="blur-3"/>
      <feFlood flood-opacity="0.071"/>
      <feComposite operator="in" in2="blur-3"/>
      <feComposite in="SourceGraphic"/>
    </filter>
    <filter id="Rectangle-3" x="70.236" y="429.399" width="662.902" height="367.59" filterUnits="userSpaceOnUse">
      <feOffset dy="7" input="SourceAlpha"/>
      <feGaussianBlur stdDeviation="32" result="blur-4"/>
      <feFlood flood-opacity="0.071"/>
      <feComposite operator="in" in2="blur-4"/>
      <feComposite in="SourceGraphic"/>
    </filter>
    <filter id="Oval-2" x="0" y="231.46" width="243.081" height="243.081" filterUnits="userSpaceOnUse">
      <feOffset dy="7" input="SourceAlpha"/>
      <feGaussianBlur stdDeviation="32" result="blur-5"/>
      <feFlood flood-opacity="0.071"/>
      <feComposite operator="in" in2="blur-5"/>
      <feComposite in="SourceGraphic"/>
    </filter>
    <filter id="Oval-3" x="3.192" y="450.15" width="236.696" height="236.696" filterUnits="userSpaceOnUse">
      <feOffset dy="7" input="SourceAlpha"/>
      <feGaussianBlur stdDeviation="32" result="blur-6"/>
      <feFlood flood-opacity="0.071"/>
      <feComposite operator="in" in2="blur-6"/>
      <feComposite in="SourceGraphic"/>
    </filter>
  </defs>
  <g id="UI_Elements_List" data-name="UI Elements/List" transform="translate(96 89)">
    <rect id="Bar" width="6.385" height="606.586" rx="2" transform="translate(22.348)" fill="#ece9f1"/>
    <path id="Bar_-_Active" data-name="Bar - Active" d="M3.193,0A3.193,3.193,0,0,1,6.385,3.193V252.212a3.193,3.193,0,0,1-6.385,0V3.193A3.193,3.193,0,0,1,3.193,0Z" transform="translate(22.348)" fill="rgba(185,71,21,0.35)"/>
    <g id="Components_List_Done" data-name="Components/List/Done" transform="translate(0 15.963)">
      <g transform="matrix(1, 0, 0, 1, -96, -104.96)" filter="url(#Oval)">
        <circle id="Oval-4" data-name="Oval" cx="25.54" cy="25.54" r="25.54" transform="translate(96 104.96)" fill="#fff"/>
      </g>
      <circle id="Oval-5" data-name="Oval" cx="20.752" cy="20.752" r="20.752" transform="translate(4.789 4.789)" fill="#b94715"/>
    </g>
    <g id="Components_List_Text" data-name="Components/List/Text" transform="translate(70.236)">
      <g transform="matrix(1, 0, 0, 1, -166.24, -89)" filter="url(#Rectangle)">
        <rect id="Rectangle-4" data-name="Rectangle" width="470.902" height="175.591" rx="8" transform="translate(166.24 89)" fill="#fff"/>
      </g>
      <text id="Whether_its_a_drivin" data-name="Whether its a drivin" transform="translate(25.54 63.851)" fill="#3f3356" font-size="13" font-family="Helvetica"><tspan font-weight="400" font-style="normal"><tspan x="0" y="10">Duplexque isdem diebus acciderat malum, quod et Theophilum insontem </tspan><tspan x="0" y="28">atrox interceperat casus.</tspan></tspan><tspan font-family="SFProText-Regular"><tspan x="0" y="46"></tspan></tspan></text>
      <text id="Tremblant_In_Canada" data-name="Tremblant In Canada" transform="translate(25.54 43.54)" fill="#1a051d" font-size="23" font-family="Helvetica"><tspan x="0" y="0">Bug #019810</tspan></text>
    </g>
    <g id="Components_List_Text-2" data-name="Components/List/Text" transform="translate(70.236 213.901)">
      <g transform="matrix(1, 0, 0, 1, -166.24, -302.9)" filter="url(#Rectangle-2)">
        <rect id="Rectangle-5" data-name="Rectangle" width="470.902" height="175.591" rx="8" transform="translate(166.24 302.9)" fill="#fff"/>
      </g>
      <text id="Whether_its_a_drivin-2" data-name="Whether its a drivin" transform="translate(25.54 63.851)" fill="#3f3356" font-size="13" font-family="Helvetica"><tspan font-weight="400" font-style="normal"><tspan x="0" y="10">Duplexque isdem diebus acciderat malum, quod et Theophilum insontem </tspan><tspan x="0" y="28">atrox interceperat casus.</tspan></tspan><tspan font-family="SFProText-Regular"><tspan x="0" y="46"></tspan></tspan></text>
      <text id="Tremblant_In_Canada-2" data-name="Tremblant In Canada" transform="translate(25.54 43.54)" fill="#1a051d" font-size="23" font-family="Helvetica"><tspan x="0" y="0">Bug #0019273</tspan></text>
    </g>
    <g id="Components_List_Text-3" data-name="Components/List/Text" transform="translate(70.236 429.399)">
      <g transform="matrix(1, 0, 0, 1, -166.24, -518.4)" filter="url(#Rectangle-3)">
        <rect id="Rectangle-6" data-name="Rectangle" width="470.902" height="175.591" rx="8" transform="translate(166.24 518.4)" fill="#fff"/>
      </g>
      <text id="Whether_its_a_drivin-3" data-name="Whether its a drivin" transform="translate(25.54 63.851)" fill="#3f3356" font-size="13" font-family="Helvetica"><tspan font-weight="400" font-style="normal"><tspan x="0" y="10">Duplexque isdem diebus acciderat malum, quod et Theophilum insontem </tspan><tspan x="0" y="28">atrox interceperat casus.</tspan></tspan><tspan font-family="SFProText-Regular"><tspan x="0" y="46"></tspan></tspan></text>
      <text id="Tremblant_In_Canada-3" data-name="Tremblant In Canada" transform="translate(25.54 43.54)" fill="#1a051d" font-size="23" font-family="Helvetica"><tspan x="0" y="0">Bug #9831</tspan></text>
    </g>
    <g id="Components_List_Doing" data-name="Components/List/Doing" transform="translate(0 231.46)">
      <g transform="matrix(1, 0, 0, 1, -96, -320.46)" filter="url(#Oval-2)">
        <circle id="Oval-6" data-name="Oval" cx="25.54" cy="25.54" r="25.54" transform="translate(96 320.46)" fill="#fff"/>
      </g>
      <circle id="Oval-7" data-name="Oval" cx="20.752" cy="20.752" r="20.752" transform="translate(4.789 4.789)" fill="#b94715"/>
    </g>
    <g id="Components_List_Not_Done" data-name="Components/List/Not Done" transform="translate(3.193 450.15)">
      <g transform="matrix(1, 0, 0, 1, -99.19, -539.15)" filter="url(#Oval-3)">
        <g id="Oval-8" data-name="Oval" transform="translate(99.19 539.15)" fill="#fff" stroke="#ecebed" stroke-miterlimit="10" stroke-width="1">
          <circle cx="22.348" cy="22.348" r="22.348" stroke="none"/>
          <circle cx="22.348" cy="22.348" r="21.848" fill="none"/>
        </g>
      </g>
    </g>
  </g>
</svg>
