<svg xmlns="http://www.w3.org/2000/svg" xmlns:xlink="http://www.w3.org/1999/xlink" width="656.348" height="607.011" viewBox="0 0 656.348 607.011">
  <defs>
    <filter id="Frame" x="0" y="0" width="656.348" height="607.011" filterUnits="userSpaceOnUse">
      <feOffset dy="7" input="SourceAlpha"/>
      <feGaussianBlur stdDeviation="32" result="blur"/>
      <feFlood flood-opacity="0.071"/>
      <feComposite operator="in" in2="blur"/>
      <feComposite in="SourceGraphic"/>
    </filter>
    <filter id="Frame-2" x="466.304" y="74.511" width="106.826" height="106.826" filterUnits="userSpaceOnUse">
      <feOffset dy="7" input="SourceAlpha"/>
      <feGaussianBlur stdDeviation="12" result="blur-2"/>
      <feFlood flood-opacity="0.071"/>
      <feComposite operator="in" in2="blur-2"/>
      <feComposite in="SourceGraphic"/>
    </filter>
    <filter id="Frame-3" x="83.217" y="74.511" width="106.826" height="106.826" filterUnits="userSpaceOnUse">
      <feOffset dy="7" input="SourceAlpha"/>
      <feGaussianBlur stdDeviation="12" result="blur-3"/>
      <feFlood flood-opacity="0.071"/>
      <feComposite operator="in" in2="blur-3"/>
      <feComposite in="SourceGraphic"/>
    </filter>
  </defs>
  <g id="Groupe_1" data-name="Groupe 1" transform="translate(24 -53)">
    <g id="Dropdown" transform="translate(72 142)">
      <g transform="matrix(1, 0, 0, 1, -96, -89)" filter="url(#Frame)">
        <rect id="Frame-4" data-name="Frame" width="464.348" height="415.011" rx="6" transform="translate(96 89)" fill="#fff"/>
      </g>
      <g id="Header">
        <path id="Frame-5" data-name="Frame" d="M6,0H458.348a6,6,0,0,1,6,6V98.674a0,0,0,0,1,0,0H0a0,0,0,0,1,0,0V6A6,6,0,0,1,6,0Z" fill="#fff"/>
        <path id="Divider" d="M0,.5H417.913" transform="translate(23.217 97.448)" fill="none" stroke="#ecebed" stroke-linecap="round" stroke-miterlimit="10" stroke-width="1" stroke-dasharray="6 6"/>
        <text id="September_2018" data-name="September 2018" transform="translate(224.386 31.413)" fill="#1a051d" font-size="18" font-family="Helvetica"><tspan x="-42.521" y="0">Mars 2019</tspan></text>
        <g id="Arrow_Active" data-name="Arrow/Active" transform="translate(406.304 14.511)">
          <g transform="matrix(1, 0, 0, 1, -502.3, -103.51)" filter="url(#Frame-2)">
            <rect id="Frame-6" data-name="Frame" width="34.826" height="34.826" rx="6" transform="translate(502.3 103.51)" fill="#fff"/>
          </g>
          <g id="Icons_16px_Arrow-Outline-Right" data-name="Icons/16px/Arrow-Outline-Right" transform="translate(14.961 11.609)">
            <path id="Path" d="M1.665,4,4.488,6.823a.69.69,0,0,1-.975.975L.2,4.488a.69.69,0,0,1,0-.975L3.512.2a.69.69,0,0,1,.975.975Z" transform="translate(4.69 8) rotate(180)" fill="#1a051d"/>
          </g>
        </g>
        <g id="Arrow_Inactive" data-name="Arrow/Inactive" transform="translate(23.217 14.511)">
          <g transform="matrix(1, 0, 0, 1, -119.22, -103.51)" filter="url(#Frame-3)">
            <rect id="Frame-7" data-name="Frame" width="34.826" height="34.826" rx="6" transform="translate(119.22 103.51)" fill="#fff"/>
          </g>
          <g id="Icons_16px_Arrow-Outline-Left" data-name="Icons/16px/Arrow-Outline-Left" transform="translate(13.06 11.609)">
            <path id="Path-2" data-name="Path" d="M1.665,4,4.488,6.823a.69.69,0,0,1-.975.975L.2,4.488a.69.69,0,0,1,0-.975L3.512.2a.69.69,0,0,1,.975.975Z" fill="#1a051d"/>
          </g>
        </g>
        <g id="Seven-Day_Week" data-name="Seven-Day Week" transform="translate(23.217 62.397)">
          <text id="MON" transform="translate(0 13)" fill="#d0c9d6" font-size="17" font-family="Helvetica"><tspan x="0" y="0">LUN</tspan></text>
          <text id="TUE" transform="translate(71.103 12)" fill="#d0c9d6" font-size="16" font-family="Helvetica"><tspan x="0" y="0">MAR</tspan></text>
          <text id="Wed" transform="translate(132.049 12)" fill="#d0c9d6" font-size="16" font-family="Helvetica"><tspan x="0" y="0">MER</tspan></text>
          <text id="thu" transform="translate(200.25 13)" fill="#d0c9d6" font-size="17" font-family="Helvetica"><tspan x="0" y="0">JEU</tspan></text>
          <text id="Fri" transform="translate(265.549 13)" fill="#d0c9d6" font-size="17" font-family="Helvetica"><tspan x="0" y="0">VEN</tspan></text>
          <text id="Sat" transform="translate(319.239 12)" fill="#d0c9d6" font-size="15" font-family="Helvetica"><tspan x="0" y="0">SAM</tspan></text>
          <text id="sun" transform="translate(380.185 13)" fill="#d0c9d6" font-size="17" font-family="Helvetica"><tspan x="0" y="0">DIM</tspan></text>
        </g>
      </g>
      <g id="Date" transform="translate(26.12 133.5)">
        <text id="_28" data-name="28" transform="translate(15.707 10)" fill="#ecebed" font-size="13" font-family="Helvetica"><tspan x="-7.23" y="0">28</tspan></text>
        <text id="_29" data-name="29" transform="translate(82.456 10)" fill="#ecebed" font-size="13" font-family="Helvetica"><tspan x="-7.23" y="0">29</tspan></text>
        <text id="_30" data-name="30" transform="translate(146.304 10)" fill="#ecebed" font-size="13" font-family="Helvetica"><tspan x="-7.23" y="0">30</tspan></text>
        <text id="_31" data-name="31" transform="translate(213.054 10)" fill="#ecebed" font-size="13" font-family="Helvetica"><tspan x="-7.23" y="0">31</tspan></text>
        <text id="_1" data-name="1" transform="translate(275.804 9)" fill="#3f3356" font-size="12" font-family="Helvetica"><tspan x="-3.337" y="0">1</tspan></text>
        <text id="_2" data-name="2" transform="translate(332.397 9)" fill="#3f3356" font-size="12" font-family="Helvetica"><tspan x="-3.337" y="0">2</tspan></text>
        <text id="_3" data-name="3" transform="translate(394.793 9)" font-size="12" font-family="Helvetica"><tspan x="-3.337" y="0">3</tspan></text>
        <text id="_4" data-name="4" transform="translate(17.511 67.043)" fill="#3f3356" font-size="12" font-family="Helvetica"><tspan x="-3.337" y="0">4</tspan></text>
        <text id="_5" data-name="5" transform="translate(84.261 67.043)" fill="#3f3356" font-size="12" font-family="Helvetica"><tspan x="-3.337" y="0">5</tspan></text>
        <text id="_6" data-name="6" transform="translate(148.109 67.043)" fill="#3f3356" font-size="12" font-family="Helvetica"><tspan x="-3.337" y="0">6</tspan></text>
        <text id="_7" data-name="7" transform="translate(215.584 67.043)" fill="#3f3356" font-size="12" font-family="Helvetica"><tspan x="-3.337" y="0">7</tspan></text>
        <text id="_8" data-name="8" transform="translate(275.804 67.043)" fill="#3f3356" font-size="12" font-family="Helvetica"><tspan x="-3.337" y="0">8</tspan></text>
        <text id="_9" data-name="9" transform="translate(332.397 67.043)" fill="#3f3356" font-size="12" font-family="Helvetica"><tspan x="-3.337" y="0">9</tspan></text>
        <text id="_10" data-name="10" transform="translate(392.989 68.043)" font-size="13" font-family="Helvetica"><tspan x="-7.23" y="0">10</tspan></text>
        <text id="_12" data-name="12" transform="translate(82.456 126.087)" fill="#3f3356" font-size="13" font-family="Helvetica"><tspan x="-7.23" y="0">12</tspan></text>
        <text id="_13" data-name="13" transform="translate(146.304 126.087)" fill="#3f3356" font-size="13" font-family="Helvetica"><tspan x="-7.23" y="0">13</tspan></text>
        <text id="_14" data-name="14" transform="translate(213.054 126.087)" fill="#3f3356" font-size="13" font-family="Helvetica"><tspan x="-7.23" y="0">14</tspan></text>
        <text id="_15" data-name="15" transform="translate(274 126.087)" fill="#3f3356" font-size="13" font-family="Helvetica"><tspan x="-7.23" y="0">15</tspan></text>
        <text id="_16" data-name="16" transform="translate(330.592 126.087)" fill="#3f3356" font-size="13" font-family="Helvetica"><tspan x="-7.23" y="0">16</tspan></text>
        <text id="_17" data-name="17" transform="translate(393.715 126.087)" font-size="13" font-family="Helvetica"><tspan x="-7.23" y="0">17</tspan></text>
        <text id="_18" data-name="18" transform="translate(15.707 184.13)" fill="#3f3356" font-size="13" font-family="Helvetica"><tspan x="-7.23" y="0">18</tspan></text>
        <text id="_19" data-name="19" transform="translate(82.456 184.13)" fill="#3f3356" font-size="13" font-family="Helvetica"><tspan x="-7.23" y="0">19</tspan></text>
        <text id="_20" data-name="20" transform="translate(146.304 184.13)" fill="#3f3356" font-size="13" font-family="Helvetica"><tspan x="-7.23" y="0">20</tspan></text>
        <g id="Selected" transform="translate(0 104.478)">
          <path id="Oval" d="M18.864,0A18.864,18.864,0,1,1,0,18.864,18.864,18.864,0,0,1,18.864,0Z" transform="translate(0 0)" fill="#2862ff"/>
          <text id="_21" data-name="21" transform="translate(213.054 79.652)" font-size="13" font-family="Helvetica"><tspan x="-7.23" y="0">21</tspan></text>
        </g>
        <g id="Today" transform="translate(323.592 174.13)">
          <text id="_23" data-name="23" transform="translate(7 10)" font-size="13" font-family="Helvetica"><tspan x="-7.23" y="0">23</tspan></text>
        </g>
        <text id="_22" data-name="22" transform="translate(274.725 184.13)" fill="#3f3356" font-size="13" font-family="Helvetica"><tspan x="-7.23" y="0">22</tspan></text>
        <text id="_24" data-name="24" transform="translate(392.989 184.13)" font-size="13" font-family="Helvetica"><tspan x="-7.23" y="0">24</tspan></text>
        <text id="_25" data-name="25" transform="translate(15.707 242.174)" fill="#3f3356" font-size="13" font-family="Helvetica"><tspan x="-7.23" y="0">25</tspan></text>
        <text id="_26" data-name="26" transform="translate(82.456 242.174)" fill="#3f3356" font-size="13" font-family="Helvetica"><tspan x="-7.23" y="0">26</tspan></text>
        <text id="_27" data-name="27" transform="translate(147.03 242.174)" fill="#3f3356" font-size="13" font-family="Helvetica"><tspan x="-7.23" y="0">27</tspan></text>
        <text id="_28-2" data-name="28" transform="translate(213.054 242.174)" fill="#3f3356" font-size="13" font-family="Helvetica"><tspan x="-7.23" y="0">28</tspan></text>
        <text id="_29-2" data-name="29" transform="translate(275.451 242.174)" fill="#3f3356" font-size="13" font-family="Helvetica"><tspan x="-7.23" y="0">29</tspan></text>
        <text id="_30-2" data-name="30" transform="translate(330.592 242.174)" fill="#3f3356" font-size="13" font-family="Helvetica"><tspan x="-7.23" y="0">30</tspan></text>
        <text id="_1-2" data-name="1" transform="translate(394.793 241.174)" fill="rgba(40,98,255,0.13)" font-size="12" font-family="Helvetica"><tspan x="-3.337" y="0">1</tspan></text>
        <text id="_11" data-name="11" transform="translate(17.158 127.087)" fill="#fff" font-size="14" font-family="Helvetica"><tspan x="-7.27" y="0">11</tspan></text>
      </g>
    </g>
    <circle id="Ellipse_1" data-name="Ellipse 1" cx="3.106" cy="3.106" r="3.106" transform="translate(177.604 471.236)" fill="#2862ff"/>
    <circle id="Ellipse_2" data-name="Ellipse 2" cx="3.106" cy="3.106" r="3.106" transform="translate(242.83 471.236)" fill="#2862ff"/>
    <circle id="Ellipse_3" data-name="Ellipse 3" cx="3.106" cy="3.106" r="3.106" transform="translate(427.638 346.996)" fill="#2862ff"/>
    <circle id="Ellipse_5" data-name="Ellipse 5" cx="3.106" cy="3.106" r="3.106" transform="translate(309.609 527.145)" fill="#2862ff"/>
    <circle id="Ellipse_6" data-name="Ellipse 6" cx="3.106" cy="3.106" r="3.106" transform="translate(242.83 527.145)" fill="#2862ff"/>
    <circle id="Ellipse_7" data-name="Ellipse 7" cx="3.106" cy="3.106" r="3.106" transform="translate(110.825 527.145)" fill="#2862ff"/>
    <circle id="Ellipse_4" data-name="Ellipse 4" cx="3.106" cy="3.106" r="3.106" transform="translate(370.176 407.563)" fill="#2862ff"/>
  </g>
</svg>
