<svg xmlns="http://www.w3.org/2000/svg" width="64.832" height="89.152" viewBox="0 0 64.832 89.152">
  <g id="icons8-google-firebase-console" transform="translate(-8.003 -2)">
    <path id="Tracé_4" data-name="Tracé 4" d="M42.462,15.3a2.1,2.1,0,0,0-3.744,0L33.962,24.27,23,3.108a2.121,2.121,0,0,0-3.955.659L8,74.937l45.077-39Z" transform="translate(0 0)" fill="#d3d3d3"/>
    <path id="Tracé_5" data-name="Tracé 5" d="M44.053,32.468,33.962,12.992,8,63.657Z" transform="translate(0 11.28)" fill="#bcbcbc"/>
    <path id="Tracé_6" data-name="Tracé 6" d="M64.444,12.7a2.02,2.02,0,0,0-3.424-1.1L8,65.711,37.34,81.138a6.138,6.138,0,0,0,5.979,0L72.835,65.717Z" transform="translate(0 9.236)" fill="#e8e8e8"/>
  </g>
</svg>
