<svg xmlns="http://www.w3.org/2000/svg" width="448.91" height="308.308" viewBox="0 0 448.91 308.308">
  <g id="Groupe_26" data-name="Groupe 26" transform="translate(-1212.22 -6396.097)">
    <path id="ic_format_shapes_24px" d="M133.3,37.083V1H97.22V13.028H37.083V1H1V37.083H13.028V97.22H1V133.3H37.083V121.275H97.22V133.3H133.3V97.22H121.275V37.083ZM13.028,13.028H25.055V25.055H13.028ZM25.055,121.275H13.028V109.248H25.055ZM97.22,109.248H37.083V97.22H25.055V37.083H37.083V25.055H97.22V37.083h12.028V97.22H97.22Zm24.055,12.028H109.248V109.248h12.028Zm-12.028-96.22V13.028h12.028V25.055ZM77.555,79.179H56.567l-4.39,12.028H42.435L62.882,37.083H71.3L91.808,91.206h-9.8ZM59.273,71.6h15.7L67.151,48.569,59.273,71.6Z" transform="translate(1529.264 6537.255) rotate(8)" opacity="0.037"/>
    <path id="ic_format_shapes_24px-2" data-name="ic_format_shapes_24px" d="M71.108,20.12V1H51.988V7.373H20.12V1H1V20.12H7.373V51.988H1v19.12H20.12V64.734H51.988v6.373h19.12V51.988H64.734V20.12ZM7.373,7.373h6.373v6.373H7.373Zm6.373,57.361H7.373V58.361h6.373Zm38.241-6.373H20.12V51.988H13.747V20.12H20.12V13.747H51.988V20.12h6.373V51.988H51.988Zm12.747,6.373H58.361V58.361h6.373ZM58.361,13.747V7.373h6.373v6.373ZM41.567,42.427H30.445L28.119,48.8H22.957L33.791,20.12h4.461L49.12,48.8H43.925Zm-9.688-4.015H40.2L36.054,26.207,31.879,38.412Z" transform="translate(1211.048 6408.684) rotate(-11)" opacity="0.037"/>
    <path id="ic_title_24px" d="M5,4V60.881H109.282V288.405h56.881V60.881H270.445V4Z" transform="translate(1317 6416)"/>
  </g>
</svg>
