<svg xmlns="http://www.w3.org/2000/svg" xmlns:xlink="http://www.w3.org/1999/xlink" width="680.425" height="738.056" viewBox="0 0 680.425 738.056">
  <defs>
    <filter id="Oval" x="0" y="14.408" width="238.105" height="238.105" filterUnits="userSpaceOnUse">
      <feOffset dy="7" input="SourceAlpha"/>
      <feGaussianBlur stdDeviation="32" result="blur"/>
      <feFlood flood-opacity="0.071"/>
      <feComposite operator="in" in2="blur"/>
      <feComposite in="SourceGraphic"/>
    </filter>
    <filter id="Rectangle" x="63.395" y="0" width="617.03" height="350.486" filterUnits="userSpaceOnUse">
      <feOffset dy="7" input="SourceAlpha"/>
      <feGaussianBlur stdDeviation="32" result="blur-2"/>
      <feFlood flood-opacity="0.071"/>
      <feComposite operator="in" in2="blur-2"/>
      <feComposite in="SourceGraphic"/>
    </filter>
    <filter id="Rectangle-2" x="63.395" y="193.065" width="617.03" height="350.486" filterUnits="userSpaceOnUse">
      <feOffset dy="7" input="SourceAlpha"/>
      <feGaussianBlur stdDeviation="32" result="blur-3"/>
      <feFlood flood-opacity="0.071"/>
      <feComposite operator="in" in2="blur-3"/>
      <feComposite in="SourceGraphic"/>
    </filter>
    <filter id="Rectangle-3" x="63.395" y="387.57" width="617.03" height="350.486" filterUnits="userSpaceOnUse">
      <feOffset dy="7" input="SourceAlpha"/>
      <feGaussianBlur stdDeviation="32" result="blur-4"/>
      <feFlood flood-opacity="0.071"/>
      <feComposite operator="in" in2="blur-4"/>
      <feComposite in="SourceGraphic"/>
    </filter>
    <filter id="Oval-2" x="0" y="208.913" width="238.105" height="238.105" filterUnits="userSpaceOnUse">
      <feOffset dy="7" input="SourceAlpha"/>
      <feGaussianBlur stdDeviation="32" result="blur-5"/>
      <feFlood flood-opacity="0.071"/>
      <feComposite operator="in" in2="blur-5"/>
      <feComposite in="SourceGraphic"/>
    </filter>
    <filter id="Oval-3" x="2.881" y="406.3" width="232.342" height="232.342" filterUnits="userSpaceOnUse">
      <feOffset dy="7" input="SourceAlpha"/>
      <feGaussianBlur stdDeviation="32" result="blur-6"/>
      <feFlood flood-opacity="0.071"/>
      <feComposite operator="in" in2="blur-6"/>
      <feComposite in="SourceGraphic"/>
    </filter>
  </defs>
  <g id="UI_Elements_List" data-name="UI Elements/List" transform="translate(96 89)">
    <rect id="Bar" width="5.763" height="547.497" rx="2" transform="translate(20.171)" fill="#ece9f1"/>
    <path id="Bar_-_Active" data-name="Bar - Active" d="M2.882,0A2.882,2.882,0,0,1,5.763,2.882V227.643a2.882,2.882,0,0,1-5.763,0V2.882A2.882,2.882,0,0,1,2.882,0Z" transform="translate(20.171)" fill="rgba(255,202,40,0.35)"/>
    <g id="Components_List_Done" data-name="Components/List/Done" transform="translate(0 14.408)">
      <g transform="matrix(1, 0, 0, 1, -96, -103.41)" filter="url(#Oval)">
        <circle id="Oval-4" data-name="Oval" cx="23.052" cy="23.052" r="23.052" transform="translate(96 103.41)" fill="#fff"/>
      </g>
      <circle id="Oval-5" data-name="Oval" cx="18.73" cy="18.73" r="18.73" transform="translate(4.322 4.322)" fill="#ffca28"/>
    </g>
    <g id="Components_List_Text" data-name="Components/List/Text" transform="translate(63.394)">
      <g transform="matrix(1, 0, 0, 1, -159.39, -89)" filter="url(#Rectangle)">
        <rect id="Rectangle-4" data-name="Rectangle" width="425.03" height="158.486" rx="8" transform="translate(159.39 89)" fill="#fff"/>
      </g>
      <text id="Whether_its_a_drivin" data-name="Whether its a drivin" transform="translate(23.052 57.631)" fill="#3f3356" font-size="13" font-family="Helvetica"><tspan font-weight="400" font-style="normal"><tspan x="0" y="10">Duplexque isdem diebus acciderat malum, quod et Theophilum </tspan><tspan x="0" y="28">insontem atrox interceperat casus.</tspan></tspan><tspan font-family="SFProText-Regular"><tspan x="0" y="46"></tspan></tspan></text>
      <text id="Tremblant_In_Canada" data-name="Tremblant In Canada" transform="translate(23.052 39.052)" fill="#1a051d" font-size="21" font-family="Helvetica"><tspan x="0" y="0">Tâche n° 1</tspan></text>
    </g>
    <g id="Components_List_Text-2" data-name="Components/List/Text" transform="translate(63.394 193.065)">
      <g transform="matrix(1, 0, 0, 1, -159.39, -282.06)" filter="url(#Rectangle-2)">
        <rect id="Rectangle-5" data-name="Rectangle" width="425.03" height="158.486" rx="8" transform="translate(159.39 282.06)" fill="#fff"/>
      </g>
      <text id="Whether_its_a_drivin-2" data-name="Whether its a drivin" transform="translate(23.052 57.631)" fill="#3f3356" font-size="13" font-family="Helvetica"><tspan font-weight="400" font-style="normal"><tspan x="0" y="10">Duplexque isdem diebus acciderat malum, quod et Theophilum </tspan><tspan x="0" y="28">insontem atrox interceperat casus.</tspan></tspan><tspan font-family="SFProText-Regular"><tspan x="0" y="46"></tspan></tspan></text>
      <text id="Tremblant_In_Canada-2" data-name="Tremblant In Canada" transform="translate(23.052 39.052)" fill="#1a051d" font-size="21" font-family="Helvetica"><tspan x="0" y="0">Tâche n° 2</tspan></text>
    </g>
    <g id="Components_List_Text-3" data-name="Components/List/Text" transform="translate(63.394 387.57)">
      <g transform="matrix(1, 0, 0, 1, -159.39, -476.57)" filter="url(#Rectangle-3)">
        <rect id="Rectangle-6" data-name="Rectangle" width="425.03" height="158.486" rx="8" transform="translate(159.39 476.57)" fill="#fff"/>
      </g>
      <text id="Whether_its_a_drivin-3" data-name="Whether its a drivin" transform="translate(23.052 57.631)" fill="#3f3356" font-size="13" font-family="Helvetica"><tspan font-weight="400" font-style="normal"><tspan x="0" y="10">Duplexque isdem diebus acciderat malum, quod et Theophilum </tspan><tspan x="0" y="28">insontem atrox interceperat casus.</tspan></tspan><tspan font-family="SFProText-Regular"><tspan x="0" y="46"></tspan></tspan></text>
      <text id="Tremblant_In_Canada-3" data-name="Tremblant In Canada" transform="translate(23.052 39.052)" fill="#1a051d" font-size="21" font-family="Helvetica"><tspan x="0" y="0">Tâche n° 3</tspan></text>
    </g>
    <g id="Components_List_Doing" data-name="Components/List/Doing" transform="translate(0 30.256)">
      <g transform="matrix(1, 0, 0, 1, -96, -119.26)" filter="url(#Oval-2)">
        <circle id="Oval-6" data-name="Oval" cx="23.052" cy="23.052" r="23.052" transform="translate(96 297.91)" fill="#fff"/>
      </g>
      <circle id="Oval-7" data-name="Oval" cx="18.73" cy="18.73" r="18.73" transform="translate(4.322 182.979)" fill="#ffca28"/>
      <text id="_2" data-name="2" transform="translate(22.73 205.065)" fill="#fff" font-size="15" font-family="Helvetica"><tspan x="-4.171" y="0">2</tspan></text>
      <text id="_2-2" data-name="2" transform="translate(22.73 12)" fill="#fff" font-size="15" font-family="Helvetica"><tspan x="-4.171" y="0">1</tspan></text>
    </g>
    <g id="Components_List_Not_Done" data-name="Components/List/Not Done" transform="translate(2.882 406.3)">
      <g transform="matrix(1, 0, 0, 1, -98.88, -495.3)" filter="url(#Oval-3)">
        <g id="Oval-8" data-name="Oval" transform="translate(98.88 495.3)" fill="#fff" stroke="#ecebed" stroke-miterlimit="10" stroke-width="1">
          <circle cx="20.171" cy="20.171" r="20.171" stroke="none"/>
          <circle cx="20.171" cy="20.171" r="19.671" fill="none"/>
        </g>
      </g>
      <text id="_3" data-name="3" transform="translate(19.849 23.526)" fill="#d0c9d6" font-size="15" font-family="Helvetica"><tspan x="-4.171" y="0">3</tspan></text>
    </g>
  </g>
</svg>
