<svg xmlns="http://www.w3.org/2000/svg" width="2073" height="1349" viewBox="0 0 2073 1349">
  <g id="Groupe_222" data-name="Groupe 222" transform="translate(273 -55)">
    <g id="Ellipse_26" data-name="Ellipse 26" transform="translate(-273 694)" fill="none" stroke="#fff" stroke-width="10" stroke-dasharray="30 10" opacity="0.051">
      <circle cx="355" cy="355" r="355" stroke="none"/>
      <circle cx="355" cy="355" r="350" fill="none"/>
    </g>
    <g id="security" transform="translate(1425.945 55)" opacity="0.055">
      <path id="Tracé_323" data-name="Tracé 323" d="M80.889,21.289,41.371.232A1.963,1.963,0,0,0,39.5.243L1.076,21.3A1.967,1.967,0,0,0,.055,23.026V50.532a56.953,56.953,0,0,0,34.136,52.125l5.333,2.324a1.965,1.965,0,0,0,1.566,0l6.01-2.6a56.841,56.841,0,0,0,34.831-52.4V23.026A1.968,1.968,0,0,0,80.889,21.289ZM78,49.986A52.916,52.916,0,0,1,45.559,98.768l-.013.007-5.234,2.259L35.765,99.05A53.013,53.013,0,0,1,3.988,50.532V24.19L40.459,4.2,78,24.2Zm0,0" transform="translate(0 0)" fill="#fff"/>
      <path id="Tracé_324" data-name="Tracé 324" d="M83.306,154.25a1.967,1.967,0,0,0-2.993,2.555l10.392,12.17a1.967,1.967,0,0,0,2.737.249l24.2-19.691a1.967,1.967,0,1,0-2.483-3.052L92.45,164.958Zm0,0" transform="translate(-57.362 -104.994)" fill="#fff"/>
    </g>
    <g id="security-2" data-name="security" transform="translate(1576.571 408.455) rotate(40)" opacity="0.055">
      <path id="Tracé_323-2" data-name="Tracé 323" d="M23.563,6.191,12.07.067a.571.571,0,0,0-.544,0L.352,6.194a.572.572,0,0,0-.3.5v8A16.563,16.563,0,0,0,9.982,29.855l1.551.676a.572.572,0,0,0,.455,0l1.748-.755a16.531,16.531,0,0,0,10.13-15.24V6.7A.572.572,0,0,0,23.563,6.191Zm-.841,8.346a15.389,15.389,0,0,1-9.433,14.187l0,0-1.522.657-1.322-.577A15.418,15.418,0,0,1,1.2,14.7V7.035L11.805,1.222,22.722,7.039Zm0,0" transform="translate(0 0)" fill="#fff"/>
      <path id="Tracé_324-2" data-name="Tracé 324" d="M80.849,148.427a.572.572,0,0,0-.87.743L83,152.709a.572.572,0,0,0,.8.072l7.039-5.727a.572.572,0,1,0-.722-.888l-6.605,5.374Zm0,0" transform="translate(-73.265 -134.102)" fill="#fff"/>
    </g>
    <path id="add" d="M35.809,71.618a9.729,9.729,0,0,1-9.766-9.67V45.575H9.67a9.767,9.767,0,0,1,0-19.532H26.043V9.67a9.767,9.767,0,0,1,19.532,0V26.043H61.948a9.767,9.767,0,0,1,0,19.532H45.575V61.948A9.729,9.729,0,0,1,35.809,71.618ZM9.67,29.3a6.511,6.511,0,0,0,0,13.021H29.3V61.948a6.511,6.511,0,0,0,13.021,0V42.32H61.948a6.511,6.511,0,0,0,0-13.021H42.32V9.67a6.511,6.511,0,0,0-13.021,0V29.3Z" transform="matrix(0.839, -0.545, 0.545, 0.839, 251.274, 319.279)" fill="#fff" opacity="0.254"/>
    <path id="add-2" data-name="add" d="M19.853,39.706a5.394,5.394,0,0,1-5.414-5.361V25.267H5.361a5.415,5.415,0,0,1,0-10.829h9.077V5.361a5.415,5.415,0,0,1,10.829,0v9.077h9.077a5.415,5.415,0,0,1,0,10.829H25.267v9.077A5.394,5.394,0,0,1,19.853,39.706ZM5.361,16.243a3.61,3.61,0,0,0,0,7.219H16.243V34.344a3.61,3.61,0,0,0,7.219,0V23.462H34.344a3.61,3.61,0,0,0,0-7.219H23.462V5.361a3.61,3.61,0,0,0-7.219,0V16.243Z" transform="translate(636.794 59.957) rotate(13)" fill="#fff" opacity="0.067"/>
    <path id="add-3" data-name="add" d="M13.607,27.215A3.7,3.7,0,0,1,9.9,23.54V17.319H3.675a3.711,3.711,0,0,1,0-7.422H9.9V3.675a3.711,3.711,0,0,1,7.422,0V9.9H23.54a3.711,3.711,0,0,1,0,7.422H17.319V23.54A3.7,3.7,0,0,1,13.607,27.215ZM3.675,11.133a2.474,2.474,0,0,0,0,4.948h7.459V23.54a2.474,2.474,0,0,0,4.948,0V16.082H23.54a2.474,2.474,0,0,0,0-4.948H16.082V3.675a2.474,2.474,0,0,0-4.948,0v7.459Z" transform="translate(1307.965 980.439) rotate(-42)" fill="#fff" opacity="0.26"/>
    <path id="add-4" data-name="add" d="M18.6,37.2a5.054,5.054,0,0,1-5.073-5.023V23.675H5.023a5.073,5.073,0,0,1,0-10.146h8.505V5.023a5.073,5.073,0,0,1,10.146,0v8.505H32.18a5.073,5.073,0,0,1,0,10.146H23.675V32.18A5.054,5.054,0,0,1,18.6,37.2ZM5.023,15.219a3.382,3.382,0,0,0,0,6.764h10.2v10.2a3.382,3.382,0,0,0,6.764,0v-10.2h10.2a3.382,3.382,0,0,0,0-6.764h-10.2V5.023a3.382,3.382,0,0,0-6.764,0v10.2Z" transform="translate(1494.505 296.014) rotate(-83)" fill="#fff" opacity="0.1"/>
    <g id="locked" transform="translate(768 962)" opacity="0.037">
      <path id="Tracé_321" data-name="Tracé 321" d="M43,20.113V14.5C43,6.505,35.822,0,27,0S11,6.505,11,14.5v5.613A7.235,7.235,0,0,0,5,27.23V46.772A7.237,7.237,0,0,0,12.229,54H41.771A7.237,7.237,0,0,0,49,46.771V27.229A7.235,7.235,0,0,0,43,20.113ZM13,14.5C13,7.607,19.28,2,27,2S41,7.607,41,14.5V20H13ZM47,46.771A5.235,5.235,0,0,1,41.771,52H12.229A5.235,5.235,0,0,1,7,46.771V27.229A5.235,5.235,0,0,1,12.229,22H41.771A5.235,5.235,0,0,1,47,27.229Z" fill="#fff"/>
      <path id="Tracé_322" data-name="Tracé 322" d="M27,28a4,4,0,0,0-4,4v6a4,4,0,0,0,8,0V32A4,4,0,0,0,27,28Zm2,10a2,2,0,0,1-4,0V32a2,2,0,0,1,4,0Z" fill="#fff"/>
    </g>
    <g id="locked-2" data-name="locked" transform="translate(1080 280)" opacity="0.097">
      <path id="Tracé_321-2" data-name="Tracé 321" d="M64.717,31.608V22.787C64.717,10.223,53.437,0,39.573,0S14.429,10.223,14.429,22.787v8.821A11.371,11.371,0,0,0,5,42.792V73.5A11.373,11.373,0,0,0,16.36,84.862H62.786A11.373,11.373,0,0,0,74.146,73.5V42.791A11.37,11.37,0,0,0,64.717,31.608ZM17.572,22.787c0-10.832,9.869-19.644,22-19.644s22,8.811,22,19.644V31.43h-44ZM71,73.5a8.227,8.227,0,0,1-8.217,8.217H16.36A8.227,8.227,0,0,1,8.143,73.5V42.791a8.227,8.227,0,0,1,8.217-8.217H62.786A8.227,8.227,0,0,1,71,42.791Z" transform="translate(0)" fill="#fff"/>
      <path id="Tracé_322-2" data-name="Tracé 322" d="M29.286,28A6.292,6.292,0,0,0,23,34.286v9.429a6.286,6.286,0,0,0,12.572,0V34.286A6.292,6.292,0,0,0,29.286,28Zm3.143,15.715a3.143,3.143,0,0,1-6.286,0V34.286a3.143,3.143,0,0,1,6.286,0Z" transform="translate(10.287 16.002)" fill="#fff"/>
    </g>
    <g id="locked-3" data-name="locked" transform="translate(88 772)" opacity="0.211">
      <path id="Tracé_321-3" data-name="Tracé 321" d="M35.125,15.945v-4.45C35.125,5.157,29.434,0,22.441,0S9.757,5.157,9.757,11.495v4.45A5.736,5.736,0,0,0,5,21.587V37.079a5.737,5.737,0,0,0,5.731,5.73H34.15a5.737,5.737,0,0,0,5.731-5.731V21.586A5.736,5.736,0,0,0,35.125,15.945Zm-23.783-4.45c0-5.464,4.979-9.909,11.1-9.909s11.1,4.445,11.1,9.909v4.36h-22.2ZM38.3,37.078a4.15,4.15,0,0,1-4.145,4.145H10.731a4.15,4.15,0,0,1-4.145-4.145V21.586a4.15,4.15,0,0,1,4.145-4.145H34.15A4.15,4.15,0,0,1,38.3,21.586Z" transform="translate(0)" fill="#fff"/>
      <path id="Tracé_322-3" data-name="Tracé 322" d="M26.171,28A3.174,3.174,0,0,0,23,31.171v4.757a3.171,3.171,0,0,0,6.342,0V31.171A3.174,3.174,0,0,0,26.171,28Zm1.586,7.928a1.586,1.586,0,1,1-3.171,0V31.171a1.586,1.586,0,1,1,3.171,0Z" transform="translate(-3.73 -5.803)" fill="#fff"/>
    </g>
    <g id="Ellipse_27" data-name="Ellipse 27" transform="translate(1735 616)" fill="none" stroke="#fff" stroke-width="5" stroke-dasharray="13" opacity="0.057">
      <circle cx="32.5" cy="32.5" r="32.5" stroke="none"/>
      <circle cx="32.5" cy="32.5" r="30" fill="none"/>
    </g>
    <g id="Ellipse_28" data-name="Ellipse 28" transform="translate(691 375)" fill="none" stroke="#fff" stroke-width="5" stroke-dasharray="13" opacity="0.057">
      <circle cx="82.5" cy="82.5" r="82.5" stroke="none"/>
      <circle cx="82.5" cy="82.5" r="80" fill="none"/>
    </g>
  </g>
</svg>
