<svg xmlns="http://www.w3.org/2000/svg" width="2073" height="1349"><g data-name="Groupe 222"><g data-name="Ellipse 26" transform="translate(0 639)" fill="none" stroke="#fff" stroke-width="10" stroke-dasharray="30 10" opacity=".051"><circle cx="355" cy="355" r="355" stroke="none"/><circle cx="355" cy="355" r="350"/></g><g opacity=".055" fill="#fff"><path data-name="Tracé 323" d="M1779.834 21.289L1740.316.232a1.963 1.963 0 0 0-1.871.011L1700.021 21.3a1.967 1.967 0 0 0-1.021 1.726v27.506a56.953 56.953 0 0 0 34.136 52.125l5.333 2.324a1.965 1.965 0 0 0 1.566 0l6.01-2.6a56.841 56.841 0 0 0 34.831-52.4V23.026a1.968 1.968 0 0 0-1.042-1.737zm-2.889 28.697a52.916 52.916 0 0 1-32.441 48.782l-.013.007-5.234 2.259-4.547-1.984a53.013 53.013 0 0 1-31.777-48.518V24.19l36.471-19.99 37.541 20zm0 0"/><path data-name="Tracé 324" d="M1724.889 49.256a1.968 1.968 0 0 0-2.993 2.555l10.392 12.17a1.967 1.967 0 0 0 2.737.249l24.2-19.691a1.967 1.967 0 1 0-2.483-3.052l-22.709 18.477zm0 0"/></g><g data-name="security" opacity=".055" fill="#fff"><path data-name="Tracé 323" d="M1863.642 373.344l-4.868-12.08a.571.571 0 0 0-.417-.349l-12.498-2.489a.572.572 0 0 0-.551.19l-5.142 6.129a16.563 16.563 0 0 0-2.139 17.997l.754 1.514a.572.572 0 0 0 .348.293l1.825.545a16.531 16.531 0 0 0 17.556-5.163l5.037-6.003a.572.572 0 0 0 .095-.584zm-6.01 5.852a15.389 15.389 0 0 1-16.344 4.805l-1.589-.475-.642-1.292a15.418 15.418 0 0 1 1.984-16.747l4.927-5.872 11.86 2.364 4.624 11.474zm0 0"/><path data-name="Tracé 324" d="M1846.173 369.303a.572.572 0 0 0-1.144.01l.04 4.653a.572.572 0 0 0 .566.57l9.073.137a.572.572 0 1 0 .018-1.144l-8.514-.13zm0 0"/></g><path d="M593.35 304.85a9.734 9.734 0 0 1-13.464-2.79l-8.924-13.737-13.736 8.923a9.772 9.772 0 0 1-10.645-16.387l13.737-8.923-8.924-13.737a9.772 9.772 0 0 1 16.388-10.645l8.923 13.737 13.737-8.924a9.772 9.772 0 0 1 10.645 16.388l-13.737 8.923 8.923 13.737a9.734 9.734 0 0 1-2.923 13.436zm-44.994-21.258a6.514 6.514 0 0 0 7.096 10.924l16.47-10.698 10.696 16.467a6.514 6.514 0 0 0 10.925-7.097l-10.697-16.467 16.467-10.697a6.514 6.514 0 0 0-7.097-10.925l-16.468 10.697-10.697-16.468a6.514 6.514 0 0 0-10.925 7.096l10.698 16.47z" fill="#fff" opacity=".254"/><path data-name="add" d="M920.206 48.111a5.394 5.394 0 0 1-4.069-6.441l2.042-8.846-8.845-2.042a5.415 5.415 0 0 1 2.436-10.551l8.844 2.042 2.042-8.845a5.415 5.415 0 0 1 10.551 2.436l-2.041 8.845 8.844 2.042a5.415 5.415 0 0 1-2.436 10.551l-8.844-2.042-2.042 8.845a5.394 5.394 0 0 1-6.482 4.006zm-8.842-26.121a3.61 3.61 0 0 0-1.624 7.034l10.603 2.448-2.448 10.603a3.61 3.61 0 0 0 7.034 1.624l2.448-10.604 10.603 2.448a3.61 3.61 0 0 0 1.624-7.034L929 26.061l2.448-10.603a3.61 3.61 0 0 0-7.034-1.624l-2.448 10.604z" fill="#fff" opacity=".067"/><path data-name="add" d="M1609.287 936.559a3.7 3.7 0 0 1-5.214-.25l-4.162-4.624-4.626 4.165a3.711 3.711 0 0 1-4.967-5.515l4.627-4.165-4.164-4.624a3.711 3.711 0 0 1 5.516-4.967l4.165 4.626 4.621-4.16a3.711 3.711 0 0 1 4.966 5.515l-4.623 4.163 4.16 4.621a3.7 3.7 0 0 1-.299 5.215zm-18.142-5.306a2.474 2.474 0 0 0 3.311 3.677l5.543-4.99 4.992 5.543a2.474 2.474 0 0 0 3.677-3.311l-4.99-5.543 5.542-4.99a2.474 2.474 0 0 0-3.311-3.677l-5.543 4.99-4.99-5.543a2.474 2.474 0 0 0-3.678 3.311l4.991 5.543z" fill="#fff" opacity=".26"/><path data-name="add" d="M1806.694 227.086a5.054 5.054 0 0 1-5.603 4.423l-8.439-1.036-1.036 8.44a5.073 5.073 0 0 1-10.07-1.236l1.036-8.441-8.443-1.037a5.073 5.073 0 0 1 1.237-10.07l8.441 1.036 1.037-8.442a5.073 5.073 0 0 1 10.07 1.236l-1.036 8.442 8.442 1.036a5.054 5.054 0 0 1 4.364 5.65zm-23.471 10.797a3.382 3.382 0 0 0 6.713.824l1.243-10.123 10.124 1.243a3.382 3.382 0 0 0 .825-6.714l-10.124-1.243 1.243-10.124a3.382 3.382 0 0 0-6.714-.824l-1.243 10.124-10.12-1.243a3.382 3.382 0 0 0-.824 6.714l10.124 1.243z" fill="#fff" opacity=".1"/><g opacity=".037" fill="#fff"><path data-name="Tracé 321" d="M1084 927.113V921.5c0-7.995-7.178-14.5-16-14.5s-16 6.505-16 14.5v5.613a7.235 7.235 0 0 0-6 7.117v19.542a7.237 7.237 0 0 0 7.229 7.228h29.542a7.237 7.237 0 0 0 7.229-7.229v-19.542a7.235 7.235 0 0 0-6-7.116zm-30-5.613c0-6.893 6.28-12.5 14-12.5s14 5.607 14 12.5v5.5h-28zm34 32.271a5.235 5.235 0 0 1-5.229 5.229h-29.542a5.235 5.235 0 0 1-5.229-5.229v-19.542a5.235 5.235 0 0 1 5.229-5.229h29.542a5.235 5.235 0 0 1 5.229 5.229z"/><path data-name="Tracé 322" d="M1068 935a4 4 0 0 0-4 4v6a4 4 0 0 0 8 0v-6a4 4 0 0 0-4-4zm2 10a2 2 0 0 1-4 0v-6a2 2 0 0 1 4 0z"/></g><g data-name="locked" opacity=".097" fill="#fff"><path data-name="Tracé 321" d="M1417.717 256.608v-8.821c0-12.564-11.28-22.787-25.144-22.787s-25.144 10.223-25.144 22.787v8.821a11.371 11.371 0 0 0-9.429 11.184V298.5a11.373 11.373 0 0 0 11.36 11.362h46.426a11.373 11.373 0 0 0 11.36-11.362v-30.709a11.37 11.37 0 0 0-9.429-11.183zm-47.145-8.821c0-10.832 9.869-19.644 22-19.644s22 8.811 22 19.644v8.643h-44zM1424 298.5a8.227 8.227 0 0 1-8.217 8.217h-46.423a8.227 8.227 0 0 1-8.217-8.217v-30.709a8.227 8.227 0 0 1 8.217-8.217h46.426a8.227 8.227 0 0 1 8.214 8.217z"/><path data-name="Tracé 322" d="M1392.573 269.002a6.292 6.292 0 0 0-6.286 6.286v9.429a6.286 6.286 0 0 0 12.572 0v-9.429a6.292 6.292 0 0 0-6.286-6.286zm3.143 15.715a3.143 3.143 0 0 1-6.286 0v-9.429a3.143 3.143 0 0 1 6.286 0z"/></g><g data-name="locked" opacity=".211" fill="#fff"><path data-name="Tracé 321" d="M396.125 732.945v-4.45c0-6.338-5.691-11.495-12.684-11.495s-12.684 5.157-12.684 11.495v4.45a5.736 5.736 0 0 0-4.757 5.642v15.492a5.737 5.737 0 0 0 5.731 5.73h23.419a5.737 5.737 0 0 0 5.731-5.731v-15.492a5.736 5.736 0 0 0-4.756-5.641zm-23.783-4.45c0-5.464 4.979-9.909 11.1-9.909s11.1 4.445 11.1 9.909v4.36h-22.2zm26.958 25.583a4.15 4.15 0 0 1-4.145 4.145h-23.424a4.15 4.15 0 0 1-4.145-4.145v-15.492a4.15 4.15 0 0 1 4.145-4.145h23.419a4.15 4.15 0 0 1 4.15 4.145z"/><path data-name="Tracé 322" d="M383.441 739.197a3.174 3.174 0 0 0-3.171 3.171v4.757a3.171 3.171 0 0 0 6.342 0v-4.757a3.174 3.174 0 0 0-3.171-3.171zm1.586 7.928a1.586 1.586 0 1 1-3.171 0v-4.757a1.586 1.586 0 1 1 3.171 0z"/></g><g data-name="Ellipse 27" transform="translate(2008 561)" fill="none" stroke="#fff" stroke-width="5" stroke-dasharray="13" opacity=".057"><circle cx="32.5" cy="32.5" r="32.5" stroke="none"/><circle cx="32.5" cy="32.5" r="30"/></g><g data-name="Ellipse 28" transform="translate(964 320)" fill="none" stroke="#fff" stroke-width="5" stroke-dasharray="13" opacity=".057"><circle cx="82.5" cy="82.5" r="82.5" stroke="none"/><circle cx="82.5" cy="82.5" r="80"/></g></g></svg>